<?xml version="1.0" encoding="UTF-8"?>
<svg width="3300px" height="2200px" viewBox="0 0 3300 2200" version="1.1" xmlns="http://www.w3.org/2000/svg" xmlns:xlink="http://www.w3.org/1999/xlink">
    <title>threads</title>
    <g id="threads" stroke="none" fill="none" fill-rule="evenodd" stroke-width="1">
        <g id="Group">
            <g id="Notes">
                <rect id="artboard" fill="#FFFFFF" x="0" y="0" width="3300" height="2200"></rect>
                <line x1="263" y1="292" x2="3036" y2="292" id="Path" stroke="#000000" stroke-width="0.5"></line>
                <text id="Weight/Scale-Variations" fill="#000000" fill-rule="nonzero" font-family="Helvetica" font-size="13" font-weight="normal">
                    <tspan x="263" y="322">Weight/Scale Variations</tspan>
                </text>
                <text id="Ultralight" fill="#000000" fill-rule="nonzero" font-family="Helvetica" font-size="13" font-weight="normal">
                    <tspan x="533.711" y="322">Ultralight</tspan>
                </text>
                <text id="Thin" fill="#000000" fill-rule="nonzero" font-family="Helvetica" font-size="13" font-weight="normal">
                    <tspan x="843.422" y="322">Thin</tspan>
                </text>
                <text id="Light" fill="#000000" fill-rule="nonzero" font-family="Helvetica" font-size="13" font-weight="normal">
                    <tspan x="1138.63" y="322">Light</tspan>
                </text>
                <text id="Regular" fill="#000000" fill-rule="nonzero" font-family="Helvetica" font-size="13" font-weight="normal">
                    <tspan x="1426.84" y="322">Regular</tspan>
                </text>
                <text id="Medium" fill="#000000" fill-rule="nonzero" font-family="Helvetica" font-size="13" font-weight="normal">
                    <tspan x="1723.06" y="322">Medium</tspan>
                </text>
                <text id="Semibold" fill="#000000" fill-rule="nonzero" font-family="Helvetica" font-size="13" font-weight="normal">
                    <tspan x="2015.77" y="322">Semibold</tspan>
                </text>
                <text id="Bold" fill="#000000" fill-rule="nonzero" font-family="Helvetica" font-size="13" font-weight="normal">
                    <tspan x="2326.48" y="322">Bold</tspan>
                </text>
                <text id="Heavy" fill="#000000" fill-rule="nonzero" font-family="Helvetica" font-size="13" font-weight="normal">
                    <tspan x="2618.19" y="322">Heavy</tspan>
                </text>
                <text id="Black" fill="#000000" fill-rule="nonzero" font-family="Helvetica" font-size="13" font-weight="normal">
                    <tspan x="2917.4" y="322">Black</tspan>
                </text>
                <line x1="263" y1="1903" x2="3036" y2="1903" id="Path" stroke="#000000" stroke-width="0.5"></line>
                <g id="Group" transform="translate(263, 1933)" fill="#000000" fill-rule="nonzero">
                    <path d="M9.24805,0.830078 C13.5547,0.830078 17.1387,-2.74414 17.1387,-7.05078 C17.1387,-11.3574 13.5449,-14.9316 9.23828,-14.9316 C4.94141,-14.9316 1.36719,-11.3574 1.36719,-7.05078 C1.36719,-2.74414 4.95117,0.830078 9.24805,0.830078 Z M9.24805,-0.654297 C5.70312,-0.654297 2.87109,-3.49609 2.87109,-7.05078 C2.87109,-10.6055 5.69336,-13.4473 9.23828,-13.4473 C12.793,-13.4473 15.6445,-10.6055 15.6445,-7.05078 C15.6445,-3.49609 12.8027,-0.654297 9.24805,-0.654297 Z M5.6543,-7.05078 C5.6543,-6.62109 5.95703,-6.32812 6.40625,-6.32812 L8.50586,-6.32812 L8.50586,-4.20898 C8.50586,-3.76953 8.79883,-3.4668 9.22852,-3.4668 C9.67773,-3.4668 9.9707,-3.76953 9.9707,-4.20898 L9.9707,-6.32812 L12.0898,-6.32812 C12.5293,-6.32812 12.832,-6.62109 12.832,-7.05078 C12.832,-7.49023 12.5293,-7.79297 12.0898,-7.79297 L9.9707,-7.79297 L9.9707,-9.90234 C9.9707,-10.3516 9.67773,-10.6543 9.22852,-10.6543 C8.79883,-10.6543 8.50586,-10.3516 8.50586,-9.90234 L8.50586,-7.79297 L6.40625,-7.79297 C5.95703,-7.79297 5.6543,-7.49023 5.6543,-7.05078 Z" id="Shape"></path>
                </g>
                <g id="Group" transform="translate(281.867, 1933)" fill="#000000" fill-rule="nonzero">
                    <path d="M11.709,2.91016 C17.1582,2.91016 21.6699,-1.61133 21.6699,-7.05078 C21.6699,-12.5 17.1484,-17.0117 11.6992,-17.0117 C6.25977,-17.0117 1.74805,-12.5 1.74805,-7.05078 C1.74805,-1.61133 6.26953,2.91016 11.709,2.91016 Z M11.709,1.25 C7.09961,1.25 3.41797,-2.44141 3.41797,-7.05078 C3.41797,-11.6602 7.08984,-15.3516 11.6992,-15.3516 C16.3086,-15.3516 20.0098,-11.6602 20.0098,-7.05078 C20.0098,-2.44141 16.3184,1.25 11.709,1.25 Z M7.17773,-7.05078 C7.17773,-6.57227 7.50977,-6.25 8.00781,-6.25 L10.8789,-6.25 L10.8789,-3.36914 C10.8789,-2.88086 11.2109,-2.53906 11.6895,-2.53906 C12.1777,-2.53906 12.5195,-2.87109 12.5195,-3.36914 L12.5195,-6.25 L15.4004,-6.25 C15.8887,-6.25 16.2305,-6.57227 16.2305,-7.05078 C16.2305,-7.53906 15.8887,-7.88086 15.4004,-7.88086 L12.5195,-7.88086 L12.5195,-10.752 C12.5195,-11.25 12.1777,-11.5918 11.6895,-11.5918 C11.2109,-11.5918 10.8789,-11.25 10.8789,-10.752 L10.8789,-7.88086 L8.00781,-7.88086 C7.50977,-7.88086 7.17773,-7.53906 7.17773,-7.05078 Z" id="Shape"></path>
                </g>
                <g id="Group" transform="translate(305.646, 1933)" fill="#000000" fill-rule="nonzero">
                    <path d="M14.9707,5.66406 C21.9336,5.66406 27.6953,-0.0976562 27.6953,-7.05078 C27.6953,-14.0137 21.9238,-19.7754 14.9609,-19.7754 C8.00781,-19.7754 2.25586,-14.0137 2.25586,-7.05078 C2.25586,-0.0976562 8.01758,5.66406 14.9707,5.66406 Z M14.9707,3.84766 C8.93555,3.84766 4.08203,-1.01562 4.08203,-7.05078 C4.08203,-13.0957 8.92578,-17.9492 14.9609,-17.9492 C21.0059,-17.9492 25.8691,-13.0957 25.8691,-7.05078 C25.8691,-1.01562 21.0156,3.84766 14.9707,3.84766 Z M9.19922,-7.05078 C9.19922,-6.5332 9.57031,-6.17188 10.1172,-6.17188 L14.0625,-6.17188 L14.0625,-2.2168 C14.0625,-1.67969 14.4336,-1.29883 14.9512,-1.29883 C15.4883,-1.29883 15.8594,-1.66992 15.8594,-2.2168 L15.8594,-6.17188 L19.8145,-6.17188 C20.3516,-6.17188 20.7324,-6.5332 20.7324,-7.05078 C20.7324,-7.59766 20.3613,-7.96875 19.8145,-7.96875 L15.8594,-7.96875 L15.8594,-11.9141 C15.8594,-12.4609 15.4883,-12.8418 14.9512,-12.8418 C14.4336,-12.8418 14.0625,-12.4609 14.0625,-11.9141 L14.0625,-7.96875 L10.1172,-7.96875 C9.57031,-7.96875 9.19922,-7.59766 9.19922,-7.05078 Z" id="Shape"></path>
                </g>
                <text id="Design-Variations" fill="#000000" fill-rule="nonzero" font-family="Helvetica" font-size="13" font-weight="normal">
                    <tspan x="263" y="1953">Design Variations</tspan>
                </text>
                <text id="Symbols-are-supported-in-up-to-nine-weights-and-three-scales." fill="#000000" fill-rule="nonzero" font-family="Helvetica" font-size="13" font-weight="normal">
                    <tspan x="263" y="1971">Symbols are supported in up to nine weights and three scales.</tspan>
                </text>
                <text id="For-optimal-layout-with-text-and-other-symbols,-vertically-align" fill="#000000" fill-rule="nonzero" font-family="Helvetica" font-size="13" font-weight="normal">
                    <tspan x="263" y="1989">For optimal layout with text and other symbols, vertically align</tspan>
                </text>
                <text id="symbols-with-the-adjacent-text." fill="#000000" fill-rule="nonzero" font-family="Helvetica" font-size="13" font-weight="normal">
                    <tspan x="263" y="2007">symbols with the adjacent text.</tspan>
                </text>
                <line x1="776" y1="1919" x2="776" y2="1933" id="Path" stroke="#00AEEF" stroke-width="0.5"></line>
                <g id="Group" transform="translate(776, 1933)" fill="#000000" fill-rule="nonzero">
                    <path d="M3.31055,0.15625 C3.82812,0.15625 4.08203,-0.0390625 4.26758,-0.585938 L5.52734,-4.0332 L11.2891,-4.0332 L12.5488,-0.585938 C12.7344,-0.0390625 12.9883,0.15625 13.4961,0.15625 C14.0137,0.15625 14.3457,-0.15625 14.3457,-0.644531 C14.3457,-0.810547 14.3164,-0.966797 14.2383,-1.17188 L9.6582,-13.3691 C9.43359,-13.9648 9.0332,-14.2676 8.4082,-14.2676 C7.80273,-14.2676 7.39258,-13.9746 7.17773,-13.3789 L2.59766,-1.16211 C2.51953,-0.957031 2.49023,-0.800781 2.49023,-0.634766 C2.49023,-0.146484 2.80273,0.15625 3.31055,0.15625 Z M6.00586,-5.51758 L8.37891,-12.0898 L8.42773,-12.0898 L10.8008,-5.51758 L6.00586,-5.51758 Z" id="Shape"></path>
                </g>
                <line x1="793.197" y1="1919" x2="793.197" y2="1933" id="Path" stroke="#00AEEF" stroke-width="0.5"></line>
                <text id="Margins" fill="#000000" fill-rule="nonzero" font-family="Helvetica" font-size="13" font-weight="normal">
                    <tspan x="776" y="1953">Margins</tspan>
                </text>
                <text id="Leading-and-trailing-margins-on-the-left-and-right-side-of-each-symbol" fill="#000000" fill-rule="nonzero" font-family="Helvetica" font-size="13" font-weight="normal">
                    <tspan x="776" y="1971">Leading and trailing margins on the left and right side of each symbol</tspan>
                </text>
                <text id="can-be-adjusted-by-modifying-the-x-location-of-the-margin-guidelines." fill="#000000" fill-rule="nonzero" font-family="Helvetica" font-size="13" font-weight="normal">
                    <tspan x="776" y="1989">can be adjusted by modifying the x-location of the margin guidelines.</tspan>
                </text>
                <text id="Modifications-are-automatically-applied-proportionally-to-all" fill="#000000" fill-rule="nonzero" font-family="Helvetica" font-size="13" font-weight="normal">
                    <tspan x="776" y="2007">Modifications are automatically applied proportionally to all</tspan>
                </text>
                <text id="scales-and-weights." fill="#000000" fill-rule="nonzero" font-family="Helvetica" font-size="13" font-weight="normal">
                    <tspan x="776" y="2025">scales and weights.</tspan>
                </text>
                <g id="Group" transform="translate(1289, 1933)" fill="#000000" fill-rule="nonzero">
                    <path d="M2.8418,1.86523 L4.54102,3.57422 C5.40039,4.44336 6.38672,4.38477 7.31445,3.35938 L18.0078,-8.42773 L17.041,-9.4043 L6.42578,2.27539 C6.07422,2.67578 5.74219,2.77344 5.27344,2.30469 L4.10156,1.14258 C3.63281,0.683594 3.74023,0.341797 4.14062,-0.0195312 L15.6152,-10.8203 L14.6387,-11.7871 L3.04688,-0.898438 C2.06055,0.0195312 1.98242,0.996094 2.8418,1.86523 Z M9.25781,-16.3281 C8.83789,-15.918 8.80859,-15.3418 9.04297,-14.9512 C9.27734,-14.5898 9.73633,-14.3555 10.3809,-14.5215 C11.8457,-14.8633 13.3691,-14.9219 14.7949,-13.9844 L14.209,-12.5293 C13.8672,-11.6992 14.043,-11.1133 14.5801,-10.5664 L16.875,-8.25195 C17.3633,-7.76367 17.7734,-7.74414 18.3398,-7.8418 L19.4043,-8.03711 L20.0684,-7.36328 L20.0293,-6.80664 C19.9902,-6.30859 20.1172,-5.92773 20.6055,-5.44922 L21.3672,-4.70703 C21.8457,-4.22852 22.4609,-4.19922 22.9297,-4.66797 L25.8398,-7.58789 C26.3086,-8.05664 26.2891,-8.65234 25.8105,-9.13086 L25.0391,-9.89258 C24.5605,-10.3711 24.1895,-10.5273 23.7109,-10.4883 L23.1348,-10.4395 L22.4902,-11.0742 L22.7344,-12.1973 C22.8613,-12.7637 22.7051,-13.2031 22.1191,-13.7891 L19.9219,-15.9766 C16.582,-19.2969 12.1484,-19.2188 9.25781,-16.3281 Z M10.752,-15.957 C13.1836,-17.7344 16.4746,-17.4316 18.7012,-15.2051 L21.1328,-12.793 C21.3672,-12.5586 21.4062,-12.373 21.3379,-12.0312 L21.0156,-10.5469 L22.5195,-9.0625 L23.5059,-9.12109 C23.7598,-9.13086 23.8379,-9.11133 24.0332,-8.91602 L24.6094,-8.33984 L22.168,-5.89844 L21.5918,-6.47461 C21.3965,-6.66992 21.3672,-6.74805 21.377,-7.01172 L21.4453,-7.98828 L19.9512,-9.47266 L18.4277,-9.21875 C18.1055,-9.15039 17.959,-9.17969 17.7148,-9.41406 L15.7129,-11.416 C15.459,-11.6504 15.4297,-11.8164 15.5859,-12.1875 L16.4648,-14.2773 C14.9023,-15.7324 12.8711,-16.3574 10.8398,-15.7617 C10.6836,-15.7227 10.625,-15.8496 10.752,-15.957 Z" id="Shape"></path>
                </g>
                <text id="Exporting" fill="#000000" fill-rule="nonzero" font-family="Helvetica" font-size="13" font-weight="normal">
                    <tspan x="1289" y="1953">Exporting</tspan>
                </text>
                <text id="Symbols-should-be-outlined-when-exporting-to-ensure-the" fill="#000000" fill-rule="nonzero" font-family="Helvetica" font-size="13" font-weight="normal">
                    <tspan x="1289" y="1971">Symbols should be outlined when exporting to ensure the</tspan>
                </text>
                <text id="design-is-preserved-when-submitting-to-Xcode." fill="#000000" fill-rule="nonzero" font-family="Helvetica" font-size="13" font-weight="normal">
                    <tspan x="1289" y="1989">design is preserved when submitting to Xcode.</tspan>
                </text>
                <text id="template-version" fill="#000000" fill-rule="nonzero" font-family="Helvetica" font-size="13" font-weight="normal">
                    <tspan x="2952" y="1933">Template v.4.0</tspan>
                </text>
                <text id="Requires-Xcode-14-or-greater" fill="#000000" fill-rule="nonzero" font-family="Helvetica" font-size="13" font-weight="normal">
                    <tspan x="2865" y="1951">Requires Xcode 14 or greater</tspan>
                </text>
                <text id="descriptive-name" fill="#000000" fill-rule="nonzero" font-family="Helvetica" font-size="13" font-weight="normal">
                    <tspan x="2897" y="1969">Generated from threads</tspan>
                </text>
                <text id="Typeset-at-100-points" fill="#000000" fill-rule="nonzero" font-family="Helvetica" font-size="13" font-weight="normal">
                    <tspan x="2912" y="1987">Typeset at 100 points</tspan>
                </text>
                <text id="Small" fill="#000000" fill-rule="nonzero" font-family="Helvetica" font-size="13" font-weight="normal">
                    <tspan x="263" y="726">Small</tspan>
                </text>
                <text id="Medium" fill="#000000" fill-rule="nonzero" font-family="Helvetica" font-size="13" font-weight="normal">
                    <tspan x="263" y="1156">Medium</tspan>
                </text>
                <text id="Large" fill="#000000" fill-rule="nonzero" font-family="Helvetica" font-size="13" font-weight="normal">
                    <tspan x="263" y="1586">Large</tspan>
                </text>
            </g>
            <g id="Guides">
                <g id="H-reference" transform="translate(339, 696)" fill="#27AAE1" fill-rule="nonzero">
                    <path d="M0.993654,0 L3.63775,0 L29.3281,-67.1323 L30.0303,-67.1323 L30.0303,-70.459 L28.1226,-70.459 L0.993654,0 Z M11.6885,-24.4799 L46.9815,-24.4799 L46.2315,-26.7285 L12.4385,-26.7285 L11.6885,-24.4799 Z M55.1196,0 L57.7637,0 L30.6382,-70.459 L29.4326,-70.459 L29.4326,-67.1323 L55.1196,0 Z" id="Shape"></path>
                </g>
                <line x1="263" y1="696" x2="3036" y2="696" id="Baseline-S" stroke="#27AAE1" stroke-width="0.5"></line>
                <line x1="263" y1="625.541" x2="3036" y2="625.541" id="Capline-S" stroke="#27AAE1" stroke-width="0.5"></line>
                <g id="H-reference" transform="translate(339, 1126)" fill="#27AAE1" fill-rule="nonzero">
                    <path d="M0.993654,0 L3.63775,0 L29.3281,-67.1323 L30.0303,-67.1323 L30.0303,-70.459 L28.1226,-70.459 L0.993654,0 Z M11.6885,-24.4799 L46.9815,-24.4799 L46.2315,-26.7285 L12.4385,-26.7285 L11.6885,-24.4799 Z M55.1196,0 L57.7637,0 L30.6382,-70.459 L29.4326,-70.459 L29.4326,-67.1323 L55.1196,0 Z" id="Shape"></path>
                </g>
                <line x1="263" y1="1126" x2="3036" y2="1126" id="Baseline-M" stroke="#27AAE1" stroke-width="0.5"></line>
                <line x1="263" y1="1055.54" x2="3036" y2="1055.54" id="Capline-M" stroke="#27AAE1" stroke-width="0.5"></line>
                <g id="H-reference" transform="translate(339, 1556)" fill="#27AAE1" fill-rule="nonzero">
                    <path d="M0.993654,0 L3.63775,0 L29.3281,-67.1323 L30.0303,-67.1323 L30.0303,-70.459 L28.1226,-70.459 L0.993654,0 Z M11.6885,-24.4799 L46.9815,-24.4799 L46.2315,-26.7285 L12.4385,-26.7285 L11.6885,-24.4799 Z M55.1196,0 L57.7637,0 L30.6382,-70.459 L29.4326,-70.459 L29.4326,-67.1323 L55.1196,0 Z" id="Shape"></path>
                </g>
                <line x1="263" y1="1556" x2="3036" y2="1556" id="Baseline-L" stroke="#27AAE1" stroke-width="0.5"></line>
                <line x1="263" y1="1485.54" x2="3036" y2="1485.54" id="Capline-L" stroke="#27AAE1" stroke-width="0.5"></line>
                <line x1="1396.32" y1="1030.79" x2="1396.32" y2="1150.12" id="left-margin-Regular-M" stroke="#00AEEF" stroke-width="0.5"></line>
                <line x1="1503.37" y1="1030.79" x2="1503.37" y2="1150.12" id="right-margin-Regular-M" stroke="#00AEEF" stroke-width="0.5"></line>
            </g>
            <g id="Symbols" fill="#000000" fill-rule="nonzero">
                <g id="Regular-M" transform="translate(1396.32, 1126)">
                    <path d="M75.7049713,-37.9251389 C75.5914317,-51.1412037 68.4392763,-59.1053889 56.3595011,-59.1053889 C48.2965056,-59.1053889 41.5152463,-55.4519074 37.9534662,-49.62875 L45.7599463,-44.1763333 C47.7826337,-47.3731296 50.5748674,-50.0281389 55.7034944,-50.0281389 C61.487287,-50.0281389 64.4788459,-46.8026944 65.3333368,-40.8084907 C62.541103,-41.2365278 59.7488692,-41.4648704 56.871691,-41.4648704 C41.2578898,-41.4648704 33.9072503,-34.3854074 33.9072503,-25.0233611 C33.9072503,-15.6613148 41.2578898,-9.89461111 52.085365,-9.89461111 C63.9666561,-9.89461111 71.0607801,-17.91525 73.9673945,-27.8494167 C76.9875486,-26.4793611 79.0674263,-23.2825648 79.0674263,-18.4865278 C79.0674263,-5.6412037 64.2803618,1.35231481 51.7439051,1.35231481 C33.2529257,1.35231481 21.1723095,-10.8079815 21.1723095,-30.5886852 C21.1723095,-54.8233333 37.1561657,-70.3514722 58.638704,-70.3514722 C73.0557134,-70.3514722 80.1784326,-64.0143333 85.0219489,-55.5083611 L93,-61.1031759 C87.7283972,-72.1217593 75.9614868,-80 58.296403,-80 C30.1461451,-80 11,-59.9901111 11,-30.9602685 C11,-4.4135463 29.7474948,11 52.085365,11 C70.5477492,11 89.2102996,0.210601852 89.2102996,-18.2581852 C89.2102996,-27.9058704 83.6830224,-34.3003056 75.7049713,-37.9251389 L75.7049713,-37.9251389 Z M51.743064,-19.5144907 C47.669094,-19.5144907 44.0787188,-21.4558241 44.0787188,-25.0233611 C44.0787188,-30.6468241 50.9735177,-32.3589722 57.7261818,-32.3589722 C60.2904953,-32.3589722 62.7976184,-32.1879259 65.019631,-31.7025926 C63.424189,-24.3956296 58.6942122,-19.5136481 51.742223,-19.5136481 L51.742223,-19.5136481 L51.743064,-19.5144907 Z" id="Shape"></path>
                </g>
                <g id="Black-S" transform="translate(2884.88, 696)">
                    <path d="M68.8141212,-39.0111111 C68.7144278,-50.6296296 62.4344865,-57.6311111 51.8278546,-57.6311111 C44.7481513,-57.6311111 38.7938748,-54.4192593 35.6664581,-49.3 L42.5209284,-44.5066667 C44.2969466,-47.317037 46.7486641,-49.6511111 51.2518487,-49.6511111 C56.3303008,-49.6511111 58.9570355,-46.8155556 59.7073201,-41.5459259 C57.2556026,-41.9222222 54.8038852,-42.122963 52.2775823,-42.122963 C38.5679033,-42.122963 32.1136832,-35.8992593 32.1136832,-27.6688889 C32.1136832,-19.4385185 38.5679033,-14.3688889 48.0749546,-14.3688889 C58.5073078,-14.3688889 64.7362947,-21.42 67.288444,-30.1533333 C69.9402866,-28.9488889 71.7665207,-26.1385185 71.7665207,-21.9222222 C71.7665207,-10.6296296 58.7827567,-4.48148148 47.7751362,-4.48148148 C31.5391542,-4.48148148 20.9317839,-15.1718519 20.9317839,-32.5614815 C20.9317839,-53.8666667 34.9663894,-67.5177778 53.8291059,-67.5177778 C66.4879435,-67.5177778 72.7420384,-61.9466667 76.994882,-54.4688889 L84,-59.3874074 C79.3712756,-69.0740741 69.0393542,-76 53.528549,-76 C28.8112493,-76 12,-58.4088889 12,-32.8881481 C12,-9.55037037 28.461215,4 48.0749546,4 C64.2858286,4 80.6724582,-5.48518519 80.6724582,-21.7214815 C80.6724582,-30.202963 75.8192392,-35.8244444 68.8141212,-39.0111111 L68.8141212,-39.0111111 Z M47.7743977,-22.8259259 C44.1972533,-22.8259259 41.0447287,-24.5325926 41.0447287,-27.6688889 C41.0447287,-32.6125926 47.0986984,-34.1177778 53.027867,-34.1177778 C55.2794593,-34.1177778 57.4808357,-33.9674074 59.4318711,-33.5407407 C58.0309952,-27.117037 53.8778449,-22.8251852 47.7736592,-22.8251852 L47.7736592,-22.8251852 L47.7743977,-22.8259259 Z" id="Shape"></path>
                </g>
                <g id="Regular-S" transform="translate(1404.82, 696)">
                    <path d="M63.2905261,-37.71 C63.2005251,-48.1666667 57.5311337,-54.468 47.9557021,-54.468 C41.5643032,-54.468 36.1889148,-51.5773333 33.3655525,-46.97 L39.5536159,-42.656 C41.1569657,-45.1853333 43.3703217,-47.286 47.4356968,-47.286 C52.0204105,-47.286 54.3917681,-44.734 55.0691084,-39.9913333 C52.8557524,-40.33 50.6423963,-40.5106667 48.3617063,-40.5106667 C35.9849127,-40.5106667 30.1581862,-34.9093333 30.1581862,-27.502 C30.1581862,-20.0946667 35.9849127,-15.532 44.5676674,-15.532 C53.985764,-15.532 59.609155,-21.878 61.9131786,-29.738 C64.3072032,-28.654 65.9558867,-26.1246667 65.9558867,-22.33 C65.9558867,-12.1666667 54.2344332,-6.63333333 44.2969979,-6.63333333 C29.6395143,-6.63333333 20.063416,-16.2546667 20.063416,-31.9053333 C20.063416,-51.08 32.733546,-63.366 49.7623873,-63.366 C61.1905045,-63.366 66.8365624,-58.352 70.6759351,-51.622 L77,-56.0486667 C72.8212905,-64.7666667 63.4938615,-71 49.4910512,-71 C27.1768223,-71 12,-55.168 12,-32.1993333 C12,-11.1953333 26.8608191,1 44.5676674,1 C59.2024841,1 73.9959692,-7.53666667 73.9959692,-22.1493333 C73.9959692,-29.7826667 69.6145909,-34.842 63.2905261,-37.71 L63.2905261,-37.71 Z M44.2963312,-23.1433333 C41.0669648,-23.1433333 38.2209356,-24.6793333 38.2209356,-27.502 C38.2209356,-31.9513333 43.686325,-33.306 49.0390466,-33.306 C51.0717341,-33.306 53.0590878,-33.1706667 54.8204392,-32.7866667 C53.5557595,-27.0053333 49.8063878,-23.1426667 44.2956646,-23.1426667 L44.2956646,-23.1426667 L44.2963312,-23.1433333 Z" id="Shape"></path>
                </g>
                <g id="Ultralight-S" transform="translate(516.686, 696)">
                    <path d="M60.134186,-37.5594444 C60.0497236,-47.4351852 54.7292177,-53.3864444 45.7430435,-53.3864444 C39.7449615,-53.3864444 34.7003662,-50.6563704 32.0507492,-46.305 L37.8580088,-42.2306667 C39.3626909,-44.6194815 41.4398404,-46.6034444 45.2550385,-46.6034444 C49.557616,-46.6034444 51.7830439,-44.1932222 52.4187017,-39.714037 C50.3415522,-40.0338889 48.2644027,-40.2045185 46.1240628,-40.2045185 C34.508918,-40.2045185 29.0407594,-34.9143704 29.0407594,-27.9185556 C29.0407594,-20.9227407 34.508918,-16.6135556 42.5635032,-16.6135556 C51.4020246,-16.6135556 56.6793608,-22.607 58.8415984,-30.0303333 C61.0882983,-29.0065556 62.6355245,-26.6177407 62.6355245,-23.0338889 C62.6355245,-13.4351852 51.6353911,-8.20925926 42.3094904,-8.20925926 C28.5540057,-8.20925926 19.5672058,-17.2960741 19.5672058,-32.0772593 C19.5672058,-50.1866667 31.4576355,-61.7901111 47.4385481,-61.7901111 C58.1633965,-61.7901111 63.4620047,-57.0546667 67.0651084,-50.6985556 L73,-54.8792963 C69.0784418,-63.112963 60.3250085,-69 47.1839096,-69 C26.242864,-69 12,-54.0475556 12,-32.3549259 C12,-12.5178148 25.9463071,-1 42.5635032,-1 C56.2977159,-1 70.1808326,-9.06240741 70.1808326,-22.8632593 C70.1808326,-30.0725185 66.0690776,-34.8507778 60.134186,-37.5594444 L60.134186,-37.5594444 Z M42.3088647,-23.802037 C39.2782285,-23.802037 36.6073396,-25.2527037 36.6073396,-27.9185556 C36.6073396,-32.1207037 41.7363973,-33.4001111 46.7597206,-33.4001111 C48.6673197,-33.4001111 50.5323747,-33.2722963 52.1853352,-32.9096296 C50.998482,-27.4494815 47.4798408,-23.8014074 42.3082391,-23.8014074 L42.3082391,-23.8014074 L42.3088647,-23.802037 Z" id="Shape"></path>
                </g>
            </g>
        </g>
    </g>
</svg>