<?xml version="1.0" encoding="UTF-8"?>
<!--Generator: Apple Native CoreSVG 175.5-->
<!DOCTYPE svg
PUBLIC "-//W3C//DTD SVG 1.1//EN"
       "http://www.w3.org/Graphics/SVG/1.1/DTD/svg11.dtd">
<svg version="1.1" xmlns="http://www.w3.org/2000/svg" xmlns:xlink="http://www.w3.org/1999/xlink" width="3300" height="2200">
 <!--glyph: "", point size: 100.0, font version: "18.0d12e2", template writer version: "101"-->
 <style>.monochrome-0 {fill:#000000}

.SFSymbolsPreview000000 {fill:#000000;opacity:1.0}
</style>
 <g id="Notes">
  <rect height="2200" id="artboard" style="fill:white;opacity:1" width="3300" x="0" y="0"/>
  <line style="fill:none;stroke:black;opacity:1;stroke-width:0.5;" x1="263" x2="3036" y1="292" y2="292"/>
  <text style="stroke:none;fill:black;font-family:sans-serif;font-size:13;font-weight:bold;" transform="matrix(1 0 0 1 263 322)">Weight/Scale Variations</text>
  <text style="stroke:none;fill:black;font-family:sans-serif;font-size:13;text-anchor:middle;" transform="matrix(1 0 0 1 559.711 322)">Ultralight</text>
  <text style="stroke:none;fill:black;font-family:sans-serif;font-size:13;text-anchor:middle;" transform="matrix(1 0 0 1 856.422 322)">Thin</text>
  <text style="stroke:none;fill:black;font-family:sans-serif;font-size:13;text-anchor:middle;" transform="matrix(1 0 0 1 1153.13 322)">Light</text>
  <text style="stroke:none;fill:black;font-family:sans-serif;font-size:13;text-anchor:middle;" transform="matrix(1 0 0 1 1449.84 322)">Regular</text>
  <text style="stroke:none;fill:black;font-family:sans-serif;font-size:13;text-anchor:middle;" transform="matrix(1 0 0 1 1746.56 322)">Medium</text>
  <text style="stroke:none;fill:black;font-family:sans-serif;font-size:13;text-anchor:middle;" transform="matrix(1 0 0 1 2043.27 322)">Semibold</text>
  <text style="stroke:none;fill:black;font-family:sans-serif;font-size:13;text-anchor:middle;" transform="matrix(1 0 0 1 2339.98 322)">Bold</text>
  <text style="stroke:none;fill:black;font-family:sans-serif;font-size:13;text-anchor:middle;" transform="matrix(1 0 0 1 2636.69 322)">Heavy</text>
  <text style="stroke:none;fill:black;font-family:sans-serif;font-size:13;text-anchor:middle;" transform="matrix(1 0 0 1 2933.4 322)">Black</text>
  <line style="fill:none;stroke:black;opacity:1;stroke-width:0.5;" x1="263" x2="3036" y1="1903" y2="1903"/>
  <g transform="matrix(1 0 0 1 263 1933)">
   <path d="M9.24805 0.830078C13.5547 0.830078 17.1387-2.74414 17.1387-7.05078C17.1387-11.3574 13.5449-14.9316 9.23828-14.9316C4.94141-14.9316 1.36719-11.3574 1.36719-7.05078C1.36719-2.74414 4.95117 0.830078 9.24805 0.830078ZM9.24805-0.654297C5.70312-0.654297 2.87109-3.49609 2.87109-7.05078C2.87109-10.6055 5.69336-13.4473 9.23828-13.4473C12.793-13.4473 15.6445-10.6055 15.6445-7.05078C15.6445-3.49609 12.8027-0.654297 9.24805-0.654297ZM5.6543-7.05078C5.6543-6.62109 5.95703-6.32812 6.40625-6.32812L8.50586-6.32812L8.50586-4.20898C8.50586-3.76953 8.79883-3.4668 9.22852-3.4668C9.67773-3.4668 9.9707-3.76953 9.9707-4.20898L9.9707-6.32812L12.0898-6.32812C12.5293-6.32812 12.832-6.62109 12.832-7.05078C12.832-7.49023 12.5293-7.79297 12.0898-7.79297L9.9707-7.79297L9.9707-9.90234C9.9707-10.3516 9.67773-10.6543 9.22852-10.6543C8.79883-10.6543 8.50586-10.3516 8.50586-9.90234L8.50586-7.79297L6.40625-7.79297C5.95703-7.79297 5.6543-7.49023 5.6543-7.05078Z"/>
  </g>
  <g transform="matrix(1 0 0 1 281.867 1933)">
   <path d="M11.709 2.91016C17.1582 2.91016 21.6699-1.61133 21.6699-7.05078C21.6699-12.5 17.1484-17.0117 11.6992-17.0117C6.25977-17.0117 1.74805-12.5 1.74805-7.05078C1.74805-1.61133 6.26953 2.91016 11.709 2.91016ZM11.709 1.25C7.09961 1.25 3.41797-2.44141 3.41797-7.05078C3.41797-11.6602 7.08984-15.3516 11.6992-15.3516C16.3086-15.3516 20.0098-11.6602 20.0098-7.05078C20.0098-2.44141 16.3184 1.25 11.709 1.25ZM7.17773-7.05078C7.17773-6.57227 7.50977-6.25 8.00781-6.25L10.8789-6.25L10.8789-3.36914C10.8789-2.88086 11.2109-2.53906 11.6895-2.53906C12.1777-2.53906 12.5195-2.87109 12.5195-3.36914L12.5195-6.25L15.4004-6.25C15.8887-6.25 16.2305-6.57227 16.2305-7.05078C16.2305-7.53906 15.8887-7.88086 15.4004-7.88086L12.5195-7.88086L12.5195-10.752C12.5195-11.25 12.1777-11.5918 11.6895-11.5918C11.2109-11.5918 10.8789-11.25 10.8789-10.752L10.8789-7.88086L8.00781-7.88086C7.50977-7.88086 7.17773-7.53906 7.17773-7.05078Z"/>
  </g>
  <g transform="matrix(1 0 0 1 305.646 1933)">
   <path d="M14.9707 5.66406C21.9336 5.66406 27.6953-0.0976562 27.6953-7.05078C27.6953-14.0137 21.9238-19.7754 14.9609-19.7754C8.00781-19.7754 2.25586-14.0137 2.25586-7.05078C2.25586-0.0976562 8.01758 5.66406 14.9707 5.66406ZM14.9707 3.84766C8.93555 3.84766 4.08203-1.01562 4.08203-7.05078C4.08203-13.0957 8.92578-17.9492 14.9609-17.9492C21.0059-17.9492 25.8691-13.0957 25.8691-7.05078C25.8691-1.01562 21.0156 3.84766 14.9707 3.84766ZM9.19922-7.05078C9.19922-6.5332 9.57031-6.17188 10.1172-6.17188L14.0625-6.17188L14.0625-2.2168C14.0625-1.67969 14.4336-1.29883 14.9512-1.29883C15.4883-1.29883 15.8594-1.66992 15.8594-2.2168L15.8594-6.17188L19.8145-6.17188C20.3516-6.17188 20.7324-6.5332 20.7324-7.05078C20.7324-7.59766 20.3613-7.96875 19.8145-7.96875L15.8594-7.96875L15.8594-11.9141C15.8594-12.4609 15.4883-12.8418 14.9512-12.8418C14.4336-12.8418 14.0625-12.4609 14.0625-11.9141L14.0625-7.96875L10.1172-7.96875C9.57031-7.96875 9.19922-7.59766 9.19922-7.05078Z"/>
  </g>
  <text style="stroke:none;fill:black;font-family:sans-serif;font-size:13;font-weight:bold;" transform="matrix(1 0 0 1 263 1953)">Design Variations</text>
  <text style="stroke:none;fill:black;font-family:sans-serif;font-size:13;" transform="matrix(1 0 0 1 263 1971)">Symbols are supported in up to nine weights and three scales.</text>
  <text style="stroke:none;fill:black;font-family:sans-serif;font-size:13;" transform="matrix(1 0 0 1 263 1989)">For optimal layout with text and other symbols, vertically align</text>
  <text style="stroke:none;fill:black;font-family:sans-serif;font-size:13;" transform="matrix(1 0 0 1 263 2007)">symbols with the adjacent text.</text>
  <line style="fill:none;stroke:#00AEEF;stroke-width:0.5;opacity:1.0;" x1="776" x2="776" y1="1919" y2="1933"/>
  <g transform="matrix(1 0 0 1 776 1933)">
   <path d="M3.31055 0.15625C3.82812 0.15625 4.08203-0.0390625 4.26758-0.585938L5.52734-4.0332L11.2891-4.0332L12.5488-0.585938C12.7344-0.0390625 12.9883 0.15625 13.4961 0.15625C14.0137 0.15625 14.3457-0.15625 14.3457-0.644531C14.3457-0.810547 14.3164-0.966797 14.2383-1.17188L9.6582-13.3691C9.43359-13.9648 9.0332-14.2676 8.4082-14.2676C7.80273-14.2676 7.39258-13.9746 7.17773-13.3789L2.59766-1.16211C2.51953-0.957031 2.49023-0.800781 2.49023-0.634766C2.49023-0.146484 2.80273 0.15625 3.31055 0.15625ZM6.00586-5.51758L8.37891-12.0898L8.42773-12.0898L10.8008-5.51758Z"/>
  </g>
  <line style="fill:none;stroke:#00AEEF;stroke-width:0.5;opacity:1.0;" x1="793.197" x2="793.197" y1="1919" y2="1933"/>
  <text style="stroke:none;fill:black;font-family:sans-serif;font-size:13;font-weight:bold;" transform="matrix(1 0 0 1 776 1953)">Margins</text>
  <text style="stroke:none;fill:black;font-family:sans-serif;font-size:13;" transform="matrix(1 0 0 1 776 1971)">Leading and trailing margins on the left and right side of each symbol</text>
  <text style="stroke:none;fill:black;font-family:sans-serif;font-size:13;" transform="matrix(1 0 0 1 776 1989)">can be adjusted by modifying the x-location of the margin guidelines.</text>
  <text style="stroke:none;fill:black;font-family:sans-serif;font-size:13;" transform="matrix(1 0 0 1 776 2007)">Modifications are automatically applied proportionally to all</text>
  <text style="stroke:none;fill:black;font-family:sans-serif;font-size:13;" transform="matrix(1 0 0 1 776 2025)">scales and weights.</text>
  <g transform="matrix(1 0 0 1 1289 1933)">
   <path d="M2.8418 1.86523L4.54102 3.57422C5.40039 4.44336 6.38672 4.38477 7.31445 3.35938L18.0078-8.42773L17.041-9.4043L6.42578 2.27539C6.07422 2.67578 5.74219 2.77344 5.27344 2.30469L4.10156 1.14258C3.63281 0.683594 3.74023 0.341797 4.14062-0.0195312L15.6152-10.8203L14.6387-11.7871L3.04688-0.898438C2.06055 0.0195312 1.98242 0.996094 2.8418 1.86523ZM9.25781-16.3281C8.83789-15.918 8.80859-15.3418 9.04297-14.9512C9.27734-14.5898 9.73633-14.3555 10.3809-14.5215C11.8457-14.8633 13.3691-14.9219 14.7949-13.9844L14.209-12.5293C13.8672-11.6992 14.043-11.1133 14.5801-10.5664L16.875-8.25195C17.3633-7.76367 17.7734-7.74414 18.3398-7.8418L19.4043-8.03711L20.0684-7.36328L20.0293-6.80664C19.9902-6.30859 20.1172-5.92773 20.6055-5.44922L21.3672-4.70703C21.8457-4.22852 22.4609-4.19922 22.9297-4.66797L25.8398-7.58789C26.3086-8.05664 26.2891-8.65234 25.8105-9.13086L25.0391-9.89258C24.5605-10.3711 24.1895-10.5273 23.7109-10.4883L23.1348-10.4395L22.4902-11.0742L22.7344-12.1973C22.8613-12.7637 22.7051-13.2031 22.1191-13.7891L19.9219-15.9766C16.582-19.2969 12.1484-19.2188 9.25781-16.3281ZM10.752-15.957C13.1836-17.7344 16.4746-17.4316 18.7012-15.2051L21.1328-12.793C21.3672-12.5586 21.4062-12.373 21.3379-12.0312L21.0156-10.5469L22.5195-9.0625L23.5059-9.12109C23.7598-9.13086 23.8379-9.11133 24.0332-8.91602L24.6094-8.33984L22.168-5.89844L21.5918-6.47461C21.3965-6.66992 21.3672-6.74805 21.377-7.01172L21.4453-7.98828L19.9512-9.47266L18.4277-9.21875C18.1055-9.15039 17.959-9.17969 17.7148-9.41406L15.7129-11.416C15.459-11.6504 15.4297-11.8164 15.5859-12.1875L16.4648-14.2773C14.9023-15.7324 12.8711-16.3574 10.8398-15.7617C10.6836-15.7227 10.625-15.8496 10.752-15.957Z"/>
  </g>
  <text style="stroke:none;fill:black;font-family:sans-serif;font-size:13;font-weight:bold;" transform="matrix(1 0 0 1 1289 1953)">Exporting</text>
  <text style="stroke:none;fill:black;font-family:sans-serif;font-size:13;" transform="matrix(1 0 0 1 1289 1971)">Symbols should be outlined when exporting to ensure the</text>
  <text style="stroke:none;fill:black;font-family:sans-serif;font-size:13;" transform="matrix(1 0 0 1 1289 1989)">design is preserved when submitting to Xcode.</text>
  <text id="template-version" style="stroke:none;fill:black;font-family:sans-serif;font-size:13;text-anchor:end;" transform="matrix(1 0 0 1 3036 1933)">Template v.4.0</text>
  <text style="stroke:none;fill:black;font-family:sans-serif;font-size:13;text-anchor:end;" transform="matrix(1 0 0 1 3036 1951)">Requires Xcode 14 or greater</text>
  <text id="descriptive-name" style="stroke:none;fill:black;font-family:sans-serif;font-size:13;text-anchor:end;" transform="matrix(1 0 0 1 3036 1969)">Generated from threads</text>
  <text style="stroke:none;fill:black;font-family:sans-serif;font-size:13;text-anchor:end;" transform="matrix(1 0 0 1 3036 1987)">Typeset at 100 points</text>
  <text style="stroke:none;fill:black;font-family:sans-serif;font-size:13;" transform="matrix(1 0 0 1 263 726)">Small</text>
  <text style="stroke:none;fill:black;font-family:sans-serif;font-size:13;" transform="matrix(1 0 0 1 263 1156)">Medium</text>
  <text style="stroke:none;fill:black;font-family:sans-serif;font-size:13;" transform="matrix(1 0 0 1 263 1586)">Large</text>
 </g>
 <g id="Guides">
  <g id="H-reference" style="fill:#27AAE1;stroke:none;" transform="matrix(1 0 0 1 339 696)">
   <path d="M0.993654 0L3.63775 0L29.3281-67.1323L30.0303-67.1323L30.0303-70.459L28.1226-70.459ZM11.6885-24.4799L46.9815-24.4799L46.2315-26.7285L12.4385-26.7285ZM55.1196 0L57.7637 0L30.6382-70.459L29.4326-70.459L29.4326-67.1323Z"/>
  </g>
  <line id="Baseline-S" style="fill:none;stroke:#27AAE1;opacity:1;stroke-width:0.5;" x1="263" x2="3036" y1="696" y2="696"/>
  <line id="Capline-S" style="fill:none;stroke:#27AAE1;opacity:1;stroke-width:0.5;" x1="263" x2="3036" y1="625.541" y2="625.541"/>
  <g id="H-reference" style="fill:#27AAE1;stroke:none;" transform="matrix(1 0 0 1 339 1126)">
   <path d="M0.993654 0L3.63775 0L29.3281-67.1323L30.0303-67.1323L30.0303-70.459L28.1226-70.459ZM11.6885-24.4799L46.9815-24.4799L46.2315-26.7285L12.4385-26.7285ZM55.1196 0L57.7637 0L30.6382-70.459L29.4326-70.459L29.4326-67.1323Z"/>
  </g>
  <line id="Baseline-M" style="fill:none;stroke:#27AAE1;opacity:1;stroke-width:0.5;" x1="263" x2="3036" y1="1126" y2="1126"/>
  <line id="Capline-M" style="fill:none;stroke:#27AAE1;opacity:1;stroke-width:0.5;" x1="263" x2="3036" y1="1055.54" y2="1055.54"/>
  <g id="H-reference" style="fill:#27AAE1;stroke:none;" transform="matrix(1 0 0 1 339 1556)">
   <path d="M0.993654 0L3.63775 0L29.3281-67.1323L30.0303-67.1323L30.0303-70.459L28.1226-70.459ZM11.6885-24.4799L46.9815-24.4799L46.2315-26.7285L12.4385-26.7285ZM55.1196 0L57.7637 0L30.6382-70.459L29.4326-70.459L29.4326-67.1323Z"/>
  </g>
  <line id="Baseline-L" style="fill:none;stroke:#27AAE1;opacity:1;stroke-width:0.5;" x1="263" x2="3036" y1="1556" y2="1556"/>
  <line id="Capline-L" style="fill:none;stroke:#27AAE1;opacity:1;stroke-width:0.5;" x1="263" x2="3036" y1="1485.54" y2="1485.54"/>
  <line id="left-margin-Regular-M" style="fill:none;stroke:#00AEEF;stroke-width:0.5;opacity:1.0;" x1="1396.32" x2="1396.32" y1="1030.79" y2="1150.12"/>
  <line id="right-margin-Regular-M" style="fill:none;stroke:#00AEEF;stroke-width:0.5;opacity:1.0;" x1="1503.37" x2="1503.37" y1="1030.79" y2="1150.12"/>
 </g>
 <g id="Symbols">
  <g id="Regular-M" transform="matrix(1 0 0 1 1396.32 1126)">
   <path class="monochrome-0 SFSymbolsPreview000000" d="M54.1727-82.5725C68.1194-82.4754 78.9621-77.7663 86.4332-68.5908C90.2184-63.7735 92.9537-58.2062 94.4609-52.2519L86.4332-50.0942C85.0257-55.2456 82.8903-59.6635 80.0539-63.1751C74.2793-70.3223 65.572-74.0174 54.1727-74.0983C42.8537-74.0174 34.2962-70.3601 28.7303-63.229C23.4909-56.551 20.799-46.9063 20.7026-34.5644C20.799-22.2226 23.4909-12.5778 28.6822-5.85125C34.248 1.27983 42.8055 4.93708 54.1245 5.01799C64.325 4.93708 71.079 2.49892 76.693-3.15417C83.1044-9.61099 82.9813-17.5296 80.9316-22.3466C79.6121-25.3032 77.3927-27.7593 74.5951-29.359C73.8779-23.9918 72.2564-19.7143 69.6875-16.413C66.3052-12.0438 61.4565-9.6919 55.2752-9.34668C50.8244-9.03769 46.391-10.1595 42.6128-12.5508C38.5623-15.1545 36.0212-19.581 35.8-24.418C35.2916-34.0681 42.8858-41.0374 54.6811-41.7009C58.6146-41.9578 62.5643-41.766 66.455-41.1291C65.9734-44.0851 64.9993-46.4424 63.5437-48.1415C61.6273-50.389 58.7048-51.5825 54.8518-51.6982L54.253-51.7071C50.967-51.7071 46.5036-50.7793 43.6618-46.4316L36.8222-51.2C40.5388-56.885 46.5275-60.0689 53.731-60.2139L54.4189-60.2191C66.8457-60.1166 74.2526-52.3004 74.9858-38.6424C75.4086-38.459 75.826-38.2702 76.2327-38.0706C82.0341-35.2657 86.278-31.0204 88.499-25.8097C91.5763-18.5168 91.8867-6.6442 82.4783 2.83335C75.4293 9.92755 66.9052 13.2089 54.9114 13.4185L54.1192 13.4275C40.1885 13.3466 29.4742 8.6213 22.2814-0.597336C16.0088-8.63094 12.7122-19.7469 12.4721-33.6414L12.4609-34.5968C12.5733-48.9075 15.8753-60.327 22.2814-68.5477C29.3458-77.5858 39.8224-82.3052 53.3768-82.5629L54.1727-82.5725ZM58.042-33.3291C57.1055-33.3291 56.1475-33.3022 55.1735-33.2482C46.6534-32.752 43.8277-28.5985 44.0257-24.8765C44.2933-19.8599 49.6718-17.5134 54.8524-17.8101L55.3016-17.8396C60.2601-18.2173 65.708-20.4553 66.6637-32.4499C63.8291-33.0516 60.9388-33.3464 58.042-33.3291Z"/>
  </g>
  <g id="Black-S" transform="matrix(1 0 0 1 2884.88 696)">
   <path class="monochrome-0 SFSymbolsPreview000000" d="M49.0859-77.5645C61.3318-77.4795 70.8522-73.3591 77.4122-65.3305C80.7357-61.1154 83.1375-56.244 84.4609-51.034L77.4122-49.146C76.1763-53.6535 74.3014-57.5191 71.8109-60.5918C66.7405-66.8456 59.095-70.0787 49.0859-70.1495C39.1472-70.0787 31.6333-66.8787 26.7462-60.639C22.1458-54.7957 19.7821-46.3565 19.6976-35.5574C19.7821-24.7583 22.1458-16.3191 26.7039-10.4334C31.591-4.19371 39.1049-0.993617 49.0436-0.922819C58.0001-0.993617 63.9304-3.12701 68.8598-8.07346C74.4894-13.7232 74.3813-20.652 72.5815-24.8669C71.4229-27.4538 69.4741-29.603 67.0177-31.0027C66.3881-26.3064 64.9642-22.5635 62.7086-19.675C59.7388-15.8519 55.4814-13.794 50.0539-13.4919C46.1459-13.2215 42.2532-14.2031 38.9358-16.2955C35.3792-18.5737 33.148-22.4469 32.9538-26.6793C32.5074-35.1232 39.1754-41.2213 49.5323-41.8018C52.9861-42.0266 56.4541-41.8588 59.8704-41.3015C59.4475-43.888 58.5922-45.9506 57.3141-47.4374C55.6314-49.4039 53.0653-50.4482 49.6822-50.5495L49.1564-50.5573C46.2711-50.5573 42.352-49.7454 39.8568-45.9412L33.8513-50.1136C37.1147-55.0879 42.3731-57.8738 48.6981-58.0007L49.302-58.0052C60.2134-57.9156 66.717-51.0764 67.3608-39.1257C67.732-38.9652 68.0985-38.8 68.4557-38.6254C73.5495-36.171 77.2759-32.4564 79.2261-27.897C81.9281-21.5157 82.2006-11.1272 73.9396-2.83438C67.7502 3.37304 60.2657 6.24418 49.7345 6.42762L49.0389 6.4355C36.8071 6.3647 27.3994 2.23007 21.0838-5.83623C15.5761-12.8656 12.6816-22.5921 12.4707-34.7498L12.4609-35.5857C12.5596-48.1076 15.4589-58.0996 21.0838-65.2928C27.2866-73.2011 36.4857-77.3306 48.387-77.5561L49.0859-77.5645ZM52.4834-34.4766C51.661-34.4766 50.8199-34.453 49.9646-34.4058C42.4836-33.9715 40.0025-30.3372 40.1763-27.0805C40.4113-22.691 45.1339-20.6378 49.6827-20.8974L50.0772-20.9232C54.431-21.2537 59.2144-23.212 60.0536-33.7072C57.5647-34.2337 55.0269-34.4916 52.4834-34.4766Z"/>
  </g>
  <g id="Regular-S" transform="matrix(1 0 0 1 1404.82 696)">
   <path class="monochrome-0 SFSymbolsPreview000000" d="M45.5251-73.416C56.5805-73.3391 65.1753-69.6111 71.0975-62.3472C74.0979-58.5335 76.2662-54.126 77.4609-49.4122L71.0975-47.704C69.9818-51.7822 68.2891-55.2797 66.0407-58.0597C61.4633-63.718 54.5611-66.6432 45.5251-66.7072C36.5527-66.6432 29.7693-63.7479 25.3574-58.1024C21.2042-52.8157 19.0704-45.1802 18.994-35.4096C19.0704-25.639 21.2042-18.0035 25.3192-12.6783C29.7312-7.0329 36.5145-4.13758 45.4869-4.07353C53.5727-4.13758 58.9264-6.0678 63.3766-10.5432C68.4588-15.6548 68.3612-21.9237 66.7365-25.7372C65.6905-28.0778 63.9312-30.0222 61.7136-31.2887C61.1451-27.0396 59.8597-23.6532 57.8235-21.0398C55.1423-17.5807 51.2988-15.7189 46.399-15.4456C42.871-15.2009 39.3567-16.0891 36.3618-17.9822C33.1511-20.0434 31.1367-23.5477 30.9614-27.377C30.5584-35.0167 36.5782-40.5341 45.9281-41.0593C49.0461-41.2627 52.177-41.1108 55.2611-40.6067C54.8793-42.9468 54.1072-44.813 52.9533-46.1581C51.4343-47.9374 49.1176-48.8822 46.0635-48.9739L45.5888-48.9809C42.984-48.9809 39.446-48.2464 37.1933-44.8044L31.7717-48.5795C34.7178-53.08 39.4649-55.6006 45.175-55.7154L45.7203-55.7195C55.5708-55.6384 61.4421-49.4506 62.0233-38.638C62.3584-38.4928 62.6893-38.3433 63.0117-38.1853C67.6104-35.9647 70.9745-32.604 72.735-28.4788C75.1743-22.7052 75.4204-13.3061 67.9625-5.80303C62.3749-0.186795 55.618 2.4109 46.1107 2.57687L45.4827 2.584C34.4401 2.51994 25.9471-1.22091 20.2455-8.51899C15.2733-14.8789 12.6601-23.6791 12.4698-34.6789L12.4609-35.4352C12.55-46.7645 15.1675-55.8049 20.2455-62.313C25.8452-69.4682 34.1499-73.2044 44.8942-73.4084L45.5251-73.416ZM48.5923-34.4317C47.8499-34.4317 47.0905-34.4103 46.3184-34.3676C39.5647-33.9747 37.3248-30.6866 37.4818-27.74C37.6939-23.7685 41.9574-21.9109 46.0639-22.1458L46.42-22.1691C50.3505-22.4681 54.669-24.2399 55.4266-33.7356C53.1796-34.212 50.8885-34.4453 48.5923-34.4317Z"/>
  </g>
  <g id="Ultralight-S" transform="matrix(1 0 0 1 516.686 696)">
   <path class="monochrome-0 SFSymbolsPreview000000" d="M43.4904-70.5078C53.8654-70.436 61.9313-66.9532 67.4891-60.1672C70.3049-56.6044 72.3397-52.4869 73.4609-48.0832L67.4891-46.4874C66.442-50.2973 64.8535-53.5647 62.7435-56.1618C58.4478-61.4478 51.9704-64.1806 43.4904-64.2404C35.0702-64.1806 28.7042-61.4757 24.5638-56.2017C20.6662-51.2628 18.6636-44.1296 18.592-35.0018C18.6636-25.874 20.6662-18.7409 24.5279-13.766C28.6684-8.49201 35.0343-5.78717 43.4546-5.72733C51.0427-5.78717 56.067-7.5904 60.2433-11.7713C65.0128-16.5467 64.9212-22.4032 63.3964-25.9657C62.4148-28.1523 60.7638-29.9689 58.6827-31.152C58.1492-27.1825 56.9429-24.0189 55.0319-21.5774C52.5158-18.3459 48.9088-16.6065 44.3105-16.3512C40.9996-16.1227 37.7016-16.9524 34.891-18.7209C31.8778-20.6466 29.9874-23.9203 29.8229-27.4977C29.4447-34.6348 35.094-39.7891 43.8686-40.2798C46.7947-40.4698 49.7329-40.328 52.6273-39.857C52.269-42.0432 51.5444-43.7866 50.4615-45.0432C49.0359-46.7054 46.8618-47.5881 43.9956-47.6737L43.5501-47.6802C41.1057-47.6802 37.7853-46.9941 35.6713-43.7786L30.5833-47.3052C33.3481-51.5097 37.8031-53.8645 43.1618-53.9717L43.6735-53.9756C52.9179-53.8998 58.4279-48.1191 58.9733-38.0178C59.2878-37.8822 59.5983-37.7426 59.9009-37.5949C64.2165-35.5204 67.3736-32.3808 69.0258-28.527C71.315-23.1332 71.5459-14.3525 64.547-7.34305C59.3033-2.09631 52.9622 0.330491 44.0399 0.485541L43.4506 0.4922C33.0875 0.432358 25.1171-3.06239 19.7664-9.88033C15.1002-15.8219 12.6479-24.043 12.4692-34.3192L12.4609-35.0258C12.5445-45.6097 15.0009-54.0554 19.7664-60.1353C25.0216-66.8197 32.8152-70.3101 42.8983-70.5007L43.4904-70.5078ZM46.3688-34.0882C45.6721-34.0882 44.9595-34.0683 44.2349-34.0284C37.8968-33.6614 35.7947-30.5895 35.942-27.8368C36.1411-24.1266 40.1422-22.3912 43.996-22.6106L44.3302-22.6324C48.0189-22.9118 52.0715-24.567 52.7825-33.438C50.6738-33.883 48.5237-34.101 46.3688-34.0882Z"/>
  </g>
 </g>
</svg>
