<?xml version="1.0" encoding="UTF-8"?>
<!--Generator: Apple Native CoreSVG 232.5-->
<!DOCTYPE svg
PUBLIC "-//W3C//DTD SVG 1.1//EN"
       "http://www.w3.org/Graphics/SVG/1.1/DTD/svg11.dtd">
<svg version="1.1" xmlns="http://www.w3.org/2000/svg" xmlns:xlink="http://www.w3.org/1999/xlink" width="3300" height="2200">
 <!--glyph: "", point size: 100.0, font version: "19.2d2e1", template writer version: "128"-->
 <style>.monochrome-0 {-sfsymbols-motion-group:2}
.monochrome-1 {-sfsymbols-motion-group:1}
.monochrome-2 {-sfsymbols-motion-group:0}

.multicolor-0:custom {fill:#00F2EA;-sfsymbols-motion-group:2}
.multicolor-1:custom {fill:#FF004F;-sfsymbols-motion-group:1}
.multicolor-2:custom {fill:#000000;-sfsymbols-motion-group:0}

.hierarchical-0:tertiary {-sfsymbols-motion-group:2}
.hierarchical-1:secondary {-sfsymbols-motion-group:1}
.hierarchical-2:primary {-sfsymbols-motion-group:0}

.SFSymbolsPreviewWireframe {fill:none;opacity:1.0;stroke:black;stroke-width:0.5}
</style>
 <g id="Notes">
  <rect height="2200" id="artboard" style="fill:white;opacity:1" width="3300" x="0" y="0"/>
  <line style="fill:none;stroke:black;opacity:1;stroke-width:0.5;" x1="263" x2="3036" y1="292" y2="292"/>
  <text style="stroke:none;fill:black;font-family:sans-serif;font-size:13;font-weight:bold;" transform="matrix(1 0 0 1 263 322)">Weight/Scale Variations</text>
  <text style="stroke:none;fill:black;font-family:sans-serif;font-size:13;text-anchor:middle;" transform="matrix(1 0 0 1 559.711 322)">Ultralight</text>
  <text style="stroke:none;fill:black;font-family:sans-serif;font-size:13;text-anchor:middle;" transform="matrix(1 0 0 1 856.422 322)">Thin</text>
  <text style="stroke:none;fill:black;font-family:sans-serif;font-size:13;text-anchor:middle;" transform="matrix(1 0 0 1 1153.13 322)">Light</text>
  <text style="stroke:none;fill:black;font-family:sans-serif;font-size:13;text-anchor:middle;" transform="matrix(1 0 0 1 1449.84 322)">Regular</text>
  <text style="stroke:none;fill:black;font-family:sans-serif;font-size:13;text-anchor:middle;" transform="matrix(1 0 0 1 1746.56 322)">Medium</text>
  <text style="stroke:none;fill:black;font-family:sans-serif;font-size:13;text-anchor:middle;" transform="matrix(1 0 0 1 2043.27 322)">Semibold</text>
  <text style="stroke:none;fill:black;font-family:sans-serif;font-size:13;text-anchor:middle;" transform="matrix(1 0 0 1 2339.98 322)">Bold</text>
  <text style="stroke:none;fill:black;font-family:sans-serif;font-size:13;text-anchor:middle;" transform="matrix(1 0 0 1 2636.69 322)">Heavy</text>
  <text style="stroke:none;fill:black;font-family:sans-serif;font-size:13;text-anchor:middle;" transform="matrix(1 0 0 1 2933.4 322)">Black</text>
  <line style="fill:none;stroke:black;opacity:1;stroke-width:0.5;" x1="263" x2="3036" y1="1903" y2="1903"/>
  <g transform="matrix(0.2 0 0 0.2 263 1933)">
   <path d="m46.2402 4.15039c21.5332 0 39.4531-17.8711 39.4531-39.4043s-17.9688-39.4043-39.502-39.4043c-21.4844 0-39.3555 17.8711-39.3555 39.4043s17.9199 39.4043 39.4043 39.4043Zm0-7.42188c-17.7246 0-31.8848-14.209-31.8848-31.9824s14.1113-31.9824 31.8359-31.9824c17.7734 0 32.0312 14.209 32.0312 31.9824s-14.209 31.9824-31.9824 31.9824Zm-17.9688-31.9824c0 2.14844 1.51367 3.61328 3.75977 3.61328h10.498v10.5957c0 2.19727 1.46484 3.71094 3.61328 3.71094 2.24609 0 3.71094-1.51367 3.71094-3.71094v-10.5957h10.5957c2.19727 0 3.71094-1.46484 3.71094-3.61328 0-2.19727-1.51367-3.71094-3.71094-3.71094h-10.5957v-10.5469c0-2.24609-1.46484-3.75977-3.71094-3.75977-2.14844 0-3.61328 1.51367-3.61328 3.75977v10.5469h-10.498c-2.24609 0-3.75977 1.51367-3.75977 3.71094Z"/>
  </g>
  <g transform="matrix(0.2 0 0 0.2 281.506 1933)">
   <path d="m58.5449 14.5508c27.2461 0 49.8047-22.6074 49.8047-49.8047 0-27.2461-22.6074-49.8047-49.8535-49.8047-27.1973 0-49.7559 22.5586-49.7559 49.8047 0 27.1973 22.6074 49.8047 49.8047 49.8047Zm0-8.30078c-23.0469 0-41.4551-18.457-41.4551-41.5039s18.3594-41.5039 41.4062-41.5039 41.5527 18.457 41.5527 41.5039-18.457 41.5039-41.5039 41.5039Zm-22.6562-41.5039c0 2.39258 1.66016 4.00391 4.15039 4.00391h14.3555v14.4043c0 2.44141 1.66016 4.15039 4.05273 4.15039 2.44141 0 4.15039-1.66016 4.15039-4.15039v-14.4043h14.4043c2.44141 0 4.15039-1.61133 4.15039-4.00391 0-2.44141-1.70898-4.15039-4.15039-4.15039h-14.4043v-14.3555c0-2.49023-1.70898-4.19922-4.15039-4.19922-2.39258 0-4.05273 1.70898-4.05273 4.19922v14.3555h-14.3555c-2.49023 0-4.15039 1.70898-4.15039 4.15039Z"/>
  </g>
  <g transform="matrix(0.2 0 0 0.2 304.924 1933)">
   <path d="m74.8535 28.3203c34.8145 0 63.623-28.8086 63.623-63.5742 0-34.8145-28.8574-63.623-63.6719-63.623-34.7656 0-63.5254 28.8086-63.5254 63.623 0 34.7656 28.8086 63.5742 63.5742 63.5742Zm0-9.08203c-30.1758 0-54.4434-24.3164-54.4434-54.4922 0-30.2246 24.2188-54.4922 54.3945-54.4922 30.2246 0 54.541 24.2676 54.541 54.4922 0 30.1758-24.2676 54.4922-54.4922 54.4922Zm-28.8574-54.4922c0 2.58789 1.85547 4.39453 4.58984 4.39453h19.7266v19.7754c0 2.68555 1.85547 4.58984 4.44336 4.58984 2.68555 0 4.54102-1.85547 4.54102-4.58984v-19.7754h19.7754c2.68555 0 4.58984-1.80664 4.58984-4.39453 0-2.73438-1.85547-4.58984-4.58984-4.58984h-19.7754v-19.7266c0-2.73438-1.85547-4.63867-4.54102-4.63867-2.58789 0-4.44336 1.9043-4.44336 4.63867v19.7266h-19.7266c-2.73438 0-4.58984 1.85547-4.58984 4.58984Z"/>
  </g>
  <text style="stroke:none;fill:black;font-family:sans-serif;font-size:13;font-weight:bold;" transform="matrix(1 0 0 1 263 1953)">Design Variations</text>
  <text style="stroke:none;fill:black;font-family:sans-serif;font-size:13;" transform="matrix(1 0 0 1 263 1971)">Symbols are supported in up to nine weights and three scales.</text>
  <text style="stroke:none;fill:black;font-family:sans-serif;font-size:13;" transform="matrix(1 0 0 1 263 1989)">For optimal layout with text and other symbols, vertically align</text>
  <text style="stroke:none;fill:black;font-family:sans-serif;font-size:13;" transform="matrix(1 0 0 1 263 2007)">symbols with the adjacent text.</text>
  <line style="fill:none;stroke:#00AEEF;stroke-width:0.5;opacity:1.0;" x1="776" x2="776" y1="1919" y2="1933"/>
  <g transform="matrix(0.2 0 0 0.2 776 1933)">
   <path d="m16.5527 0.78125c2.58789 0 3.85742-0.976562 4.78516-3.71094l6.29883-17.2363h28.8086l6.29883 17.2363c0.927734 2.73438 2.19727 3.71094 4.73633 3.71094 2.58789 0 4.24805-1.5625 4.24805-4.00391 0-0.830078-0.146484-1.61133-0.537109-2.63672l-22.9004-60.9863c-1.12305-2.97852-3.125-4.49219-6.25-4.49219-3.02734 0-5.07812 1.46484-6.15234 4.44336l-22.9004 61.084c-0.390625 1.02539-0.537109 1.80664-0.537109 2.63672 0 2.44141 1.5625 3.95508 4.10156 3.95508Zm13.4766-28.3691 11.8652-32.8613h0.244141l11.8652 32.8613Z"/>
  </g>
  <line style="fill:none;stroke:#00AEEF;stroke-width:0.5;opacity:1.0;" x1="792.836" x2="792.836" y1="1919" y2="1933"/>
  <text style="stroke:none;fill:black;font-family:sans-serif;font-size:13;font-weight:bold;" transform="matrix(1 0 0 1 776 1953)">Margins</text>
  <text style="stroke:none;fill:black;font-family:sans-serif;font-size:13;" transform="matrix(1 0 0 1 776 1971)">Leading and trailing margins on the left and right side of each symbol</text>
  <text style="stroke:none;fill:black;font-family:sans-serif;font-size:13;" transform="matrix(1 0 0 1 776 1989)">can be adjusted by modifying the x-location of the margin guidelines.</text>
  <text style="stroke:none;fill:black;font-family:sans-serif;font-size:13;" transform="matrix(1 0 0 1 776 2007)">Modifications are automatically applied proportionally to all</text>
  <text style="stroke:none;fill:black;font-family:sans-serif;font-size:13;" transform="matrix(1 0 0 1 776 2025)">scales and weights.</text>
  <g transform="matrix(0.2 0 0 0.2 1289 1933)">
   <path d="m14.209 9.32617 8.49609 8.54492c4.29688 4.3457 9.22852 4.05273 13.8672-1.07422l53.4668-58.9355-4.83398-4.88281-53.0762 58.3984c-1.75781 2.00195-3.41797 2.49023-5.76172 0.146484l-5.85938-5.81055c-2.34375-2.29492-1.80664-4.00391 0.195312-5.81055l57.373-54.0039-4.88281-4.83398-57.959 54.4434c-4.93164 4.58984-5.32227 9.47266-1.02539 13.8184Zm32.0801-90.9668c-2.09961 2.05078-2.24609 4.93164-1.07422 6.88477 1.17188 1.80664 3.4668 2.97852 6.68945 2.14844 7.32422-1.70898 14.9414-2.00195 22.0703 2.68555l-2.92969 7.27539c-1.70898 4.15039-0.830078 7.08008 1.85547 9.81445l11.4746 11.5723c2.44141 2.44141 4.49219 2.53906 7.32422 2.05078l5.32227-0.976562 3.32031 3.36914-0.195312 2.7832c-0.195312 2.49023 0.439453 4.39453 2.88086 6.78711l3.80859 3.71094c2.39258 2.39258 5.46875 2.53906 7.8125 0.195312l14.5508-14.5996c2.34375-2.34375 2.24609-5.32227-0.146484-7.71484l-3.85742-3.80859c-2.39258-2.39258-4.24805-3.17383-6.64062-2.97852l-2.88086 0.244141-3.22266-3.17383 1.2207-5.61523c0.634766-2.83203-0.146484-5.0293-3.07617-7.95898l-10.9863-10.9375c-16.6992-16.6016-38.8672-16.2109-53.3203-1.75781Zm7.4707 1.85547c12.1582-8.88672 28.6133-7.37305 39.7461 3.75977l12.1582 12.0605c1.17188 1.17188 1.36719 2.09961 1.02539 3.80859l-1.61133 7.42188 7.51953 7.42188 4.93164-0.292969c1.26953-0.0488281 1.66016 0.0488281 2.63672 1.02539l2.88086 2.88086-12.207 12.207-2.88086-2.88086c-0.976562-0.976562-1.12305-1.36719-1.07422-2.68555l0.341797-4.88281-7.4707-7.42188-7.61719 1.26953c-1.61133 0.341797-2.34375 0.195312-3.56445-0.976562l-10.0098-10.0098c-1.26953-1.17188-1.41602-2.00195-0.634766-3.85742l4.39453-10.4492c-7.8125-7.27539-17.9688-10.4004-28.125-7.42188-0.78125 0.195312-1.07422-0.439453-0.439453-0.976562Z"/>
  </g>
  <text style="stroke:none;fill:black;font-family:sans-serif;font-size:13;font-weight:bold;" transform="matrix(1 0 0 1 1289 1953)">Exporting</text>
  <text style="stroke:none;fill:black;font-family:sans-serif;font-size:13;" transform="matrix(1 0 0 1 1289 1971)">Symbols should be outlined when exporting to ensure the</text>
  <text style="stroke:none;fill:black;font-family:sans-serif;font-size:13;" transform="matrix(1 0 0 1 1289 1989)">design is preserved when submitting to Xcode.</text>
  <text id="template-version" style="stroke:none;fill:black;font-family:sans-serif;font-size:13;text-anchor:end;" transform="matrix(1 0 0 1 3036 1933)">Template v.5.0</text>
  <text style="stroke:none;fill:black;font-family:sans-serif;font-size:13;text-anchor:end;" transform="matrix(1 0 0 1 3036 1951)">Requires Xcode 15 or greater</text>
  <text id="descriptive-name" style="stroke:none;fill:black;font-family:sans-serif;font-size:13;text-anchor:end;" transform="matrix(1 0 0 1 3036 1969)">Generated from tiktok-official.3</text>
  <text style="stroke:none;fill:black;font-family:sans-serif;font-size:13;text-anchor:end;" transform="matrix(1 0 0 1 3036 1987)">Typeset at 100.0 points</text>
  <text style="stroke:none;fill:black;font-family:sans-serif;font-size:13;" transform="matrix(1 0 0 1 263 726)">Small</text>
  <text style="stroke:none;fill:black;font-family:sans-serif;font-size:13;" transform="matrix(1 0 0 1 263 1156)">Medium</text>
  <text style="stroke:none;fill:black;font-family:sans-serif;font-size:13;" transform="matrix(1 0 0 1 263 1586)">Large</text>
 </g>
 <g id="Guides">
  <g id="H-reference" style="fill:#27AAE1;stroke:none;" transform="matrix(1 0 0 1 339 696)">
   <path d="M0.993654 0L3.63775 0L29.3281-67.1323L30.0303-67.1323L30.0303-70.459L28.1226-70.459ZM11.6885-24.4799L46.9815-24.4799L46.2315-26.7285L12.4385-26.7285ZM55.1196 0L57.7637 0L30.6382-70.459L29.4326-70.459L29.4326-67.1323Z"/>
  </g>
  <line id="Baseline-S" style="fill:none;stroke:#27AAE1;opacity:1;stroke-width:0.5;" x1="263" x2="3036" y1="696" y2="696"/>
  <line id="Capline-S" style="fill:none;stroke:#27AAE1;opacity:1;stroke-width:0.5;" x1="263" x2="3036" y1="625.541" y2="625.541"/>
  <g id="H-reference" style="fill:#27AAE1;stroke:none;" transform="matrix(1 0 0 1 339 1126)">
   <path d="M0.993654 0L3.63775 0L29.3281-67.1323L30.0303-67.1323L30.0303-70.459L28.1226-70.459ZM11.6885-24.4799L46.9815-24.4799L46.2315-26.7285L12.4385-26.7285ZM55.1196 0L57.7637 0L30.6382-70.459L29.4326-70.459L29.4326-67.1323Z"/>
  </g>
  <line id="Baseline-M" style="fill:none;stroke:#27AAE1;opacity:1;stroke-width:0.5;" x1="263" x2="3036" y1="1126" y2="1126"/>
  <line id="Capline-M" style="fill:none;stroke:#27AAE1;opacity:1;stroke-width:0.5;" x1="263" x2="3036" y1="1055.54" y2="1055.54"/>
  <g id="H-reference" style="fill:#27AAE1;stroke:none;" transform="matrix(1 0 0 1 339 1556)">
   <path d="M0.993654 0L3.63775 0L29.3281-67.1323L30.0303-67.1323L30.0303-70.459L28.1226-70.459ZM11.6885-24.4799L46.9815-24.4799L46.2315-26.7285L12.4385-26.7285ZM55.1196 0L57.7637 0L30.6382-70.459L29.4326-70.459L29.4326-67.1323Z"/>
  </g>
  <line id="Baseline-L" style="fill:none;stroke:#27AAE1;opacity:1;stroke-width:0.5;" x1="263" x2="3036" y1="1556" y2="1556"/>
  <line id="Capline-L" style="fill:none;stroke:#27AAE1;opacity:1;stroke-width:0.5;" x1="263" x2="3036" y1="1485.54" y2="1485.54"/>
  <line id="left-margin-Regular-M" style="fill:none;stroke:#00AEEF;stroke-width:0.5;opacity:1.0;" x1="1392.45" x2="1392.45" y1="1030.79" y2="1150.12"/>
  <line id="right-margin-Regular-M" style="fill:none;stroke:#00AEEF;stroke-width:0.5;opacity:1.0;" x1="1507.24" x2="1507.24" y1="1030.79" y2="1150.12"/>
 </g>
 <g id="Symbols">
  <g id="Regular-M" transform="matrix(1 0 0 1 1392.45 1126)">
   <path class="monochrome-0 multicolor-0:custom hierarchical-0:tertiary SFSymbolsPreviewWireframe" d="M93.1115-56.3019L93.1115-59.4494C89.2244-59.4435 85.4136-60.5267 82.1157-62.5752C85.0351-59.3947 88.8794-57.2017 93.1115-56.3019ZM72.6285-76.5438C72.5296-77.1065 72.4536-77.673 72.4008-78.2416L72.4008-80.1437L57.4524-80.1437L57.4524-21.0781C57.4285-14.1933 51.813-8.61782 44.887-8.61782C42.8536-8.61782 40.9338-9.09812 39.2336-9.95155C41.5297-6.9533 45.1553-5.01788 49.2363-5.01788C56.1611-5.01788 61.7779-10.5928 61.8021-17.4785L61.8021-76.5438L72.6285-76.5438ZM48.7012-44.8059L48.7012-48.1566C47.4521-48.3265 46.1928-48.4117 44.9319-48.4111C29.7598-48.4111 17.4609-36.1735 17.4609-21.0781C17.4609-11.6142 22.2946-3.27367 29.6397 1.6325C24.7952-3.29498 21.8103-10.0396 21.8103-17.4788C21.8103-32.3817 33.7965-44.4995 48.7012-44.8059Z"/>
   <path class="monochrome-1 multicolor-1:custom hierarchical-1:secondary SFSymbolsPreviewWireframe" d="M76.7502-47.6556C82.5872-43.5037 89.7379-41.0608 97.4609-41.0608L97.4609-55.8488C95.9993-55.8485 94.5415-56.0002 93.1115-56.3016L93.1115-44.6614C85.3891-44.6614 78.2394-47.1043 72.4008-51.2559L72.4008-21.0778C72.4008-5.98127 60.1019 6.25605 44.9313 6.25605C39.2708 6.25605 34.0096 4.55322 29.6391 1.63281C34.6273 6.70794 41.5837 9.8563 49.2798 9.8563C64.4513 9.8563 76.7508-2.38102 76.7508-17.4782L76.7508-47.6556L76.7502-47.6556ZM82.1157-62.5749C79.1326-65.8178 77.174-70.0086 76.7502-74.6417L76.7502-76.5438L72.6285-76.5438C73.666-70.6551 77.2047-65.6241 82.1157-62.5749L82.1157-62.5749ZM39.2345-9.95185C37.5679-12.1263 36.6672-14.7864 36.6712-17.5215C36.6712-24.426 42.2967-30.0244 49.237-30.0244C50.5304-30.0247 51.8161-29.8277 53.0487-29.4385L53.0487-44.557C51.6082-44.7534 50.1544-44.8368 48.7012-44.8062L48.7012-33.0387C47.4676-33.4279 46.1813-33.6256 44.8876-33.6243C37.9473-33.6243 32.3222-28.0266 32.3222-21.1211C32.3222-16.2384 35.134-12.0111 39.2345-9.95185Z"/>
   <path class="monochrome-2 multicolor-2:custom hierarchical-2:primary SFSymbolsPreviewWireframe" d="M93.1115-44.6617L93.1115-56.3019C88.8009-57.2156 84.9848-59.4571 82.1157-62.5749C77.2044-65.6244 73.666-70.6554 72.6285-76.5438L61.8021-76.5438L61.8021-17.4788C61.7776-10.5931 56.1617-5.01758 49.2363-5.01758C45.1553-5.01758 41.5297-6.9533 39.2336-9.95185C35.1333-12.0111 32.3215-16.2387 32.3215-21.1208C32.3215-28.0257 37.9467-33.624 44.887-33.624C46.2167-33.624 47.4983-33.418 48.7005-33.0384L48.7005-44.8059C33.7965-44.4995 21.81-32.3817 21.81-17.4785C21.81-10.039 24.7949-3.29467 29.6394 1.63312C34.0099 4.55322 39.2711 6.25636 44.9316 6.25636C60.1025 6.25636 72.4011-5.98157 72.4011-21.0778L72.4011-51.2562C78.2394-47.1046 85.3891-44.6617 93.1115-44.6617Z"/>
  </g>
  <g id="Black-S" transform="matrix(1 0 0 1 2882.51 696)">
   <path class="monochrome-0 multicolor-0:custom hierarchical-0:tertiary SFSymbolsPreviewWireframe" d="M80.8183-53.2068L80.8183-55.8646C77.5628-55.8596 74.3713-56.7744 71.6093-58.5042C74.0543-55.8184 77.2739-53.9666 80.8183-53.2068ZM63.6638-70.2999C63.5809-70.7751 63.5172-71.2534 63.4731-71.7336L63.4731-73.3398L50.9538-73.3398L50.9538-23.4622C50.9337-17.6484 46.2308-12.9402 40.4302-12.9402C38.7273-12.9402 37.1194-13.3458 35.6955-14.0664C37.6186-11.5346 40.655-9.90022 44.0728-9.90022C49.8723-9.90022 54.5764-14.6079 54.5966-20.4225L54.5966-70.2999L63.6638-70.2999ZM43.6246-43.499L43.6246-46.3285C42.5785-46.4719 41.5239-46.5439 40.4679-46.5434C27.7612-46.5434 17.4609-36.2094 17.4609-23.4622C17.4609-15.4705 21.5091-8.42733 27.6607-4.28434C23.6034-8.44533 21.1035-14.1408 21.1035-20.4228C21.1035-33.0075 31.1419-43.2403 43.6246-43.499Z"/>
   <path class="monochrome-1 multicolor-1:custom hierarchical-1:secondary SFSymbolsPreviewWireframe" d="M67.1157-45.9054C72.0042-42.3994 77.9929-40.3365 84.4609-40.3365L84.4609-52.8241C83.2368-52.8239 82.0159-52.9519 80.8183-53.2065L80.8183-43.3769C74.3508-43.3769 68.3629-45.4398 63.4731-48.9456L63.4731-23.462C63.4731-10.7137 53.1727-0.380009 40.4674-0.380009C35.7267-0.380009 31.3204-1.81795 27.6602-4.28408C31.8378 0.0015824 37.6638 2.6602 44.1092 2.6602C56.8153 2.6602 67.1162-7.67354 67.1162-20.4223L67.1162-45.9054L67.1157-45.9054ZM71.6093-58.5039C69.111-61.2423 67.4706-64.7813 67.1157-68.6937L67.1157-70.2999L63.6638-70.2999C64.5327-65.3272 67.4963-61.0788 71.6093-58.5039L71.6093-58.5039ZM35.6963-14.0667C34.3005-15.9029 33.5462-18.1492 33.5496-20.4588C33.5496-26.2893 38.2609-31.0168 44.0734-31.0168C45.1566-31.0171 46.2334-30.8507 47.2657-30.522L47.2657-43.2888C46.0593-43.4547 44.8417-43.5251 43.6246-43.4993L43.6246-33.5623C42.5915-33.8909 41.5142-34.0578 40.4307-34.0568C34.6183-34.0568 29.9072-29.3298 29.9072-23.4985C29.9072-19.3753 32.2621-15.8056 35.6963-14.0667Z"/>
   <path class="monochrome-2 multicolor-2:custom hierarchical-2:primary SFSymbolsPreviewWireframe" d="M80.8183-43.3772L80.8183-53.2068C77.2082-53.9783 74.0122-55.8711 71.6093-58.5039C67.4961-61.0791 64.5327-65.3274 63.6638-70.2999L54.5966-70.2999L54.5966-20.4228C54.5761-14.6082 49.8728-9.89996 44.0728-9.89996C40.655-9.89996 37.6186-11.5346 35.6955-14.0667C32.2616-15.8056 29.9067-19.3756 29.9067-23.4982C29.9067-29.329 34.6177-34.0565 40.4302-34.0565C41.5439-34.0565 42.6172-33.8826 43.6241-33.562L43.6241-43.499C31.1419-43.2403 21.1033-33.0075 21.1033-20.4225C21.1033-14.1402 23.6031-8.44506 27.6604-4.28382C31.3207-1.81795 35.727-0.379748 40.4676-0.379748C53.1733-0.379748 63.4733-10.714 63.4733-23.462L63.4733-48.9459C68.3629-45.4401 74.3508-43.3772 80.8183-43.3772Z"/>
  </g>
  <g id="Regular-S" transform="matrix(1 0 0 1 1400.95 696)">
   <path class="monochrome-0 multicolor-0:custom hierarchical-0:tertiary SFSymbolsPreviewWireframe" d="M77.0358-52.1915L77.0358-54.6745C73.9747-54.6699 70.9737-55.5244 68.3765-57.1404C70.6756-54.6314 73.703-52.9013 77.0358-52.1915ZM60.9054-68.16C60.8275-68.604 60.7676-69.0509 60.7261-69.4995L60.7261-71L48.9542-71L48.9542-24.4038C48.9354-18.9725 44.5131-14.574 39.0589-14.574C37.4576-14.574 35.9458-14.9529 34.6069-15.6262C36.4151-13.2609 39.2703-11.7341 42.4841-11.7341C47.9373-11.7341 52.3605-16.132 52.3796-21.5641L52.3796-68.16L60.9054-68.16ZM42.0626-43.1224L42.0626-45.7657C41.079-45.8998 40.0873-45.967 39.0943-45.9665C27.1463-45.9665 17.4609-36.3124 17.4609-24.4038C17.4609-16.9379 21.2674-10.3581 27.0517-6.48766C23.2367-10.3749 20.886-15.6956 20.886-21.5644C20.886-33.3211 30.3252-42.8807 42.0626-43.1224Z"/>
   <path class="monochrome-1 multicolor-1:custom hierarchical-1:secondary SFSymbolsPreviewWireframe" d="M64.1512-45.3705C68.7479-42.0951 74.379-40.1679 80.4609-40.1679L80.4609-51.834C79.3099-51.8338 78.1618-51.9534 77.0358-52.1913L77.0358-43.0084C70.9544-43.0084 65.324-44.9356 60.7261-48.2107L60.7261-24.4036C60.7261-12.4941 51.0407-2.84019 39.0939-2.84019C34.6362-2.84019 30.493-4.18354 27.0513-6.48742C30.9795-2.48371 36.4576 0 42.5183 0C54.4658 0 64.1517-9.65388 64.1517-21.5639L64.1517-45.3705L64.1512-45.3705ZM68.3765-57.1402C66.0274-59.6984 64.485-63.0045 64.1512-66.6595L64.1512-68.16L60.9054-68.16C61.7224-63.5145 64.5092-59.5457 68.3765-57.1402L68.3765-57.1402ZM34.6076-15.6264C33.2951-17.3419 32.5859-19.4403 32.589-21.598C32.589-27.045 37.0191-31.4614 42.4845-31.4614C43.5031-31.4617 44.5156-31.3062 45.4863-30.9992L45.4863-42.926C44.3519-43.081 43.207-43.1468 42.0626-43.1227L42.0626-33.8394C41.0912-34.1464 40.0782-34.3024 39.0594-34.3014C33.5939-34.3014 29.1641-29.8854 29.1641-24.4377C29.1641-20.5858 31.3784-17.251 34.6076-15.6264Z"/>
   <path class="monochrome-2 multicolor-2:custom hierarchical-2:primary SFSymbolsPreviewWireframe" d="M77.0358-43.0086L77.0358-52.1915C73.6412-52.9123 70.636-54.6806 68.3765-57.1402C64.5089-59.5459 61.7224-63.5148 60.9054-68.16L52.3796-68.16L52.3796-21.5644C52.3603-16.1323 47.9378-11.7338 42.4841-11.7338C39.2703-11.7338 36.4151-13.2609 34.6069-15.6264C31.3779-17.251 29.1637-20.5861 29.1637-24.4375C29.1637-29.8847 33.5934-34.3012 39.0589-34.3012C40.1061-34.3012 41.1154-34.1386 42.0621-33.8392L42.0621-43.1224C30.3252-42.8807 20.8858-33.3211 20.8858-21.5641C20.8858-15.6951 23.2364-10.3747 27.0515-6.48717C30.4933-4.18354 34.6365-2.83995 39.0941-2.83995C51.0412-2.83995 60.7263-12.4943 60.7263-24.4036L60.7263-48.2109C65.324-44.9358 70.9544-43.0086 77.0358-43.0086Z"/>
  </g>
  <g id="Ultralight-S" transform="matrix(1 0 0 1 512.816 696)">
   <path class="monochrome-0 multicolor-0:custom hierarchical-0:tertiary SFSymbolsPreviewWireframe" d="M73.2532-51.2511L73.2532-53.5942C70.3865-53.5899 67.576-54.3963 65.1438-55.9212C67.2969-53.5535 70.132-51.921 73.2532-51.2511ZM58.147-66.32C58.074-66.739 58.018-67.1607 57.9791-67.584L57.9791-69L46.9546-69L46.9546-25.029C46.937-19.9036 42.7955-15.753 37.6876-15.753C36.188-15.753 34.7721-16.1105 33.5183-16.7458C35.2117-14.5138 37.8855-13.073 40.8953-13.073C46.0023-13.073 50.1447-17.2232 50.1625-22.3493L50.1625-66.32L58.147-66.32ZM40.5006-42.693L40.5006-45.1874C39.5794-45.3139 38.6507-45.3773 37.7208-45.3769C26.5313-45.3769 17.4609-36.2666 17.4609-25.029C17.4609-17.9836 21.0257-11.7745 26.4428-8.12216C22.8699-11.7904 20.6686-16.8114 20.6686-22.3495C20.6686-33.4439 29.5084-42.4649 40.5006-42.693Z"/>
   <path class="monochrome-1 multicolor-1:custom hierarchical-1:secondary SFSymbolsPreviewWireframe" d="M61.1868-44.8144C65.4916-41.7236 70.7652-39.905 76.4609-39.905L76.4609-50.9138C75.383-50.9136 74.3078-51.0265 73.2532-51.2509L73.2532-42.5854C67.5579-42.5854 62.285-44.404 57.9791-47.4946L57.9791-25.0287C57.9791-13.7902 48.9086-4.68018 37.7203-4.68018C33.5457-4.68018 29.6656-5.94784 26.4423-8.12193C30.1211-4.34378 35.2515-2 40.9273-2C52.1163-2 61.1872-11.11 61.1872-22.349L61.1872-44.8144L61.1868-44.8144ZM65.1438-55.921C62.9438-58.3351 61.4993-61.455 61.1868-64.9041L61.1868-66.32L58.147-66.32C58.9122-61.9362 61.522-58.191 65.1438-55.921L65.1438-55.921ZM33.5189-16.7461C32.2898-18.3649 31.6255-20.3451 31.6285-22.3812C31.6285-27.5213 35.7773-31.689 40.8957-31.689C41.8497-31.6892 42.7978-31.5425 43.7069-31.2528L43.7069-42.5077C42.6445-42.6539 41.5723-42.716 40.5006-42.6932L40.5006-33.933C39.5908-34.2227 38.6422-34.3698 37.6881-34.3689C32.5696-34.3689 28.4211-30.2017 28.4211-25.0609C28.4211-21.426 30.4948-18.2791 33.5189-16.7461Z"/>
   <path class="monochrome-2 multicolor-2:custom hierarchical-2:primary SFSymbolsPreviewWireframe" d="M73.2532-42.5856L73.2532-51.2511C70.0742-51.9313 67.2598-53.6 65.1438-55.921C61.5217-58.1912 58.9122-61.9365 58.147-66.32L50.1625-66.32L50.1625-22.3495C50.1444-17.2234 46.0028-13.0728 40.8953-13.0728C37.8855-13.0728 35.2117-14.5138 33.5183-16.7461C30.4943-18.2791 28.4206-21.4263 28.4206-25.0607C28.4206-30.201 32.5692-34.3687 37.6876-34.3687C38.6683-34.3687 39.6135-34.2153 40.5001-33.9327L40.5001-42.693C29.5084-42.4649 20.6683-33.4439 20.6683-22.3493C20.6683-16.8109 22.8697-11.7902 26.4426-8.1217C29.6658-5.94784 33.5459-4.67995 37.7206-4.67995C48.9091-4.67995 57.9793-13.7904 57.9793-25.0287L57.9793-47.4948C62.285-44.4042 67.5579-42.5856 73.2532-42.5856Z"/>
  </g>
 </g>
</svg>
