<?xml version="1.0" encoding="UTF-8"?>
<!--Generator: Apple Native CoreSVG 175.5-->
<!DOCTYPE svg
PUBLIC "-//W3C//DTD SVG 1.1//EN"
       "http://www.w3.org/Graphics/SVG/1.1/DTD/svg11.dtd">
<svg version="1.1" xmlns="http://www.w3.org/2000/svg" xmlns:xlink="http://www.w3.org/1999/xlink" width="3300" height="2200">
 <!--glyph: "", point size: 100.0, font version: "18.0d12e2", template writer version: "101"-->
 <style>.monochrome-0 {fill:#000000}

.multicolor-0:systemMintColor {fill:#00C7BE}

.SFSymbolsPreview00C7BE {fill:#00C7BE;opacity:1.0}
</style>
 <g id="Notes">
  <rect height="2200" id="artboard" style="fill:white;opacity:1" width="3300" x="0" y="0"/>
  <line style="fill:none;stroke:black;opacity:1;stroke-width:0.5;" x1="263" x2="3036" y1="292" y2="292"/>
  <text style="stroke:none;fill:black;font-family:sans-serif;font-size:13;font-weight:bold;" transform="matrix(1 0 0 1 263 322)">Weight/Scale Variations</text>
  <text style="stroke:none;fill:black;font-family:sans-serif;font-size:13;text-anchor:middle;" transform="matrix(1 0 0 1 559.711 322)">Ultralight</text>
  <text style="stroke:none;fill:black;font-family:sans-serif;font-size:13;text-anchor:middle;" transform="matrix(1 0 0 1 856.422 322)">Thin</text>
  <text style="stroke:none;fill:black;font-family:sans-serif;font-size:13;text-anchor:middle;" transform="matrix(1 0 0 1 1153.13 322)">Light</text>
  <text style="stroke:none;fill:black;font-family:sans-serif;font-size:13;text-anchor:middle;" transform="matrix(1 0 0 1 1449.84 322)">Regular</text>
  <text style="stroke:none;fill:black;font-family:sans-serif;font-size:13;text-anchor:middle;" transform="matrix(1 0 0 1 1746.56 322)">Medium</text>
  <text style="stroke:none;fill:black;font-family:sans-serif;font-size:13;text-anchor:middle;" transform="matrix(1 0 0 1 2043.27 322)">Semibold</text>
  <text style="stroke:none;fill:black;font-family:sans-serif;font-size:13;text-anchor:middle;" transform="matrix(1 0 0 1 2339.98 322)">Bold</text>
  <text style="stroke:none;fill:black;font-family:sans-serif;font-size:13;text-anchor:middle;" transform="matrix(1 0 0 1 2636.69 322)">Heavy</text>
  <text style="stroke:none;fill:black;font-family:sans-serif;font-size:13;text-anchor:middle;" transform="matrix(1 0 0 1 2933.4 322)">Black</text>
  <line style="fill:none;stroke:black;opacity:1;stroke-width:0.5;" x1="263" x2="3036" y1="1903" y2="1903"/>
  <g transform="matrix(1 0 0 1 263 1933)">
   <path d="M9.24805 0.830078C13.5547 0.830078 17.1387-2.74414 17.1387-7.05078C17.1387-11.3574 13.5449-14.9316 9.23828-14.9316C4.94141-14.9316 1.36719-11.3574 1.36719-7.05078C1.36719-2.74414 4.95117 0.830078 9.24805 0.830078ZM9.24805-0.654297C5.70312-0.654297 2.87109-3.49609 2.87109-7.05078C2.87109-10.6055 5.69336-13.4473 9.23828-13.4473C12.793-13.4473 15.6445-10.6055 15.6445-7.05078C15.6445-3.49609 12.8027-0.654297 9.24805-0.654297ZM5.6543-7.05078C5.6543-6.62109 5.95703-6.32812 6.40625-6.32812L8.50586-6.32812L8.50586-4.20898C8.50586-3.76953 8.79883-3.4668 9.22852-3.4668C9.67773-3.4668 9.9707-3.76953 9.9707-4.20898L9.9707-6.32812L12.0898-6.32812C12.5293-6.32812 12.832-6.62109 12.832-7.05078C12.832-7.49023 12.5293-7.79297 12.0898-7.79297L9.9707-7.79297L9.9707-9.90234C9.9707-10.3516 9.67773-10.6543 9.22852-10.6543C8.79883-10.6543 8.50586-10.3516 8.50586-9.90234L8.50586-7.79297L6.40625-7.79297C5.95703-7.79297 5.6543-7.49023 5.6543-7.05078Z"/>
  </g>
  <g transform="matrix(1 0 0 1 281.867 1933)">
   <path d="M11.709 2.91016C17.1582 2.91016 21.6699-1.61133 21.6699-7.05078C21.6699-12.5 17.1484-17.0117 11.6992-17.0117C6.25977-17.0117 1.74805-12.5 1.74805-7.05078C1.74805-1.61133 6.26953 2.91016 11.709 2.91016ZM11.709 1.25C7.09961 1.25 3.41797-2.44141 3.41797-7.05078C3.41797-11.6602 7.08984-15.3516 11.6992-15.3516C16.3086-15.3516 20.0098-11.6602 20.0098-7.05078C20.0098-2.44141 16.3184 1.25 11.709 1.25ZM7.17773-7.05078C7.17773-6.57227 7.50977-6.25 8.00781-6.25L10.8789-6.25L10.8789-3.36914C10.8789-2.88086 11.2109-2.53906 11.6895-2.53906C12.1777-2.53906 12.5195-2.87109 12.5195-3.36914L12.5195-6.25L15.4004-6.25C15.8887-6.25 16.2305-6.57227 16.2305-7.05078C16.2305-7.53906 15.8887-7.88086 15.4004-7.88086L12.5195-7.88086L12.5195-10.752C12.5195-11.25 12.1777-11.5918 11.6895-11.5918C11.2109-11.5918 10.8789-11.25 10.8789-10.752L10.8789-7.88086L8.00781-7.88086C7.50977-7.88086 7.17773-7.53906 7.17773-7.05078Z"/>
  </g>
  <g transform="matrix(1 0 0 1 305.646 1933)">
   <path d="M14.9707 5.66406C21.9336 5.66406 27.6953-0.0976562 27.6953-7.05078C27.6953-14.0137 21.9238-19.7754 14.9609-19.7754C8.00781-19.7754 2.25586-14.0137 2.25586-7.05078C2.25586-0.0976562 8.01758 5.66406 14.9707 5.66406ZM14.9707 3.84766C8.93555 3.84766 4.08203-1.01562 4.08203-7.05078C4.08203-13.0957 8.92578-17.9492 14.9609-17.9492C21.0059-17.9492 25.8691-13.0957 25.8691-7.05078C25.8691-1.01562 21.0156 3.84766 14.9707 3.84766ZM9.19922-7.05078C9.19922-6.5332 9.57031-6.17188 10.1172-6.17188L14.0625-6.17188L14.0625-2.2168C14.0625-1.67969 14.4336-1.29883 14.9512-1.29883C15.4883-1.29883 15.8594-1.66992 15.8594-2.2168L15.8594-6.17188L19.8145-6.17188C20.3516-6.17188 20.7324-6.5332 20.7324-7.05078C20.7324-7.59766 20.3613-7.96875 19.8145-7.96875L15.8594-7.96875L15.8594-11.9141C15.8594-12.4609 15.4883-12.8418 14.9512-12.8418C14.4336-12.8418 14.0625-12.4609 14.0625-11.9141L14.0625-7.96875L10.1172-7.96875C9.57031-7.96875 9.19922-7.59766 9.19922-7.05078Z"/>
  </g>
  <text style="stroke:none;fill:black;font-family:sans-serif;font-size:13;font-weight:bold;" transform="matrix(1 0 0 1 263 1953)">Design Variations</text>
  <text style="stroke:none;fill:black;font-family:sans-serif;font-size:13;" transform="matrix(1 0 0 1 263 1971)">Symbols are supported in up to nine weights and three scales.</text>
  <text style="stroke:none;fill:black;font-family:sans-serif;font-size:13;" transform="matrix(1 0 0 1 263 1989)">For optimal layout with text and other symbols, vertically align</text>
  <text style="stroke:none;fill:black;font-family:sans-serif;font-size:13;" transform="matrix(1 0 0 1 263 2007)">symbols with the adjacent text.</text>
  <line style="fill:none;stroke:#00AEEF;stroke-width:0.5;opacity:1.0;" x1="776" x2="776" y1="1919" y2="1933"/>
  <g transform="matrix(1 0 0 1 776 1933)">
   <path d="M3.31055 0.15625C3.82812 0.15625 4.08203-0.0390625 4.26758-0.585938L5.52734-4.0332L11.2891-4.0332L12.5488-0.585938C12.7344-0.0390625 12.9883 0.15625 13.4961 0.15625C14.0137 0.15625 14.3457-0.15625 14.3457-0.644531C14.3457-0.810547 14.3164-0.966797 14.2383-1.17188L9.6582-13.3691C9.43359-13.9648 9.0332-14.2676 8.4082-14.2676C7.80273-14.2676 7.39258-13.9746 7.17773-13.3789L2.59766-1.16211C2.51953-0.957031 2.49023-0.800781 2.49023-0.634766C2.49023-0.146484 2.80273 0.15625 3.31055 0.15625ZM6.00586-5.51758L8.37891-12.0898L8.42773-12.0898L10.8008-5.51758Z"/>
  </g>
  <line style="fill:none;stroke:#00AEEF;stroke-width:0.5;opacity:1.0;" x1="793.197" x2="793.197" y1="1919" y2="1933"/>
  <text style="stroke:none;fill:black;font-family:sans-serif;font-size:13;font-weight:bold;" transform="matrix(1 0 0 1 776 1953)">Margins</text>
  <text style="stroke:none;fill:black;font-family:sans-serif;font-size:13;" transform="matrix(1 0 0 1 776 1971)">Leading and trailing margins on the left and right side of each symbol</text>
  <text style="stroke:none;fill:black;font-family:sans-serif;font-size:13;" transform="matrix(1 0 0 1 776 1989)">can be adjusted by modifying the x-location of the margin guidelines.</text>
  <text style="stroke:none;fill:black;font-family:sans-serif;font-size:13;" transform="matrix(1 0 0 1 776 2007)">Modifications are automatically applied proportionally to all</text>
  <text style="stroke:none;fill:black;font-family:sans-serif;font-size:13;" transform="matrix(1 0 0 1 776 2025)">scales and weights.</text>
  <g transform="matrix(1 0 0 1 1289 1933)">
   <path d="M2.8418 1.86523L4.54102 3.57422C5.40039 4.44336 6.38672 4.38477 7.31445 3.35938L18.0078-8.42773L17.041-9.4043L6.42578 2.27539C6.07422 2.67578 5.74219 2.77344 5.27344 2.30469L4.10156 1.14258C3.63281 0.683594 3.74023 0.341797 4.14062-0.0195312L15.6152-10.8203L14.6387-11.7871L3.04688-0.898438C2.06055 0.0195312 1.98242 0.996094 2.8418 1.86523ZM9.25781-16.3281C8.83789-15.918 8.80859-15.3418 9.04297-14.9512C9.27734-14.5898 9.73633-14.3555 10.3809-14.5215C11.8457-14.8633 13.3691-14.9219 14.7949-13.9844L14.209-12.5293C13.8672-11.6992 14.043-11.1133 14.5801-10.5664L16.875-8.25195C17.3633-7.76367 17.7734-7.74414 18.3398-7.8418L19.4043-8.03711L20.0684-7.36328L20.0293-6.80664C19.9902-6.30859 20.1172-5.92773 20.6055-5.44922L21.3672-4.70703C21.8457-4.22852 22.4609-4.19922 22.9297-4.66797L25.8398-7.58789C26.3086-8.05664 26.2891-8.65234 25.8105-9.13086L25.0391-9.89258C24.5605-10.3711 24.1895-10.5273 23.7109-10.4883L23.1348-10.4395L22.4902-11.0742L22.7344-12.1973C22.8613-12.7637 22.7051-13.2031 22.1191-13.7891L19.9219-15.9766C16.582-19.2969 12.1484-19.2188 9.25781-16.3281ZM10.752-15.957C13.1836-17.7344 16.4746-17.4316 18.7012-15.2051L21.1328-12.793C21.3672-12.5586 21.4062-12.373 21.3379-12.0312L21.0156-10.5469L22.5195-9.0625L23.5059-9.12109C23.7598-9.13086 23.8379-9.11133 24.0332-8.91602L24.6094-8.33984L22.168-5.89844L21.5918-6.47461C21.3965-6.66992 21.3672-6.74805 21.377-7.01172L21.4453-7.98828L19.9512-9.47266L18.4277-9.21875C18.1055-9.15039 17.959-9.17969 17.7148-9.41406L15.7129-11.416C15.459-11.6504 15.4297-11.8164 15.5859-12.1875L16.4648-14.2773C14.9023-15.7324 12.8711-16.3574 10.8398-15.7617C10.6836-15.7227 10.625-15.8496 10.752-15.957Z"/>
  </g>
  <text style="stroke:none;fill:black;font-family:sans-serif;font-size:13;font-weight:bold;" transform="matrix(1 0 0 1 1289 1953)">Exporting</text>
  <text style="stroke:none;fill:black;font-family:sans-serif;font-size:13;" transform="matrix(1 0 0 1 1289 1971)">Symbols should be outlined when exporting to ensure the</text>
  <text style="stroke:none;fill:black;font-family:sans-serif;font-size:13;" transform="matrix(1 0 0 1 1289 1989)">design is preserved when submitting to Xcode.</text>
  <text id="template-version" style="stroke:none;fill:black;font-family:sans-serif;font-size:13;text-anchor:end;" transform="matrix(1 0 0 1 3036 1933)">Template v.4.0</text>
  <text style="stroke:none;fill:black;font-family:sans-serif;font-size:13;text-anchor:end;" transform="matrix(1 0 0 1 3036 1951)">Requires Xcode 14 or greater</text>
  <text id="descriptive-name" style="stroke:none;fill:black;font-family:sans-serif;font-size:13;text-anchor:end;" transform="matrix(1 0 0 1 3036 1969)">Generated from tweetie</text>
  <text style="stroke:none;fill:black;font-family:sans-serif;font-size:13;text-anchor:end;" transform="matrix(1 0 0 1 3036 1987)">Typeset at 100 points</text>
  <text style="stroke:none;fill:black;font-family:sans-serif;font-size:13;" transform="matrix(1 0 0 1 263 726)">Small</text>
  <text style="stroke:none;fill:black;font-family:sans-serif;font-size:13;" transform="matrix(1 0 0 1 263 1156)">Medium</text>
  <text style="stroke:none;fill:black;font-family:sans-serif;font-size:13;" transform="matrix(1 0 0 1 263 1586)">Large</text>
 </g>
 <g id="Guides">
  <g id="H-reference" style="fill:#27AAE1;stroke:none;" transform="matrix(1 0 0 1 339 696)">
   <path d="M0.993654 0L3.63775 0L29.3281-67.1323L30.0303-67.1323L30.0303-70.459L28.1226-70.459ZM11.6885-24.4799L46.9815-24.4799L46.2315-26.7285L12.4385-26.7285ZM55.1196 0L57.7637 0L30.6382-70.459L29.4326-70.459L29.4326-67.1323Z"/>
  </g>
  <line id="Baseline-S" style="fill:none;stroke:#27AAE1;opacity:1;stroke-width:0.5;" x1="263" x2="3036" y1="696" y2="696"/>
  <line id="Capline-S" style="fill:none;stroke:#27AAE1;opacity:1;stroke-width:0.5;" x1="263" x2="3036" y1="625.541" y2="625.541"/>
  <g id="H-reference" style="fill:#27AAE1;stroke:none;" transform="matrix(1 0 0 1 339 1126)">
   <path d="M0.993654 0L3.63775 0L29.3281-67.1323L30.0303-67.1323L30.0303-70.459L28.1226-70.459ZM11.6885-24.4799L46.9815-24.4799L46.2315-26.7285L12.4385-26.7285ZM55.1196 0L57.7637 0L30.6382-70.459L29.4326-70.459L29.4326-67.1323Z"/>
  </g>
  <line id="Baseline-M" style="fill:none;stroke:#27AAE1;opacity:1;stroke-width:0.5;" x1="263" x2="3036" y1="1126" y2="1126"/>
  <line id="Capline-M" style="fill:none;stroke:#27AAE1;opacity:1;stroke-width:0.5;" x1="263" x2="3036" y1="1055.54" y2="1055.54"/>
  <g id="H-reference" style="fill:#27AAE1;stroke:none;" transform="matrix(1 0 0 1 339 1556)">
   <path d="M0.993654 0L3.63775 0L29.3281-67.1323L30.0303-67.1323L30.0303-70.459L28.1226-70.459ZM11.6885-24.4799L46.9815-24.4799L46.2315-26.7285L12.4385-26.7285ZM55.1196 0L57.7637 0L30.6382-70.459L29.4326-70.459L29.4326-67.1323Z"/>
  </g>
  <line id="Baseline-L" style="fill:none;stroke:#27AAE1;opacity:1;stroke-width:0.5;" x1="263" x2="3036" y1="1556" y2="1556"/>
  <line id="Capline-L" style="fill:none;stroke:#27AAE1;opacity:1;stroke-width:0.5;" x1="263" x2="3036" y1="1485.54" y2="1485.54"/>
  <line id="left-margin-Regular-M" style="fill:none;stroke:#00AEEF;stroke-width:0.5;opacity:1.0;" x1="1392.45" x2="1392.45" y1="1030.79" y2="1150.12"/>
  <line id="right-margin-Regular-M" style="fill:none;stroke:#00AEEF;stroke-width:0.5;opacity:1.0;" x1="1507.24" x2="1507.24" y1="1030.79" y2="1150.12"/>
 </g>
 <g id="Symbols">
  <g id="Black-L" transform="matrix(1 0 0 1 2859.51 1556)">
   <path class="monochrome-0 multicolor-0:systemMintColor SFSymbolsPreview00C7BE" d="M51.1423-88.7987C97.559-88.7987 122.944-47.6277 122.944-11.9294C122.944-10.7578 122.944-9.59695 122.869-8.43607C127.806-4.61106 132.073 0.123387 135.461 5.55864C130.859 3.37063 125.972 1.93692 120.97 1.30566C126.237 4.6813 130.179 9.99351 132.063 16.2473C127.106 13.1017 121.689 10.8816 116.038 9.68858C106.484 20.5644 90.4983 21.0887 80.3345 10.8602C73.7785 4.26403 71.0002-5.56865 73.034-14.952C52.7413-13.866 33.8379-3.60533 21.0257 13.2729C14.3298 0.925836 17.7477-14.8664 28.8359-22.7999C24.8184-22.6715 20.8908-21.5106 17.3829-19.4189L17.3829-19.7613C17.3829-32.6219 25.8527-43.6957 37.6256-46.2421C33.9128-47.3281 30.0152-47.4886 26.2325-46.7076C29.5405-57.7118 39.0097-65.2495 49.8081-65.4688C40.8686-72.9851 29.8303-77.0669 18.4672-77.0562C16.4585-77.0508 14.4547-76.9224 12.4609-76.6657C24.0039-84.5939 37.4307-88.7987 51.1423-88.7773ZM93.2006-13.7423L90.7161-11.0825C90.0019-10.3179 90.0143-9.28055 90.7348-8.50921L93.5422-5.50367L90.7286-2.49149C90.0081-1.72015 90.0019-0.689492 90.7161 0.0751913L93.2006 2.73496C93.9148 3.49964 94.8775 3.49299 95.598 2.72166L98.4116-0.290527L101.225 2.72166C101.946 3.49299 102.908 3.49964 103.623 2.73496L106.107 0.0751913C106.821-0.689492 106.815-1.72015 106.095-2.49149L103.281-5.50367L106.088-8.50921C106.809-9.28055 106.815-10.3112 106.101-11.0759L103.616-13.7357C102.902-14.5003 101.939-14.4937 101.219-13.7224L98.4116-10.7168L95.598-13.729C94.8775-14.5003 93.9148-14.507 93.2006-13.7423Z"/>
  </g>
  <g id="Heavy-L" transform="matrix(1 0 0 1 2563.79 1556)">
   <path class="monochrome-0 multicolor-0:systemMintColor SFSymbolsPreview00C7BE" d="M50.5133-87.8832C96.1753-87.8832 121.147-47.4818 121.147-12.4507C121.147-11.301 121.147-10.1619 121.073-9.02268C125.93-5.26916 130.128-0.623208 133.461 4.71046C128.934 2.56334 124.126 1.15643 119.205 0.536969C124.387 3.84951 128.265 9.06243 130.118 15.1993C125.242 12.1125 119.913 9.93388 114.354 8.7632C104.955 19.4358 89.2294 19.9502 79.2309 9.91288C72.7815 3.44004 70.0483-6.20886 72.049-15.4168C52.0864-14.3511 33.4903-4.28223 20.8864 12.2805C14.2994 0.164242 17.6617-15.3328 28.5697-23.118C24.6174-22.992 20.7537-21.8529 17.3029-19.8002L17.3029-20.1362C17.3029-32.7564 25.635-43.6232 37.2164-46.1221C33.564-47.1878 29.7298-47.3453 26.0086-46.5788C29.2628-57.3774 38.578-64.7742 49.2009-64.9894C40.4067-72.3652 29.5479-76.3707 18.3696-76.3602C16.3935-76.3549 14.4223-76.2289 12.4609-75.977C23.8162-83.757 37.0247-87.8832 50.5133-87.8622ZM91.8877-14.2297L89.4437-11.6197C88.7411-10.8693 88.7533-9.85137 89.462-9.09445L92.2238-6.14509L89.4559-3.1892C88.7472-2.43229 88.7411-1.42089 89.4437-0.670503L91.8877 1.93955C92.5904 2.68994 93.5374 2.68342 94.2462 1.9265L97.014-1.02939L99.7819 1.9265C100.491 2.68342 101.438 2.68994 102.14 1.93955L104.584-0.670503C105.287-1.42089 105.281-2.43229 104.572-3.1892L101.804-6.14509L104.566-9.09445C105.275-9.85137 105.281-10.8628 104.578-11.6132L102.134-14.2232C101.432-14.9736 100.485-14.9671 99.7758-14.2102L97.014-11.2608L94.2462-14.2167C93.5374-14.9736 92.5904-14.9801 91.8877-14.2297Z"/>
  </g>
  <g id="Bold-L" transform="matrix(1 0 0 1 2268.08 1556)">
   <path class="monochrome-0 multicolor-0:systemMintColor SFSymbolsPreview00C7BE" d="M49.8844-86.7386C94.7916-86.7386 119.351-47.1067 119.351-12.7429C119.351-11.6151 119.351-10.4977 119.278-9.38018C124.055-5.69817 128.183-1.1407 131.461 4.09137C127.008 1.98515 122.28 0.605037 117.441-0.0026249C122.537 3.24682 126.351 8.36045 128.173 14.3804C123.378 11.3524 118.137 9.21529 112.669 8.06692C103.426 18.5362 87.9605 19.0409 78.1272 9.19469C71.7844 2.84515 69.0965-6.61996 71.0641-15.6525C51.4314-14.6071 33.1427-4.73003 20.7471 11.5172C14.269-0.368252 17.5757-15.5701 28.3034-23.2071C24.4165-23.0835 20.6166-21.966 17.2228-19.9525L17.2228-20.282C17.2228-32.6619 25.4172-43.3217 36.8072-45.7729C33.2152-46.8183 29.4443-46.9728 25.7846-46.221C28.9851-56.8138 38.1463-64.0697 48.5936-64.2809C39.9448-71.5162 29.2655-75.4454 18.2719-75.4351C16.3285-75.4299 14.3898-75.3063 12.4609-75.0591C23.6285-82.691 36.6186-86.7386 49.8844-86.718ZM90.5749-14.4881L88.1713-11.9277C87.4802-11.1916 87.4922-10.1931 88.1893-9.45059L90.9054-6.55741L88.1833-3.65782C87.4862-2.91533 87.4802-1.92319 88.1713-1.1871L90.5749 1.37324C91.2659 2.10934 92.1973 2.10294 92.8944 1.36044L95.6165-1.53914L98.3385 1.36044C99.0356 2.10294 99.967 2.10934 100.658 1.37324L103.062-1.1871C103.753-1.92319 103.747-2.91533 103.05-3.65782L100.328-6.55741L103.044-9.45059C103.741-10.1931 103.747-11.1852 103.056-11.9213L100.652-14.4817C99.961-15.2178 99.0296-15.2114 98.3325-14.4689L95.6165-11.5757L92.8944-14.4753C92.1973-15.2178 91.2659-15.2242 90.5749-14.4881Z"/>
  </g>
  <g id="Semibold-L" transform="matrix(1 0 0 1 1972.37 1556)">
   <path class="monochrome-0 multicolor-0:systemMintColor SFSymbolsPreview00C7BE" d="M49.2554-85.9496C93.4079-85.9496 117.554-47.0873 117.554-13.3907C117.554-12.2848 117.554-11.1891 117.483-10.0933C122.179-6.48277 126.238-2.0138 129.461 3.11668C125.083 1.05136 120.435-0.301956 115.677-0.897819C120.686 2.28853 124.437 7.30286 126.229 13.2059C121.514 10.2367 116.361 8.14111 110.985 7.01503C101.897 17.281 86.6916 17.7759 77.0236 8.12091C70.7874 1.89466 68.1446-7.38666 70.0792-16.2438C50.7764-15.2187 32.7951-5.53343 20.6079 10.3983C14.2386-1.25635 17.4898-16.163 28.0371-23.6517C24.2156-23.5305 20.4795-22.4347 17.1428-20.4603L17.1428-20.7835C17.1428-32.9229 25.1995-43.3757 36.398-45.7794C32.8664-46.8045 29.1589-46.956 25.5607-46.2187C28.7073-56.6059 37.7146-63.7209 47.9863-63.9279C39.4828-71.0227 28.983-74.8756 18.1742-74.8655C16.2635-74.8605 14.3574-74.7393 12.4609-74.4969C23.4408-81.9806 36.2126-85.9496 49.2554-85.9294ZM89.262-15.102L86.8988-12.5914C86.2194-11.8696 86.2312-10.8904 86.9165-10.1623L89.587-7.32532L86.9106-4.48204C86.2253-3.75396 86.2194-2.7811 86.8988-2.05929L89.262 0.451332C89.9415 1.17314 90.8572 1.16686 91.5425 0.438779L94.2189-2.4045L96.8952 0.438779C97.5806 1.16686 98.4963 1.17314 99.1757 0.451332L101.539-2.05929C102.218-2.7811 102.212-3.75396 101.527-4.48204L98.8508-7.32532L101.521-10.1623C102.207-10.8904 102.212-11.8633 101.533-12.5851L99.1698-15.0957C98.4904-15.8175 97.5746-15.8112 96.8893-15.0831L94.2189-12.2461L91.5425-15.0894C90.8572-15.8175 89.9415-15.8238 89.262-15.102Z"/>
  </g>
  <g id="Medium-L" transform="matrix(1 0 0 1 1676.16 1556)">
   <path class="monochrome-0 multicolor-0:systemMintColor SFSymbolsPreview00C7BE" d="M48.9409-85.3513C92.716-85.3513 116.656-46.8737 116.656-13.5108C116.656-12.4159 116.656-11.331 116.585-10.246C121.241-6.67127 125.266-2.24655 128.461 2.83313C124.121 0.788263 119.512-0.551653 114.794-1.14162C119.761 2.01319 123.48 6.97787 125.256 12.8225C120.581 9.88269 115.473 7.80782 110.143 6.69289C101.133 16.8572 86.0572 17.3472 76.4718 7.78782C70.2889 1.62321 67.6687-7.56621 69.5867-16.3357C50.449-15.3207 32.6213-5.73133 20.5383 10.0427C14.2234-1.49659 17.4468-16.2557 27.904-23.6702C24.1151-23.5502 20.411-22.4653 17.1028-20.5104L17.1028-20.8304C17.1028-32.8496 25.0906-43.199 36.1934-45.5788C32.692-46.5937 29.0162-46.7437 25.4488-46.0138C28.5685-56.2981 37.4988-63.3427 47.6827-63.5477C39.2519-70.5722 28.8418-74.387 18.1254-74.377C16.231-74.372 14.3412-74.252 12.4609-74.012C23.3469-81.4215 36.0096-85.3513 48.9409-85.3313ZM88.6056-15.2051L86.2626-12.7194C85.589-12.0047 85.6007-11.0353 86.2802-10.3144L88.9278-7.50548L86.2743-4.69035C85.5948-3.96948 85.589-3.00625 86.2626-2.29159L88.6056 0.194177C89.2792 0.908834 90.1872 0.90262 90.8666 0.181748L93.5201-2.63338L96.1736 0.181748C96.853 0.90262 97.761 0.908834 98.4346 0.194177L100.778-2.29159C101.451-3.00625 101.445-3.96948 100.766-4.69035L98.1124-7.50548L100.76-10.3144C101.439-11.0353 101.445-11.9985 100.772-12.7132L98.4287-15.1989C97.7551-15.9136 96.8472-15.9074 96.1677-15.1865L93.5201-12.3776L90.8666-15.1927C90.1872-15.9136 89.2792-15.9198 88.6056-15.2051Z"/>
  </g>
  <g id="Regular-L" transform="matrix(1 0 0 1 1380.45 1556)">
   <path class="monochrome-0 multicolor-0:systemMintColor SFSymbolsPreview00C7BE" d="M48.312-84.5709C91.3323-84.5709 114.859-46.8629 114.859-14.1672C114.859-13.0942 114.859-12.031 114.79-10.9677C119.366-7.46447 123.321-3.12824 126.461 1.84984C122.195-0.154129 117.666-1.46725 113.03-2.04541C117.911 1.0463 121.566 5.91169 123.312 11.6394C118.717 8.75841 113.697 6.72504 108.459 5.63241C99.6039 15.5935 84.7883 16.0736 75.3682 6.70544C69.2919 0.66412 66.7168-8.34151 68.6018-16.9356C49.794-15.9409 32.2737-6.54333 20.399 8.9152C14.193-2.39329 17.3608-16.8572 27.6377-24.1234C23.9142-24.0058 20.2739-22.9426 17.0228-21.0268L17.0228-21.3404C17.0228-33.1192 24.8728-43.2616 35.7842-45.5939C32.3432-46.5885 28.7307-46.7355 25.2248-46.0201C28.2908-56.0988 37.0671-63.0025 47.0754-63.2033C38.79-70.0874 28.5594-73.8259 18.0277-73.8161C16.166-73.8112 14.3088-73.6936 12.4609-73.4584C23.1593-80.7197 35.6036-84.5709 48.312-84.5513ZM87.2928-15.8277L84.9902-13.3916C84.3281-12.6912 84.3397-11.7412 85.0074-11.0347L87.6094-8.282L85.0017-5.52317C84.3339-4.81672 84.3281-3.87275 84.9902-3.17238L87.2928-0.736333C87.9548-0.0359683 88.847-0.0420584 89.5148-0.748513L92.1225-3.50734L94.7302-0.748513C95.398-0.0420584 96.2903-0.0359683 96.9523-0.736333L99.2549-3.17238C99.9169-3.87275 99.9111-4.81672 99.2434-5.52317L96.6357-8.282L99.2376-11.0347C99.9054-11.7412 99.9111-12.6852 99.2491-13.3855L96.9465-15.8216C96.2845-16.5219 95.3922-16.5158 94.7245-15.8094L92.1225-13.0567L89.5148-15.8155C88.847-16.5219 87.9548-16.528 87.2928-15.8277Z"/>
  </g>
  <g id="Light-L" transform="matrix(1 0 0 1 1084.24 1556)">
   <path class="monochrome-0 multicolor-0:systemMintColor SFSymbolsPreview00C7BE" d="M47.9975-83.712C90.6405-83.712 113.961-46.3888 113.961-14.0267C113.961-12.9647 113.961-11.9123 113.892-10.8599C118.428-7.39237 122.348-3.10039 125.461 1.8269C121.233-0.156624 116.743-1.45634 112.148-2.02861C116.986 1.03155 120.609 5.8473 122.339 11.5166C117.785 8.66497 112.809 6.65235 107.617 5.57086C98.8394 15.4303 84.1538 15.9056 74.8163 6.63295C68.7933 0.653275 66.2409-8.26046 68.1093-16.7668C49.4665-15.7823 32.0999-6.48062 20.3294 8.82016C14.1778-2.37293 17.3179-16.6892 27.5046-23.8813C23.8137-23.7649 20.2054-22.7126 16.9827-20.8163L16.9827-21.1267C16.9827-32.7854 24.764-42.8242 35.5796-45.1327C32.1688-46.1172 28.588-46.2627 25.1129-45.5546C28.1519-55.5304 36.8513-62.3636 46.7718-62.5625C38.559-69.3763 28.4182-73.0766 17.9789-73.0669C16.1335-73.0621 14.2926-72.9457 12.4609-72.7129C23.0654-79.9001 35.4006-83.712 47.9975-83.6926ZM86.6364-15.6702L84.3539-13.259C83.6977-12.5658 83.7091-11.6254 84.371-10.9262L86.9502-8.20156L84.3653-5.47088C83.7034-4.77163 83.6977-3.8373 84.3539-3.14408L86.6364-0.732887C87.2926-0.0396696 88.177-0.0456976 88.8389-0.744943L91.4237-3.47562L94.0086-0.744943C94.6705-0.0456976 95.5549-0.0396696 96.2111-0.732887L98.4935-3.14408C99.1497-3.8373 99.144-4.77163 98.4821-5.47088L95.8973-8.20156L98.4764-10.9262C99.1383-11.6254 99.144-12.5598 98.4878-13.253L96.2054-15.6642C95.5492-16.3574 94.6648-16.3514 94.0029-15.6521L91.4237-12.9275L88.8389-15.6582C88.177-16.3574 87.2926-16.3634 86.6364-15.6702Z"/>
  </g>
  <g id="Thin-L" transform="matrix(1 0 0 1 788.527 1556)">
   <path class="monochrome-0 multicolor-0:systemMintColor SFSymbolsPreview00C7BE" d="M47.3685-82.5761C89.2568-82.5761 112.165-46.0224 112.165-14.3277C112.165-13.2875 112.165-12.2568 112.097-11.2261C116.552-7.83007 120.403-3.62658 123.461 1.19911C119.308-0.743515 114.897-2.01644 110.384-2.5769C115.136 0.420161 118.694 5.13661 120.394 10.689C115.921 7.89619 111.033 5.92506 105.933 4.86588C97.3106 14.522 82.8849 14.9875 73.7127 5.90606C67.7963 0.0496845 65.2891-8.68026 67.1244-17.0112C48.8115-16.047 31.7523-6.93712 20.1901 8.04818C14.1474-2.91413 17.2319-16.9352 27.2384-23.979C23.6128-23.8651 20.0683-22.8344 16.9027-20.9772L16.9027-21.2812C16.9027-32.6995 24.5462-42.5314 35.1705-44.7922C31.8199-45.7564 28.3026-45.8989 24.8889-45.2055C27.8742-54.9756 36.4196-61.6679 46.1645-61.8627C38.0971-68.536 28.1357-72.16 17.8813-72.1505C16.0685-72.1458 14.2602-72.0318 12.4609-71.8038C22.8777-78.8428 34.9946-82.5761 47.3685-82.5571ZM85.3235-15.9372L83.0815-13.5758C82.4369-12.8968 82.4481-11.9759 83.0983-11.291L85.6318-8.62257L83.0927-5.9482C82.4425-5.26337 82.4369-4.3483 83.0815-3.66937L85.3235-1.3079C85.9681-0.628972 86.8369-0.634876 87.4871-1.3197L90.0262-3.99408L92.5653-1.3197C93.2154-0.634876 94.0842-0.628972 94.7288-1.3079L96.9708-3.66937C97.6154-4.3483 97.6098-5.26337 96.9596-5.9482L94.4205-8.62257L96.954-11.291C97.6042-11.9759 97.6098-12.8909 96.9652-13.5699L94.7232-15.9313C94.0786-16.6103 93.2098-16.6044 92.5597-15.9195L90.0262-13.2511L87.4871-15.9254C86.8369-16.6103 85.9681-16.6162 85.3235-15.9372Z"/>
  </g>
  <g id="Ultralight-L" transform="matrix(1 0 0 1 492.316 1556)">
   <path class="monochrome-0 multicolor-0:systemMintColor SFSymbolsPreview00C7BE" d="M47.054-82.9943C88.5649-82.9943 111.267-46.8254 111.267-15.4643C111.267-14.435 111.267-13.4152 111.199-12.3954C115.615-9.03507 119.431-4.87583 122.461-0.100932C118.345-2.02311 113.975-3.28263 109.501-3.8372C114.211-0.871684 117.737 3.79512 119.422 9.28907C114.989 6.52565 110.145 4.57527 105.091 3.52724C96.5462 13.0817 82.2505 13.5423 73.1609 4.55647C67.2978-1.23826 64.8131-9.87632 66.6319-18.1196C48.4841-17.1656 31.5785-8.15152 20.1205 6.67604C14.1322-4.17088 17.1889-18.0444 27.1052-25.0141C23.5123-24.9013 19.9998-23.8814 16.8627-22.0438L16.8627-22.3446C16.8627-33.6427 24.4373-43.3711 34.9659-45.6082C31.6455-46.5622 28.1599-46.7032 24.777-46.017C27.7353-55.6843 36.2037-62.3062 45.8609-62.4989C37.8661-69.102 27.9945-72.6879 17.8324-72.6785C16.036-72.6738 14.244-72.561 12.4609-72.3354C22.7839-79.3003 34.7916-82.9943 47.054-82.9755ZM84.6671-17.0569L82.4453-14.7203C81.8065-14.0485 81.8176-13.1372 82.4619-12.4596L84.9726-9.81923L82.4564-7.17301C81.812-6.49539 81.8065-5.58995 82.4453-4.91817L84.6671-2.58155C85.3059-1.90977 86.1668-1.91562 86.8112-2.59323L89.3274-5.23946L91.8436-2.59323C92.4879-1.91562 93.3489-1.90977 93.9877-2.58155L96.2095-4.91817C96.8483-5.58995 96.8427-6.49539 96.1984-7.17301L93.6822-9.81923L96.1928-12.4596C96.8372-13.1372 96.8427-14.0427 96.2039-14.7144L93.9821-17.0511C93.3433-17.7228 92.4824-17.717 91.838-17.0394L89.3274-14.399L86.8112-17.0452C86.1668-17.7228 85.3059-17.7287 84.6671-17.0569Z"/>
  </g>
  <g id="Black-M" transform="matrix(1 0 0 1 2872.51 1126)">
   <path class="monochrome-0 multicolor-0:systemMintColor SFSymbolsPreview00C7BE" d="M42.9658-76.6002C79.5708-76.6002 99.5895-44.6638 99.5895-16.9726C99.5895-16.0638 99.5895-15.1633 99.5304-14.2628C103.424-11.2958 106.789-7.62325 109.461-3.40712C105.832-5.10436 101.978-6.21649 98.0329-6.70616C102.186-4.08768 105.296 0.0330128 106.781 4.88406C102.872 2.44401 98.6004 0.721869 94.1435-0.203522C86.6089 8.2329 74.0026 8.63957 65.9872 0.70527C60.8171-4.41136 58.626-12.0386 60.2299-19.3172C44.2268-18.4748 29.3192-10.5156 19.2152 2.5768C13.9347-7.00079 16.6301-19.2508 25.3745-25.4049C22.2062-25.3053 19.1088-24.4048 16.3425-22.7822L16.3425-23.0478C16.3425-33.0238 23.0219-41.6138 32.3062-43.589C29.3783-44.4314 26.3045-44.5559 23.3214-43.9501C25.9302-52.4861 33.3978-58.3331 41.9136-58.5032C34.8637-64.3336 26.1587-67.4998 17.1976-67.4915C15.6134-67.4874 14.0332-67.3878 12.4609-67.1886C21.5639-73.3385 32.1525-76.6002 42.9658-76.5836ZM76.1336-18.3789L74.1744-16.3157C73.6111-15.7225 73.6209-14.9179 74.1891-14.3196L76.403-11.9882L74.1842-9.65161C73.616-9.05329 73.6111-8.25381 74.1744-7.66064L76.1336-5.59745C76.6969-5.00429 77.4561-5.00945 78.0243-5.60777L80.2432-7.94433L82.462-5.60777C83.0302-5.00945 83.7894-5.00429 84.3527-5.59745L86.3119-7.66064C86.8752-8.25381 86.8703-9.05329 86.3021-9.65161L84.0833-11.9882L86.2972-14.3196C86.8654-14.9179 86.8703-15.7174 86.307-16.3105L84.3478-18.3737C83.7845-18.9669 83.0253-18.9617 82.4571-18.3634L80.2432-16.032L78.0243-18.3686C77.4561-18.9669 76.6969-18.9721 76.1336-18.3789Z"/>
  </g>
  <g id="Heavy-M" transform="matrix(1 0 0 1 2576.79 1126)">
   <path class="monochrome-0 multicolor-0:systemMintColor SFSymbolsPreview00C7BE" d="M42.3368-75.7845C78.1871-75.7845 97.793-44.6177 97.793-17.5937C97.793-16.7068 97.793-15.828 97.7351-14.9492C101.548-12.0537 104.844-8.46965 107.461-4.35511C103.906-6.01145 100.132-7.09679 96.2685-7.57466C100.336-5.01927 103.381-0.997871 104.836 3.73628C101.008 1.35503 96.8243-0.325613 92.4593-1.22871C85.08 7.00442 72.7337 7.4013 64.8836-0.341812C59.82-5.33515 57.6742-12.7786 59.245-19.8818C43.5718-19.0597 28.9716-11.2923 19.076 1.48462C13.9043-7.86219 16.5442-19.817 25.1083-25.8228C22.0053-25.7256 18.9718-24.8468 16.2624-23.2634L16.2624-23.5225C16.2624-33.2581 22.8042-41.6411 31.897-43.5688C29.0295-44.3909 26.0191-44.5124 23.0975-43.9211C25.6524-52.2514 32.9661-57.9575 41.3063-58.1236C34.4018-63.8135 25.8763-66.9034 17.0999-66.8953C15.5484-66.8913 14.0008-66.7941 12.4609-66.5997C21.3762-72.6014 31.7465-75.7845 42.3368-75.7683ZM74.8208-18.9661L72.9019-16.9526C72.3503-16.3738 72.3599-15.5885 72.9163-15.0046L75.0846-12.7294L72.9115-10.4491C72.3551-9.86523 72.3503-9.08501 72.9019-8.50613L74.8208-6.49266C75.3725-5.91379 76.116-5.91882 76.6725-6.50273L78.8456-8.78299L81.0187-6.50273C81.5752-5.91882 82.3187-5.91379 82.8704-6.49266L84.7892-8.50613C85.3409-9.08501 85.3361-9.86523 84.7796-10.4491L82.6065-12.7294L84.7748-15.0046C85.3313-15.5885 85.3361-16.3687 84.7844-16.9476L82.8656-18.9611C82.3139-19.5399 81.5704-19.5349 81.0139-18.951L78.8456-16.6758L76.6725-18.956C76.116-19.5399 75.3725-19.545 74.8208-18.9661Z"/>
  </g>
  <g id="Bold-M" transform="matrix(1 0 0 1 2281.58 1126)">
   <path class="monochrome-0 multicolor-0:systemMintColor SFSymbolsPreview00C7BE" d="M41.3933-74C76.1115-74 95.0983-43.9875 95.0983-17.9644C95.0983-17.1104 95.0983-16.2641 95.0423-15.4179C98.735-12.6296 101.927-9.17829 104.461-5.21614C101.019-6.81114 97.3633-7.85628 93.622-8.31645C97.5614-5.8557 100.51-1.98325 101.919 2.57557C98.2117 0.282511 94.1602-1.33589 89.933-2.20553C82.7868 5.72267 70.8303 6.10484 63.2282-1.35149C58.3245-6.15988 56.2464-13.3276 57.7676-20.1678C42.5894-19.3761 28.4502-11.8964 18.8671 0.407303C13.8587-8.59333 16.4152-20.1054 24.7089-25.8887C21.7039-25.7951 18.7662-24.9489 16.1424-23.4241L16.1424-23.6737C16.1424-33.0487 22.4776-41.1212 31.2832-42.9775C28.5062-43.7691 25.5909-43.8861 22.7616-43.3167C25.2359-51.3385 32.3185-56.8333 40.3954-56.9932C33.7089-62.4723 25.4527-65.4478 16.9534-65.44C15.4509-65.4361 13.9522-65.3425 12.4609-65.1554C21.0947-70.9348 31.1375-74 41.3933-73.9844ZM72.8515-19.286L70.9933-17.3471C70.459-16.7897 70.4683-16.0335 71.0072-15.4712L73.107-13.2803L71.0026-11.0845C70.4637-10.5222 70.459-9.77086 70.9933-9.21342L72.8515-7.27453C73.3858-6.7171 74.1059-6.72194 74.6448-7.28422L76.7492-9.48002L78.8537-7.28422C79.3926-6.72194 80.1127-6.7171 80.6469-7.27453L82.5052-9.21342C83.0394-9.77086 83.0348-10.5222 82.4959-11.0845L80.3914-13.2803L82.4912-15.4712C83.0301-16.0335 83.0348-16.7848 82.5005-17.3423L80.6423-19.2811C80.108-19.8386 79.388-19.8337 78.8491-19.2715L76.7492-17.0805L74.6448-19.2763C74.1059-19.8386 73.3858-19.8434 72.8515-19.286Z"/>
  </g>
  <g id="Semibold-M" transform="matrix(1 0 0 1 1984.87 1126)">
   <path class="monochrome-0 multicolor-0:systemMintColor SFSymbolsPreview00C7BE" d="M41.3933-74.2428C76.1115-74.2428 95.0983-44.2303 95.0983-18.2072C95.0983-17.3532 95.0983-16.5069 95.0423-15.6607C98.735-12.8724 101.927-9.42109 104.461-5.45894C101.019-7.05394 97.3633-8.09908 93.622-8.55925C97.5614-6.0985 100.51-2.22605 101.919 2.33277C98.2117 0.0397111 94.1602-1.57869 89.933-2.44833C82.7868 5.47987 70.8303 5.86204 63.2282-1.59429C58.3245-6.40268 56.2464-13.5704 57.7676-20.4106C42.5894-19.6189 28.4502-12.1392 18.8671 0.164503C13.8587-8.83613 16.4152-20.3482 24.7089-26.1315C21.7039-26.0379 18.7662-25.1917 16.1424-23.6669L16.1424-23.9165C16.1424-33.2915 22.4776-41.364 31.2832-43.2203C28.5062-44.0119 25.5909-44.1289 22.7616-43.5595C25.2359-51.5813 32.3185-57.0761 40.3954-57.236C33.7089-62.7151 25.4527-65.6906 16.9534-65.6828C15.4509-65.6789 13.9522-65.5853 12.4609-65.3982C21.0947-71.1776 31.1375-74.2428 41.3933-74.2272ZM72.8515-19.5288L70.9933-17.5899C70.459-17.0325 70.4683-16.2763 71.0072-15.714L73.107-13.5231L71.0026-11.3273C70.4637-10.765 70.459-10.0137 70.9933-9.45622L72.8515-7.51733C73.3858-6.9599 74.1059-6.96474 74.6448-7.52702L76.7492-9.72282L78.8537-7.52702C79.3926-6.96474 80.1127-6.9599 80.6469-7.51733L82.5052-9.45622C83.0394-10.0137 83.0348-10.765 82.4959-11.3273L80.3914-13.5231L82.4912-15.714C83.0301-16.2763 83.0348-17.0276 82.5005-17.5851L80.6423-19.5239C80.108-20.0814 79.388-20.0765 78.8491-19.5143L76.7492-17.3233L74.6448-19.5191C74.1059-20.0814 73.3858-20.0862 72.8515-19.5288Z"/>
  </g>
  <g id="Medium-M" transform="matrix(1 0 0 1 1688.66 1126)">
   <path class="monochrome-0 multicolor-0:systemMintColor SFSymbolsPreview00C7BE" d="M41.0789-73.7658C75.4197-73.7658 94.2001-44.1381 94.2001-18.4486C94.2001-17.6055 94.2001-16.7701 94.1446-15.9348C97.7972-13.1822 100.954-9.77514 103.461-5.86379C100.056-7.43834 96.4404-8.47007 92.7398-8.92434C96.6364-6.49515 99.5532-2.67234 100.947 1.82803C97.2796-0.435629 93.2722-2.03328 89.0909-2.89177C82.0224 4.93478 70.1959 5.31206 62.6763-2.04868C57.826-6.79543 55.7705-13.8713 57.2751-20.6238C42.2619-19.8423 28.2764-12.4584 18.7974-0.312436C13.8436-9.19768 16.3723-20.5622 24.5757-26.2713C21.6034-26.179 18.6976-25.3436 16.1024-23.8383L16.1024-24.0847C16.1024-33.3395 22.3687-41.3085 31.0787-43.141C28.3318-43.9225 25.4482-44.038 22.6496-43.4759C25.097-51.3949 32.1027-56.8192 40.0918-56.977C33.478-62.3859 25.3114-65.3233 16.9046-65.3156C15.4184-65.3117 13.936-65.2193 12.4609-65.0346C21.0008-70.7399 30.9345-73.7658 41.0789-73.7504ZM72.1951-19.7533L70.3571-17.8392C69.8286-17.2889 69.8378-16.5425 70.3708-15.9874L72.4478-13.8245L70.3662-11.6569C69.8332-11.1018 69.8286-10.3601 70.3571-9.80982L72.1951-7.89578C72.7236-7.3455 73.4358-7.35028 73.9688-7.90535L76.0504-10.073L78.132-7.90535C78.6651-7.35028 79.3773-7.3455 79.9058-7.89578L81.7438-9.80982C82.2723-10.3601 82.2677-11.1018 81.7346-11.6569L79.653-13.8245L81.73-15.9874C82.2631-16.5425 82.2677-17.2841 81.7392-17.8344L79.9012-19.7485C79.3727-20.2988 78.6605-20.294 78.1274-19.7389L76.0504-17.576L73.9688-19.7437C73.4358-20.2988 72.7236-20.3035 72.1951-19.7533Z"/>
  </g>
  <g id="Regular-M" transform="matrix(1 0 0 1 1392.45 1126)">
   <path class="monochrome-0 multicolor-0:systemMintColor SFSymbolsPreview00C7BE" d="M40.7644-73.1437C74.7278-73.1437 93.3019-43.9007 93.3019-18.5449C93.3019-17.7128 93.3019-16.8883 93.247-16.0637C96.8594-13.3469 99.9819-9.98409 102.461-6.12353C99.0934-7.67763 95.5176-8.69597 91.8576-9.14434C95.7114-6.74669 98.5962-2.97353 99.9746 1.46839C96.3476-0.765869 92.3841-2.34277 88.2488-3.19012C81.258 4.5348 69.5614 4.90717 62.1245-2.35797C57.3274-7.04307 55.2945-14.027 56.7827-20.6918C41.9344-19.9205 28.1026-12.6325 18.7278-0.644276C13.8284-9.41412 16.3293-20.631 24.4426-26.2661C21.5029-26.1749 18.6291-25.3503 16.0624-23.8646L16.0624-24.1078C16.0624-33.2424 22.2598-41.1079 30.8741-42.9166C28.1574-43.688 25.3055-43.802 22.5377-43.2472C24.9582-51.0633 31.8869-56.4172 39.7881-56.5729C33.247-61.9116 25.1702-64.8108 16.8558-64.8032C15.3859-64.7994 13.9198-64.7082 12.4609-64.5258C20.907-70.1571 30.7315-73.1437 40.7644-73.1285ZM71.5387-19.8326L69.7208-17.9434C69.1982-17.4003 69.2073-16.6635 69.7345-16.1157L71.7887-13.9809L69.7299-11.8414C69.2027-11.2935 69.1982-10.5615 69.7208-10.0183L71.5387-8.12914C72.0613-7.586 72.7658-7.59072 73.2929-8.13858L75.3517-10.2781L77.4104-8.13858C77.9376-7.59072 78.642-7.586 79.1646-8.12914L80.9825-10.0183C81.5051-10.5615 81.5006-11.2935 80.9734-11.8414L78.9147-13.9809L80.9688-16.1157C81.496-16.6635 81.5006-17.3956 80.9779-17.9387L79.1601-19.8279C78.6374-20.371 77.933-20.3663 77.4058-19.8184L75.3517-17.6837L73.2929-19.8232C72.7658-20.371 72.0613-20.3758 71.5387-19.8326Z"/>
  </g>
  <g id="Light-M" transform="matrix(1 0 0 1 1096.74 1126)">
   <path class="monochrome-0 multicolor-0:systemMintColor SFSymbolsPreview00C7BE" d="M40.1354-72.3737C73.3441-72.3737 91.5054-43.9003 91.5054-19.2118C91.5054-18.4015 91.5054-17.5987 91.4518-16.7958C94.9839-14.1505 98.037-10.8762 100.461-7.11722C97.1683-8.63042 93.6719-9.62196 90.0932-10.0585C93.8613-7.72398 96.6821-4.05011 98.0299 0.274914C94.4834-1.90055 90.608-3.43595 86.5647-4.261C79.7292 3.26063 68.2925 3.6232 61.0209-3.45075C56.3304-8.01256 54.3427-14.8127 55.7977-21.3021C41.2794-20.5511 27.755-13.4549 18.5885-1.78216C13.798-10.3212 16.2433-21.2429 24.1764-26.7297C21.302-26.6409 18.492-25.838 15.9823-24.3914L15.9823-24.6282C15.9823-33.5225 22.042-41.181 30.4649-42.9421C27.8086-43.6931 25.0201-43.8041 22.3138-43.2639C24.6804-50.8744 31.4552-56.0873 39.1809-56.239C32.7851-61.4372 24.8878-64.2601 16.7581-64.2527C15.3209-64.249 13.8873-64.1602 12.4609-63.9826C20.7193-69.4657 30.3255-72.3737 40.1354-72.3589ZM70.2259-20.4655L68.4484-18.6261C67.9374-18.0972 67.9463-17.3798 68.4617-16.8464L70.4703-14.7678L68.4573-12.6846C67.9418-12.1512 67.9374-11.4384 68.4484-10.9095L70.2259-9.07005C70.7369-8.5412 71.4256-8.5458 71.9411-9.07924L73.9541-11.1624L75.9671-9.07924C76.4825-8.5458 77.1713-8.5412 77.6823-9.07005L79.4598-10.9095C79.9708-11.4384 79.9663-12.1512 79.4509-12.6846L77.4379-14.7678L79.4464-16.8464C79.9619-17.3798 79.9663-18.0926 79.4553-18.6215L77.6779-20.4609C77.1668-20.9898 76.4781-20.9852 75.9626-20.4517L73.9541-18.3731L71.9411-20.4563C71.4256-20.9898 70.7369-20.9944 70.2259-20.4655Z"/>
  </g>
  <g id="Thin-M" transform="matrix(1 0 0 1 801.027 1126)">
   <path class="monochrome-0 multicolor-0:systemMintColor SFSymbolsPreview00C7BE" d="M39.5064-71.3553C71.9604-71.3553 89.7089-43.6514 89.7089-19.6302C89.7089-18.8418 89.7089-18.0607 89.6565-17.2795C93.1084-14.7057 96.0921-11.5199 98.4609-7.86251C95.2431-9.33481 91.8262-10.2996 88.3289-10.7243C92.0113-8.45287 94.7679-4.8783 96.0851-0.670162C92.6193-2.78683 88.832-4.28073 84.8805-5.08348C78.2003 2.23485 67.0236 2.58763 59.9172-4.29513C55.3334-8.73365 53.3908-15.35 54.8128-21.664C40.6245-20.9333 27.4074-14.0289 18.4493-2.67164C13.7676-10.9799 16.1573-21.6064 23.9101-26.9449C21.1011-26.8585 18.3549-26.0774 15.9023-24.6698L15.9023-24.9002C15.9023-33.5541 21.8243-41.0056 30.0557-42.7191C27.4598-43.4499 24.7346-43.5579 22.0898-43.0323C24.4027-50.437 31.0235-55.5091 38.5736-55.6567C32.3232-60.7144 24.6054-63.461 16.6605-63.4538C15.2559-63.4502 13.8549-63.3638 12.4609-63.191C20.5316-68.5259 29.9194-71.3553 39.5064-71.3409ZM68.913-20.8501L67.176-19.0603C66.6765-18.5458 66.6852-17.8478 67.189-17.3287L69.1519-15.3063L67.1846-13.2794C66.6809-12.7604 66.6765-12.0669 67.176-11.5523L68.913-9.76256C69.4124-9.248 70.0855-9.25248 70.5893-9.77151L72.5565-11.7984L74.5237-9.77151C75.0275-9.25248 75.7006-9.248 76.2-9.76256L77.9371-11.5523C78.4365-12.0669 78.4321-12.7604 77.9284-13.2794L75.9612-15.3063L77.924-17.3287C78.4278-17.8478 78.4321-18.5413 77.9327-19.0558L76.1957-20.8456C75.6963-21.3601 75.0231-21.3557 74.5194-20.8366L72.5565-18.8142L70.5893-20.8411C70.0855-21.3601 69.4124-21.3646 68.913-20.8501Z"/>
  </g>
  <g id="Ultralight-M" transform="matrix(1 0 0 1 504.816 1126)">
   <path class="monochrome-0 multicolor-0:systemMintColor SFSymbolsPreview00C7BE" d="M39.192-70.8337C71.2685-70.8337 88.8107-43.5146 88.8107-19.827C88.8107-19.0496 88.8107-18.2793 88.7589-17.509C92.1706-14.9709 95.1196-11.8293 97.4609-8.22275C94.2805-9.67461 90.9033-10.626 87.4467-11.0448C91.0863-8.80492 93.8109-5.27999 95.1127-1.1303C91.6872-3.21757 87.9439-4.69073 84.0384-5.48233C77.4359 1.73437 66.3892 2.08225 59.3654-4.70492C54.8349-9.0818 52.9149-15.6063 54.3203-21.8326C40.297-21.112 27.2336-14.3035 18.3796-3.10398C13.7524-11.2969 16.1144-21.7758 23.777-27.0401C21.0006-26.9549 18.2864-26.1846 15.8623-24.7967L15.8623-25.0238C15.8623-33.5575 21.7154-40.9055 29.8511-42.5952C27.2854-43.3158 24.5919-43.4223 21.9779-42.9041C24.2639-50.206 30.8076-55.2076 38.27-55.3531C32.0922-60.3406 24.4642-63.049 16.6116-63.0419C15.2234-63.0384 13.8387-62.9532 12.4609-62.7828C20.4377-68.0436 29.7164-70.8337 39.192-70.8195ZM68.2566-21.0299L66.5397-19.265C66.0461-18.7576 66.0547-18.0693 66.5526-17.5575L68.4927-15.5632L66.5483-13.5644C66.0504-13.0526 66.0461-12.3687 66.5397-11.8613L68.2566-10.0964C68.7502-9.589 69.4155-9.59342 69.9134-10.1052L71.8577-12.104L73.8021-10.1052C74.3-9.59342 74.9653-9.589 75.4589-10.0964L77.1757-11.8613C77.6693-12.3687 77.665-13.0526 77.1671-13.5644L75.2228-15.5632L77.1628-17.5575C77.6607-18.0693 77.665-18.7532 77.1714-19.2606L75.4546-21.0255C74.961-21.5329 74.2957-21.5285 73.7978-21.0167L71.8577-19.0224L69.9134-21.0211C69.4155-21.5329 68.7502-21.5373 68.2566-21.0299Z"/>
  </g>
  <g id="Black-S" transform="matrix(1 0 0 1 2883.01 696)">
   <path class="monochrome-0 multicolor-0:systemMintColor SFSymbolsPreview00C7BE" d="M36.3616-66.3398C65.0418-66.3398 80.7266-42.0989 80.7266-21.0803C80.7266-20.3905 80.7266-19.707 80.6803-19.0235C83.7308-16.7714 86.3675-13.9838 88.4609-10.7836C85.6173-12.0719 82.5976-12.916 79.507-13.2877C82.7613-11.3002 85.1974-8.17242 86.3614-4.4903C83.2985-6.34239 79.9516-7.64955 76.4596-8.35196C70.5562-1.94841 60.6791-1.63973 54.3991-7.66215C50.3482-11.5459 48.6315-17.3352 49.8882-22.8599C37.3496-22.2205 25.6694-16.1792 17.753-6.24159C13.6156-13.5113 15.7275-22.8095 22.5788-27.4807C20.0964-27.4051 17.6696-26.7216 15.5021-25.49L15.5021-25.6916C15.5021-33.2637 20.7355-39.7838 28.0098-41.2831C25.7157-41.9225 23.3075-42.017 20.9702-41.5572C23.0141-48.0363 28.865-52.4744 35.5372-52.6035C30.0136-57.029 23.1932-59.4323 16.1721-59.426C14.9309-59.4228 13.6928-59.3472 12.4609-59.1961C19.5931-63.8641 27.8894-66.3398 36.3616-66.3272ZM62.3488-22.1478L60.8137-20.5817C60.3724-20.1315 60.3801-19.5207 60.8252-19.0666L62.5599-17.2969L60.8214-15.5234C60.3762-15.0693 60.3724-14.4624 60.8137-14.0122L62.3488-12.4461C62.7902-11.9959 63.385-11.9998 63.8302-12.454L65.5686-14.2275L67.3071-12.454C67.7523-11.9998 68.3471-11.9959 68.7885-12.4461L70.3236-14.0122C70.7649-14.4624 70.7611-15.0693 70.3159-15.5234L68.5774-17.2969L70.312-19.0666C70.7572-19.5207 70.7611-20.1275 70.3197-20.5778L68.7847-22.1439C68.3433-22.594 67.7485-22.5901 67.3033-22.136L65.5686-20.3664L63.8302-22.1399C63.385-22.594 62.7902-22.598 62.3488-22.1478Z"/>
  </g>
  <g id="Heavy-S" transform="matrix(1 0 0 1 2586.79 696)">
   <path class="monochrome-0 multicolor-0:systemMintColor SFSymbolsPreview00C7BE" d="M36.0471-65.7406C64.35-65.7406 79.8284-41.8845 79.8284-21.1995C79.8284-20.5207 79.8284-19.848 79.7827-19.1753C82.793-16.959 85.3951-14.2157 87.4609-11.0663C84.6547-12.3341 81.6748-13.1648 78.6248-13.5306C81.8363-11.5746 84.2403-8.49651 85.389-4.87284C82.3664-6.69553 79.0636-7.98195 75.6175-8.6732C69.7918-2.3713 60.0447-2.06752 53.8472-7.99435C49.8497-11.8164 48.1556-17.5138 49.3957-22.9509C37.0221-22.3216 25.4956-16.3762 17.6833-6.59633C13.6004-13.7507 15.6845-22.9013 22.4457-27.4983C19.9959-27.4239 17.6011-26.7513 15.4621-25.5392L15.4621-25.7376C15.4621-33.1896 20.6267-39.6061 27.8052-41.0817C25.5413-41.7109 23.1647-41.8039 20.8582-41.3513C22.8753-47.7276 28.6492-52.0953 35.2336-52.2224C29.7827-56.5776 23.052-58.9427 16.1233-58.9365C14.8984-58.9334 13.6766-58.859 12.4609-58.7102C19.4993-63.3042 27.6864-65.7406 36.0471-65.7282ZM61.6924-22.25L60.1775-20.7088C59.742-20.2657 59.7496-19.6647 60.1889-19.2177L61.9007-17.4762L60.1851-15.7308C59.7458-15.2839 59.742-14.6867 60.1775-14.2436L61.6924-12.7024C62.1279-12.2593 62.7149-12.2632 63.1543-12.7101L64.8699-14.4555L66.5855-12.7101C67.0248-12.2632 67.6118-12.2593 68.0474-12.7024L69.5622-14.2436C69.9977-14.6867 69.994-15.2839 69.5546-15.7308L67.839-17.4762L69.5508-19.2177C69.9902-19.6647 69.994-20.2619 69.5584-20.705L68.0436-22.2462C67.608-22.6892 67.021-22.6854 66.5817-22.2384L64.8699-20.4969L63.1543-22.2423C62.7149-22.6892 62.1279-22.6931 61.6924-22.25Z"/>
  </g>
  <g id="Bold-S" transform="matrix(1 0 0 1 2290.58 696)">
   <path class="monochrome-0 multicolor-0:systemMintColor SFSymbolsPreview00C7BE" d="M35.7326-66.0703C63.6581-66.0703 78.9301-42.599 78.9301-22.2476C78.9301-21.5797 78.9301-20.9179 78.885-20.2561C81.8553-18.0755 84.4226-15.3764 86.4609-12.2778C83.6921-13.5252 80.7519-14.3425 77.7426-14.7024C80.9113-12.778 83.2832-9.74951 84.4166-6.18428C81.4344-7.97757 78.1755-9.24324 74.7754-9.92334C69.0274-3.72309 59.4102-3.4242 53.2954-9.25544C49.3512-13.0158 47.6797-18.6214 48.9032-23.9708C36.6947-23.3516 25.3218-17.5021 17.6137-7.87997C13.5853-14.9189 15.6416-23.922 22.3125-28.4448C19.8955-28.3716 17.5325-27.7098 15.4221-26.5173L15.4221-26.7125C15.4221-34.0443 20.5178-40.3574 27.6006-41.8091C25.3669-42.4282 23.022-42.5197 20.7463-42.0744C22.7364-48.3479 28.4334-52.645 34.93-52.7701C29.5517-57.0551 22.9108-59.3821 16.0745-59.376C14.8659-59.3729 13.6604-59.2997 12.4609-59.1533C19.4054-63.6732 27.4834-66.0703 35.7326-66.0581ZM61.036-23.2812L59.5413-21.7648C59.1116-21.3289 59.119-20.7375 59.5525-20.2978L61.2415-18.5844L59.5488-16.8671C59.1153-16.4274 59.1116-15.8398 59.5413-15.4039L61.036-13.8875C61.4657-13.4516 62.0449-13.4554 62.4783-13.8951L64.1711-15.6124L65.8638-13.8951C66.2973-13.4554 66.8765-13.4516 67.3062-13.8875L68.8009-15.4039C69.2306-15.8398 69.2268-16.4274 68.7934-16.8671L67.1007-18.5844L68.7897-20.2978C69.2231-20.7375 69.2268-21.3251 68.7971-21.761L67.3025-23.2774C66.8727-23.7133 66.2935-23.7095 65.8601-23.2698L64.1711-21.5563L62.4783-23.2736C62.0449-23.7133 61.4657-23.7171 61.036-23.2812Z"/>
  </g>
  <g id="Semibold-S" transform="matrix(1 0 0 1 1994.37 696)">
   <path class="monochrome-0 multicolor-0:systemMintColor SFSymbolsPreview00C7BE" d="M35.4182-64.6082C62.9663-64.6082 78.0319-41.5217 78.0319-21.5039C78.0319-20.847 78.0319-20.196 77.9874-19.545C80.9175-17.4002 83.4502-14.7453 85.4609-11.6975C82.7295-12.9245 79.8291-13.7284 76.8605-14.0824C79.9863-12.1895 82.3262-9.2107 83.4442-5.70392C80.5023-7.46781 77.2875-8.71273 73.9333-9.38169C68.263-3.28307 58.7758-2.98909 52.7436-8.72473C48.8527-12.4235 47.2037-17.9371 48.4108-23.1988C36.3672-22.5899 25.148-16.8362 17.5441-7.37181C13.5701-14.2954 15.5986-23.1508 22.1794-27.5995C19.795-27.5275 17.464-26.8766 15.3821-25.7037L15.3821-25.8956C15.3821-33.1072 20.4089-39.3168 27.396-40.7447C25.1925-41.3537 22.8793-41.4437 20.6343-41.0057C22.5976-47.1763 28.2175-51.403 34.6263-51.526C29.3207-55.7408 22.7696-58.0296 16.0256-58.0236C14.8334-58.0206 13.6442-57.9486 12.4609-57.8046C19.3116-62.2503 27.2804-64.6082 35.4182-64.5962ZM60.3795-22.5205L58.9051-21.029C58.4812-20.6002 58.4885-20.0186 58.9161-19.5861L60.5823-17.9007L58.9124-16.2116C58.4848-15.7791 58.4812-15.2012 58.9051-14.7724L60.3795-13.2809C60.8035-12.8521 61.3748-12.8558 61.8024-13.2884L63.4723-14.9774L65.1421-13.2884C65.5697-12.8558 66.1411-12.8521 66.565-13.2809L68.0395-14.7724C68.4634-15.2012 68.4597-15.7791 68.0321-16.2116L66.3623-17.9007L68.0285-19.5861C68.4561-20.0186 68.4597-20.5965 68.0358-21.0253L66.5614-22.5168C66.1374-22.9456 65.5661-22.9418 65.1385-22.5093L63.4723-20.824L61.8024-22.513C61.3748-22.9456 60.8035-22.9493 60.3795-22.5205Z"/>
  </g>
  <g id="Medium-S" transform="matrix(1 0 0 1 1698.66 696)">
   <path class="monochrome-0 multicolor-0:systemMintColor SFSymbolsPreview00C7BE" d="M34.7892-64C61.5826-64 76.2354-41.683 76.2354-22.3325C76.2354-21.6975 76.2354-21.0682 76.1922-20.4389C79.042-18.3656 81.5053-15.7992 83.4609-12.853C80.8043-14.0391 77.9834-14.8162 75.0961-15.1584C78.1363-13.3286 80.4121-10.4491 81.4995-7.05919C78.6381-8.76429 75.5114-9.96771 72.2492-10.6144C66.7341-4.71904 57.5069-4.43486 51.64-9.97931C47.8556-13.5548 46.2519-18.8846 47.4258-23.9709C35.7122-23.3823 24.8004-17.8204 17.4048-8.67149C13.5397-15.3643 15.5126-23.9245 21.9131-28.225C19.5941-28.1554 17.3269-27.5261 15.3021-26.3923L15.3021-26.5779C15.3021-33.549 20.1911-39.5516 26.9868-40.932C24.8437-41.5206 22.5939-41.6076 20.4104-41.1842C22.3198-47.1492 27.7858-51.235 34.0191-51.3539C28.8588-55.4281 22.4871-57.6407 15.928-57.6349C14.7684-57.632 13.6118-57.5624 12.4609-57.4232C19.1239-61.7207 26.8743-64 34.7892-63.9884ZM59.0667-23.3152L57.6326-21.8735C57.2203-21.459 57.2275-20.8967 57.6434-20.4786L59.2639-18.8494L57.6398-17.2167C57.2239-16.7985 57.2203-16.2399 57.6326-15.8254L59.0667-14.3836C59.479-13.9691 60.0347-13.9727 60.4506-14.3908L62.0747-16.0236L63.6988-14.3908C64.1147-13.9727 64.6704-13.9691 65.0827-14.3836L66.5168-15.8254C66.9291-16.2399 66.9255-16.7985 66.5096-17.2167L64.8855-18.8494L66.5061-20.4786C66.9219-20.8967 66.9255-21.4554 66.5132-21.8699L65.0791-23.3116C64.6668-23.7261 64.1111-23.7225 63.6952-23.3044L62.0747-21.6752L60.4506-23.308C60.0347-23.7261 59.479-23.7297 59.0667-23.3152Z"/>
  </g>
  <g id="Regular-S" transform="matrix(1 0 0 1 1401.95 696)">
   <path class="monochrome-0 multicolor-0:systemMintColor SFSymbolsPreview00C7BE" d="M34.7892-63.8008C61.5826-63.8008 76.2354-41.4838 76.2354-22.1333C76.2354-21.4983 76.2354-20.869 76.1922-20.2397C79.042-18.1664 81.5053-15.6 83.4609-12.6538C80.8043-13.8399 77.9834-14.617 75.0961-14.9592C78.1363-13.1294 80.4121-10.2499 81.4995-6.85999C78.6381-8.56509 75.5114-9.76851 72.2492-10.4152C66.7341-4.51984 57.5069-4.23566 51.64-9.78011C47.8556-13.3556 46.2519-18.6854 47.4258-23.7717C35.7122-23.1831 24.8004-17.6212 17.4048-8.47229C13.5397-15.1651 15.5126-23.7253 21.9131-28.0258C19.5941-27.9562 17.3269-27.3269 15.3021-26.1931L15.3021-26.3787C15.3021-33.3498 20.1911-39.3524 26.9868-40.7328C24.8437-41.3214 22.5939-41.4084 20.4104-40.985C22.3198-46.95 27.7858-51.0358 34.0191-51.1547C28.8588-55.2289 22.4871-57.4415 15.928-57.4357C14.7684-57.4328 13.6118-57.3632 12.4609-57.224C19.1239-61.5215 26.8743-63.8008 34.7892-63.7892ZM59.0667-23.116L57.6326-21.6743C57.2203-21.2598 57.2275-20.6975 57.6434-20.2794L59.2639-18.6502L57.6398-17.0175C57.2239-16.5993 57.2203-16.0407 57.6326-15.6262L59.0667-14.1844C59.479-13.7699 60.0347-13.7735 60.4506-14.1916L62.0747-15.8244L63.6988-14.1916C64.1147-13.7735 64.6704-13.7699 65.0827-14.1844L66.5168-15.6262C66.9291-16.0407 66.9255-16.5993 66.5096-17.0175L64.8855-18.6502L66.5061-20.2794C66.9219-20.6975 66.9255-21.2562 66.5132-21.6707L65.0791-23.1124C64.6668-23.5269 64.1111-23.5233 63.6952-23.1052L62.0747-21.476L60.4506-23.1088C60.0347-23.5269 59.479-23.5305 59.0667-23.116Z"/>
  </g>
  <g id="Light-S" transform="matrix(1 0 0 1 1106.24 696)">
   <path class="monochrome-0 multicolor-0:systemMintColor SFSymbolsPreview00C7BE" d="M34.1602-63.1196C60.1989-63.1196 74.439-41.5722 74.439-22.8889C74.439-22.2758 74.439-21.6682 74.3969-21.0607C77.1664-19.0588 79.5604-16.5809 81.4609-13.7363C78.8792-14.8814 76.1377-15.6318 73.3317-15.9622C76.2863-14.1955 78.498-11.4153 79.5547-8.14227C76.774-9.78857 73.7354-10.9505 70.565-11.5749C65.2053-5.88281 56.238-5.60843 50.5363-10.9617C46.8586-14.4139 45.3-19.5599 46.4409-24.4708C35.0572-23.9025 24.4529-18.5324 17.2655-9.69897C13.5093-16.161 15.4267-24.426 21.6469-28.5782C19.3931-28.511 17.1898-27.9034 15.222-26.8087L15.222-26.9879C15.222-33.7187 19.9734-39.5143 26.5777-40.847C24.4949-41.4154 22.3084-41.4994 20.1864-41.0906C22.0421-46.8498 27.3541-50.7948 33.4118-50.9096C28.3969-54.8433 22.2047-56.9796 15.8303-56.974C14.7034-56.9712 13.5794-56.904 12.4609-56.7696C18.9362-60.9189 26.4683-63.1196 34.1602-63.1084ZM57.7539-23.8378L56.3602-22.4457C55.9595-22.0455 55.9665-21.5026 56.3706-21.0989L57.9455-19.5259L56.3672-17.9495C55.963-17.5458 55.9595-17.0064 56.3602-16.6062L57.7539-15.2141C58.1546-14.8139 58.6946-14.8174 59.0988-15.2211L60.6771-16.7976L62.2555-15.2211C62.6597-14.8174 63.1997-14.8139 63.6004-15.2141L64.9941-16.6062C65.3948-17.0064 65.3913-17.5458 64.9871-17.9495L63.4088-19.5259L64.9837-21.0989C65.3878-21.5026 65.3913-22.042 64.9906-22.4422L63.5969-23.8343C63.1962-24.2345 62.6562-24.231 62.252-23.8273L60.6771-22.2543L59.0988-23.8308C58.6946-24.2345 58.1546-24.238 57.7539-23.8378Z"/>
  </g>
  <g id="Thin-S" transform="matrix(1 0 0 1 810.027 696)">
   <path class="monochrome-0 multicolor-0:systemMintColor SFSymbolsPreview00C7BE" d="M33.8457-62.2188C59.507-62.2188 73.5407-41.0561 73.5407-22.7065C73.5407-22.1043 73.5407-21.5076 73.4993-20.9109C76.2287-18.9448 78.5879-16.5112 80.4609-13.7174C77.9166-14.842 75.2148-15.579 72.4495-15.9035C75.3612-14.1683 77.5409-11.4378 78.5824-8.22321C75.8419-9.84011 72.8473-10.9813 69.7229-11.5945C64.4409-6.0041 55.6035-5.73462 49.9845-10.9923C46.3601-14.3828 44.8241-19.437 45.9484-24.2602C34.7298-23.702 24.2791-18.4278 17.1959-9.75211C13.4941-16.0987 15.3837-24.2162 21.5138-28.2942C19.2927-28.2282 17.1213-27.6315 15.182-26.5563L15.182-26.7323C15.182-33.3429 19.8645-39.035 26.3731-40.3439C24.3205-40.9021 22.1657-40.9846 20.0745-40.5832C21.9033-46.2396 27.1383-50.1141 33.1081-50.2268C28.166-54.0903 22.0635-56.1884 15.7815-56.1829C14.6709-56.1802 13.5632-56.1142 12.4609-55.9822C18.8424-60.0574 26.2653-62.2188 33.8457-62.2078ZM57.0975-23.6384L55.724-22.2712C55.3291-21.8782 55.336-21.345 55.7343-20.9485L57.2863-19.4036L55.7308-17.8553C55.3325-17.4588 55.3291-16.929 55.724-16.536L57.0975-15.1688C57.4923-14.7757 58.0246-14.7791 58.4229-15.1756L59.9784-16.7239L61.5338-15.1756C61.9322-14.7791 62.4644-14.7757 62.8593-15.1688L64.2328-16.536C64.6276-16.929 64.6242-17.4588 64.2259-17.8553L62.6704-19.4036L64.2225-20.9485C64.6208-21.345 64.6242-21.8748 64.2293-22.2678L62.8558-23.635C62.4609-24.0281 61.9287-24.0246 61.5304-23.6282L59.9784-22.0833L58.4229-23.6316C58.0246-24.0281 57.4923-24.0315 57.0975-23.6384Z"/>
  </g>
  <g id="Ultralight-S" transform="matrix(1 0 0 1 513.816 696)">
   <path class="monochrome-0 multicolor-0:systemMintColor SFSymbolsPreview00C7BE" d="M33.5313-62C58.8152-62 72.6425-41.2221 72.6425-23.2061C72.6425-22.6149 72.6425-22.029 72.6017-21.4432C75.2909-19.5128 77.6154-17.1234 79.4609-14.3804C76.954-15.4846 74.292-16.2082 71.5673-16.5268C74.4362-14.8232 76.5838-12.1422 77.61-8.98615C74.9099-10.5736 71.9593-11.6941 68.8808-12.2961C63.6765-6.80738 54.9691-6.5428 49.4327-11.7049C45.8616-15.0338 44.3482-19.9961 45.456-24.7316C34.4023-24.1835 24.1053-19.0052 17.1263-10.4873C13.4789-16.7185 15.3407-24.6884 21.3806-28.6922C19.1922-28.6274 17.0528-28.0415 15.142-26.9859L15.142-27.1587C15.142-33.6491 19.7556-39.2377 26.1685-40.5229C24.1461-41.0709 22.023-41.1519 19.9625-40.7577C21.7644-46.3113 26.9224-50.1154 32.8045-50.226C27.935-54.0193 21.9223-56.0793 15.7326-56.0739C14.6384-56.0712 13.5469-56.0064 12.4609-55.8768C18.7485-59.8779 26.0623-62 33.5313-61.9892ZM56.441-24.1211L55.0877-22.7788C54.6987-22.3928 54.7054-21.8693 55.0979-21.4801L56.6271-19.9633L55.0945-18.4431C54.7021-18.0538 54.6987-17.5337 55.0877-17.1477L56.441-15.8054C56.8301-15.4195 57.3545-15.4229 57.747-15.8122L59.2796-17.3323L60.8122-15.8122C61.2046-15.4229 61.729-15.4195 62.1181-15.8054L63.4714-17.1477C63.8605-17.5337 63.8571-18.0538 63.4646-18.4431L61.932-19.9633L63.4613-21.4801C63.8537-21.8693 63.8571-22.3895 63.468-22.7754L62.1147-24.1177C61.7257-24.5036 61.2013-24.5003 60.8088-24.111L59.2796-22.5942L57.747-24.1144C57.3545-24.5036 56.8301-24.507 56.441-24.1211Z"/>
  </g>
 </g>
</svg>
