<?xml version="1.0" encoding="UTF-8"?>
<svg width="3300px" height="2200px" viewBox="0 0 3300 2200" version="1.1" xmlns="http://www.w3.org/2000/svg" xmlns:xlink="http://www.w3.org/1999/xlink">
    <title>linkedin</title>
    <g id="linkedin" stroke="none" fill="none" fill-rule="evenodd" stroke-width="1">
        <g id="Group">
            <g id="Notes">
                <rect id="artboard" fill="#FFFFFF" x="0" y="0" width="3300" height="2200"></rect>
                <line x1="263" y1="292" x2="3036" y2="292" id="Path" stroke="#000000" stroke-width="0.5"></line>
                <text id="Weight/Scale-Variations" fill="#000000" fill-rule="nonzero" font-family="Helvetica" font-size="13" font-weight="normal">
                    <tspan x="263" y="322">Weight/Scale Variations</tspan>
                </text>
                <text id="Ultralight" fill="#000000" fill-rule="nonzero" font-family="Helvetica" font-size="13" font-weight="normal">
                    <tspan x="533.711" y="322">Ultralight</tspan>
                </text>
                <text id="Thin" fill="#000000" fill-rule="nonzero" font-family="Helvetica" font-size="13" font-weight="normal">
                    <tspan x="843.422" y="322">Thin</tspan>
                </text>
                <text id="Light" fill="#000000" fill-rule="nonzero" font-family="Helvetica" font-size="13" font-weight="normal">
                    <tspan x="1138.63" y="322">Light</tspan>
                </text>
                <text id="Regular" fill="#000000" fill-rule="nonzero" font-family="Helvetica" font-size="13" font-weight="normal">
                    <tspan x="1426.84" y="322">Regular</tspan>
                </text>
                <text id="Medium" fill="#000000" fill-rule="nonzero" font-family="Helvetica" font-size="13" font-weight="normal">
                    <tspan x="1723.06" y="322">Medium</tspan>
                </text>
                <text id="Semibold" fill="#000000" fill-rule="nonzero" font-family="Helvetica" font-size="13" font-weight="normal">
                    <tspan x="2015.77" y="322">Semibold</tspan>
                </text>
                <text id="Bold" fill="#000000" fill-rule="nonzero" font-family="Helvetica" font-size="13" font-weight="normal">
                    <tspan x="2326.48" y="322">Bold</tspan>
                </text>
                <text id="Heavy" fill="#000000" fill-rule="nonzero" font-family="Helvetica" font-size="13" font-weight="normal">
                    <tspan x="2618.19" y="322">Heavy</tspan>
                </text>
                <text id="Black" fill="#000000" fill-rule="nonzero" font-family="Helvetica" font-size="13" font-weight="normal">
                    <tspan x="2917.4" y="322">Black</tspan>
                </text>
                <line x1="263" y1="1903" x2="3036" y2="1903" id="Path" stroke="#000000" stroke-width="0.5"></line>
                <g id="Group" transform="translate(263, 1933)" fill="#000000" fill-rule="nonzero">
                    <path d="M9.24805,0.830078 C13.5547,0.830078 17.1387,-2.74414 17.1387,-7.05078 C17.1387,-11.3574 13.5449,-14.9316 9.23828,-14.9316 C4.94141,-14.9316 1.36719,-11.3574 1.36719,-7.05078 C1.36719,-2.74414 4.95117,0.830078 9.24805,0.830078 Z M9.24805,-0.654297 C5.70312,-0.654297 2.87109,-3.49609 2.87109,-7.05078 C2.87109,-10.6055 5.69336,-13.4473 9.23828,-13.4473 C12.793,-13.4473 15.6445,-10.6055 15.6445,-7.05078 C15.6445,-3.49609 12.8027,-0.654297 9.24805,-0.654297 Z M5.6543,-7.05078 C5.6543,-6.62109 5.95703,-6.32812 6.40625,-6.32812 L8.50586,-6.32812 L8.50586,-4.20898 C8.50586,-3.76953 8.79883,-3.4668 9.22852,-3.4668 C9.67773,-3.4668 9.9707,-3.76953 9.9707,-4.20898 L9.9707,-6.32812 L12.0898,-6.32812 C12.5293,-6.32812 12.832,-6.62109 12.832,-7.05078 C12.832,-7.49023 12.5293,-7.79297 12.0898,-7.79297 L9.9707,-7.79297 L9.9707,-9.90234 C9.9707,-10.3516 9.67773,-10.6543 9.22852,-10.6543 C8.79883,-10.6543 8.50586,-10.3516 8.50586,-9.90234 L8.50586,-7.79297 L6.40625,-7.79297 C5.95703,-7.79297 5.6543,-7.49023 5.6543,-7.05078 Z" id="Shape"></path>
                </g>
                <g id="Group" transform="translate(281.867, 1933)" fill="#000000" fill-rule="nonzero">
                    <path d="M11.709,2.91016 C17.1582,2.91016 21.6699,-1.61133 21.6699,-7.05078 C21.6699,-12.5 17.1484,-17.0117 11.6992,-17.0117 C6.25977,-17.0117 1.74805,-12.5 1.74805,-7.05078 C1.74805,-1.61133 6.26953,2.91016 11.709,2.91016 Z M11.709,1.25 C7.09961,1.25 3.41797,-2.44141 3.41797,-7.05078 C3.41797,-11.6602 7.08984,-15.3516 11.6992,-15.3516 C16.3086,-15.3516 20.0098,-11.6602 20.0098,-7.05078 C20.0098,-2.44141 16.3184,1.25 11.709,1.25 Z M7.17773,-7.05078 C7.17773,-6.57227 7.50977,-6.25 8.00781,-6.25 L10.8789,-6.25 L10.8789,-3.36914 C10.8789,-2.88086 11.2109,-2.53906 11.6895,-2.53906 C12.1777,-2.53906 12.5195,-2.87109 12.5195,-3.36914 L12.5195,-6.25 L15.4004,-6.25 C15.8887,-6.25 16.2305,-6.57227 16.2305,-7.05078 C16.2305,-7.53906 15.8887,-7.88086 15.4004,-7.88086 L12.5195,-7.88086 L12.5195,-10.752 C12.5195,-11.25 12.1777,-11.5918 11.6895,-11.5918 C11.2109,-11.5918 10.8789,-11.25 10.8789,-10.752 L10.8789,-7.88086 L8.00781,-7.88086 C7.50977,-7.88086 7.17773,-7.53906 7.17773,-7.05078 Z" id="Shape"></path>
                </g>
                <g id="Group" transform="translate(305.646, 1933)" fill="#000000" fill-rule="nonzero">
                    <path d="M14.9707,5.66406 C21.9336,5.66406 27.6953,-0.0976562 27.6953,-7.05078 C27.6953,-14.0137 21.9238,-19.7754 14.9609,-19.7754 C8.00781,-19.7754 2.25586,-14.0137 2.25586,-7.05078 C2.25586,-0.0976562 8.01758,5.66406 14.9707,5.66406 Z M14.9707,3.84766 C8.93555,3.84766 4.08203,-1.01562 4.08203,-7.05078 C4.08203,-13.0957 8.92578,-17.9492 14.9609,-17.9492 C21.0059,-17.9492 25.8691,-13.0957 25.8691,-7.05078 C25.8691,-1.01562 21.0156,3.84766 14.9707,3.84766 Z M9.19922,-7.05078 C9.19922,-6.5332 9.57031,-6.17188 10.1172,-6.17188 L14.0625,-6.17188 L14.0625,-2.2168 C14.0625,-1.67969 14.4336,-1.29883 14.9512,-1.29883 C15.4883,-1.29883 15.8594,-1.66992 15.8594,-2.2168 L15.8594,-6.17188 L19.8145,-6.17188 C20.3516,-6.17188 20.7324,-6.5332 20.7324,-7.05078 C20.7324,-7.59766 20.3613,-7.96875 19.8145,-7.96875 L15.8594,-7.96875 L15.8594,-11.9141 C15.8594,-12.4609 15.4883,-12.8418 14.9512,-12.8418 C14.4336,-12.8418 14.0625,-12.4609 14.0625,-11.9141 L14.0625,-7.96875 L10.1172,-7.96875 C9.57031,-7.96875 9.19922,-7.59766 9.19922,-7.05078 Z" id="Shape"></path>
                </g>
                <text id="Design-Variations" fill="#000000" fill-rule="nonzero" font-family="Helvetica" font-size="13" font-weight="normal">
                    <tspan x="263" y="1953">Design Variations</tspan>
                </text>
                <text id="Symbols-are-supported-in-up-to-nine-weights-and-three-scales." fill="#000000" fill-rule="nonzero" font-family="Helvetica" font-size="13" font-weight="normal">
                    <tspan x="263" y="1971">Symbols are supported in up to nine weights and three scales.</tspan>
                </text>
                <text id="For-optimal-layout-with-text-and-other-symbols,-vertically-align" fill="#000000" fill-rule="nonzero" font-family="Helvetica" font-size="13" font-weight="normal">
                    <tspan x="263" y="1989">For optimal layout with text and other symbols, vertically align</tspan>
                </text>
                <text id="symbols-with-the-adjacent-text." fill="#000000" fill-rule="nonzero" font-family="Helvetica" font-size="13" font-weight="normal">
                    <tspan x="263" y="2007">symbols with the adjacent text.</tspan>
                </text>
                <line x1="776" y1="1919" x2="776" y2="1933" id="Path" stroke="#00AEEF" stroke-width="0.5"></line>
                <g id="Group" transform="translate(776, 1933)" fill="#000000" fill-rule="nonzero">
                    <path d="M3.31055,0.15625 C3.82812,0.15625 4.08203,-0.0390625 4.26758,-0.585938 L5.52734,-4.0332 L11.2891,-4.0332 L12.5488,-0.585938 C12.7344,-0.0390625 12.9883,0.15625 13.4961,0.15625 C14.0137,0.15625 14.3457,-0.15625 14.3457,-0.644531 C14.3457,-0.810547 14.3164,-0.966797 14.2383,-1.17188 L9.6582,-13.3691 C9.43359,-13.9648 9.0332,-14.2676 8.4082,-14.2676 C7.80273,-14.2676 7.39258,-13.9746 7.17773,-13.3789 L2.59766,-1.16211 C2.51953,-0.957031 2.49023,-0.800781 2.49023,-0.634766 C2.49023,-0.146484 2.80273,0.15625 3.31055,0.15625 Z M6.00586,-5.51758 L8.37891,-12.0898 L8.42773,-12.0898 L10.8008,-5.51758 L6.00586,-5.51758 Z" id="Shape"></path>
                </g>
                <line x1="793.197" y1="1919" x2="793.197" y2="1933" id="Path" stroke="#00AEEF" stroke-width="0.5"></line>
                <text id="Margins" fill="#000000" fill-rule="nonzero" font-family="Helvetica" font-size="13" font-weight="normal">
                    <tspan x="776" y="1953">Margins</tspan>
                </text>
                <text id="Leading-and-trailing-margins-on-the-left-and-right-side-of-each-symbol" fill="#000000" fill-rule="nonzero" font-family="Helvetica" font-size="13" font-weight="normal">
                    <tspan x="776" y="1971">Leading and trailing margins on the left and right side of each symbol</tspan>
                </text>
                <text id="can-be-adjusted-by-modifying-the-x-location-of-the-margin-guidelines." fill="#000000" fill-rule="nonzero" font-family="Helvetica" font-size="13" font-weight="normal">
                    <tspan x="776" y="1989">can be adjusted by modifying the x-location of the margin guidelines.</tspan>
                </text>
                <text id="Modifications-are-automatically-applied-proportionally-to-all" fill="#000000" fill-rule="nonzero" font-family="Helvetica" font-size="13" font-weight="normal">
                    <tspan x="776" y="2007">Modifications are automatically applied proportionally to all</tspan>
                </text>
                <text id="scales-and-weights." fill="#000000" fill-rule="nonzero" font-family="Helvetica" font-size="13" font-weight="normal">
                    <tspan x="776" y="2025">scales and weights.</tspan>
                </text>
                <g id="Group" transform="translate(1289, 1933)" fill="#000000" fill-rule="nonzero">
                    <path d="M2.8418,1.86523 L4.54102,3.57422 C5.40039,4.44336 6.38672,4.38477 7.31445,3.35938 L18.0078,-8.42773 L17.041,-9.4043 L6.42578,2.27539 C6.07422,2.67578 5.74219,2.77344 5.27344,2.30469 L4.10156,1.14258 C3.63281,0.683594 3.74023,0.341797 4.14062,-0.0195312 L15.6152,-10.8203 L14.6387,-11.7871 L3.04688,-0.898438 C2.06055,0.0195312 1.98242,0.996094 2.8418,1.86523 Z M9.25781,-16.3281 C8.83789,-15.918 8.80859,-15.3418 9.04297,-14.9512 C9.27734,-14.5898 9.73633,-14.3555 10.3809,-14.5215 C11.8457,-14.8633 13.3691,-14.9219 14.7949,-13.9844 L14.209,-12.5293 C13.8672,-11.6992 14.043,-11.1133 14.5801,-10.5664 L16.875,-8.25195 C17.3633,-7.76367 17.7734,-7.74414 18.3398,-7.8418 L19.4043,-8.03711 L20.0684,-7.36328 L20.0293,-6.80664 C19.9902,-6.30859 20.1172,-5.92773 20.6055,-5.44922 L21.3672,-4.70703 C21.8457,-4.22852 22.4609,-4.19922 22.9297,-4.66797 L25.8398,-7.58789 C26.3086,-8.05664 26.2891,-8.65234 25.8105,-9.13086 L25.0391,-9.89258 C24.5605,-10.3711 24.1895,-10.5273 23.7109,-10.4883 L23.1348,-10.4395 L22.4902,-11.0742 L22.7344,-12.1973 C22.8613,-12.7637 22.7051,-13.2031 22.1191,-13.7891 L19.9219,-15.9766 C16.582,-19.2969 12.1484,-19.2188 9.25781,-16.3281 Z M10.752,-15.957 C13.1836,-17.7344 16.4746,-17.4316 18.7012,-15.2051 L21.1328,-12.793 C21.3672,-12.5586 21.4062,-12.373 21.3379,-12.0312 L21.0156,-10.5469 L22.5195,-9.0625 L23.5059,-9.12109 C23.7598,-9.13086 23.8379,-9.11133 24.0332,-8.91602 L24.6094,-8.33984 L22.168,-5.89844 L21.5918,-6.47461 C21.3965,-6.66992 21.3672,-6.74805 21.377,-7.01172 L21.4453,-7.98828 L19.9512,-9.47266 L18.4277,-9.21875 C18.1055,-9.15039 17.959,-9.17969 17.7148,-9.41406 L15.7129,-11.416 C15.459,-11.6504 15.4297,-11.8164 15.5859,-12.1875 L16.4648,-14.2773 C14.9023,-15.7324 12.8711,-16.3574 10.8398,-15.7617 C10.6836,-15.7227 10.625,-15.8496 10.752,-15.957 Z" id="Shape"></path>
                </g>
                <text id="Exporting" fill="#000000" fill-rule="nonzero" font-family="Helvetica" font-size="13" font-weight="normal">
                    <tspan x="1289" y="1953">Exporting</tspan>
                </text>
                <text id="Symbols-should-be-outlined-when-exporting-to-ensure-the" fill="#000000" fill-rule="nonzero" font-family="Helvetica" font-size="13" font-weight="normal">
                    <tspan x="1289" y="1971">Symbols should be outlined when exporting to ensure the</tspan>
                </text>
                <text id="design-is-preserved-when-submitting-to-Xcode." fill="#000000" fill-rule="nonzero" font-family="Helvetica" font-size="13" font-weight="normal">
                    <tspan x="1289" y="1989">design is preserved when submitting to Xcode.</tspan>
                </text>
                <text id="template-version" fill="#000000" fill-rule="nonzero" font-family="Helvetica" font-size="13" font-weight="normal">
                    <tspan x="2952" y="1933">Template v.4.0</tspan>
                </text>
                <text id="Requires-Xcode-14-or-greater" fill="#000000" fill-rule="nonzero" font-family="Helvetica" font-size="13" font-weight="normal">
                    <tspan x="2865" y="1951">Requires Xcode 14 or greater</tspan>
                </text>
                <text id="descriptive-name" fill="#000000" fill-rule="nonzero" font-family="Helvetica" font-size="13" font-weight="normal">
                    <tspan x="2897" y="1969">Generated from linkedin</tspan>
                </text>
                <text id="Typeset-at-100-points" fill="#000000" fill-rule="nonzero" font-family="Helvetica" font-size="13" font-weight="normal">
                    <tspan x="2912" y="1987">Typeset at 100 points</tspan>
                </text>
                <text id="Small" fill="#000000" fill-rule="nonzero" font-family="Helvetica" font-size="13" font-weight="normal">
                    <tspan x="263" y="726">Small</tspan>
                </text>
                <text id="Medium" fill="#000000" fill-rule="nonzero" font-family="Helvetica" font-size="13" font-weight="normal">
                    <tspan x="263" y="1156">Medium</tspan>
                </text>
                <text id="Large" fill="#000000" fill-rule="nonzero" font-family="Helvetica" font-size="13" font-weight="normal">
                    <tspan x="263" y="1586">Large</tspan>
                </text>
            </g>
            <g id="Guides">
                <g id="H-reference" transform="translate(339, 696)" fill="#27AAE1" fill-rule="nonzero">
                    <path d="M0.993654,0 L3.63775,0 L29.3281,-67.1323 L30.0303,-67.1323 L30.0303,-70.459 L28.1226,-70.459 L0.993654,0 Z M11.6885,-24.4799 L46.9815,-24.4799 L46.2315,-26.7285 L12.4385,-26.7285 L11.6885,-24.4799 Z M55.1196,0 L57.7637,0 L30.6382,-70.459 L29.4326,-70.459 L29.4326,-67.1323 L55.1196,0 Z" id="Shape"></path>
                </g>
                <line x1="263" y1="696" x2="3036" y2="696" id="Baseline-S" stroke="#27AAE1" stroke-width="0.5"></line>
                <line x1="263" y1="625.541" x2="3036" y2="625.541" id="Capline-S" stroke="#27AAE1" stroke-width="0.5"></line>
                <g id="H-reference" transform="translate(339, 1126)" fill="#27AAE1" fill-rule="nonzero">
                    <path d="M0.993654,0 L3.63775,0 L29.3281,-67.1323 L30.0303,-67.1323 L30.0303,-70.459 L28.1226,-70.459 L0.993654,0 Z M11.6885,-24.4799 L46.9815,-24.4799 L46.2315,-26.7285 L12.4385,-26.7285 L11.6885,-24.4799 Z M55.1196,0 L57.7637,0 L30.6382,-70.459 L29.4326,-70.459 L29.4326,-67.1323 L55.1196,0 Z" id="Shape"></path>
                </g>
                <line x1="263" y1="1126" x2="3036" y2="1126" id="Baseline-M" stroke="#27AAE1" stroke-width="0.5"></line>
                <line x1="263" y1="1055.54" x2="3036" y2="1055.54" id="Capline-M" stroke="#27AAE1" stroke-width="0.5"></line>
                <g id="H-reference" transform="translate(339, 1556)" fill="#27AAE1" fill-rule="nonzero">
                    <path d="M0.993654,0 L3.63775,0 L29.3281,-67.1323 L30.0303,-67.1323 L30.0303,-70.459 L28.1226,-70.459 L0.993654,0 Z M11.6885,-24.4799 L46.9815,-24.4799 L46.2315,-26.7285 L12.4385,-26.7285 L11.6885,-24.4799 Z M55.1196,0 L57.7637,0 L30.6382,-70.459 L29.4326,-70.459 L29.4326,-67.1323 L55.1196,0 Z" id="Shape"></path>
                </g>
                <line x1="263" y1="1556" x2="3036" y2="1556" id="Baseline-L" stroke="#27AAE1" stroke-width="0.5"></line>
                <line x1="263" y1="1485.54" x2="3036" y2="1485.54" id="Capline-L" stroke="#27AAE1" stroke-width="0.5"></line>
                <line x1="1392.45" y1="1030.79" x2="1392.45" y2="1150.12" id="left-margin-Regular-M" stroke="#00AEEF" stroke-width="0.5"></line>
                <line x1="1507.24" y1="1030.79" x2="1507.24" y2="1150.12" id="right-margin-Regular-M" stroke="#00AEEF" stroke-width="0.5"></line>
            </g>
            <g id="Symbols" fill="#0077B5">
                <g id="Regular-M" transform="translate(1392.45, 1126)">
                    <path d="M31.2109,-80.1437 L83.7109,-80.1437 C94.0684,-80.1437 102.461,-71.7475 102.461,-61.3937 L102.461,-8.8937 C102.461,1.46005 94.0684,9.8563 83.7109,9.8563 L31.2109,9.8563 C20.8571,9.8563 12.4609,1.46005 12.4609,-8.8937 L12.4609,-61.3937 C12.4609,-71.7475 20.8571,-80.1437 31.2109,-80.1437 Z M42.4609,-50.1437 L31.2109,-50.1437 L31.2109,-8.8937 L42.4609,-8.8937 L42.4609,-50.1437 Z M87.4609,-34.24 C87.4609,-53.9387 66.4459,-53.2224 61.2109,-43.5249 L61.2109,-50.1437 L49.9609,-50.1437 L49.9609,-8.8937 L61.2109,-8.8937 L61.2109,-29.9087 C61.2109,-41.5825 76.2109,-42.5387 76.2109,-29.9087 L76.2109,-8.8937 L87.4609,-8.8937 Z M36.8359,-68.1287 C33.2134,-68.1287 30.2734,-65.1662 30.2734,-61.5137 C30.2734,-57.8612 33.2134,-54.8987 36.8359,-54.8987 C40.4621,-54.8987 43.3984,-57.8612 43.3984,-61.5137 C43.3984,-65.1662 40.4584,-68.1287 36.8359,-68.1287 Z" id="Path-5"></path>
                </g>
                <g id="Black-S" transform="translate(2883.01, 696)">
                    <path d="M28.2942,-73.3398 L72.6276,-73.3398 C81.3739,-73.3398 88.4609,-66.2496 88.4609,-57.5065 L88.4609,-13.1731 C88.4609,-4.42997 81.3739,2.6602 72.6276,2.6602 L28.2942,2.6602 C19.5511,2.6602 12.4609,-4.42997 12.4609,-13.1731 L12.4609,-57.5065 C12.4609,-66.2496 19.5511,-73.3398 28.2942,-73.3398 Z M37.7942,-48.0065 L28.2942,-48.0065 L28.2942,-13.1731 L37.7942,-13.1731 L37.7942,-48.0065 Z M53.6276,-48.0065 L44.1276,-48.0065 L44.1276,-13.1731 L53.6276,-13.1731 L53.6276,-30.9191 C53.6276,-40.777 66.2942,-41.5845 66.2942,-30.9191 L66.2942,-13.1731 L75.7942,-13.1731 L75.7942,-34.5766 C75.7942,-51.2111 58.0482,-50.6063 53.6276,-42.4173 L53.6276,-48.0065 Z M33.0442,-63.1938 C29.9852,-63.1938 27.5026,-60.6921 27.5026,-57.6078 C27.5026,-54.5235 29.9852,-52.0218 33.0442,-52.0218 C36.1064,-52.0218 38.5859,-54.5235 38.5859,-57.6078 C38.5859,-60.6921 36.1032,-63.1938 33.0442,-63.1938 Z" id="Path-4"></path>
                </g>
                <g id="Regular-S" transform="translate(1401.45, 696)">
                    <path d="M27.4609,-70.8008 L69.4609,-70.8008 C77.7469,-70.8008 84.4609,-64.0838 84.4609,-55.8008 L84.4609,-13.8008 C84.4609,-5.5178 77.7469,1.1992 69.4609,1.1992 L27.4609,1.1992 C19.1779,1.1992 12.4609,-5.5178 12.4609,-13.8008 L12.4609,-55.8008 C12.4609,-64.0838 19.1779,-70.8008 27.4609,-70.8008 Z M36.4609,-46.8008 L27.4609,-46.8008 L27.4609,-13.8008 L36.4609,-13.8008 L36.4609,-46.8008 Z M72.4609,-34.0778 C72.4609,-49.8368 55.6489,-49.2638 51.4609,-41.5058 L51.4609,-46.8008 L42.4609,-46.8008 L42.4609,-13.8008 L51.4609,-13.8008 L51.4609,-30.6128 C51.4609,-39.9518 63.4609,-40.7168 63.4609,-30.6128 L63.4609,-13.8008 L72.4609,-13.8008 Z M31.9609,-61.1888 C29.0629,-61.1888 26.7109,-58.8188 26.7109,-55.8968 C26.7109,-52.9748 29.0629,-50.6048 31.9609,-50.6048 C34.8619,-50.6048 37.2109,-52.9748 37.2109,-55.8968 C37.2109,-58.8188 34.8589,-61.1888 31.9609,-61.1888 Z" id="Path-3"></path>
                </g>
                <g id="Ultralight-S" transform="translate(513.316, 696)">
                    <path d="M26.6276,-69 L66.2942,-69 C74.1199,-69 80.4609,-62.6562 80.4609,-54.8333 L80.4609,-15.1667 C80.4609,-7.34383 74.1199,-1 66.2942,-1 L26.6276,-1 C18.8047,-1 12.4609,-7.34383 12.4609,-15.1667 L12.4609,-54.8333 C12.4609,-62.6562 18.8047,-69 26.6276,-69 Z M35.1276,-46.3333 L26.6276,-46.3333 L26.6276,-15.1667 L35.1276,-15.1667 L35.1276,-46.3333 Z M49.2942,-46.3333 L40.7942,-46.3333 L40.7942,-15.1667 L49.2942,-15.1667 L49.2942,-31.0447 C49.2942,-39.8648 60.6276,-40.5873 60.6276,-31.0447 L60.6276,-15.1667 L69.1276,-15.1667 L69.1276,-34.3172 C69.1276,-49.2007 53.2496,-48.6595 49.2942,-41.3325 L49.2942,-46.3333 Z M30.8776,-59.922 C28.1406,-59.922 25.9192,-57.6837 25.9192,-54.924 C25.9192,-52.1643 28.1406,-49.926 30.8776,-49.926 C33.6174,-49.926 35.8359,-52.1643 35.8359,-54.924 C35.8359,-57.6837 33.6146,-59.922 30.8776,-59.922 Z" id="Path-2"></path>
                </g>
            </g>
        </g>
    </g>
</svg>