<?xml version="1.0" encoding="UTF-8"?>
<!--Generator: Apple Native CoreSVG 341-->
<!DOCTYPE svg
PUBLIC "-//W3C//DTD SVG 1.1//EN"
       "http://www.w3.org/Graphics/SVG/1.1/DTD/svg11.dtd">
<svg version="1.1" xmlns="http://www.w3.org/2000/svg" xmlns:xlink="http://www.w3.org/1999/xlink" viewBox="0 0 3300 2200">
 <!--glyph: "", point size: 100.0, font version: "21.1d1e1", template writer version: "138.0.0"-->
 <style>.defaults {-sfsymbols-variable-value-mode:color;-sfsymbols-draw-reverses-motion-groups:true}

.monochrome-0 {-sfsymbols-motion-group:0;-sfsymbols-layer-tags:43c8e31745454c76}

.multicolor-0:tintColor {-sfsymbols-motion-group:0;-sfsymbols-layer-tags:43c8e31745454c76}

.hierarchical-0:primary {-sfsymbols-motion-group:0;-sfsymbols-layer-tags:43c8e31745454c76}

.SFSymbolsPreviewWireframe {fill:none;opacity:1.0;stroke:black;stroke-width:0.5}
</style>
 <g id="Notes">
  <rect height="2200" id="artboard" style="fill:white;opacity:1" width="3300" x="0" y="0"/>
  <line style="fill:none;stroke:black;opacity:1;stroke-width:0.5;" x1="263" x2="3036" y1="292" y2="292"/>
  <text style="stroke:none;fill:black;font-family:sans-serif;font-size:13;font-weight:bold;" transform="matrix(1 0 0 1 263 322)">Weight/Scale Variations</text>
  <text style="stroke:none;fill:black;font-family:sans-serif;font-size:13;text-anchor:middle;" transform="matrix(1 0 0 1 559.711 322)">Ultralight</text>
  <text style="stroke:none;fill:black;font-family:sans-serif;font-size:13;text-anchor:middle;" transform="matrix(1 0 0 1 856.422 322)">Thin</text>
  <text style="stroke:none;fill:black;font-family:sans-serif;font-size:13;text-anchor:middle;" transform="matrix(1 0 0 1 1153.13 322)">Light</text>
  <text style="stroke:none;fill:black;font-family:sans-serif;font-size:13;text-anchor:middle;" transform="matrix(1 0 0 1 1449.84 322)">Regular</text>
  <text style="stroke:none;fill:black;font-family:sans-serif;font-size:13;text-anchor:middle;" transform="matrix(1 0 0 1 1746.56 322)">Medium</text>
  <text style="stroke:none;fill:black;font-family:sans-serif;font-size:13;text-anchor:middle;" transform="matrix(1 0 0 1 2043.27 322)">Semibold</text>
  <text style="stroke:none;fill:black;font-family:sans-serif;font-size:13;text-anchor:middle;" transform="matrix(1 0 0 1 2339.98 322)">Bold</text>
  <text style="stroke:none;fill:black;font-family:sans-serif;font-size:13;text-anchor:middle;" transform="matrix(1 0 0 1 2636.69 322)">Heavy</text>
  <text style="stroke:none;fill:black;font-family:sans-serif;font-size:13;text-anchor:middle;" transform="matrix(1 0 0 1 2933.4 322)">Black</text>
  <line style="fill:none;stroke:black;opacity:1;stroke-width:0.5;" x1="263" x2="3036" y1="1903" y2="1903"/>
  <g transform="matrix(0.2 0 0 0.2 263 1933)">
   <path d="m46.2402 4.15039c21.7773 0 39.4531-17.627 39.4531-39.4043s-17.6758-39.4043-39.4531-39.4043c-21.7285 0-39.4043 17.627-39.4043 39.4043s17.6758 39.4043 39.4043 39.4043Zm0-7.42188c-17.6758 0-31.9336-14.3066-31.9336-31.9824s14.2578-31.9824 31.9336-31.9824 31.9824 14.3066 31.9824 31.9824-14.3066 31.9824-31.9824 31.9824Zm3.61328-17.7734v-28.4668c0-2.24609-1.46484-3.75977-3.71094-3.75977-2.14844 0-3.61328 1.51367-3.61328 3.75977v28.4668c0 2.19727 1.46484 3.71094 3.61328 3.71094 2.24609 0 3.71094-1.51367 3.71094-3.71094Zm-17.8223-10.5957h28.418c2.19727 0 3.71094-1.46484 3.71094-3.61328 0-2.19727-1.51367-3.71094-3.71094-3.71094h-28.418c-2.24609 0-3.75977 1.51367-3.75977 3.71094 0 2.14844 1.51367 3.61328 3.75977 3.61328Z"/>
  </g>
  <g transform="matrix(0.2 0 0 0.2 281.506 1933)">
   <path d="m58.5449 14.5508c27.4902 0 49.8047-22.3145 49.8047-49.8047s-22.3145-49.8047-49.8047-49.8047-49.8047 22.3145-49.8047 49.8047 22.3145 49.8047 49.8047 49.8047Zm0-8.30078c-22.9492 0-41.5039-18.5547-41.5039-41.5039s18.5547-41.5039 41.5039-41.5039 41.5039 18.5547 41.5039 41.5039-18.5547 41.5039-41.5039 41.5039Zm4.05273-23.0957v-36.9141c0-2.49023-1.70898-4.19922-4.15039-4.19922-2.39258 0-4.05273 1.70898-4.05273 4.19922v36.9141c0 2.44141 1.66016 4.15039 4.05273 4.15039 2.44141 0 4.15039-1.66016 4.15039-4.15039Zm-22.5586-14.4043h36.9629c2.44141 0 4.15039-1.61133 4.15039-4.00391 0-2.44141-1.70898-4.15039-4.15039-4.15039h-36.9629c-2.49023 0-4.15039 1.70898-4.15039 4.15039 0 2.39258 1.66016 4.00391 4.15039 4.00391Z"/>
  </g>
  <g transform="matrix(0.2 0 0 0.2 304.924 1933)">
   <path d="m74.8535 28.3203c35.1074 0 63.623-28.4668 63.623-63.5742s-28.5156-63.623-63.623-63.623-63.5742 28.5156-63.5742 63.623 28.4668 63.5742 63.5742 63.5742Zm0-9.08203c-30.127 0-54.4922-24.3652-54.4922-54.4922s24.3652-54.4922 54.4922-54.4922 54.4922 24.3652 54.4922 54.4922-24.3652 54.4922-54.4922 54.4922Zm4.44336-30.3223v-48.4863c0-2.73438-1.85547-4.63867-4.54102-4.63867-2.58789 0-4.44336 1.9043-4.44336 4.63867v48.4863c0 2.68555 1.85547 4.58984 4.44336 4.58984 2.68555 0 4.54102-1.85547 4.54102-4.58984Zm-28.7109-19.7754h48.4863c2.68555 0 4.58984-1.80664 4.58984-4.39453 0-2.73438-1.85547-4.58984-4.58984-4.58984h-48.4863c-2.73438 0-4.58984 1.85547-4.58984 4.58984 0 2.58789 1.85547 4.39453 4.58984 4.39453Z"/>
  </g>
  <text style="stroke:none;fill:black;font-family:sans-serif;font-size:13;font-weight:bold;" transform="matrix(1 0 0 1 263 1953)">Design Variations</text>
  <text style="stroke:none;fill:black;font-family:sans-serif;font-size:13;" transform="matrix(1 0 0 1 263 1971)">Symbols are supported in up to nine weights and three scales.</text>
  <text style="stroke:none;fill:black;font-family:sans-serif;font-size:13;" transform="matrix(1 0 0 1 263 1989)">For optimal layout with text and other symbols, vertically align</text>
  <text style="stroke:none;fill:black;font-family:sans-serif;font-size:13;" transform="matrix(1 0 0 1 263 2007)">symbols with the adjacent text.</text>
  <line style="fill:none;stroke:#00AEEF;stroke-width:0.5;opacity:1.0;" x1="776" x2="776" y1="1919" y2="1933"/>
  <g transform="matrix(0.2 0 0 0.2 776 1933)">
   <path d="m16.5527 0.78125c2.58789 0 3.85742-0.976562 4.78516-3.71094l20.5566-57.5195h0.244141l20.6055 57.5195c0.927734 2.73438 2.19727 3.71094 4.73633 3.71094 2.58789 0 4.24805-1.5625 4.24805-4.00391 0-0.830078-0.146484-1.61133-0.537109-2.63672l-22.9004-60.9863c-1.12305-2.97852-3.125-4.49219-6.25-4.49219-3.02734 0-5.07812 1.46484-6.15234 4.44336l-22.9004 61.084c-0.390625 1.02539-0.537109 1.80664-0.537109 2.63672 0 2.44141 1.5625 3.95508 4.10156 3.95508Zm10.2051-20.9473h30.6641c2.00195 0 3.66211-1.66016 3.66211-3.66211 0-2.05078-1.66016-3.66211-3.66211-3.66211h-30.6641c-2.00195 0-3.66211 1.61133-3.66211 3.66211 0 2.00195 1.66016 3.66211 3.66211 3.66211Z"/>
  </g>
  <line style="fill:none;stroke:#00AEEF;stroke-width:0.5;opacity:1.0;" x1="792.836" x2="792.836" y1="1919" y2="1933"/>
  <text style="stroke:none;fill:black;font-family:sans-serif;font-size:13;font-weight:bold;" transform="matrix(1 0 0 1 776 1953)">Margins</text>
  <text style="stroke:none;fill:black;font-family:sans-serif;font-size:13;" transform="matrix(1 0 0 1 776 1971)">Leading and trailing margins on the left and right side of each symbol</text>
  <text style="stroke:none;fill:black;font-family:sans-serif;font-size:13;" transform="matrix(1 0 0 1 776 1989)">can be adjusted by modifying the x-location of the margin guidelines.</text>
  <text style="stroke:none;fill:black;font-family:sans-serif;font-size:13;" transform="matrix(1 0 0 1 776 2007)">Modifications are automatically applied proportionally to all</text>
  <text style="stroke:none;fill:black;font-family:sans-serif;font-size:13;" transform="matrix(1 0 0 1 776 2025)">scales and weights.</text>
  <g transform="matrix(0.2 0 0 0.2 1289 1933)">
   <path d="m14.209 13.1348 7.86133 7.86133c4.29688 4.39453 9.32617 4.10156 13.8672-1.02539l60.6934-68.2129-4.88281-4.88281-60.2539 67.6758c-1.80664 1.95312-3.4668 2.44141-5.81055 0.0976562l-5.17578-5.12695c-2.29492-2.29492-1.80664-3.95508 0.195312-5.81055l67.4805-62.1582-4.88281-4.83398-68.0664 62.5977c-4.98047 4.58984-5.32227 9.47266-1.02539 13.8184Zm44.873-97.4609c-2.05078 2.00195-2.24609 4.88281-1.07422 6.78711 1.12305 1.80664 3.4668 3.02734 6.5918 2.24609 5.85938-1.66016 12.5977-2.39258 18.8965 0.927734l-2.68555 7.12891c-1.61133 4.00391-0.732422 6.88477 1.70898 9.42383l10.2539 10.3027c2.34375 2.39258 4.54102 2.44141 7.08008 1.95312l4.44336-0.732422 2.58789 2.53906-0.195312 2.24609c-0.0976562 2.29492 0.537109 4.29688 2.7832 6.49414l3.36914 3.32031c2.29492 2.29492 5.51758 2.49023 7.8125 0.195312l12.9883-13.0371c2.29492-2.34375 2.14844-5.37109-0.195312-7.66602l-3.41797-3.41797c-2.19727-2.19727-4.05273-3.02734-6.34766-2.88086l-2.34375 0.244141-2.44141-2.44141 1.02539-4.6875c0.634766-2.73438-0.244141-4.98047-2.88086-7.61719l-11.2793-11.1816c-12.9395-12.8418-35.5957-11.0352-46.6797-0.146484Zm7.08008 2.05078c8.78906-6.39648 25.9766-5.66406 33.6914 1.95312l12.3047 12.207c1.02539 1.02539 1.2207 1.80664 0.927734 3.32031l-1.46484 6.64062 6.73828 6.68945 4.39453-0.244141c1.12305-0.0488281 1.51367 0.0488281 2.34375 0.878906l2.53906 2.49023-10.8398 10.8398-2.49023-2.49023c-0.830078-0.878906-0.976562-1.2207-0.927734-2.39258l0.292969-4.3457-6.68945-6.73828-6.83594 1.17188c-1.41602 0.292969-2.05078 0.195312-3.17383-0.878906l-8.93555-8.88672c-1.07422-1.02539-1.17188-1.70898-0.488281-3.36914l4.58984-11.4746c-6.10352-6.34766-17.041-7.51953-25.5859-4.58984-0.683594 0.244141-0.927734-0.390625-0.390625-0.78125Z"/>
  </g>
  <text style="stroke:none;fill:black;font-family:sans-serif;font-size:13;font-weight:bold;" transform="matrix(1 0 0 1 1289 1953)">Exporting</text>
  <text style="stroke:none;fill:black;font-family:sans-serif;font-size:13;" transform="matrix(1 0 0 1 1289 1971)">Symbols should be outlined when exporting to ensure the</text>
  <text style="stroke:none;fill:black;font-family:sans-serif;font-size:13;" transform="matrix(1 0 0 1 1289 1989)">design is preserved when submitting to Xcode.</text>
  <text id="template-version" style="stroke:none;fill:black;font-family:sans-serif;font-size:13;text-anchor:end;" transform="matrix(1 0 0 1 3036 1933)">Template v.7.0</text>
  <text style="stroke:none;fill:black;font-family:sans-serif;font-size:13;text-anchor:end;" transform="matrix(1 0 0 1 3036 1951)">Requires Xcode 26 or greater</text>
  <text id="descriptive-name" style="stroke:none;fill:black;font-family:sans-serif;font-size:13;text-anchor:end;" transform="matrix(1 0 0 1 3036 1969)">Generated from whatsapp</text>
  <text style="stroke:none;fill:black;font-family:sans-serif;font-size:13;text-anchor:end;" transform="matrix(1 0 0 1 3036 1987)">Typeset at 100.0 points</text>
  <text style="stroke:none;fill:black;font-family:sans-serif;font-size:13;" transform="matrix(1 0 0 1 263 726)">Small</text>
  <text style="stroke:none;fill:black;font-family:sans-serif;font-size:13;" transform="matrix(1 0 0 1 263 1156)">Medium</text>
  <text style="stroke:none;fill:black;font-family:sans-serif;font-size:13;" transform="matrix(1 0 0 1 263 1586)">Large</text>
 </g>
 <g id="Guides">
  <g id="H-reference" style="fill:#27AAE1;stroke:none;" transform="matrix(1 0 0 1 339 696)">
   <path d="M0.993654 0L3.63775 0L29.3281-67.1323L30.0303-67.1323L30.0303-70.459L28.1226-70.459ZM11.6885-24.4799L46.9815-24.4799L46.2315-26.7285L12.4385-26.7285ZM55.1196 0L57.7637 0L30.6382-70.459L29.4326-70.459L29.4326-67.1323Z"/>
  </g>
  <line id="Baseline-S" style="fill:none;stroke:#27AAE1;opacity:1;stroke-width:0.5;" x1="263" x2="3036" y1="696" y2="696"/>
  <line id="Capline-S" style="fill:none;stroke:#27AAE1;opacity:1;stroke-width:0.5;" x1="263" x2="3036" y1="625.541" y2="625.541"/>
  <g id="H-reference" style="fill:#27AAE1;stroke:none;" transform="matrix(1 0 0 1 339 1126)">
   <path d="M0.993654 0L3.63775 0L29.3281-67.1323L30.0303-67.1323L30.0303-70.459L28.1226-70.459ZM11.6885-24.4799L46.9815-24.4799L46.2315-26.7285L12.4385-26.7285ZM55.1196 0L57.7637 0L30.6382-70.459L29.4326-70.459L29.4326-67.1323Z"/>
  </g>
  <line id="Baseline-M" style="fill:none;stroke:#27AAE1;opacity:1;stroke-width:0.5;" x1="263" x2="3036" y1="1126" y2="1126"/>
  <line id="Capline-M" style="fill:none;stroke:#27AAE1;opacity:1;stroke-width:0.5;" x1="263" x2="3036" y1="1055.54" y2="1055.54"/>
  <g id="H-reference" style="fill:#27AAE1;stroke:none;" transform="matrix(1 0 0 1 339 1556)">
   <path d="M0.993654 0L3.63775 0L29.3281-67.1323L30.0303-67.1323L30.0303-70.459L28.1226-70.459ZM11.6885-24.4799L46.9815-24.4799L46.2315-26.7285L12.4385-26.7285ZM55.1196 0L57.7637 0L30.6382-70.459L29.4326-70.459L29.4326-67.1323Z"/>
  </g>
  <line id="Baseline-L" style="fill:none;stroke:#27AAE1;opacity:1;stroke-width:0.5;" x1="263" x2="3036" y1="1556" y2="1556"/>
  <line id="Capline-L" style="fill:none;stroke:#27AAE1;opacity:1;stroke-width:0.5;" x1="263" x2="3036" y1="1485.54" y2="1485.54"/>
  <line id="right-margin-Black-S" style="fill:none;stroke:#00AEEF;stroke-width:0.5;opacity:1.0;" x1="2982.23" x2="2982.23" y1="600.785" y2="720.121"/>
  <line id="left-margin-Black-S" style="fill:none;stroke:#00AEEF;stroke-width:0.5;opacity:1.0;" x1="2884.57" x2="2884.57" y1="600.785" y2="720.121"/>
  <line id="right-margin-Regular-S" style="fill:none;stroke:#00AEEF;stroke-width:0.5;opacity:1.0;" x1="1496.11" x2="1496.11" y1="600.785" y2="720.121"/>
  <line id="left-margin-Regular-S" style="fill:none;stroke:#00AEEF;stroke-width:0.5;opacity:1.0;" x1="1403.58" x2="1403.58" y1="600.785" y2="720.121"/>
  <line id="right-margin-Ultralight-S" style="fill:none;stroke:#00AEEF;stroke-width:0.5;opacity:1.0;" x1="603.773" x2="603.773" y1="600.785" y2="720.121"/>
  <line id="left-margin-Ultralight-S" style="fill:none;stroke:#00AEEF;stroke-width:0.5;opacity:1.0;" x1="515.649" x2="515.649" y1="600.785" y2="720.121"/>
 </g>
 <g id="Symbols">
  <g id="Black-S" transform="matrix(1 0 0 1 2884.57 696)">
   <path class="monochrome-0 multicolor-0:tintColor hierarchical-0:primary SFSymbolsPreviewWireframe" d="M49.1756-76.9999C60.2805-77.0288 70.935-72.6325 78.7615-64.7918C86.6274-56.9965 91.0339-46.394 90.9998-35.3464C90.9891-12.3934 72.224 6.279 49.1756 6.279L49.1581 6.279C42.1754 6.27812 35.3044 4.53573 29.1727 1.21102L7 7L12.9362-14.5704C9.2753-20.8809 7.35167-28.0419 7.35167-35.3779C7.36222-58.3273 26.1237-76.9999 49.1756-76.9999ZM49.1897-69.9682C30.0167-69.9682 14.4202-54.4493 14.4166-35.3744C14.4059-28.862 16.2469-22.4795 19.7269-16.9644L20.5533-15.6554L17.0437-2.88747L30.1996-6.32445L31.4691-5.57546C36.8253-2.41781 42.9362-0.752474 49.1616-0.752474L49.1756-0.752474C68.3346-0.752474 83.9275-16.2714 83.9383-35.3464C83.9675-44.5308 80.3041-53.3452 73.7643-59.8253C67.2022-66.3633 58.4738-69.9682 49.1897-69.9682ZM34.3669-54.5998C35.0667-54.5998 35.763-54.5928 36.3714-54.5648C37.0114-54.5298 37.873-54.8063 38.724-52.7798C39.5927-50.6973 41.6816-45.5768 41.9453-45.0553C42.2091-44.5338 42.3814-43.9283 42.0332-43.2353C41.6816-42.5388 41.5093-42.1048 40.9853-41.4958C40.4648-40.8903 39.8881-40.1413 39.4168-39.6758C38.8964-39.1578 38.3513-38.5943 38.9597-37.5548C39.568-36.5119 41.6675-33.1064 44.7727-30.3484C48.7642-26.8064 52.1332-25.7109 53.1776-25.1859C54.2221-24.6679 54.834-24.7519 55.4424-25.4484C56.0508-26.1414 58.0553-28.4829 58.7481-29.5224C59.4479-30.5654 60.1442-30.3939 61.1042-30.0474C62.0608-29.6974 67.1987-27.1844 68.2431-26.6629C69.2876-26.1414 69.9839-25.8824 70.2441-25.4484C70.5079-25.0144 70.5079-22.9319 69.6357-20.5029C68.7636-18.0739 64.5893-15.8549 62.5813-15.5574C60.7842-15.2879 58.5054-15.1759 56.0015-15.9704C54.4823-16.4464 52.5376-17.0869 50.0443-18.1579C39.561-22.6624 32.714-33.1694 32.19-33.8624C31.6696-34.5589 27.9243-39.5043 27.9243-44.6213C27.9243-49.7418 30.6251-52.2583 31.5816-53.2978C32.5382-54.3408 33.6706-54.5998 34.3669-54.5998Z"/>
  </g>
  <g id="Regular-S" transform="matrix(1 0 0 1 1403.58 696)">
   <path class="monochrome-0 multicolor-0:tintColor hierarchical-0:primary SFSymbolsPreviewWireframe" d="M46.1631-73.9999C56.4748-74.0268 66.3682-69.9444 73.6357-62.6638C80.9397-55.4253 85.0315-45.5801 84.9998-35.3216C84.9898-14.0082 67.5652 3.3305 46.1631 3.3305L46.1468 3.3305C39.6629 3.32969 33.2826 1.71174 27.589-1.37548L7 4L12.5122-16.0297C9.11278-21.8894 7.32655-28.5389 7.32655-35.3509C7.33635-56.661 24.7578-73.9999 46.1631-73.9999ZM46.1762-67.4705C28.3727-67.4705 13.8902-53.0601 13.8869-35.3476C13.8769-29.3004 15.5864-23.3738 18.8178-18.2527L19.5852-17.0372L16.3263-5.18122L28.5425-8.37271L29.7213-7.67721C34.6949-4.74511 40.3693-3.19873 46.15-3.19873L46.1631-3.19873C63.9535-3.19873 78.4327-17.6092 78.4427-35.3216C78.4698-43.85 75.0681-52.0349 68.9954-58.052C62.902-64.123 54.7971-67.4705 46.1762-67.4705ZM32.4121-53.1998C33.0619-53.1998 33.7085-53.1933 34.2734-53.1673C34.8677-53.1348 35.6678-53.3916 36.458-51.5098C37.2646-49.5761 39.2043-44.8213 39.4492-44.3371C39.6941-43.8528 39.8542-43.2906 39.5309-42.6471C39.2043-42.0003 39.0443-41.5973 38.5578-41.0318C38.0745-40.4696 37.5389-39.7741 37.1013-39.3419C36.618-38.8609 36.1119-38.3376 36.6768-37.3724C37.2418-36.4039 39.1913-33.2416 42.0747-30.6806C45.781-27.3916 48.9094-26.3744 49.8792-25.8869C50.8491-25.4059 51.4173-25.4839 51.9822-26.1306C52.5471-26.7741 54.4085-28.9484 55.0518-29.9136C55.7016-30.8821 56.3482-30.7229 57.2397-30.4011C58.1279-30.0761 62.8988-27.7426 63.8686-27.2584C64.8385-26.7741 65.485-26.5336 65.7267-26.1306C65.9716-25.7276 65.9716-23.7939 65.1617-21.5384C64.3519-19.2829 60.4758-17.2224 58.6112-16.9462C56.9425-16.6959 54.8265-16.5919 52.5014-17.3297C51.0907-17.7717 49.2849-18.3664 46.9697-19.3609C37.2352-23.5437 30.8773-33.3001 30.3907-33.9436C29.9075-34.5904 26.4297-39.1826 26.4297-43.9341C26.4297-48.6888 28.9376-51.0256 29.8258-51.9908C30.714-52.9593 31.7655-53.1998 32.4121-53.1998Z"/>
  </g>
  <g id="Ultralight-S" transform="matrix(1 0 0 1 515.649 696)">
   <path class="monochrome-0 multicolor-0:tintColor hierarchical-0:primary SFSymbolsPreviewWireframe" d="M44.1547-71.9999C53.9376-72.0254 63.3237-68.1524 70.2185-61.2451C77.1479-54.3778 81.0299-45.0376 80.9998-35.3051C80.9904-15.0847 64.4592 1.36484 44.1547 1.36484L44.1392 1.36484C37.9879 1.36406 31.9348-0.170909 26.5331-3.09982L7 2L12.2295-17.0025C9.00443-22.5617 7.3098-28.8702 7.3098-35.3329C7.3191-55.5502 23.8471-71.9999 44.1547-71.9999ZM44.1671-65.8054C27.2766-65.8054 13.5369-52.1339 13.5337-35.3298C13.5243-29.5927 15.1461-23.97 18.2118-19.1115L18.9398-17.9583L15.848-6.71039L27.4377-9.73821L28.5561-9.07838C33.2747-6.29664 38.6581-4.82956 44.1423-4.82956L44.1547-4.82956C61.0328-4.82956 74.7695-18.501 74.779-35.3051C74.8047-43.3962 71.5774-51.1613 65.8162-56.8699C60.0353-62.6295 52.3459-65.8054 44.1671-65.8054ZM31.1089-52.2665C31.7254-52.2665 32.3388-52.2603 32.8748-52.2356C33.4386-52.2048 34.1976-52.4484 34.9474-50.6632C35.7126-48.8286 37.5528-44.3177 37.7852-43.8583C38.0175-43.3988 38.1693-42.8654 37.8626-42.2549C37.5528-41.6414 37.401-41.259 36.9394-40.7225C36.4809-40.1891 35.9728-39.5293 35.5577-39.1192C35.0992-38.6629 34.619-38.1664 35.1549-37.2507C35.6909-36.3319 37.5404-33.3318 40.276-30.9021C43.7923-27.7818 46.7602-26.8167 47.6803-26.3542C48.6004-25.8979 49.1395-25.9719 49.6754-26.5855C50.2114-27.196 51.9773-29.2587 52.5876-30.1745C53.2041-31.0933 53.8175-30.9422 54.6633-30.637C55.5059-30.3286 60.0322-28.1148 60.9523-27.6554C61.8724-27.196 62.4858-26.9678 62.7151-26.5855C62.9474-26.2032 62.9474-24.3686 62.1791-22.2288C61.4108-20.0889 57.7334-18.1341 55.9644-17.872C54.3813-17.6346 52.3738-17.5359 50.168-18.2358C48.8297-18.6552 47.1164-19.2194 44.9199-20.1629C35.6847-24.1312 29.6528-33.3873 29.1912-33.9978C28.7327-34.6114 25.4333-38.9681 25.4333-43.4759C25.4333-47.9868 27.8126-50.2037 28.6553-51.1195C29.4979-52.0383 30.4955-52.2665 31.1089-52.2665Z"/>
  </g>
 </g>
</svg>
