<?xml version="1.0" encoding="UTF-8"?>
<!--Generator: Apple Native CoreSVG 175.5-->
<!DOCTYPE svg
PUBLIC "-//W3C//DTD SVG 1.1//EN"
       "http://www.w3.org/Graphics/SVG/1.1/DTD/svg11.dtd">
<svg version="1.1" xmlns="http://www.w3.org/2000/svg" xmlns:xlink="http://www.w3.org/1999/xlink" width="3300" height="2200">
 <!--glyph: "", point size: 100.0, font version: "18.0d12e2", template writer version: "101"-->
 <style>.monochrome-0 {fill:#000000}
.monochrome-1 {fill:#FFFFFF;opacity:0.0;-sfsymbols-clear-behind:true}

.multicolor-0:custom {fill:#563ACC}
.multicolor-1:white {fill:#FFFFFF}

.hierarchical-0:secondary {fill:#4D4D4D}
.hierarchical-1:primary {fill:#212121}

.SFSymbolsPreview563ACC {fill:#563ACC;opacity:1.0}
.SFSymbolsPreviewFFFFFF {fill:#FFFFFF;opacity:1.0}
</style>
 <g id="Notes">
  <rect height="2200" id="artboard" style="fill:white;opacity:1" width="3300" x="0" y="0"/>
  <line style="fill:none;stroke:black;opacity:1;stroke-width:0.5;" x1="263" x2="3036" y1="292" y2="292"/>
  <text style="stroke:none;fill:black;font-family:sans-serif;font-size:13;font-weight:bold;" transform="matrix(1 0 0 1 263 322)">Weight/Scale Variations</text>
  <text style="stroke:none;fill:black;font-family:sans-serif;font-size:13;text-anchor:middle;" transform="matrix(1 0 0 1 559.711 322)">Ultralight</text>
  <text style="stroke:none;fill:black;font-family:sans-serif;font-size:13;text-anchor:middle;" transform="matrix(1 0 0 1 856.422 322)">Thin</text>
  <text style="stroke:none;fill:black;font-family:sans-serif;font-size:13;text-anchor:middle;" transform="matrix(1 0 0 1 1153.13 322)">Light</text>
  <text style="stroke:none;fill:black;font-family:sans-serif;font-size:13;text-anchor:middle;" transform="matrix(1 0 0 1 1449.84 322)">Regular</text>
  <text style="stroke:none;fill:black;font-family:sans-serif;font-size:13;text-anchor:middle;" transform="matrix(1 0 0 1 1746.56 322)">Medium</text>
  <text style="stroke:none;fill:black;font-family:sans-serif;font-size:13;text-anchor:middle;" transform="matrix(1 0 0 1 2043.27 322)">Semibold</text>
  <text style="stroke:none;fill:black;font-family:sans-serif;font-size:13;text-anchor:middle;" transform="matrix(1 0 0 1 2339.98 322)">Bold</text>
  <text style="stroke:none;fill:black;font-family:sans-serif;font-size:13;text-anchor:middle;" transform="matrix(1 0 0 1 2636.69 322)">Heavy</text>
  <text style="stroke:none;fill:black;font-family:sans-serif;font-size:13;text-anchor:middle;" transform="matrix(1 0 0 1 2933.4 322)">Black</text>
  <line style="fill:none;stroke:black;opacity:1;stroke-width:0.5;" x1="263" x2="3036" y1="1903" y2="1903"/>
  <g transform="matrix(1 0 0 1 263 1933)">
   <path d="M9.24805 0.830078C13.5547 0.830078 17.1387-2.74414 17.1387-7.05078C17.1387-11.3574 13.5449-14.9316 9.23828-14.9316C4.94141-14.9316 1.36719-11.3574 1.36719-7.05078C1.36719-2.74414 4.95117 0.830078 9.24805 0.830078ZM9.24805-0.654297C5.70312-0.654297 2.87109-3.49609 2.87109-7.05078C2.87109-10.6055 5.69336-13.4473 9.23828-13.4473C12.793-13.4473 15.6445-10.6055 15.6445-7.05078C15.6445-3.49609 12.8027-0.654297 9.24805-0.654297ZM5.6543-7.05078C5.6543-6.62109 5.95703-6.32812 6.40625-6.32812L8.50586-6.32812L8.50586-4.20898C8.50586-3.76953 8.79883-3.4668 9.22852-3.4668C9.67773-3.4668 9.9707-3.76953 9.9707-4.20898L9.9707-6.32812L12.0898-6.32812C12.5293-6.32812 12.832-6.62109 12.832-7.05078C12.832-7.49023 12.5293-7.79297 12.0898-7.79297L9.9707-7.79297L9.9707-9.90234C9.9707-10.3516 9.67773-10.6543 9.22852-10.6543C8.79883-10.6543 8.50586-10.3516 8.50586-9.90234L8.50586-7.79297L6.40625-7.79297C5.95703-7.79297 5.6543-7.49023 5.6543-7.05078Z"/>
  </g>
  <g transform="matrix(1 0 0 1 281.867 1933)">
   <path d="M11.709 2.91016C17.1582 2.91016 21.6699-1.61133 21.6699-7.05078C21.6699-12.5 17.1484-17.0117 11.6992-17.0117C6.25977-17.0117 1.74805-12.5 1.74805-7.05078C1.74805-1.61133 6.26953 2.91016 11.709 2.91016ZM11.709 1.25C7.09961 1.25 3.41797-2.44141 3.41797-7.05078C3.41797-11.6602 7.08984-15.3516 11.6992-15.3516C16.3086-15.3516 20.0098-11.6602 20.0098-7.05078C20.0098-2.44141 16.3184 1.25 11.709 1.25ZM7.17773-7.05078C7.17773-6.57227 7.50977-6.25 8.00781-6.25L10.8789-6.25L10.8789-3.36914C10.8789-2.88086 11.2109-2.53906 11.6895-2.53906C12.1777-2.53906 12.5195-2.87109 12.5195-3.36914L12.5195-6.25L15.4004-6.25C15.8887-6.25 16.2305-6.57227 16.2305-7.05078C16.2305-7.53906 15.8887-7.88086 15.4004-7.88086L12.5195-7.88086L12.5195-10.752C12.5195-11.25 12.1777-11.5918 11.6895-11.5918C11.2109-11.5918 10.8789-11.25 10.8789-10.752L10.8789-7.88086L8.00781-7.88086C7.50977-7.88086 7.17773-7.53906 7.17773-7.05078Z"/>
  </g>
  <g transform="matrix(1 0 0 1 305.646 1933)">
   <path d="M14.9707 5.66406C21.9336 5.66406 27.6953-0.0976562 27.6953-7.05078C27.6953-14.0137 21.9238-19.7754 14.9609-19.7754C8.00781-19.7754 2.25586-14.0137 2.25586-7.05078C2.25586-0.0976562 8.01758 5.66406 14.9707 5.66406ZM14.9707 3.84766C8.93555 3.84766 4.08203-1.01562 4.08203-7.05078C4.08203-13.0957 8.92578-17.9492 14.9609-17.9492C21.0059-17.9492 25.8691-13.0957 25.8691-7.05078C25.8691-1.01562 21.0156 3.84766 14.9707 3.84766ZM9.19922-7.05078C9.19922-6.5332 9.57031-6.17188 10.1172-6.17188L14.0625-6.17188L14.0625-2.2168C14.0625-1.67969 14.4336-1.29883 14.9512-1.29883C15.4883-1.29883 15.8594-1.66992 15.8594-2.2168L15.8594-6.17188L19.8145-6.17188C20.3516-6.17188 20.7324-6.5332 20.7324-7.05078C20.7324-7.59766 20.3613-7.96875 19.8145-7.96875L15.8594-7.96875L15.8594-11.9141C15.8594-12.4609 15.4883-12.8418 14.9512-12.8418C14.4336-12.8418 14.0625-12.4609 14.0625-11.9141L14.0625-7.96875L10.1172-7.96875C9.57031-7.96875 9.19922-7.59766 9.19922-7.05078Z"/>
  </g>
  <text style="stroke:none;fill:black;font-family:sans-serif;font-size:13;font-weight:bold;" transform="matrix(1 0 0 1 263 1953)">Design Variations</text>
  <text style="stroke:none;fill:black;font-family:sans-serif;font-size:13;" transform="matrix(1 0 0 1 263 1971)">Symbols are supported in up to nine weights and three scales.</text>
  <text style="stroke:none;fill:black;font-family:sans-serif;font-size:13;" transform="matrix(1 0 0 1 263 1989)">For optimal layout with text and other symbols, vertically align</text>
  <text style="stroke:none;fill:black;font-family:sans-serif;font-size:13;" transform="matrix(1 0 0 1 263 2007)">symbols with the adjacent text.</text>
  <line style="fill:none;stroke:#00AEEF;stroke-width:0.5;opacity:1.0;" x1="776" x2="776" y1="1919" y2="1933"/>
  <g transform="matrix(1 0 0 1 776 1933)">
   <path d="M3.31055 0.15625C3.82812 0.15625 4.08203-0.0390625 4.26758-0.585938L5.52734-4.0332L11.2891-4.0332L12.5488-0.585938C12.7344-0.0390625 12.9883 0.15625 13.4961 0.15625C14.0137 0.15625 14.3457-0.15625 14.3457-0.644531C14.3457-0.810547 14.3164-0.966797 14.2383-1.17188L9.6582-13.3691C9.43359-13.9648 9.0332-14.2676 8.4082-14.2676C7.80273-14.2676 7.39258-13.9746 7.17773-13.3789L2.59766-1.16211C2.51953-0.957031 2.49023-0.800781 2.49023-0.634766C2.49023-0.146484 2.80273 0.15625 3.31055 0.15625ZM6.00586-5.51758L8.37891-12.0898L8.42773-12.0898L10.8008-5.51758Z"/>
  </g>
  <line style="fill:none;stroke:#00AEEF;stroke-width:0.5;opacity:1.0;" x1="793.197" x2="793.197" y1="1919" y2="1933"/>
  <text style="stroke:none;fill:black;font-family:sans-serif;font-size:13;font-weight:bold;" transform="matrix(1 0 0 1 776 1953)">Margins</text>
  <text style="stroke:none;fill:black;font-family:sans-serif;font-size:13;" transform="matrix(1 0 0 1 776 1971)">Leading and trailing margins on the left and right side of each symbol</text>
  <text style="stroke:none;fill:black;font-family:sans-serif;font-size:13;" transform="matrix(1 0 0 1 776 1989)">can be adjusted by modifying the x-location of the margin guidelines.</text>
  <text style="stroke:none;fill:black;font-family:sans-serif;font-size:13;" transform="matrix(1 0 0 1 776 2007)">Modifications are automatically applied proportionally to all</text>
  <text style="stroke:none;fill:black;font-family:sans-serif;font-size:13;" transform="matrix(1 0 0 1 776 2025)">scales and weights.</text>
  <g transform="matrix(1 0 0 1 1289 1933)">
   <path d="M2.8418 1.86523L4.54102 3.57422C5.40039 4.44336 6.38672 4.38477 7.31445 3.35938L18.0078-8.42773L17.041-9.4043L6.42578 2.27539C6.07422 2.67578 5.74219 2.77344 5.27344 2.30469L4.10156 1.14258C3.63281 0.683594 3.74023 0.341797 4.14062-0.0195312L15.6152-10.8203L14.6387-11.7871L3.04688-0.898438C2.06055 0.0195312 1.98242 0.996094 2.8418 1.86523ZM9.25781-16.3281C8.83789-15.918 8.80859-15.3418 9.04297-14.9512C9.27734-14.5898 9.73633-14.3555 10.3809-14.5215C11.8457-14.8633 13.3691-14.9219 14.7949-13.9844L14.209-12.5293C13.8672-11.6992 14.043-11.1133 14.5801-10.5664L16.875-8.25195C17.3633-7.76367 17.7734-7.74414 18.3398-7.8418L19.4043-8.03711L20.0684-7.36328L20.0293-6.80664C19.9902-6.30859 20.1172-5.92773 20.6055-5.44922L21.3672-4.70703C21.8457-4.22852 22.4609-4.19922 22.9297-4.66797L25.8398-7.58789C26.3086-8.05664 26.2891-8.65234 25.8105-9.13086L25.0391-9.89258C24.5605-10.3711 24.1895-10.5273 23.7109-10.4883L23.1348-10.4395L22.4902-11.0742L22.7344-12.1973C22.8613-12.7637 22.7051-13.2031 22.1191-13.7891L19.9219-15.9766C16.582-19.2969 12.1484-19.2188 9.25781-16.3281ZM10.752-15.957C13.1836-17.7344 16.4746-17.4316 18.7012-15.2051L21.1328-12.793C21.3672-12.5586 21.4062-12.373 21.3379-12.0312L21.0156-10.5469L22.5195-9.0625L23.5059-9.12109C23.7598-9.13086 23.8379-9.11133 24.0332-8.91602L24.6094-8.33984L22.168-5.89844L21.5918-6.47461C21.3965-6.66992 21.3672-6.74805 21.377-7.01172L21.4453-7.98828L19.9512-9.47266L18.4277-9.21875C18.1055-9.15039 17.959-9.17969 17.7148-9.41406L15.7129-11.416C15.459-11.6504 15.4297-11.8164 15.5859-12.1875L16.4648-14.2773C14.9023-15.7324 12.8711-16.3574 10.8398-15.7617C10.6836-15.7227 10.625-15.8496 10.752-15.957Z"/>
  </g>
  <text style="stroke:none;fill:black;font-family:sans-serif;font-size:13;font-weight:bold;" transform="matrix(1 0 0 1 1289 1953)">Exporting</text>
  <text style="stroke:none;fill:black;font-family:sans-serif;font-size:13;" transform="matrix(1 0 0 1 1289 1971)">Symbols should be outlined when exporting to ensure the</text>
  <text style="stroke:none;fill:black;font-family:sans-serif;font-size:13;" transform="matrix(1 0 0 1 1289 1989)">design is preserved when submitting to Xcode.</text>
  <text id="template-version" style="stroke:none;fill:black;font-family:sans-serif;font-size:13;text-anchor:end;" transform="matrix(1 0 0 1 3036 1933)">Template v.4.0</text>
  <text style="stroke:none;fill:black;font-family:sans-serif;font-size:13;text-anchor:end;" transform="matrix(1 0 0 1 3036 1951)">Requires Xcode 14 or greater</text>
  <text id="descriptive-name" style="stroke:none;fill:black;font-family:sans-serif;font-size:13;text-anchor:end;" transform="matrix(1 0 0 1 3036 1969)">Generated from mastodon.clean.fill</text>
  <text style="stroke:none;fill:black;font-family:sans-serif;font-size:13;text-anchor:end;" transform="matrix(1 0 0 1 3036 1987)">Typeset at 100 points</text>
  <text style="stroke:none;fill:black;font-family:sans-serif;font-size:13;" transform="matrix(1 0 0 1 263 726)">Small</text>
  <text style="stroke:none;fill:black;font-family:sans-serif;font-size:13;" transform="matrix(1 0 0 1 263 1156)">Medium</text>
  <text style="stroke:none;fill:black;font-family:sans-serif;font-size:13;" transform="matrix(1 0 0 1 263 1586)">Large</text>
 </g>
 <g id="Guides">
  <g id="H-reference" style="fill:#27AAE1;stroke:none;" transform="matrix(1 0 0 1 339 696)">
   <path d="M0.993654 0L3.63775 0L29.3281-67.1323L30.0303-67.1323L30.0303-70.459L28.1226-70.459ZM11.6885-24.4799L46.9815-24.4799L46.2315-26.7285L12.4385-26.7285ZM55.1196 0L57.7637 0L30.6382-70.459L29.4326-70.459L29.4326-67.1323Z"/>
  </g>
  <line id="Baseline-S" style="fill:none;stroke:#27AAE1;opacity:1;stroke-width:0.5;" x1="263" x2="3036" y1="696" y2="696"/>
  <line id="Capline-S" style="fill:none;stroke:#27AAE1;opacity:1;stroke-width:0.5;" x1="263" x2="3036" y1="625.541" y2="625.541"/>
  <g id="H-reference" style="fill:#27AAE1;stroke:none;" transform="matrix(1 0 0 1 339 1126)">
   <path d="M0.993654 0L3.63775 0L29.3281-67.1323L30.0303-67.1323L30.0303-70.459L28.1226-70.459ZM11.6885-24.4799L46.9815-24.4799L46.2315-26.7285L12.4385-26.7285ZM55.1196 0L57.7637 0L30.6382-70.459L29.4326-70.459L29.4326-67.1323Z"/>
  </g>
  <line id="Baseline-M" style="fill:none;stroke:#27AAE1;opacity:1;stroke-width:0.5;" x1="263" x2="3036" y1="1126" y2="1126"/>
  <line id="Capline-M" style="fill:none;stroke:#27AAE1;opacity:1;stroke-width:0.5;" x1="263" x2="3036" y1="1055.54" y2="1055.54"/>
  <g id="H-reference" style="fill:#27AAE1;stroke:none;" transform="matrix(1 0 0 1 339 1556)">
   <path d="M0.993654 0L3.63775 0L29.3281-67.1323L30.0303-67.1323L30.0303-70.459L28.1226-70.459ZM11.6885-24.4799L46.9815-24.4799L46.2315-26.7285L12.4385-26.7285ZM55.1196 0L57.7637 0L30.6382-70.459L29.4326-70.459L29.4326-67.1323Z"/>
  </g>
  <line id="Baseline-L" style="fill:none;stroke:#27AAE1;opacity:1;stroke-width:0.5;" x1="263" x2="3036" y1="1556" y2="1556"/>
  <line id="Capline-L" style="fill:none;stroke:#27AAE1;opacity:1;stroke-width:0.5;" x1="263" x2="3036" y1="1485.54" y2="1485.54"/>
  <line id="left-margin-Regular-M" style="fill:none;stroke:#00AEEF;stroke-width:0.5;opacity:1.0;" x1="1392.45" x2="1392.45" y1="1030.79" y2="1150.12"/>
  <line id="right-margin-Regular-M" style="fill:none;stroke:#00AEEF;stroke-width:0.5;opacity:1.0;" x1="1507.24" x2="1507.24" y1="1030.79" y2="1150.12"/>
 </g>
 <g id="Symbols">
  <g id="Black-L" transform="matrix(1 0 0 1 2866.01 1556)">
   <path class="monochrome-0 multicolor-0:custom hierarchical-0:secondary SFSymbolsPreview563ACC" d="M67.2404-84.9939C86.0669-84.969 94.2279-83.7827 96.4043-83.4567C109.404-81.5163 120.385-71.4301 122.08-58.6532L122.098-58.6164C122.423-55.3229 122.538-51.3145 122.549-47.3766L122.549-46.0176C122.529-39.0979 122.224-32.6827 122.224-31.122C122.224-30.3898 122.116-23.562 122.08-22.8481C120.944-4.57956 109.729 2.63273 97.9369 4.93915C97.7748 4.97584 97.5763 5.01237 97.3961 5.04905C89.9135 6.53159 81.9078 6.91602 74.317 7.13582C72.4958 7.1907 70.6929 7.1907 68.8717 7.1907C61.3169 7.1907 53.7801 6.27541 46.4417 4.48151L46.3155 4.48151C46.2794 4.49985 46.2434 4.51819 46.2075 4.53638C46.1713 4.55472 46.1353 4.59141 46.1353 4.62794C46.1172 4.66463 46.1172 4.70116 46.1172 4.73784C46.3336 7.15402 46.8565 9.55215 47.6679 11.8402C48.6775 14.4761 52.2295 20.8464 65.446 20.8464C73.109 20.8648 80.7718 19.9495 88.2366 18.1372L88.3449 18.1372C88.3807 18.1554 88.4168 18.1739 88.4528 18.1921C88.489 18.2104 88.525 18.2471 88.525 18.2837C88.5611 18.3202 88.5611 18.3934 88.5611 18.3934L88.5611 27.3629C88.5611 27.4179 88.5431 27.4546 88.525 27.4912C88.507 27.5278 88.489 27.5644 88.4528 27.5827C86.0007 29.3766 82.6832 30.4017 79.8524 31.317C78.5902 31.7197 77.328 32.0675 76.0478 32.3785C64.4003 35.0694 52.2295 34.4106 40.9245 30.4932C30.3586 26.7408 19.5763 17.5148 16.9078 6.42184C15.4834 0.417867 14.4917-5.67782 13.9147-11.8284C13.0853-21.0909 13.0132-30.3533 12.6526-39.6523C12.4001-46.1323 12.5444-53.1982 13.8787-59.5684C16.6914-72.5102 28.2309-81.5529 40.8883-83.4567C43.0881-83.7862 47.2171-84.9943 66.4916-84.9943Z"/>
   <path class="monochrome-1 multicolor-1:white hierarchical-1:primary SFSymbolsPreviewFFFFFF" d="M41.3753-58.2499C37.7332-58.2499 34.7941-55.2479 34.7941-51.5137C34.7941-47.7978 37.7332-44.7774 41.3753-44.7774C45.0175-44.7774 47.9563-47.7978 47.9563-51.5137C47.9563-55.2296 45.0175-58.2499 41.3753-58.2499Z"/>
  </g>
  <g id="Heavy-L" transform="matrix(1 0 0 1 2569.29 1556)">
   <path class="monochrome-0 multicolor-0:custom hierarchical-0:secondary SFSymbolsPreview563ACC" d="M67.2404-84.9939C86.0669-84.969 94.2279-83.7827 96.4043-83.4567C109.404-81.5163 120.385-71.4301 122.08-58.6532L122.098-58.6164C122.423-55.3229 122.538-51.3145 122.549-47.3766L122.549-46.0176C122.529-39.0979 122.224-32.6827 122.224-31.122C122.224-30.3898 122.116-23.562 122.08-22.8481C120.944-4.57956 109.729 2.63273 97.9369 4.93915C97.7748 4.97584 97.5763 5.01237 97.3961 5.04905C89.9135 6.53159 81.9078 6.91602 74.317 7.13582C72.4958 7.1907 70.6929 7.1907 68.8717 7.1907C61.3169 7.1907 53.7801 6.27541 46.4417 4.48151L46.3155 4.48151C46.2794 4.49985 46.2434 4.51819 46.2075 4.53638C46.1713 4.55472 46.1353 4.59141 46.1353 4.62794C46.1172 4.66463 46.1172 4.70116 46.1172 4.73784C46.3336 7.15402 46.8565 9.55215 47.6679 11.8402C48.6775 14.4761 52.2295 20.8464 65.446 20.8464C73.109 20.8648 80.7718 19.9495 88.2366 18.1372L88.3449 18.1372C88.3807 18.1554 88.4168 18.1739 88.4528 18.1921C88.489 18.2104 88.525 18.2471 88.525 18.2837C88.5611 18.3202 88.5611 18.3934 88.5611 18.3934L88.5611 27.3629C88.5611 27.4179 88.5431 27.4546 88.525 27.4912C88.507 27.5278 88.489 27.5644 88.4528 27.5827C86.0007 29.3766 82.6832 30.4017 79.8524 31.317C78.5902 31.7197 77.328 32.0675 76.0478 32.3785C64.4003 35.0694 52.2295 34.4106 40.9245 30.4932C30.3586 26.7408 19.5763 17.5148 16.9078 6.42184C15.4834 0.417867 14.4917-5.67782 13.9147-11.8284C13.0853-21.0909 13.0132-30.3533 12.6526-39.6523C12.4001-46.1323 12.5444-53.1982 13.8787-59.5684C16.6914-72.5102 28.2309-81.5529 40.8883-83.4567C43.0881-83.7862 47.2171-84.9943 66.4916-84.9943Z"/>
   <path class="monochrome-1 multicolor-1:white hierarchical-1:primary SFSymbolsPreviewFFFFFF" d="M41.3753-58.2499C37.7332-58.2499 34.7941-55.2479 34.7941-51.5137C34.7941-47.7978 37.7332-44.7774 41.3753-44.7774C45.0175-44.7774 47.9563-47.7978 47.9563-51.5137C47.9563-55.2296 45.0175-58.2499 41.3753-58.2499Z"/>
  </g>
  <g id="Bold-L" transform="matrix(1 0 0 1 2272.58 1556)">
   <path class="monochrome-0 multicolor-0:custom hierarchical-0:secondary SFSymbolsPreview563ACC" d="M67.2404-84.9939C86.0669-84.969 94.2279-83.7827 96.4043-83.4567C109.404-81.5163 120.385-71.4301 122.08-58.6532L122.098-58.6164C122.423-55.3229 122.538-51.3145 122.549-47.3766L122.549-46.0176C122.529-39.0979 122.224-32.6827 122.224-31.122C122.224-30.3898 122.116-23.562 122.08-22.8481C120.944-4.57956 109.729 2.63273 97.9369 4.93915C97.7748 4.97584 97.5763 5.01237 97.3961 5.04905C89.9135 6.53159 81.9078 6.91602 74.317 7.13582C72.4958 7.1907 70.6929 7.1907 68.8717 7.1907C61.3169 7.1907 53.7801 6.27541 46.4417 4.48151L46.3155 4.48151C46.2794 4.49985 46.2434 4.51819 46.2075 4.53638C46.1713 4.55472 46.1353 4.59141 46.1353 4.62794C46.1172 4.66463 46.1172 4.70116 46.1172 4.73784C46.3336 7.15402 46.8565 9.55215 47.6679 11.8402C48.6775 14.4761 52.2295 20.8464 65.446 20.8464C73.109 20.8648 80.7718 19.9495 88.2366 18.1372L88.3449 18.1372C88.3807 18.1554 88.4168 18.1739 88.4528 18.1921C88.489 18.2104 88.525 18.2471 88.525 18.2837C88.5611 18.3202 88.5611 18.3934 88.5611 18.3934L88.5611 27.3629C88.5611 27.4179 88.5431 27.4546 88.525 27.4912C88.507 27.5278 88.489 27.5644 88.4528 27.5827C86.0007 29.3766 82.6832 30.4017 79.8524 31.317C78.5902 31.7197 77.328 32.0675 76.0478 32.3785C64.4003 35.0694 52.2295 34.4106 40.9245 30.4932C30.3586 26.7408 19.5763 17.5148 16.9078 6.42184C15.4834 0.417867 14.4917-5.67782 13.9147-11.8284C13.0853-21.0909 13.0132-30.3533 12.6526-39.6523C12.4001-46.1323 12.5444-53.1982 13.8787-59.5684C16.6914-72.5102 28.2309-81.5529 40.8883-83.4567C43.0881-83.7862 47.2171-84.9943 66.4916-84.9943Z"/>
   <path class="monochrome-1 multicolor-1:white hierarchical-1:primary SFSymbolsPreviewFFFFFF" d="M41.3753-58.2499C37.7332-58.2499 34.7941-55.2479 34.7941-51.5137C34.7941-47.7978 37.7332-44.7774 41.3753-44.7774C45.0175-44.7774 47.9563-47.7978 47.9563-51.5137C47.9563-55.2296 45.0175-58.2499 41.3753-58.2499Z"/>
  </g>
  <g id="Semibold-L" transform="matrix(1 0 0 1 1975.87 1556)">
   <path class="monochrome-0 multicolor-0:custom hierarchical-0:secondary SFSymbolsPreview563ACC" d="M67.2404-84.9939C86.0669-84.969 94.2279-83.7827 96.4043-83.4567C109.404-81.5163 120.385-71.4301 122.08-58.6532L122.098-58.6164C122.423-55.3229 122.538-51.3145 122.549-47.3766L122.549-46.0176C122.529-39.0979 122.224-32.6827 122.224-31.122C122.224-30.3898 122.116-23.562 122.08-22.8481C120.944-4.57956 109.729 2.63273 97.9369 4.93915C97.7748 4.97584 97.5763 5.01237 97.3961 5.04905C89.9135 6.53159 81.9078 6.91602 74.317 7.13582C72.4958 7.1907 70.6929 7.1907 68.8717 7.1907C61.3169 7.1907 53.7801 6.27541 46.4417 4.48151L46.3155 4.48151C46.2794 4.49985 46.2434 4.51819 46.2075 4.53638C46.1713 4.55472 46.1353 4.59141 46.1353 4.62794C46.1172 4.66463 46.1172 4.70116 46.1172 4.73784C46.3336 7.15402 46.8565 9.55215 47.6679 11.8402C48.6775 14.4761 52.2295 20.8464 65.446 20.8464C73.109 20.8648 80.7718 19.9495 88.2366 18.1372L88.3449 18.1372C88.3807 18.1554 88.4168 18.1739 88.4528 18.1921C88.489 18.2104 88.525 18.2471 88.525 18.2837C88.5611 18.3202 88.5611 18.3934 88.5611 18.3934L88.5611 27.3629C88.5611 27.4179 88.5431 27.4546 88.525 27.4912C88.507 27.5278 88.489 27.5644 88.4528 27.5827C86.0007 29.3766 82.6832 30.4017 79.8524 31.317C78.5902 31.7197 77.328 32.0675 76.0478 32.3785C64.4003 35.0694 52.2295 34.4106 40.9245 30.4932C30.3586 26.7408 19.5763 17.5148 16.9078 6.42184C15.4834 0.417867 14.4917-5.67782 13.9147-11.8284C13.0853-21.0909 13.0132-30.3533 12.6526-39.6523C12.4001-46.1323 12.5444-53.1982 13.8787-59.5684C16.6914-72.5102 28.2309-81.5529 40.8883-83.4567C43.0881-83.7862 47.2171-84.9943 66.4916-84.9943Z"/>
   <path class="monochrome-1 multicolor-1:white hierarchical-1:primary SFSymbolsPreviewFFFFFF" d="M41.3753-58.2499C37.7332-58.2499 34.7941-55.2479 34.7941-51.5137C34.7941-47.7978 37.7332-44.7774 41.3753-44.7774C45.0175-44.7774 47.9563-47.7978 47.9563-51.5137C47.9563-55.2296 45.0175-58.2499 41.3753-58.2499Z"/>
  </g>
  <g id="Medium-L" transform="matrix(1 0 0 1 1679.16 1556)">
   <path class="monochrome-0 multicolor-0:custom hierarchical-0:secondary SFSymbolsPreview563ACC" d="M67.2404-84.9939C86.0669-84.969 94.2279-83.7827 96.4043-83.4567C109.404-81.5163 120.385-71.4301 122.08-58.6532L122.098-58.6164C122.423-55.3229 122.538-51.3145 122.549-47.3766L122.549-46.0176C122.529-39.0979 122.224-32.6827 122.224-31.122C122.224-30.3898 122.116-23.562 122.08-22.8481C120.944-4.57956 109.729 2.63273 97.9369 4.93915C97.7748 4.97584 97.5763 5.01237 97.3961 5.04905C89.9135 6.53159 81.9078 6.91602 74.317 7.13582C72.4958 7.1907 70.6929 7.1907 68.8717 7.1907C61.3169 7.1907 53.7801 6.27541 46.4417 4.48151L46.3155 4.48151C46.2794 4.49985 46.2434 4.51819 46.2075 4.53638C46.1713 4.55472 46.1353 4.59141 46.1353 4.62794C46.1172 4.66463 46.1172 4.70116 46.1172 4.73784C46.3336 7.15402 46.8565 9.55215 47.6679 11.8402C48.6775 14.4761 52.2295 20.8464 65.446 20.8464C73.109 20.8648 80.7718 19.9495 88.2366 18.1372L88.3449 18.1372C88.3807 18.1554 88.4168 18.1739 88.4528 18.1921C88.489 18.2104 88.525 18.2471 88.525 18.2837C88.5611 18.3202 88.5611 18.3934 88.5611 18.3934L88.5611 27.3629C88.5611 27.4179 88.5431 27.4546 88.525 27.4912C88.507 27.5278 88.489 27.5644 88.4528 27.5827C86.0007 29.3766 82.6832 30.4017 79.8524 31.317C78.5902 31.7197 77.328 32.0675 76.0478 32.3785C64.4003 35.0694 52.2295 34.4106 40.9245 30.4932C30.3586 26.7408 19.5763 17.5148 16.9078 6.42184C15.4834 0.417867 14.4917-5.67782 13.9147-11.8284C13.0853-21.0909 13.0132-30.3533 12.6526-39.6523C12.4001-46.1323 12.5444-53.1982 13.8787-59.5684C16.6914-72.5102 28.2309-81.5529 40.8883-83.4567C43.0881-83.7862 47.2171-84.9943 66.4916-84.9943Z"/>
   <path class="monochrome-1 multicolor-1:white hierarchical-1:primary SFSymbolsPreviewFFFFFF" d="M41.3753-58.2499C37.7332-58.2499 34.7941-55.2479 34.7941-51.5137C34.7941-47.7978 37.7332-44.7774 41.3753-44.7774C45.0175-44.7774 47.9563-47.7978 47.9563-51.5137C47.9563-55.2296 45.0175-58.2499 41.3753-58.2499Z"/>
  </g>
  <g id="Regular-L" transform="matrix(1 0 0 1 1382.45 1556)">
   <path class="monochrome-0 multicolor-0:custom hierarchical-0:secondary SFSymbolsPreview563ACC" d="M67.2404-84.9939C86.0669-84.969 94.2279-83.7827 96.4043-83.4567C109.404-81.5163 120.385-71.4301 122.08-58.6532L122.098-58.6164C122.423-55.3229 122.538-51.3145 122.549-47.3766L122.549-46.0176C122.529-39.0979 122.224-32.6827 122.224-31.122C122.224-30.3898 122.116-23.562 122.08-22.8481C120.944-4.57956 109.729 2.63273 97.9369 4.93915C97.7748 4.97584 97.5763 5.01237 97.3961 5.04905C89.9135 6.53159 81.9078 6.91602 74.317 7.13582C72.4958 7.1907 70.6929 7.1907 68.8717 7.1907C61.3169 7.1907 53.7801 6.27541 46.4417 4.48151L46.3155 4.48151C46.2794 4.49985 46.2434 4.51819 46.2075 4.53638C46.1713 4.55472 46.1353 4.59141 46.1353 4.62794C46.1172 4.66463 46.1172 4.70116 46.1172 4.73784C46.3336 7.15402 46.8565 9.55215 47.6679 11.8402C48.6775 14.4761 52.2295 20.8464 65.446 20.8464C73.109 20.8648 80.7718 19.9495 88.2366 18.1372L88.3449 18.1372C88.3807 18.1554 88.4168 18.1739 88.4528 18.1921C88.489 18.2104 88.525 18.2471 88.525 18.2837C88.5611 18.3202 88.5611 18.3934 88.5611 18.3934L88.5611 27.3629C88.5611 27.4179 88.5431 27.4546 88.525 27.4912C88.507 27.5278 88.489 27.5644 88.4528 27.5827C86.0007 29.3766 82.6832 30.4017 79.8524 31.317C78.5902 31.7197 77.328 32.0675 76.0478 32.3785C64.4003 35.0694 52.2295 34.4106 40.9245 30.4932C30.3586 26.7408 19.5763 17.5148 16.9078 6.42184C15.4834 0.417867 14.4917-5.67782 13.9147-11.8284C13.0853-21.0909 13.0132-30.3533 12.6526-39.6523C12.4001-46.1323 12.5444-53.1982 13.8787-59.5684C16.6914-72.5102 28.2309-81.5529 40.8883-83.4567C43.0881-83.7862 47.2171-84.9943 66.4916-84.9943Z"/>
   <path class="monochrome-1 multicolor-1:white hierarchical-1:primary SFSymbolsPreviewFFFFFF" d="M41.3753-58.2499C37.7332-58.2499 34.7941-55.2479 34.7941-51.5137C34.7941-47.7978 37.7332-44.7774 41.3753-44.7774C45.0175-44.7774 47.9563-47.7978 47.9563-51.5137C47.9563-55.2296 45.0175-58.2499 41.3753-58.2499Z"/>
  </g>
  <g id="Light-L" transform="matrix(1 0 0 1 1085.74 1556)">
   <path class="monochrome-0 multicolor-0:custom hierarchical-0:secondary SFSymbolsPreview563ACC" d="M67.2404-84.9939C86.0669-84.969 94.2279-83.7827 96.4043-83.4567C109.404-81.5163 120.385-71.4301 122.08-58.6532L122.098-58.6164C122.423-55.3229 122.538-51.3145 122.549-47.3766L122.549-46.0176C122.529-39.0979 122.224-32.6827 122.224-31.122C122.224-30.3898 122.116-23.562 122.08-22.8481C120.944-4.57956 109.729 2.63273 97.9369 4.93915C97.7748 4.97584 97.5763 5.01237 97.3961 5.04905C89.9135 6.53159 81.9078 6.91602 74.317 7.13582C72.4958 7.1907 70.6929 7.1907 68.8717 7.1907C61.3169 7.1907 53.7801 6.27541 46.4417 4.48151L46.3155 4.48151C46.2794 4.49985 46.2434 4.51819 46.2075 4.53638C46.1713 4.55472 46.1353 4.59141 46.1353 4.62794C46.1172 4.66463 46.1172 4.70116 46.1172 4.73784C46.3336 7.15402 46.8565 9.55215 47.6679 11.8402C48.6775 14.4761 52.2295 20.8464 65.446 20.8464C73.109 20.8648 80.7718 19.9495 88.2366 18.1372L88.3449 18.1372C88.3807 18.1554 88.4168 18.1739 88.4528 18.1921C88.489 18.2104 88.525 18.2471 88.525 18.2837C88.5611 18.3202 88.5611 18.3934 88.5611 18.3934L88.5611 27.3629C88.5611 27.4179 88.5431 27.4546 88.525 27.4912C88.507 27.5278 88.489 27.5644 88.4528 27.5827C86.0007 29.3766 82.6832 30.4017 79.8524 31.317C78.5902 31.7197 77.328 32.0675 76.0478 32.3785C64.4003 35.0694 52.2295 34.4106 40.9245 30.4932C30.3586 26.7408 19.5763 17.5148 16.9078 6.42184C15.4834 0.417867 14.4917-5.67782 13.9147-11.8284C13.0853-21.0909 13.0132-30.3533 12.6526-39.6523C12.4001-46.1323 12.5444-53.1982 13.8787-59.5684C16.6914-72.5102 28.2309-81.5529 40.8883-83.4567C43.0881-83.7862 47.2171-84.9943 66.4916-84.9943Z"/>
   <path class="monochrome-1 multicolor-1:white hierarchical-1:primary SFSymbolsPreviewFFFFFF" d="M41.3753-58.2499C37.7332-58.2499 34.7941-55.2479 34.7941-51.5137C34.7941-47.7978 37.7332-44.7774 41.3753-44.7774C45.0175-44.7774 47.9563-47.7978 47.9563-51.5137C47.9563-55.2296 45.0175-58.2499 41.3753-58.2499Z"/>
  </g>
  <g id="Thin-L" transform="matrix(1 0 0 1 789.028 1556)">
   <path class="monochrome-0 multicolor-0:custom hierarchical-0:secondary SFSymbolsPreview563ACC" d="M67.2404-84.9939C86.0669-84.969 94.2279-83.7827 96.4043-83.4567C109.404-81.5163 120.385-71.4301 122.08-58.6532L122.098-58.6164C122.423-55.3229 122.538-51.3145 122.549-47.3766L122.549-46.0176C122.529-39.0979 122.224-32.6827 122.224-31.122C122.224-30.3898 122.116-23.562 122.08-22.8481C120.944-4.57956 109.729 2.63273 97.9369 4.93915C97.7748 4.97584 97.5763 5.01237 97.3961 5.04905C89.9135 6.53159 81.9078 6.91602 74.317 7.13582C72.4958 7.1907 70.6929 7.1907 68.8717 7.1907C61.3169 7.1907 53.7801 6.27541 46.4417 4.48151L46.3155 4.48151C46.2794 4.49985 46.2434 4.51819 46.2075 4.53638C46.1713 4.55472 46.1353 4.59141 46.1353 4.62794C46.1172 4.66463 46.1172 4.70116 46.1172 4.73784C46.3336 7.15402 46.8565 9.55215 47.6679 11.8402C48.6775 14.4761 52.2295 20.8464 65.446 20.8464C73.109 20.8648 80.7718 19.9495 88.2366 18.1372L88.3449 18.1372C88.3807 18.1554 88.4168 18.1739 88.4528 18.1921C88.489 18.2104 88.525 18.2471 88.525 18.2837C88.5611 18.3202 88.5611 18.3934 88.5611 18.3934L88.5611 27.3629C88.5611 27.4179 88.5431 27.4546 88.525 27.4912C88.507 27.5278 88.489 27.5644 88.4528 27.5827C86.0007 29.3766 82.6832 30.4017 79.8524 31.317C78.5902 31.7197 77.328 32.0675 76.0478 32.3785C64.4003 35.0694 52.2295 34.4106 40.9245 30.4932C30.3586 26.7408 19.5763 17.5148 16.9078 6.42184C15.4834 0.417867 14.4917-5.67782 13.9147-11.8284C13.0853-21.0909 13.0132-30.3533 12.6526-39.6523C12.4001-46.1323 12.5444-53.1982 13.8787-59.5684C16.6914-72.5102 28.2309-81.5529 40.8883-83.4567C43.0881-83.7862 47.2171-84.9943 66.4916-84.9943Z"/>
   <path class="monochrome-1 multicolor-1:white hierarchical-1:primary SFSymbolsPreviewFFFFFF" d="M41.3753-58.2499C37.7332-58.2499 34.7941-55.2479 34.7941-51.5137C34.7941-47.7978 37.7332-44.7774 41.3753-44.7774C45.0175-44.7774 47.9563-47.7978 47.9563-51.5137C47.9563-55.2296 45.0175-58.2499 41.3753-58.2499Z"/>
  </g>
  <g id="Ultralight-L" transform="matrix(1 0 0 1 492.317 1556)">
   <path class="monochrome-0 multicolor-0:custom hierarchical-0:secondary SFSymbolsPreview563ACC" d="M67.2404-84.9939C86.0669-84.969 94.2279-83.7827 96.4043-83.4567C109.404-81.5163 120.385-71.4301 122.08-58.6532L122.098-58.6164C122.423-55.3229 122.538-51.3145 122.549-47.3766L122.549-46.0176C122.529-39.0979 122.224-32.6827 122.224-31.122C122.224-30.3898 122.116-23.562 122.08-22.8481C120.944-4.57956 109.729 2.63273 97.9369 4.93915C97.7748 4.97584 97.5763 5.01237 97.3961 5.04905C89.9135 6.53159 81.9078 6.91602 74.317 7.13582C72.4958 7.1907 70.6929 7.1907 68.8717 7.1907C61.3169 7.1907 53.7801 6.27541 46.4417 4.48151L46.3155 4.48151C46.2794 4.49985 46.2434 4.51819 46.2075 4.53638C46.1713 4.55472 46.1353 4.59141 46.1353 4.62794C46.1172 4.66463 46.1172 4.70116 46.1172 4.73784C46.3336 7.15402 46.8565 9.55215 47.6679 11.8402C48.6775 14.4761 52.2295 20.8464 65.446 20.8464C73.109 20.8648 80.7718 19.9495 88.2366 18.1372L88.3449 18.1372C88.3807 18.1554 88.4168 18.1739 88.4528 18.1921C88.489 18.2104 88.525 18.2471 88.525 18.2837C88.5611 18.3202 88.5611 18.3934 88.5611 18.3934L88.5611 27.3629C88.5611 27.4179 88.5431 27.4546 88.525 27.4912C88.507 27.5278 88.489 27.5644 88.4528 27.5827C86.0007 29.3766 82.6832 30.4017 79.8524 31.317C78.5902 31.7197 77.328 32.0675 76.0478 32.3785C64.4003 35.0694 52.2295 34.4106 40.9245 30.4932C30.3586 26.7408 19.5763 17.5148 16.9078 6.42184C15.4834 0.417867 14.4917-5.67782 13.9147-11.8284C13.0853-21.0909 13.0132-30.3533 12.6526-39.6523C12.4001-46.1323 12.5444-53.1982 13.8787-59.5684C16.6914-72.5102 28.2309-81.5529 40.8883-83.4567C43.0881-83.7862 47.2171-84.9943 66.4916-84.9943Z"/>
   <path class="monochrome-1 multicolor-1:white hierarchical-1:primary SFSymbolsPreviewFFFFFF" d="M41.3753-58.2499C37.7332-58.2499 34.7941-55.2479 34.7941-51.5137C34.7941-47.7978 37.7332-44.7774 41.3753-44.7774C45.0175-44.7774 47.9563-47.7978 47.9563-51.5137C47.9563-55.2296 45.0175-58.2499 41.3753-58.2499Z"/>
  </g>
  <g id="Black-M" transform="matrix(1 0 0 1 2876.01 1126)">
   <path class="monochrome-0 multicolor-0:custom hierarchical-0:secondary SFSymbolsPreview563ACC" d="M57.3546-74.9996C72.7171-74.9769 79.3798-74.0121 81.1583-73.7466C91.7946-72.165 100.779-63.9435 102.165-53.5287L102.18-53.4987C102.381-51.4733 102.484-49.1163 102.526-46.7025L102.539-45.8486C102.616-39.2913 102.284-32.5551 102.284-31.0873C102.284-30.8088 102.264-29.4482 102.241-28.0169L102.231-27.4022C102.206-25.9714 102.179-24.6146 102.165-24.343C101.236-9.45185 92.0604-3.57293 82.4123-1.6929C82.368-1.68293 82.3205-1.67298 82.2713-1.66303L81.9697-1.60332C75.8476-0.39486 69.2975-0.081502 63.0868 0.0976647C61.5967 0.142395 60.1216 0.142395 58.6315 0.142395C52.4503 0.142395 46.2839-0.603684 40.2797-2.06594L40.1764-2.06594L40.088-2.02121C40.0584-2.00626 40.0289-1.97636 40.0289-1.94658C40.0142-1.91667 40.0142-1.88689 40.0142-1.85699C40.1912 0.112493 40.619 2.06727 41.2829 3.93235C42.109 6.08088 45.0152 11.2735 55.8287 11.2735C62.0985 11.2885 68.368 10.5424 74.4756 9.06519L74.5642 9.06519L74.6525 9.10992C74.6821 9.12487 74.7116 9.15478 74.7116 9.18456C74.7411 9.21434 74.7411 9.27402 74.7411 9.27402L74.7411 16.5853C74.7411 16.6301 74.7264 16.66 74.7116 16.6898C74.6969 16.7197 74.6821 16.7495 74.6525 16.7645C72.6462 18.2267 69.9319 19.0623 67.6158 19.8083C66.5831 20.1366 65.5504 20.4201 64.5029 20.6737C54.9731 22.867 45.0152 22.33 35.7656 19.1369C27.1207 16.0782 18.2988 8.55784 16.1155-0.484321C14.95-5.37832 14.1387-10.3471 13.6666-15.3606C12.988-22.9107 12.929-30.4607 12.6339-38.0406C12.4274-43.3226 12.5454-49.0821 13.6371-54.2747C15.9384-64.8238 25.3799-72.1948 35.736-73.7466C37.5358-74.0152 40.9141-75 56.6842-75Z"/>
   <path class="monochrome-1 multicolor-1:white hierarchical-1:primary SFSymbolsPreviewFFFFFF" d="M36.1344-53.1999C33.1545-53.1999 30.7498-50.753 30.7498-47.7091C30.7498-44.6802 33.1545-42.2182 36.1344-42.2182C39.1144-42.2182 41.5189-44.6802 41.5189-47.7091C41.5189-50.738 39.1144-53.1999 36.1344-53.1999Z"/>
  </g>
  <g id="Heavy-M" transform="matrix(1 0 0 1 2579.29 1126)">
   <path class="monochrome-0 multicolor-0:custom hierarchical-0:secondary SFSymbolsPreview563ACC" d="M57.3546-74.9996C72.7171-74.9769 79.3798-74.0121 81.1583-73.7466C91.7946-72.165 100.779-63.9435 102.165-53.5287L102.18-53.4987C102.381-51.4733 102.484-49.1163 102.526-46.7025L102.539-45.8486C102.616-39.2913 102.284-32.5551 102.284-31.0873C102.284-30.8088 102.264-29.4482 102.241-28.0169L102.231-27.4022C102.206-25.9714 102.179-24.6146 102.165-24.343C101.236-9.45185 92.0604-3.57293 82.4123-1.6929C82.368-1.68293 82.3205-1.67298 82.2713-1.66303L81.9697-1.60332C75.8476-0.39486 69.2975-0.081502 63.0868 0.0976647C61.5967 0.142395 60.1216 0.142395 58.6315 0.142395C52.4503 0.142395 46.2839-0.603684 40.2797-2.06594L40.1764-2.06594L40.088-2.02121C40.0584-2.00626 40.0289-1.97636 40.0289-1.94658C40.0142-1.91667 40.0142-1.88689 40.0142-1.85699C40.1912 0.112493 40.619 2.06727 41.2829 3.93235C42.109 6.08088 45.0152 11.2735 55.8287 11.2735C62.0985 11.2885 68.368 10.5424 74.4756 9.06519L74.5642 9.06519L74.6525 9.10992C74.6821 9.12487 74.7116 9.15478 74.7116 9.18456C74.7411 9.21434 74.7411 9.27402 74.7411 9.27402L74.7411 16.5853C74.7411 16.6301 74.7264 16.66 74.7116 16.6898C74.6969 16.7197 74.6821 16.7495 74.6525 16.7645C72.6462 18.2267 69.9319 19.0623 67.6158 19.8083C66.5831 20.1366 65.5504 20.4201 64.5029 20.6737C54.9731 22.867 45.0152 22.33 35.7656 19.1369C27.1207 16.0782 18.2988 8.55784 16.1155-0.484321C14.95-5.37832 14.1387-10.3471 13.6666-15.3606C12.988-22.9107 12.929-30.4607 12.6339-38.0406C12.4274-43.3226 12.5454-49.0821 13.6371-54.2747C15.9384-64.8238 25.3799-72.1948 35.736-73.7466C37.5358-74.0152 40.9141-75 56.6842-75Z"/>
   <path class="monochrome-1 multicolor-1:white hierarchical-1:primary SFSymbolsPreviewFFFFFF" d="M36.1344-53.1999C33.1545-53.1999 30.7498-50.753 30.7498-47.7091C30.7498-44.6802 33.1545-42.2182 36.1344-42.2182C39.1144-42.2182 41.5189-44.6802 41.5189-47.7091C41.5189-50.738 39.1144-53.1999 36.1344-53.1999Z"/>
  </g>
  <g id="Bold-M" transform="matrix(1 0 0 1 2282.58 1126)">
   <path class="monochrome-0 multicolor-0:custom hierarchical-0:secondary SFSymbolsPreview563ACC" d="M57.3546-74.9996C72.7171-74.9769 79.3798-74.0121 81.1583-73.7466C91.7946-72.165 100.779-63.9435 102.165-53.5287L102.18-53.4987C102.381-51.4733 102.484-49.1163 102.526-46.7025L102.539-45.8486C102.616-39.2913 102.284-32.5551 102.284-31.0873C102.284-30.8088 102.264-29.4482 102.241-28.0169L102.231-27.4022C102.206-25.9714 102.179-24.6146 102.165-24.343C101.236-9.45185 92.0604-3.57293 82.4123-1.6929C82.368-1.68293 82.3205-1.67298 82.2713-1.66303L81.9697-1.60332C75.8476-0.39486 69.2975-0.081502 63.0868 0.0976647C61.5967 0.142395 60.1216 0.142395 58.6315 0.142395C52.4503 0.142395 46.2839-0.603684 40.2797-2.06594L40.1764-2.06594L40.088-2.02121C40.0584-2.00626 40.0289-1.97636 40.0289-1.94658C40.0142-1.91667 40.0142-1.88689 40.0142-1.85699C40.1912 0.112493 40.619 2.06727 41.2829 3.93235C42.109 6.08088 45.0152 11.2735 55.8287 11.2735C62.0985 11.2885 68.368 10.5424 74.4756 9.06519L74.5642 9.06519L74.6525 9.10992C74.6821 9.12487 74.7116 9.15478 74.7116 9.18456C74.7411 9.21434 74.7411 9.27402 74.7411 9.27402L74.7411 16.5853C74.7411 16.6301 74.7264 16.66 74.7116 16.6898C74.6969 16.7197 74.6821 16.7495 74.6525 16.7645C72.6462 18.2267 69.9319 19.0623 67.6158 19.8083C66.5831 20.1366 65.5504 20.4201 64.5029 20.6737C54.9731 22.867 45.0152 22.33 35.7656 19.1369C27.1207 16.0782 18.2988 8.55784 16.1155-0.484321C14.95-5.37832 14.1387-10.3471 13.6666-15.3606C12.988-22.9107 12.929-30.4607 12.6339-38.0406C12.4274-43.3226 12.5454-49.0821 13.6371-54.2747C15.9384-64.8238 25.3799-72.1948 35.736-73.7466C37.5358-74.0152 40.9141-75 56.6842-75Z"/>
   <path class="monochrome-1 multicolor-1:white hierarchical-1:primary SFSymbolsPreviewFFFFFF" d="M36.1344-53.1999C33.1545-53.1999 30.7498-50.753 30.7498-47.7091C30.7498-44.6802 33.1545-42.2182 36.1344-42.2182C39.1144-42.2182 41.5189-44.6802 41.5189-47.7091C41.5189-50.738 39.1144-53.1999 36.1344-53.1999Z"/>
  </g>
  <g id="Semibold-M" transform="matrix(1 0 0 1 1985.87 1126)">
   <path class="monochrome-0 multicolor-0:custom hierarchical-0:secondary SFSymbolsPreview563ACC" d="M57.3546-74.9996C72.7171-74.9769 79.3798-74.0121 81.1583-73.7466C91.7946-72.165 100.779-63.9435 102.165-53.5287L102.18-53.4987C102.381-51.4733 102.484-49.1163 102.526-46.7025L102.539-45.8486C102.616-39.2913 102.284-32.5551 102.284-31.0873C102.284-30.8088 102.264-29.4482 102.241-28.0169L102.231-27.4022C102.206-25.9714 102.179-24.6146 102.165-24.343C101.236-9.45185 92.0604-3.57293 82.4123-1.6929C82.368-1.68293 82.3205-1.67298 82.2713-1.66303L81.9697-1.60332C75.8476-0.39486 69.2975-0.081502 63.0868 0.0976647C61.5967 0.142395 60.1216 0.142395 58.6315 0.142395C52.4503 0.142395 46.2839-0.603684 40.2797-2.06594L40.1764-2.06594L40.088-2.02121C40.0584-2.00626 40.0289-1.97636 40.0289-1.94658C40.0142-1.91667 40.0142-1.88689 40.0142-1.85699C40.1912 0.112493 40.619 2.06727 41.2829 3.93235C42.109 6.08088 45.0152 11.2735 55.8287 11.2735C62.0985 11.2885 68.368 10.5424 74.4756 9.06519L74.5642 9.06519L74.6525 9.10992C74.6821 9.12487 74.7116 9.15478 74.7116 9.18456C74.7411 9.21434 74.7411 9.27402 74.7411 9.27402L74.7411 16.5853C74.7411 16.6301 74.7264 16.66 74.7116 16.6898C74.6969 16.7197 74.6821 16.7495 74.6525 16.7645C72.6462 18.2267 69.9319 19.0623 67.6158 19.8083C66.5831 20.1366 65.5504 20.4201 64.5029 20.6737C54.9731 22.867 45.0152 22.33 35.7656 19.1369C27.1207 16.0782 18.2988 8.55784 16.1155-0.484321C14.95-5.37832 14.1387-10.3471 13.6666-15.3606C12.988-22.9107 12.929-30.4607 12.6339-38.0406C12.4274-43.3226 12.5454-49.0821 13.6371-54.2747C15.9384-64.8238 25.3799-72.1948 35.736-73.7466C37.5358-74.0152 40.9141-75 56.6842-75Z"/>
   <path class="monochrome-1 multicolor-1:white hierarchical-1:primary SFSymbolsPreviewFFFFFF" d="M36.1344-53.1999C33.1545-53.1999 30.7498-50.753 30.7498-47.7091C30.7498-44.6802 33.1545-42.2182 36.1344-42.2182C39.1144-42.2182 41.5189-44.6802 41.5189-47.7091C41.5189-50.738 39.1144-53.1999 36.1344-53.1999Z"/>
  </g>
  <g id="Medium-M" transform="matrix(1 0 0 1 1689.16 1126)">
   <path class="monochrome-0 multicolor-0:custom hierarchical-0:secondary SFSymbolsPreview563ACC" d="M57.3546-74.9996C72.7171-74.9769 79.3798-74.0121 81.1583-73.7466C91.7946-72.165 100.779-63.9435 102.165-53.5287L102.18-53.4987C102.381-51.4733 102.484-49.1163 102.526-46.7025L102.539-45.8486C102.616-39.2913 102.284-32.5551 102.284-31.0873C102.284-30.8088 102.264-29.4482 102.241-28.0169L102.231-27.4022C102.206-25.9714 102.179-24.6146 102.165-24.343C101.236-9.45185 92.0604-3.57293 82.4123-1.6929C82.368-1.68293 82.3205-1.67298 82.2713-1.66303L81.9697-1.60332C75.8476-0.39486 69.2975-0.081502 63.0868 0.0976647C61.5967 0.142395 60.1216 0.142395 58.6315 0.142395C52.4503 0.142395 46.2839-0.603684 40.2797-2.06594L40.1764-2.06594L40.088-2.02121C40.0584-2.00626 40.0289-1.97636 40.0289-1.94658C40.0142-1.91667 40.0142-1.88689 40.0142-1.85699C40.1912 0.112493 40.619 2.06727 41.2829 3.93235C42.109 6.08088 45.0152 11.2735 55.8287 11.2735C62.0985 11.2885 68.368 10.5424 74.4756 9.06519L74.5642 9.06519L74.6525 9.10992C74.6821 9.12487 74.7116 9.15478 74.7116 9.18456C74.7411 9.21434 74.7411 9.27402 74.7411 9.27402L74.7411 16.5853C74.7411 16.6301 74.7264 16.66 74.7116 16.6898C74.6969 16.7197 74.6821 16.7495 74.6525 16.7645C72.6462 18.2267 69.9319 19.0623 67.6158 19.8083C66.5831 20.1366 65.5504 20.4201 64.5029 20.6737C54.9731 22.867 45.0152 22.33 35.7656 19.1369C27.1207 16.0782 18.2988 8.55784 16.1155-0.484321C14.95-5.37832 14.1387-10.3471 13.6666-15.3606C12.988-22.9107 12.929-30.4607 12.6339-38.0406C12.4274-43.3226 12.5454-49.0821 13.6371-54.2747C15.9384-64.8238 25.3799-72.1948 35.736-73.7466C37.5358-74.0152 40.9141-75 56.6842-75Z"/>
   <path class="monochrome-1 multicolor-1:white hierarchical-1:primary SFSymbolsPreviewFFFFFF" d="M36.1344-53.1999C33.1545-53.1999 30.7498-50.753 30.7498-47.7091C30.7498-44.6802 33.1545-42.2182 36.1344-42.2182C39.1144-42.2182 41.5189-44.6802 41.5189-47.7091C41.5189-50.738 39.1144-53.1999 36.1344-53.1999Z"/>
  </g>
  <g id="Regular-M" transform="matrix(1 0 0 1 1392.45 1126)">
   <path class="monochrome-0 multicolor-0:custom hierarchical-0:secondary SFSymbolsPreview563ACC" d="M57.3546-74.9996C72.7171-74.9769 79.3798-74.0121 81.1583-73.7466C91.7946-72.165 100.779-63.9435 102.165-53.5287L102.18-53.4987C102.381-51.4733 102.484-49.1163 102.526-46.7025L102.539-45.8486C102.616-39.2913 102.284-32.5551 102.284-31.0873C102.284-30.8088 102.264-29.4482 102.241-28.0169L102.231-27.4022C102.206-25.9714 102.179-24.6146 102.165-24.343C101.236-9.45185 92.0604-3.57293 82.4123-1.6929C82.368-1.68293 82.3205-1.67298 82.2713-1.66303L81.9697-1.60332C75.8476-0.39486 69.2975-0.081502 63.0868 0.0976647C61.5967 0.142395 60.1216 0.142395 58.6315 0.142395C52.4503 0.142395 46.2839-0.603684 40.2797-2.06594L40.1764-2.06594L40.088-2.02121C40.0584-2.00626 40.0289-1.97636 40.0289-1.94658C40.0142-1.91667 40.0142-1.88689 40.0142-1.85699C40.1912 0.112493 40.619 2.06727 41.2829 3.93235C42.109 6.08088 45.0152 11.2735 55.8287 11.2735C62.0985 11.2885 68.368 10.5424 74.4756 9.06519L74.5642 9.06519L74.6525 9.10992C74.6821 9.12487 74.7116 9.15478 74.7116 9.18456C74.7411 9.21434 74.7411 9.27402 74.7411 9.27402L74.7411 16.5853C74.7411 16.6301 74.7264 16.66 74.7116 16.6898C74.6969 16.7197 74.6821 16.7495 74.6525 16.7645C72.6462 18.2267 69.9319 19.0623 67.6158 19.8083C66.5831 20.1366 65.5504 20.4201 64.5029 20.6737C54.9731 22.867 45.0152 22.33 35.7656 19.1369C27.1207 16.0782 18.2988 8.55784 16.1155-0.484321C14.95-5.37832 14.1387-10.3471 13.6666-15.3606C12.988-22.9107 12.929-30.4607 12.6339-38.0406C12.4274-43.3226 12.5454-49.0821 13.6371-54.2747C15.9384-64.8238 25.3799-72.1948 35.736-73.7466C37.5358-74.0152 40.9141-75 56.6842-75Z"/>
   <path class="monochrome-1 multicolor-1:white hierarchical-1:primary SFSymbolsPreviewFFFFFF" d="M36.1344-53.1999C33.1545-53.1999 30.7498-50.753 30.7498-47.7091C30.7498-44.6802 33.1545-42.2182 36.1344-42.2182C39.1144-42.2182 41.5189-44.6802 41.5189-47.7091C41.5189-50.738 39.1144-53.1999 36.1344-53.1999Z"/>
  </g>
  <g id="Light-M" transform="matrix(1 0 0 1 1095.74 1126)">
   <path class="monochrome-0 multicolor-0:custom hierarchical-0:secondary SFSymbolsPreview563ACC" d="M57.3546-74.9996C72.7171-74.9769 79.3798-74.0121 81.1583-73.7466C91.7946-72.165 100.779-63.9435 102.165-53.5287L102.18-53.4987C102.381-51.4733 102.484-49.1163 102.526-46.7025L102.539-45.8486C102.616-39.2913 102.284-32.5551 102.284-31.0873C102.284-30.8088 102.264-29.4482 102.241-28.0169L102.231-27.4022C102.206-25.9714 102.179-24.6146 102.165-24.343C101.236-9.45185 92.0604-3.57293 82.4123-1.6929C82.368-1.68293 82.3205-1.67298 82.2713-1.66303L81.9697-1.60332C75.8476-0.39486 69.2975-0.081502 63.0868 0.0976647C61.5967 0.142395 60.1216 0.142395 58.6315 0.142395C52.4503 0.142395 46.2839-0.603684 40.2797-2.06594L40.1764-2.06594L40.088-2.02121C40.0584-2.00626 40.0289-1.97636 40.0289-1.94658C40.0142-1.91667 40.0142-1.88689 40.0142-1.85699C40.1912 0.112493 40.619 2.06727 41.2829 3.93235C42.109 6.08088 45.0152 11.2735 55.8287 11.2735C62.0985 11.2885 68.368 10.5424 74.4756 9.06519L74.5642 9.06519L74.6525 9.10992C74.6821 9.12487 74.7116 9.15478 74.7116 9.18456C74.7411 9.21434 74.7411 9.27402 74.7411 9.27402L74.7411 16.5853C74.7411 16.6301 74.7264 16.66 74.7116 16.6898C74.6969 16.7197 74.6821 16.7495 74.6525 16.7645C72.6462 18.2267 69.9319 19.0623 67.6158 19.8083C66.5831 20.1366 65.5504 20.4201 64.5029 20.6737C54.9731 22.867 45.0152 22.33 35.7656 19.1369C27.1207 16.0782 18.2988 8.55784 16.1155-0.484321C14.95-5.37832 14.1387-10.3471 13.6666-15.3606C12.988-22.9107 12.929-30.4607 12.6339-38.0406C12.4274-43.3226 12.5454-49.0821 13.6371-54.2747C15.9384-64.8238 25.3799-72.1948 35.736-73.7466C37.5358-74.0152 40.9141-75 56.6842-75Z"/>
   <path class="monochrome-1 multicolor-1:white hierarchical-1:primary SFSymbolsPreviewFFFFFF" d="M36.1344-53.1999C33.1545-53.1999 30.7498-50.753 30.7498-47.7091C30.7498-44.6802 33.1545-42.2182 36.1344-42.2182C39.1144-42.2182 41.5189-44.6802 41.5189-47.7091C41.5189-50.738 39.1144-53.1999 36.1344-53.1999Z"/>
  </g>
  <g id="Thin-M" transform="matrix(1 0 0 1 799.027 1126)">
   <path class="monochrome-0 multicolor-0:custom hierarchical-0:secondary SFSymbolsPreview563ACC" d="M57.3546-74.9996C72.7171-74.9769 79.3798-74.0121 81.1583-73.7466C91.7946-72.165 100.779-63.9435 102.165-53.5287L102.18-53.4987C102.381-51.4733 102.484-49.1163 102.526-46.7025L102.539-45.8486C102.616-39.2913 102.284-32.5551 102.284-31.0873C102.284-30.8088 102.264-29.4482 102.241-28.0169L102.231-27.4022C102.206-25.9714 102.179-24.6146 102.165-24.343C101.236-9.45185 92.0604-3.57293 82.4123-1.6929C82.368-1.68293 82.3205-1.67298 82.2713-1.66303L81.9697-1.60332C75.8476-0.39486 69.2975-0.081502 63.0868 0.0976647C61.5967 0.142395 60.1216 0.142395 58.6315 0.142395C52.4503 0.142395 46.2839-0.603684 40.2797-2.06594L40.1764-2.06594L40.088-2.02121C40.0584-2.00626 40.0289-1.97636 40.0289-1.94658C40.0142-1.91667 40.0142-1.88689 40.0142-1.85699C40.1912 0.112493 40.619 2.06727 41.2829 3.93235C42.109 6.08088 45.0152 11.2735 55.8287 11.2735C62.0985 11.2885 68.368 10.5424 74.4756 9.06519L74.5642 9.06519L74.6525 9.10992C74.6821 9.12487 74.7116 9.15478 74.7116 9.18456C74.7411 9.21434 74.7411 9.27402 74.7411 9.27402L74.7411 16.5853C74.7411 16.6301 74.7264 16.66 74.7116 16.6898C74.6969 16.7197 74.6821 16.7495 74.6525 16.7645C72.6462 18.2267 69.9319 19.0623 67.6158 19.8083C66.5831 20.1366 65.5504 20.4201 64.5029 20.6737C54.9731 22.867 45.0152 22.33 35.7656 19.1369C27.1207 16.0782 18.2988 8.55784 16.1155-0.484321C14.95-5.37832 14.1387-10.3471 13.6666-15.3606C12.988-22.9107 12.929-30.4607 12.6339-38.0406C12.4274-43.3226 12.5454-49.0821 13.6371-54.2747C15.9384-64.8238 25.3799-72.1948 35.736-73.7466C37.5358-74.0152 40.9141-75 56.6842-75Z"/>
   <path class="monochrome-1 multicolor-1:white hierarchical-1:primary SFSymbolsPreviewFFFFFF" d="M36.1344-53.1999C33.1545-53.1999 30.7498-50.753 30.7498-47.7091C30.7498-44.6802 33.1545-42.2182 36.1344-42.2182C39.1144-42.2182 41.5189-44.6802 41.5189-47.7091C41.5189-50.738 39.1144-53.1999 36.1344-53.1999Z"/>
  </g>
  <g id="Ultralight-M" transform="matrix(1 0 0 1 502.316 1126)">
   <path class="monochrome-0 multicolor-0:custom hierarchical-0:secondary SFSymbolsPreview563ACC" d="M57.3546-74.9996C72.7171-74.9769 79.3798-74.0121 81.1583-73.7466C91.7946-72.165 100.779-63.9435 102.165-53.5287L102.18-53.4987C102.381-51.4733 102.484-49.1163 102.526-46.7025L102.539-45.8486C102.616-39.2913 102.284-32.5551 102.284-31.0873C102.284-30.8088 102.264-29.4482 102.241-28.0169L102.231-27.4022C102.206-25.9714 102.179-24.6146 102.165-24.343C101.236-9.45185 92.0604-3.57293 82.4123-1.6929C82.368-1.68293 82.3205-1.67298 82.2713-1.66303L81.9697-1.60332C75.8476-0.39486 69.2975-0.081502 63.0868 0.0976647C61.5967 0.142395 60.1216 0.142395 58.6315 0.142395C52.4503 0.142395 46.2839-0.603684 40.2797-2.06594L40.1764-2.06594L40.088-2.02121C40.0584-2.00626 40.0289-1.97636 40.0289-1.94658C40.0142-1.91667 40.0142-1.88689 40.0142-1.85699C40.1912 0.112493 40.619 2.06727 41.2829 3.93235C42.109 6.08088 45.0152 11.2735 55.8287 11.2735C62.0985 11.2885 68.368 10.5424 74.4756 9.06519L74.5642 9.06519L74.6525 9.10992C74.6821 9.12487 74.7116 9.15478 74.7116 9.18456C74.7411 9.21434 74.7411 9.27402 74.7411 9.27402L74.7411 16.5853C74.7411 16.6301 74.7264 16.66 74.7116 16.6898C74.6969 16.7197 74.6821 16.7495 74.6525 16.7645C72.6462 18.2267 69.9319 19.0623 67.6158 19.8083C66.5831 20.1366 65.5504 20.4201 64.5029 20.6737C54.9731 22.867 45.0152 22.33 35.7656 19.1369C27.1207 16.0782 18.2988 8.55784 16.1155-0.484321C14.95-5.37832 14.1387-10.3471 13.6666-15.3606C12.988-22.9107 12.929-30.4607 12.6339-38.0406C12.4274-43.3226 12.5454-49.0821 13.6371-54.2747C15.9384-64.8238 25.3799-72.1948 35.736-73.7466C37.5358-74.0152 40.9141-75 56.6842-75Z"/>
   <path class="monochrome-1 multicolor-1:white hierarchical-1:primary SFSymbolsPreviewFFFFFF" d="M36.1344-53.1999C33.1545-53.1999 30.7498-50.753 30.7498-47.7091C30.7498-44.6802 33.1545-42.2182 36.1344-42.2182C39.1144-42.2182 41.5189-44.6802 41.5189-47.7091C41.5189-50.738 39.1144-53.1999 36.1344-53.1999Z"/>
  </g>
  <g id="Black-S" transform="matrix(1 0 0 1 2887.51 696)">
   <path class="monochrome-0 multicolor-0:custom hierarchical-0:secondary SFSymbolsPreview563ACC" d="M46.0218-69.9995C56.3269-69.98 61.3405-69.3916 63.165-69.1363L63.3396-69.1115C63.4488-69.0958 63.5437-69.0817 63.6249-69.0697C71.543-67.8957 78.2314-61.7931 79.2635-54.0625L79.2746-54.0403C79.4719-52.0545 79.542-49.6393 79.5493-47.2647L79.5496-46.5168C79.5403-42.2923 79.3515-38.3567 79.3515-37.405L79.3512-37.3379C79.3465-36.6497 79.2848-32.8142 79.2635-32.399C78.5718-21.3457 71.7409-16.982 64.5584-15.5865C64.4596-15.5643 64.3387-15.5422 64.229-15.52C59.6714-14.623 54.7952-14.3904 50.1717-14.2574C49.0624-14.2242 47.9643-14.2242 46.855-14.2242C42.2535-14.2242 37.6629-14.778 33.1931-15.8634L33.1162-15.8634C33.0943-15.8523 33.0723-15.8412 33.0505-15.8302C33.0284-15.8191 33.0065-15.7969 33.0065-15.7748C32.9955-15.7526 32.9955-15.7305 32.9955-15.7083C33.1273-14.2464 33.4457-12.7954 33.94-11.411C34.5549-9.81626 36.7184-5.96192 44.7685-5.96192C49.4359-5.95082 54.1033-6.50461 58.65-7.60109L58.716-7.60109L58.7817-7.56789C58.8038-7.55679 58.8257-7.5346 58.8257-7.51249C58.8477-7.49039 58.8477-7.44609 58.8477-7.44609L58.8477-2.01916C58.8477-1.98587 58.8367-1.96367 58.8257-1.94157C58.8147-1.91938 58.8038-1.89727 58.7817-1.88617C57.2881-0.800788 55.2675-0.180593 53.5433 0.373197C52.7745 0.61689 52.0057 0.827291 51.2259 1.0155C44.1315 2.64357 36.7184 2.24497 29.8327-0.125196C23.397-2.39557 16.8297-7.97769 15.2043-14.6894C14.3367-18.3221 13.7327-22.0102 13.3812-25.7315C12.8761-31.3358 12.8321-36.9399 12.6125-42.5662C12.4587-46.4869 12.5466-50.762 13.3593-54.6162C15.0725-62.4466 22.1011-67.9178 29.8106-69.0697C31.1505-69.269 33.6654-70 45.4054-70Z"/>
   <path class="monochrome-1 multicolor-1:white hierarchical-1:primary SFSymbolsPreviewFFFFFF" d="M30.1072-53.8185C27.8888-53.8185 26.0987-52.0022 26.0987-49.7428C26.0987-47.4946 27.8888-45.6671 30.1072-45.6671C32.3257-45.6671 34.1157-47.4946 34.1157-49.7428C34.1157-51.9911 32.3257-53.8185 30.1072-53.8185Z"/>
  </g>
  <g id="Heavy-S" transform="matrix(1 0 0 1 2590.79 696)">
   <path class="monochrome-0 multicolor-0:custom hierarchical-0:secondary SFSymbolsPreview563ACC" d="M46.0218-69.9995C56.3269-69.98 61.3405-69.3916 63.165-69.1363L63.3396-69.1115C63.4488-69.0958 63.5437-69.0817 63.6249-69.0697C71.543-67.8957 78.2314-61.7931 79.2635-54.0625L79.2746-54.0403C79.4719-52.0545 79.542-49.6393 79.5493-47.2647L79.5496-46.5168C79.5403-42.2923 79.3515-38.3567 79.3515-37.405L79.3512-37.3379C79.3465-36.6497 79.2848-32.8142 79.2635-32.399C78.5718-21.3457 71.7409-16.982 64.5584-15.5865C64.4596-15.5643 64.3387-15.5422 64.229-15.52C59.6714-14.623 54.7952-14.3904 50.1717-14.2574C49.0624-14.2242 47.9643-14.2242 46.855-14.2242C42.2535-14.2242 37.6629-14.778 33.1931-15.8634L33.1162-15.8634C33.0943-15.8523 33.0723-15.8412 33.0505-15.8302C33.0284-15.8191 33.0065-15.7969 33.0065-15.7748C32.9955-15.7526 32.9955-15.7305 32.9955-15.7083C33.1273-14.2464 33.4457-12.7954 33.94-11.411C34.5549-9.81626 36.7184-5.96192 44.7685-5.96192C49.4359-5.95082 54.1033-6.50461 58.65-7.60109L58.716-7.60109L58.7817-7.56789C58.8038-7.55679 58.8257-7.5346 58.8257-7.51249C58.8477-7.49039 58.8477-7.44609 58.8477-7.44609L58.8477-2.01916C58.8477-1.98587 58.8367-1.96367 58.8257-1.94157C58.8147-1.91938 58.8038-1.89727 58.7817-1.88617C57.2881-0.800788 55.2675-0.180593 53.5433 0.373197C52.7745 0.61689 52.0057 0.827291 51.2259 1.0155C44.1315 2.64357 36.7184 2.24497 29.8327-0.125196C23.397-2.39557 16.8297-7.97769 15.2043-14.6894C14.3367-18.3221 13.7327-22.0102 13.3812-25.7315C12.8761-31.3358 12.8321-36.9399 12.6125-42.5662C12.4587-46.4869 12.5466-50.762 13.3593-54.6162C15.0725-62.4466 22.1011-67.9178 29.8106-69.0697C31.1505-69.269 33.6654-70 45.4054-70Z"/>
   <path class="monochrome-1 multicolor-1:white hierarchical-1:primary SFSymbolsPreviewFFFFFF" d="M30.1072-53.8185C27.8888-53.8185 26.0987-52.0022 26.0987-49.7428C26.0987-47.4946 27.8888-45.6671 30.1072-45.6671C32.3257-45.6671 34.1157-47.4946 34.1157-49.7428C34.1157-51.9911 32.3257-53.8185 30.1072-53.8185Z"/>
  </g>
  <g id="Bold-S" transform="matrix(1 0 0 1 2294.08 696)">
   <path class="monochrome-0 multicolor-0:custom hierarchical-0:secondary SFSymbolsPreview563ACC" d="M46.0218-69.9995C56.3269-69.98 61.3405-69.3916 63.165-69.1363L63.3396-69.1115C63.4488-69.0958 63.5437-69.0817 63.6249-69.0697C71.543-67.8957 78.2314-61.7931 79.2635-54.0625L79.2746-54.0403C79.4719-52.0545 79.542-49.6393 79.5493-47.2647L79.5496-46.5168C79.5403-42.2923 79.3515-38.3567 79.3515-37.405L79.3512-37.3379C79.3465-36.6497 79.2848-32.8142 79.2635-32.399C78.5718-21.3457 71.7409-16.982 64.5584-15.5865C64.4596-15.5643 64.3387-15.5422 64.229-15.52C59.6714-14.623 54.7952-14.3904 50.1717-14.2574C49.0624-14.2242 47.9643-14.2242 46.855-14.2242C42.2535-14.2242 37.6629-14.778 33.1931-15.8634L33.1162-15.8634C33.0943-15.8523 33.0723-15.8412 33.0505-15.8302C33.0284-15.8191 33.0065-15.7969 33.0065-15.7748C32.9955-15.7526 32.9955-15.7305 32.9955-15.7083C33.1273-14.2464 33.4457-12.7954 33.94-11.411C34.5549-9.81626 36.7184-5.96192 44.7685-5.96192C49.4359-5.95082 54.1033-6.50461 58.65-7.60109L58.716-7.60109L58.7817-7.56789C58.8038-7.55679 58.8257-7.5346 58.8257-7.51249C58.8477-7.49039 58.8477-7.44609 58.8477-7.44609L58.8477-2.01916C58.8477-1.98587 58.8367-1.96367 58.8257-1.94157C58.8147-1.91938 58.8038-1.89727 58.7817-1.88617C57.2881-0.800788 55.2675-0.180593 53.5433 0.373197C52.7745 0.61689 52.0057 0.827291 51.2259 1.0155C44.1315 2.64357 36.7184 2.24497 29.8327-0.125196C23.397-2.39557 16.8297-7.97769 15.2043-14.6894C14.3367-18.3221 13.7327-22.0102 13.3812-25.7315C12.8761-31.3358 12.8321-36.9399 12.6125-42.5662C12.4587-46.4869 12.5466-50.762 13.3593-54.6162C15.0725-62.4466 22.1011-67.9178 29.8106-69.0697C31.1505-69.269 33.6654-70 45.4054-70Z"/>
   <path class="monochrome-1 multicolor-1:white hierarchical-1:primary SFSymbolsPreviewFFFFFF" d="M30.1072-53.8185C27.8888-53.8185 26.0987-52.0022 26.0987-49.7428C26.0987-47.4946 27.8888-45.6671 30.1072-45.6671C32.3257-45.6671 34.1157-47.4946 34.1157-49.7428C34.1157-51.9911 32.3257-53.8185 30.1072-53.8185Z"/>
  </g>
  <g id="Semibold-S" transform="matrix(1 0 0 1 1997.37 696)">
   <path class="monochrome-0 multicolor-0:custom hierarchical-0:secondary SFSymbolsPreview563ACC" d="M46.0218-69.9995C56.3269-69.98 61.3405-69.3916 63.165-69.1363L63.3396-69.1115C63.4488-69.0958 63.5437-69.0817 63.6249-69.0697C71.543-67.8957 78.2314-61.7931 79.2635-54.0625L79.2746-54.0403C79.4719-52.0545 79.542-49.6393 79.5493-47.2647L79.5496-46.5168C79.5403-42.2923 79.3515-38.3567 79.3515-37.405L79.3512-37.3379C79.3465-36.6497 79.2848-32.8142 79.2635-32.399C78.5718-21.3457 71.7409-16.982 64.5584-15.5865C64.4596-15.5643 64.3387-15.5422 64.229-15.52C59.6714-14.623 54.7952-14.3904 50.1717-14.2574C49.0624-14.2242 47.9643-14.2242 46.855-14.2242C42.2535-14.2242 37.6629-14.778 33.1931-15.8634L33.1162-15.8634C33.0943-15.8523 33.0723-15.8412 33.0505-15.8302C33.0284-15.8191 33.0065-15.7969 33.0065-15.7748C32.9955-15.7526 32.9955-15.7305 32.9955-15.7083C33.1273-14.2464 33.4457-12.7954 33.94-11.411C34.5549-9.81626 36.7184-5.96192 44.7685-5.96192C49.4359-5.95082 54.1033-6.50461 58.65-7.60109L58.716-7.60109L58.7817-7.56789C58.8038-7.55679 58.8257-7.5346 58.8257-7.51249C58.8477-7.49039 58.8477-7.44609 58.8477-7.44609L58.8477-2.01916C58.8477-1.98587 58.8367-1.96367 58.8257-1.94157C58.8147-1.91938 58.8038-1.89727 58.7817-1.88617C57.2881-0.800788 55.2675-0.180593 53.5433 0.373197C52.7745 0.61689 52.0057 0.827291 51.2259 1.0155C44.1315 2.64357 36.7184 2.24497 29.8327-0.125196C23.397-2.39557 16.8297-7.97769 15.2043-14.6894C14.3367-18.3221 13.7327-22.0102 13.3812-25.7315C12.8761-31.3358 12.8321-36.9399 12.6125-42.5662C12.4587-46.4869 12.5466-50.762 13.3593-54.6162C15.0725-62.4466 22.1011-67.9178 29.8106-69.0697C31.1505-69.269 33.6654-70 45.4054-70Z"/>
   <path class="monochrome-1 multicolor-1:white hierarchical-1:primary SFSymbolsPreviewFFFFFF" d="M30.1072-53.8185C27.8888-53.8185 26.0987-52.0022 26.0987-49.7428C26.0987-47.4946 27.8888-45.6671 30.1072-45.6671C32.3257-45.6671 34.1157-47.4946 34.1157-49.7428C34.1157-51.9911 32.3257-53.8185 30.1072-53.8185Z"/>
  </g>
  <g id="Medium-S" transform="matrix(1 0 0 1 1700.66 696)">
   <path class="monochrome-0 multicolor-0:custom hierarchical-0:secondary SFSymbolsPreview563ACC" d="M46.0218-69.9995C56.3269-69.98 61.3405-69.3916 63.165-69.1363L63.3396-69.1115C63.4488-69.0958 63.5437-69.0817 63.6249-69.0697C71.543-67.8957 78.2314-61.7931 79.2635-54.0625L79.2746-54.0403C79.4719-52.0545 79.542-49.6393 79.5493-47.2647L79.5496-46.5168C79.5403-42.2923 79.3515-38.3567 79.3515-37.405L79.3512-37.3379C79.3465-36.6497 79.2848-32.8142 79.2635-32.399C78.5718-21.3457 71.7409-16.982 64.5584-15.5865C64.4596-15.5643 64.3387-15.5422 64.229-15.52C59.6714-14.623 54.7952-14.3904 50.1717-14.2574C49.0624-14.2242 47.9643-14.2242 46.855-14.2242C42.2535-14.2242 37.6629-14.778 33.1931-15.8634L33.1162-15.8634C33.0943-15.8523 33.0723-15.8412 33.0505-15.8302C33.0284-15.8191 33.0065-15.7969 33.0065-15.7748C32.9955-15.7526 32.9955-15.7305 32.9955-15.7083C33.1273-14.2464 33.4457-12.7954 33.94-11.411C34.5549-9.81626 36.7184-5.96192 44.7685-5.96192C49.4359-5.95082 54.1033-6.50461 58.65-7.60109L58.716-7.60109L58.7817-7.56789C58.8038-7.55679 58.8257-7.5346 58.8257-7.51249C58.8477-7.49039 58.8477-7.44609 58.8477-7.44609L58.8477-2.01916C58.8477-1.98587 58.8367-1.96367 58.8257-1.94157C58.8147-1.91938 58.8038-1.89727 58.7817-1.88617C57.2881-0.800788 55.2675-0.180593 53.5433 0.373197C52.7745 0.61689 52.0057 0.827291 51.2259 1.0155C44.1315 2.64357 36.7184 2.24497 29.8327-0.125196C23.397-2.39557 16.8297-7.97769 15.2043-14.6894C14.3367-18.3221 13.7327-22.0102 13.3812-25.7315C12.8761-31.3358 12.8321-36.9399 12.6125-42.5662C12.4587-46.4869 12.5466-50.762 13.3593-54.6162C15.0725-62.4466 22.1011-67.9178 29.8106-69.0697C31.1505-69.269 33.6654-70 45.4054-70Z"/>
   <path class="monochrome-1 multicolor-1:white hierarchical-1:primary SFSymbolsPreviewFFFFFF" d="M30.1072-53.8185C27.8888-53.8185 26.0987-52.0022 26.0987-49.7428C26.0987-47.4946 27.8888-45.6671 30.1072-45.6671C32.3257-45.6671 34.1157-47.4946 34.1157-49.7428C34.1157-51.9911 32.3257-53.8185 30.1072-53.8185Z"/>
  </g>
  <g id="Regular-S" transform="matrix(1 0 0 1 1403.95 696)">
   <path class="monochrome-0 multicolor-0:custom hierarchical-0:secondary SFSymbolsPreview563ACC" d="M46.0218-69.9995C56.3269-69.98 61.3405-69.3916 63.165-69.1363L63.3396-69.1115C63.4488-69.0958 63.5437-69.0817 63.6249-69.0697C71.543-67.8957 78.2314-61.7931 79.2635-54.0625L79.2746-54.0403C79.4719-52.0545 79.542-49.6393 79.5493-47.2647L79.5496-46.5168C79.5403-42.2923 79.3515-38.3567 79.3515-37.405L79.3512-37.3379C79.3465-36.6497 79.2848-32.8142 79.2635-32.399C78.5718-21.3457 71.7409-16.982 64.5584-15.5865C64.4596-15.5643 64.3387-15.5422 64.229-15.52C59.6714-14.623 54.7952-14.3904 50.1717-14.2574C49.0624-14.2242 47.9643-14.2242 46.855-14.2242C42.2535-14.2242 37.6629-14.778 33.1931-15.8634L33.1162-15.8634C33.0943-15.8523 33.0723-15.8412 33.0505-15.8302C33.0284-15.8191 33.0065-15.7969 33.0065-15.7748C32.9955-15.7526 32.9955-15.7305 32.9955-15.7083C33.1273-14.2464 33.4457-12.7954 33.94-11.411C34.5549-9.81626 36.7184-5.96192 44.7685-5.96192C49.4359-5.95082 54.1033-6.50461 58.65-7.60109L58.716-7.60109L58.7817-7.56789C58.8038-7.55679 58.8257-7.5346 58.8257-7.51249C58.8477-7.49039 58.8477-7.44609 58.8477-7.44609L58.8477-2.01916C58.8477-1.98587 58.8367-1.96367 58.8257-1.94157C58.8147-1.91938 58.8038-1.89727 58.7817-1.88617C57.2881-0.800788 55.2675-0.180593 53.5433 0.373197C52.7745 0.61689 52.0057 0.827291 51.2259 1.0155C44.1315 2.64357 36.7184 2.24497 29.8327-0.125196C23.397-2.39557 16.8297-7.97769 15.2043-14.6894C14.3367-18.3221 13.7327-22.0102 13.3812-25.7315C12.8761-31.3358 12.8321-36.9399 12.6125-42.5662C12.4587-46.4869 12.5466-50.762 13.3593-54.6162C15.0725-62.4466 22.1011-67.9178 29.8106-69.0697C31.1505-69.269 33.6654-70 45.4054-70Z"/>
   <path class="monochrome-1 multicolor-1:white hierarchical-1:primary SFSymbolsPreviewFFFFFF" d="M30.1072-53.8185C27.8888-53.8185 26.0987-52.0022 26.0987-49.7428C26.0987-47.4946 27.8888-45.6671 30.1072-45.6671C32.3257-45.6671 34.1157-47.4946 34.1157-49.7428C34.1157-51.9911 32.3257-53.8185 30.1072-53.8185Z"/>
  </g>
  <g id="Light-S" transform="matrix(1 0 0 1 1107.24 696)">
   <path class="monochrome-0 multicolor-0:custom hierarchical-0:secondary SFSymbolsPreview563ACC" d="M46.0218-69.9995C56.3269-69.98 61.3405-69.3916 63.165-69.1363L63.3396-69.1115C63.4488-69.0958 63.5437-69.0817 63.6249-69.0697C71.543-67.8957 78.2314-61.7931 79.2635-54.0625L79.2746-54.0403C79.4719-52.0545 79.542-49.6393 79.5493-47.2647L79.5496-46.5168C79.5403-42.2923 79.3515-38.3567 79.3515-37.405L79.3512-37.3379C79.3465-36.6497 79.2848-32.8142 79.2635-32.399C78.5718-21.3457 71.7409-16.982 64.5584-15.5865C64.4596-15.5643 64.3387-15.5422 64.229-15.52C59.6714-14.623 54.7952-14.3904 50.1717-14.2574C49.0624-14.2242 47.9643-14.2242 46.855-14.2242C42.2535-14.2242 37.6629-14.778 33.1931-15.8634L33.1162-15.8634C33.0943-15.8523 33.0723-15.8412 33.0505-15.8302C33.0284-15.8191 33.0065-15.7969 33.0065-15.7748C32.9955-15.7526 32.9955-15.7305 32.9955-15.7083C33.1273-14.2464 33.4457-12.7954 33.94-11.411C34.5549-9.81626 36.7184-5.96192 44.7685-5.96192C49.4359-5.95082 54.1033-6.50461 58.65-7.60109L58.716-7.60109L58.7817-7.56789C58.8038-7.55679 58.8257-7.5346 58.8257-7.51249C58.8477-7.49039 58.8477-7.44609 58.8477-7.44609L58.8477-2.01916C58.8477-1.98587 58.8367-1.96367 58.8257-1.94157C58.8147-1.91938 58.8038-1.89727 58.7817-1.88617C57.2881-0.800788 55.2675-0.180593 53.5433 0.373197C52.7745 0.61689 52.0057 0.827291 51.2259 1.0155C44.1315 2.64357 36.7184 2.24497 29.8327-0.125196C23.397-2.39557 16.8297-7.97769 15.2043-14.6894C14.3367-18.3221 13.7327-22.0102 13.3812-25.7315C12.8761-31.3358 12.8321-36.9399 12.6125-42.5662C12.4587-46.4869 12.5466-50.762 13.3593-54.6162C15.0725-62.4466 22.1011-67.9178 29.8106-69.0697C31.1505-69.269 33.6654-70 45.4054-70Z"/>
   <path class="monochrome-1 multicolor-1:white hierarchical-1:primary SFSymbolsPreviewFFFFFF" d="M30.1072-53.8185C27.8888-53.8185 26.0987-52.0022 26.0987-49.7428C26.0987-47.4946 27.8888-45.6671 30.1072-45.6671C32.3257-45.6671 34.1157-47.4946 34.1157-49.7428C34.1157-51.9911 32.3257-53.8185 30.1072-53.8185Z"/>
  </g>
  <g id="Thin-S" transform="matrix(1 0 0 1 810.528 696)">
   <path class="monochrome-0 multicolor-0:custom hierarchical-0:secondary SFSymbolsPreview563ACC" d="M46.0218-69.9995C56.3269-69.98 61.3405-69.3916 63.165-69.1363L63.3396-69.1115C63.4488-69.0958 63.5437-69.0817 63.6249-69.0697C71.543-67.8957 78.2314-61.7931 79.2635-54.0625L79.2746-54.0403C79.4719-52.0545 79.542-49.6393 79.5493-47.2647L79.5496-46.5168C79.5403-42.2923 79.3515-38.3567 79.3515-37.405L79.3512-37.3379C79.3465-36.6497 79.2848-32.8142 79.2635-32.399C78.5718-21.3457 71.7409-16.982 64.5584-15.5865C64.4596-15.5643 64.3387-15.5422 64.229-15.52C59.6714-14.623 54.7952-14.3904 50.1717-14.2574C49.0624-14.2242 47.9643-14.2242 46.855-14.2242C42.2535-14.2242 37.6629-14.778 33.1931-15.8634L33.1162-15.8634C33.0943-15.8523 33.0723-15.8412 33.0505-15.8302C33.0284-15.8191 33.0065-15.7969 33.0065-15.7748C32.9955-15.7526 32.9955-15.7305 32.9955-15.7083C33.1273-14.2464 33.4457-12.7954 33.94-11.411C34.5549-9.81626 36.7184-5.96192 44.7685-5.96192C49.4359-5.95082 54.1033-6.50461 58.65-7.60109L58.716-7.60109L58.7817-7.56789C58.8038-7.55679 58.8257-7.5346 58.8257-7.51249C58.8477-7.49039 58.8477-7.44609 58.8477-7.44609L58.8477-2.01916C58.8477-1.98587 58.8367-1.96367 58.8257-1.94157C58.8147-1.91938 58.8038-1.89727 58.7817-1.88617C57.2881-0.800788 55.2675-0.180593 53.5433 0.373197C52.7745 0.61689 52.0057 0.827291 51.2259 1.0155C44.1315 2.64357 36.7184 2.24497 29.8327-0.125196C23.397-2.39557 16.8297-7.97769 15.2043-14.6894C14.3367-18.3221 13.7327-22.0102 13.3812-25.7315C12.8761-31.3358 12.8321-36.9399 12.6125-42.5662C12.4587-46.4869 12.5466-50.762 13.3593-54.6162C15.0725-62.4466 22.1011-67.9178 29.8106-69.0697C31.1505-69.269 33.6654-70 45.4054-70Z"/>
   <path class="monochrome-1 multicolor-1:white hierarchical-1:primary SFSymbolsPreviewFFFFFF" d="M30.1072-53.8185C27.8888-53.8185 26.0987-52.0022 26.0987-49.7428C26.0987-47.4946 27.8888-45.6671 30.1072-45.6671C32.3257-45.6671 34.1157-47.4946 34.1157-49.7428C34.1157-51.9911 32.3257-53.8185 30.1072-53.8185Z"/>
  </g>
  <g id="Ultralight-S" transform="matrix(1 0 0 1 513.817 696)">
   <path class="monochrome-0 multicolor-0:custom hierarchical-0:secondary SFSymbolsPreview563ACC" d="M46.0218-69.9995C56.3269-69.98 61.3405-69.3916 63.165-69.1363L63.3396-69.1115C63.4488-69.0958 63.5437-69.0817 63.6249-69.0697C71.543-67.8957 78.2314-61.7931 79.2635-54.0625L79.2746-54.0403C79.4719-52.0545 79.542-49.6393 79.5493-47.2647L79.5496-46.5168C79.5403-42.2923 79.3515-38.3567 79.3515-37.405L79.3512-37.3379C79.3465-36.6497 79.2848-32.8142 79.2635-32.399C78.5718-21.3457 71.7409-16.982 64.5584-15.5865C64.4596-15.5643 64.3387-15.5422 64.229-15.52C59.6714-14.623 54.7952-14.3904 50.1717-14.2574C49.0624-14.2242 47.9643-14.2242 46.855-14.2242C42.2535-14.2242 37.6629-14.778 33.1931-15.8634L33.1162-15.8634C33.0943-15.8523 33.0723-15.8412 33.0505-15.8302C33.0284-15.8191 33.0065-15.7969 33.0065-15.7748C32.9955-15.7526 32.9955-15.7305 32.9955-15.7083C33.1273-14.2464 33.4457-12.7954 33.94-11.411C34.5549-9.81626 36.7184-5.96192 44.7685-5.96192C49.4359-5.95082 54.1033-6.50461 58.65-7.60109L58.716-7.60109L58.7817-7.56789C58.8038-7.55679 58.8257-7.5346 58.8257-7.51249C58.8477-7.49039 58.8477-7.44609 58.8477-7.44609L58.8477-2.01916C58.8477-1.98587 58.8367-1.96367 58.8257-1.94157C58.8147-1.91938 58.8038-1.89727 58.7817-1.88617C57.2881-0.800788 55.2675-0.180593 53.5433 0.373197C52.7745 0.61689 52.0057 0.827291 51.2259 1.0155C44.1315 2.64357 36.7184 2.24497 29.8327-0.125196C23.397-2.39557 16.8297-7.97769 15.2043-14.6894C14.3367-18.3221 13.7327-22.0102 13.3812-25.7315C12.8761-31.3358 12.8321-36.9399 12.6125-42.5662C12.4587-46.4869 12.5466-50.762 13.3593-54.6162C15.0725-62.4466 22.1011-67.9178 29.8106-69.0697C31.1505-69.269 33.6654-70 45.4054-70Z"/>
   <path class="monochrome-1 multicolor-1:white hierarchical-1:primary SFSymbolsPreviewFFFFFF" d="M30.1072-53.8185C27.8888-53.8185 26.0987-52.0022 26.0987-49.7428C26.0987-47.4946 27.8888-45.6671 30.1072-45.6671C32.3257-45.6671 34.1157-47.4946 34.1157-49.7428C34.1157-51.9911 32.3257-53.8185 30.1072-53.8185Z"/>
  </g>
 </g>
</svg>
