<?xml version="1.0" encoding="UTF-8"?>
<!--Generator: Apple Native CoreSVG 175.5-->
<!DOCTYPE svg
PUBLIC "-//W3C//DTD SVG 1.1//EN"
       "http://www.w3.org/Graphics/SVG/1.1/DTD/svg11.dtd">
<svg version="1.1" xmlns="http://www.w3.org/2000/svg" xmlns:xlink="http://www.w3.org/1999/xlink" width="3300" height="2200">
 <!--glyph: "", point size: 100.0, font version: "18.0d12e2", template writer version: "101"-->
 <style>.monochrome-0 {fill:#000000}
.monochrome-1 {fill:#FFFFFF;opacity:0.0;-sfsymbols-clear-behind:true}

.multicolor-0:custom {fill:#D9252A}
.multicolor-1:white {fill:#FFFFFF}

.hierarchical-0:secondary {fill:#4D4D4D}
.hierarchical-1:primary {fill:#212121}

.SFSymbolsPreviewD9252A {fill:#D9252A;opacity:1.0}
.SFSymbolsPreviewFFFFFF {fill:#FFFFFF;opacity:1.0}
</style>
 <g id="Notes">
  <rect height="2200" id="artboard" style="fill:white;opacity:1" width="3300" x="0" y="0"/>
  <line style="fill:none;stroke:black;opacity:1;stroke-width:0.5;" x1="263" x2="3036" y1="292" y2="292"/>
  <text style="stroke:none;fill:black;font-family:sans-serif;font-size:13;font-weight:bold;" transform="matrix(1 0 0 1 263 322)">Weight/Scale Variations</text>
  <text style="stroke:none;fill:black;font-family:sans-serif;font-size:13;text-anchor:middle;" transform="matrix(1 0 0 1 559.711 322)">Ultralight</text>
  <text style="stroke:none;fill:black;font-family:sans-serif;font-size:13;text-anchor:middle;" transform="matrix(1 0 0 1 856.422 322)">Thin</text>
  <text style="stroke:none;fill:black;font-family:sans-serif;font-size:13;text-anchor:middle;" transform="matrix(1 0 0 1 1153.13 322)">Light</text>
  <text style="stroke:none;fill:black;font-family:sans-serif;font-size:13;text-anchor:middle;" transform="matrix(1 0 0 1 1449.84 322)">Regular</text>
  <text style="stroke:none;fill:black;font-family:sans-serif;font-size:13;text-anchor:middle;" transform="matrix(1 0 0 1 1746.56 322)">Medium</text>
  <text style="stroke:none;fill:black;font-family:sans-serif;font-size:13;text-anchor:middle;" transform="matrix(1 0 0 1 2043.27 322)">Semibold</text>
  <text style="stroke:none;fill:black;font-family:sans-serif;font-size:13;text-anchor:middle;" transform="matrix(1 0 0 1 2339.98 322)">Bold</text>
  <text style="stroke:none;fill:black;font-family:sans-serif;font-size:13;text-anchor:middle;" transform="matrix(1 0 0 1 2636.69 322)">Heavy</text>
  <text style="stroke:none;fill:black;font-family:sans-serif;font-size:13;text-anchor:middle;" transform="matrix(1 0 0 1 2933.4 322)">Black</text>
  <line style="fill:none;stroke:black;opacity:1;stroke-width:0.5;" x1="263" x2="3036" y1="1903" y2="1903"/>
  <g transform="matrix(1 0 0 1 263 1933)">
   <path d="M9.24805 0.830078C13.5547 0.830078 17.1387-2.74414 17.1387-7.05078C17.1387-11.3574 13.5449-14.9316 9.23828-14.9316C4.94141-14.9316 1.36719-11.3574 1.36719-7.05078C1.36719-2.74414 4.95117 0.830078 9.24805 0.830078ZM9.24805-0.654297C5.70312-0.654297 2.87109-3.49609 2.87109-7.05078C2.87109-10.6055 5.69336-13.4473 9.23828-13.4473C12.793-13.4473 15.6445-10.6055 15.6445-7.05078C15.6445-3.49609 12.8027-0.654297 9.24805-0.654297ZM5.6543-7.05078C5.6543-6.62109 5.95703-6.32812 6.40625-6.32812L8.50586-6.32812L8.50586-4.20898C8.50586-3.76953 8.79883-3.4668 9.22852-3.4668C9.67773-3.4668 9.9707-3.76953 9.9707-4.20898L9.9707-6.32812L12.0898-6.32812C12.5293-6.32812 12.832-6.62109 12.832-7.05078C12.832-7.49023 12.5293-7.79297 12.0898-7.79297L9.9707-7.79297L9.9707-9.90234C9.9707-10.3516 9.67773-10.6543 9.22852-10.6543C8.79883-10.6543 8.50586-10.3516 8.50586-9.90234L8.50586-7.79297L6.40625-7.79297C5.95703-7.79297 5.6543-7.49023 5.6543-7.05078Z"/>
  </g>
  <g transform="matrix(1 0 0 1 281.867 1933)">
   <path d="M11.709 2.91016C17.1582 2.91016 21.6699-1.61133 21.6699-7.05078C21.6699-12.5 17.1484-17.0117 11.6992-17.0117C6.25977-17.0117 1.74805-12.5 1.74805-7.05078C1.74805-1.61133 6.26953 2.91016 11.709 2.91016ZM11.709 1.25C7.09961 1.25 3.41797-2.44141 3.41797-7.05078C3.41797-11.6602 7.08984-15.3516 11.6992-15.3516C16.3086-15.3516 20.0098-11.6602 20.0098-7.05078C20.0098-2.44141 16.3184 1.25 11.709 1.25ZM7.17773-7.05078C7.17773-6.57227 7.50977-6.25 8.00781-6.25L10.8789-6.25L10.8789-3.36914C10.8789-2.88086 11.2109-2.53906 11.6895-2.53906C12.1777-2.53906 12.5195-2.87109 12.5195-3.36914L12.5195-6.25L15.4004-6.25C15.8887-6.25 16.2305-6.57227 16.2305-7.05078C16.2305-7.53906 15.8887-7.88086 15.4004-7.88086L12.5195-7.88086L12.5195-10.752C12.5195-11.25 12.1777-11.5918 11.6895-11.5918C11.2109-11.5918 10.8789-11.25 10.8789-10.752L10.8789-7.88086L8.00781-7.88086C7.50977-7.88086 7.17773-7.53906 7.17773-7.05078Z"/>
  </g>
  <g transform="matrix(1 0 0 1 305.646 1933)">
   <path d="M14.9707 5.66406C21.9336 5.66406 27.6953-0.0976562 27.6953-7.05078C27.6953-14.0137 21.9238-19.7754 14.9609-19.7754C8.00781-19.7754 2.25586-14.0137 2.25586-7.05078C2.25586-0.0976562 8.01758 5.66406 14.9707 5.66406ZM14.9707 3.84766C8.93555 3.84766 4.08203-1.01562 4.08203-7.05078C4.08203-13.0957 8.92578-17.9492 14.9609-17.9492C21.0059-17.9492 25.8691-13.0957 25.8691-7.05078C25.8691-1.01562 21.0156 3.84766 14.9707 3.84766ZM9.19922-7.05078C9.19922-6.5332 9.57031-6.17188 10.1172-6.17188L14.0625-6.17188L14.0625-2.2168C14.0625-1.67969 14.4336-1.29883 14.9512-1.29883C15.4883-1.29883 15.8594-1.66992 15.8594-2.2168L15.8594-6.17188L19.8145-6.17188C20.3516-6.17188 20.7324-6.5332 20.7324-7.05078C20.7324-7.59766 20.3613-7.96875 19.8145-7.96875L15.8594-7.96875L15.8594-11.9141C15.8594-12.4609 15.4883-12.8418 14.9512-12.8418C14.4336-12.8418 14.0625-12.4609 14.0625-11.9141L14.0625-7.96875L10.1172-7.96875C9.57031-7.96875 9.19922-7.59766 9.19922-7.05078Z"/>
  </g>
  <text style="stroke:none;fill:black;font-family:sans-serif;font-size:13;font-weight:bold;" transform="matrix(1 0 0 1 263 1953)">Design Variations</text>
  <text style="stroke:none;fill:black;font-family:sans-serif;font-size:13;" transform="matrix(1 0 0 1 263 1971)">Symbols are supported in up to nine weights and three scales.</text>
  <text style="stroke:none;fill:black;font-family:sans-serif;font-size:13;" transform="matrix(1 0 0 1 263 1989)">For optimal layout with text and other symbols, vertically align</text>
  <text style="stroke:none;fill:black;font-family:sans-serif;font-size:13;" transform="matrix(1 0 0 1 263 2007)">symbols with the adjacent text.</text>
  <line style="fill:none;stroke:#00AEEF;stroke-width:0.5;opacity:1.0;" x1="776" x2="776" y1="1919" y2="1933"/>
  <g transform="matrix(1 0 0 1 776 1933)">
   <path d="M3.31055 0.15625C3.82812 0.15625 4.08203-0.0390625 4.26758-0.585938L5.52734-4.0332L11.2891-4.0332L12.5488-0.585938C12.7344-0.0390625 12.9883 0.15625 13.4961 0.15625C14.0137 0.15625 14.3457-0.15625 14.3457-0.644531C14.3457-0.810547 14.3164-0.966797 14.2383-1.17188L9.6582-13.3691C9.43359-13.9648 9.0332-14.2676 8.4082-14.2676C7.80273-14.2676 7.39258-13.9746 7.17773-13.3789L2.59766-1.16211C2.51953-0.957031 2.49023-0.800781 2.49023-0.634766C2.49023-0.146484 2.80273 0.15625 3.31055 0.15625ZM6.00586-5.51758L8.37891-12.0898L8.42773-12.0898L10.8008-5.51758Z"/>
  </g>
  <line style="fill:none;stroke:#00AEEF;stroke-width:0.5;opacity:1.0;" x1="793.197" x2="793.197" y1="1919" y2="1933"/>
  <text style="stroke:none;fill:black;font-family:sans-serif;font-size:13;font-weight:bold;" transform="matrix(1 0 0 1 776 1953)">Margins</text>
  <text style="stroke:none;fill:black;font-family:sans-serif;font-size:13;" transform="matrix(1 0 0 1 776 1971)">Leading and trailing margins on the left and right side of each symbol</text>
  <text style="stroke:none;fill:black;font-family:sans-serif;font-size:13;" transform="matrix(1 0 0 1 776 1989)">can be adjusted by modifying the x-location of the margin guidelines.</text>
  <text style="stroke:none;fill:black;font-family:sans-serif;font-size:13;" transform="matrix(1 0 0 1 776 2007)">Modifications are automatically applied proportionally to all</text>
  <text style="stroke:none;fill:black;font-family:sans-serif;font-size:13;" transform="matrix(1 0 0 1 776 2025)">scales and weights.</text>
  <g transform="matrix(1 0 0 1 1289 1933)">
   <path d="M2.8418 1.86523L4.54102 3.57422C5.40039 4.44336 6.38672 4.38477 7.31445 3.35938L18.0078-8.42773L17.041-9.4043L6.42578 2.27539C6.07422 2.67578 5.74219 2.77344 5.27344 2.30469L4.10156 1.14258C3.63281 0.683594 3.74023 0.341797 4.14062-0.0195312L15.6152-10.8203L14.6387-11.7871L3.04688-0.898438C2.06055 0.0195312 1.98242 0.996094 2.8418 1.86523ZM9.25781-16.3281C8.83789-15.918 8.80859-15.3418 9.04297-14.9512C9.27734-14.5898 9.73633-14.3555 10.3809-14.5215C11.8457-14.8633 13.3691-14.9219 14.7949-13.9844L14.209-12.5293C13.8672-11.6992 14.043-11.1133 14.5801-10.5664L16.875-8.25195C17.3633-7.76367 17.7734-7.74414 18.3398-7.8418L19.4043-8.03711L20.0684-7.36328L20.0293-6.80664C19.9902-6.30859 20.1172-5.92773 20.6055-5.44922L21.3672-4.70703C21.8457-4.22852 22.4609-4.19922 22.9297-4.66797L25.8398-7.58789C26.3086-8.05664 26.2891-8.65234 25.8105-9.13086L25.0391-9.89258C24.5605-10.3711 24.1895-10.5273 23.7109-10.4883L23.1348-10.4395L22.4902-11.0742L22.7344-12.1973C22.8613-12.7637 22.7051-13.2031 22.1191-13.7891L19.9219-15.9766C16.582-19.2969 12.1484-19.2188 9.25781-16.3281ZM10.752-15.957C13.1836-17.7344 16.4746-17.4316 18.7012-15.2051L21.1328-12.793C21.3672-12.5586 21.4062-12.373 21.3379-12.0312L21.0156-10.5469L22.5195-9.0625L23.5059-9.12109C23.7598-9.13086 23.8379-9.11133 24.0332-8.91602L24.6094-8.33984L22.168-5.89844L21.5918-6.47461C21.3965-6.66992 21.3672-6.74805 21.377-7.01172L21.4453-7.98828L19.9512-9.47266L18.4277-9.21875C18.1055-9.15039 17.959-9.17969 17.7148-9.41406L15.7129-11.416C15.459-11.6504 15.4297-11.8164 15.5859-12.1875L16.4648-14.2773C14.9023-15.7324 12.8711-16.3574 10.8398-15.7617C10.6836-15.7227 10.625-15.8496 10.752-15.957Z"/>
  </g>
  <text style="stroke:none;fill:black;font-family:sans-serif;font-size:13;font-weight:bold;" transform="matrix(1 0 0 1 1289 1953)">Exporting</text>
  <text style="stroke:none;fill:black;font-family:sans-serif;font-size:13;" transform="matrix(1 0 0 1 1289 1971)">Symbols should be outlined when exporting to ensure the</text>
  <text style="stroke:none;fill:black;font-family:sans-serif;font-size:13;" transform="matrix(1 0 0 1 1289 1989)">design is preserved when submitting to Xcode.</text>
  <text id="template-version" style="stroke:none;fill:black;font-family:sans-serif;font-size:13;text-anchor:end;" transform="matrix(1 0 0 1 3036 1933)">Template v.4.0</text>
  <text style="stroke:none;fill:black;font-family:sans-serif;font-size:13;text-anchor:end;" transform="matrix(1 0 0 1 3036 1951)">Requires Xcode 14 or greater</text>
  <text id="descriptive-name" style="stroke:none;fill:black;font-family:sans-serif;font-size:13;text-anchor:end;" transform="matrix(1 0 0 1 3036 1969)">Generated from youtube.fill</text>
  <text style="stroke:none;fill:black;font-family:sans-serif;font-size:13;text-anchor:end;" transform="matrix(1 0 0 1 3036 1987)">Typeset at 100 points</text>
  <text style="stroke:none;fill:black;font-family:sans-serif;font-size:13;" transform="matrix(1 0 0 1 263 726)">Small</text>
  <text style="stroke:none;fill:black;font-family:sans-serif;font-size:13;" transform="matrix(1 0 0 1 263 1156)">Medium</text>
  <text style="stroke:none;fill:black;font-family:sans-serif;font-size:13;" transform="matrix(1 0 0 1 263 1586)">Large</text>
 </g>
 <g id="Guides">
  <g id="H-reference" style="fill:#27AAE1;stroke:none;" transform="matrix(1 0 0 1 339 696)">
   <path d="M0.993654 0L3.63775 0L29.3281-67.1323L30.0303-67.1323L30.0303-70.459L28.1226-70.459ZM11.6885-24.4799L46.9815-24.4799L46.2315-26.7285L12.4385-26.7285ZM55.1196 0L57.7637 0L30.6382-70.459L29.4326-70.459L29.4326-67.1323Z"/>
  </g>
  <line id="Baseline-S" style="fill:none;stroke:#27AAE1;opacity:1;stroke-width:0.5;" x1="263" x2="3036" y1="696" y2="696"/>
  <line id="Capline-S" style="fill:none;stroke:#27AAE1;opacity:1;stroke-width:0.5;" x1="263" x2="3036" y1="625.541" y2="625.541"/>
  <g id="H-reference" style="fill:#27AAE1;stroke:none;" transform="matrix(1 0 0 1 339 1126)">
   <path d="M0.993654 0L3.63775 0L29.3281-67.1323L30.0303-67.1323L30.0303-70.459L28.1226-70.459ZM11.6885-24.4799L46.9815-24.4799L46.2315-26.7285L12.4385-26.7285ZM55.1196 0L57.7637 0L30.6382-70.459L29.4326-70.459L29.4326-67.1323Z"/>
  </g>
  <line id="Baseline-M" style="fill:none;stroke:#27AAE1;opacity:1;stroke-width:0.5;" x1="263" x2="3036" y1="1126" y2="1126"/>
  <line id="Capline-M" style="fill:none;stroke:#27AAE1;opacity:1;stroke-width:0.5;" x1="263" x2="3036" y1="1055.54" y2="1055.54"/>
  <g id="H-reference" style="fill:#27AAE1;stroke:none;" transform="matrix(1 0 0 1 339 1556)">
   <path d="M0.993654 0L3.63775 0L29.3281-67.1323L30.0303-67.1323L30.0303-70.459L28.1226-70.459ZM11.6885-24.4799L46.9815-24.4799L46.2315-26.7285L12.4385-26.7285ZM55.1196 0L57.7637 0L30.6382-70.459L29.4326-70.459L29.4326-67.1323Z"/>
  </g>
  <line id="Baseline-L" style="fill:none;stroke:#27AAE1;opacity:1;stroke-width:0.5;" x1="263" x2="3036" y1="1556" y2="1556"/>
  <line id="Capline-L" style="fill:none;stroke:#27AAE1;opacity:1;stroke-width:0.5;" x1="263" x2="3036" y1="1485.54" y2="1485.54"/>
  <line id="left-margin-Regular-M" style="fill:none;stroke:#00AEEF;stroke-width:0.5;opacity:1.0;" x1="1379.84" x2="1379.84" y1="1030.79" y2="1150.12"/>
  <line id="right-margin-Regular-M" style="fill:none;stroke:#00AEEF;stroke-width:0.5;opacity:1.0;" x1="1519.85" x2="1519.85" y1="1030.79" y2="1150.12"/>
 </g>
 <g id="Symbols">
  <g id="Black-L" transform="matrix(1 0 0 1 2845.39 1556)">
   <path class="monochrome-0 multicolor-0:custom hierarchical-0:secondary SFSymbolsPreviewD9252A" d="M88.8259-88.8002C92.1986-88.7903 104.928-88.7216 117.87-88.2405L119.488-88.1782C130.814-87.7267 142.011-86.9482 146.955-85.6059C153.456-83.8443 158.565-78.6729 160.305-72.0923C163.261-60.8918 163.45-38.2398 163.462-35.5619L163.463-35.3675C163.463-35.353 163.463-35.3407 163.463-35.3309L163.463-35.2353C163.463-35.2207 163.463-35.2037 163.462-35.1844L163.462-34.9487C163.447-31.8823 163.242-9.59177 160.305 1.48974C158.565 8.07029 153.456 13.2416 146.955 15.0029C141.894 16.3772 130.277 17.1606 118.679 17.6071L117.061 17.6672C103.863 18.141 91.0846 18.1927 88.4537 18.1983L88.1829 18.1988C88.1465 18.1988 88.1144 18.1989 88.0868 18.1989L87.9055 18.199C87.887 18.1989 87.8639 18.1989 87.8363 18.1989L87.4694 18.1983C82.4225 18.1875 40.0333 18.0072 28.9682 15.0029C22.4673 13.2416 17.3585 8.07029 15.6182 1.48974C14.6395-2.20409 13.9641-7.14338 13.4982-12.201L13.4106-13.181L13.328-14.1622L13.2504-15.1427C13.2379-15.306 13.2256-15.4692 13.2134-15.6322L13.1429-16.6083C12.5633-24.8855 12.4763-32.5972 12.4633-34.7245L12.4616-35.0409C12.4615-35.0694 12.4614-35.0956 12.4614-35.1196L12.4614-35.4832C12.4614-35.5072 12.4615-35.5334 12.4616-35.5619L12.4633-35.8783C12.4781-38.2975 12.5885-47.9394 13.4106-57.4217L13.4982-58.4017C13.9641-63.4593 14.6395-68.3985 15.6182-72.0923C17.3585-78.6729 22.4673-83.8443 28.9682-85.6059C34.1476-87.0121 46.1902-87.7995 58.0537-88.2405L59.6697-88.2985C72.0402-88.7272 83.8651-88.7907 87.0972-88.8002Z"/>
   <path class="monochrome-1 multicolor-1:white hierarchical-1:primary SFSymbolsPreviewFFFFFF" d="M72.8472-58.2246L72.8472-12.3743L112.077-35.2993L72.8472-58.2246Z"/>
  </g>
  <g id="Heavy-L" transform="matrix(1 0 0 1 2548.68 1556)">
   <path class="monochrome-0 multicolor-0:custom hierarchical-0:secondary SFSymbolsPreviewD9252A" d="M88.0859-88.8954C88.1135-88.8954 88.1456-88.8953 88.1821-88.8953L88.825-88.8939C95.2893-88.875 136.125-88.6398 146.954-85.6996C153.455-83.938 158.564-78.7666 160.304-72.186C163.291-60.8662 163.452-37.8501 163.461-35.5767L163.461-35.2131C163.453-32.9397 163.303-9.92349 160.304 1.39638C158.564 7.97695 153.455 13.1483 146.954 14.9096C135.889 17.9139 93.4997 18.0942 88.4528 18.105L88.1821 18.1055C88.1456 18.1055 88.1135 18.1056 88.0859 18.1056L87.8354 18.1056C87.8078 18.1056 87.7758 18.1055 87.7393 18.1055L87.4685 18.105C82.4217 18.0942 40.0328 17.9139 28.9678 14.9096C22.4669 13.1483 17.3581 7.97695 15.6179 1.39638C12.6501-9.80433 12.472-32.4565 12.4614-35.1344L12.4614-35.6554C12.4684-37.4217 12.5483-47.8775 13.4534-58.0055L13.5436-58.9844C14.0077-63.8703 14.6707-68.6113 15.6179-72.186C17.3581-78.7666 22.4669-83.938 28.9678-85.6996C39.7974-88.6398 80.6321-88.875 87.0964-88.8939L87.7393-88.8953C87.7758-88.8953 87.8078-88.8954 87.8354-88.8954Z"/>
   <path class="monochrome-1 multicolor-1:white hierarchical-1:primary SFSymbolsPreviewFFFFFF" d="M72.8464-58.3181L72.8464-12.4678L112.076-35.3928L72.8464-58.3181Z"/>
  </g>
  <g id="Bold-L" transform="matrix(1 0 0 1 2252.47 1556)">
   <path class="monochrome-0 multicolor-0:custom hierarchical-0:secondary SFSymbolsPreviewD9252A" d="M88.3203-88.7642C94.7418-88.7453 135.307-88.5101 146.065-85.5699C152.522-83.8083 157.598-78.6369 159.326-72.0563C162.232-60.9749 162.446-38.6845 162.462-35.6181L162.462-35.4473C162.462-35.4234 162.463-35.4017 162.463-35.3824L162.463-35.1485C162.463-35.1292 162.463-35.1075 162.462-35.0836L162.462-34.9128C162.453-33.0993 162.378-24.5622 161.715-15.5962L161.641-14.6167C161.178-8.73316 160.455-2.76394 159.326 1.52567C157.598 8.10621 152.522 13.2776 146.065 15.0388C135.073 18.0431 92.964 18.2234 87.9505 18.2342L87.4756 18.2349L87.4616 18.2349C87.4616 18.2349 87.4569 18.2349 87.4476 18.2349L86.9728 18.2342C81.9593 18.2234 39.8507 18.0431 28.8589 15.0388C22.401 13.2776 17.326 8.10621 15.5973 1.52567C14.5623-2.40647 13.8689-7.74996 13.4043-13.1451L13.3223-14.1263C13.2825-14.6169 13.2446-15.1072 13.2084-15.5962L13.1384-16.5723C12.5626-24.8496 12.4762-32.5613 12.4633-34.6886L12.4616-35.005C12.4615-35.0335 12.4614-35.0597 12.4614-35.0836L12.4614-35.4473C12.4614-35.4712 12.4615-35.4974 12.4616-35.5259L12.4633-35.8423C12.4864-39.638 12.7432-61.2133 15.5973-72.0563C17.326-78.6369 22.401-83.8083 28.8589-85.5699C33.7701-86.9122 44.8935-87.6907 56.1444-88.1422L57.7519-88.2045C70.6082-88.6856 83.2527-88.7543 86.603-88.7642Z"/>
   <path class="monochrome-1 multicolor-1:white hierarchical-1:primary SFSymbolsPreviewFFFFFF" d="M72.4473-58.1886L72.4473-12.3384L111.417-35.2633L72.4473-58.1886Z"/>
  </g>
  <g id="Semibold-L" transform="matrix(1 0 0 1 1956.26 1556)">
   <path class="monochrome-0 multicolor-0:custom hierarchical-0:secondary SFSymbolsPreviewD9252A" d="M87.0841-88.9875C87.1113-88.9875 87.143-88.9874 87.1789-88.9874L87.8134-88.986C94.1921-88.9673 134.486-88.7343 145.172-85.8215C151.587-84.0764 156.628-78.9534 158.345-72.4342C161.262-61.3383 161.448-38.8979 161.46-36.245L161.461-36.0525C161.461-36.0381 161.461-36.026 161.461-36.0163L161.461-35.9577C161.461-35.948 161.461-35.9359 161.461-35.9215L161.46-35.6376C161.446-32.5999 161.243-10.5175 158.345 0.460443C156.628 6.97951 151.587 12.1026 145.172 13.8473C134.254 16.8236 92.4261 17.0022 87.4461 17.0129L87.0841 17.0135C87.0569 17.0135 87.0341 17.0135 87.0157 17.0136L86.9052 17.0136C86.8869 17.0135 86.8641 17.0135 86.8369 17.0135L86.4749 17.0129C81.4949 17.0022 39.6675 16.8236 28.7491 13.8473C22.3343 12.1026 17.2933 6.97951 15.5761 0.460443C12.6476-10.6356 12.4719-33.076 12.4614-35.729L12.4614-36.245C12.4685-38.0513 12.5523-49.0301 13.5293-59.356L13.6235-60.3218C14.0757-64.8173 14.7038-69.1291 15.5761-72.4342C17.2933-78.9534 22.3343-84.0764 28.7491-85.8215C39.4352-88.7343 79.729-88.9673 86.1076-88.986L86.742-88.9874C86.778-88.9874 86.8097-88.9875 86.8369-88.9875Z"/>
   <path class="monochrome-1 multicolor-1:white hierarchical-1:primary SFSymbolsPreviewFFFFFF" d="M72.0464-58.696L72.0464-13.2741L110.756-35.9849L72.0464-58.696Z"/>
  </g>
  <g id="Medium-L" transform="matrix(1 0 0 1 1659.55 1556)">
   <path class="monochrome-0 multicolor-0:custom hierarchical-0:secondary SFSymbolsPreviewD9252A" d="M87.4453-88.3966C92.4254-88.3859 134.253-88.2073 145.171-85.2312C151.586-83.4861 156.628-78.363 158.345-71.8439C161.293-60.6299 161.451-37.8288 161.46-35.5767L161.46-35.1385C161.453-33.558 161.388-24.9547 160.718-15.911L160.643-14.9407C160.618-14.6169 160.592-14.2928 160.564-13.9687L160.481-12.997C160.02-7.81847 159.342-2.72638 158.345 1.051C156.628 7.5701 151.586 12.6931 145.171 14.4379C140.409 15.7361 129.767 16.502 118.866 16.9539L117.27 17.0178C103.43 17.5528 89.616 17.5997 87.299 17.6038L86.6204 17.6038C84.3035 17.5997 70.4899 17.5528 56.6499 17.0178L55.0536 16.9539C44.1531 16.502 33.5105 15.7361 28.7482 14.4379C22.3334 12.6931 17.2923 7.5701 15.5752 1.051C14.5782-2.72638 13.9003-7.81847 13.4394-12.997L13.3554-13.9687C12.5683-23.3658 12.4729-32.7948 12.4614-34.9426L12.4614-35.8505C12.4797-39.2573 12.709-60.984 15.5752-71.8439C17.2923-78.363 22.3334-83.4861 28.7482-85.2312C33.6267-86.561 44.6757-87.3322 55.8515-87.7795L57.4483-87.8413C70.7509-88.3377 83.8252-88.3909 86.4741-88.3966Z"/>
   <path class="monochrome-1 multicolor-1:white hierarchical-1:primary SFSymbolsPreviewFFFFFF" d="M72.0456-58.1056L72.0456-12.6836L110.755-35.3944L72.0456-58.1056Z"/>
  </g>
  <g id="Regular-L" transform="matrix(1 0 0 1 1363.34 1556)">
   <path class="monochrome-0 multicolor-0:custom hierarchical-0:secondary SFSymbolsPreviewD9252A" d="M87.1145-87.6255C90.2776-87.6175 104.422-87.5502 118.155-86.9825L119.737-86.9147C129.999-86.4596 139.784-85.7135 144.283-84.4904C150.655-82.7618 155.663-77.6871 157.368-71.2295C160.297-60.1214 160.454-37.5355 160.463-35.3047L160.462-34.8707C160.452-32.2428 160.277-10.0142 157.368 0.977108C155.663 7.43464 150.655 12.5093 144.283 14.2376C139.784 15.4608 129.999 16.207 119.737 16.6621L118.155 16.7299C104.422 17.2976 90.2776 17.3649 87.1145 17.3729L86.7989 17.3736C86.7547 17.3737 86.7147 17.3737 86.6789 17.3738L86.245 17.3738C86.2092 17.3737 86.1692 17.3737 86.1249 17.3736L85.8094 17.3729C80.1525 17.3586 39.3705 17.1545 28.6406 14.2376C22.2688 12.5093 17.2615 7.43464 15.5559 0.977108C14.4728-3.11539 13.7688-8.76581 13.3112-14.3823L13.2351-15.3445C12.5596-24.1561 12.4738-32.6592 12.4629-34.6766L12.4614-35.0614C12.4614-35.0757 12.4614-35.0877 12.4614-35.0973L12.4614-35.1553C12.4614-35.1649 12.4614-35.1769 12.4614-35.1912L12.4629-35.576C12.4811-38.9506 12.7089-60.4721 15.5559-71.2295C17.2615-77.6871 22.2688-82.7618 28.6406-84.4904C39.3705-87.4071 80.1525-87.6112 85.8094-87.6255Z"/>
   <path class="monochrome-1 multicolor-1:white hierarchical-1:primary SFSymbolsPreviewFFFFFF" d="M71.6478-57.6209L71.6478-12.6278L110.098-35.1242L71.6478-57.6209Z"/>
  </g>
  <g id="Light-L" transform="matrix(1 0 0 1 1067.13 1556)">
   <path class="monochrome-0 multicolor-0:custom hierarchical-0:secondary SFSymbolsPreviewD9252A" d="M86.2956-86.8067C86.3396-86.8066 86.3877-86.8065 86.44-86.8064L87.0193-86.8048C93.9562-86.7819 132.964-86.5275 143.392-83.7008C149.72-81.9886 154.694-76.9622 156.388-70.5661C157.429-66.6284 158.117-61.2346 158.573-55.83L158.651-54.8764C158.689-54.3998 158.725-53.9239 158.759-53.4495L158.825-52.5031C159.383-44.3241 159.452-36.816 159.461-35.1495L159.461-34.9835C159.462-34.9602 159.462-34.9392 159.462-34.9204L159.462-34.693C159.462-34.6743 159.462-34.6532 159.462-34.63L159.461-34.4639C159.452-32.477 159.36-22.1855 158.452-12.3539L158.362-11.4042C157.912-6.82375 157.28-2.40574 156.388 0.952907C154.694 7.34895 149.72 12.3753 143.392 14.0872C132.735 16.9762 92.2278 17.1784 86.6091 17.1926L86.1764 17.1935C86.1409 17.1935 86.1097 17.1936 86.0828 17.1936L85.8389 17.1936C85.8121 17.1936 85.7809 17.1935 85.7454 17.1935L85.3127 17.1926C79.694 17.1784 39.1876 16.9762 28.5303 14.0872C22.2015 12.3753 17.2281 7.34895 15.5339 0.952907C12.6755-9.81791 12.4754-31.4835 12.4614-34.4639L12.4614-35.1495C12.4754-38.1299 12.6755-59.7954 15.5339-70.5661C17.2281-76.9622 22.2015-81.9886 28.5303-83.7008C38.9584-86.5275 77.9656-86.7819 84.9025-86.8048L85.4818-86.8064C85.534-86.8065 85.5822-86.8066 85.6262-86.8067Z"/>
   <path class="monochrome-1 multicolor-1:white hierarchical-1:primary SFSymbolsPreviewFFFFFF" d="M71.2469-57.0872L71.2469-12.5225L109.437-34.8046L71.2469-57.0872Z"/>
  </g>
  <g id="Thin-L" transform="matrix(1 0 0 1 771.416 1556)">
   <path class="monochrome-0 multicolor-0:custom hierarchical-0:secondary SFSymbolsPreviewD9252A" d="M85.7916-86.7192C89.0303-86.7097 101.254-86.6436 113.681-86.1805L115.235-86.1205C126.111-85.6858 136.864-84.9364 141.611-83.6443C147.854-81.9486 152.76-76.9706 154.431-70.636C155.397-66.9656 156.055-62.0177 156.504-56.9857L156.586-56.0415C157.365-46.7531 157.452-37.4325 157.462-35.5599L157.463-35.333C157.463-35.3145 157.463-35.2981 157.463-35.2841L157.463-35.1078C157.463-35.0892 157.462-35.0684 157.462-35.0454L157.462-34.8809C157.448-31.9292 157.251-10.4719 154.431 0.195337C152.76 6.52988 147.854 11.5079 141.611 13.2033C136.977 14.4647 126.62 15.2089 116.012 15.648L114.458 15.7102C101.249 16.2199 88.0637 16.2736 85.4342 16.2793L85.0154 16.2799C84.9798 16.2799 84.9616 16.2799 84.9616 16.2799L84.9078 16.2799C84.89 16.2799 84.8678 16.2799 84.8413 16.2798L84.489 16.2793C81.9628 16.2738 69.6926 16.2241 57.0186 15.768L55.4652 15.7102C44.3278 15.2803 33.1729 14.5262 28.3123 13.2033C22.0697 11.5079 17.1639 6.52988 15.4928 0.195337C14.6742-2.90161 14.0766-6.90801 13.6404-11.107L13.5461-12.043C12.5985-21.7416 12.4784-32.1757 12.4632-34.6651L12.4616-34.9697C12.4615-34.9971 12.4614-35.0223 12.4614-35.0454L12.4614-35.3955C12.4614-35.4185 12.4615-35.4437 12.4616-35.4712L12.4632-35.7757C12.476-37.8636 12.5625-45.5401 13.1491-53.6839L13.2191-54.6254C13.6643-60.4402 14.371-66.3921 15.4928-70.636C17.1639-76.9706 22.0697-81.9486 28.3123-83.6443C32.8338-84.8749 42.802-85.6132 53.136-86.0563L54.6883-86.1205L56.2422-86.1805C68.6699-86.6436 80.893-86.7097 84.1316-86.7192Z"/>
   <path class="monochrome-1 multicolor-1:white hierarchical-1:primary SFSymbolsPreviewFFFFFF" d="M70.4478-57.2866L70.4478-13.1505L108.119-35.2184L70.4478-57.2866Z"/>
  </g>
  <g id="Ultralight-L" transform="matrix(1 0 0 1 475.206 1556)">
   <path class="monochrome-0 multicolor-0:custom hierarchical-0:secondary SFSymbolsPreviewD9252A" d="M84.9295-86.1636C87.4384-86.1582 99.624-86.1089 112.211-85.6574L113.753-85.6C124.814-85.1744 135.892-84.4277 140.719-83.1177C146.918-81.4384 151.791-76.5087 153.45-70.2357C154.59-65.9194 155.298-59.8192 155.738-53.9141L155.806-52.9836C156.402-44.4744 156.456-36.5921 156.461-35.3375L156.46-34.9159C156.454-33.2593 156.38-23.5843 155.556-14.0776L155.472-13.1433C155.028-8.32211 154.383-3.61366 153.45-0.0924544C151.791 6.18055 146.918 11.1102 140.719 12.7891C130.279 15.6226 90.5992 15.821 85.0952 15.8348L84.6713 15.8357C84.6366 15.8357 84.606 15.8358 84.5797 15.8358L84.4068 15.8359C84.3891 15.8358 84.3671 15.8358 84.3408 15.8358L83.8253 15.8348C78.3213 15.821 38.6416 15.6226 28.2018 12.7891C22.0022 11.1102 17.1303 6.18055 15.4707-0.0924544C14.5373-3.61366 13.8933-8.32211 13.4489-13.1433L13.3654-14.0776C12.5679-23.2726 12.4727-32.625 12.4614-34.7273L12.4614-35.601C12.4718-37.5251 12.5524-45.5226 13.1774-53.9141L13.2491-54.8478C13.2861-55.3152 13.3248-55.7831 13.3654-56.2507L13.4489-57.1849L13.5374-58.1163C13.9776-62.6087 14.5976-66.9417 15.4707-70.2357C17.1303-76.5087 22.0022-81.4384 28.2018-83.1177C38.7539-85.9814 79.178-86.1533 83.9909-86.1636Z"/>
   <path class="monochrome-1 multicolor-1:white hierarchical-1:primary SFSymbolsPreviewFFFFFF" d="M70.0465-57.016L70.0465-13.3086L107.458-35.1621L70.0465-57.016Z"/>
  </g>
  <g id="Black-M" transform="matrix(1 0 0 1 2862.4 1126)">
   <path class="monochrome-0 multicolor-0:custom hierarchical-0:secondary SFSymbolsPreviewD9252A" d="M71.63-76.6001C74.2977-76.5924 84.5202-76.537 94.7609-76.1423L96.0144-76.0922C104.574-75.7384 112.931-75.1387 116.67-74.1223C121.707-72.7558 125.666-68.7443 127.014-63.6397C127.768-60.781 128.289-56.9607 128.65-53.0471L128.72-52.2634C128.743-52.0019 128.765-51.7402 128.786-51.4787L128.848-50.6946L128.906-49.9127L128.96-49.1345C129.405-42.5395 129.455-36.5111 129.46-35.315L129.46-34.81C129.453-33.4532 129.4-27.5321 128.964-21.0664L128.91-20.2882L128.852-19.5062C128.823-19.1146 128.791-18.7222 128.758-18.3298L128.69-17.5454C128.328-13.4959 127.796-9.51508 127.014-6.56111C125.666-1.45649 121.707 2.55499 116.67 3.9212C112.931 4.9377 104.574 5.53743 96.0144 5.89128L94.7609 5.94132C84.5202 6.33603 74.2977 6.39142 71.63 6.3992L71.3416 6.39993C71.3 6.40002 71.2616 6.40009 71.2267 6.40016L70.6938 6.40016C70.6588 6.40009 70.6205 6.40002 70.5789 6.39993L70.2905 6.3992C67.8406 6.39206 59.0191 6.34475 49.6633 6.03136L48.4132 5.98798L47.1598 5.94132C38.1731 5.59495 29.1723 4.98729 25.2503 3.9212C20.2132 2.55499 16.2547-1.45649 14.9063-6.56111C14.1245-9.51508 13.5926-13.4959 13.2306-17.5454L13.1626-18.3298C13.1297-18.7222 13.0983-19.1146 13.0684-19.5062L13.0105-20.2882L12.9564-21.0664C12.5297-27.4028 12.4698-33.2162 12.4614-34.7232L12.4614-35.4778C12.4698-36.9848 12.5297-42.7981 12.9564-49.1345L13.0105-49.9127L13.0684-50.6946C13.0983-51.0863 13.1297-51.4787 13.1626-51.8711L13.2306-52.6554C13.5926-56.705 14.1245-60.6857 14.9063-63.6397C16.2547-68.7443 20.2132-72.7558 25.2503-74.1223C33.6415-76.4031 65.2818-76.5855 70.2905-76.6001Z"/>
   <path class="monochrome-1 multicolor-1:white hierarchical-1:primary SFSymbolsPreviewFFFFFF" d="M59.2491-52.8823L59.2491-17.3157L89.6455-35.0988L59.2491-52.8823Z"/>
  </g>
  <g id="Heavy-M" transform="matrix(1 0 0 1 2565.68 1126)">
   <path class="monochrome-0 multicolor-0:custom hierarchical-0:secondary SFSymbolsPreviewD9252A" d="M71.1316-76.7894C71.1598-76.7893 71.1915-76.7893 71.2264-76.7892L71.8025-76.7877C74.7147-76.7781 84.7289-76.717 94.7606-76.3304L96.0141-76.2804C104.574-75.9266 112.931-75.3269 116.67-74.3104C121.707-72.944 125.666-68.9325 127.014-63.8278C127.843-60.6833 128.391-56.3752 128.753-52.0592L128.817-51.2746C129.374-44.2175 129.449-37.3267 129.459-35.6659L129.46-35.5032C129.46-35.4797 129.46-35.4581 129.46-35.4384L129.46-35.0741C129.455-33.878 129.408-27.8496 128.964-21.2546L128.91-20.4763L128.852-19.6944L128.79-18.9103C128.769-18.6488 128.747-18.3871 128.724-18.1256L128.654-17.3419C128.293-13.4283 127.771-9.60796 127.014-6.74927C125.666-1.64466 121.707 2.36682 116.67 3.73303C113.204 4.67515 105.772 5.25926 97.8881 5.62141L96.64 5.67677C96.4316 5.68569 96.2229 5.69447 96.0141 5.7031L94.7606 5.75315C84.1019 6.16396 73.463 6.2072 71.3414 6.21176L70.5787 6.21176C66.6682 6.20337 33.8238 6.06353 25.2503 3.73303C20.2132 2.36682 16.2547-1.64466 14.9063-6.74927C14.1245-9.70325 13.5925-13.684 13.2306-17.7336L13.1626-18.518C13.1297-18.9103 13.0983-19.3028 13.0684-19.6944L13.0105-20.4763L12.9564-21.2546C12.5297-27.591 12.4698-33.4043 12.4614-34.9113L12.4614-35.6659C12.4701-37.2344 12.5346-43.468 13.0105-50.1009L13.0684-50.8828C13.0784-51.0133 13.0885-51.144 13.0988-51.2746L13.1626-52.0592C13.1846-52.3208 13.2072-52.5823 13.2306-52.8436L13.3028-53.6262C13.6622-57.4025 14.1749-61.0644 14.9063-63.8278C16.2547-68.9325 20.2132-72.944 25.2503-74.3104C29.1722-75.3764 38.173-75.9841 47.1597-76.3304L48.4131-76.3771L49.6631-76.4205C58.811-76.7269 67.4481-76.7789 70.1176-76.7877L70.6936-76.7892C70.7286-76.7893 70.7603-76.7893 70.7885-76.7894Z"/>
   <path class="monochrome-1 multicolor-1:white hierarchical-1:primary SFSymbolsPreviewFFFFFF" d="M59.249-53.0704L59.249-17.5038L89.6452-35.287L59.249-53.0704Z"/>
  </g>
  <g id="Bold-M" transform="matrix(1 0 0 1 2269.47 1126)">
   <path class="monochrome-0 multicolor-0:custom hierarchical-0:secondary SFSymbolsPreviewD9252A" d="M71.2968-76.8813C76.7709-76.8632 107.553-76.6626 115.781-74.4338C120.775-73.0838 124.7-69.1207 126.037-64.0776C126.784-61.2534 127.301-57.4792 127.659-53.6127L127.728-52.8385C127.807-51.9343 127.877-51.0283 127.94-50.1312L127.992-49.3647C128.401-43.1274 128.455-37.4831 128.462-36.1695L128.462-36.0305C128.462-36.0111 128.462-35.9935 128.462-35.9778L128.462-35.7873C128.462-35.7716 128.462-35.754 128.462-35.7346L128.462-35.5956C128.45-33.1828 128.288-16.16 126.037-7.68732C124.7-2.64426 120.775 1.31885 115.781 2.66859C107.372 4.9465 75.407 5.10595 70.9731 5.11712L70.6317 5.1178C70.6037 5.11784 70.579 5.11787 70.5578 5.11789L70.3654 5.11789C70.3442 5.11787 70.3196 5.11784 70.2916 5.1178L69.9501 5.11712C67.7094 5.11148 58.4372 5.06796 48.7274 4.73227L47.486 4.68781C38.3723 4.34983 29.121 3.74631 25.1421 2.66859C20.148 1.31885 16.2233-2.64426 14.8865-7.68732C12.6861-15.9717 12.4819-32.4305 12.463-35.4134L12.4616-35.6706C12.4615-35.6938 12.4614-35.7151 12.4614-35.7346L12.4614-36.0305C12.4614-36.05 12.4615-36.0713 12.4616-36.0945L12.463-36.3517C12.4754-38.3177 12.5684-46.1376 13.2603-53.6127L13.334-54.3846L13.4122-55.1524C13.7605-58.4688 14.2364-61.63 14.8865-64.0776C16.2233-69.1207 20.148-73.0838 25.1421-74.4338C29.0306-75.487 37.9545-76.0873 46.8645-76.4295L48.1071-76.4755C57.6256-76.8164 66.8593-76.8721 69.6264-76.8813Z"/>
   <path class="monochrome-1 multicolor-1:white hierarchical-1:primary SFSymbolsPreviewFFFFFF" d="M58.8505-53.4499L58.8505-18.3122L88.9873-35.8809L58.8505-53.4499Z"/>
  </g>
  <g id="Semibold-M" transform="matrix(1 0 0 1 1973.26 1126)">
   <path class="monochrome-0 multicolor-0:custom hierarchical-0:secondary SFSymbolsPreviewD9252A" d="M70.7883-76.2562C73.5315-76.2472 82.6857-76.1921 92.1222-75.8554L93.3541-75.8099C102.187-75.4719 111.034-74.8789 114.889-73.8386C119.84-72.5051 123.731-68.5902 125.056-63.6086C127.277-55.2461 127.447-38.4514 127.46-36.0466L127.461-35.8117C127.461-35.7997 127.461-35.7897 127.461-35.7816L127.461-35.7031C127.461-35.6911 127.461-35.6772 127.461-35.6614L127.46-35.4681C127.453-34.0901 127.397-27.9868 126.931-21.4527L126.874-20.6823C126.522-16.0508 125.958-11.2885 125.056-7.90593C123.731-2.92436 119.84 0.99042 114.889 2.3237C106.642 4.54964 75.5418 4.72772 70.6186 4.74196L70.3351 4.74268C70.2942 4.74277 70.2565 4.74284 70.2221 4.7429L69.7917 4.74305C69.7639 4.74301 69.7328 4.74296 69.6984 4.7429L69.302 4.74196C64.3789 4.72772 33.2794 4.54964 25.0317 2.3237C20.0806 0.99042 16.1898-2.92436 14.8645-7.90593C12.6603-16.1745 12.4767-32.687 12.4614-35.3816L12.4614-36.1331C12.4702-37.6948 12.5357-43.8974 13.0181-50.4467L13.0769-51.2186C13.4308-55.7273 13.9878-60.32 14.8645-63.6086C16.1898-68.5902 20.0806-72.5051 25.0317-73.8386C28.8866-74.8789 37.7336-75.4719 46.5667-75.8099L47.7986-75.8554C57.235-76.1921 66.3891-76.2472 69.1323-76.2562Z"/>
   <path class="monochrome-1 multicolor-1:white hierarchical-1:primary SFSymbolsPreviewFFFFFF" d="M58.4494-53.1105L58.4494-18.4013L88.3262-35.7557L58.4494-53.1105Z"/>
  </g>
  <g id="Medium-M" transform="matrix(1 0 0 1 1676.55 1126)">
   <path class="monochrome-0 multicolor-0:custom hierarchical-0:secondary SFSymbolsPreviewD9252A" d="M70.3361-75.7833C70.377-75.7832 70.4211-75.7831 70.4684-75.783L70.9773-75.7814C73.9307-75.7705 82.8919-75.7106 92.1232-75.3813L93.3552-75.3358C93.5606-75.3279 93.766-75.3199 93.9714-75.3118L95.2025-75.2612C103.398-74.9129 111.304-74.3322 114.89-73.3645C119.841-72.031 123.732-68.1161 125.057-63.1345C127.253-54.866 127.444-38.3536 127.46-35.659L127.461-35.4969C127.461-35.4736 127.462-35.4521 127.462-35.4325L127.461-35.0696C127.455-33.5749 127.382-24.5064 126.53-16.3507L126.448-15.5891C126.109-12.5552 125.659-9.68691 125.057-7.43184C123.732-2.45027 119.841 1.46452 114.89 2.7978C106.643 5.02374 75.5428 5.20182 70.6196 5.21606L70.3361 5.21678C70.2953 5.21687 70.2576 5.21694 70.2232 5.217L69.6995 5.217C69.6651 5.21694 69.6274 5.21687 69.5865 5.21678L69.3031 5.21606C66.5739 5.20817 55.8008 5.14992 45.3356 4.72039L44.1064 4.66812C36.1319 4.317 28.529 3.7414 25.0327 2.7978C20.0817 1.46452 16.1909-2.45027 14.8656-7.43184C14.0891-10.3446 13.5634-14.2805 13.2074-18.2749L13.1406-19.0485C12.5581-26.0127 12.4749-32.9658 12.463-34.8103L12.4616-35.0696C12.4615-35.0929 12.4614-35.1144 12.4614-35.1341L12.4614-35.4325C12.4614-35.4521 12.4615-35.4736 12.4616-35.4969L12.463-35.7562C12.4749-37.6007 12.5581-44.5538 13.1406-51.518L13.2074-52.2916C13.5634-56.286 14.0891-60.2218 14.8656-63.1345C16.1909-68.1161 20.0817-72.031 25.0327-73.3645C28.8876-74.4048 37.7346-74.9978 46.5677-75.3358L47.7997-75.3813C57.0309-75.7106 65.992-75.7705 68.9454-75.7814L69.4543-75.783C69.5015-75.7831 69.5456-75.7832 69.5865-75.7833Z"/>
   <path class="monochrome-1 multicolor-1:white hierarchical-1:primary SFSymbolsPreviewFFFFFF" d="M58.4504-52.6364L58.4504-17.9272L88.3272-35.2816L58.4504-52.6364Z"/>
  </g>
  <g id="Regular-M" transform="matrix(1 0 0 1 1379.84 1126)">
   <path class="monochrome-0 multicolor-0:custom hierarchical-0:secondary SFSymbolsPreviewD9252A" d="M70.7885-76.1639C73.5317-76.1549 82.6859-76.0998 92.1224-75.7631L93.3543-75.7176C102.188-75.3796 111.035-74.7866 114.889-73.7463C119.84-72.4128 123.732-68.498 125.057-63.5164C127.277-55.1539 127.447-38.3592 127.46-35.9544L127.461-35.8143C127.461-35.7947 127.461-35.777 127.461-35.7611L127.461-35.5159C127.461-35.4963 127.461-35.4748 127.461-35.4515L127.46-35.2894C127.445-32.5948 127.261-16.0823 125.057-7.81376C123.732-2.8322 119.84 1.08258 114.889 2.41586C106.552 4.66599 74.8631 4.8235 70.4675 4.83452L70.129 4.8352C70.1013 4.83524 70.0769 4.83527 70.0558 4.83529L69.865 4.83529C69.844 4.83527 69.8196 4.83524 69.7918 4.8352L69.4534 4.83452C67.232 4.82895 58.0397 4.78597 48.4137 4.45437L47.183 4.41045C38.1478 4.0766 28.9763 3.48044 25.0317 2.41586C20.0807 1.08258 16.1898-2.8322 14.8645-7.81376C12.6603-16.0823 12.4767-32.5948 12.4614-35.2894L12.4614-36.0409C12.4702-37.6025 12.5357-43.8052 13.0181-50.3545L13.0769-51.1263C13.4308-55.6351 13.9879-60.2277 14.8645-63.5164C16.1898-68.498 20.0807-72.4128 25.0317-73.7463C33.1898-75.9479 63.7057-76.146 69.1324-76.1639Z"/>
   <path class="monochrome-1 multicolor-1:white hierarchical-1:primary SFSymbolsPreviewFFFFFF" d="M58.4495-53.0183L58.4495-18.3091L88.3264-35.6635L58.4495-53.0183Z"/>
  </g>
  <g id="Light-M" transform="matrix(1 0 0 1 1083.63 1126)">
   <path class="monochrome-0 multicolor-0:custom hierarchical-0:secondary SFSymbolsPreviewD9252A" d="M70.2811-75.4281C73.1187-75.4188 82.8761-75.3599 92.6507-74.9873L93.8721-74.9391C102.212-74.598 110.355-74.02 113.998-73.0403C118.906-71.7233 122.764-67.8568 124.077-62.9367C126.276-54.6844 126.447-38.1176 126.46-35.721L126.461-35.4842C126.461-35.4721 126.461-35.462 126.461-35.4539L126.461-35.3747C126.461-35.3626 126.461-35.3486 126.461-35.3326L126.46-35.1378C126.453-33.8305 126.402-28.3074 125.998-22.2172L125.946-21.4532C125.901-20.8145 125.852-20.1714 125.798-19.5278L125.732-18.7557C125.379-14.7679 124.855-10.829 124.077-7.92193C122.764-3.00188 118.906 0.864562 113.998 2.18138C110.355 3.16112 102.212 3.73917 93.8721 4.08022L92.6507 4.12846C82.4689 4.51665 72.3056 4.56433 69.9629 4.57018L69.4709 4.571L69.4603 4.571C69.4603 4.571 69.4567 4.571 69.4496 4.571L68.9576 4.57018C66.615 4.56433 56.4518 4.51665 46.2701 4.12846L45.0487 4.08022C36.7087 3.73917 28.566 3.16112 24.9223 2.18138C20.0143 0.864562 16.1574-3.00188 14.8436-7.92193C14.0657-10.829 13.5417-14.7679 13.1887-18.7557L13.1225-19.5278L13.0604-20.2996L13.0024-21.0695C12.993-21.1976 12.9838-21.3255 12.9748-21.4532L12.9225-22.2172C12.5272-28.1805 12.4697-33.6002 12.4614-35.0506L12.4614-35.8082C12.4768-38.4931 12.6607-54.7781 14.8436-62.9367C16.1574-67.8568 20.0143-71.7233 24.9223-73.0403C28.566-74.02 36.7087-74.598 45.0487-74.9391L46.2701-74.9873C56.0446-75.3599 65.8019-75.4188 68.6394-75.4281Z"/>
   <path class="monochrome-1 multicolor-1:white hierarchical-1:primary SFSymbolsPreviewFFFFFF" d="M58.0494-52.5683L58.0494-18.2876L87.6665-35.4278L58.0494-52.5683Z"/>
  </g>
  <g id="Thin-M" transform="matrix(1 0 0 1 787.417 1126)">
   <path class="monochrome-0 multicolor-0:custom hierarchical-0:secondary SFSymbolsPreviewD9252A" d="M69.7739-75.455C75.1063-75.4374 105.092-75.2417 113.108-73.0672C117.973-71.7502 121.796-67.8837 123.098-62.9636C123.792-60.3378 124.282-56.8703 124.628-53.2853L124.7-52.5155C124.712-52.387 124.723-52.2584 124.734-52.1298L124.8-51.3576C125.383-44.2787 125.452-37.2456 125.46-35.7477L125.461-35.5529C125.461-35.5369 125.461-35.5229 125.461-35.5108L125.461-35.4013C125.461-35.3892 125.461-35.3752 125.461-35.3592L125.46-35.1644C125.453-33.8299 125.4-28.102 124.977-21.8624L124.923-21.096C124.886-20.5838 124.847-20.0692 124.804-19.5544L124.739-18.7822C124.727-18.6536 124.716-18.525 124.704-18.3965L124.632-17.6267C124.286-14.0417 123.795-10.5742 123.098-7.94839C121.796-3.02831 117.973 0.838154 113.108 2.15498C105.004 4.35344 74.4447 4.52932 69.6071 4.54339L69.3286 4.5441C69.2884 4.54419 69.2514 4.54426 69.2176 4.54432L68.703 4.54432C68.6692 4.54426 68.6322 4.54419 68.592 4.5441L68.3135 4.54339C63.4759 4.52932 32.9173 4.35344 24.813 2.15498C19.9481 0.838154 16.1249-3.02831 14.8227-7.94839C14.1263-10.5742 13.6352-14.0417 13.2888-17.6267L13.2167-18.3965C13.2051-18.525 13.1936-18.6536 13.1824-18.7822L13.1167-19.5544C13.0955-19.8118 13.075-20.0692 13.0552-20.3262L12.9976-21.096C12.5341-27.499 12.4702-33.5342 12.4614-35.0773L12.4614-35.8348C12.4709-37.5013 12.5447-44.4074 13.1167-51.3576L13.1824-52.1298C13.1936-52.2584 13.2051-52.387 13.2167-52.5155L13.2888-53.2853C13.6352-56.8703 14.1263-60.3378 14.8227-62.9636C16.1249-67.8837 19.9481-71.7502 24.813-73.0672C32.8292-75.2417 62.8143-75.4374 68.1467-75.455Z"/>
   <path class="monochrome-1 multicolor-1:white hierarchical-1:primary SFSymbolsPreviewFFFFFF" d="M57.6495-52.595L57.6495-18.3142L87.0068-35.4545L57.6495-52.595Z"/>
  </g>
  <g id="Ultralight-M" transform="matrix(1 0 0 1 491.206 1126)">
   <path class="monochrome-0 multicolor-0:custom hierarchical-0:secondary SFSymbolsPreviewD9252A" d="M68.9543-74.9568C71.1638-74.9513 80.4543-74.9077 90.0441-74.5651L91.2439-74.5207L92.4439-74.473C100.638-74.1363 108.637-73.5655 112.217-72.598C117.039-71.2975 120.828-67.4794 122.119-62.6208C122.863-59.8131 123.371-56.0308 123.718-52.182L123.785-51.4116C123.796-51.2831 123.806-51.1547 123.817-51.0262L123.878-50.2562C124.388-43.5902 124.452-37.1789 124.46-35.7514L124.461-35.555C124.461-35.539 124.461-35.5248 124.461-35.5126L124.461-35.4022C124.461-35.39 124.461-35.3759 124.461-35.3598L124.46-35.1634C124.448-32.7751 124.287-16.4363 122.119-8.29391C120.828-3.43539 117.039 0.382704 112.217 1.68305C108.637 2.65055 100.638 3.22137 92.4439 3.55815L91.2439 3.60579L90.0441 3.65019C80.6541 3.98569 71.5511 4.03449 69.1016 4.04159L68.8255 4.04229C68.7857 4.04237 68.749 4.04244 68.7155 4.0425L68.2054 4.0425C68.1719 4.04244 68.1353 4.04237 68.0954 4.04229L67.8194 4.04159C65.5263 4.03494 57.402 3.99175 48.6699 3.711L47.4759 3.67122C47.2765 3.66434 47.0768 3.65733 46.877 3.65019L45.6772 3.60579L44.4773 3.55815C36.2836 3.22137 28.2838 2.65055 24.7041 1.68305C19.8822 0.382704 16.0929-3.43539 14.8022-8.29391C12.6348-16.4363 12.4734-32.7751 12.4614-35.1634L12.4614-35.7514C12.4734-38.1397 12.6348-54.4785 14.8022-62.6208C16.0929-67.4794 19.8822-71.2975 24.7041-72.598C28.2838-73.5655 36.2836-74.1363 44.4773-74.473L45.6772-74.5207L46.877-74.5651C47.0768-74.5722 47.2765-74.5792 47.4759-74.5861L48.6699-74.6259C57.6004-74.913 65.8952-74.9516 67.9666-74.9568Z"/>
   <path class="monochrome-1 multicolor-1:white hierarchical-1:primary SFSymbolsPreviewFFFFFF" d="M57.2499-52.382L57.2499-18.53L86.3472-35.4558L57.2499-52.382Z"/>
  </g>
  <g id="Black-S" transform="matrix(1 0 0 1 2874.89 696)">
   <path class="monochrome-0 multicolor-0:custom hierarchical-0:secondary SFSymbolsPreviewD9252A" d="M58.6712-67.341C58.6987-67.3409 58.7289-67.3409 58.7616-67.3408L59.2745-67.3393C61.6898-67.3303 69.1273-67.2803 76.684-67.0003L77.67-66.9624C84.5706-66.6881 91.393-66.2152 94.4051-65.3997C98.366-64.3296 101.479-61.1881 102.539-57.1905C104.318-50.469 104.452-36.9591 104.462-35.0634L104.463-34.9408C104.463-34.9243 104.463-34.9098 104.463-34.8973L104.463-34.7837C104.463-34.7712 104.463-34.7567 104.463-34.7402L104.462-34.539C104.454-33.1348 104.389-27.0552 103.862-21.1474L103.796-20.4396C103.514-17.4965 103.112-14.6448 102.539-12.4904C101.479-8.49283 98.366-5.35132 94.4051-4.28139C91.393-3.46592 84.5706-2.99295 77.67-2.71863L76.684-2.68077C76.1912-2.66251 75.6989-2.64522 75.2084-2.62886L74.2304-2.59735C67.2449-2.3802 60.8292-2.34614 58.9884-2.34079L58.4703-2.3398C58.4617-2.3398 58.4589-2.3398 58.4531-2.3398L57.9351-2.34079C55.7518-2.34713 47.1332-2.39387 38.7609-2.73856L37.7775-2.7805C31.3979-3.06227 25.3155-3.52417 22.5184-4.28139C18.5576-5.35132 15.4449-8.49283 14.3846-12.4904C12.6671-18.9534 12.483-31.6927 12.4633-34.3484L12.4617-34.6176C12.4615-34.6419 12.4614-34.6643 12.4614-34.6847L12.4614-34.9963C12.4614-35.0167 12.4615-35.0391 12.4617-35.0634L12.4633-35.3327C12.4767-37.1385 12.5661-43.607 13.162-49.594L13.2345-50.2959C13.5089-52.8588 13.8808-55.2947 14.3846-57.1905C15.4449-61.1881 18.5576-64.3296 22.5184-65.3997C28.9733-67.1471 52.9235-67.3218 57.649-67.3393L58.1619-67.3408C58.1946-67.3409 58.2247-67.3409 58.2522-67.341Z"/>
   <path class="monochrome-1 multicolor-1:white hierarchical-1:primary SFSymbolsPreviewFFFFFF" d="M49.2529-48.766L49.2529-20.9127L73.1546-34.8392L49.2529-48.766Z"/>
  </g>
  <g id="Heavy-S" transform="matrix(1 0 0 1 2578.18 696)">
   <path class="monochrome-0 multicolor-0:custom hierarchical-0:secondary SFSymbolsPreviewD9252A" d="M58.8663-67.7419C58.9041-67.7418 58.9444-67.7417 58.9872-67.7415L59.438-67.74C61.8976-67.7299 68.6526-67.6803 75.698-67.4368L76.6826-67.4016C83.9107-67.1337 91.2478-66.6553 94.4034-65.801C98.3641-64.7309 101.477-61.5893 102.537-57.5916C104.316-50.8701 104.45-37.36 104.46-35.4643L104.461-35.3417C104.461-35.3252 104.461-35.3106 104.461-35.2981L104.461-35.1846C104.461-35.1721 104.461-35.1576 104.461-35.141L104.46-34.9398C104.452-33.5357 104.387-27.4559 103.86-21.548L103.794-20.8402C103.512-17.8971 103.11-15.0453 102.537-12.8909C101.477-8.8933 98.3641-5.75174 94.4034-4.6818C91.3913-3.86632 84.569-3.39334 77.6685-3.11901L76.6826-3.08116C68.9617-2.79498 61.3653-2.74899 59.123-2.7416L58.7605-2.7406C58.7277-2.74053 58.6976-2.74047 58.6701-2.74042L58.2511-2.74042C58.2236-2.74047 58.1935-2.74053 58.1608-2.7406L57.7982-2.7416C55.5559-2.74899 47.9596-2.79498 40.2388-3.08116L39.2529-3.11901C38.9243-3.13208 38.5959-3.14559 38.268-3.15957L37.2867-3.20292C31.0875-3.48654 25.2433-3.94399 22.5179-4.6818C18.5572-5.75174 15.4445-8.8933 14.3843-12.8909C13.8118-15.0453 13.4097-17.8971 13.1272-20.8402L13.0617-21.548C12.5239-27.5741 12.4673-33.7789 12.4614-35.0184L12.4614-35.4643C12.4667-36.5823 12.5133-41.7397 12.917-47.1619L12.9717-47.8704C13.2556-51.417 13.6973-55.0064 14.3843-57.5916C15.4445-61.5893 18.5572-64.7309 22.5179-65.801C25.6736-66.6553 33.0108-67.1337 40.2388-67.4016L41.2233-67.4368C48.2687-67.6803 55.0236-67.7299 57.4833-67.74L57.934-67.7415C57.9768-67.7417 58.0171-67.7418 58.0549-67.7419Z"/>
   <path class="monochrome-1 multicolor-1:white hierarchical-1:primary SFSymbolsPreviewFFFFFF" d="M49.2519-49.167L49.2519-21.3133L73.1532-35.2401L49.2519-49.167Z"/>
  </g>
  <g id="Bold-S" transform="matrix(1 0 0 1 2281.47 696)">
   <path class="monochrome-0 multicolor-0:custom hierarchical-0:secondary SFSymbolsPreviewD9252A" d="M59.1221-68.0708C61.3166-68.0636 68.6399-68.0194 76.189-67.7492L77.1746-67.7127C84.2411-67.4414 91.3186-66.9656 94.4024-66.1307C98.3632-65.0606 101.476-61.919 102.536-57.9213C103.106-55.767 103.508-52.9153 103.79-49.9721L103.855-49.2643C103.887-48.9098 103.917-48.5547 103.945-48.2001L104-47.4916C104.413-41.9515 104.455-36.6879 104.459-35.7268L104.46-35.4153C104.455-34.3316 104.405-27.7765 103.827-21.5235L103.759-20.8172C103.478-17.9997 103.086-15.2888 102.536-13.2206C101.476-9.223 98.3632-6.08144 94.4024-5.0115C91.3186-4.1766 84.2411-3.70071 77.1746-3.42946L76.189-3.39292C68.3117-3.11099 60.6802-3.07511 58.8653-3.07055L58.054-3.07055C56.3903-3.07473 49.8392-3.10523 42.6914-3.32744L41.7134-3.35894C41.3864-3.36985 41.0586-3.38117 40.7304-3.39292L39.7449-3.42946L38.7592-3.46865C32.0287-3.74576 25.4575-4.21544 22.517-5.0115C18.5562-6.08144 15.4436-9.223 14.3833-13.2206C12.6429-19.7699 12.4771-32.764 12.4614-35.1797L12.4614-35.9624C12.4771-38.3781 12.6429-51.3721 14.3833-57.9213C15.4436-61.919 18.5562-65.0606 22.517-66.1307C25.4575-66.9268 32.0287-67.3964 38.7592-67.6735L39.7449-67.7127L40.7304-67.7492C41.0586-67.761 41.3864-67.7723 41.7134-67.7832L42.6914-67.8147C49.5143-68.0268 55.7935-68.0642 57.7972-68.0708Z"/>
   <path class="monochrome-1 multicolor-1:white hierarchical-1:primary SFSymbolsPreviewFFFFFF" d="M49.251-49.4967L49.251-21.643L73.1523-35.5698L49.251-49.4967Z"/>
  </g>
  <g id="Semibold-S" transform="matrix(1 0 0 1 1985.26 696)">
   <path class="monochrome-0 multicolor-0:custom hierarchical-0:secondary SFSymbolsPreviewD9252A" d="M58.7658-66.9991C61.0509-66.9907 67.8811-66.9452 75.0121-66.7L75.986-66.6653C83.1356-66.4015 90.3931-65.9305 93.5143-65.0894C97.4321-64.0357 100.511-60.9425 101.56-57.0064C103.318-50.3946 103.452-37.1111 103.462-35.2251L103.462-35.1016C103.462-35.0849 103.463-35.0703 103.463-35.0577L103.462-34.8993C103.462-34.8826 103.462-34.864 103.462-34.8434L103.462-34.6965C103.455-33.4797 103.404-28.7816 103.047-23.7492L102.995-23.0451C102.716-19.3996 102.271-15.6562 101.56-12.9943C100.511-9.05822 97.4321-5.96505 93.5143-4.91159C86.9881-3.15281 62.3785-3.01211 58.4827-3.00086L58.169-3.00012C58.1418-3.00007 58.1172-3.00003 58.0952-3L57.8284-3C57.8064-3.00003 57.7818-3.00007 57.7546-3.00012L57.4409-3.00086C55.5778-3.00624 48.9767-3.04123 41.8818-3.26868L40.9117-3.3009C33.4566-3.55733 25.6726-4.0322 22.4094-4.91159C18.4916-5.96505 15.4127-9.05822 14.364-12.9943C13.6533-15.6562 13.2081-19.3996 12.9292-23.0451L12.8772-23.7492C12.5278-28.6646 12.4719-33.261 12.463-34.606L12.4615-34.8993C12.4614-34.9159 12.4614-34.9306 12.4614-34.9432L12.4614-35.0577C12.4614-35.0703 12.4614-35.0849 12.4615-35.1016L12.463-35.3948C12.4715-36.6758 12.5226-40.9058 12.8293-45.5519L12.8772-46.2516L12.9292-46.9557C13.2081-50.6012 13.6533-54.3445 14.364-57.0064C15.4127-60.9425 18.4916-64.0357 22.4094-65.0894C25.5308-65.9305 32.7883-66.4015 39.9378-66.6653L40.9117-66.7C48.0427-66.9452 54.8728-66.9907 57.1579-66.9991Z"/>
   <path class="monochrome-1 multicolor-1:white hierarchical-1:primary SFSymbolsPreviewFFFFFF" d="M48.8531-48.7116L48.8531-21.2869L72.4949-34.9991L48.8531-48.7116Z"/>
  </g>
  <g id="Medium-S" transform="matrix(1 0 0 1 1688.55 696)">
   <path class="monochrome-0 multicolor-0:custom hierarchical-0:secondary SFSymbolsPreviewD9252A" d="M58.7658-66.9991C61.0509-66.9907 67.8811-66.9452 75.0121-66.7L75.986-66.6653C83.1356-66.4015 90.3931-65.9305 93.5143-65.0894C97.4321-64.0357 100.511-60.9425 101.56-57.0064C103.318-50.3946 103.452-37.1111 103.462-35.2251L103.462-35.1016C103.462-35.0849 103.463-35.0703 103.463-35.0577L103.462-34.8993C103.462-34.8826 103.462-34.864 103.462-34.8434L103.462-34.6965C103.455-33.4797 103.404-28.7816 103.047-23.7492L102.995-23.0451C102.716-19.3996 102.271-15.6562 101.56-12.9943C100.511-9.05822 97.4321-5.96505 93.5143-4.91159C86.9881-3.15281 62.3785-3.01211 58.4827-3.00086L58.169-3.00012C58.1418-3.00007 58.1172-3.00003 58.0952-3L57.8284-3C57.8064-3.00003 57.7818-3.00007 57.7546-3.00012L57.4409-3.00086C55.5778-3.00624 48.9767-3.04123 41.8818-3.26868L40.9117-3.3009C33.4566-3.55733 25.6726-4.0322 22.4094-4.91159C18.4916-5.96505 15.4127-9.05822 14.364-12.9943C13.6533-15.6562 13.2081-19.3996 12.9292-23.0451L12.8772-23.7492C12.5278-28.6646 12.4719-33.261 12.463-34.606L12.4615-34.8993C12.4614-34.9159 12.4614-34.9306 12.4614-34.9432L12.4614-35.0577C12.4614-35.0703 12.4614-35.0849 12.4615-35.1016L12.463-35.3948C12.4715-36.6758 12.5226-40.9058 12.8293-45.5519L12.8772-46.2516L12.9292-46.9557C13.2081-50.6012 13.6533-54.3445 14.364-57.0064C15.4127-60.9425 18.4916-64.0357 22.4094-65.0894C25.5308-65.9305 32.7883-66.4015 39.9378-66.6653L40.9117-66.7C48.0427-66.9452 54.8728-66.9907 57.1579-66.9991Z"/>
   <path class="monochrome-1 multicolor-1:white hierarchical-1:primary SFSymbolsPreviewFFFFFF" d="M48.8531-48.7116L48.8531-21.2869L72.4949-34.9991L48.8531-48.7116Z"/>
  </g>
  <g id="Regular-S" transform="matrix(1 0 0 1 1391.84 696)">
   <path class="monochrome-0 multicolor-0:custom hierarchical-0:secondary SFSymbolsPreviewD9252A" d="M58.7658-66.7999C61.0509-66.7915 67.8811-66.746 75.0121-66.5008L75.986-66.4661C83.1356-66.2023 90.3931-65.7313 93.5143-64.8902C97.4321-63.8365 100.511-60.7433 101.56-56.8072C103.318-50.1954 103.452-36.9119 103.462-35.0259L103.462-34.9024C103.462-34.8857 103.463-34.8711 103.463-34.8585L103.462-34.7001C103.462-34.6834 103.462-34.6648 103.462-34.6442L103.462-34.4973C103.455-33.2805 103.404-28.5824 103.047-23.55L102.995-22.8459C102.716-19.2004 102.271-15.457 101.56-12.7951C100.511-8.85902 97.4321-5.76585 93.5143-4.71239C86.9881-2.95361 62.3785-2.81291 58.4827-2.80166L58.169-2.80092C58.1418-2.80087 58.1172-2.80083 58.0952-2.8008L57.8284-2.8008C57.8064-2.80083 57.7818-2.80087 57.7546-2.80092L57.4409-2.80166C55.5778-2.80704 48.9767-2.84203 41.8818-3.06948L40.9117-3.1017C33.4566-3.35813 25.6726-3.833 22.4094-4.71239C18.4916-5.76585 15.4127-8.85902 14.364-12.7951C13.6533-15.457 13.2081-19.2004 12.9292-22.8459L12.8772-23.55C12.5278-28.4654 12.4719-33.0618 12.463-34.4068L12.4615-34.7001C12.4614-34.7167 12.4614-34.7314 12.4614-34.744L12.4614-34.8585C12.4614-34.8711 12.4614-34.8857 12.4615-34.9024L12.463-35.1956C12.4715-36.4766 12.5226-40.7066 12.8293-45.3527L12.8772-46.0524L12.9292-46.7565C13.2081-50.402 13.6533-54.1453 14.364-56.8072C15.4127-60.7433 18.4916-63.8365 22.4094-64.8902C25.5308-65.7313 32.7883-66.2023 39.9378-66.4661L40.9117-66.5008C48.0427-66.746 54.8728-66.7915 57.1579-66.7999Z"/>
   <path class="monochrome-1 multicolor-1:white hierarchical-1:primary SFSymbolsPreviewFFFFFF" d="M48.8531-48.5124L48.8531-21.0877L72.4949-34.7999L48.8531-48.5124Z"/>
  </g>
  <g id="Light-S" transform="matrix(1 0 0 1 1095.63 696)">
   <path class="monochrome-0 multicolor-0:custom hierarchical-0:secondary SFSymbolsPreviewD9252A" d="M58.2552-67.149C60.5152-67.1407 67.2702-67.096 74.3228-66.8546L75.286-66.8204C75.4467-66.8145 75.6074-66.8085 75.7682-66.8024L76.7325-66.7644C83.3167-66.4958 89.7451-66.0406 92.6215-65.2691C96.4962-64.232 99.5414-61.1871 100.578-57.3125C101.157-55.1472 101.558-52.2549 101.835-49.2908L101.899-48.5783C102.385-42.9919 102.45-37.3365 102.459-35.9642L102.46-35.8126C102.46-35.7913 102.46-35.7721 102.46-35.7549L102.46-35.4882C102.453-33.8713 102.344-20.5709 100.578-13.9882C99.5414-10.1136 96.4962-7.06881 92.6215-6.03182C89.7451-5.26027 83.3167-4.80505 76.7325-4.53647L75.7682-4.49849C75.6074-4.49237 75.4467-4.48636 75.286-4.48046L74.3228-4.4463C67.2702-4.20486 60.5152-4.16014 58.2552-4.15186L57.9753-4.15095C57.9334-4.15083 57.8939-4.15072 57.8569-4.15063L57.0633-4.15063C57.0263-4.15072 56.9868-4.15083 56.9449-4.15095L56.665-4.15186C54.5078-4.15977 48.2549-4.20087 41.557-4.41458L40.5976-4.4463C40.1167-4.46277 39.6345-4.48014 39.1522-4.49849L38.1879-4.53647C31.6038-4.80505 25.1754-5.26027 22.2988-6.03182C18.4241-7.06881 15.3792-10.1136 14.3419-13.9882C13.7844-16.0669 13.392-18.8156 13.1159-21.6547L13.0493-22.366C12.5351-28.0663 12.4697-33.9351 12.4614-35.3366L12.4614-35.9642C12.4697-37.3657 12.5351-43.2345 13.0493-48.9348L13.1159-49.6461C13.392-52.4852 13.7844-55.2338 14.3419-57.3125C15.3792-61.1871 18.4241-64.232 22.2988-65.2691C25.1754-66.0406 31.6038-66.4958 38.1879-66.7644L39.1522-66.8024C39.6345-66.8207 40.1167-66.8381 40.5976-66.8546L41.557-66.8863C48.2549-67.1 54.5078-67.1411 56.665-67.149Z"/>
   <path class="monochrome-1 multicolor-1:white hierarchical-1:primary SFSymbolsPreviewFFFFFF" d="M48.4516-49.1473L48.4516-22.1512L71.8333-35.6492L48.4516-49.1473Z"/>
  </g>
  <g id="Thin-S" transform="matrix(1 0 0 1 799.417 696)">
   <path class="monochrome-0 multicolor-0:custom hierarchical-0:secondary SFSymbolsPreviewD9252A" d="M57.1643-66.0011C57.1909-66.0011 57.22-66.001 57.2517-66.001L57.7479-65.9995C60.0844-65.991 67.2793-65.9433 74.5896-65.6761L75.5434-65.64C75.7023-65.6338 75.8612-65.6275 76.02-65.621L76.9714-65.581C83.143-65.3123 89.027-64.8717 91.7327-64.1495C95.5644-63.1287 98.5759-60.1322 99.6014-56.3191C101.316-49.9325 101.451-37.1204 101.462-35.2345L101.462-35.0272C101.462-35.0096 101.462-35.0006 101.462-35.0006L101.462-34.9739C101.462-34.965 101.462-34.954 101.462-34.9409L101.462-34.7666C101.452-32.8807 101.323-20.0686 99.6014-13.6819C98.5759-9.86884 95.5644-6.8723 91.7327-5.85176C88.9576-5.11096 82.8392-4.66648 76.4961-4.3998L75.5434-4.36111C67.5963-4.04961 59.5418-4.00664 57.4711-4.00072L57.2517-4.00017C57.22-4.0001 57.1909-4.00005 57.1643-4L56.8311-3.99989C56.8096-3.99992 56.7856-3.99995 56.759-4L56.4522-4.00072C54.4229-4.00652 46.6469-4.04791 38.8569-4.34274L37.9033-4.38013C31.3923-4.64445 25.0352-5.09244 22.1906-5.85176C18.3589-6.8723 15.3477-9.86884 14.322-13.6819C13.8568-15.4081 13.5079-17.6035 13.2462-19.9258L13.1703-20.6259C12.5589-26.4865 12.4746-32.9253 12.463-34.5901L12.4616-34.837C12.4615-34.8584 12.4614-34.8779 12.4614-34.8952L12.4614-35.1059C12.4614-35.1233 12.4615-35.1427 12.4616-35.1641L12.463-35.4111C12.4746-37.0758 12.5589-43.5146 13.1703-49.3751L13.2462-50.0752C13.5079-52.3975 13.8568-54.593 14.322-56.3191C15.3477-60.1322 18.3589-63.1287 22.1906-64.1495C25.1046-64.9273 31.7044-65.3784 38.38-65.64L39.3338-65.6761C46.644-65.9433 53.8389-65.991 56.1753-65.9995L56.6715-66.001C56.7032-66.001 56.7323-66.0011 56.759-66.0011Z"/>
   <path class="monochrome-1 multicolor-1:white hierarchical-1:primary SFSymbolsPreviewFFFFFF" d="M48.0531-48.2834L48.0531-21.7155L71.1753-34.9993L48.0531-48.2834Z"/>
  </g>
  <g id="Ultralight-S" transform="matrix(1 0 0 1 502.705 696)">
   <path class="monochrome-0 multicolor-0:custom hierarchical-0:secondary SFSymbolsPreviewD9252A" d="M57.1643-66.0011C57.1909-66.0011 57.22-66.001 57.2517-66.001L57.7479-65.9995C60.0844-65.991 67.2793-65.9433 74.5896-65.6761L75.5434-65.64C75.7023-65.6338 75.8612-65.6275 76.02-65.621L76.9714-65.581C83.143-65.3123 89.027-64.8717 91.7327-64.1495C95.5644-63.1287 98.5759-60.1322 99.6014-56.3191C101.316-49.9325 101.451-37.1204 101.462-35.2345L101.462-35.0272C101.462-35.0096 101.462-35.0006 101.462-35.0006L101.462-34.9739C101.462-34.965 101.462-34.954 101.462-34.9409L101.462-34.7666C101.452-32.8807 101.323-20.0686 99.6014-13.6819C98.5759-9.86884 95.5644-6.8723 91.7327-5.85176C88.9576-5.11096 82.8392-4.66648 76.4961-4.3998L75.5434-4.36111C67.5963-4.04961 59.5418-4.00664 57.4711-4.00072L57.2517-4.00017C57.22-4.0001 57.1909-4.00005 57.1643-4L56.8311-3.99989C56.8096-3.99992 56.7856-3.99995 56.759-4L56.4522-4.00072C54.4229-4.00652 46.6469-4.04791 38.8569-4.34274L37.9033-4.38013C31.3923-4.64445 25.0352-5.09244 22.1906-5.85176C18.3589-6.8723 15.3477-9.86884 14.322-13.6819C13.8568-15.4081 13.5079-17.6035 13.2462-19.9258L13.1703-20.6259C12.5589-26.4865 12.4746-32.9253 12.463-34.5901L12.4616-34.837C12.4615-34.8584 12.4614-34.8779 12.4614-34.8952L12.4614-35.1059C12.4614-35.1233 12.4615-35.1427 12.4616-35.1641L12.463-35.4111C12.4746-37.0758 12.5589-43.5146 13.1703-49.3751L13.2462-50.0752C13.5079-52.3975 13.8568-54.593 14.322-56.3191C15.3477-60.1322 18.3589-63.1287 22.1906-64.1495C25.1046-64.9273 31.7044-65.3784 38.38-65.64L39.3338-65.6761C46.644-65.9433 53.8389-65.991 56.1753-65.9995L56.6715-66.001C56.7032-66.001 56.7323-66.0011 56.759-66.0011Z"/>
   <path class="monochrome-1 multicolor-1:white hierarchical-1:primary SFSymbolsPreviewFFFFFF" d="M48.0531-48.2834L48.0531-21.7155L71.1753-34.9993L48.0531-48.2834Z"/>
  </g>
 </g>
</svg>
