<?xml version="1.0" encoding="UTF-8"?>
<svg width="3300px" height="2200px" viewBox="0 0 3300 2200" version="1.1" xmlns="http://www.w3.org/2000/svg" xmlns:xlink="http://www.w3.org/1999/xlink">
    <title>youtube.fill</title>
    <g id="youtube.fill" stroke="none" fill="none" fill-rule="evenodd" stroke-width="1">
        <g id="Group">
            <g id="Notes">
                <rect id="artboard" fill="#FFFFFF" x="0" y="0" width="3300" height="2200"></rect>
                <line x1="263" y1="292" x2="3036" y2="292" id="Path" stroke="#000000" stroke-width="0.5"></line>
                <text id="Weight/Scale-Variations" fill="#000000" fill-rule="nonzero" font-family="Helvetica" font-size="13" font-weight="normal">
                    <tspan x="263" y="322">Weight/Scale Variations</tspan>
                </text>
                <text id="Ultralight" fill="#000000" fill-rule="nonzero" font-family="Helvetica" font-size="13" font-weight="normal">
                    <tspan x="533.711" y="322">Ultralight</tspan>
                </text>
                <text id="Thin" fill="#000000" fill-rule="nonzero" font-family="Helvetica" font-size="13" font-weight="normal">
                    <tspan x="843.422" y="322">Thin</tspan>
                </text>
                <text id="Light" fill="#000000" fill-rule="nonzero" font-family="Helvetica" font-size="13" font-weight="normal">
                    <tspan x="1138.63" y="322">Light</tspan>
                </text>
                <text id="Regular" fill="#000000" fill-rule="nonzero" font-family="Helvetica" font-size="13" font-weight="normal">
                    <tspan x="1426.84" y="322">Regular</tspan>
                </text>
                <text id="Medium" fill="#000000" fill-rule="nonzero" font-family="Helvetica" font-size="13" font-weight="normal">
                    <tspan x="1723.06" y="322">Medium</tspan>
                </text>
                <text id="Semibold" fill="#000000" fill-rule="nonzero" font-family="Helvetica" font-size="13" font-weight="normal">
                    <tspan x="2015.77" y="322">Semibold</tspan>
                </text>
                <text id="Bold" fill="#000000" fill-rule="nonzero" font-family="Helvetica" font-size="13" font-weight="normal">
                    <tspan x="2326.48" y="322">Bold</tspan>
                </text>
                <text id="Heavy" fill="#000000" fill-rule="nonzero" font-family="Helvetica" font-size="13" font-weight="normal">
                    <tspan x="2618.19" y="322">Heavy</tspan>
                </text>
                <text id="Black" fill="#000000" fill-rule="nonzero" font-family="Helvetica" font-size="13" font-weight="normal">
                    <tspan x="2917.4" y="322">Black</tspan>
                </text>
                <line x1="263" y1="1903" x2="3036" y2="1903" id="Path" stroke="#000000" stroke-width="0.5"></line>
                <g id="Group" transform="translate(263, 1933)" fill="#000000" fill-rule="nonzero">
                    <path d="M9.24805,0.830078 C13.5547,0.830078 17.1387,-2.74414 17.1387,-7.05078 C17.1387,-11.3574 13.5449,-14.9316 9.23828,-14.9316 C4.94141,-14.9316 1.36719,-11.3574 1.36719,-7.05078 C1.36719,-2.74414 4.95117,0.830078 9.24805,0.830078 Z M9.24805,-0.654297 C5.70312,-0.654297 2.87109,-3.49609 2.87109,-7.05078 C2.87109,-10.6055 5.69336,-13.4473 9.23828,-13.4473 C12.793,-13.4473 15.6445,-10.6055 15.6445,-7.05078 C15.6445,-3.49609 12.8027,-0.654297 9.24805,-0.654297 Z M5.6543,-7.05078 C5.6543,-6.62109 5.95703,-6.32812 6.40625,-6.32812 L8.50586,-6.32812 L8.50586,-4.20898 C8.50586,-3.76953 8.79883,-3.4668 9.22852,-3.4668 C9.67773,-3.4668 9.9707,-3.76953 9.9707,-4.20898 L9.9707,-6.32812 L12.0898,-6.32812 C12.5293,-6.32812 12.832,-6.62109 12.832,-7.05078 C12.832,-7.49023 12.5293,-7.79297 12.0898,-7.79297 L9.9707,-7.79297 L9.9707,-9.90234 C9.9707,-10.3516 9.67773,-10.6543 9.22852,-10.6543 C8.79883,-10.6543 8.50586,-10.3516 8.50586,-9.90234 L8.50586,-7.79297 L6.40625,-7.79297 C5.95703,-7.79297 5.6543,-7.49023 5.6543,-7.05078 Z" id="Shape"></path>
                </g>
                <g id="Group" transform="translate(281.867, 1933)" fill="#000000" fill-rule="nonzero">
                    <path d="M11.709,2.91016 C17.1582,2.91016 21.6699,-1.61133 21.6699,-7.05078 C21.6699,-12.5 17.1484,-17.0117 11.6992,-17.0117 C6.25977,-17.0117 1.74805,-12.5 1.74805,-7.05078 C1.74805,-1.61133 6.26953,2.91016 11.709,2.91016 Z M11.709,1.25 C7.09961,1.25 3.41797,-2.44141 3.41797,-7.05078 C3.41797,-11.6602 7.08984,-15.3516 11.6992,-15.3516 C16.3086,-15.3516 20.0098,-11.6602 20.0098,-7.05078 C20.0098,-2.44141 16.3184,1.25 11.709,1.25 Z M7.17773,-7.05078 C7.17773,-6.57227 7.50977,-6.25 8.00781,-6.25 L10.8789,-6.25 L10.8789,-3.36914 C10.8789,-2.88086 11.2109,-2.53906 11.6895,-2.53906 C12.1777,-2.53906 12.5195,-2.87109 12.5195,-3.36914 L12.5195,-6.25 L15.4004,-6.25 C15.8887,-6.25 16.2305,-6.57227 16.2305,-7.05078 C16.2305,-7.53906 15.8887,-7.88086 15.4004,-7.88086 L12.5195,-7.88086 L12.5195,-10.752 C12.5195,-11.25 12.1777,-11.5918 11.6895,-11.5918 C11.2109,-11.5918 10.8789,-11.25 10.8789,-10.752 L10.8789,-7.88086 L8.00781,-7.88086 C7.50977,-7.88086 7.17773,-7.53906 7.17773,-7.05078 Z" id="Shape"></path>
                </g>
                <g id="Group" transform="translate(305.646, 1933)" fill="#000000" fill-rule="nonzero">
                    <path d="M14.9707,5.66406 C21.9336,5.66406 27.6953,-0.0976562 27.6953,-7.05078 C27.6953,-14.0137 21.9238,-19.7754 14.9609,-19.7754 C8.00781,-19.7754 2.25586,-14.0137 2.25586,-7.05078 C2.25586,-0.0976562 8.01758,5.66406 14.9707,5.66406 Z M14.9707,3.84766 C8.93555,3.84766 4.08203,-1.01562 4.08203,-7.05078 C4.08203,-13.0957 8.92578,-17.9492 14.9609,-17.9492 C21.0059,-17.9492 25.8691,-13.0957 25.8691,-7.05078 C25.8691,-1.01562 21.0156,3.84766 14.9707,3.84766 Z M9.19922,-7.05078 C9.19922,-6.5332 9.57031,-6.17188 10.1172,-6.17188 L14.0625,-6.17188 L14.0625,-2.2168 C14.0625,-1.67969 14.4336,-1.29883 14.9512,-1.29883 C15.4883,-1.29883 15.8594,-1.66992 15.8594,-2.2168 L15.8594,-6.17188 L19.8145,-6.17188 C20.3516,-6.17188 20.7324,-6.5332 20.7324,-7.05078 C20.7324,-7.59766 20.3613,-7.96875 19.8145,-7.96875 L15.8594,-7.96875 L15.8594,-11.9141 C15.8594,-12.4609 15.4883,-12.8418 14.9512,-12.8418 C14.4336,-12.8418 14.0625,-12.4609 14.0625,-11.9141 L14.0625,-7.96875 L10.1172,-7.96875 C9.57031,-7.96875 9.19922,-7.59766 9.19922,-7.05078 Z" id="Shape"></path>
                </g>
                <text id="Design-Variations" fill="#000000" fill-rule="nonzero" font-family="Helvetica" font-size="13" font-weight="normal">
                    <tspan x="263" y="1953">Design Variations</tspan>
                </text>
                <text id="Symbols-are-supported-in-up-to-nine-weights-and-three-scales." fill="#000000" fill-rule="nonzero" font-family="Helvetica" font-size="13" font-weight="normal">
                    <tspan x="263" y="1971">Symbols are supported in up to nine weights and three scales.</tspan>
                </text>
                <text id="For-optimal-layout-with-text-and-other-symbols,-vertically-align" fill="#000000" fill-rule="nonzero" font-family="Helvetica" font-size="13" font-weight="normal">
                    <tspan x="263" y="1989">For optimal layout with text and other symbols, vertically align</tspan>
                </text>
                <text id="symbols-with-the-adjacent-text." fill="#000000" fill-rule="nonzero" font-family="Helvetica" font-size="13" font-weight="normal">
                    <tspan x="263" y="2007">symbols with the adjacent text.</tspan>
                </text>
                <line x1="776" y1="1919" x2="776" y2="1933" id="Path" stroke="#00AEEF" stroke-width="0.5"></line>
                <g id="Group" transform="translate(776, 1933)" fill="#000000" fill-rule="nonzero">
                    <path d="M3.31055,0.15625 C3.82812,0.15625 4.08203,-0.0390625 4.26758,-0.585938 L5.52734,-4.0332 L11.2891,-4.0332 L12.5488,-0.585938 C12.7344,-0.0390625 12.9883,0.15625 13.4961,0.15625 C14.0137,0.15625 14.3457,-0.15625 14.3457,-0.644531 C14.3457,-0.810547 14.3164,-0.966797 14.2383,-1.17188 L9.6582,-13.3691 C9.43359,-13.9648 9.0332,-14.2676 8.4082,-14.2676 C7.80273,-14.2676 7.39258,-13.9746 7.17773,-13.3789 L2.59766,-1.16211 C2.51953,-0.957031 2.49023,-0.800781 2.49023,-0.634766 C2.49023,-0.146484 2.80273,0.15625 3.31055,0.15625 Z M6.00586,-5.51758 L8.37891,-12.0898 L8.42773,-12.0898 L10.8008,-5.51758 L6.00586,-5.51758 Z" id="Shape"></path>
                </g>
                <line x1="793.197" y1="1919" x2="793.197" y2="1933" id="Path" stroke="#00AEEF" stroke-width="0.5"></line>
                <text id="Margins" fill="#000000" fill-rule="nonzero" font-family="Helvetica" font-size="13" font-weight="normal">
                    <tspan x="776" y="1953">Margins</tspan>
                </text>
                <text id="Leading-and-trailing-margins-on-the-left-and-right-side-of-each-symbol" fill="#000000" fill-rule="nonzero" font-family="Helvetica" font-size="13" font-weight="normal">
                    <tspan x="776" y="1971">Leading and trailing margins on the left and right side of each symbol</tspan>
                </text>
                <text id="can-be-adjusted-by-modifying-the-x-location-of-the-margin-guidelines." fill="#000000" fill-rule="nonzero" font-family="Helvetica" font-size="13" font-weight="normal">
                    <tspan x="776" y="1989">can be adjusted by modifying the x-location of the margin guidelines.</tspan>
                </text>
                <text id="Modifications-are-automatically-applied-proportionally-to-all" fill="#000000" fill-rule="nonzero" font-family="Helvetica" font-size="13" font-weight="normal">
                    <tspan x="776" y="2007">Modifications are automatically applied proportionally to all</tspan>
                </text>
                <text id="scales-and-weights." fill="#000000" fill-rule="nonzero" font-family="Helvetica" font-size="13" font-weight="normal">
                    <tspan x="776" y="2025">scales and weights.</tspan>
                </text>
                <g id="Group" transform="translate(1289, 1933)" fill="#000000" fill-rule="nonzero">
                    <path d="M2.8418,1.86523 L4.54102,3.57422 C5.40039,4.44336 6.38672,4.38477 7.31445,3.35938 L18.0078,-8.42773 L17.041,-9.4043 L6.42578,2.27539 C6.07422,2.67578 5.74219,2.77344 5.27344,2.30469 L4.10156,1.14258 C3.63281,0.683594 3.74023,0.341797 4.14062,-0.0195312 L15.6152,-10.8203 L14.6387,-11.7871 L3.04688,-0.898438 C2.06055,0.0195312 1.98242,0.996094 2.8418,1.86523 Z M9.25781,-16.3281 C8.83789,-15.918 8.80859,-15.3418 9.04297,-14.9512 C9.27734,-14.5898 9.73633,-14.3555 10.3809,-14.5215 C11.8457,-14.8633 13.3691,-14.9219 14.7949,-13.9844 L14.209,-12.5293 C13.8672,-11.6992 14.043,-11.1133 14.5801,-10.5664 L16.875,-8.25195 C17.3633,-7.76367 17.7734,-7.74414 18.3398,-7.8418 L19.4043,-8.03711 L20.0684,-7.36328 L20.0293,-6.80664 C19.9902,-6.30859 20.1172,-5.92773 20.6055,-5.44922 L21.3672,-4.70703 C21.8457,-4.22852 22.4609,-4.19922 22.9297,-4.66797 L25.8398,-7.58789 C26.3086,-8.05664 26.2891,-8.65234 25.8105,-9.13086 L25.0391,-9.89258 C24.5605,-10.3711 24.1895,-10.5273 23.7109,-10.4883 L23.1348,-10.4395 L22.4902,-11.0742 L22.7344,-12.1973 C22.8613,-12.7637 22.7051,-13.2031 22.1191,-13.7891 L19.9219,-15.9766 C16.582,-19.2969 12.1484,-19.2188 9.25781,-16.3281 Z M10.752,-15.957 C13.1836,-17.7344 16.4746,-17.4316 18.7012,-15.2051 L21.1328,-12.793 C21.3672,-12.5586 21.4062,-12.373 21.3379,-12.0312 L21.0156,-10.5469 L22.5195,-9.0625 L23.5059,-9.12109 C23.7598,-9.13086 23.8379,-9.11133 24.0332,-8.91602 L24.6094,-8.33984 L22.168,-5.89844 L21.5918,-6.47461 C21.3965,-6.66992 21.3672,-6.74805 21.377,-7.01172 L21.4453,-7.98828 L19.9512,-9.47266 L18.4277,-9.21875 C18.1055,-9.15039 17.959,-9.17969 17.7148,-9.41406 L15.7129,-11.416 C15.459,-11.6504 15.4297,-11.8164 15.5859,-12.1875 L16.4648,-14.2773 C14.9023,-15.7324 12.8711,-16.3574 10.8398,-15.7617 C10.6836,-15.7227 10.625,-15.8496 10.752,-15.957 Z" id="Shape"></path>
                </g>
                <text id="Exporting" fill="#000000" fill-rule="nonzero" font-family="Helvetica" font-size="13" font-weight="normal">
                    <tspan x="1289" y="1953">Exporting</tspan>
                </text>
                <text id="Symbols-should-be-outlined-when-exporting-to-ensure-the" fill="#000000" fill-rule="nonzero" font-family="Helvetica" font-size="13" font-weight="normal">
                    <tspan x="1289" y="1971">Symbols should be outlined when exporting to ensure the</tspan>
                </text>
                <text id="design-is-preserved-when-submitting-to-Xcode." fill="#000000" fill-rule="nonzero" font-family="Helvetica" font-size="13" font-weight="normal">
                    <tspan x="1289" y="1989">design is preserved when submitting to Xcode.</tspan>
                </text>
                <text id="template-version" fill="#000000" fill-rule="nonzero" font-family="Helvetica" font-size="13" font-weight="normal">
                    <tspan x="2952" y="1933">Template v.4.0</tspan>
                </text>
                <text id="Requires-Xcode-14-or-greater" fill="#000000" fill-rule="nonzero" font-family="Helvetica" font-size="13" font-weight="normal">
                    <tspan x="2865" y="1951">Requires Xcode 14 or greater</tspan>
                </text>
                <text id="descriptive-name" fill="#000000" fill-rule="nonzero" font-family="Helvetica" font-size="13" font-weight="normal">
                    <tspan x="2879" y="1969">Generated from youtube.fill</tspan>
                </text>
                <text id="Typeset-at-100-points" fill="#000000" fill-rule="nonzero" font-family="Helvetica" font-size="13" font-weight="normal">
                    <tspan x="2912" y="1987">Typeset at 100 points</tspan>
                </text>
                <text id="Small" fill="#000000" fill-rule="nonzero" font-family="Helvetica" font-size="13" font-weight="normal">
                    <tspan x="263" y="726">Small</tspan>
                </text>
                <text id="Medium" fill="#000000" fill-rule="nonzero" font-family="Helvetica" font-size="13" font-weight="normal">
                    <tspan x="263" y="1156">Medium</tspan>
                </text>
                <text id="Large" fill="#000000" fill-rule="nonzero" font-family="Helvetica" font-size="13" font-weight="normal">
                    <tspan x="263" y="1586">Large</tspan>
                </text>
            </g>
            <g id="Guides">
                <g id="H-reference" transform="translate(339, 696)" fill="#27AAE1" fill-rule="nonzero">
                    <path d="M0.993654,0 L3.63775,0 L29.3281,-67.1323 L30.0303,-67.1323 L30.0303,-70.459 L28.1226,-70.459 L0.993654,0 Z M11.6885,-24.4799 L46.9815,-24.4799 L46.2315,-26.7285 L12.4385,-26.7285 L11.6885,-24.4799 Z M55.1196,0 L57.7637,0 L30.6382,-70.459 L29.4326,-70.459 L29.4326,-67.1323 L55.1196,0 Z" id="Shape"></path>
                </g>
                <line x1="263" y1="696" x2="3036" y2="696" id="Baseline-S" stroke="#27AAE1" stroke-width="0.5"></line>
                <line x1="263" y1="625.541" x2="3036" y2="625.541" id="Capline-S" stroke="#27AAE1" stroke-width="0.5"></line>
                <g id="H-reference" transform="translate(339, 1126)" fill="#27AAE1" fill-rule="nonzero">
                    <path d="M0.993654,0 L3.63775,0 L29.3281,-67.1323 L30.0303,-67.1323 L30.0303,-70.459 L28.1226,-70.459 L0.993654,0 Z M11.6885,-24.4799 L46.9815,-24.4799 L46.2315,-26.7285 L12.4385,-26.7285 L11.6885,-24.4799 Z M55.1196,0 L57.7637,0 L30.6382,-70.459 L29.4326,-70.459 L29.4326,-67.1323 L55.1196,0 Z" id="Shape"></path>
                </g>
                <line x1="263" y1="1126" x2="3036" y2="1126" id="Baseline-M" stroke="#27AAE1" stroke-width="0.5"></line>
                <line x1="263" y1="1055.54" x2="3036" y2="1055.54" id="Capline-M" stroke="#27AAE1" stroke-width="0.5"></line>
                <g id="H-reference" transform="translate(339, 1556)" fill="#27AAE1" fill-rule="nonzero">
                    <path d="M0.993654,0 L3.63775,0 L29.3281,-67.1323 L30.0303,-67.1323 L30.0303,-70.459 L28.1226,-70.459 L0.993654,0 Z M11.6885,-24.4799 L46.9815,-24.4799 L46.2315,-26.7285 L12.4385,-26.7285 L11.6885,-24.4799 Z M55.1196,0 L57.7637,0 L30.6382,-70.459 L29.4326,-70.459 L29.4326,-67.1323 L55.1196,0 Z" id="Shape"></path>
                </g>
                <line x1="263" y1="1556" x2="3036" y2="1556" id="Baseline-L" stroke="#27AAE1" stroke-width="0.5"></line>
                <line x1="263" y1="1485.54" x2="3036" y2="1485.54" id="Capline-L" stroke="#27AAE1" stroke-width="0.5"></line>
                <line x1="1379.84" y1="1030.79" x2="1379.84" y2="1150.12" id="left-margin-Regular-M" stroke="#00AEEF" stroke-width="0.5"></line>
                <line x1="1519.85" y1="1030.79" x2="1519.85" y2="1150.12" id="right-margin-Regular-M" stroke="#00AEEF" stroke-width="0.5"></line>
            </g>
            <g id="Symbols" fill="#D9252A">
                <g id="Black-L" transform="translate(2845.39, 1556)">
                    <path d="M117.87,-88.2405 L119.488,-88.1782 C130.814,-87.7267 142.011,-86.9482 146.955,-85.6059 C153.456,-83.8443 158.565,-78.6729 160.305,-72.0923 C163.261,-60.8918 163.45,-38.2398 163.463,-35.5619 L163.463,-35.3675 L163.463,-35.3309 L163.463,-35.2353 L163.463,-35.1844 L163.463,-34.9487 C163.447,-31.8823 163.242,-9.59177 160.305,1.48974 C158.565,8.07029 153.456,13.2416 146.955,15.0029 C141.894,16.3772 130.277,17.1606 118.679,17.6071 L117.061,17.6672 C103.863,18.141 91.0846,18.1927 88.4537,18.199 L88.1829,18.199 L88.0868,18.199 L87.9055,18.199 L87.8363,18.199 L87.4694,18.199 C82.4225,18.1875 40.0333,18.0072 28.9682,15.0029 C22.4673,13.2416 17.3585,8.07029 15.6182,1.48974 C14.6395,-2.20409 13.9641,-7.14338 13.4982,-12.201 L13.4106,-13.181 L13.328,-14.1622 L13.2504,-15.1427 C13.2379,-15.306 13.2256,-15.4692 13.2134,-15.6322 L13.1429,-16.6083 C12.5633,-24.8855 12.4763,-32.5972 12.4633,-34.7245 L12.4614,-35.0409 L12.4614,-35.1196 L12.4614,-35.4832 L12.4614,-35.5619 L12.4633,-35.8783 C12.4781,-38.2975 12.5885,-47.9394 13.4106,-57.4217 L13.4982,-58.4017 C13.9641,-63.4593 14.6395,-68.3985 15.6182,-72.0923 C17.3585,-78.6729 22.4673,-83.8443 28.9682,-85.6059 C34.1476,-87.0121 46.1902,-87.7995 58.0537,-88.2405 L59.6697,-88.2985 C72.0402,-88.7272 83.8651,-88.7907 87.0972,-88.8002 L88.8259,-88.8002 C92.1986,-88.7903 104.928,-88.7216 117.87,-88.2405 Z M72.8472,-58.2246 L72.8472,-12.3743 L112.077,-35.2993 L72.8472,-58.2246 Z" id="Path-28"></path>
                </g>
                <g id="Heavy-L" transform="translate(2548.68, 1556)">
                    <path d="M88.1821,-88.8954 L88.825,-88.8939 C95.2893,-88.875 136.125,-88.6398 146.954,-85.6996 C153.455,-83.938 158.564,-78.7666 160.304,-72.186 C163.291,-60.8662 163.452,-37.8501 163.461,-35.5767 L163.461,-35.2131 C163.453,-32.9397 163.303,-9.92349 160.304,1.39638 C158.564,7.97695 153.455,13.1483 146.954,14.9096 C135.889,17.9139 93.4997,18.0942 88.4528,18.1056 L88.1821,18.1056 L88.0859,18.1056 L87.8354,18.1056 L87.7393,18.1056 L87.4685,18.1056 C82.4217,18.0942 40.0328,17.9139 28.9678,14.9096 C22.4669,13.1483 17.3581,7.97695 15.6179,1.39638 C12.6501,-9.80433 12.472,-32.4565 12.4614,-35.1344 L12.4614,-35.6554 C12.4684,-37.4217 12.5483,-47.8775 13.4534,-58.0055 L13.5436,-58.9844 C14.0077,-63.8703 14.6707,-68.6113 15.6179,-72.186 C17.3581,-78.7666 22.4669,-83.938 28.9678,-85.6996 C39.7974,-88.6398 80.6321,-88.875 87.0964,-88.8939 L87.7393,-88.8954 L87.8354,-88.8954 L88.0859,-88.8954 L88.1821,-88.8954 Z M72.8464,-58.3181 L72.8464,-12.4678 L112.076,-35.3928 L72.8464,-58.3181 Z" id="Path-27"></path>
                </g>
                <g id="Bold-L" transform="translate(2252.47, 1556)">
                    <path d="M146.065,-85.5699 C152.522,-83.8083 157.598,-78.6369 159.326,-72.0563 C162.232,-60.9749 162.446,-38.6845 162.463,-35.6181 L162.463,-35.4473 L162.463,-35.3824 L162.463,-35.1485 L162.463,-35.0836 L162.463,-34.9128 C162.453,-33.0993 162.378,-24.5622 161.715,-15.5962 L161.641,-14.6167 C161.178,-8.73316 160.455,-2.76394 159.326,1.52567 C157.598,8.10621 152.522,13.2776 146.065,15.0388 C135.073,18.0431 92.964,18.2234 87.9505,18.2349 L87.4756,18.2349 L87.4616,18.2349 L87.4476,18.2349 L86.9728,18.2349 C81.9593,18.2234 39.8507,18.0431 28.8589,15.0388 C22.401,13.2776 17.326,8.10621 15.5973,1.52567 C14.5623,-2.40647 13.8689,-7.74996 13.4043,-13.1451 L13.3223,-14.1263 C13.2825,-14.6169 13.2446,-15.1072 13.2084,-15.5962 L13.1384,-16.5723 C12.5626,-24.8496 12.4762,-32.5613 12.4633,-34.6886 L12.4614,-35.005 L12.4614,-35.0836 L12.4614,-35.4473 L12.4614,-35.5259 L12.4633,-35.8423 C12.4864,-39.638 12.7432,-61.2133 15.5973,-72.0563 C17.326,-78.6369 22.401,-83.8083 28.8589,-85.5699 C33.7701,-86.9122 44.8935,-87.6907 56.1444,-88.1422 L57.7519,-88.2045 C70.6082,-88.6856 83.2527,-88.7543 86.603,-88.7642 L88.3203,-88.7642 C94.7418,-88.7453 135.307,-88.5101 146.065,-85.5699 Z M72.4473,-58.1886 L72.4473,-12.3384 L111.417,-35.2633 L72.4473,-58.1886 Z" id="Path-26"></path>
                </g>
                <g id="Semibold-L" transform="translate(1956.26, 1556)">
                    <path d="M87.1789,-88.9875 L87.8134,-88.986 C94.1921,-88.9673 134.486,-88.7343 145.172,-85.8215 C151.587,-84.0764 156.628,-78.9534 158.345,-72.4342 C161.262,-61.3383 161.448,-38.8979 161.461,-36.245 L161.461,-36.0525 L161.461,-36.0163 L161.461,-35.9577 L161.461,-35.9215 L161.461,-35.6376 C161.446,-32.5999 161.243,-10.5175 158.345,0.460443 C156.628,6.97951 151.587,12.1026 145.172,13.8473 C134.254,16.8236 92.4261,17.0022 87.4461,17.0136 L87.0841,17.0136 L87.0157,17.0136 L86.9052,17.0136 L86.8369,17.0136 L86.4749,17.0136 C81.4949,17.0022 39.6675,16.8236 28.7491,13.8473 C22.3343,12.1026 17.2933,6.97951 15.5761,0.460443 C12.6476,-10.6356 12.4719,-33.076 12.4614,-35.729 L12.4614,-36.245 C12.4685,-38.0513 12.5523,-49.0301 13.5293,-59.356 L13.6235,-60.3218 C14.0757,-64.8173 14.7038,-69.1291 15.5761,-72.4342 C17.2933,-78.9534 22.3343,-84.0764 28.7491,-85.8215 C39.4352,-88.7343 79.729,-88.9673 86.1076,-88.986 L86.742,-88.9875 L86.8369,-88.9875 L87.0841,-88.9875 L87.1789,-88.9875 Z M72.0464,-58.696 L72.0464,-13.2741 L110.756,-35.9849 L72.0464,-58.696 Z" id="Path-25"></path>
                </g>
                <g id="Medium-L" transform="translate(1659.55, 1556)">
                    <path d="M145.171,-85.2312 C151.586,-83.4861 156.628,-78.363 158.345,-71.8439 C161.293,-60.6299 161.451,-37.8288 161.46,-35.5767 L161.46,-35.1385 C161.453,-33.558 161.388,-24.9547 160.718,-15.911 L160.643,-14.9407 C160.618,-14.6169 160.592,-14.2928 160.564,-13.9687 L160.481,-12.997 C160.02,-7.81847 159.342,-2.72638 158.345,1.051 C156.628,7.5701 151.586,12.6931 145.171,14.4379 C140.409,15.7361 129.767,16.502 118.866,16.9539 L117.27,17.0178 C103.43,17.5528 89.616,17.5997 87.299,17.6038 L86.6204,17.6038 C84.3035,17.5997 70.4899,17.5528 56.6499,17.0178 L55.0536,16.9539 C44.1531,16.502 33.5105,15.7361 28.7482,14.4379 C22.3334,12.6931 17.2923,7.5701 15.5752,1.051 C14.5782,-2.72638 13.9003,-7.81847 13.4394,-12.997 L13.3554,-13.9687 C12.5683,-23.3658 12.4729,-32.7948 12.4614,-34.9426 L12.4614,-35.8505 C12.4797,-39.2573 12.709,-60.984 15.5752,-71.8439 C17.2923,-78.363 22.3334,-83.4861 28.7482,-85.2312 C33.6267,-86.561 44.6757,-87.3322 55.8515,-87.7795 L57.4483,-87.8413 C70.7509,-88.3377 83.8252,-88.3909 86.4741,-88.3966 L87.4453,-88.3966 C92.4254,-88.3859 134.253,-88.2073 145.171,-85.2312 Z M72.0456,-58.1056 L72.0456,-12.6836 L110.755,-35.3944 L72.0456,-58.1056 Z" id="Path-24"></path>
                </g>
                <g id="Regular-L" transform="translate(1363.34, 1556)">
                    <path d="M118.155,-86.9825 L119.737,-86.9147 C129.999,-86.4596 139.784,-85.7135 144.283,-84.4904 C150.655,-82.7618 155.663,-77.6871 157.368,-71.2295 C160.297,-60.1214 160.454,-37.5355 160.463,-35.3047 L160.463,-34.8707 C160.452,-32.2428 160.277,-10.0142 157.368,0.977108 C155.663,7.43464 150.655,12.5093 144.283,14.2376 C139.784,15.4608 129.999,16.207 119.737,16.6621 L118.155,16.7299 C104.422,17.2976 90.2776,17.3649 87.1145,17.3738 L86.7989,17.3738 L86.6789,17.3738 L86.245,17.3738 L86.1249,17.3738 L85.8094,17.3738 C80.1525,17.3586 39.3705,17.1545 28.6406,14.2376 C22.2688,12.5093 17.2615,7.43464 15.5559,0.977108 C14.4728,-3.11539 13.7688,-8.76581 13.3112,-14.3823 L13.2351,-15.3445 C12.5596,-24.1561 12.4738,-32.6592 12.4629,-34.6766 L12.4614,-35.0614 L12.4614,-35.0973 L12.4614,-35.1553 L12.4614,-35.1912 L12.4629,-35.576 C12.4811,-38.9506 12.7089,-60.4721 15.5559,-71.2295 C17.2615,-77.6871 22.2688,-82.7618 28.6406,-84.4904 C39.3705,-87.4071 80.1525,-87.6112 85.8094,-87.6255 L87.1145,-87.6255 C90.2776,-87.6175 104.422,-87.5502 118.155,-86.9825 Z M71.6478,-57.6209 L71.6478,-12.6278 L110.098,-35.1242 L71.6478,-57.6209 Z" id="Path-23"></path>
                </g>
                <g id="Light-L" transform="translate(1067.13, 1556)">
                    <path d="M86.44,-86.8067 L87.0193,-86.8048 C93.9562,-86.7819 132.964,-86.5275 143.392,-83.7008 C149.72,-81.9886 154.694,-76.9622 156.388,-70.5661 C157.429,-66.6284 158.117,-61.2346 158.573,-55.83 L158.651,-54.8764 C158.689,-54.3998 158.725,-53.9239 158.759,-53.4495 L158.825,-52.5031 C159.383,-44.3241 159.452,-36.816 159.462,-35.1495 L159.462,-34.9835 L159.462,-34.9204 L159.462,-34.693 L159.462,-34.63 L159.462,-34.4639 C159.452,-32.477 159.36,-22.1855 158.452,-12.3539 L158.362,-11.4042 C157.912,-6.82375 157.28,-2.40574 156.388,0.952907 C154.694,7.34895 149.72,12.3753 143.392,14.0872 C132.735,16.9762 92.2278,17.1784 86.6091,17.1936 L86.1764,17.1936 L86.0828,17.1936 L85.8389,17.1936 L85.7454,17.1936 L85.3127,17.1936 C79.694,17.1784 39.1876,16.9762 28.5303,14.0872 C22.2015,12.3753 17.2281,7.34895 15.5339,0.952907 C12.6755,-9.81791 12.4754,-31.4835 12.4614,-34.4639 L12.4614,-35.1495 C12.4754,-38.1299 12.6755,-59.7954 15.5339,-70.5661 C17.2281,-76.9622 22.2015,-81.9886 28.5303,-83.7008 C38.9584,-86.5275 77.9656,-86.7819 84.9025,-86.8048 L85.4818,-86.8067 L85.6262,-86.8067 L86.2956,-86.8067 L86.44,-86.8067 Z M71.2469,-57.0872 L71.2469,-12.5225 L109.437,-34.8046 L71.2469,-57.0872 Z" id="Path-22"></path>
                </g>
                <g id="Thin-L" transform="translate(771.416, 1556)">
                    <path d="M113.681,-86.1805 L115.235,-86.1205 C126.111,-85.6858 136.864,-84.9364 141.611,-83.6443 C147.854,-81.9486 152.76,-76.9706 154.431,-70.636 C155.397,-66.9656 156.055,-62.0177 156.504,-56.9857 L156.586,-56.0415 C157.365,-46.7531 157.452,-37.4325 157.463,-35.5599 L157.463,-35.333 L157.463,-35.2841 L157.463,-35.1078 L157.463,-35.0454 L157.463,-34.8809 C157.448,-31.9292 157.251,-10.4719 154.431,0.195337 C152.76,6.52988 147.854,11.5079 141.611,13.2033 C136.977,14.4647 126.62,15.2089 116.012,15.648 L114.458,15.7102 C101.249,16.2199 88.0637,16.2736 85.4342,16.2799 L85.0154,16.2799 L84.9616,16.2799 L84.9078,16.2799 L84.8413,16.2799 L84.489,16.2799 C81.9628,16.2738 69.6926,16.2241 57.0186,15.768 L55.4652,15.7102 C44.3278,15.2803 33.1729,14.5262 28.3123,13.2033 C22.0697,11.5079 17.1639,6.52988 15.4928,0.195337 C14.6742,-2.90161 14.0766,-6.90801 13.6404,-11.107 L13.5461,-12.043 C12.5985,-21.7416 12.4784,-32.1757 12.4632,-34.6651 L12.4614,-34.9697 L12.4614,-35.0454 L12.4614,-35.3955 L12.4614,-35.4712 L12.4632,-35.7757 C12.476,-37.8636 12.5625,-45.5401 13.1491,-53.6839 L13.2191,-54.6254 C13.6643,-60.4402 14.371,-66.3921 15.4928,-70.636 C17.1639,-76.9706 22.0697,-81.9486 28.3123,-83.6443 C32.8338,-84.8749 42.802,-85.6132 53.136,-86.0563 L54.6883,-86.1205 L56.2422,-86.1805 C68.6699,-86.6436 80.893,-86.7097 84.1316,-86.7192 L85.7916,-86.7192 C89.0303,-86.7097 101.254,-86.6436 113.681,-86.1805 Z M70.4478,-57.2866 L70.4478,-13.1505 L108.119,-35.2184 L70.4478,-57.2866 Z" id="Path-21"></path>
                </g>
                <g id="Ultralight-L" transform="translate(475.206, 1556)">
                    <path d="M112.211,-85.6574 L113.753,-85.6 C124.814,-85.1744 135.892,-84.4277 140.719,-83.1177 C146.918,-81.4384 151.791,-76.5087 153.45,-70.2357 C154.59,-65.9194 155.298,-59.8192 155.738,-53.9141 L155.806,-52.9836 C156.402,-44.4744 156.456,-36.5921 156.461,-35.3375 L156.461,-34.9159 C156.454,-33.2593 156.38,-23.5843 155.556,-14.0776 L155.472,-13.1433 C155.028,-8.32211 154.383,-3.61366 153.45,-0.0924544 C151.791,6.18055 146.918,11.1102 140.719,12.7891 C130.279,15.6226 90.5992,15.821 85.0952,15.8348 L84.6713,15.8359 L84.5797,15.8359 L84.4068,15.8359 L84.3408,15.8359 L83.8253,15.8348 C78.3213,15.821 38.6416,15.6226 28.2018,12.7891 C22.0022,11.1102 17.1303,6.18055 15.4707,-0.0924544 C14.5373,-3.61366 13.8933,-8.32211 13.4489,-13.1433 L13.3654,-14.0776 C12.5679,-23.2726 12.4727,-32.625 12.4614,-34.7273 L12.4614,-35.601 C12.4718,-37.5251 12.5524,-45.5226 13.1774,-53.9141 L13.2491,-54.8478 C13.2861,-55.3152 13.3248,-55.7831 13.3654,-56.2507 L13.4489,-57.1849 L13.5374,-58.1163 C13.9776,-62.6087 14.5976,-66.9417 15.4707,-70.2357 C17.1303,-76.5087 22.0022,-81.4384 28.2018,-83.1177 C38.7539,-85.9814 79.178,-86.1533 83.9909,-86.1636 L84.9295,-86.1636 C87.4384,-86.1582 99.624,-86.1089 112.211,-85.6574 Z M70.0465,-57.016 L70.0465,-13.3086 L107.458,-35.1621 L70.0465,-57.016 Z" id="Path-20"></path>
                </g>
                <g id="Black-M" transform="translate(2862.4, 1126)">
                    <path d="M94.7609,-76.1423 L96.0144,-76.0922 C104.574,-75.7384 112.931,-75.1387 116.67,-74.1223 C121.707,-72.7558 125.666,-68.7443 127.014,-63.6397 C127.768,-60.781 128.289,-56.9607 128.65,-53.0471 L128.72,-52.2634 C128.743,-52.0019 128.765,-51.7402 128.786,-51.4787 L128.848,-50.6946 L128.906,-49.9127 L128.96,-49.1345 C129.405,-42.5395 129.455,-36.5111 129.46,-35.315 L129.46,-34.81 C129.453,-33.4532 129.4,-27.5321 128.964,-21.0664 L128.91,-20.2882 L128.852,-19.5062 C128.823,-19.1146 128.791,-18.7222 128.758,-18.3298 L128.69,-17.5454 C128.328,-13.4959 127.796,-9.51508 127.014,-6.56111 C125.666,-1.45649 121.707,2.55499 116.67,3.9212 C112.931,4.9377 104.574,5.53743 96.0144,5.89128 L94.7609,5.94132 C84.5202,6.33603 74.2977,6.39142 71.63,6.3992 L71.3416,6.40016 L71.2267,6.40016 L70.6938,6.40016 L70.5789,6.40016 L70.2905,6.3992 C67.8406,6.39206 59.0191,6.34475 49.6633,6.03136 L48.4132,5.98798 L47.1598,5.94132 C38.1731,5.59495 29.1723,4.98729 25.2503,3.9212 C20.2132,2.55499 16.2547,-1.45649 14.9063,-6.56111 C14.1245,-9.51508 13.5926,-13.4959 13.2306,-17.5454 L13.1626,-18.3298 C13.1297,-18.7222 13.0983,-19.1146 13.0684,-19.5062 L13.0105,-20.2882 L12.9564,-21.0664 C12.5297,-27.4028 12.4698,-33.2162 12.4614,-34.7232 L12.4614,-35.4778 C12.4698,-36.9848 12.5297,-42.7981 12.9564,-49.1345 L13.0105,-49.9127 L13.0684,-50.6946 C13.0983,-51.0863 13.1297,-51.4787 13.1626,-51.8711 L13.2306,-52.6554 C13.5926,-56.705 14.1245,-60.6857 14.9063,-63.6397 C16.2547,-68.7443 20.2132,-72.7558 25.2503,-74.1223 C33.6415,-76.4031 65.2818,-76.5855 70.2905,-76.6001 L71.63,-76.6001 C74.2977,-76.5924 84.5202,-76.537 94.7609,-76.1423 Z M59.2491,-52.8823 L59.2491,-17.3157 L89.6455,-35.0988 L59.2491,-52.8823 Z" id="Path-19"></path>
                </g>
                <g id="Heavy-M" transform="translate(2565.68, 1126)">
                    <path d="M71.2264,-76.7894 L71.8025,-76.7877 C74.7147,-76.7781 84.7289,-76.717 94.7606,-76.3304 L96.0141,-76.2804 C104.574,-75.9266 112.931,-75.3269 116.67,-74.3104 C121.707,-72.944 125.666,-68.9325 127.014,-63.8278 C127.843,-60.6833 128.391,-56.3752 128.753,-52.0592 L128.817,-51.2746 C129.374,-44.2175 129.449,-37.3267 129.46,-35.6659 L129.46,-35.5032 L129.46,-35.4384 L129.46,-35.0741 C129.455,-33.878 129.408,-27.8496 128.964,-21.2546 L128.91,-20.4763 L128.852,-19.6944 L128.79,-18.9103 C128.769,-18.6488 128.747,-18.3871 128.724,-18.1256 L128.654,-17.3419 C128.293,-13.4283 127.771,-9.60796 127.014,-6.74927 C125.666,-1.64466 121.707,2.36682 116.67,3.73303 C113.204,4.67515 105.772,5.25926 97.8881,5.62141 L96.64,5.67677 C96.4316,5.68569 96.2229,5.69447 96.0141,5.7031 L94.7606,5.75315 C84.1019,6.16396 73.463,6.2072 71.3414,6.21176 L70.5787,6.21176 C66.6682,6.20337 33.8238,6.06353 25.2503,3.73303 C20.2132,2.36682 16.2547,-1.64466 14.9063,-6.74927 C14.1245,-9.70325 13.5925,-13.684 13.2306,-17.7336 L13.1626,-18.518 C13.1297,-18.9103 13.0983,-19.3028 13.0684,-19.6944 L13.0105,-20.4763 L12.9564,-21.2546 C12.5297,-27.591 12.4698,-33.4043 12.4614,-34.9113 L12.4614,-35.6659 C12.4701,-37.2344 12.5346,-43.468 13.0105,-50.1009 L13.0684,-50.8828 C13.0784,-51.0133 13.0885,-51.144 13.0988,-51.2746 L13.1626,-52.0592 C13.1846,-52.3208 13.2072,-52.5823 13.2306,-52.8436 L13.3028,-53.6262 C13.6622,-57.4025 14.1749,-61.0644 14.9063,-63.8278 C16.2547,-68.9325 20.2132,-72.944 25.2503,-74.3104 C29.1722,-75.3764 38.173,-75.9841 47.1597,-76.3304 L48.4131,-76.3771 L49.6631,-76.4205 C58.811,-76.7269 67.4481,-76.7789 70.1176,-76.7877 L70.6936,-76.7894 L70.7885,-76.7894 L71.1316,-76.7894 L71.2264,-76.7894 Z M59.249,-53.0704 L59.249,-17.5038 L89.6452,-35.287 L59.249,-53.0704 Z" id="Path-18"></path>
                </g>
                <g id="Bold-M" transform="translate(2269.47, 1126)">
                    <path d="M115.781,-74.4338 C120.775,-73.0838 124.7,-69.1207 126.037,-64.0776 C126.784,-61.2534 127.301,-57.4792 127.659,-53.6127 L127.728,-52.8385 C127.807,-51.9343 127.877,-51.0283 127.94,-50.1312 L127.992,-49.3647 C128.401,-43.1274 128.455,-37.4831 128.462,-36.1695 L128.462,-36.0305 L128.462,-35.9778 L128.462,-35.7873 L128.462,-35.7346 L128.462,-35.5956 C128.45,-33.1828 128.288,-16.16 126.037,-7.68732 C124.7,-2.64426 120.775,1.31885 115.781,2.66859 C107.372,4.9465 75.407,5.10595 70.9731,5.11789 L70.6317,5.11789 L70.5578,5.11789 L70.3654,5.11789 L70.2916,5.11789 L69.9501,5.11789 C67.7094,5.11148 58.4372,5.06796 48.7274,4.73227 L47.486,4.68781 C38.3723,4.34983 29.121,3.74631 25.1421,2.66859 C20.148,1.31885 16.2233,-2.64426 14.8865,-7.68732 C12.6861,-15.9717 12.4819,-32.4305 12.463,-35.4134 L12.4614,-35.6706 L12.4614,-35.7346 L12.4614,-36.0305 L12.4614,-36.0945 L12.463,-36.3517 C12.4754,-38.3177 12.5684,-46.1376 13.2603,-53.6127 L13.334,-54.3846 L13.4122,-55.1524 C13.7605,-58.4688 14.2364,-61.63 14.8865,-64.0776 C16.2233,-69.1207 20.148,-73.0838 25.1421,-74.4338 C29.0306,-75.487 37.9545,-76.0873 46.8645,-76.4295 L48.1071,-76.4755 C57.6256,-76.8164 66.8593,-76.8721 69.6264,-76.8813 L71.2968,-76.8813 C76.7709,-76.8632 107.553,-76.6626 115.781,-74.4338 Z M58.8505,-53.4499 L58.8505,-18.3122 L88.9873,-35.8809 L58.8505,-53.4499 Z" id="Path-17"></path>
                </g>
                <g id="Semibold-M" transform="translate(1973.26, 1126)">
                    <path d="M92.1222,-75.8554 L93.3541,-75.8099 C102.187,-75.4719 111.034,-74.8789 114.889,-73.8386 C119.84,-72.5051 123.731,-68.5902 125.056,-63.6086 C127.277,-55.2461 127.447,-38.4514 127.461,-36.0466 L127.461,-35.8117 L127.461,-35.7816 L127.461,-35.7031 L127.461,-35.6614 L127.461,-35.4681 C127.453,-34.0901 127.397,-27.9868 126.931,-21.4527 L126.874,-20.6823 C126.522,-16.0508 125.958,-11.2885 125.056,-7.90593 C123.731,-2.92436 119.84,0.99042 114.889,2.3237 C106.642,4.54964 75.5418,4.72772 70.6186,4.74196 L70.3351,4.74305 L70.2221,4.74305 L69.7917,4.74305 L69.6984,4.74305 L69.302,4.74196 C64.3789,4.72772 33.2794,4.54964 25.0317,2.3237 C20.0806,0.99042 16.1898,-2.92436 14.8645,-7.90593 C12.6603,-16.1745 12.4767,-32.687 12.4614,-35.3816 L12.4614,-36.1331 C12.4702,-37.6948 12.5357,-43.8974 13.0181,-50.4467 L13.0769,-51.2186 C13.4308,-55.7273 13.9878,-60.32 14.8645,-63.6086 C16.1898,-68.5902 20.0806,-72.5051 25.0317,-73.8386 C28.8866,-74.8789 37.7336,-75.4719 46.5667,-75.8099 L47.7986,-75.8554 C57.235,-76.1921 66.3891,-76.2472 69.1323,-76.2562 L70.7883,-76.2562 C73.5315,-76.2472 82.6857,-76.1921 92.1222,-75.8554 Z M58.4494,-53.1105 L58.4494,-18.4013 L88.3262,-35.7557 L58.4494,-53.1105 Z" id="Path-16"></path>
                </g>
                <g id="Medium-M" transform="translate(1676.55, 1126)">
                    <path d="M70.4684,-75.7833 L70.9773,-75.7814 C73.9307,-75.7705 82.8919,-75.7106 92.1232,-75.3813 L93.3552,-75.3358 C93.5606,-75.3279 93.766,-75.3199 93.9714,-75.3118 L95.2025,-75.2612 C103.398,-74.9129 111.304,-74.3322 114.89,-73.3645 C119.841,-72.031 123.732,-68.1161 125.057,-63.1345 C127.253,-54.866 127.444,-38.3536 127.46,-35.659 L127.462,-35.4969 L127.462,-35.4325 L127.462,-35.0696 C127.455,-33.5749 127.382,-24.5064 126.53,-16.3507 L126.448,-15.5891 C126.109,-12.5552 125.659,-9.68691 125.057,-7.43184 C123.732,-2.45027 119.841,1.46452 114.89,2.7978 C106.643,5.02374 75.5428,5.20182 70.6196,5.21606 L70.3361,5.217 L70.2232,5.217 L69.6995,5.217 L69.5865,5.217 L69.3031,5.21606 C66.5739,5.20817 55.8008,5.14992 45.3356,4.72039 L44.1064,4.66812 C36.1319,4.317 28.529,3.7414 25.0327,2.7978 C20.0817,1.46452 16.1909,-2.45027 14.8656,-7.43184 C14.0891,-10.3446 13.5634,-14.2805 13.2074,-18.2749 L13.1406,-19.0485 C12.5581,-26.0127 12.4749,-32.9658 12.463,-34.8103 L12.4614,-35.0696 L12.4614,-35.1341 L12.4614,-35.4325 L12.4614,-35.4969 L12.463,-35.7562 C12.4749,-37.6007 12.5581,-44.5538 13.1406,-51.518 L13.2074,-52.2916 C13.5634,-56.286 14.0891,-60.2218 14.8656,-63.1345 C16.1909,-68.1161 20.0817,-72.031 25.0327,-73.3645 C28.8876,-74.4048 37.7346,-74.9978 46.5677,-75.3358 L47.7997,-75.3813 C57.0309,-75.7106 65.992,-75.7705 68.9454,-75.7814 L69.4543,-75.7833 L69.5865,-75.7833 L70.3361,-75.7833 L70.4684,-75.7833 Z M58.4504,-52.6364 L58.4504,-17.9272 L88.3272,-35.2816 L58.4504,-52.6364 Z" id="Path-15"></path>
                </g>
                <g id="Regular-M" transform="translate(1379.84, 1126)">
                    <path d="M92.1224,-75.7631 L93.3543,-75.7176 C102.188,-75.3796 111.035,-74.7866 114.889,-73.7463 C119.84,-72.4128 123.732,-68.498 125.057,-63.5164 C127.277,-55.1539 127.447,-38.3592 127.461,-35.9544 L127.461,-35.8143 L127.461,-35.7611 L127.461,-35.5159 L127.461,-35.4515 L127.461,-35.2894 C127.445,-32.5948 127.261,-16.0823 125.057,-7.81376 C123.732,-2.8322 119.84,1.08258 114.889,2.41586 C106.552,4.66599 74.8631,4.8235 70.4675,4.83529 L70.129,4.83529 L70.0558,4.83529 L69.865,4.83529 L69.7918,4.83529 L69.4534,4.83529 C67.232,4.82895 58.0397,4.78597 48.4137,4.45437 L47.183,4.41045 C38.1478,4.0766 28.9763,3.48044 25.0317,2.41586 C20.0807,1.08258 16.1898,-2.8322 14.8645,-7.81376 C12.6603,-16.0823 12.4767,-32.5948 12.4614,-35.2894 L12.4614,-36.0409 C12.4702,-37.6025 12.5357,-43.8052 13.0181,-50.3545 L13.0769,-51.1263 C13.4308,-55.6351 13.9879,-60.2277 14.8645,-63.5164 C16.1898,-68.498 20.0807,-72.4128 25.0317,-73.7463 C33.1898,-75.9479 63.7057,-76.146 69.1324,-76.1639 L70.7885,-76.1639 C73.5317,-76.1549 82.6859,-76.0998 92.1224,-75.7631 Z M58.4495,-53.0183 L58.4495,-18.3091 L88.3264,-35.6635 L58.4495,-53.0183 Z" id="Path-14"></path>
                </g>
                <g id="Light-M" transform="translate(1083.63, 1126)">
                    <path d="M92.6507,-74.9873 L93.8721,-74.9391 C102.212,-74.598 110.355,-74.02 113.998,-73.0403 C118.906,-71.7233 122.764,-67.8568 124.077,-62.9367 C126.276,-54.6844 126.447,-38.1176 126.461,-35.721 L126.461,-35.4842 L126.461,-35.4539 L126.461,-35.3747 L126.461,-35.3326 L126.461,-35.1378 C126.453,-33.8305 126.402,-28.3074 125.998,-22.2172 L125.946,-21.4532 C125.901,-20.8145 125.852,-20.1714 125.798,-19.5278 L125.732,-18.7557 C125.379,-14.7679 124.855,-10.829 124.077,-7.92193 C122.764,-3.00188 118.906,0.864562 113.998,2.18138 C110.355,3.16112 102.212,3.73917 93.8721,4.08022 L92.6507,4.12846 C82.4689,4.51665 72.3056,4.56433 69.9629,4.57018 L69.4709,4.571 L69.4603,4.571 L69.4496,4.571 L68.9576,4.57018 C66.615,4.56433 56.4518,4.51665 46.2701,4.12846 L45.0487,4.08022 C36.7087,3.73917 28.566,3.16112 24.9223,2.18138 C20.0143,0.864562 16.1574,-3.00188 14.8436,-7.92193 C14.0657,-10.829 13.5417,-14.7679 13.1887,-18.7557 L13.1225,-19.5278 L13.0604,-20.2996 L13.0024,-21.0695 C12.993,-21.1976 12.9838,-21.3255 12.9748,-21.4532 L12.9225,-22.2172 C12.5272,-28.1805 12.4697,-33.6002 12.4614,-35.0506 L12.4614,-35.8082 C12.4768,-38.4931 12.6607,-54.7781 14.8436,-62.9367 C16.1574,-67.8568 20.0143,-71.7233 24.9223,-73.0403 C28.566,-74.02 36.7087,-74.598 45.0487,-74.9391 L46.2701,-74.9873 C56.0446,-75.3599 65.8019,-75.4188 68.6394,-75.4281 L70.2811,-75.4281 C73.1187,-75.4188 82.8761,-75.3599 92.6507,-74.9873 Z M58.0494,-52.5683 L58.0494,-18.2876 L87.6665,-35.4278 L58.0494,-52.5683 Z" id="Path-13"></path>
                </g>
                <g id="Thin-M" transform="translate(787.417, 1126)">
                    <path d="M113.108,-73.0672 C117.973,-71.7502 121.796,-67.8837 123.098,-62.9636 C123.792,-60.3378 124.282,-56.8703 124.628,-53.2853 L124.7,-52.5155 C124.712,-52.387 124.723,-52.2584 124.734,-52.1298 L124.8,-51.3576 C125.383,-44.2787 125.452,-37.2456 125.461,-35.7477 L125.461,-35.5529 L125.461,-35.5108 L125.461,-35.4013 L125.461,-35.3592 L125.461,-35.1644 C125.453,-33.8299 125.4,-28.102 124.977,-21.8624 L124.923,-21.096 C124.886,-20.5838 124.847,-20.0692 124.804,-19.5544 L124.739,-18.7822 C124.727,-18.6536 124.716,-18.525 124.704,-18.3965 L124.632,-17.6267 C124.286,-14.0417 123.795,-10.5742 123.098,-7.94839 C121.796,-3.02831 117.973,0.838154 113.108,2.15498 C105.004,4.35344 74.4447,4.52932 69.6071,4.54339 L69.3286,4.54432 L69.2176,4.54432 L68.703,4.54432 L68.592,4.54432 L68.3135,4.54339 C63.4759,4.52932 32.9173,4.35344 24.813,2.15498 C19.9481,0.838154 16.1249,-3.02831 14.8227,-7.94839 C14.1263,-10.5742 13.6352,-14.0417 13.2888,-17.6267 L13.2167,-18.3965 C13.2051,-18.525 13.1936,-18.6536 13.1824,-18.7822 L13.1167,-19.5544 C13.0955,-19.8118 13.075,-20.0692 13.0552,-20.3262 L12.9976,-21.096 C12.5341,-27.499 12.4702,-33.5342 12.4614,-35.0773 L12.4614,-35.8348 C12.4709,-37.5013 12.5447,-44.4074 13.1167,-51.3576 L13.1824,-52.1298 C13.1936,-52.2584 13.2051,-52.387 13.2167,-52.5155 L13.2888,-53.2853 C13.6352,-56.8703 14.1263,-60.3378 14.8227,-62.9636 C16.1249,-67.8837 19.9481,-71.7502 24.813,-73.0672 C32.8292,-75.2417 62.8143,-75.4374 68.1467,-75.455 L69.7739,-75.455 C75.1063,-75.4374 105.092,-75.2417 113.108,-73.0672 Z M57.6495,-52.595 L57.6495,-18.3142 L87.0068,-35.4545 L57.6495,-52.595 Z" id="Path-12"></path>
                </g>
                <g id="Ultralight-M" transform="translate(491.206, 1126)">
                    <path d="M90.0441,-74.5651 L91.2439,-74.5207 L92.4439,-74.473 C100.638,-74.1363 108.637,-73.5655 112.217,-72.598 C117.039,-71.2975 120.828,-67.4794 122.119,-62.6208 C122.863,-59.8131 123.371,-56.0308 123.718,-52.182 L123.785,-51.4116 C123.796,-51.2831 123.806,-51.1547 123.817,-51.0262 L123.878,-50.2562 C124.388,-43.5902 124.452,-37.1789 124.461,-35.7514 L124.461,-35.555 L124.461,-35.5126 L124.461,-35.4022 L124.461,-35.3598 L124.461,-35.1634 C124.448,-32.7751 124.287,-16.4363 122.119,-8.29391 C120.828,-3.43539 117.039,0.382704 112.217,1.68305 C108.637,2.65055 100.638,3.22137 92.4439,3.55815 L91.2439,3.60579 L90.0441,3.65019 C80.6541,3.98569 71.5511,4.03449 69.1016,4.04159 L68.8255,4.0425 L68.7155,4.0425 L68.2054,4.0425 L68.0954,4.0425 L67.8194,4.04159 C65.5263,4.03494 57.402,3.99175 48.6699,3.711 L47.4759,3.67122 C47.2765,3.66434 47.0768,3.65733 46.877,3.65019 L45.6772,3.60579 L44.4773,3.55815 C36.2836,3.22137 28.2838,2.65055 24.7041,1.68305 C19.8822,0.382704 16.0929,-3.43539 14.8022,-8.29391 C12.6348,-16.4363 12.4734,-32.7751 12.4614,-35.1634 L12.4614,-35.7514 C12.4734,-38.1397 12.6348,-54.4785 14.8022,-62.6208 C16.0929,-67.4794 19.8822,-71.2975 24.7041,-72.598 C28.2838,-73.5655 36.2836,-74.1363 44.4773,-74.473 L45.6772,-74.5207 L46.877,-74.5651 C47.0768,-74.5722 47.2765,-74.5792 47.4759,-74.5861 L48.6699,-74.6259 C57.6004,-74.913 65.8952,-74.9516 67.9666,-74.9568 L68.9543,-74.9568 C71.1638,-74.9513 80.4543,-74.9077 90.0441,-74.5651 Z M57.2499,-52.382 L57.2499,-18.53 L86.3472,-35.4558 L57.2499,-52.382 Z" id="Path-11"></path>
                </g>
                <g id="Black-S" transform="translate(2874.89, 696)">
                    <path d="M58.7616,-67.341 L59.2745,-67.3393 C61.6898,-67.3303 69.1273,-67.2803 76.684,-67.0003 L77.67,-66.9624 C84.5706,-66.6881 91.393,-66.2152 94.4051,-65.3997 C98.366,-64.3296 101.479,-61.1881 102.539,-57.1905 C104.318,-50.469 104.452,-36.9591 104.462,-35.0634 L104.463,-34.9408 L104.463,-34.8973 L104.463,-34.7837 L104.463,-34.7402 L104.462,-34.539 C104.454,-33.1348 104.389,-27.0552 103.862,-21.1474 L103.796,-20.4396 C103.514,-17.4965 103.112,-14.6448 102.539,-12.4904 C101.479,-8.49283 98.366,-5.35132 94.4051,-4.28139 C91.393,-3.46592 84.5706,-2.99295 77.67,-2.71863 L76.684,-2.68077 C76.1912,-2.66251 75.6989,-2.64522 75.2084,-2.62886 L74.2304,-2.59735 C67.2449,-2.3802 60.8292,-2.34614 58.9884,-2.34079 L58.4703,-2.3398 L58.4531,-2.3398 L57.9351,-2.34079 C55.7518,-2.34713 47.1332,-2.39387 38.7609,-2.73856 L37.7775,-2.7805 C31.3979,-3.06227 25.3155,-3.52417 22.5184,-4.28139 C18.5576,-5.35132 15.4449,-8.49283 14.3846,-12.4904 C12.6671,-18.9534 12.483,-31.6927 12.4633,-34.3484 L12.4614,-34.6176 L12.4614,-34.6847 L12.4614,-34.9963 L12.4614,-35.0634 L12.4633,-35.3327 C12.4767,-37.1385 12.5661,-43.607 13.162,-49.594 L13.2345,-50.2959 C13.5089,-52.8588 13.8808,-55.2947 14.3846,-57.1905 C15.4449,-61.1881 18.5576,-64.3296 22.5184,-65.3997 C28.9733,-67.1471 52.9235,-67.3218 57.649,-67.3393 L58.1619,-67.341 L58.2522,-67.341 L58.6712,-67.341 L58.7616,-67.341 Z M49.2529,-48.766 L49.2529,-20.9127 L73.1546,-34.8392 L49.2529,-48.766 Z" id="Path-10"></path>
                </g>
                <g id="Heavy-S" transform="translate(2578.18, 696)">
                    <path d="M58.9872,-67.7419 L59.438,-67.74 C61.8976,-67.7299 68.6526,-67.6803 75.698,-67.4368 L76.6826,-67.4016 C83.9107,-67.1337 91.2478,-66.6553 94.4034,-65.801 C98.3641,-64.7309 101.477,-61.5893 102.537,-57.5916 C104.316,-50.8701 104.45,-37.36 104.46,-35.4643 L104.461,-35.3417 L104.461,-35.2981 L104.461,-35.1846 L104.461,-35.141 L104.46,-34.9398 C104.452,-33.5357 104.387,-27.4559 103.86,-21.548 L103.794,-20.8402 C103.512,-17.8971 103.11,-15.0453 102.537,-12.8909 C101.477,-8.8933 98.3641,-5.75174 94.4034,-4.6818 C91.3913,-3.86632 84.569,-3.39334 77.6685,-3.11901 L76.6826,-3.08116 C68.9617,-2.79498 61.3653,-2.74899 59.123,-2.7416 L58.7605,-2.74042 L58.6701,-2.74042 L58.2511,-2.74042 L58.1608,-2.74042 L57.7982,-2.7416 C55.5559,-2.74899 47.9596,-2.79498 40.2388,-3.08116 L39.2529,-3.11901 C38.9243,-3.13208 38.5959,-3.14559 38.268,-3.15957 L37.2867,-3.20292 C31.0875,-3.48654 25.2433,-3.94399 22.5179,-4.6818 C18.5572,-5.75174 15.4445,-8.8933 14.3843,-12.8909 C13.8118,-15.0453 13.4097,-17.8971 13.1272,-20.8402 L13.0617,-21.548 C12.5239,-27.5741 12.4673,-33.7789 12.4614,-35.0184 L12.4614,-35.4643 C12.4667,-36.5823 12.5133,-41.7397 12.917,-47.1619 L12.9717,-47.8704 C13.2556,-51.417 13.6973,-55.0064 14.3843,-57.5916 C15.4445,-61.5893 18.5572,-64.7309 22.5179,-65.801 C25.6736,-66.6553 33.0108,-67.1337 40.2388,-67.4016 L41.2233,-67.4368 C48.2687,-67.6803 55.0236,-67.7299 57.4833,-67.74 L57.934,-67.7419 L58.0549,-67.7419 L58.8663,-67.7419 L58.9872,-67.7419 Z M49.2519,-49.167 L49.2519,-21.3133 L73.1532,-35.2401 L49.2519,-49.167 Z" id="Path-9"></path>
                </g>
                <g id="Bold-S" transform="translate(2281.47, 696)">
                    <path d="M76.189,-67.7492 L77.1746,-67.7127 C84.2411,-67.4414 91.3186,-66.9656 94.4024,-66.1307 C98.3632,-65.0606 101.476,-61.919 102.536,-57.9213 C103.106,-55.767 103.508,-52.9153 103.79,-49.9721 L103.855,-49.2643 C103.887,-48.9098 103.917,-48.5547 103.945,-48.2001 L104,-47.4916 C104.413,-41.9515 104.455,-36.6879 104.459,-35.7268 L104.46,-35.4153 C104.455,-34.3316 104.405,-27.7765 103.827,-21.5235 L103.759,-20.8172 C103.478,-17.9997 103.086,-15.2888 102.536,-13.2206 C101.476,-9.223 98.3632,-6.08144 94.4024,-5.0115 C91.3186,-4.1766 84.2411,-3.70071 77.1746,-3.42946 L76.189,-3.39292 C68.3117,-3.11099 60.6802,-3.07511 58.8653,-3.07055 L58.054,-3.07055 C56.3903,-3.07473 49.8392,-3.10523 42.6914,-3.32744 L41.7134,-3.35894 C41.3864,-3.36985 41.0586,-3.38117 40.7304,-3.39292 L39.7449,-3.42946 L38.7592,-3.46865 C32.0287,-3.74576 25.4575,-4.21544 22.517,-5.0115 C18.5562,-6.08144 15.4436,-9.223 14.3833,-13.2206 C12.6429,-19.7699 12.4771,-32.764 12.4614,-35.1797 L12.4614,-35.9624 C12.4771,-38.3781 12.6429,-51.3721 14.3833,-57.9213 C15.4436,-61.919 18.5562,-65.0606 22.517,-66.1307 C25.4575,-66.9268 32.0287,-67.3964 38.7592,-67.6735 L39.7449,-67.7127 L40.7304,-67.7492 C41.0586,-67.761 41.3864,-67.7723 41.7134,-67.7832 L42.6914,-67.8147 C49.5143,-68.0268 55.7935,-68.0642 57.7972,-68.0708 L59.1221,-68.0708 C61.3166,-68.0636 68.6399,-68.0194 76.189,-67.7492 Z M49.251,-49.4967 L49.251,-21.643 L73.1523,-35.5698 L49.251,-49.4967 Z" id="Path-8"></path>
                </g>
                <g id="Semibold-S" transform="translate(1985.26, 696)">
                    <path d="M75.0121,-66.7 L75.986,-66.6653 C83.1356,-66.4015 90.3931,-65.9305 93.5143,-65.0894 C97.4321,-64.0357 100.511,-60.9425 101.56,-57.0064 C103.318,-50.3946 103.452,-37.1111 103.462,-35.2251 L103.462,-35.1016 C103.462,-35.0849 103.463,-35.0703 103.463,-35.0577 L103.462,-34.8993 L103.462,-34.8434 L103.462,-34.6965 C103.455,-33.4797 103.404,-28.7816 103.047,-23.7492 L102.995,-23.0451 C102.716,-19.3996 102.271,-15.6562 101.56,-12.9943 C100.511,-9.05822 97.4321,-5.96505 93.5143,-4.91159 C86.9881,-3.15281 62.3785,-3.01211 58.4827,-3.00086 L58.169,-3 L58.0952,-3 L57.8284,-3 L57.7546,-3 L57.4409,-3.00086 C55.5778,-3.00624 48.9767,-3.04123 41.8818,-3.26868 L40.9117,-3.3009 C33.4566,-3.55733 25.6726,-4.0322 22.4094,-4.91159 C18.4916,-5.96505 15.4127,-9.05822 14.364,-12.9943 C13.6533,-15.6562 13.2081,-19.3996 12.9292,-23.0451 L12.8772,-23.7492 C12.5278,-28.6646 12.4719,-33.261 12.463,-34.606 L12.4614,-34.8993 L12.4614,-34.9432 L12.4614,-35.0577 L12.4614,-35.1016 L12.463,-35.3948 C12.4715,-36.6758 12.5226,-40.9058 12.8293,-45.5519 L12.8772,-46.2516 L12.9292,-46.9557 C13.2081,-50.6012 13.6533,-54.3445 14.364,-57.0064 C15.4127,-60.9425 18.4916,-64.0357 22.4094,-65.0894 C25.5308,-65.9305 32.7883,-66.4015 39.9378,-66.6653 L40.9117,-66.7 C48.0427,-66.9452 54.8728,-66.9907 57.1579,-66.9991 L58.7658,-66.9991 C61.0509,-66.9907 67.8811,-66.9452 75.0121,-66.7 Z M48.8531,-48.7116 L48.8531,-21.2869 L72.4949,-34.9991 L48.8531,-48.7116 Z" id="Path-7"></path>
                </g>
                <g id="Medium-S" transform="translate(1688.55, 696)">
                    <path d="M75.0121,-66.7 L75.986,-66.6653 C83.1356,-66.4015 90.3931,-65.9305 93.5143,-65.0894 C97.4321,-64.0357 100.511,-60.9425 101.56,-57.0064 C103.318,-50.3946 103.452,-37.1111 103.462,-35.2251 L103.462,-35.1016 C103.462,-35.0849 103.463,-35.0703 103.463,-35.0577 L103.462,-34.8993 L103.462,-34.8434 L103.462,-34.6965 C103.455,-33.4797 103.404,-28.7816 103.047,-23.7492 L102.995,-23.0451 C102.716,-19.3996 102.271,-15.6562 101.56,-12.9943 C100.511,-9.05822 97.4321,-5.96505 93.5143,-4.91159 C86.9881,-3.15281 62.3785,-3.01211 58.4827,-3.00086 L58.169,-3 L58.0952,-3 L57.8284,-3 L57.7546,-3 L57.4409,-3.00086 C55.5778,-3.00624 48.9767,-3.04123 41.8818,-3.26868 L40.9117,-3.3009 C33.4566,-3.55733 25.6726,-4.0322 22.4094,-4.91159 C18.4916,-5.96505 15.4127,-9.05822 14.364,-12.9943 C13.6533,-15.6562 13.2081,-19.3996 12.9292,-23.0451 L12.8772,-23.7492 C12.5278,-28.6646 12.4719,-33.261 12.463,-34.606 L12.4614,-34.8993 L12.4614,-34.9432 L12.4614,-35.0577 L12.4614,-35.1016 L12.463,-35.3948 C12.4715,-36.6758 12.5226,-40.9058 12.8293,-45.5519 L12.8772,-46.2516 L12.9292,-46.9557 C13.2081,-50.6012 13.6533,-54.3445 14.364,-57.0064 C15.4127,-60.9425 18.4916,-64.0357 22.4094,-65.0894 C25.5308,-65.9305 32.7883,-66.4015 39.9378,-66.6653 L40.9117,-66.7 C48.0427,-66.9452 54.8728,-66.9907 57.1579,-66.9991 L58.7658,-66.9991 C61.0509,-66.9907 67.8811,-66.9452 75.0121,-66.7 Z M48.8531,-48.7116 L48.8531,-21.2869 L72.4949,-34.9991 L48.8531,-48.7116 Z" id="Path-6"></path>
                </g>
                <g id="Regular-S" transform="translate(1391.84, 696)">
                    <path d="M75.0121,-66.5008 L75.986,-66.4661 C83.1356,-66.2023 90.3931,-65.7313 93.5143,-64.8902 C97.4321,-63.8365 100.511,-60.7433 101.56,-56.8072 C103.318,-50.1954 103.452,-36.9119 103.462,-35.0259 L103.462,-34.9024 C103.462,-34.8857 103.463,-34.8711 103.463,-34.8585 L103.462,-34.7001 L103.462,-34.6442 L103.462,-34.4973 C103.455,-33.2805 103.404,-28.5824 103.047,-23.55 L102.995,-22.8459 C102.716,-19.2004 102.271,-15.457 101.56,-12.7951 C100.511,-8.85902 97.4321,-5.76585 93.5143,-4.71239 C86.9881,-2.95361 62.3785,-2.81291 58.4827,-2.80166 L58.169,-2.8008 L58.0952,-2.8008 L57.8284,-2.8008 L57.7546,-2.8008 L57.4409,-2.80166 C55.5778,-2.80704 48.9767,-2.84203 41.8818,-3.06948 L40.9117,-3.1017 C33.4566,-3.35813 25.6726,-3.833 22.4094,-4.71239 C18.4916,-5.76585 15.4127,-8.85902 14.364,-12.7951 C13.6533,-15.457 13.2081,-19.2004 12.9292,-22.8459 L12.8772,-23.55 C12.5278,-28.4654 12.4719,-33.0618 12.463,-34.4068 L12.4614,-34.7001 L12.4614,-34.744 L12.4614,-34.8585 L12.4614,-34.9024 L12.463,-35.1956 C12.4715,-36.4766 12.5226,-40.7066 12.8293,-45.3527 L12.8772,-46.0524 L12.9292,-46.7565 C13.2081,-50.402 13.6533,-54.1453 14.364,-56.8072 C15.4127,-60.7433 18.4916,-63.8365 22.4094,-64.8902 C25.5308,-65.7313 32.7883,-66.2023 39.9378,-66.4661 L40.9117,-66.5008 C48.0427,-66.746 54.8728,-66.7915 57.1579,-66.7999 L58.7658,-66.7999 C61.0509,-66.7915 67.8811,-66.746 75.0121,-66.5008 Z M48.8531,-48.5124 L48.8531,-21.0877 L72.4949,-34.7999 L48.8531,-48.5124 Z" id="Path-5"></path>
                </g>
                <g id="Light-S" transform="translate(1095.63, 696)">
                    <path d="M74.3228,-66.8546 L75.286,-66.8204 C75.4467,-66.8145 75.6074,-66.8085 75.7682,-66.8024 L76.7325,-66.7644 C83.3167,-66.4958 89.7451,-66.0406 92.6215,-65.2691 C96.4962,-64.232 99.5414,-61.1871 100.578,-57.3125 C101.157,-55.1472 101.558,-52.2549 101.835,-49.2908 L101.899,-48.5783 C102.385,-42.9919 102.45,-37.3365 102.459,-35.9642 L102.46,-35.8126 L102.46,-35.7549 L102.46,-35.4882 C102.453,-33.8713 102.344,-20.5709 100.578,-13.9882 C99.5414,-10.1136 96.4962,-7.06881 92.6215,-6.03182 C89.7451,-5.26027 83.3167,-4.80505 76.7325,-4.53647 L75.7682,-4.49849 C75.6074,-4.49237 75.4467,-4.48636 75.286,-4.48046 L74.3228,-4.4463 C67.2702,-4.20486 60.5152,-4.16014 58.2552,-4.15186 L57.9753,-4.15063 L57.8569,-4.15063 L57.0633,-4.15063 L56.9449,-4.15063 L56.665,-4.15186 C54.5078,-4.15977 48.2549,-4.20087 41.557,-4.41458 L40.5976,-4.4463 C40.1167,-4.46277 39.6345,-4.48014 39.1522,-4.49849 L38.1879,-4.53647 C31.6038,-4.80505 25.1754,-5.26027 22.2988,-6.03182 C18.4241,-7.06881 15.3792,-10.1136 14.3419,-13.9882 C13.7844,-16.0669 13.392,-18.8156 13.1159,-21.6547 L13.0493,-22.366 C12.5351,-28.0663 12.4697,-33.9351 12.4614,-35.3366 L12.4614,-35.9642 C12.4697,-37.3657 12.5351,-43.2345 13.0493,-48.9348 L13.1159,-49.6461 C13.392,-52.4852 13.7844,-55.2338 14.3419,-57.3125 C15.3792,-61.1871 18.4241,-64.232 22.2988,-65.2691 C25.1754,-66.0406 31.6038,-66.4958 38.1879,-66.7644 L39.1522,-66.8024 C39.6345,-66.8207 40.1167,-66.8381 40.5976,-66.8546 L41.557,-66.8863 C48.2549,-67.1 54.5078,-67.1411 56.665,-67.149 L58.2552,-67.149 C60.5152,-67.1407 67.2702,-67.096 74.3228,-66.8546 Z M48.4516,-49.1473 L48.4516,-22.1512 L71.8333,-35.6492 L48.4516,-49.1473 Z" id="Path-4"></path>
                </g>
                <g id="Thin-S" transform="translate(799.417, 696)">
                    <path d="M57.2517,-66.0011 L57.7479,-65.9995 C60.0844,-65.991 67.2793,-65.9433 74.5896,-65.6761 L75.5434,-65.64 C75.7023,-65.6338 75.8612,-65.6275 76.02,-65.621 L76.9714,-65.581 C83.143,-65.3123 89.027,-64.8717 91.7327,-64.1495 C95.5644,-63.1287 98.5759,-60.1322 99.6014,-56.3191 C101.316,-49.9325 101.451,-37.1204 101.462,-35.2345 L101.462,-35.0272 L101.462,-35.0006 L101.462,-34.9739 L101.462,-34.9409 L101.462,-34.7666 C101.452,-32.8807 101.323,-20.0686 99.6014,-13.6819 C98.5759,-9.86884 95.5644,-6.8723 91.7327,-5.85176 C88.9576,-5.11096 82.8392,-4.66648 76.4961,-4.3998 L75.5434,-4.36111 C67.5963,-4.04961 59.5418,-4.00664 57.4711,-4.00072 L57.2517,-3.99989 L57.1643,-3.99989 L56.8311,-3.99989 L56.759,-3.99989 L56.4522,-4.00072 C54.4229,-4.00652 46.6469,-4.04791 38.8569,-4.34274 L37.9033,-4.38013 C31.3923,-4.64445 25.0352,-5.09244 22.1906,-5.85176 C18.3589,-6.8723 15.3477,-9.86884 14.322,-13.6819 C13.8568,-15.4081 13.5079,-17.6035 13.2462,-19.9258 L13.1703,-20.6259 C12.5589,-26.4865 12.4746,-32.9253 12.463,-34.5901 L12.4614,-34.837 L12.4614,-34.8952 L12.4614,-35.1059 L12.4614,-35.1641 L12.463,-35.4111 C12.4746,-37.0758 12.5589,-43.5146 13.1703,-49.3751 L13.2462,-50.0752 C13.5079,-52.3975 13.8568,-54.593 14.322,-56.3191 C15.3477,-60.1322 18.3589,-63.1287 22.1906,-64.1495 C25.1046,-64.9273 31.7044,-65.3784 38.38,-65.64 L39.3338,-65.6761 C46.644,-65.9433 53.8389,-65.991 56.1753,-65.9995 L56.6715,-66.0011 L56.759,-66.0011 L57.1643,-66.0011 L57.2517,-66.0011 Z M48.0531,-48.2834 L48.0531,-21.7155 L71.1753,-34.9993 L48.0531,-48.2834 Z" id="Path-3"></path>
                </g>
                <g id="Ultralight-S" transform="translate(502.705, 696)">
                    <path d="M57.2517,-66.0011 L57.7479,-65.9995 C60.0844,-65.991 67.2793,-65.9433 74.5896,-65.6761 L75.5434,-65.64 C75.7023,-65.6338 75.8612,-65.6275 76.02,-65.621 L76.9714,-65.581 C83.143,-65.3123 89.027,-64.8717 91.7327,-64.1495 C95.5644,-63.1287 98.5759,-60.1322 99.6014,-56.3191 C101.316,-49.9325 101.451,-37.1204 101.462,-35.2345 L101.462,-35.0272 L101.462,-35.0006 L101.462,-34.9739 L101.462,-34.9409 L101.462,-34.7666 C101.452,-32.8807 101.323,-20.0686 99.6014,-13.6819 C98.5759,-9.86884 95.5644,-6.8723 91.7327,-5.85176 C88.9576,-5.11096 82.8392,-4.66648 76.4961,-4.3998 L75.5434,-4.36111 C67.5963,-4.04961 59.5418,-4.00664 57.4711,-4.00072 L57.2517,-3.99989 L57.1643,-3.99989 L56.8311,-3.99989 L56.759,-3.99989 L56.4522,-4.00072 C54.4229,-4.00652 46.6469,-4.04791 38.8569,-4.34274 L37.9033,-4.38013 C31.3923,-4.64445 25.0352,-5.09244 22.1906,-5.85176 C18.3589,-6.8723 15.3477,-9.86884 14.322,-13.6819 C13.8568,-15.4081 13.5079,-17.6035 13.2462,-19.9258 L13.1703,-20.6259 C12.5589,-26.4865 12.4746,-32.9253 12.463,-34.5901 L12.4614,-34.837 L12.4614,-34.8952 L12.4614,-35.1059 L12.4614,-35.1641 L12.463,-35.4111 C12.4746,-37.0758 12.5589,-43.5146 13.1703,-49.3751 L13.2462,-50.0752 C13.5079,-52.3975 13.8568,-54.593 14.322,-56.3191 C15.3477,-60.1322 18.3589,-63.1287 22.1906,-64.1495 C25.1046,-64.9273 31.7044,-65.3784 38.38,-65.64 L39.3338,-65.6761 C46.644,-65.9433 53.8389,-65.991 56.1753,-65.9995 L56.6715,-66.0011 L56.759,-66.0011 L57.1643,-66.0011 L57.2517,-66.0011 Z M48.0531,-48.2834 L48.0531,-21.7155 L71.1753,-34.9993 L48.0531,-48.2834 Z" id="Path-2"></path>
                </g>
            </g>
        </g>
    </g>
</svg>