<?xml version="1.0" encoding="UTF-8"?>
<!--Generator: Apple Native CoreSVG 175.5-->
<!DOCTYPE svg
PUBLIC "-//W3C//DTD SVG 1.1//EN"
       "http://www.w3.org/Graphics/SVG/1.1/DTD/svg11.dtd">
<svg version="1.1" xmlns="http://www.w3.org/2000/svg" xmlns:xlink="http://www.w3.org/1999/xlink" width="3300" height="2200">
 <!--glyph: "", point size: 100.0, font version: "18.0d12e2", template writer version: "101"-->
 <style>.monochrome-0 {fill:#000000}
.monochrome-1 {fill:#000000}

.multicolor-0:custom {fill:#FF4500}
.multicolor-1:white {fill:#FFFFFF}

.hierarchical-0:secondary {fill:#4D4D4D}
.hierarchical-1:primary {fill:#212121}

.SFSymbolsPreviewFF4500 {fill:#FF4500;opacity:1.0}
.SFSymbolsPreviewFFFFFF {fill:#FFFFFF;opacity:1.0}
</style>
 <g id="Notes">
  <rect height="2200" id="artboard" style="fill:white;opacity:1" width="3300" x="0" y="0"/>
  <line style="fill:none;stroke:black;opacity:1;stroke-width:0.5;" x1="263" x2="3036" y1="292" y2="292"/>
  <text style="stroke:none;fill:black;font-family:sans-serif;font-size:13;font-weight:bold;" transform="matrix(1 0 0 1 263 322)">Weight/Scale Variations</text>
  <text style="stroke:none;fill:black;font-family:sans-serif;font-size:13;text-anchor:middle;" transform="matrix(1 0 0 1 559.711 322)">Ultralight</text>
  <text style="stroke:none;fill:black;font-family:sans-serif;font-size:13;text-anchor:middle;" transform="matrix(1 0 0 1 856.422 322)">Thin</text>
  <text style="stroke:none;fill:black;font-family:sans-serif;font-size:13;text-anchor:middle;" transform="matrix(1 0 0 1 1153.13 322)">Light</text>
  <text style="stroke:none;fill:black;font-family:sans-serif;font-size:13;text-anchor:middle;" transform="matrix(1 0 0 1 1449.84 322)">Regular</text>
  <text style="stroke:none;fill:black;font-family:sans-serif;font-size:13;text-anchor:middle;" transform="matrix(1 0 0 1 1746.56 322)">Medium</text>
  <text style="stroke:none;fill:black;font-family:sans-serif;font-size:13;text-anchor:middle;" transform="matrix(1 0 0 1 2043.27 322)">Semibold</text>
  <text style="stroke:none;fill:black;font-family:sans-serif;font-size:13;text-anchor:middle;" transform="matrix(1 0 0 1 2339.98 322)">Bold</text>
  <text style="stroke:none;fill:black;font-family:sans-serif;font-size:13;text-anchor:middle;" transform="matrix(1 0 0 1 2636.69 322)">Heavy</text>
  <text style="stroke:none;fill:black;font-family:sans-serif;font-size:13;text-anchor:middle;" transform="matrix(1 0 0 1 2933.4 322)">Black</text>
  <line style="fill:none;stroke:black;opacity:1;stroke-width:0.5;" x1="263" x2="3036" y1="1903" y2="1903"/>
  <g transform="matrix(1 0 0 1 263 1933)">
   <path d="M9.24805 0.830078C13.5547 0.830078 17.1387-2.74414 17.1387-7.05078C17.1387-11.3574 13.5449-14.9316 9.23828-14.9316C4.94141-14.9316 1.36719-11.3574 1.36719-7.05078C1.36719-2.74414 4.95117 0.830078 9.24805 0.830078ZM9.24805-0.654297C5.70312-0.654297 2.87109-3.49609 2.87109-7.05078C2.87109-10.6055 5.69336-13.4473 9.23828-13.4473C12.793-13.4473 15.6445-10.6055 15.6445-7.05078C15.6445-3.49609 12.8027-0.654297 9.24805-0.654297ZM5.6543-7.05078C5.6543-6.62109 5.95703-6.32812 6.40625-6.32812L8.50586-6.32812L8.50586-4.20898C8.50586-3.76953 8.79883-3.4668 9.22852-3.4668C9.67773-3.4668 9.9707-3.76953 9.9707-4.20898L9.9707-6.32812L12.0898-6.32812C12.5293-6.32812 12.832-6.62109 12.832-7.05078C12.832-7.49023 12.5293-7.79297 12.0898-7.79297L9.9707-7.79297L9.9707-9.90234C9.9707-10.3516 9.67773-10.6543 9.22852-10.6543C8.79883-10.6543 8.50586-10.3516 8.50586-9.90234L8.50586-7.79297L6.40625-7.79297C5.95703-7.79297 5.6543-7.49023 5.6543-7.05078Z"/>
  </g>
  <g transform="matrix(1 0 0 1 281.867 1933)">
   <path d="M11.709 2.91016C17.1582 2.91016 21.6699-1.61133 21.6699-7.05078C21.6699-12.5 17.1484-17.0117 11.6992-17.0117C6.25977-17.0117 1.74805-12.5 1.74805-7.05078C1.74805-1.61133 6.26953 2.91016 11.709 2.91016ZM11.709 1.25C7.09961 1.25 3.41797-2.44141 3.41797-7.05078C3.41797-11.6602 7.08984-15.3516 11.6992-15.3516C16.3086-15.3516 20.0098-11.6602 20.0098-7.05078C20.0098-2.44141 16.3184 1.25 11.709 1.25ZM7.17773-7.05078C7.17773-6.57227 7.50977-6.25 8.00781-6.25L10.8789-6.25L10.8789-3.36914C10.8789-2.88086 11.2109-2.53906 11.6895-2.53906C12.1777-2.53906 12.5195-2.87109 12.5195-3.36914L12.5195-6.25L15.4004-6.25C15.8887-6.25 16.2305-6.57227 16.2305-7.05078C16.2305-7.53906 15.8887-7.88086 15.4004-7.88086L12.5195-7.88086L12.5195-10.752C12.5195-11.25 12.1777-11.5918 11.6895-11.5918C11.2109-11.5918 10.8789-11.25 10.8789-10.752L10.8789-7.88086L8.00781-7.88086C7.50977-7.88086 7.17773-7.53906 7.17773-7.05078Z"/>
  </g>
  <g transform="matrix(1 0 0 1 305.646 1933)">
   <path d="M14.9707 5.66406C21.9336 5.66406 27.6953-0.0976562 27.6953-7.05078C27.6953-14.0137 21.9238-19.7754 14.9609-19.7754C8.00781-19.7754 2.25586-14.0137 2.25586-7.05078C2.25586-0.0976562 8.01758 5.66406 14.9707 5.66406ZM14.9707 3.84766C8.93555 3.84766 4.08203-1.01562 4.08203-7.05078C4.08203-13.0957 8.92578-17.9492 14.9609-17.9492C21.0059-17.9492 25.8691-13.0957 25.8691-7.05078C25.8691-1.01562 21.0156 3.84766 14.9707 3.84766ZM9.19922-7.05078C9.19922-6.5332 9.57031-6.17188 10.1172-6.17188L14.0625-6.17188L14.0625-2.2168C14.0625-1.67969 14.4336-1.29883 14.9512-1.29883C15.4883-1.29883 15.8594-1.66992 15.8594-2.2168L15.8594-6.17188L19.8145-6.17188C20.3516-6.17188 20.7324-6.5332 20.7324-7.05078C20.7324-7.59766 20.3613-7.96875 19.8145-7.96875L15.8594-7.96875L15.8594-11.9141C15.8594-12.4609 15.4883-12.8418 14.9512-12.8418C14.4336-12.8418 14.0625-12.4609 14.0625-11.9141L14.0625-7.96875L10.1172-7.96875C9.57031-7.96875 9.19922-7.59766 9.19922-7.05078Z"/>
  </g>
  <text style="stroke:none;fill:black;font-family:sans-serif;font-size:13;font-weight:bold;" transform="matrix(1 0 0 1 263 1953)">Design Variations</text>
  <text style="stroke:none;fill:black;font-family:sans-serif;font-size:13;" transform="matrix(1 0 0 1 263 1971)">Symbols are supported in up to nine weights and three scales.</text>
  <text style="stroke:none;fill:black;font-family:sans-serif;font-size:13;" transform="matrix(1 0 0 1 263 1989)">For optimal layout with text and other symbols, vertically align</text>
  <text style="stroke:none;fill:black;font-family:sans-serif;font-size:13;" transform="matrix(1 0 0 1 263 2007)">symbols with the adjacent text.</text>
  <line style="fill:none;stroke:#00AEEF;stroke-width:0.5;opacity:1.0;" x1="776" x2="776" y1="1919" y2="1933"/>
  <g transform="matrix(1 0 0 1 776 1933)">
   <path d="M3.31055 0.15625C3.82812 0.15625 4.08203-0.0390625 4.26758-0.585938L5.52734-4.0332L11.2891-4.0332L12.5488-0.585938C12.7344-0.0390625 12.9883 0.15625 13.4961 0.15625C14.0137 0.15625 14.3457-0.15625 14.3457-0.644531C14.3457-0.810547 14.3164-0.966797 14.2383-1.17188L9.6582-13.3691C9.43359-13.9648 9.0332-14.2676 8.4082-14.2676C7.80273-14.2676 7.39258-13.9746 7.17773-13.3789L2.59766-1.16211C2.51953-0.957031 2.49023-0.800781 2.49023-0.634766C2.49023-0.146484 2.80273 0.15625 3.31055 0.15625ZM6.00586-5.51758L8.37891-12.0898L8.42773-12.0898L10.8008-5.51758Z"/>
  </g>
  <line style="fill:none;stroke:#00AEEF;stroke-width:0.5;opacity:1.0;" x1="793.197" x2="793.197" y1="1919" y2="1933"/>
  <text style="stroke:none;fill:black;font-family:sans-serif;font-size:13;font-weight:bold;" transform="matrix(1 0 0 1 776 1953)">Margins</text>
  <text style="stroke:none;fill:black;font-family:sans-serif;font-size:13;" transform="matrix(1 0 0 1 776 1971)">Leading and trailing margins on the left and right side of each symbol</text>
  <text style="stroke:none;fill:black;font-family:sans-serif;font-size:13;" transform="matrix(1 0 0 1 776 1989)">can be adjusted by modifying the x-location of the margin guidelines.</text>
  <text style="stroke:none;fill:black;font-family:sans-serif;font-size:13;" transform="matrix(1 0 0 1 776 2007)">Modifications are automatically applied proportionally to all</text>
  <text style="stroke:none;fill:black;font-family:sans-serif;font-size:13;" transform="matrix(1 0 0 1 776 2025)">scales and weights.</text>
  <g transform="matrix(1 0 0 1 1289 1933)">
   <path d="M2.8418 1.86523L4.54102 3.57422C5.40039 4.44336 6.38672 4.38477 7.31445 3.35938L18.0078-8.42773L17.041-9.4043L6.42578 2.27539C6.07422 2.67578 5.74219 2.77344 5.27344 2.30469L4.10156 1.14258C3.63281 0.683594 3.74023 0.341797 4.14062-0.0195312L15.6152-10.8203L14.6387-11.7871L3.04688-0.898438C2.06055 0.0195312 1.98242 0.996094 2.8418 1.86523ZM9.25781-16.3281C8.83789-15.918 8.80859-15.3418 9.04297-14.9512C9.27734-14.5898 9.73633-14.3555 10.3809-14.5215C11.8457-14.8633 13.3691-14.9219 14.7949-13.9844L14.209-12.5293C13.8672-11.6992 14.043-11.1133 14.5801-10.5664L16.875-8.25195C17.3633-7.76367 17.7734-7.74414 18.3398-7.8418L19.4043-8.03711L20.0684-7.36328L20.0293-6.80664C19.9902-6.30859 20.1172-5.92773 20.6055-5.44922L21.3672-4.70703C21.8457-4.22852 22.4609-4.19922 22.9297-4.66797L25.8398-7.58789C26.3086-8.05664 26.2891-8.65234 25.8105-9.13086L25.0391-9.89258C24.5605-10.3711 24.1895-10.5273 23.7109-10.4883L23.1348-10.4395L22.4902-11.0742L22.7344-12.1973C22.8613-12.7637 22.7051-13.2031 22.1191-13.7891L19.9219-15.9766C16.582-19.2969 12.1484-19.2188 9.25781-16.3281ZM10.752-15.957C13.1836-17.7344 16.4746-17.4316 18.7012-15.2051L21.1328-12.793C21.3672-12.5586 21.4062-12.373 21.3379-12.0312L21.0156-10.5469L22.5195-9.0625L23.5059-9.12109C23.7598-9.13086 23.8379-9.11133 24.0332-8.91602L24.6094-8.33984L22.168-5.89844L21.5918-6.47461C21.3965-6.66992 21.3672-6.74805 21.377-7.01172L21.4453-7.98828L19.9512-9.47266L18.4277-9.21875C18.1055-9.15039 17.959-9.17969 17.7148-9.41406L15.7129-11.416C15.459-11.6504 15.4297-11.8164 15.5859-12.1875L16.4648-14.2773C14.9023-15.7324 12.8711-16.3574 10.8398-15.7617C10.6836-15.7227 10.625-15.8496 10.752-15.957Z"/>
  </g>
  <text style="stroke:none;fill:black;font-family:sans-serif;font-size:13;font-weight:bold;" transform="matrix(1 0 0 1 1289 1953)">Exporting</text>
  <text style="stroke:none;fill:black;font-family:sans-serif;font-size:13;" transform="matrix(1 0 0 1 1289 1971)">Symbols should be outlined when exporting to ensure the</text>
  <text style="stroke:none;fill:black;font-family:sans-serif;font-size:13;" transform="matrix(1 0 0 1 1289 1989)">design is preserved when submitting to Xcode.</text>
  <text id="template-version" style="stroke:none;fill:black;font-family:sans-serif;font-size:13;text-anchor:end;" transform="matrix(1 0 0 1 3036 1933)">Template v.4.0</text>
  <text style="stroke:none;fill:black;font-family:sans-serif;font-size:13;text-anchor:end;" transform="matrix(1 0 0 1 3036 1951)">Requires Xcode 14 or greater</text>
  <text id="descriptive-name" style="stroke:none;fill:black;font-family:sans-serif;font-size:13;text-anchor:end;" transform="matrix(1 0 0 1 3036 1969)">Generated from reddit</text>
  <text style="stroke:none;fill:black;font-family:sans-serif;font-size:13;text-anchor:end;" transform="matrix(1 0 0 1 3036 1987)">Typeset at 100 points</text>
  <text style="stroke:none;fill:black;font-family:sans-serif;font-size:13;" transform="matrix(1 0 0 1 263 726)">Small</text>
  <text style="stroke:none;fill:black;font-family:sans-serif;font-size:13;" transform="matrix(1 0 0 1 263 1156)">Medium</text>
  <text style="stroke:none;fill:black;font-family:sans-serif;font-size:13;" transform="matrix(1 0 0 1 263 1586)">Large</text>
 </g>
 <g id="Guides">
  <g id="H-reference" style="fill:#27AAE1;stroke:none;" transform="matrix(1 0 0 1 339 696)">
   <path d="M0.993654 0L3.63775 0L29.3281-67.1323L30.0303-67.1323L30.0303-70.459L28.1226-70.459ZM11.6885-24.4799L46.9815-24.4799L46.2315-26.7285L12.4385-26.7285ZM55.1196 0L57.7637 0L30.6382-70.459L29.4326-70.459L29.4326-67.1323Z"/>
  </g>
  <line id="Baseline-S" style="fill:none;stroke:#27AAE1;opacity:1;stroke-width:0.5;" x1="263" x2="3036" y1="696" y2="696"/>
  <line id="Capline-S" style="fill:none;stroke:#27AAE1;opacity:1;stroke-width:0.5;" x1="263" x2="3036" y1="625.541" y2="625.541"/>
  <g id="H-reference" style="fill:#27AAE1;stroke:none;" transform="matrix(1 0 0 1 339 1126)">
   <path d="M0.993654 0L3.63775 0L29.3281-67.1323L30.0303-67.1323L30.0303-70.459L28.1226-70.459ZM11.6885-24.4799L46.9815-24.4799L46.2315-26.7285L12.4385-26.7285ZM55.1196 0L57.7637 0L30.6382-70.459L29.4326-70.459L29.4326-67.1323Z"/>
  </g>
  <line id="Baseline-M" style="fill:none;stroke:#27AAE1;opacity:1;stroke-width:0.5;" x1="263" x2="3036" y1="1126" y2="1126"/>
  <line id="Capline-M" style="fill:none;stroke:#27AAE1;opacity:1;stroke-width:0.5;" x1="263" x2="3036" y1="1055.54" y2="1055.54"/>
  <g id="H-reference" style="fill:#27AAE1;stroke:none;" transform="matrix(1 0 0 1 339 1556)">
   <path d="M0.993654 0L3.63775 0L29.3281-67.1323L30.0303-67.1323L30.0303-70.459L28.1226-70.459ZM11.6885-24.4799L46.9815-24.4799L46.2315-26.7285L12.4385-26.7285ZM55.1196 0L57.7637 0L30.6382-70.459L29.4326-70.459L29.4326-67.1323Z"/>
  </g>
  <line id="Baseline-L" style="fill:none;stroke:#27AAE1;opacity:1;stroke-width:0.5;" x1="263" x2="3036" y1="1556" y2="1556"/>
  <line id="Capline-L" style="fill:none;stroke:#27AAE1;opacity:1;stroke-width:0.5;" x1="263" x2="3036" y1="1485.54" y2="1485.54"/>
  <line id="left-margin-Regular-M" style="fill:none;stroke:#00AEEF;stroke-width:0.5;opacity:1.0;" x1="1391.32" x2="1391.32" y1="1030.79" y2="1150.12"/>
  <line id="right-margin-Regular-M" style="fill:none;stroke:#00AEEF;stroke-width:0.5;opacity:1.0;" x1="1508.37" x2="1508.37" y1="1030.79" y2="1150.12"/>
 </g>
 <g id="Symbols">
  <g id="Black-L" transform="matrix(1 0 0 1 2856.73 1556)">
   <path class="monochrome-0 multicolor-0:custom hierarchical-0:secondary SFSymbolsPreviewFF4500" d="M76.6597 32.7257C114.024 32.7257 144.618 2.15259 144.618-35.2113C144.618-72.5752 114.003-103.148 76.6389-103.148C39.2946-103.148 8.72266-72.5752 8.72266-35.2113C8.72266 2.15259 39.3154 32.7257 76.6597 32.7257ZM76.6389-83.0007C103.091-83.0007 124.449-61.6629 124.449-35.2113C124.449-8.75969 103.111 12.5782 76.6597 12.5782C50.2289 12.5782 28.9107-8.75969 28.9107-35.2113C28.9107-61.6629 50.2081-83.0007 76.6389-83.0007Z"/>
   <path class="monochrome-1 multicolor-1:white hierarchical-1:primary SFSymbolsPreviewFFFFFF" d="M102.297-71C99.8216-71 97.6378-69.5442 96.6187-67.4332L81.8419-70.5632C81.4051-70.636 80.9684-70.5632 80.6772-70.3449C80.3132-70.1265 80.0949-69.7625 80.0221-69.3258L75.5089-48.0704C66.0459-47.7792 57.5292-44.9403 51.3419-40.5C49.7404-42.0286 47.5567-42.9749 45.1545-42.9749C40.2046-42.9749 36.2739-38.9714 36.2739-34.0943C36.2739-30.4547 38.4576-27.3974 41.5149-26.0143C41.3693-25.1408 41.2965-24.2673 41.2965-23.321C41.2965-9.63604 57.2381 1.50119 76.892 1.50119C96.5459 1.50119 112.487-9.56325 112.487-23.321C112.487-24.1945 112.415-25.1408 112.269-26.0143C115.326-27.3974 117.51-30.5274 117.51-34.1671C117.51-39.1169 113.507-43.0477 108.629-43.0477C106.227-43.0477 104.044-42.1014 102.442-40.5728C96.3276-44.9403 87.9564-47.7792 78.639-48.1432L82.7154-67.2148L95.9636-64.3759C96.1092-61.0274 98.8753-58.3341 102.297-58.3341C105.791-58.3341 108.629-61.173 108.629-64.6671C108.629-68.1611 105.791-71 102.297-71ZM62.8431-34.1671C66.3371-34.1671 69.176-31.3282 69.176-27.8341C69.176-24.3401 66.3371-21.5012 62.8431-21.5012C59.349-21.4284 56.5101-24.3401 56.5101-27.8341C56.5101-31.3282 59.349-34.1671 62.8431-34.1671ZM90.7953-34.0943C94.2894-34.0943 97.1283-31.2554 97.1283-27.7613C97.1283-24.3401 94.2894-21.4284 90.7953-21.4284C87.3013-21.4284 84.4624-24.2673 84.4624-27.7613C84.4624-31.2554 87.3013-34.0943 90.7953-34.0943ZM64.1533-13.3485C66.9194-10.5823 72.7428-9.63604 76.892-9.63604C81.0412-9.63604 86.9373-10.5823 89.6307-13.3485C90.2858-14.0036 91.3049-14.0036 91.96-13.3485C92.5424-12.6933 92.5424-11.6742 91.96-11.0191C87.6734-6.73243 79.6001-6.37257 77.0315-6.36071L76.892-6.36038C74.4171-6.36038 66.1187-6.72435 61.824-11.0191C61.1688-11.6742 61.1688-12.6933 61.824-13.3485C62.4791-14.0036 63.4982-14.0036 64.1533-13.3485Z"/>
  </g>
  <g id="Heavy-L" transform="matrix(1 0 0 1 2560.95 1556)">
   <path class="monochrome-0 multicolor-0:custom hierarchical-0:secondary SFSymbolsPreviewFF4500" d="M75.7171 31.7694C112.52 31.7694 142.742 1.57794 142.742-35.2251C142.742-72.0281 112.49-102.22 75.687-102.22C38.9085-102.22 8.72266-72.0281 8.72266-35.2251C8.72266 1.57794 38.9387 31.7694 75.7171 31.7694ZM75.687-84.4777C102.964-84.4777 124.97-62.5023 124.97-35.2251C124.97-7.9479 102.994 14.0275 75.7171 14.0275C48.4701 14.0275 26.5193-7.9479 26.5193-35.2251C26.5193-62.5023 48.44-84.4777 75.687-84.4777Z"/>
   <path class="monochrome-1 multicolor-1:white hierarchical-1:primary SFSymbolsPreviewFFFFFF" d="M101.067-71C98.5916-71 96.4078-69.5442 95.3887-67.4332L80.6119-70.5632C80.1751-70.636 79.7384-70.5632 79.4472-70.3449C79.0832-70.1265 78.8649-69.7625 78.7921-69.3258L74.2789-48.0704C64.8159-47.7792 56.2992-44.9403 50.1119-40.5C48.5104-42.0286 46.3267-42.9749 43.9245-42.9749C38.9746-42.9749 35.0439-38.9714 35.0439-34.0943C35.0439-30.4547 37.2276-27.3974 40.2849-26.0143C40.1393-25.1408 40.0665-24.2673 40.0665-23.321C40.0665-9.63604 56.0081 1.50119 75.662 1.50119C95.3159 1.50119 111.257-9.56325 111.257-23.321C111.257-24.1945 111.185-25.1408 111.039-26.0143C114.096-27.3974 116.28-30.5274 116.28-34.1671C116.28-39.1169 112.277-43.0477 107.399-43.0477C104.997-43.0477 102.814-42.1014 101.212-40.5728C95.0976-44.9403 86.7264-47.7792 77.409-48.1432L81.4854-67.2148L94.7336-64.3759C94.8792-61.0274 97.6453-58.3341 101.067-58.3341C104.561-58.3341 107.399-61.173 107.399-64.6671C107.399-68.1611 104.561-71 101.067-71ZM61.6131-34.1671C65.1071-34.1671 67.946-31.3282 67.946-27.8341C67.946-24.3401 65.1071-21.5012 61.6131-21.5012C58.119-21.4284 55.2801-24.3401 55.2801-27.8341C55.2801-31.3282 58.119-34.1671 61.6131-34.1671ZM89.5653-34.0943C93.0594-34.0943 95.8983-31.2554 95.8983-27.7613C95.8983-24.3401 93.0594-21.4284 89.5653-21.4284C86.0713-21.4284 83.2324-24.2673 83.2324-27.7613C83.2324-31.2554 86.0713-34.0943 89.5653-34.0943ZM62.9233-13.3485C65.6894-10.5823 71.5128-9.63604 75.662-9.63604C79.8112-9.63604 85.7073-10.5823 88.4007-13.3485C89.0558-14.0036 90.0749-14.0036 90.73-13.3485C91.3124-12.6933 91.3124-11.6742 90.73-11.0191C86.4434-6.73243 78.3701-6.37257 75.8015-6.36071L75.662-6.36038C73.1871-6.36038 64.8887-6.72435 60.594-11.0191C59.9388-11.6742 59.9388-12.6933 60.594-13.3485C61.2491-14.0036 62.2682-14.0036 62.9233-13.3485Z"/>
  </g>
  <g id="Bold-L" transform="matrix(1 0 0 1 2265.42 1556)">
   <path class="monochrome-0 multicolor-0:custom hierarchical-0:secondary SFSymbolsPreviewFF4500" d="M74.5343 30.5711C110.646 30.5711 140.384 0.870872 140.384-35.2405C140.384-71.3519 110.608-101.052 74.4963-101.052C38.4097-101.052 8.72266-71.3519 8.72266-35.2405C8.72266 0.870872 38.4477 30.5711 74.5343 30.5711ZM74.4963-86.3065C102.788-86.3065 125.6-63.5322 125.6-35.2405C125.6-6.94878 102.826 15.8255 74.5343 15.8255C46.2806 15.8255 23.5311-6.94878 23.5311-35.2405C23.5311-63.5322 46.2426-86.3065 74.4963-86.3065Z"/>
   <path class="monochrome-1 multicolor-1:white hierarchical-1:primary SFSymbolsPreviewFFFFFF" d="M99.5965-72C97.1216-72 94.9378-70.5442 93.9187-68.4332L79.1419-71.5632C78.7051-71.636 78.2684-71.5632 77.9772-71.3449C77.6132-71.1265 77.3949-70.7625 77.3221-70.3258L72.8089-49.0704C63.3459-48.7792 54.8292-45.9403 48.6419-41.5C47.0404-43.0286 44.8567-43.9749 42.4545-43.9749C37.5046-43.9749 33.5739-39.9714 33.5739-35.0943C33.5739-31.4547 35.7576-28.3974 38.8149-27.0143C38.6693-26.1408 38.5965-25.2673 38.5965-24.321C38.5965-10.636 54.5381 0.501191 74.192 0.501191C93.8459 0.501191 109.787-10.5632 109.787-24.321C109.787-25.1945 109.715-26.1408 109.569-27.0143C112.626-28.3974 114.81-31.5274 114.81-35.1671C114.81-40.1169 110.807-44.0477 105.929-44.0477C103.527-44.0477 101.344-43.1014 99.7421-41.5728C93.6276-45.9403 85.2564-48.7792 75.939-49.1432L80.0154-68.2148L93.2636-65.3759C93.4092-62.0274 96.1753-59.3341 99.5965-59.3341C103.091-59.3341 105.929-62.173 105.929-65.6671C105.929-69.1611 103.091-72 99.5965-72ZM60.1431-35.1671C63.6371-35.1671 66.476-32.3282 66.476-28.8341C66.476-25.3401 63.6371-22.5012 60.1431-22.5012C56.649-22.4284 53.8101-25.3401 53.8101-28.8341C53.8101-32.3282 56.649-35.1671 60.1431-35.1671ZM88.0953-35.0943C91.5894-35.0943 94.4283-32.2554 94.4283-28.7613C94.4283-25.3401 91.5894-22.4284 88.0953-22.4284C84.6013-22.4284 81.7624-25.2673 81.7624-28.7613C81.7624-32.2554 84.6013-35.0943 88.0953-35.0943ZM61.4533-14.3485C64.2194-11.5823 70.0428-10.636 74.192-10.636C78.3412-10.636 84.2373-11.5823 86.9307-14.3485C87.5858-15.0036 88.6049-15.0036 89.26-14.3485C89.8424-13.6933 89.8424-12.6742 89.26-12.0191C84.9734-7.73243 76.9001-7.37257 74.3315-7.36071L74.192-7.36038C71.7171-7.36038 63.4187-7.72435 59.124-12.0191C58.4688-12.6742 58.4688-13.6933 59.124-14.3485C59.7791-15.0036 60.7982-15.0036 61.4533-14.3485Z"/>
  </g>
  <g id="Semibold-L" transform="matrix(1 0 0 1 1969.52 1556)">
   <path class="monochrome-0 multicolor-0:custom hierarchical-0:secondary SFSymbolsPreviewFF4500" d="M73.7188 29.745C109.353 29.745 138.758 0.383422 138.758-35.2511C138.758-70.8857 109.31-100.247 73.6755-100.247C38.0658-100.247 8.72266-70.8857 8.72266-35.2511C8.72266 0.383422 38.1092 29.745 73.7188 29.745ZM73.6755-87.5672C102.667-87.5672 126.035-64.2423 126.035-35.2511C126.035-6.26 102.71 17.065 73.7188 17.065C44.7711 17.065 21.471-6.26 21.471-35.2511C21.471-64.2423 44.7277-87.5672 73.6755-87.5672Z"/>
   <path class="monochrome-1 multicolor-1:white hierarchical-1:primary SFSymbolsPreviewFFFFFF" d="M99.4965-72C97.0216-72 94.8378-70.5442 93.8187-68.4332L79.0419-71.5632C78.6051-71.636 78.1684-71.5632 77.8772-71.3449C77.5132-71.1265 77.2949-70.7625 77.2221-70.3258L72.7089-49.0704C63.2459-48.7792 54.7292-45.9403 48.5419-41.5C46.9404-43.0286 44.7567-43.9749 42.3545-43.9749C37.4046-43.9749 33.4739-39.9714 33.4739-35.0943C33.4739-31.4547 35.6576-28.3974 38.7149-27.0143C38.5693-26.1408 38.4965-25.2673 38.4965-24.321C38.4965-10.636 54.4381 0.501191 74.092 0.501191C93.7459 0.501191 109.687-10.5632 109.687-24.321C109.687-25.1945 109.615-26.1408 109.469-27.0143C112.526-28.3974 114.71-31.5274 114.71-35.1671C114.71-40.1169 110.707-44.0477 105.829-44.0477C103.427-44.0477 101.244-43.1014 99.6421-41.5728C93.5276-45.9403 85.1564-48.7792 75.839-49.1432L79.9154-68.2148L93.1636-65.3759C93.3092-62.0274 96.0753-59.3341 99.4965-59.3341C102.991-59.3341 105.829-62.173 105.829-65.6671C105.829-69.1611 102.991-72 99.4965-72ZM60.0431-35.1671C63.5371-35.1671 66.376-32.3282 66.376-28.8341C66.376-25.3401 63.5371-22.5012 60.0431-22.5012C56.549-22.4284 53.7101-25.3401 53.7101-28.8341C53.7101-32.3282 56.549-35.1671 60.0431-35.1671ZM87.9953-35.0943C91.4894-35.0943 94.3283-32.2554 94.3283-28.7613C94.3283-25.3401 91.4894-22.4284 87.9953-22.4284C84.5013-22.4284 81.6624-25.2673 81.6624-28.7613C81.6624-32.2554 84.5013-35.0943 87.9953-35.0943ZM61.3533-14.3485C64.1194-11.5823 69.9428-10.636 74.092-10.636C78.2412-10.636 84.1373-11.5823 86.8307-14.3485C87.4858-15.0036 88.5049-15.0036 89.16-14.3485C89.7424-13.6933 89.7424-12.6742 89.16-12.0191C84.8734-7.73243 76.8001-7.37257 74.2315-7.36071L74.092-7.36038C71.6171-7.36038 63.3187-7.72435 59.024-12.0191C58.3688-12.6742 58.3688-13.6933 59.024-14.3485C59.6791-15.0036 60.6982-15.0036 61.3533-14.3485Z"/>
  </g>
  <g id="Medium-L" transform="matrix(1 0 0 1 1673.43 1556)">
   <path class="monochrome-0 multicolor-0:custom hierarchical-0:secondary SFSymbolsPreviewFF4500" d="M73.1005 29.1187C108.374 29.1187 137.526 0.0138167 137.526-35.2592C137.526-70.5322 108.326-99.637 73.0531-99.637C37.8051-99.637 8.72266-70.5322 8.72266-35.2592C8.72266 0.0138167 37.8525 29.1187 73.1005 29.1187ZM73.0531-88.5232C102.575-88.5232 126.365-64.7806 126.365-35.2592C126.365-5.73774 102.622 18.0048 73.1005 18.0048C43.6265 18.0048 19.909-5.73774 19.909-35.2592C19.909-64.7806 43.5791-88.5232 73.0531-88.5232Z"/>
   <path class="monochrome-1 multicolor-1:white hierarchical-1:primary SFSymbolsPreviewFFFFFF" d="M98.5865-72C96.1116-72 93.9278-70.5442 92.9087-68.4332L78.1319-71.5632C77.6951-71.636 77.2584-71.5632 76.9672-71.3449C76.6032-71.1265 76.3849-70.7625 76.3121-70.3258L71.7989-49.0704C62.3359-48.7792 53.8192-45.9403 47.6319-41.5C46.0304-43.0286 43.8467-43.9749 41.4445-43.9749C36.4946-43.9749 32.5639-39.9714 32.5639-35.0943C32.5639-31.4547 34.7476-28.3974 37.8049-27.0143C37.6593-26.1408 37.5865-25.2673 37.5865-24.321C37.5865-10.636 53.5281 0.501191 73.182 0.501191C92.8359 0.501191 108.777-10.5632 108.777-24.321C108.777-25.1945 108.705-26.1408 108.559-27.0143C111.616-28.3974 113.8-31.5274 113.8-35.1671C113.8-40.1169 109.797-44.0477 104.919-44.0477C102.517-44.0477 100.334-43.1014 98.7321-41.5728C92.6176-45.9403 84.2464-48.7792 74.929-49.1432L79.0054-68.2148L92.2536-65.3759C92.3992-62.0274 95.1653-59.3341 98.5865-59.3341C102.081-59.3341 104.919-62.173 104.919-65.6671C104.919-69.1611 102.081-72 98.5865-72ZM59.1331-35.1671C62.6271-35.1671 65.466-32.3282 65.466-28.8341C65.466-25.3401 62.6271-22.5012 59.1331-22.5012C55.639-22.4284 52.8001-25.3401 52.8001-28.8341C52.8001-32.3282 55.639-35.1671 59.1331-35.1671ZM87.0853-35.0943C90.5794-35.0943 93.4183-32.2554 93.4183-28.7613C93.4183-25.3401 90.5794-22.4284 87.0853-22.4284C83.5913-22.4284 80.7524-25.2673 80.7524-28.7613C80.7524-32.2554 83.5913-35.0943 87.0853-35.0943ZM60.4433-14.3485C63.2094-11.5823 69.0328-10.636 73.182-10.636C77.3312-10.636 83.2273-11.5823 85.9207-14.3485C86.5758-15.0036 87.5949-15.0036 88.25-14.3485C88.8324-13.6933 88.8324-12.6742 88.25-12.0191C83.9634-7.73243 75.8901-7.37257 73.3215-7.36071L73.182-7.36038C70.7071-7.36038 62.4087-7.72435 58.114-12.0191C57.4588-12.6742 57.4588-13.6933 58.114-14.3485C58.7691-15.0036 59.7882-15.0036 60.4433-14.3485Z"/>
  </g>
  <g id="Regular-L" transform="matrix(1 0 0 1 1377.52 1556)">
   <path class="monochrome-0 multicolor-0:custom hierarchical-0:secondary SFSymbolsPreviewFF4500" d="M72.294 28.3017C107.096 28.3017 135.918-0.468277 135.918-35.2697C135.918-70.0711 107.043-98.8411 72.2413-98.8411C37.465-98.8411 8.72266-70.0711 8.72266-35.2697C8.72266-0.468277 37.5177 28.3017 72.294 28.3017ZM72.2413-89.7701C102.455-89.7701 126.795-65.4829 126.795-35.2697C126.795-5.05652 102.507 19.2307 72.294 19.2307C42.1336 19.2307 17.8715-5.05652 17.8715-35.2697C17.8715-65.4829 42.0809-89.7701 72.2413-89.7701Z"/>
   <path class="monochrome-1 multicolor-1:white hierarchical-1:primary SFSymbolsPreviewFFFFFF" d="M97.4965-72C95.0216-72 92.8378-70.5442 91.8187-68.4332L77.0419-71.5632C76.6051-71.636 76.1684-71.5632 75.8772-71.3449C75.5132-71.1265 75.2949-70.7625 75.2221-70.3258L70.7089-49.0704C61.2459-48.7792 52.7292-45.9403 46.5419-41.5C44.9404-43.0286 42.7567-43.9749 40.3545-43.9749C35.4046-43.9749 31.4739-39.9714 31.4739-35.0943C31.4739-31.4547 33.6576-28.3974 36.7149-27.0143C36.5693-26.1408 36.4965-25.2673 36.4965-24.321C36.4965-10.636 52.4381 0.501191 72.092 0.501191C91.7459 0.501191 107.687-10.5632 107.687-24.321C107.687-25.1945 107.615-26.1408 107.469-27.0143C110.526-28.3974 112.71-31.5274 112.71-35.1671C112.71-40.1169 108.707-44.0477 103.829-44.0477C101.427-44.0477 99.2435-43.1014 97.6421-41.5728C91.5276-45.9403 83.1564-48.7792 73.839-49.1432L77.9154-68.2148L91.1636-65.3759C91.3092-62.0274 94.0753-59.3341 97.4965-59.3341C100.991-59.3341 103.829-62.173 103.829-65.6671C103.829-69.1611 100.991-72 97.4965-72ZM58.0431-35.1671C61.5371-35.1671 64.376-32.3282 64.376-28.8341C64.376-25.3401 61.5371-22.5012 58.0431-22.5012C54.549-22.4284 51.7101-25.3401 51.7101-28.8341C51.7101-32.3282 54.549-35.1671 58.0431-35.1671ZM85.9953-35.0943C89.4894-35.0943 92.3283-32.2554 92.3283-28.7613C92.3283-25.3401 89.4894-22.4284 85.9953-22.4284C82.5013-22.4284 79.6624-25.2673 79.6624-28.7613C79.6624-32.2554 82.5013-35.0943 85.9953-35.0943ZM59.3533-14.3485C62.1194-11.5823 67.9428-10.636 72.092-10.636C76.2412-10.636 82.1373-11.5823 84.8307-14.3485C85.4858-15.0036 86.5049-15.0036 87.16-14.3485C87.7424-13.6933 87.7424-12.6742 87.16-12.0191C82.8734-7.73243 74.8001-7.37257 72.2315-7.36071L72.092-7.36038C69.6171-7.36038 61.3187-7.72435 57.024-12.0191C56.3688-12.6742 56.3688-13.6933 57.024-14.3485C57.6791-15.0036 58.6982-15.0036 59.3533-14.3485Z"/>
  </g>
  <g id="Light-L" transform="matrix(1 0 0 1 1081.74 1556)">
   <path class="monochrome-0 multicolor-0:custom hierarchical-0:secondary SFSymbolsPreviewFF4500" d="M71.378 27.3856C105.721 27.3856 134.067-0.926323 134.067-35.2697C134.067-69.6131 105.688-97.925 71.3443-97.925C36.9878-97.925 8.72266-69.6131 8.72266-35.2697C8.72266-0.926323 37.0215 27.3856 71.378 27.3856ZM71.3443-91.0297C102.206-91.0297 127.138-66.1318 127.138-35.2697C127.138-4.40762 102.24 20.4903 71.378 20.4903C40.5496 20.4903 15.6385-4.40762 15.6385-35.2697C15.6385-66.1318 40.5159-91.0297 71.3443-91.0297Z"/>
   <path class="monochrome-1 multicolor-1:white hierarchical-1:primary SFSymbolsPreviewFFFFFF" d="M97.2865-71C94.8116-71 92.6278-69.5442 91.6087-67.4332L76.8319-70.5632C76.3951-70.636 75.9584-70.5632 75.6672-70.3449C75.3032-70.1265 75.0849-69.7625 75.0121-69.3258L70.4989-48.0704C61.0359-47.7792 52.5192-44.9403 46.3319-40.5C44.7304-42.0286 42.5467-42.9749 40.1445-42.9749C35.1946-42.9749 31.2639-38.9714 31.2639-34.0943C31.2639-30.4547 33.4476-27.3974 36.5049-26.0143C36.3593-25.1408 36.2865-24.2673 36.2865-23.321C36.2865-9.63604 52.2281 1.50119 71.882 1.50119C91.5359 1.50119 107.477-9.56325 107.477-23.321C107.477-24.1945 107.405-25.1408 107.259-26.0143C110.316-27.3974 112.5-30.5274 112.5-34.1671C112.5-39.1169 108.497-43.0477 103.619-43.0477C101.217-43.0477 99.0335-42.1014 97.4321-40.5728C91.3176-44.9403 82.9464-47.7792 73.629-48.1432L77.7054-67.2148L90.9536-64.3759C91.0992-61.0274 93.8653-58.3341 97.2865-58.3341C100.781-58.3341 103.619-61.173 103.619-64.6671C103.619-68.1611 100.781-71 97.2865-71ZM57.8331-34.1671C61.3271-34.1671 64.166-31.3282 64.166-27.8341C64.166-24.3401 61.3271-21.5012 57.8331-21.5012C54.339-21.4284 51.5001-24.3401 51.5001-27.8341C51.5001-31.3282 54.339-34.1671 57.8331-34.1671ZM85.7853-34.0943C89.2794-34.0943 92.1183-31.2554 92.1183-27.7613C92.1183-24.3401 89.2794-21.4284 85.7853-21.4284C82.2913-21.4284 79.4524-24.2673 79.4524-27.7613C79.4524-31.2554 82.2913-34.0943 85.7853-34.0943ZM59.1433-13.3485C61.9094-10.5823 67.7328-9.63604 71.882-9.63604C76.0312-9.63604 81.9273-10.5823 84.6207-13.3485C85.2758-14.0036 86.2949-14.0036 86.95-13.3485C87.5324-12.6933 87.5324-11.6742 86.95-11.0191C82.6634-6.73243 74.5901-6.37257 72.0215-6.36071L71.882-6.36038C69.4071-6.36038 61.1087-6.72435 56.814-11.0191C56.1588-11.6742 56.1588-12.6933 56.814-13.3485C57.4691-14.0036 58.4882-14.0036 59.1433-13.3485Z"/>
  </g>
  <g id="Thin-L" transform="matrix(1 0 0 1 786.248 1556)">
   <path class="monochrome-0 multicolor-0:custom hierarchical-0:secondary SFSymbolsPreviewFF4500" d="M70.1663 26.174C103.904 26.174 131.619-1.53213 131.619-35.2697C131.619-69.0073 103.896-96.7134 70.1579-96.7134C36.3568-96.7134 8.72266-69.0073 8.72266-35.2697C8.72266-1.53213 36.3652 26.174 70.1663 26.174ZM70.1579-92.6957C101.878-92.6957 127.592-66.99 127.592-35.2697C127.592-3.5494 101.887 22.1563 70.1663 22.1563C38.4545 22.1563 12.6853-3.5494 12.6853-35.2697C12.6853-66.99 38.446-92.6957 70.1579-92.6957Z"/>
   <path class="monochrome-1 multicolor-1:white hierarchical-1:primary SFSymbolsPreviewFFFFFF" d="M95.7705-72C93.2956-72 91.1118-70.5442 90.0927-68.4332L75.3159-71.5632C74.8791-71.636 74.4424-71.5632 74.1512-71.3449C73.7872-71.1265 73.5689-70.7625 73.4961-70.3258L68.9829-49.0704C59.5199-48.7792 51.0032-45.9403 44.8159-41.5C43.2144-43.0286 41.0307-43.9749 38.6285-43.9749C33.6786-43.9749 29.7479-39.9714 29.7479-35.0943C29.7479-31.4547 31.9316-28.3974 34.9889-27.0143C34.8433-26.1408 34.7705-25.2673 34.7705-24.321C34.7705-10.636 50.7121 0.501191 70.366 0.501191C90.0199 0.501191 105.961-10.5632 105.961-24.321C105.961-25.1945 105.889-26.1408 105.743-27.0143C108.8-28.3974 110.984-31.5274 110.984-35.1671C110.984-40.1169 106.981-44.0477 102.103-44.0477C99.7013-44.0477 97.5175-43.1014 95.9161-41.5728C89.8016-45.9403 81.4304-48.7792 72.113-49.1432L76.1894-68.2148L89.4376-65.3759C89.5832-62.0274 92.3493-59.3341 95.7705-59.3341C99.2646-59.3341 102.103-62.173 102.103-65.6671C102.103-69.1611 99.2646-72 95.7705-72ZM56.3171-35.1671C59.8111-35.1671 62.65-32.3282 62.65-28.8341C62.65-25.3401 59.8111-22.5012 56.3171-22.5012C52.823-22.4284 49.9841-25.3401 49.9841-28.8341C49.9841-32.3282 52.823-35.1671 56.3171-35.1671ZM84.2693-35.0943C87.7634-35.0943 90.6023-32.2554 90.6023-28.7613C90.6023-25.3401 87.7634-22.4284 84.2693-22.4284C80.7753-22.4284 77.9364-25.2673 77.9364-28.7613C77.9364-32.2554 80.7753-35.0943 84.2693-35.0943ZM57.6273-14.3485C60.3934-11.5823 66.2168-10.636 70.366-10.636C74.5152-10.636 80.4113-11.5823 83.1047-14.3485C83.7598-15.0036 84.7789-15.0036 85.434-14.3485C86.0164-13.6933 86.0164-12.6742 85.434-12.0191C81.0665-7.65155 72.7681-7.36038 70.366-7.36038C67.8911-7.36038 59.5927-7.72435 55.298-12.0191C54.6428-12.6742 54.6428-13.6933 55.298-14.3485C55.9531-15.0036 56.9722-15.0036 57.6273-14.3485Z"/>
  </g>
  <g id="Ultralight-L" transform="matrix(1 0 0 1 490.165 1556)">
   <path class="monochrome-0 multicolor-0:custom hierarchical-0:secondary SFSymbolsPreviewFF4500" d="M69.5458 25.5534C102.973 25.5534 130.364-1.84242 130.364-35.2697C130.364-68.697 102.978-96.0928 69.5503-96.0928C36.0336-96.0928 8.72266-68.697 8.72266-35.2697C8.72266-1.84242 36.0291 25.5534 69.5458 25.5534ZM69.5503-93.549C101.71-93.549 127.825-67.4296 127.825-35.2697C127.825-3.10983 101.706 23.0096 69.5458 23.0096C37.3814 23.0096 11.1726-3.10983 11.1726-35.2697C11.1726-67.4296 37.3859-93.549 69.5503-93.549Z"/>
   <path class="monochrome-1 multicolor-1:white hierarchical-1:primary SFSymbolsPreviewFFFFFF" d="M94.8555-72C92.3806-72 90.1968-70.5442 89.1777-68.4332L74.4009-71.5632C73.9641-71.636 73.5274-71.5632 73.2362-71.3449C72.8722-71.1265 72.6539-70.7625 72.5811-70.3258L68.0679-49.0704C58.6049-48.7792 50.0882-45.9403 43.9009-41.5C42.2994-43.0286 40.1157-43.9749 37.7135-43.9749C32.7636-43.9749 28.8329-39.9714 28.8329-35.0943C28.8329-31.4547 31.0166-28.3974 34.0739-27.0143C33.9283-26.1408 33.8555-25.2673 33.8555-24.321C33.8555-10.636 49.7971 0.501191 69.451 0.501191C89.1049 0.501191 105.046-10.5632 105.046-24.321C105.046-25.1945 104.974-26.1408 104.828-27.0143C107.885-28.3974 110.069-31.5274 110.069-35.1671C110.069-40.1169 106.066-44.0477 101.188-44.0477C98.7863-44.0477 96.6025-43.1014 95.0011-41.5728C88.8866-45.9403 80.5154-48.7792 71.198-49.1432L75.2744-68.2148L88.5226-65.3759C88.6682-62.0274 91.4343-59.3341 94.8555-59.3341C98.3496-59.3341 101.188-62.173 101.188-65.6671C101.188-69.1611 98.3496-72 94.8555-72ZM55.4021-35.1671C58.8961-35.1671 61.735-32.3282 61.735-28.8341C61.735-25.3401 58.8961-22.5012 55.4021-22.5012C51.908-22.4284 49.0691-25.3401 49.0691-28.8341C49.0691-32.3282 51.908-35.1671 55.4021-35.1671ZM83.3543-35.0943C86.8484-35.0943 89.6873-32.2554 89.6873-28.7613C89.6873-25.3401 86.8484-22.4284 83.3543-22.4284C79.8603-22.4284 77.0214-25.2673 77.0214-28.7613C77.0214-32.2554 79.8603-35.0943 83.3543-35.0943ZM56.7123-14.3485C59.4784-11.5823 65.3018-10.636 69.451-10.636C73.6002-10.636 79.4963-11.5823 82.1897-14.3485C82.8448-15.0036 83.8639-15.0036 84.519-14.3485C85.1014-13.6933 85.1014-12.6742 84.519-12.0191C80.2324-7.73243 72.1591-7.37257 69.5905-7.36071L69.451-7.36038C66.9761-7.36038 58.6777-7.72435 54.383-12.0191C53.7278-12.6742 53.7278-13.6933 54.383-14.3485C55.0381-15.0036 56.0572-15.0036 56.7123-14.3485Z"/>
  </g>
  <g id="Black-M" transform="matrix(1 0 0 1 2871.35 1126)">
   <path class="monochrome-0 multicolor-0:custom hierarchical-0:secondary SFSymbolsPreviewFF4500" d="M62.0422 18.116C91.4096 18.116 115.367-5.83621 115.367-35.2035C115.367-64.5709 91.4041-88.5231 62.0367-88.5231C32.6752-88.5231 8.72266-64.5709 8.72266-35.2035C8.72266-5.83621 32.6807 18.116 62.0422 18.116ZM62.0367-71.1412C81.9083-71.1412 97.9799-55.0751 97.9799-35.2035C97.9799-15.332 81.9138 0.73415 62.0422 0.73415C42.1762 0.73415 26.1158-15.332 26.1158-35.2035C26.1158-55.0751 42.1707-71.1412 62.0367-71.1412Z"/>
   <path class="monochrome-1 multicolor-1:white hierarchical-1:primary SFSymbolsPreviewFFFFFF" d="M81.5099-63C79.603-63 77.9204-61.8783 77.1352-60.2518L65.7498-62.6635C65.4133-62.7196 65.0768-62.6635 64.8524-62.4952C64.572-62.327 64.4037-62.0465 64.3476-61.71L60.8703-45.3329C53.5791-45.1086 47.0171-42.9212 42.2498-39.5C41.0159-40.6778 39.3333-41.4069 37.4825-41.4069C33.6686-41.4069 30.64-38.3222 30.64-34.5644C30.64-31.7601 32.3226-29.4045 34.6782-28.3389C34.566-27.6659 34.5099-26.9928 34.5099-26.2637C34.5099-15.7196 46.7927-7.13843 61.9359-7.13843C77.0791-7.13843 89.362-15.6635 89.362-26.2637C89.362-26.9368 89.3059-27.6659 89.1937-28.3389C91.5493-29.4045 93.2319-31.8162 93.2319-34.6205C93.2319-38.4344 90.1472-41.463 86.3894-41.463C84.5386-41.463 82.856-40.7339 81.6221-39.5561C76.9109-42.9212 70.461-45.1086 63.282-45.389L66.4228-60.0835L76.6305-57.8962C76.7426-55.3162 78.8739-53.2411 81.5099-53.2411C84.2021-53.2411 86.3894-55.4284 86.3894-58.1205C86.3894-60.8126 84.2021-63 81.5099-63ZM51.1114-34.6205C53.8035-34.6205 55.9908-32.4332 55.9908-29.7411C55.9908-27.0489 53.8035-24.8616 51.1114-24.8616C48.4192-24.8055 46.2319-27.0489 46.2319-29.7411C46.2319-32.4332 48.4192-34.6205 51.1114-34.6205ZM72.6484-34.5644C75.3405-34.5644 77.5278-32.3771 77.5278-29.685C77.5278-27.0489 75.3405-24.8055 72.6484-24.8055C69.9562-24.8055 67.7689-26.9928 67.7689-29.685C67.7689-32.3771 69.9562-34.5644 72.6484-34.5644ZM52.1209-18.58C54.2522-16.4487 58.739-15.7196 61.9359-15.7196C65.1328-15.7196 69.6758-16.4487 71.751-18.58C72.2558-19.0847 73.041-19.0847 73.5457-18.58C73.9944-18.0752 73.9944-17.29 73.5457-16.7852C70.1806-13.42 63.7868-13.1957 61.9359-13.1957C60.029-13.1957 53.6352-13.4761 50.3262-16.7852C49.8214-17.29 49.8214-18.0752 50.3262-18.58C50.8309-19.0847 51.6161-19.0847 52.1209-18.58Z"/>
  </g>
  <g id="Heavy-M" transform="matrix(1 0 0 1 2575.47 1126)">
   <path class="monochrome-0 multicolor-0:custom hierarchical-0:secondary SFSymbolsPreviewFF4500" d="M61.2053 17.2657C90.0667 17.2657 113.704-6.35571 113.704-35.217C113.704-64.0783 90.0502-87.6997 61.1889-87.6997C32.3418-87.6997 8.72266-64.0783 8.72266-35.217C8.72266-6.35571 32.3582 17.2657 61.2053 17.2657ZM61.1889-72.4688C81.8077-72.4688 98.4571-55.8358 98.4571-35.217C98.4571-14.5983 81.8241 2.03478 61.2053 2.03478C40.603 2.03478 23.9841-14.5983 23.9841-35.217C23.9841-55.8358 40.5866-72.4688 61.1889-72.4688Z"/>
   <path class="monochrome-1 multicolor-1:white hierarchical-1:primary SFSymbolsPreviewFFFFFF" d="M80.3899-63C78.483-63 76.8004-61.8783 76.0152-60.2518L64.6298-62.6635C64.2933-62.7196 63.9568-62.6635 63.7324-62.4952C63.452-62.327 63.2837-62.0465 63.2276-61.71L59.7503-45.3329C52.4591-45.1086 45.8971-42.9212 41.1298-39.5C39.8959-40.6778 38.2133-41.4069 36.3625-41.4069C32.5486-41.4069 29.52-38.3222 29.52-34.5644C29.52-31.7601 31.2026-29.4045 33.5582-28.3389C33.446-27.6659 33.3899-26.9928 33.3899-26.2637C33.3899-15.7196 45.6727-7.13843 60.8159-7.13843C75.9591-7.13843 88.242-15.6635 88.242-26.2637C88.242-26.9368 88.1859-27.6659 88.0737-28.3389C90.4293-29.4045 92.1119-31.8162 92.1119-34.6205C92.1119-38.4344 89.0272-41.463 85.2694-41.463C83.4186-41.463 81.736-40.7339 80.5021-39.5561C75.7909-42.9212 69.341-45.1086 62.162-45.389L65.3028-60.0835L75.5105-57.8962C75.6226-55.3162 77.7539-53.2411 80.3899-53.2411C83.0821-53.2411 85.2694-55.4284 85.2694-58.1205C85.2694-60.8126 83.0821-63 80.3899-63ZM49.9914-34.6205C52.6835-34.6205 54.8708-32.4332 54.8708-29.7411C54.8708-27.0489 52.6835-24.8616 49.9914-24.8616C47.2992-24.8055 45.1119-27.0489 45.1119-29.7411C45.1119-32.4332 47.2992-34.6205 49.9914-34.6205ZM71.5284-34.5644C74.2205-34.5644 76.4078-32.3771 76.4078-29.685C76.4078-27.0489 74.2205-24.8055 71.5284-24.8055C68.8362-24.8055 66.6489-26.9928 66.6489-29.685C66.6489-32.3771 68.8362-34.5644 71.5284-34.5644ZM51.0009-18.58C53.1322-16.4487 57.619-15.7196 60.8159-15.7196C64.0128-15.7196 68.5558-16.4487 70.631-18.58C71.1358-19.0847 71.921-19.0847 72.4257-18.58C72.8744-18.0752 72.8744-17.29 72.4257-16.7852C69.1354-13.4948 62.9494-13.2072 60.946-13.1961L60.8159-13.1957C58.909-13.1957 52.5152-13.4761 49.2062-16.7852C48.7014-17.29 48.7014-18.0752 49.2062-18.58C49.7109-19.0847 50.4961-19.0847 51.0009-18.58Z"/>
  </g>
  <g id="Bold-M" transform="matrix(1 0 0 1 2279.69 1126)">
   <path class="monochrome-0 multicolor-0:custom hierarchical-0:secondary SFSymbolsPreviewFF4500" d="M60.2692 16.3144C88.5644 16.3144 111.844-6.93686 111.844-35.2321C111.844-63.5273 88.5358-86.7786 60.2405-86.7786C31.9688-86.7786 8.72266-63.5273 8.72266-35.2321C8.72266-6.93686 31.9974 16.3144 60.2692 16.3144ZM60.2405-73.9539C81.6951-73.9539 98.991-56.6867 98.991-35.2321C98.991-13.7775 81.7238 3.48972 60.2692 3.48972C38.8432 3.48972 21.5995-13.7775 21.5995-35.2321C21.5995-56.6867 38.8146-73.9539 60.2405-73.9539Z"/>
   <path class="monochrome-1 multicolor-1:white hierarchical-1:primary SFSymbolsPreviewFFFFFF" d="M80.1799-63C78.273-63 76.5904-61.8783 75.8052-60.2518L64.4198-62.6635C64.0833-62.7196 63.7468-62.6635 63.5224-62.4952C63.242-62.327 63.0737-62.0465 63.0176-61.71L59.5403-45.3329C52.2491-45.1086 45.6871-42.9212 40.9198-39.5C39.6859-40.6778 38.0033-41.4069 36.1525-41.4069C32.3386-41.4069 29.31-38.3222 29.31-34.5644C29.31-31.7601 30.9926-29.4045 33.3482-28.3389C33.236-27.6659 33.1799-26.9928 33.1799-26.2637C33.1799-15.7196 45.4627-7.13843 60.6059-7.13843C75.7491-7.13843 88.032-15.6635 88.032-26.2637C88.032-26.9368 87.9759-27.6659 87.8637-28.3389C90.2193-29.4045 91.9019-31.8162 91.9019-34.6205C91.9019-38.4344 88.8172-41.463 85.0594-41.463C83.2086-41.463 81.526-40.7339 80.2921-39.5561C75.5809-42.9212 69.131-45.1086 61.952-45.389L65.0928-60.0835L75.3005-57.8962C75.4126-55.3162 77.5439-53.2411 80.1799-53.2411C82.8721-53.2411 85.0594-55.4284 85.0594-58.1205C85.0594-60.8126 82.8721-63 80.1799-63ZM49.7814-34.6205C52.4735-34.6205 54.6608-32.4332 54.6608-29.7411C54.6608-27.0489 52.4735-24.8616 49.7814-24.8616C47.0892-24.8055 44.9019-27.0489 44.9019-29.7411C44.9019-32.4332 47.0892-34.6205 49.7814-34.6205ZM71.3184-34.5644C74.0105-34.5644 76.1978-32.3771 76.1978-29.685C76.1978-27.0489 74.0105-24.8055 71.3184-24.8055C68.6262-24.8055 66.4389-26.9928 66.4389-29.685C66.4389-32.3771 68.6262-34.5644 71.3184-34.5644ZM50.7909-18.58C52.9222-16.4487 57.409-15.7196 60.6059-15.7196C63.8028-15.7196 68.3458-16.4487 70.421-18.58C70.9258-19.0847 71.711-19.0847 72.2157-18.58C72.6644-18.0752 72.6644-17.29 72.2157-16.7852C68.9254-13.4948 62.7394-13.2072 60.736-13.1961L60.6059-13.1957C58.699-13.1957 52.3052-13.4761 48.9962-16.7852C48.4914-17.29 48.4914-18.0752 48.9962-18.58C49.5009-19.0847 50.2861-19.0847 50.7909-18.58Z"/>
  </g>
  <g id="Semibold-M" transform="matrix(1 0 0 1 1983.62 1126)">
   <path class="monochrome-0 multicolor-0:custom hierarchical-0:secondary SFSymbolsPreviewFF4500" d="M59.6238 15.6586C87.5288 15.6586 110.562-7.33749 110.562-35.2425C110.562-63.1475 87.4917-86.1436 59.5867-86.1436C31.7117-86.1436 8.72266-63.1475 8.72266-35.2425C8.72266-7.33749 31.7487 15.6586 59.6238 15.6586ZM59.5867-74.9777C81.6175-74.9777 99.359-57.2733 99.359-35.2425C99.359-13.2117 81.6546 4.49275 59.6238 4.49275C37.63 4.49275 19.9555-13.2117 19.9555-35.2425C19.9555-57.2733 37.5929-74.9777 59.5867-74.9777Z"/>
   <path class="monochrome-1 multicolor-1:white hierarchical-1:primary SFSymbolsPreviewFFFFFF" d="M79.2499-63C77.343-63 75.6604-61.8783 74.8752-60.2518L63.4898-62.6635C63.1533-62.7196 62.8168-62.6635 62.5924-62.4952C62.312-62.327 62.1437-62.0465 62.0876-61.71L58.6103-45.3329C51.3191-45.1086 44.7571-42.9212 39.9898-39.5C38.7559-40.6778 37.0733-41.4069 35.2225-41.4069C31.4086-41.4069 28.38-38.3222 28.38-34.5644C28.38-31.7601 30.0626-29.4045 32.4182-28.3389C32.306-27.6659 32.2499-26.9928 32.2499-26.2637C32.2499-15.7196 44.5327-7.13843 59.6759-7.13843C74.8191-7.13843 87.102-15.6635 87.102-26.2637C87.102-26.9368 87.0459-27.6659 86.9337-28.3389C89.2893-29.4045 90.9719-31.8162 90.9719-34.6205C90.9719-38.4344 87.8872-41.463 84.1294-41.463C82.2786-41.463 80.596-40.7339 79.3621-39.5561C74.6509-42.9212 68.201-45.1086 61.022-45.389L64.1628-60.0835L74.3705-57.8962C74.4826-55.3162 76.6139-53.2411 79.2499-53.2411C81.9421-53.2411 84.1294-55.4284 84.1294-58.1205C84.1294-60.8126 81.9421-63 79.2499-63ZM48.8514-34.6205C51.5435-34.6205 53.7308-32.4332 53.7308-29.7411C53.7308-27.0489 51.5435-24.8616 48.8514-24.8616C46.1592-24.8055 43.9719-27.0489 43.9719-29.7411C43.9719-32.4332 46.1592-34.6205 48.8514-34.6205ZM70.3884-34.5644C73.0805-34.5644 75.2678-32.3771 75.2678-29.685C75.2678-27.0489 73.0805-24.8055 70.3884-24.8055C67.6962-24.8055 65.5089-26.9928 65.5089-29.685C65.5089-32.3771 67.6962-34.5644 70.3884-34.5644ZM49.8609-18.58C51.9922-16.4487 56.479-15.7196 59.6759-15.7196C62.8728-15.7196 67.4158-16.4487 69.491-18.58C69.9958-19.0847 70.781-19.0847 71.2857-18.58C71.7344-18.0752 71.7344-17.29 71.2857-16.7852C67.9954-13.4948 61.8094-13.2072 59.806-13.1961L59.6759-13.1957C57.769-13.1957 51.3752-13.4761 48.0662-16.7852C47.5614-17.29 47.5614-18.0752 48.0662-18.58C48.5709-19.0847 49.3561-19.0847 49.8609-18.58Z"/>
  </g>
  <g id="Medium-M" transform="matrix(1 0 0 1 1687.4 1126)">
   <path class="monochrome-0 multicolor-0:custom hierarchical-0:secondary SFSymbolsPreviewFF4500" d="M59.1344 15.1614C86.7435 15.1614 109.59-7.64127 109.59-35.2504C109.59-62.8595 86.7001-85.6621 59.091-85.6621C31.5167-85.6621 8.72266-62.8595 8.72266-35.2504C8.72266-7.64127 31.5601 15.1614 59.1344 15.1614ZM59.091-75.754C81.5587-75.754 99.6381-57.7181 99.6381-35.2504C99.6381-12.7826 81.6021 5.25329 59.1344 5.25329C36.7101 5.25329 18.709-12.7826 18.709-35.2504C18.709-57.7181 36.6666-75.754 59.091-75.754Z"/>
   <path class="monochrome-1 multicolor-1:white hierarchical-1:primary SFSymbolsPreviewFFFFFF" d="M78.4699-63C76.563-63 74.8804-61.8783 74.0952-60.2518L62.7098-62.6635C62.3733-62.7196 62.0368-62.6635 61.8124-62.4952C61.532-62.327 61.3637-62.0465 61.3076-61.71L57.8303-45.3329C50.5391-45.1086 43.9771-42.9212 39.2098-39.5C37.9759-40.6778 36.2933-41.4069 34.4425-41.4069C30.6286-41.4069 27.6-38.3222 27.6-34.5644C27.6-31.7601 29.2826-29.4045 31.6382-28.3389C31.526-27.6659 31.4699-26.9928 31.4699-26.2637C31.4699-15.7196 43.7527-7.13843 58.8959-7.13843C74.0391-7.13843 86.322-15.6635 86.322-26.2637C86.322-26.9368 86.2659-27.6659 86.1537-28.3389C88.5093-29.4045 90.1919-31.8162 90.1919-34.6205C90.1919-38.4344 87.1072-41.463 83.3494-41.463C81.4986-41.463 79.816-40.7339 78.5821-39.5561C73.8709-42.9212 67.421-45.1086 60.242-45.389L63.3828-60.0835L73.5905-57.8962C73.7026-55.3162 75.8339-53.2411 78.4699-53.2411C81.1621-53.2411 83.3494-55.4284 83.3494-58.1205C83.3494-60.8126 81.1621-63 78.4699-63ZM48.0714-34.6205C50.7635-34.6205 52.9508-32.4332 52.9508-29.7411C52.9508-27.0489 50.7635-24.8616 48.0714-24.8616C45.3792-24.8055 43.1919-27.0489 43.1919-29.7411C43.1919-32.4332 45.3792-34.6205 48.0714-34.6205ZM69.6084-34.5644C72.3005-34.5644 74.4878-32.3771 74.4878-29.685C74.4878-27.0489 72.3005-24.8055 69.6084-24.8055C66.9162-24.8055 64.7289-26.9928 64.7289-29.685C64.7289-32.3771 66.9162-34.5644 69.6084-34.5644ZM49.0809-18.58C51.2122-16.4487 55.699-15.7196 58.8959-15.7196C62.0928-15.7196 66.6358-16.4487 68.711-18.58C69.2158-19.0847 70.001-19.0847 70.5057-18.58C70.9544-18.0752 70.9544-17.29 70.5057-16.7852C67.1406-13.42 60.7468-13.1957 58.8959-13.1957C56.989-13.1957 50.5952-13.4761 47.2862-16.7852C46.7814-17.29 46.7814-18.0752 47.2862-18.58C47.7909-19.0847 48.5761-19.0847 49.0809-18.58Z"/>
  </g>
  <g id="Regular-M" transform="matrix(1 0 0 1 1391.32 1126)">
   <path class="monochrome-0 multicolor-0:custom hierarchical-0:secondary SFSymbolsPreviewFF4500" d="M58.4961 14.5128C85.7192 14.5128 108.321-8.0375 108.321-35.2606C108.321-62.4838 85.6675-85.0341 58.4443-85.0341C31.2624-85.0341 8.72266-62.4838 8.72266-35.2606C8.72266-8.0375 31.3141 14.5128 58.4961 14.5128ZM58.4443-76.7666C81.482-76.7666 100.002-58.2983 100.002-35.2606C100.002-12.223 81.5337 6.24529 58.4961 6.24529C35.5102 6.24529 17.0831-12.223 17.0831-35.2606C17.0831-58.2983 35.4584-76.7666 58.4443-76.7666Z"/>
   <path class="monochrome-1 multicolor-1:white hierarchical-1:primary SFSymbolsPreviewFFFFFF" d="M78.5499-63C76.643-63 74.9604-61.8783 74.1752-60.2518L62.7898-62.6635C62.4533-62.7196 62.1168-62.6635 61.8924-62.4952C61.612-62.327 61.4437-62.0465 61.3876-61.71L57.9103-45.3329C50.6191-45.1086 44.0571-42.9212 39.2898-39.5C38.0559-40.6778 36.3733-41.4069 34.5225-41.4069C30.7086-41.4069 27.68-38.3222 27.68-34.5644C27.68-31.7601 29.3626-29.4045 31.7182-28.3389C31.606-27.6659 31.5499-26.9928 31.5499-26.2637C31.5499-15.7196 43.8327-7.13843 58.9759-7.13843C74.1191-7.13843 86.402-15.6635 86.402-26.2637C86.402-26.9368 86.3459-27.6659 86.2337-28.3389C88.5893-29.4045 90.2719-31.8162 90.2719-34.6205C90.2719-38.4344 87.1872-41.463 83.4294-41.463C81.5786-41.463 79.896-40.7339 78.6621-39.5561C73.9509-42.9212 67.501-45.1086 60.322-45.389L63.4628-60.0835L73.6705-57.8962C73.7826-55.3162 75.9139-53.2411 78.5499-53.2411C81.2421-53.2411 83.4294-55.4284 83.4294-58.1205C83.4294-60.8126 81.2421-63 78.5499-63ZM48.1514-34.6205C50.8435-34.6205 53.0308-32.4332 53.0308-29.7411C53.0308-27.0489 50.8435-24.8616 48.1514-24.8616C45.4592-24.8055 43.2719-27.0489 43.2719-29.7411C43.2719-32.4332 45.4592-34.6205 48.1514-34.6205ZM69.6884-34.5644C72.3805-34.5644 74.5678-32.3771 74.5678-29.685C74.5678-27.0489 72.3805-24.8055 69.6884-24.8055C66.9962-24.8055 64.8089-26.9928 64.8089-29.685C64.8089-32.3771 66.9962-34.5644 69.6884-34.5644ZM49.1609-18.58C51.2922-16.4487 55.779-15.7196 58.9759-15.7196C62.1728-15.7196 66.7158-16.4487 68.791-18.58C69.2958-19.0847 70.081-19.0847 70.5857-18.58C71.0344-18.0752 71.0344-17.29 70.5857-16.7852C67.2206-13.42 60.8268-13.1957 58.9759-13.1957C57.069-13.1957 50.6752-13.4761 47.3662-16.7852C46.8614-17.29 46.8614-18.0752 47.3662-18.58C47.8709-19.0847 48.6561-19.0847 49.1609-18.58Z"/>
  </g>
  <g id="Light-M" transform="matrix(1 0 0 1 1095.44 1126)">
   <path class="monochrome-0 multicolor-0:custom hierarchical-0:secondary SFSymbolsPreviewFF4500" d="M57.6748 13.6915C84.4872 13.6915 106.662-8.44816 106.662-35.2606C106.662-62.0731 84.4526-84.2128 57.6401-84.2128C30.8346-84.2128 8.72266-62.0731 8.72266-35.2606C8.72266-8.44816 30.8693 13.6915 57.6748 13.6915ZM57.6401-77.8959C81.2595-77.8959 100.31-58.8801 100.31-35.2606C100.31-11.6412 81.2942 7.37462 57.6748 7.37462C34.09 7.37462 15.0811-11.6412 15.0811-35.2606C15.0811-58.8801 34.0554-77.8959 57.6401-77.8959Z"/>
   <path class="monochrome-1 multicolor-1:white hierarchical-1:primary SFSymbolsPreviewFFFFFF" d="M77.4299-63C75.523-63 73.8404-61.8783 73.0552-60.2518L61.6698-62.6635C61.3333-62.7196 60.9968-62.6635 60.7724-62.4952C60.492-62.327 60.3237-62.0465 60.2676-61.71L56.7903-45.3329C49.4991-45.1086 42.9371-42.9212 38.1698-39.5C36.9359-40.6778 35.2533-41.4069 33.4025-41.4069C29.5886-41.4069 26.56-38.3222 26.56-34.5644C26.56-31.7601 28.2426-29.4045 30.5982-28.3389C30.486-27.6659 30.4299-26.9928 30.4299-26.2637C30.4299-15.7196 42.7127-7.13843 57.8559-7.13843C72.9991-7.13843 85.282-15.6635 85.282-26.2637C85.282-26.9368 85.2259-27.6659 85.1137-28.3389C87.4693-29.4045 89.1519-31.8162 89.1519-34.6205C89.1519-38.4344 86.0672-41.463 82.3094-41.463C80.4586-41.463 78.776-40.7339 77.5421-39.5561C72.8309-42.9212 66.381-45.1086 59.202-45.389L62.3428-60.0835L72.5505-57.8962C72.6626-55.3162 74.7939-53.2411 77.4299-53.2411C80.1221-53.2411 82.3094-55.4284 82.3094-58.1205C82.3094-60.8126 80.1221-63 77.4299-63ZM47.0314-34.6205C49.7235-34.6205 51.9108-32.4332 51.9108-29.7411C51.9108-27.0489 49.7235-24.8616 47.0314-24.8616C44.3392-24.8055 42.1519-27.0489 42.1519-29.7411C42.1519-32.4332 44.3392-34.6205 47.0314-34.6205ZM68.5684-34.5644C71.2605-34.5644 73.4478-32.3771 73.4478-29.685C73.4478-27.0489 71.2605-24.8055 68.5684-24.8055C65.8762-24.8055 63.6889-26.9928 63.6889-29.685C63.6889-32.3771 65.8762-34.5644 68.5684-34.5644ZM48.0409-18.58C50.1722-16.4487 54.659-15.7196 57.8559-15.7196C61.0528-15.7196 65.5958-16.4487 67.671-18.58C68.1758-19.0847 68.961-19.0847 69.4657-18.58C69.9144-18.0752 69.9144-17.29 69.4657-16.7852C66.1006-13.42 59.7068-13.1957 57.8559-13.1957C55.949-13.1957 49.5552-13.4761 46.2462-16.7852C45.7414-17.29 45.7414-18.0752 46.2462-18.58C46.7509-19.0847 47.5361-19.0847 48.0409-18.58Z"/>
  </g>
  <g id="Thin-M" transform="matrix(1 0 0 1 799.825 1126)">
   <path class="monochrome-0 multicolor-0:custom hierarchical-0:secondary SFSymbolsPreviewFF4500" d="M56.5885 12.6052C82.8578 12.6052 104.466-8.9913 104.466-35.2606C104.466-61.53 82.8458-83.1265 56.5765-83.1265C30.2689-83.1265 8.72266-61.53 8.72266-35.2606C8.72266-8.9913 30.2809 12.6052 56.5885 12.6052ZM56.5765-79.3895C80.9653-79.3895 100.717-59.6495 100.717-35.2606C100.717-10.8718 80.9773 8.86824 56.5885 8.86824C32.2117 8.86824 12.4333-10.8718 12.4333-35.2606C12.4333-59.6495 32.1996-79.3895 56.5765-79.3895Z"/>
   <path class="monochrome-1 multicolor-1:white hierarchical-1:primary SFSymbolsPreviewFFFFFF" d="M76.0419-63C74.135-63 72.4524-61.8783 71.6672-60.2518L60.2818-62.6635C59.9453-62.7196 59.6088-62.6635 59.3844-62.4952C59.104-62.327 58.9357-62.0465 58.8796-61.71L55.4023-45.3329C48.1111-45.1086 41.5491-42.9212 36.7818-39.5C35.5479-40.6778 33.8653-41.4069 32.0145-41.4069C28.2006-41.4069 25.172-38.3222 25.172-34.5644C25.172-31.7601 26.8546-29.4045 29.2102-28.3389C29.098-27.6659 29.0419-26.9928 29.0419-26.2637C29.0419-15.7196 41.3247-7.13843 56.4679-7.13843C71.6111-7.13843 83.894-15.6635 83.894-26.2637C83.894-26.9368 83.8379-27.6659 83.7257-28.3389C86.0813-29.4045 87.7639-31.8162 87.7639-34.6205C87.7639-38.4344 84.6792-41.463 80.9214-41.463C79.0706-41.463 77.388-40.7339 76.1541-39.5561C71.4429-42.9212 64.993-45.1086 57.814-45.389L60.9548-60.0835L71.1625-57.8962C71.2746-55.3162 73.4059-53.2411 76.0419-53.2411C78.7341-53.2411 80.9214-55.4284 80.9214-58.1205C80.9214-60.8126 78.7341-63 76.0419-63ZM45.6434-34.6205C48.3355-34.6205 50.5228-32.4332 50.5228-29.7411C50.5228-27.0489 48.3355-24.8616 45.6434-24.8616C42.9512-24.8055 40.7639-27.0489 40.7639-29.7411C40.7639-32.4332 42.9512-34.6205 45.6434-34.6205ZM67.1804-34.5644C69.8725-34.5644 72.0598-32.3771 72.0598-29.685C72.0598-27.0489 69.8725-24.8055 67.1804-24.8055C64.4882-24.8055 62.3009-26.9928 62.3009-29.685C62.3009-32.3771 64.4882-34.5644 67.1804-34.5644ZM46.6529-18.58C48.7842-16.4487 53.271-15.7196 56.4679-15.7196C59.6648-15.7196 64.2078-16.4487 66.283-18.58C66.7878-19.0847 67.573-19.0847 68.0777-18.58C68.5264-18.0752 68.5264-17.29 68.0777-16.7852C64.7874-13.4948 58.6014-13.2072 56.598-13.1961L56.4679-13.1957C54.561-13.1957 48.1672-13.4761 44.8582-16.7852C44.3534-17.29 44.3534-18.0752 44.8582-18.58C45.3629-19.0847 46.1481-19.0847 46.6529-18.58Z"/>
  </g>
  <g id="Ultralight-M" transform="matrix(1 0 0 1 503.676 1126)">
   <path class="monochrome-0 multicolor-0:custom hierarchical-0:secondary SFSymbolsPreviewFF4500" d="M56.0321 12.0488C82.0233 12.0488 103.342-9.26949 103.342-35.2606C103.342-61.2518 82.0228-82.5701 56.0317-82.5701C29.9791-82.5701 8.72266-61.2518 8.72266-35.2606C8.72266-9.26949 29.9795 12.0488 56.0321 12.0488ZM56.0317-80.1545C80.8147-80.1545 100.926-60.0436 100.926-35.2606C100.926-10.4777 80.8151 9.63326 56.0321 9.63326C31.2496 9.63326 11.0772-10.4777 11.0772-35.2606C11.0772-60.0436 31.2492-80.1545 56.0317-80.1545Z"/>
   <path class="monochrome-1 multicolor-1:white hierarchical-1:primary SFSymbolsPreviewFFFFFF" d="M75.1909-63C73.284-63 71.6014-61.8783 70.8162-60.2518L59.4308-62.6635C59.0943-62.7196 58.7578-62.6635 58.5334-62.4952C58.253-62.327 58.0847-62.0465 58.0286-61.71L54.5513-45.3329C47.2601-45.1086 40.6981-42.9212 35.9308-39.5C34.6969-40.6778 33.0143-41.4069 31.1635-41.4069C27.3496-41.4069 24.321-38.3222 24.321-34.5644C24.321-31.7601 26.0036-29.4045 28.3592-28.3389C28.247-27.6659 28.1909-26.9928 28.1909-26.2637C28.1909-15.7196 40.4737-7.13843 55.6169-7.13843C70.7601-7.13843 83.043-15.6635 83.043-26.2637C83.043-26.9368 82.9869-27.6659 82.8747-28.3389C85.2303-29.4045 86.9129-31.8162 86.9129-34.6205C86.9129-38.4344 83.8282-41.463 80.0704-41.463C78.2196-41.463 76.537-40.7339 75.3031-39.5561C70.5919-42.9212 64.142-45.1086 56.963-45.389L60.1038-60.0835L70.3115-57.8962C70.4236-55.3162 72.5549-53.2411 75.1909-53.2411C77.8831-53.2411 80.0704-55.4284 80.0704-58.1205C80.0704-60.8126 77.8831-63 75.1909-63ZM44.7924-34.6205C47.4845-34.6205 49.6718-32.4332 49.6718-29.7411C49.6718-27.0489 47.4845-24.8616 44.7924-24.8616C42.1002-24.8055 39.9129-27.0489 39.9129-29.7411C39.9129-32.4332 42.1002-34.6205 44.7924-34.6205ZM66.3294-34.5644C69.0215-34.5644 71.2088-32.3771 71.2088-29.685C71.2088-27.0489 69.0215-24.8055 66.3294-24.8055C63.6372-24.8055 61.4499-26.9928 61.4499-29.685C61.4499-32.3771 63.6372-34.5644 66.3294-34.5644ZM45.8019-18.58C47.9332-16.4487 52.42-15.7196 55.6169-15.7196C58.8138-15.7196 63.3568-16.4487 65.432-18.58C65.9368-19.0847 66.722-19.0847 67.2267-18.58C67.6754-18.0752 67.6754-17.29 67.2267-16.7852C63.8616-13.42 57.4678-13.1957 55.6169-13.1957C53.71-13.1957 47.3162-13.4761 44.0072-16.7852C43.5024-17.29 43.5024-18.0752 44.0072-18.58C44.5119-19.0847 45.2971-19.0847 45.8019-18.58Z"/>
  </g>
  <g id="Black-S" transform="matrix(1 0 0 1 2882.68 696)">
   <path class="monochrome-0 multicolor-0:custom hierarchical-0:secondary SFSymbolsPreviewFF4500" d="M50.7148 6.78711C73.8594 6.78711 92.707-12.0605 92.707-35.2051C92.707-58.3496 73.8594-77.1973 50.7148-77.1973C27.5703-77.1973 8.72266-58.3496 8.72266-35.2051C8.72266-12.0605 27.5703 6.78711 50.7148 6.78711ZM50.7148-63.0371C66.0957-63.0371 78.5469-50.5859 78.5469-35.2051C78.5469-19.8242 66.0957-7.37305 50.7148-7.37305C35.334-7.37305 22.8828-19.8242 22.8828-35.2051C22.8828-50.5859 35.334-63.0371 50.7148-63.0371Z"/>
   <path class="monochrome-1 multicolor-1:white hierarchical-1:primary SFSymbolsPreviewFFFFFF" d="M66.3633-57C64.8621-57 63.5375-56.1169 62.9193-54.8365L53.9563-56.7351C53.6914-56.7792 53.4265-56.7351 53.2499-56.6026C53.0291-56.4702 52.8967-56.2494 52.8525-55.9845L50.115-43.0919C44.3752-42.9153 39.2093-41.1933 35.4563-38.5C34.485-39.4272 33.1604-40.0012 31.7034-40.0012C28.701-40.0012 26.3167-37.5728 26.3167-34.6146C26.3167-32.4069 27.6413-30.5525 29.4957-29.7136C29.4074-29.1838 29.3633-28.6539 29.3633-28.08C29.3633-19.7792 39.0327-13.0239 50.954-13.0239C62.8752-13.0239 72.5446-19.7351 72.5446-28.08C72.5446-28.6098 72.5005-29.1838 72.4122-29.7136C74.2666-30.5525 75.5912-32.4511 75.5912-34.6587C75.5912-37.6611 73.1628-40.0453 70.2045-40.0453C68.7475-40.0453 67.4229-39.4714 66.4516-38.5442C62.7427-41.1933 57.6652-42.9153 52.0136-43.136L54.4862-54.7041L62.522-52.9821C62.6103-50.9511 64.2881-49.3174 66.3633-49.3174C68.4826-49.3174 70.2045-51.0394 70.2045-53.1587C70.2045-55.278 68.4826-57 66.3633-57ZM42.4325-34.6587C44.5518-34.6587 46.2738-32.9368 46.2738-30.8174C46.2738-28.6981 44.5518-26.9761 42.4325-26.9761C40.3131-26.932 38.5912-28.6981 38.5912-30.8174C38.5912-32.9368 40.3131-34.6587 42.4325-34.6587ZM59.3871-34.6146C61.5065-34.6146 63.2284-32.8926 63.2284-30.7733C63.2284-28.6981 61.5065-26.932 59.3871-26.932C57.2678-26.932 55.5458-28.6539 55.5458-30.7733C55.5458-32.8926 57.2678-34.6146 59.3871-34.6146ZM43.2272-22.031C44.905-20.3532 48.4372-19.7792 50.954-19.7792C53.4707-19.7792 57.047-20.3532 58.6807-22.031C59.0781-22.4284 59.6962-22.4284 60.0936-22.031C60.4468-21.6337 60.4468-21.0155 60.0936-20.6181C57.5141-18.0387 52.6743-17.8034 51.0763-17.7928L50.954-17.7924C49.4528-17.7924 44.4193-18.0131 41.8143-20.6181C41.417-21.0155 41.417-21.6337 41.8143-22.031C42.2117-22.4284 42.8298-22.4284 43.2272-22.031Z"/>
  </g>
  <g id="Heavy-S" transform="matrix(1 0 0 1 2586.58 696)">
   <path class="monochrome-0 multicolor-0:custom hierarchical-0:secondary SFSymbolsPreviewFF4500" d="M50.104 6.16479C72.8683 6.16479 91.4969-12.4524 91.4969-35.2166C91.4969-57.9808 72.8567-76.598 50.0925-76.598C27.3398-76.598 8.72266-57.9808 8.72266-35.2166C8.72266-12.4524 27.3513 6.16479 50.104 6.16479ZM50.0925-64.0282C66.0381-64.0282 78.9156-51.1622 78.9156-35.2166C78.9156-19.271 66.0496-6.40499 50.104-6.40499C34.17-6.40499 21.3155-19.271 21.3155-35.2166C21.3155-51.1622 34.1585-64.0282 50.0925-64.0282Z"/>
   <path class="monochrome-1 multicolor-1:white hierarchical-1:primary SFSymbolsPreviewFFFFFF" d="M65.4633-57C63.9621-57 62.6375-56.1169 62.0193-54.8365L53.0563-56.7351C52.7914-56.7792 52.5265-56.7351 52.3499-56.6026C52.1291-56.4702 51.9967-56.2494 51.9525-55.9845L49.215-43.0919C43.4752-42.9153 38.3093-41.1933 34.5563-38.5C33.585-39.4272 32.2604-40.0012 30.8034-40.0012C27.801-40.0012 25.4167-37.5728 25.4167-34.6146C25.4167-32.4069 26.7413-30.5525 28.5957-29.7136C28.5074-29.1838 28.4633-28.6539 28.4633-28.08C28.4633-19.7792 38.1327-13.0239 50.054-13.0239C61.9752-13.0239 71.6446-19.7351 71.6446-28.08C71.6446-28.6098 71.6005-29.1838 71.5122-29.7136C73.3666-30.5525 74.6912-32.4511 74.6912-34.6587C74.6912-37.6611 72.2628-40.0453 69.3045-40.0453C67.8475-40.0453 66.5229-39.4714 65.5516-38.5442C61.8427-41.1933 56.7652-42.9153 51.1136-43.136L53.5862-54.7041L61.622-52.9821C61.7103-50.9511 63.3881-49.3174 65.4633-49.3174C67.5826-49.3174 69.3045-51.0394 69.3045-53.1587C69.3045-55.278 67.5826-57 65.4633-57ZM41.5325-34.6587C43.6518-34.6587 45.3738-32.9368 45.3738-30.8174C45.3738-28.6981 43.6518-26.9761 41.5325-26.9761C39.4131-26.932 37.6912-28.6981 37.6912-30.8174C37.6912-32.9368 39.4131-34.6587 41.5325-34.6587ZM58.4871-34.6146C60.6065-34.6146 62.3284-32.8926 62.3284-30.7733C62.3284-28.6981 60.6065-26.932 58.4871-26.932C56.3678-26.932 54.6458-28.6539 54.6458-30.7733C54.6458-32.8926 56.3678-34.6146 58.4871-34.6146ZM42.3272-22.031C44.005-20.3532 47.5372-19.7792 50.054-19.7792C52.5707-19.7792 56.147-20.3532 57.7807-22.031C58.1781-22.4284 58.7962-22.4284 59.1936-22.031C59.5468-21.6337 59.5468-21.0155 59.1936-20.6181C56.6141-18.0387 51.7743-17.8034 50.1763-17.7928L50.054-17.7924C48.5528-17.7924 43.5193-18.0131 40.9143-20.6181C40.517-21.0155 40.517-21.6337 40.9143-22.031C41.3117-22.4284 41.9298-22.4284 42.3272-22.031Z"/>
  </g>
  <g id="Bold-S" transform="matrix(1 0 0 1 2290.54 696)">
   <path class="monochrome-0 multicolor-0:custom hierarchical-0:secondary SFSymbolsPreviewFF4500" d="M49.4209 5.46875C71.7597 5.46875 90.1435-12.8906 90.1435-35.2295C90.1435-57.5684 71.7353-75.9277 49.3965-75.9277C27.082-75.9277 8.72266-57.5684 8.72266-35.2295C8.72266-12.8906 27.1064 5.46875 49.4209 5.46875ZM49.3965-65.1367C65.9736-65.1367 79.3281-51.8066 79.3281-35.2295C79.3281-18.6523 65.998-5.32227 49.4209-5.32227C32.8681-5.32227 19.5625-18.6523 19.5625-35.2295C19.5625-51.8066 32.8437-65.1367 49.3965-65.1367Z"/>
   <path class="monochrome-1 multicolor-1:white hierarchical-1:primary SFSymbolsPreviewFFFFFF" d="M64.5033-57C63.0021-57 61.6775-56.1169 61.0593-54.8365L52.0963-56.7351C51.8314-56.7792 51.5665-56.7351 51.3899-56.6026C51.1691-56.4702 51.0367-56.2494 50.9925-55.9845L48.255-43.0919C42.5152-42.9153 37.3493-41.1933 33.5963-38.5C32.625-39.4272 31.3004-40.0012 29.8434-40.0012C26.841-40.0012 24.4567-37.5728 24.4567-34.6146C24.4567-32.4069 25.7813-30.5525 27.6357-29.7136C27.5474-29.1838 27.5033-28.6539 27.5033-28.08C27.5033-19.7792 37.1727-13.0239 49.094-13.0239C61.0152-13.0239 70.6846-19.7351 70.6846-28.08C70.6846-28.6098 70.6405-29.1838 70.5522-29.7136C72.4066-30.5525 73.7312-32.4511 73.7312-34.6587C73.7312-37.6611 71.3028-40.0453 68.3445-40.0453C66.8875-40.0453 65.5629-39.4714 64.5916-38.5442C60.8827-41.1933 55.8052-42.9153 50.1536-43.136L52.6262-54.7041L60.662-52.9821C60.7503-50.9511 62.4281-49.3174 64.5033-49.3174C66.6226-49.3174 68.3445-51.0394 68.3445-53.1587C68.3445-55.278 66.6226-57 64.5033-57ZM40.5725-34.6587C42.6918-34.6587 44.4138-32.9368 44.4138-30.8174C44.4138-28.6981 42.6918-26.9761 40.5725-26.9761C38.4531-26.932 36.7312-28.6981 36.7312-30.8174C36.7312-32.9368 38.4531-34.6587 40.5725-34.6587ZM57.5271-34.6146C59.6465-34.6146 61.3684-32.8926 61.3684-30.7733C61.3684-28.6981 59.6465-26.932 57.5271-26.932C55.4078-26.932 53.6858-28.6539 53.6858-30.7733C53.6858-32.8926 55.4078-34.6146 57.5271-34.6146ZM41.3672-22.031C43.045-20.3532 46.5772-19.7792 49.094-19.7792C51.6107-19.7792 55.187-20.3532 56.8207-22.031C57.2181-22.4284 57.8362-22.4284 58.2336-22.031C58.5868-21.6337 58.5868-21.0155 58.2336-20.6181C55.5844-17.969 50.551-17.7924 49.094-17.7924C47.5928-17.7924 42.5593-18.0131 39.9543-20.6181C39.557-21.0155 39.557-21.6337 39.9543-22.031C40.3517-22.4284 40.9698-22.4284 41.3672-22.031Z"/>
  </g>
  <g id="Semibold-S" transform="matrix(1 0 0 1 1994.3 696)">
   <path class="monochrome-0 multicolor-0:custom hierarchical-0:secondary SFSymbolsPreviewFF4500" d="M48.9499 4.98887C70.9955 4.98887 89.2104-13.1928 89.2104-35.2384C89.2104-57.284 70.9622-75.4656 48.9166-75.4656C26.9043-75.4656 8.72266-57.284 8.72266-35.2384C8.72266-13.1928 26.9376 4.98887 48.9499 4.98887ZM48.9166-65.901C65.9292-65.901 79.6125-52.251 79.6125-35.2384C79.6125-18.2258 65.9625-4.57578 48.9499-4.57578C31.9706-4.57578 18.3539-18.2258 18.3539-35.2384C18.3539-52.251 31.9373-65.901 48.9166-65.901Z"/>
   <path class="monochrome-1 multicolor-1:white hierarchical-1:primary SFSymbolsPreviewFFFFFF" d="M64.7433-57C63.2421-57 61.9175-56.1169 61.2993-54.8365L52.3363-56.7351C52.0714-56.7792 51.8065-56.7351 51.6299-56.6026C51.4091-56.4702 51.2767-56.2494 51.2325-55.9845L48.495-43.0919C42.7552-42.9153 37.5893-41.1933 33.8363-38.5C32.865-39.4272 31.5404-40.0012 30.0834-40.0012C27.081-40.0012 24.6967-37.5728 24.6967-34.6146C24.6967-32.4069 26.0213-30.5525 27.8757-29.7136C27.7874-29.1838 27.7433-28.6539 27.7433-28.08C27.7433-19.7792 37.4127-13.0239 49.334-13.0239C61.2552-13.0239 70.9246-19.7351 70.9246-28.08C70.9246-28.6098 70.8805-29.1838 70.7922-29.7136C72.6466-30.5525 73.9712-32.4511 73.9712-34.6587C73.9712-37.6611 71.5428-40.0453 68.5845-40.0453C67.1275-40.0453 65.8029-39.4714 64.8316-38.5442C61.1227-41.1933 56.0452-42.9153 50.3936-43.136L52.8662-54.7041L60.902-52.9821C60.9903-50.9511 62.6681-49.3174 64.7433-49.3174C66.8626-49.3174 68.5845-51.0394 68.5845-53.1587C68.5845-55.278 66.8626-57 64.7433-57ZM40.8125-34.6587C42.9318-34.6587 44.6538-32.9368 44.6538-30.8174C44.6538-28.6981 42.9318-26.9761 40.8125-26.9761C38.6931-26.932 36.9712-28.6981 36.9712-30.8174C36.9712-32.9368 38.6931-34.6587 40.8125-34.6587ZM57.7671-34.6146C59.8865-34.6146 61.6084-32.8926 61.6084-30.7733C61.6084-28.6981 59.8865-26.932 57.7671-26.932C55.6478-26.932 53.9258-28.6539 53.9258-30.7733C53.9258-32.8926 55.6478-34.6146 57.7671-34.6146ZM41.6072-22.031C43.285-20.3532 46.8172-19.7792 49.334-19.7792C51.8507-19.7792 55.427-20.3532 57.0607-22.031C57.4581-22.4284 58.0762-22.4284 58.4736-22.031C58.8268-21.6337 58.8268-21.0155 58.4736-20.6181C55.8244-17.969 50.791-17.7924 49.334-17.7924C47.8328-17.7924 42.7993-18.0131 40.1943-20.6181C39.797-21.0155 39.797-21.6337 40.1943-22.031C40.5917-22.4284 41.2098-22.4284 41.6072-22.031Z"/>
  </g>
  <g id="Medium-S" transform="matrix(1 0 0 1 1697.94 696)">
   <path class="monochrome-0 multicolor-0:custom hierarchical-0:secondary SFSymbolsPreviewFF4500" d="M48.5928 4.625C70.416 4.625 88.5029-13.4219 88.5029-35.2451C88.5029-57.0684 70.376-75.1152 48.5527-75.1152C26.7695-75.1152 8.72266-57.0684 8.72266-35.2451C8.72266-13.4219 26.8096 4.625 48.5928 4.625ZM48.5527-66.4805C65.8955-66.4805 79.8281-52.5879 79.8281-35.2451C79.8281-17.9023 65.9355-4.00977 48.5928-4.00977C31.29-4.00977 17.4375-17.9023 17.4375-35.2451C17.4375-52.5879 31.25-66.4805 48.5527-66.4805Z"/>
   <path class="monochrome-1 multicolor-1:white hierarchical-1:primary SFSymbolsPreviewFFFFFF" d="M64.1033-57C62.6021-57 61.2775-56.1169 60.6593-54.8365L51.6963-56.7351C51.4314-56.7792 51.1665-56.7351 50.9899-56.6026C50.7691-56.4702 50.6367-56.2494 50.5925-55.9845L47.855-43.0919C42.1152-42.9153 36.9493-41.1933 33.1963-38.5C32.225-39.4272 30.9004-40.0012 29.4434-40.0012C26.441-40.0012 24.0567-37.5728 24.0567-34.6146C24.0567-32.4069 25.3813-30.5525 27.2357-29.7136C27.1474-29.1838 27.1033-28.6539 27.1033-28.08C27.1033-19.7792 36.7727-13.0239 48.694-13.0239C60.6152-13.0239 70.2846-19.7351 70.2846-28.08C70.2846-28.6098 70.2405-29.1838 70.1522-29.7136C72.0066-30.5525 73.3312-32.4511 73.3312-34.6587C73.3312-37.6611 70.9028-40.0453 67.9445-40.0453C66.4875-40.0453 65.1629-39.4714 64.1916-38.5442C60.4827-41.1933 55.4052-42.9153 49.7536-43.136L52.2262-54.7041L60.262-52.9821C60.3503-50.9511 62.0281-49.3174 64.1033-49.3174C66.2226-49.3174 67.9445-51.0394 67.9445-53.1587C67.9445-55.278 66.2226-57 64.1033-57ZM40.1725-34.6587C42.2918-34.6587 44.0138-32.9368 44.0138-30.8174C44.0138-28.6981 42.2918-26.9761 40.1725-26.9761C38.0531-26.932 36.3312-28.6981 36.3312-30.8174C36.3312-32.9368 38.0531-34.6587 40.1725-34.6587ZM57.1271-34.6146C59.2465-34.6146 60.9684-32.8926 60.9684-30.7733C60.9684-28.6981 59.2465-26.932 57.1271-26.932C55.0078-26.932 53.2858-28.6539 53.2858-30.7733C53.2858-32.8926 55.0078-34.6146 57.1271-34.6146ZM40.9672-22.031C42.645-20.3532 46.1772-19.7792 48.694-19.7792C51.2107-19.7792 54.787-20.3532 56.4207-22.031C56.8181-22.4284 57.4362-22.4284 57.8336-22.031C58.1868-21.6337 58.1868-21.0155 57.8336-20.6181C55.2541-18.0387 50.4143-17.8034 48.8163-17.7928L48.694-17.7924C47.1928-17.7924 42.1593-18.0131 39.5543-20.6181C39.157-21.0155 39.157-21.6337 39.5543-22.031C39.9517-22.4284 40.5698-22.4284 40.9672-22.031Z"/>
  </g>
  <g id="Regular-S" transform="matrix(1 0 0 1 1401.69 696)">
   <path class="monochrome-0 multicolor-0:custom hierarchical-0:secondary SFSymbolsPreviewFF4500" d="M48.1269 4.15039C69.6601 4.15039 87.5801-13.7207 87.5801-35.2539C87.5801-56.7871 69.6113-74.6582 48.0781-74.6582C26.5937-74.6582 8.72266-56.7871 8.72266-35.2539C8.72266-13.7207 26.6426 4.15039 48.1269 4.15039ZM48.0781-67.2363C65.8515-67.2363 80.1094-53.0273 80.1094-35.2539C80.1094-17.4805 65.9004-3.27148 48.1269-3.27148C30.4023-3.27148 16.2422-17.4805 16.2422-35.2539C16.2422-53.0273 30.3535-67.2363 48.0781-67.2363Z"/>
   <path class="monochrome-1 multicolor-1:white hierarchical-1:primary SFSymbolsPreviewFFFFFF" d="M63.3533-57C61.8521-57 60.5275-56.1169 59.9093-54.8365L50.9463-56.7351C50.6814-56.7792 50.4165-56.7351 50.2399-56.6026C50.0191-56.4702 49.8867-56.2494 49.8425-55.9845L47.105-43.0919C41.3652-42.9153 36.1993-41.1933 32.4463-38.5C31.475-39.4272 30.1504-40.0012 28.6934-40.0012C25.691-40.0012 23.3067-37.5728 23.3067-34.6146C23.3067-32.4069 24.6313-30.5525 26.4857-29.7136C26.3974-29.1838 26.3533-28.6539 26.3533-28.08C26.3533-19.7792 36.0227-13.0239 47.944-13.0239C59.8652-13.0239 69.5346-19.7351 69.5346-28.08C69.5346-28.6098 69.4905-29.1838 69.4022-29.7136C71.2566-30.5525 72.5812-32.4511 72.5812-34.6587C72.5812-37.6611 70.1528-40.0453 67.1945-40.0453C65.7375-40.0453 64.4129-39.4714 63.4416-38.5442C59.7327-41.1933 54.6552-42.9153 49.0036-43.136L51.4762-54.7041L59.512-52.9821C59.6003-50.9511 61.2781-49.3174 63.3533-49.3174C65.4726-49.3174 67.1945-51.0394 67.1945-53.1587C67.1945-55.278 65.4726-57 63.3533-57ZM39.4225-34.6587C41.5418-34.6587 43.2638-32.9368 43.2638-30.8174C43.2638-28.6981 41.5418-26.9761 39.4225-26.9761C37.3031-26.932 35.5812-28.6981 35.5812-30.8174C35.5812-32.9368 37.3031-34.6587 39.4225-34.6587ZM56.3771-34.6146C58.4965-34.6146 60.2184-32.8926 60.2184-30.7733C60.2184-28.6981 58.4965-26.932 56.3771-26.932C54.2578-26.932 52.5358-28.6539 52.5358-30.7733C52.5358-32.8926 54.2578-34.6146 56.3771-34.6146ZM40.2172-22.031C41.895-20.3532 45.4272-19.7792 47.944-19.7792C50.4607-19.7792 54.037-20.3532 55.6707-22.031C56.0681-22.4284 56.6862-22.4284 57.0836-22.031C57.4368-21.6337 57.4368-21.0155 57.0836-20.6181C54.5041-18.0387 49.6643-17.8034 48.0663-17.7928L47.944-17.7924C46.4428-17.7924 41.4093-18.0131 38.8043-20.6181C38.407-21.0155 38.407-21.6337 38.8043-22.031C39.2017-22.4284 39.8198-22.4284 40.2172-22.031Z"/>
  </g>
  <g id="Light-S" transform="matrix(1 0 0 1 1105.71 696)">
   <path class="monochrome-0 multicolor-0:custom hierarchical-0:secondary SFSymbolsPreviewFF4500" d="M47.4004 3.42383C68.5703 3.42383 86.1118-14.084 86.1118-35.2539C86.1118-56.4238 68.5366-73.9316 47.3667-73.9316C26.2153-73.9316 8.72266-56.4238 8.72266-35.2539C8.72266-14.084 26.249 3.42383 47.4004 3.42383ZM47.3667-68.2353C65.6548-68.2353 80.3818-53.542 80.3818-35.2539C80.3818-16.9658 65.6885-2.27247 47.4004-2.27247C29.146-2.27247 14.4712-16.9658 14.4712-35.2539C14.4712-53.542 29.1123-68.2353 47.3667-68.2353Z"/>
   <path class="monochrome-1 multicolor-1:white hierarchical-1:primary SFSymbolsPreviewFFFFFF" d="M63.3333-57C61.8321-57 60.5075-56.1169 59.8893-54.8365L50.9263-56.7351C50.6614-56.7792 50.3965-56.7351 50.2199-56.6026C49.9991-56.4702 49.8667-56.2494 49.8225-55.9845L47.085-43.0919C41.3452-42.9153 36.1793-41.1933 32.4263-38.5C31.455-39.4272 30.1304-40.0012 28.6734-40.0012C25.671-40.0012 23.2867-37.5728 23.2867-34.6146C23.2867-32.4069 24.6113-30.5525 26.4657-29.7136C26.3774-29.1838 26.3333-28.6539 26.3333-28.08C26.3333-19.7792 36.0027-13.0239 47.924-13.0239C59.8452-13.0239 69.5146-19.7351 69.5146-28.08C69.5146-28.6098 69.4705-29.1838 69.3822-29.7136C71.2366-30.5525 72.5612-32.4511 72.5612-34.6587C72.5612-37.6611 70.1328-40.0453 67.1745-40.0453C65.7175-40.0453 64.3929-39.4714 63.4216-38.5442C59.7127-41.1933 54.6352-42.9153 48.9836-43.136L51.4562-54.7041L59.492-52.9821C59.5803-50.9511 61.2581-49.3174 63.3333-49.3174C65.4526-49.3174 67.1745-51.0394 67.1745-53.1587C67.1745-55.278 65.4526-57 63.3333-57ZM39.4025-34.6587C41.5218-34.6587 43.2438-32.9368 43.2438-30.8174C43.2438-28.6981 41.5218-26.9761 39.4025-26.9761C37.2831-26.932 35.5612-28.6981 35.5612-30.8174C35.5612-32.9368 37.2831-34.6587 39.4025-34.6587ZM56.3571-34.6146C58.4765-34.6146 60.1984-32.8926 60.1984-30.7733C60.1984-28.6981 58.4765-26.932 56.3571-26.932C54.2378-26.932 52.5158-28.6539 52.5158-30.7733C52.5158-32.8926 54.2378-34.6146 56.3571-34.6146ZM40.1972-22.031C41.875-20.3532 45.4072-19.7792 47.924-19.7792C50.4407-19.7792 54.017-20.3532 55.6507-22.031C56.0481-22.4284 56.6662-22.4284 57.0636-22.031C57.4168-21.6337 57.4168-21.0155 57.0636-20.6181C54.4144-17.969 49.381-17.7924 47.924-17.7924C46.4228-17.7924 41.3893-18.0131 38.7843-20.6181C38.387-21.0155 38.387-21.6337 38.7843-22.031C39.1817-22.4284 39.7998-22.4284 40.1972-22.031Z"/>
  </g>
  <g id="Thin-S" transform="matrix(1 0 0 1 809.973 696)">
   <path class="monochrome-0 multicolor-0:custom hierarchical-0:secondary SFSymbolsPreviewFF4500" d="M46.4394 2.4629C67.1289 2.4629 84.1699-14.5644 84.1699-35.2539C84.1699-55.9434 67.1152-72.9707 46.4258-72.9707C25.7148-72.9707 8.72266-55.9434 8.72266-35.2539C8.72266-14.5644 25.7285 2.4629 46.4394 2.4629ZM46.4258-69.5566C65.3945-69.5566 80.7422-54.2226 80.7422-35.2539C80.7422-16.2852 65.4082-0.95119 46.4394-0.95119C27.4844-0.95119 12.1289-16.2852 12.1289-35.2539C12.1289-54.2226 27.4707-69.5566 46.4258-69.5566Z"/>
   <path class="monochrome-1 multicolor-1:white hierarchical-1:primary SFSymbolsPreviewFFFFFF" d="M62.0703-57C60.5691-57 59.2445-56.1169 58.6263-54.8365L49.6633-56.7351C49.3984-56.7792 49.1335-56.7351 48.9569-56.6026C48.7361-56.4702 48.6037-56.2494 48.5595-55.9845L45.822-43.0919C40.0822-42.9153 34.9163-41.1933 31.1633-38.5C30.192-39.4272 28.8674-40.0012 27.4104-40.0012C24.408-40.0012 22.0237-37.5728 22.0237-34.6146C22.0237-32.4069 23.3483-30.5525 25.2027-29.7136C25.1144-29.1838 25.0703-28.6539 25.0703-28.08C25.0703-19.7792 34.7397-13.0239 46.661-13.0239C58.5822-13.0239 68.2516-19.7351 68.2516-28.08C68.2516-28.6098 68.2075-29.1838 68.1192-29.7136C69.9736-30.5525 71.2982-32.4511 71.2982-34.6587C71.2982-37.6611 68.8698-40.0453 65.9115-40.0453C64.4545-40.0453 63.1299-39.4714 62.1586-38.5442C58.4497-41.1933 53.3722-42.9153 47.7206-43.136L50.1932-54.7041L58.229-52.9821C58.3173-50.9511 59.9951-49.3174 62.0703-49.3174C64.1896-49.3174 65.9115-51.0394 65.9115-53.1587C65.9115-55.278 64.1896-57 62.0703-57ZM38.1395-34.6587C40.2588-34.6587 41.9808-32.9368 41.9808-30.8174C41.9808-28.6981 40.2588-26.9761 38.1395-26.9761C36.0201-26.932 34.2982-28.6981 34.2982-30.8174C34.2982-32.9368 36.0201-34.6587 38.1395-34.6587ZM55.0941-34.6146C57.2135-34.6146 58.9354-32.8926 58.9354-30.7733C58.9354-28.6981 57.2135-26.932 55.0941-26.932C52.9748-26.932 51.2528-28.6539 51.2528-30.7733C51.2528-32.8926 52.9748-34.6146 55.0941-34.6146ZM38.9342-22.031C40.612-20.3532 44.1442-19.7792 46.661-19.7792C49.1777-19.7792 52.754-20.3532 54.3877-22.031C54.7851-22.4284 55.4032-22.4284 55.8006-22.031C56.1538-21.6337 56.1538-21.0155 55.8006-20.6181C53.1514-17.969 48.118-17.7924 46.661-17.7924C45.1598-17.7924 40.1263-18.0131 37.5213-20.6181C37.124-21.0155 37.124-21.6337 37.5213-22.031C37.9187-22.4284 38.5368-22.4284 38.9342-22.031Z"/>
  </g>
  <g id="Ultralight-S" transform="matrix(1 0 0 1 513.759 696)">
   <path class="monochrome-0 multicolor-0:custom hierarchical-0:secondary SFSymbolsPreviewFF4500" d="M45.9473 1.97072C66.3906 1.97072 83.1753-14.8105 83.1753-35.2539C83.1753-55.6973 66.3872-72.4785 45.9438-72.4785C25.4585-72.4785 8.72266-55.6973 8.72266-35.2539C8.72266-14.8105 25.4619 1.97072 45.9473 1.97072ZM45.9438-70.2334C65.2612-70.2334 80.9267-54.5713 80.9267-35.2539C80.9267-15.9365 65.2646-0.274438 45.9473-0.274438C26.6333-0.274438 10.9292-15.9365 10.9292-35.2539C10.9292-54.5713 26.6299-70.2334 45.9438-70.2334Z"/>
   <path class="monochrome-1 multicolor-1:white hierarchical-1:primary SFSymbolsPreviewFFFFFF" d="M61.6912-57.3413C60.19-57.3413 58.8654-56.4582 58.2473-55.1778L49.2843-57.0764C49.0193-57.1205 48.7544-57.0764 48.5778-56.9439C48.3571-56.8115 48.2246-56.5907 48.1804-56.3258L45.443-43.4332C39.7031-43.2566 34.5372-41.5346 30.7843-38.8413C29.8129-39.7685 28.4883-40.3425 27.0313-40.3425C24.0289-40.3425 21.6446-37.9141 21.6446-34.9558C21.6446-32.7482 22.9692-30.8938 24.8236-30.0549C24.7353-29.5251 24.6912-28.9952 24.6912-28.4212C24.6912-20.1205 34.3606-13.3652 46.2819-13.3652C58.2031-13.3652 67.8726-20.0764 67.8726-28.4212C67.8726-28.9511 67.8284-29.5251 67.7401-30.0549C69.5945-30.8938 70.9191-32.7924 70.9191-35C70.9191-38.0024 68.4907-40.3866 65.5325-40.3866C64.0754-40.3866 62.7508-39.8126 61.7795-38.8854C58.0707-41.5346 52.9931-43.2566 47.3415-43.4773L49.8141-55.0453L57.8499-53.3234C57.9382-51.2924 59.616-49.6587 61.6912-49.6587C63.8105-49.6587 65.5325-51.3807 65.5325-53.5C65.5325-55.6193 63.8105-57.3413 61.6912-57.3413ZM37.7604-35C39.8797-35 41.6017-33.278 41.6017-31.1587C41.6017-29.0394 39.8797-27.3174 37.7604-27.3174C35.6411-27.2733 33.9191-29.0394 33.9191-31.1587C33.9191-33.278 35.6411-35 37.7604-35ZM54.715-34.9558C56.8344-34.9558 58.5563-33.2339 58.5563-31.1146C58.5563-29.0394 56.8344-27.2733 54.715-27.2733C52.5957-27.2733 50.8738-28.9952 50.8738-31.1146C50.8738-33.2339 52.5957-34.9558 54.715-34.9558ZM38.5551-22.3723C40.2329-20.6945 43.7652-20.1205 46.2819-20.1205C48.7986-20.1205 52.375-20.6945 54.0086-22.3723C54.406-22.7697 55.0241-22.7697 55.4215-22.3723C55.7747-21.9749 55.7747-21.3568 55.4215-20.9594C52.842-18.38 48.0022-18.1447 46.4042-18.1341L46.2819-18.1337C44.7807-18.1337 39.7473-18.3544 37.1423-20.9594C36.7449-21.3568 36.7449-21.9749 37.1423-22.3723C37.5396-22.7697 38.1578-22.7697 38.5551-22.3723Z"/>
  </g>
 </g>
</svg>
