<?xml version="1.0" encoding="UTF-8"?>
<!--Generator: Apple Native CoreSVG 175.5-->
<!DOCTYPE svg
PUBLIC "-//W3C//DTD SVG 1.1//EN"
       "http://www.w3.org/Graphics/SVG/1.1/DTD/svg11.dtd">
<svg version="1.1" xmlns="http://www.w3.org/2000/svg" xmlns:xlink="http://www.w3.org/1999/xlink" width="3300" height="2200">
 <!--glyph: "", point size: 100.0, font version: "18.0d12e2", template writer version: "101"-->
 <style>.monochrome-0 {fill:#000000}
.monochrome-1 {fill:#FFFFFF;opacity:0.0;-sfsymbols-clear-behind:true}

.multicolor-0:custom {fill:#2AABEE}
.multicolor-1:white {fill:#FFFFFF}

.hierarchical-0:tertiary {fill:#8E8E8E}
.hierarchical-1:primary {fill:#212121}

.SFSymbolsPreview2AABEE {fill:#2AABEE;opacity:1.0}
.SFSymbolsPreviewFFFFFF {fill:#FFFFFF;opacity:1.0}
</style>
 <g id="Notes">
  <rect height="2200" id="artboard" style="fill:white;opacity:1" width="3300" x="0" y="0"/>
  <line style="fill:none;stroke:black;opacity:1;stroke-width:0.5;" x1="263" x2="3036" y1="292" y2="292"/>
  <text style="stroke:none;fill:black;font-family:sans-serif;font-size:13;font-weight:bold;" transform="matrix(1 0 0 1 263 322)">Weight/Scale Variations</text>
  <text style="stroke:none;fill:black;font-family:sans-serif;font-size:13;text-anchor:middle;" transform="matrix(1 0 0 1 559.711 322)">Ultralight</text>
  <text style="stroke:none;fill:black;font-family:sans-serif;font-size:13;text-anchor:middle;" transform="matrix(1 0 0 1 856.422 322)">Thin</text>
  <text style="stroke:none;fill:black;font-family:sans-serif;font-size:13;text-anchor:middle;" transform="matrix(1 0 0 1 1153.13 322)">Light</text>
  <text style="stroke:none;fill:black;font-family:sans-serif;font-size:13;text-anchor:middle;" transform="matrix(1 0 0 1 1449.84 322)">Regular</text>
  <text style="stroke:none;fill:black;font-family:sans-serif;font-size:13;text-anchor:middle;" transform="matrix(1 0 0 1 1746.56 322)">Medium</text>
  <text style="stroke:none;fill:black;font-family:sans-serif;font-size:13;text-anchor:middle;" transform="matrix(1 0 0 1 2043.27 322)">Semibold</text>
  <text style="stroke:none;fill:black;font-family:sans-serif;font-size:13;text-anchor:middle;" transform="matrix(1 0 0 1 2339.98 322)">Bold</text>
  <text style="stroke:none;fill:black;font-family:sans-serif;font-size:13;text-anchor:middle;" transform="matrix(1 0 0 1 2636.69 322)">Heavy</text>
  <text style="stroke:none;fill:black;font-family:sans-serif;font-size:13;text-anchor:middle;" transform="matrix(1 0 0 1 2933.4 322)">Black</text>
  <line style="fill:none;stroke:black;opacity:1;stroke-width:0.5;" x1="263" x2="3036" y1="1903" y2="1903"/>
  <g transform="matrix(1 0 0 1 263 1933)">
   <path d="M9.24805 0.830078C13.5547 0.830078 17.1387-2.74414 17.1387-7.05078C17.1387-11.3574 13.5449-14.9316 9.23828-14.9316C4.94141-14.9316 1.36719-11.3574 1.36719-7.05078C1.36719-2.74414 4.95117 0.830078 9.24805 0.830078ZM9.24805-0.654297C5.70312-0.654297 2.87109-3.49609 2.87109-7.05078C2.87109-10.6055 5.69336-13.4473 9.23828-13.4473C12.793-13.4473 15.6445-10.6055 15.6445-7.05078C15.6445-3.49609 12.8027-0.654297 9.24805-0.654297ZM5.6543-7.05078C5.6543-6.62109 5.95703-6.32812 6.40625-6.32812L8.50586-6.32812L8.50586-4.20898C8.50586-3.76953 8.79883-3.4668 9.22852-3.4668C9.67773-3.4668 9.9707-3.76953 9.9707-4.20898L9.9707-6.32812L12.0898-6.32812C12.5293-6.32812 12.832-6.62109 12.832-7.05078C12.832-7.49023 12.5293-7.79297 12.0898-7.79297L9.9707-7.79297L9.9707-9.90234C9.9707-10.3516 9.67773-10.6543 9.22852-10.6543C8.79883-10.6543 8.50586-10.3516 8.50586-9.90234L8.50586-7.79297L6.40625-7.79297C5.95703-7.79297 5.6543-7.49023 5.6543-7.05078Z"/>
  </g>
  <g transform="matrix(1 0 0 1 281.867 1933)">
   <path d="M11.709 2.91016C17.1582 2.91016 21.6699-1.61133 21.6699-7.05078C21.6699-12.5 17.1484-17.0117 11.6992-17.0117C6.25977-17.0117 1.74805-12.5 1.74805-7.05078C1.74805-1.61133 6.26953 2.91016 11.709 2.91016ZM11.709 1.25C7.09961 1.25 3.41797-2.44141 3.41797-7.05078C3.41797-11.6602 7.08984-15.3516 11.6992-15.3516C16.3086-15.3516 20.0098-11.6602 20.0098-7.05078C20.0098-2.44141 16.3184 1.25 11.709 1.25ZM7.17773-7.05078C7.17773-6.57227 7.50977-6.25 8.00781-6.25L10.8789-6.25L10.8789-3.36914C10.8789-2.88086 11.2109-2.53906 11.6895-2.53906C12.1777-2.53906 12.5195-2.87109 12.5195-3.36914L12.5195-6.25L15.4004-6.25C15.8887-6.25 16.2305-6.57227 16.2305-7.05078C16.2305-7.53906 15.8887-7.88086 15.4004-7.88086L12.5195-7.88086L12.5195-10.752C12.5195-11.25 12.1777-11.5918 11.6895-11.5918C11.2109-11.5918 10.8789-11.25 10.8789-10.752L10.8789-7.88086L8.00781-7.88086C7.50977-7.88086 7.17773-7.53906 7.17773-7.05078Z"/>
  </g>
  <g transform="matrix(1 0 0 1 305.646 1933)">
   <path d="M14.9707 5.66406C21.9336 5.66406 27.6953-0.0976562 27.6953-7.05078C27.6953-14.0137 21.9238-19.7754 14.9609-19.7754C8.00781-19.7754 2.25586-14.0137 2.25586-7.05078C2.25586-0.0976562 8.01758 5.66406 14.9707 5.66406ZM14.9707 3.84766C8.93555 3.84766 4.08203-1.01562 4.08203-7.05078C4.08203-13.0957 8.92578-17.9492 14.9609-17.9492C21.0059-17.9492 25.8691-13.0957 25.8691-7.05078C25.8691-1.01562 21.0156 3.84766 14.9707 3.84766ZM9.19922-7.05078C9.19922-6.5332 9.57031-6.17188 10.1172-6.17188L14.0625-6.17188L14.0625-2.2168C14.0625-1.67969 14.4336-1.29883 14.9512-1.29883C15.4883-1.29883 15.8594-1.66992 15.8594-2.2168L15.8594-6.17188L19.8145-6.17188C20.3516-6.17188 20.7324-6.5332 20.7324-7.05078C20.7324-7.59766 20.3613-7.96875 19.8145-7.96875L15.8594-7.96875L15.8594-11.9141C15.8594-12.4609 15.4883-12.8418 14.9512-12.8418C14.4336-12.8418 14.0625-12.4609 14.0625-11.9141L14.0625-7.96875L10.1172-7.96875C9.57031-7.96875 9.19922-7.59766 9.19922-7.05078Z"/>
  </g>
  <text style="stroke:none;fill:black;font-family:sans-serif;font-size:13;font-weight:bold;" transform="matrix(1 0 0 1 263 1953)">Design Variations</text>
  <text style="stroke:none;fill:black;font-family:sans-serif;font-size:13;" transform="matrix(1 0 0 1 263 1971)">Symbols are supported in up to nine weights and three scales.</text>
  <text style="stroke:none;fill:black;font-family:sans-serif;font-size:13;" transform="matrix(1 0 0 1 263 1989)">For optimal layout with text and other symbols, vertically align</text>
  <text style="stroke:none;fill:black;font-family:sans-serif;font-size:13;" transform="matrix(1 0 0 1 263 2007)">symbols with the adjacent text.</text>
  <line style="fill:none;stroke:#00AEEF;stroke-width:0.5;opacity:1.0;" x1="776" x2="776" y1="1919" y2="1933"/>
  <g transform="matrix(1 0 0 1 776 1933)">
   <path d="M3.31055 0.15625C3.82812 0.15625 4.08203-0.0390625 4.26758-0.585938L5.52734-4.0332L11.2891-4.0332L12.5488-0.585938C12.7344-0.0390625 12.9883 0.15625 13.4961 0.15625C14.0137 0.15625 14.3457-0.15625 14.3457-0.644531C14.3457-0.810547 14.3164-0.966797 14.2383-1.17188L9.6582-13.3691C9.43359-13.9648 9.0332-14.2676 8.4082-14.2676C7.80273-14.2676 7.39258-13.9746 7.17773-13.3789L2.59766-1.16211C2.51953-0.957031 2.49023-0.800781 2.49023-0.634766C2.49023-0.146484 2.80273 0.15625 3.31055 0.15625ZM6.00586-5.51758L8.37891-12.0898L8.42773-12.0898L10.8008-5.51758Z"/>
  </g>
  <line style="fill:none;stroke:#00AEEF;stroke-width:0.5;opacity:1.0;" x1="793.197" x2="793.197" y1="1919" y2="1933"/>
  <text style="stroke:none;fill:black;font-family:sans-serif;font-size:13;font-weight:bold;" transform="matrix(1 0 0 1 776 1953)">Margins</text>
  <text style="stroke:none;fill:black;font-family:sans-serif;font-size:13;" transform="matrix(1 0 0 1 776 1971)">Leading and trailing margins on the left and right side of each symbol</text>
  <text style="stroke:none;fill:black;font-family:sans-serif;font-size:13;" transform="matrix(1 0 0 1 776 1989)">can be adjusted by modifying the x-location of the margin guidelines.</text>
  <text style="stroke:none;fill:black;font-family:sans-serif;font-size:13;" transform="matrix(1 0 0 1 776 2007)">Modifications are automatically applied proportionally to all</text>
  <text style="stroke:none;fill:black;font-family:sans-serif;font-size:13;" transform="matrix(1 0 0 1 776 2025)">scales and weights.</text>
  <g transform="matrix(1 0 0 1 1289 1933)">
   <path d="M2.8418 1.86523L4.54102 3.57422C5.40039 4.44336 6.38672 4.38477 7.31445 3.35938L18.0078-8.42773L17.041-9.4043L6.42578 2.27539C6.07422 2.67578 5.74219 2.77344 5.27344 2.30469L4.10156 1.14258C3.63281 0.683594 3.74023 0.341797 4.14062-0.0195312L15.6152-10.8203L14.6387-11.7871L3.04688-0.898438C2.06055 0.0195312 1.98242 0.996094 2.8418 1.86523ZM9.25781-16.3281C8.83789-15.918 8.80859-15.3418 9.04297-14.9512C9.27734-14.5898 9.73633-14.3555 10.3809-14.5215C11.8457-14.8633 13.3691-14.9219 14.7949-13.9844L14.209-12.5293C13.8672-11.6992 14.043-11.1133 14.5801-10.5664L16.875-8.25195C17.3633-7.76367 17.7734-7.74414 18.3398-7.8418L19.4043-8.03711L20.0684-7.36328L20.0293-6.80664C19.9902-6.30859 20.1172-5.92773 20.6055-5.44922L21.3672-4.70703C21.8457-4.22852 22.4609-4.19922 22.9297-4.66797L25.8398-7.58789C26.3086-8.05664 26.2891-8.65234 25.8105-9.13086L25.0391-9.89258C24.5605-10.3711 24.1895-10.5273 23.7109-10.4883L23.1348-10.4395L22.4902-11.0742L22.7344-12.1973C22.8613-12.7637 22.7051-13.2031 22.1191-13.7891L19.9219-15.9766C16.582-19.2969 12.1484-19.2188 9.25781-16.3281ZM10.752-15.957C13.1836-17.7344 16.4746-17.4316 18.7012-15.2051L21.1328-12.793C21.3672-12.5586 21.4062-12.373 21.3379-12.0312L21.0156-10.5469L22.5195-9.0625L23.5059-9.12109C23.7598-9.13086 23.8379-9.11133 24.0332-8.91602L24.6094-8.33984L22.168-5.89844L21.5918-6.47461C21.3965-6.66992 21.3672-6.74805 21.377-7.01172L21.4453-7.98828L19.9512-9.47266L18.4277-9.21875C18.1055-9.15039 17.959-9.17969 17.7148-9.41406L15.7129-11.416C15.459-11.6504 15.4297-11.8164 15.5859-12.1875L16.4648-14.2773C14.9023-15.7324 12.8711-16.3574 10.8398-15.7617C10.6836-15.7227 10.625-15.8496 10.752-15.957Z"/>
  </g>
  <text style="stroke:none;fill:black;font-family:sans-serif;font-size:13;font-weight:bold;" transform="matrix(1 0 0 1 1289 1953)">Exporting</text>
  <text style="stroke:none;fill:black;font-family:sans-serif;font-size:13;" transform="matrix(1 0 0 1 1289 1971)">Symbols should be outlined when exporting to ensure the</text>
  <text style="stroke:none;fill:black;font-family:sans-serif;font-size:13;" transform="matrix(1 0 0 1 1289 1989)">design is preserved when submitting to Xcode.</text>
  <text id="template-version" style="stroke:none;fill:black;font-family:sans-serif;font-size:13;text-anchor:end;" transform="matrix(1 0 0 1 3036 1933)">Template v.4.0</text>
  <text style="stroke:none;fill:black;font-family:sans-serif;font-size:13;text-anchor:end;" transform="matrix(1 0 0 1 3036 1951)">Requires Xcode 14 or greater</text>
  <text id="descriptive-name" style="stroke:none;fill:black;font-family:sans-serif;font-size:13;text-anchor:end;" transform="matrix(1 0 0 1 3036 1969)">Generated from telegram</text>
  <text style="stroke:none;fill:black;font-family:sans-serif;font-size:13;text-anchor:end;" transform="matrix(1 0 0 1 3036 1987)">Typeset at 100 points</text>
  <text style="stroke:none;fill:black;font-family:sans-serif;font-size:13;" transform="matrix(1 0 0 1 263 726)">Small</text>
  <text style="stroke:none;fill:black;font-family:sans-serif;font-size:13;" transform="matrix(1 0 0 1 263 1156)">Medium</text>
  <text style="stroke:none;fill:black;font-family:sans-serif;font-size:13;" transform="matrix(1 0 0 1 263 1586)">Large</text>
 </g>
 <g id="Guides">
  <g id="H-reference" style="fill:#27AAE1;stroke:none;" transform="matrix(1 0 0 1 339 696)">
   <path d="M0.993654 0L3.63775 0L29.3281-67.1323L30.0303-67.1323L30.0303-70.459L28.1226-70.459ZM11.6885-24.4799L46.9815-24.4799L46.2315-26.7285L12.4385-26.7285ZM55.1196 0L57.7637 0L30.6382-70.459L29.4326-70.459L29.4326-67.1323Z"/>
  </g>
  <line id="Baseline-S" style="fill:none;stroke:#27AAE1;opacity:1;stroke-width:0.5;" x1="263" x2="3036" y1="696" y2="696"/>
  <line id="Capline-S" style="fill:none;stroke:#27AAE1;opacity:1;stroke-width:0.5;" x1="263" x2="3036" y1="625.541" y2="625.541"/>
  <g id="H-reference" style="fill:#27AAE1;stroke:none;" transform="matrix(1 0 0 1 339 1126)">
   <path d="M0.993654 0L3.63775 0L29.3281-67.1323L30.0303-67.1323L30.0303-70.459L28.1226-70.459ZM11.6885-24.4799L46.9815-24.4799L46.2315-26.7285L12.4385-26.7285ZM55.1196 0L57.7637 0L30.6382-70.459L29.4326-70.459L29.4326-67.1323Z"/>
  </g>
  <line id="Baseline-M" style="fill:none;stroke:#27AAE1;opacity:1;stroke-width:0.5;" x1="263" x2="3036" y1="1126" y2="1126"/>
  <line id="Capline-M" style="fill:none;stroke:#27AAE1;opacity:1;stroke-width:0.5;" x1="263" x2="3036" y1="1055.54" y2="1055.54"/>
  <g id="H-reference" style="fill:#27AAE1;stroke:none;" transform="matrix(1 0 0 1 339 1556)">
   <path d="M0.993654 0L3.63775 0L29.3281-67.1323L30.0303-67.1323L30.0303-70.459L28.1226-70.459ZM11.6885-24.4799L46.9815-24.4799L46.2315-26.7285L12.4385-26.7285ZM55.1196 0L57.7637 0L30.6382-70.459L29.4326-70.459L29.4326-67.1323Z"/>
  </g>
  <line id="Baseline-L" style="fill:none;stroke:#27AAE1;opacity:1;stroke-width:0.5;" x1="263" x2="3036" y1="1556" y2="1556"/>
  <line id="Capline-L" style="fill:none;stroke:#27AAE1;opacity:1;stroke-width:0.5;" x1="263" x2="3036" y1="1485.54" y2="1485.54"/>
  <line id="left-margin-Regular-M" style="fill:none;stroke:#00AEEF;stroke-width:0.5;opacity:1.0;" x1="1391.32" x2="1391.32" y1="1030.79" y2="1150.12"/>
  <line id="right-margin-Regular-M" style="fill:none;stroke:#00AEEF;stroke-width:0.5;opacity:1.0;" x1="1508.37" x2="1508.37" y1="1030.79" y2="1150.12"/>
 </g>
 <g id="Symbols">
  <g id="Black-L" transform="matrix(1 0 0 1 2857.38 1556)">
   <path class="monochrome-0 multicolor-0:custom hierarchical-0:tertiary SFSymbolsPreview2AABEE" d="M76.18-103.148C113.459-103.148 143.68-72.9272 143.68-35.648C143.68 1.63122 113.459 31.852 76.18 31.852C38.9008 31.852 8.68 1.63122 8.68-35.648C8.68-72.9272 38.9008-103.148 76.18-103.148Z"/>
   <path class="monochrome-1 multicolor-1:white hierarchical-1:primary SFSymbolsPreviewFFFFFF" d="M103.778-62.513C101.239-62.4678 97.3443-61.1134 78.5988-53.3165C72.0335-50.5857 58.912-44.9337 39.2343-36.3605C36.039-35.0898 34.3651-33.8468 34.2128-32.6312C33.9202-30.2976 37.2799-29.5711 41.5071-28.197C44.9535-27.0767 49.5896-25.7661 51.9997-25.714C54.1859-25.6668 56.6259-26.5681 59.3198-28.4179C65.9385-32.8858 71.4045-36.5582 75.7177-39.4351L76.4259-39.9072C83.6337-44.7097 87.4223-47.1529 87.7917-47.2368C88.212-47.3322 88.7946-47.4521 89.1892-47.1013C89.5839-46.7505 89.5451-46.0862 89.5033-45.908C89.169-44.4829 71.8981-28.7736 70.9041-27.7412C70.6668-27.4947 70.4273-27.2541 70.1887-27.0187L69.9029-26.7386C66.4342-23.3589 63.369-20.9984 69.4503-16.991C75.2169-13.1909 78.5731-10.7666 84.514-6.87231C88.3106-4.38362 91.2871-1.43239 95.207-1.7931C97.0107-1.95908 98.8738-3.65511 99.82-8.71344C102.056-20.6678 106.452-46.5692 107.467-57.2425C107.556-58.1776 107.444-59.3744 107.355-59.8998C107.265-60.4251 107.077-61.1736 106.394-61.7277C105.585-62.384 104.337-62.5224 103.778-62.513Z"/>
  </g>
  <g id="Heavy-L" transform="matrix(1 0 0 1 2561.16 1556)">
   <path class="monochrome-0 multicolor-0:custom hierarchical-0:tertiary SFSymbolsPreview2AABEE" d="M75.68-102.22C112.683-102.22 142.68-72.2231 142.68-35.22C142.68 1.78308 112.683 31.78 75.68 31.78C38.6769 31.78 8.68 1.78308 8.68-35.22C8.68-72.2231 38.6769-102.22 75.68-102.22Z"/>
   <path class="monochrome-1 multicolor-1:white hierarchical-1:primary SFSymbolsPreviewFFFFFF" d="M103.074-61.886C103.049-61.8856 103.023-61.885 102.998-61.8843L102.843-61.8783C100.309-61.7547 96.1293-60.2646 78.0809-52.7576C71.5642-50.0471 58.5399-44.437 39.008-35.9272C35.8363-34.666 34.1749-33.4321 34.0236-32.2256C33.7332-29.9092 37.068-29.1881 41.2639-27.8242C44.6848-26.7122 49.2865-25.4113 51.6788-25.3596C53.8488-25.3127 56.2708-26.2073 58.9447-28.0435C65.3319-32.355 70.6376-35.9203 74.8617-38.7392L75.5753-39.2152C82.9563-44.1358 86.8331-46.6384 87.2057-46.7229C87.6229-46.8176 88.2011-46.9367 88.5929-46.5885C88.9846-46.2403 88.9461-45.5809 88.9046-45.404C88.7368-44.6884 84.2666-40.3443 79.7624-36.0934L79.1341-35.5012C74.9497-31.5624 70.9075-27.854 70.4432-27.3718C69.966-26.8762 69.4805-26.4049 69.0099-25.9509L68.7294-25.6805C65.6222-22.6831 63.3899-20.3982 69.0001-16.7012C74.724-12.9292 78.0554-10.5229 83.9523-6.65747C87.7207-4.1872 90.6752-1.25784 94.566-1.61588C96.3564-1.78063 98.2057-3.4641 99.1449-8.48495C101.364-20.3507 105.727-46.0603 106.736-56.6546C106.824-57.5827 106.713-58.7707 106.624-59.2921C106.534-59.8136 106.348-60.5566 105.67-61.1066C104.867-61.7579 103.628-61.8953 103.074-61.886Z"/>
  </g>
  <g id="Bold-L" transform="matrix(1 0 0 1 2265.45 1556)">
   <path class="monochrome-0 multicolor-0:custom hierarchical-0:tertiary SFSymbolsPreview2AABEE" d="M74.68-101.052C111.131-101.052 140.68-71.5028 140.68-35.052C140.68 1.39879 111.131 30.948 74.68 30.948C38.2292 30.948 8.68 1.39879 8.68-35.052C8.68-71.5028 38.2292-101.052 74.68-101.052Z"/>
   <path class="monochrome-1 multicolor-1:white hierarchical-1:primary SFSymbolsPreviewFFFFFF" d="M101.665-61.32C99.1826-61.2758 95.374-59.9515 77.0451-52.3279C70.6256-49.6578 57.7957-44.1314 38.5554-35.7487C35.431-34.5062 33.7944-33.2908 33.6454-32.1023C33.3593-29.8205 36.6443-29.1102 40.7776-27.7666C44.1474-26.6712 48.6805-25.3897 51.037-25.3388C53.1746-25.2926 55.5604-26.1739 58.1945-27.9826C76.1713-40.1175 85.451-46.251 86.0336-46.3832C86.4447-46.4765 87.0142-46.5938 87.4001-46.2508C87.7861-45.9078 87.7481-45.2582 87.7072-45.084C87.3804-43.6905 70.4932-28.3304 69.5214-27.3209C69.2357-27.0242 68.947-26.7364 68.6604-26.4559L68.3747-26.1777C67.9478-25.7639 67.5295-25.3654 67.137-24.9768L66.8793-24.7192C64.3871-22.1993 63.1708-20.0577 68.0998-16.8096C73.7383-13.0939 77.0199-10.7236 82.8288-6.91577C86.541-4.48238 89.4514-1.59674 93.2842-1.94944C95.0478-2.11173 96.8695-3.77007 97.7946-8.71598C98.7701-13.9309 100.166-21.8604 101.501-29.971L101.776-31.6508C103.329-41.1749 104.753-50.7077 105.272-56.1666C105.359-57.081 105.25-58.2512 105.162-58.7648C105.074-59.2785 104.89-60.0104 104.222-60.5522C103.432-61.1938 102.211-61.3292 101.665-61.32Z"/>
  </g>
  <g id="Semibold-L" transform="matrix(1 0 0 1 1970.24 1556)">
   <path class="monochrome-0 multicolor-0:custom hierarchical-0:tertiary SFSymbolsPreview2AABEE" d="M73.18-100C108.802-100 137.68-71.1224 137.68-35.5C137.68 0.122366 108.802 29 73.18 29C37.5576 29 8.68 0.122366 8.68-35.5C8.68-71.1224 37.5576-100 73.18-100Z"/>
   <path class="monochrome-1 multicolor-1:white hierarchical-1:primary SFSymbolsPreviewFFFFFF" d="M99.5517-61.171C97.1257-61.1278 93.4037-59.8336 75.4913-52.3832C69.2177-49.7738 56.6794-44.373 37.8764-36.1809C34.823-34.9666 33.2236-33.7788 33.078-32.6173C32.7984-30.3874 36.0088-29.6932 40.0481-28.3802C43.3414-27.3097 47.7714-26.0573 50.0744-26.0075C52.1634-25.9624 54.495-26.8236 57.0691-28.5913C62.8667-32.5048 67.7386-35.7796 71.685-38.4157L72.3923-38.8879C79.9444-43.9278 83.9055-46.4897 84.2756-46.5737C84.6773-46.6649 85.2339-46.7795 85.6111-46.4443C85.9882-46.1091 85.9511-45.4743 85.9112-45.304C85.7592-44.6563 81.9464-40.9211 77.8872-37.0757L77.2613-36.4836C77.1568-36.3849 77.0522-36.2862 76.9477-36.1876L76.3211-35.5975C72.5676-32.0669 68.9772-28.7677 68.2354-28.0415L68.1386-27.9447C67.6202-27.4062 67.0915-26.8975 66.5847-26.409L66.3107-26.1444C63.4147-23.3425 61.4563-21.1602 66.7494-17.6722C72.2597-14.041 75.4668-11.7245 81.1436-8.00323C84.7714-5.62514 87.6157-2.80509 91.3613-3.14977C93.0849-3.30837 94.8652-4.92902 95.7693-9.76253C97.9061-21.1856 102.106-45.9358 103.077-56.1348C103.162-57.0283 103.055-58.1719 102.969-58.6739C102.883-59.1759 102.704-59.8912 102.051-60.4206C101.278-61.0477 100.085-61.1799 99.5517-61.171Z"/>
  </g>
  <g id="Medium-L" transform="matrix(1 0 0 1 1673.53 1556)">
   <path class="monochrome-0 multicolor-0:custom hierarchical-0:tertiary SFSymbolsPreview2AABEE" d="M73.18-99.637C108.802-99.637 137.68-70.7594 137.68-35.137C137.68 0.485366 108.802 29.363 73.18 29.363C37.5576 29.363 8.68 0.485366 8.68-35.137C8.68-70.7594 37.5576-99.637 73.18-99.637Z"/>
   <path class="monochrome-1 multicolor-1:white hierarchical-1:primary SFSymbolsPreviewFFFFFF" d="M99.5517-60.808C97.1257-60.7648 93.4037-59.4706 75.4913-52.0202C69.2177-49.4108 56.6794-44.01 37.8764-35.8179C34.823-34.6036 33.2236-33.4158 33.078-32.2543C32.7984-30.0244 36.0088-29.3302 40.0481-28.0172C43.3414-26.9467 47.7714-25.6943 50.0744-25.6445C52.1634-25.5994 54.495-26.4606 57.0691-28.2283C62.8667-32.1418 67.7386-35.4166 71.685-38.0527L72.3923-38.5249C79.9444-43.5648 83.9055-46.1267 84.2756-46.2107C84.6773-46.3019 85.2339-46.4165 85.6111-46.0813C85.9882-45.7461 85.9511-45.1113 85.9112-44.941C85.7592-44.2933 81.9464-40.5581 77.8872-36.7127L77.2613-36.1206C77.1568-36.0219 77.0522-35.9232 76.9477-35.8246L76.3211-35.2345C72.5676-31.7039 68.9772-28.4047 68.2354-27.6785L68.1386-27.5817C67.6202-27.0432 67.0915-26.5345 66.5847-26.046L66.3107-25.7814C63.4147-22.9795 61.4563-20.7972 66.7494-17.3092C72.2597-13.678 75.4668-11.3615 81.1436-7.64023C84.7714-5.26214 87.6157-2.44209 91.3613-2.78677C93.0849-2.94537 94.8652-4.56602 95.7693-9.39953C97.9061-20.8226 102.106-45.5728 103.077-55.7718C103.162-56.6653 103.055-57.8089 102.969-58.3109C102.883-58.8129 102.704-59.5282 102.051-60.0576C101.278-60.6847 100.085-60.8169 99.5517-60.808Z"/>
  </g>
  <g id="Regular-L" transform="matrix(1 0 0 1 1377.82 1556)">
   <path class="monochrome-0 multicolor-0:custom hierarchical-0:tertiary SFSymbolsPreview2AABEE" d="M72.18-98.8411C107.25-98.8411 135.68-70.4112 135.68-35.3411C135.68-0.271018 107.25 28.1589 72.18 28.1589C37.1099 28.1589 8.68-0.271018 8.68-35.3411C8.68-70.4112 37.1099-98.8411 72.18-98.8411Z"/>
   <path class="monochrome-1 multicolor-1:white hierarchical-1:primary SFSymbolsPreviewFFFFFF" d="M98.1428-60.6141C98.1189-60.6137 98.0949-60.6131 98.0707-60.6125L97.9241-60.6068C95.522-60.4897 91.5611-59.0774 74.4555-51.9626C72.0673-50.9693 68.757-49.5651 64.5246-47.75L63.6358-47.3686C57.0212-44.5287 48.2838-40.743 37.4237-36.0114C34.4177-34.816 32.8431-33.6466 32.6997-32.5031C32.4245-30.3078 35.5851-29.6243 39.5618-28.3317C42.804-27.2778 47.1653-26.0448 49.4326-25.9958C51.4892-25.9514 53.7847-26.7993 56.3189-28.5395C73.6148-40.2147 82.543-46.1159 83.1036-46.2431C83.499-46.3329 84.047-46.4457 84.4183-46.1157C84.7896-45.7857 84.7531-45.1607 84.7138-44.9931C84.6361-44.662 83.5871-43.5118 82.0371-41.9524L81.5575-41.4727C76.7031-36.6432 67.8979-28.6103 67.2168-27.9029C66.5586-27.2193 65.8838-26.5846 65.2599-25.9781L64.9959-25.7198C62.3906-23.1533 60.8995-21.0514 65.8491-17.7897C68.2077-16.2354 70.1377-14.9257 72.0253-13.6407L73.1558-12.8709C75.2305-11.4586 77.3472-10.0228 80.0201-8.27064C83.5917-5.92942 86.3919-3.15308 90.0795-3.49242C91.7763-3.64856 93.529-5.24409 94.4191-10.0027C95.3723-15.0985 96.7426-22.8882 98.0452-30.8184L98.3136-32.4603C99.7826-41.4926 101.121-50.4786 101.613-55.6559C101.697-56.5356 101.592-57.6615 101.507-58.1557C101.423-58.6499 101.246-59.3541 100.603-59.8754C99.8426-60.4927 98.6681-60.6229 98.1428-60.6141Z"/>
  </g>
  <g id="Light-L" transform="matrix(1 0 0 1 1081.61 1556)">
   <path class="monochrome-0 multicolor-0:custom hierarchical-0:tertiary SFSymbolsPreview2AABEE" d="M71.68-97.925C106.474-97.925 134.68-69.7189 134.68-34.925C134.68-0.131061 106.474 28.075 71.68 28.075C36.8861 28.075 8.68-0.131061 8.68-34.925C8.68-69.7189 36.8861-97.925 71.68-97.925Z"/>
   <path class="monochrome-1 multicolor-1:white hierarchical-1:primary SFSymbolsPreviewFFFFFF" d="M97.4384-59.999C97.3436-59.9973 97.2468-59.9937 97.1471-59.9878L96.9954-59.9772C94.5827-59.7835 90.3836-58.2561 73.9376-51.4156C67.8099-48.8669 55.5632-43.5917 37.1974-35.59C34.2151-34.4041 32.6528-33.2438 32.5106-32.1094C32.2375-29.9313 35.3732-29.2532 39.3186-27.9708C42.5353-26.9251 46.8623-25.7019 49.1117-25.6533C51.1521-25.6092 53.4295-26.4504 55.9438-28.1769C73.1035-39.7602 81.9614-45.615 82.5176-45.7412C82.9099-45.8302 83.4536-45.9422 83.822-45.6148C84.1903-45.2874 84.1541-44.6673 84.1151-44.501C83.9591-43.8359 79.8512-39.8379 75.6664-35.8857L75.0385-35.2936C71.0648-31.5514 67.1965-28.003 66.7559-27.5454C66.4723-27.2508 66.1856-26.9654 65.9012-26.6875L65.6179-26.412C62.4675-23.362 59.8423-21.1735 65.3989-17.5118C67.739-15.9697 69.6538-14.6704 71.5265-13.3955L72.6481-12.6317C74.7065-11.2305 76.8065-9.80603 79.4584-8.06769C83.0019-5.74491 85.78-2.99043 89.4385-3.3271C91.122-3.48201 92.8609-5.06497 93.744-9.78608C95.8311-20.9435 99.9335-45.1181 100.882-55.0799C100.965-55.9527 100.86-57.0696 100.776-57.56C100.692-58.0503 100.517-58.7489 99.8796-59.2661C99.1248-59.8786 97.9595-60.0077 97.4384-59.999Z"/>
  </g>
  <g id="Thin-L" transform="matrix(1 0 0 1 785.897 1556)">
   <path class="monochrome-0 multicolor-0:custom hierarchical-0:tertiary SFSymbolsPreview2AABEE" d="M70.68-97C104.922-97 132.68-69.2417 132.68-35C132.68-0.758345 104.922 27 70.68 27C36.4383 27 8.68-0.758345 8.68-35C8.68-69.2417 36.4383-97 70.68-97Z"/>
   <path class="monochrome-1 multicolor-1:white hierarchical-1:primary SFSymbolsPreviewFFFFFF" d="M96.0295-59.676C93.6976-59.6345 90.1198-58.3904 72.9017-51.2289C66.8713-48.7206 54.819-43.5291 36.7447-35.6545C33.8097-34.4873 32.2723-33.3455 32.1323-32.2291C31.8636-30.0856 34.9495-29.4183 38.8323-28.1561C41.9979-27.1271 46.2562-25.9233 48.4699-25.8755C50.478-25.8321 52.7192-26.6599 55.1936-28.359C72.0809-39.7585 80.7982-45.5203 81.3455-45.6445C81.7317-45.7321 82.2667-45.8423 82.6292-45.5201C82.9918-45.1979 82.9561-44.5877 82.9177-44.424C82.7739-43.8109 79.2177-40.3198 75.3832-36.6837L74.7594-36.0932C74.551-35.8962 74.3423-35.6993 74.1338-35.5027L73.5092-34.9149C69.7707-31.4012 66.25-28.1696 65.834-27.7375C62.3455-24.1142 58.3773-21.8971 64.4986-17.8632C69.7954-14.3727 72.8781-12.146 78.3349-8.569C81.8222-6.28308 84.5562-3.57233 88.1566-3.90365C89.8134-4.05611 91.5247-5.61394 92.3938-10.2601C94.4477-21.2404 98.485-45.0313 99.4181-54.835C99.4998-55.6939 99.397-56.7931 99.3144-57.2757C99.2318-57.7582 99.0592-58.4458 98.432-58.9547C97.6892-59.5575 96.5424-59.6846 96.0295-59.676Z"/>
  </g>
  <g id="Ultralight-L" transform="matrix(1 0 0 1 489.186 1556)">
   <path class="monochrome-0 multicolor-0:custom hierarchical-0:tertiary SFSymbolsPreview2AABEE" d="M70.68-97.0928C104.922-97.0928 132.68-69.3345 132.68-35.0928C132.68-0.851145 104.922 26.9072 70.68 26.9072C36.4383 26.9072 8.68-0.851145 8.68-35.0928C8.68-69.3345 36.4383-97.0928 70.68-97.0928Z"/>
   <path class="monochrome-1 multicolor-1:white hierarchical-1:primary SFSymbolsPreviewFFFFFF" d="M96.0295-59.7688C93.6976-59.7273 90.1198-58.4832 72.9017-51.3217C66.8713-48.8134 54.819-43.6219 36.7447-35.7473C33.8097-34.5801 32.2723-33.4383 32.1323-32.3219C31.8636-30.1784 34.9495-29.5111 38.8323-28.2489C41.9979-27.2199 46.2562-26.0161 48.4699-25.9683C50.478-25.9249 52.7192-26.7527 55.1936-28.4518C72.0809-39.8513 80.7982-45.6131 81.3455-45.7373C81.7317-45.8249 82.2667-45.9351 82.6292-45.6129C82.9918-45.2907 82.9561-44.6805 82.9177-44.5168C82.7739-43.9037 79.2177-40.4126 75.3832-36.7765L74.7594-36.186C74.551-35.989 74.3423-35.7921 74.1338-35.5955L73.5092-35.0077C69.7707-31.494 66.25-28.2624 65.834-27.8303C62.3455-24.207 58.3773-21.9899 64.4986-17.956C69.7954-14.4655 72.8781-12.2388 78.3349-8.6618C81.8222-6.37588 84.5562-3.66513 88.1566-3.99645C89.8134-4.14891 91.5247-5.70674 92.3938-10.3529C94.4477-21.3332 98.485-45.1241 99.4181-54.9278C99.4998-55.7867 99.397-56.8859 99.3144-57.3685C99.2318-57.851 99.0592-58.5386 98.432-59.0475C97.6892-59.6503 96.5424-59.7774 96.0295-59.7688Z"/>
  </g>
  <g id="Black-M" transform="matrix(1 0 0 1 2871.88 1126)">
   <path class="monochrome-0 multicolor-0:custom hierarchical-0:tertiary SFSymbolsPreview2AABEE" d="M61.68-87.5231C90.9511-87.5231 114.68-63.7942 114.68-34.5231C114.68-5.25201 90.9511 18.4769 61.68 18.4769C32.4089 18.4769 8.68-5.25201 8.68-34.5231C8.68-63.7942 32.4089-87.5231 61.68-87.5231Z"/>
   <path class="monochrome-1 multicolor-1:white hierarchical-1:primary SFSymbolsPreviewFFFFFF" d="M83.3497-55.6171C81.3563-55.5816 78.2979-54.5182 63.5792-48.3962C58.4242-46.252 48.1214-41.8141 32.6708-35.0826C30.1619-34.0848 28.8476-33.1088 28.7279-32.1544C28.4982-30.3221 31.1362-29.7516 34.4553-28.6727C37.1614-27.7931 40.8016-26.764 42.694-26.7231C44.4105-26.686 46.3264-27.3937 48.4416-28.8461C60.7924-37.1833 68.031-41.9928 70.1574-43.2748L70.3128-43.3675C70.5786-43.5245 70.7401-43.6095 70.7973-43.6224C71.1274-43.6973 71.5848-43.7915 71.8947-43.5161C72.2046-43.2406 72.1741-42.719 72.1413-42.5791C72.0157-42.0439 68.8484-38.9433 65.4922-35.765L64.5743-34.8981C61.2073-31.7261 57.9107-28.7025 57.5375-28.3148C57.4457-28.2195 57.3536-28.1254 57.2613-28.0323L56.9844-27.756L56.7083-27.4857C56.5248-27.3073 56.343-27.1325 56.1649-26.9606L55.9007-26.7049C53.5968-24.4647 52.1292-22.6856 56.3959-19.8739C60.9238-16.8901 63.559-14.9866 68.2237-11.9289C71.2047-9.97477 73.5419-7.65751 76.6197-7.94074C78.0359-8.07106 79.4988-9.40276 80.2418-13.3745C81.0591-17.744 82.2439-24.4867 83.3573-31.2915L83.6034-32.8038C84.7854-40.109 85.8476-47.2885 86.2464-51.4788C86.3163-52.213 86.2284-53.1527 86.1578-53.5652C86.0872-53.9777 85.9397-54.5655 85.4035-55.0005C84.7685-55.5158 83.7882-55.6244 83.3497-55.6171Z"/>
  </g>
  <g id="Heavy-M" transform="matrix(1 0 0 1 2575.66 1126)">
   <path class="monochrome-0 multicolor-0:custom hierarchical-0:tertiary SFSymbolsPreview2AABEE" d="M61.18-87.6997C90.1749-87.6997 113.68-64.1946 113.68-35.1997C113.68-6.20475 90.1749 17.3003 61.18 17.3003C32.1851 17.3003 8.68-6.20475 8.68-35.1997C8.68-64.1946 32.1851-87.6997 61.18-87.6997Z"/>
   <path class="monochrome-1 multicolor-1:white hierarchical-1:primary SFSymbolsPreviewFFFFFF" d="M82.6453-56.0947C81.8512-56.0806 80.8864-55.9017 79.0683-55.2985L78.7659-55.1969C76.0265-54.266 71.4605-52.4354 63.0613-48.9419C61.2544-48.1903 58.8091-47.1543 55.7253-45.8338L54.9063-45.4829C49.3501-43.1003 41.8628-39.8573 32.4445-35.7539C29.9592-34.7656 28.6573-33.7987 28.5388-32.8533C28.3113-31.0383 30.9244-30.4732 34.2122-29.4045C36.8927-28.5332 40.4986-27.5138 42.3731-27.4733C44.0735-27.4365 45.9713-28.1375 48.0665-29.5763C53.8507-33.4808 58.5029-36.6042 62.0233-38.9465L62.5995-39.3297C67.4085-42.5251 69.9457-44.1529 70.2113-44.2132C70.5383-44.2874 70.9913-44.3807 71.2983-44.1079C71.6053-43.835 71.5751-43.3183 71.5426-43.1797C71.2826-42.0713 57.8496-29.853 57.0765-29.05C56.4403-28.3892 55.7852-27.7836 55.2007-27.206L54.9548-26.96C52.986-24.9644 52.0383-23.2637 55.9458-20.6887C57.9641-19.3587 59.6028-18.2453 61.2158-17.147L62.2913-16.4147C63.9105-15.3131 65.5827-14.1816 67.662-12.8186C70.6149-10.883 72.93-8.58756 75.9788-8.86811C77.3816-8.99721 78.8307-10.3163 79.5667-14.2506C80.4063-18.7392 81.6373-25.7559 82.7751-32.7477L83.0173-34.2447C84.1392-41.2199 85.1332-47.9878 85.5147-51.9954C85.5839-52.7227 85.4968-53.6536 85.4269-54.0622C85.3569-54.4708 85.2108-55.053 84.6797-55.4839C84.0507-55.9943 83.0796-56.102 82.6453-56.0947Z"/>
  </g>
  <g id="Bold-M" transform="matrix(1 0 0 1 2279.95 1126)">
   <path class="monochrome-0 multicolor-0:custom hierarchical-0:tertiary SFSymbolsPreview2AABEE" d="M60.18-86.7786C88.6227-86.7786 111.68-63.7213 111.68-35.2786C111.68-6.83594 88.6227 16.2214 60.18 16.2214C31.7373 16.2214 8.68-6.83594 8.68-35.2786C8.68-63.7213 31.7373-86.7786 60.18-86.7786Z"/>
   <path class="monochrome-1 multicolor-1:white hierarchical-1:primary SFSymbolsPreviewFFFFFF" d="M81.2364-55.7756C79.2994-55.7411 76.3276-54.7078 62.0255-48.759C57.0163-46.6755 47.0051-42.3633 31.9918-35.8222C29.5539-34.8527 28.2768-33.9043 28.1605-32.9769C27.9373-31.1965 30.5007-30.6422 33.7259-29.5938C36.3554-28.739 39.8925-27.7391 41.7313-27.6993C43.3993-27.6633 45.261-28.351 47.3163-29.7623C52.0983-32.9903 56.0917-35.6741 59.2964-37.8137L59.9268-38.2343C65.7125-42.0927 68.75-44.0547 69.0393-44.1204C69.36-44.1932 69.8044-44.2847 70.1056-44.0171C70.4067-43.7494 70.3771-43.2425 70.3452-43.1066C70.0902-42.0193 56.9131-30.0337 56.1547-29.246C53.257-26.2363 49.9608-24.3947 55.0455-21.044C56.898-19.8232 58.4245-18.7885 59.9094-17.7779L61.0197-17.0219C62.6869-15.887 64.3915-14.7312 66.5385-13.3238C69.4352-11.425 71.7062-9.17336 74.6969-9.44857C76.073-9.5752 77.4945-10.8692 78.2164-14.7285C79.9225-23.8492 83.2761-43.611 84.0511-51.7544C84.119-52.4679 84.0336-53.381 83.965-53.7818C83.8964-54.1826 83.7531-54.7537 83.2321-55.1765C82.615-55.6772 81.6625-55.7827 81.2364-55.7756Z"/>
  </g>
  <g id="Semibold-M" transform="matrix(1 0 0 1 1983.74 1126)">
   <path class="monochrome-0 multicolor-0:custom hierarchical-0:tertiary SFSymbolsPreview2AABEE" d="M59.68-86.1436C87.8465-86.1436 110.68-63.3101 110.68-35.1436C110.68-6.97708 87.8465 15.8564 59.68 15.8564C31.5135 15.8564 8.68-6.97708 8.68-35.1436C8.68-63.3101 31.5135-86.1436 59.68-86.1436Z"/>
   <path class="monochrome-1 multicolor-1:white hierarchical-1:primary SFSymbolsPreviewFFFFFF" d="M80.532-55.4416L80.4025-55.4378C80.3369-55.4351 80.2699-55.4313 80.2011-55.4261L80.061-55.4139C79.3955-55.3481 78.554-55.1573 77.2295-54.7249L76.9382-54.6284C74.2976-53.7434 69.8481-51.9623 61.5076-48.4931C56.5471-46.4299 46.633-42.1595 31.7655-35.6819C29.3512-34.7219 28.0865-33.7827 27.9714-32.8643C27.7504-31.1011 30.2888-30.5522 33.4827-29.514C36.0867-28.6675 39.5895-27.6773 41.4104-27.6379C43.0622-27.6022 44.9058-28.2832 46.9412-29.6809C60.8324-39.0578 68.0031-43.7974 68.4533-43.8996C68.7709-43.9717 69.211-44.0623 69.5092-43.7972C69.8074-43.5322 69.7781-43.0302 69.7465-42.8956C69.4939-41.8188 56.4448-29.9496 55.6938-29.1696C55.2523-28.7111 54.8015-28.2799 54.373-27.8665L54.1188-27.6205C51.9018-25.4648 50.4896-23.7528 54.5953-21.0472C58.9523-18.176 61.4881-16.3443 65.9768-13.402C68.8453-11.5216 71.0943-9.29181 74.0559-9.56435C75.4187-9.68975 76.8264-10.9712 77.5413-14.793C79.2309-23.8252 82.5519-43.3951 83.3194-51.4595C83.3866-52.166 83.302-53.0702 83.2341-53.4672C83.1662-53.8641 83.0242-54.4296 82.5083-54.8483C81.8972-55.3441 80.9539-55.4487 80.532-55.4416Z"/>
  </g>
  <g id="Medium-M" transform="matrix(1 0 0 1 1687.53 1126)">
   <path class="monochrome-0 multicolor-0:custom hierarchical-0:tertiary SFSymbolsPreview2AABEE" d="M59.18-85.6621C87.0704-85.6621 109.68-63.0525 109.68-35.1621C109.68-7.27172 87.0704 15.3379 59.18 15.3379C31.2896 15.3379 8.68-7.27172 8.68-35.1621C8.68-63.0525 31.2896-85.6621 59.18-85.6621Z"/>
   <path class="monochrome-1 multicolor-1:white hierarchical-1:primary SFSymbolsPreviewFFFFFF" d="M79.8276-55.2611L79.6993-55.2574C79.656-55.2556 79.6121-55.2533 79.5674-55.2504L79.4312-55.2401C77.4902-55.0708 74.0791-53.8251 60.9896-48.3808C59.3012-47.6785 57.0331-46.7179 54.1855-45.4992L52.9882-44.9862C47.6599-42.7007 40.5103-39.6037 31.5392-35.6952C29.1486-34.7445 27.8963-33.8145 27.7823-32.9051C27.5634-31.1592 30.077-30.6157 33.2395-29.5877C35.818-28.7495 39.2864-27.769 41.0895-27.73C42.7251-27.6947 44.5506-28.369 46.5661-29.7529C60.3211-39.0379 67.4215-43.731 67.8673-43.8322C68.1817-43.9036 68.6176-43.9933 68.9128-43.7309C69.2081-43.4684 69.1791-42.9714 69.1478-42.8381C69.0341-42.3534 66.3025-39.6608 63.2864-36.7951L62.6801-36.2202L62.0704-35.6444C58.8166-32.5769 55.5934-29.6212 55.2329-29.2467C52.3914-26.2954 49.1592-24.4896 54.1452-21.2039C58.4595-18.3608 60.9704-16.5472 65.4151-13.6336C68.2555-11.7717 70.4824-9.56376 73.415-9.83362C74.7644-9.9578 76.1583-11.2267 76.8662-15.0111C78.5392-23.9547 81.8276-43.3327 82.5876-51.318C82.6542-52.0176 82.5704-52.913 82.5032-53.306C82.4359-53.6991 82.2953-54.2591 81.7845-54.6736C81.1794-55.1646 80.2453-55.2681 79.8276-55.2611Z"/>
  </g>
  <g id="Regular-M" transform="matrix(1 0 0 1 1391.32 1126)">
   <path class="monochrome-0 multicolor-0:custom hierarchical-0:tertiary SFSymbolsPreview2AABEE" d="M58.68-85C86.2942-85 108.68-62.6142 108.68-35C108.68-7.38576 86.2942 15 58.68 15C31.0658 15 8.68-7.38576 8.68-35C8.68-62.6142 31.0658-85 58.68-85Z"/>
   <path class="monochrome-1 multicolor-1:white hierarchical-1:primary SFSymbolsPreviewFFFFFF" d="M79.1231-54.9C78.9118-54.8962 78.6879-54.8802 78.437-54.8466L78.2832-54.8242C76.2645-54.5092 72.485-53.0845 60.4717-48.0878C55.6085-46.065 45.8889-41.8783 31.3128-35.5278C28.9459-34.5865 27.706-33.6657 27.5932-32.7654C27.3764-31.0367 29.8651-30.4986 32.9964-29.4808C35.5493-28.6509 38.9834-27.6801 40.7687-27.6415C42.3881-27.6065 44.1955-28.2741 46.191-29.6444C51.2002-33.0257 55.318-35.792 58.5445-37.9432L59.139-38.3394C64.2983-41.775 67.0124-43.5233 67.2812-43.5843C67.5926-43.655 68.0241-43.7438 68.3165-43.484C68.6088-43.2241 68.5801-42.732 68.5491-42.6C68.4291-42.0882 65.3598-39.089 62.1455-36.0476L61.5418-35.4775C58.3202-32.4404 55.1289-29.5139 54.7719-29.1431C51.9586-26.2211 48.7584-24.4331 53.695-21.18C57.9666-18.3651 60.4527-16.5694 64.8533-13.6847C67.6656-11.8412 69.8705-9.65511 72.7741-9.9223C74.1101-10.0452 75.4902-11.3016 76.1911-15.0485C77.8475-23.9035 81.1034-43.0898 81.8559-50.9959C81.9218-51.6886 81.8389-52.5751 81.7723-52.9643C81.7057-53.3534 81.5665-53.9079 81.0606-54.3183C80.4616-54.8044 79.5368-54.9069 79.1231-54.9Z"/>
  </g>
  <g id="Light-M" transform="matrix(1 0 0 1 1095.61 1126)">
   <path class="monochrome-0 multicolor-0:custom hierarchical-0:tertiary SFSymbolsPreview2AABEE" d="M57.68-84.2128C84.742-84.2128 106.68-62.2748 106.68-35.2128C106.68-8.15085 84.742 13.7872 57.68 13.7872C30.618 13.7872 8.68-8.15085 8.68-35.2128C8.68-62.2748 30.618-84.2128 57.68-84.2128Z"/>
   <path class="monochrome-1 multicolor-1:white hierarchical-1:primary SFSymbolsPreviewFFFFFF" d="M77.7143-54.7148C75.8713-54.682 73.0437-53.6988 59.4359-48.0388C54.6699-46.0565 45.1447-41.9536 30.8602-35.73C28.5406-34.8076 27.3255-33.9052 27.2149-33.0229C27.0025-31.3288 29.4414-30.8014 32.51-29.8039C35.0119-28.9907 38.3773-28.0393 40.1269-28.0015C41.7139-27.9672 43.4852-28.6215 45.4407-29.9643C58.0112-38.4497 64.8537-42.9827 65.9683-43.5631L66.0404-43.5989C66.0712-43.6131 66.0941-43.622 66.1092-43.6254C66.4144-43.6947 66.8372-43.7817 67.1237-43.5271C67.4103-43.2724 67.3821-42.7901 67.3517-42.6608C67.1091-41.6263 54.5716-30.2225 53.8501-29.4731C51.093-26.6095 47.9569-24.8573 52.7947-21.6692C56.9809-18.9106 59.4172-17.1508 63.7299-14.3238C66.4859-12.5172 68.6467-10.3748 71.4922-10.6367C72.8015-10.7571 74.154-11.9883 74.8409-15.6603C76.4642-24.3383 79.6549-43.1408 80.3923-50.8888C80.457-51.5676 80.3757-52.4364 80.3104-52.8178C80.2451-53.1992 80.1088-53.7425 79.613-54.1448C79.026-54.6211 78.1196-54.7216 77.7143-54.7148Z"/>
  </g>
  <g id="Thin-M" transform="matrix(1 0 0 1 799.897 1126)">
   <path class="monochrome-0 multicolor-0:custom hierarchical-0:tertiary SFSymbolsPreview2AABEE" d="M56.68-83.1265C83.1897-83.1265 104.68-61.6362 104.68-35.1265C104.68-8.61683 83.1897 12.8735 56.68 12.8735C30.1703 12.8735 8.68-8.61683 8.68-35.1265C8.68-61.6362 30.1703-83.1265 56.68-83.1265Z"/>
   <path class="monochrome-1 multicolor-1:white hierarchical-1:primary SFSymbolsPreviewFFFFFF" d="M76.3054-54.2305L76.1793-54.2268C74.3671-54.1517 71.4237-53.1078 58.4001-47.6908C53.7313-45.7489 44.4005-41.7297 30.4075-35.6332C28.1353-34.7296 26.945-33.8456 26.8366-32.9813C26.6286-31.3218 29.0177-30.8052 32.0237-29.828C34.4745-29.0314 37.7713-28.0994 39.4851-28.0623C41.0397-28.0287 42.7749-28.6697 44.6905-29.9851C57.7646-38.8105 64.5135-43.2712 64.9372-43.3674C65.2361-43.4353 65.6504-43.5206 65.931-43.2711C66.2117-43.0216 66.1841-42.5492 66.1544-42.4225C65.924-41.4403 54.3795-30.9159 53.0257-29.6007L52.9283-29.5039C50.2275-26.6988 47.1553-24.9823 51.8944-21.8593C55.9951-19.157 58.3818-17.4331 62.6064-14.6638C65.3062-12.894 67.4228-10.7954 70.2103-11.0519C71.4929-11.1699 72.8178-12.376 73.4907-15.973C74.2424-19.9916 75.3372-26.2266 76.3591-32.4862L76.5934-33.9302C77.6404-40.421 78.5742-46.7566 78.9288-50.4826C78.9921-51.1476 78.9125-51.9986 78.8486-52.3722C78.7846-52.7458 78.651-53.2781 78.1654-53.6721C77.5903-54.1387 76.7025-54.2372 76.3054-54.2305Z"/>
  </g>
  <g id="Ultralight-M" transform="matrix(1 0 0 1 504.186 1126)">
   <path class="monochrome-0 multicolor-0:custom hierarchical-0:tertiary SFSymbolsPreview2AABEE" d="M55.68-82.5701C81.6374-82.5701 102.68-61.5275 102.68-35.5701C102.68-9.61272 81.6374 11.4299 55.68 11.4299C29.7226 11.4299 8.68-9.61272 8.68-35.5701C8.68-61.5275 29.7226-82.5701 55.68-82.5701Z"/>
   <path class="monochrome-1 multicolor-1:white hierarchical-1:primary SFSymbolsPreviewFFFFFF" d="M74.8966-54.2761C73.1288-54.2446 70.4166-53.3016 57.3642-47.8726C55.4907-47.0933 52.8504-45.9724 49.4433-44.5099L48.6109-44.1523C43.8104-42.0888 37.5917-39.3935 29.9549-36.0662C27.73-35.1815 26.5645-34.3159 26.4584-33.4695C26.2547-31.8446 28.594-31.3388 31.5374-30.382C33.9371-29.602 37.1652-28.6894 38.8433-28.6531C40.3656-28.6202 42.0646-29.2478 43.9403-30.5358C56.742-39.1773 63.3503-43.5452 63.7652-43.6393C64.0579-43.7058 64.4635-43.7893 64.7383-43.545C65.0131-43.3008 64.9861-42.8382 64.957-42.7141C64.7315-41.7528 53.4386-31.4574 52.1038-30.1614L52.0064-30.0647C51.4428-29.4793 50.8627-28.9423 50.3437-28.4302L50.1087-28.1954C48.345-26.4081 47.4948-24.8853 50.9941-22.5793C52.7787-21.4033 54.2317-20.4165 55.6586-19.445L56.7286-18.7165C58.1614-17.7418 59.6444-16.7389 61.4829-15.5337C64.1265-13.8008 66.199-11.7459 68.9284-11.9971C70.1843-12.1126 71.4816-13.2936 72.1404-16.8157C73.6975-25.1394 76.758-43.1745 77.4653-50.6063C77.5273-51.2574 77.4493-52.0907 77.3867-52.4565C77.3241-52.8223 77.1933-53.3435 76.7178-53.7293C76.1547-54.1863 75.2854-54.2826 74.8966-54.2761Z"/>
  </g>
  <g id="Black-S" transform="matrix(1 0 0 1 2882.88 696)">
   <path class="monochrome-0 multicolor-0:custom hierarchical-0:tertiary SFSymbolsPreview2AABEE" d="M50.68-77.1973C73.876-77.1973 92.68-58.3933 92.68-35.1973C92.68-12.0013 73.876 6.8027 50.68 6.8027C27.484 6.8027 8.68-12.0013 8.68-35.1973C8.68-58.3933 27.484-77.1973 50.68-77.1973Z"/>
   <path class="monochrome-1 multicolor-1:white hierarchical-1:primary SFSymbolsPreviewFFFFFF" d="M67.8522-51.9133L67.7305-51.9095C66.1439-51.8399 63.5536-50.9196 52.185-46.191C48.0999-44.4919 39.9354-40.9751 27.6916-35.6406C25.7034-34.85 24.6619-34.0765 24.567-33.3202C24.385-31.8682 26.4755-31.4161 29.1057-30.5611C31.2502-29.8641 34.1349-29.0486 35.6345-29.0162C36.9948-28.9868 38.513-29.5476 40.1892-30.6986C51.629-38.4208 57.5343-42.3239 57.905-42.4081C58.1666-42.4675 58.5291-42.5421 58.7746-42.3238C59.0202-42.1055 58.9961-41.6922 58.9701-41.5813C58.8695-41.1527 56.3071-38.6478 53.6163-36.1013L52.7797-35.3119C50.1801-32.8659 47.6858-30.5773 47.3972-30.2775C45.034-27.823 42.3459-26.3211 46.4926-23.5885C47.9701-22.6149 49.1932-21.7864 50.3791-20.9794L51.3915-20.2902C52.7427-19.3705 54.1261-18.4327 55.8656-17.2924C58.2279-15.7439 60.08-13.9076 62.519-14.132C63.6413-14.2353 64.8006-15.2906 65.3893-18.438C66.7807-25.8763 69.5157-41.9927 70.1477-48.6339C70.2031-49.2157 70.1334-49.9604 70.0775-50.2873C70.0216-50.6142 69.9046-51.0799 69.4797-51.4247C68.9765-51.833 68.1997-51.9191 67.8522-51.9133Z"/>
  </g>
  <g id="Heavy-S" transform="matrix(1 0 0 1 2586.66 696)">
   <path class="monochrome-0 multicolor-0:custom hierarchical-0:tertiary SFSymbolsPreview2AABEE" d="M50.18-76.598C73.0998-76.598 91.68-58.0178 91.68-35.098C91.68-12.1782 73.0998 6.402 50.18 6.402C27.2602 6.402 8.68-12.1782 8.68-35.098C8.68-58.0178 27.2602-76.598 50.18-76.598Z"/>
   <path class="monochrome-1 multicolor-1:white hierarchical-1:primary SFSymbolsPreviewFFFFFF" d="M67.1478-51.615C67.0878-51.6139 67.0265-51.6117 66.9635-51.608L66.8352-51.5989C65.2424-51.4642 62.4533-50.4472 51.6671-45.9609C47.6306-44.2819 39.5634-40.807 27.4653-35.5361C25.5007-34.7548 24.4716-33.9906 24.3779-33.2433C24.1981-31.8085 26.2636-31.3618 28.8626-30.517C30.9815-29.8283 33.8318-29.0225 35.3136-28.9904C36.6577-28.9614 38.1579-29.5155 39.8141-30.6528C51.1177-38.2831 56.9527-42.1398 57.319-42.223C57.5775-42.2816 57.9356-42.3554 58.1783-42.1397C58.4209-41.924 58.3971-41.5155 58.3714-41.406C58.1659-40.5298 47.5474-30.8715 46.9363-30.2368C46.4447-29.7262 45.9389-29.2573 45.4849-28.8101L45.2625-28.5881C43.7039-27.0092 42.9515-25.6643 46.0425-23.6274C49.5879-21.291 51.6513-19.8006 55.3039-17.4063C57.6381-15.8762 59.4681-14.0617 61.8781-14.2835C62.987-14.3856 64.1325-15.4283 64.7142-18.5382C66.089-25.8879 68.7914-41.8125 69.416-48.3746C69.4707-48.9496 69.4018-49.6853 69.3466-50.0083C69.2913-50.3313 69.1758-50.7915 68.7559-51.1322C68.2587-51.5357 67.4911-51.6208 67.1478-51.615Z"/>
  </g>
  <g id="Bold-S" transform="matrix(1 0 0 1 2291.45 696)">
   <path class="monochrome-0 multicolor-0:custom hierarchical-0:tertiary SFSymbolsPreview2AABEE" d="M48.68-75C70.7714-75 88.68-57.0914 88.68-35C88.68-12.9086 70.7714 5 48.68 5C26.5886 5 8.68-12.9086 8.68-35C8.68-57.0914 26.5886-75 48.68-75Z"/>
   <path class="monochrome-1 multicolor-1:white hierarchical-1:primary SFSymbolsPreviewFFFFFF" d="M65.0345-50.92L64.9123-50.9161C63.4007-50.8477 60.9256-49.9674 50.1134-45.4702C46.2228-43.852 38.4471-40.5027 26.7863-35.4222C24.8927-34.6692 23.9008-33.9326 23.8105-33.2123C23.6372-31.8294 25.6281-31.3989 28.1331-30.5846C30.1754-29.9207 32.9227-29.1441 34.3509-29.1132C35.6464-29.0852 37.0924-29.6193 38.6888-30.7155C49.5838-38.07 55.2079-41.7873 55.561-41.8674C55.8101-41.924 56.1553-41.995 56.3892-41.7872C56.6231-41.5793 56.6001-41.1856 56.5753-41.08C56.4763-40.6577 53.8681-38.1193 51.211-35.61L50.6614-35.0919C48.1922-32.7689 45.8278-30.5993 45.5536-30.3145C43.3029-27.9769 40.7428-26.5465 44.692-23.944C48.1093-21.6921 50.0982-20.2555 53.6187-17.9477C55.8685-16.473 57.6324-14.7241 59.9552-14.9378C61.0241-15.0362 62.1282-16.0413 62.6889-19.0388C64.014-26.1228 66.6187-41.4718 67.2207-47.7967C67.2734-48.3509 67.2071-49.0601 67.1538-49.3714C67.1005-49.6827 66.9892-50.1263 66.5845-50.4547C66.1053-50.8435 65.3654-50.9255 65.0345-50.92Z"/>
  </g>
  <g id="Semibold-S" transform="matrix(1 0 0 1 1994.74 696)">
   <path class="monochrome-0 multicolor-0:custom hierarchical-0:tertiary SFSymbolsPreview2AABEE" d="M48.68-75.4656C70.7714-75.4656 88.68-57.557 88.68-35.4656C88.68-13.3742 70.7714 4.5344 48.68 4.5344C26.5886 4.5344 8.68-13.3742 8.68-35.4656C8.68-57.557 26.5886-75.4656 48.68-75.4656Z"/>
   <path class="monochrome-1 multicolor-1:white hierarchical-1:primary SFSymbolsPreviewFFFFFF" d="M65.0345-51.3856L64.9123-51.3817C63.4007-51.3133 60.9256-50.433 50.1134-45.9358C46.2228-44.3176 38.4471-40.9683 26.7863-35.8878C24.8927-35.1348 23.9008-34.3982 23.8105-33.6779C23.6372-32.295 25.6281-31.8645 28.1331-31.0502C30.1754-30.3863 32.9227-29.6097 34.3509-29.5788C35.6464-29.5508 37.0924-30.0849 38.6888-31.1811C49.5838-38.5356 55.2079-42.2529 55.561-42.333C55.8101-42.3896 56.1553-42.4606 56.3892-42.2528C56.6231-42.0449 56.6001-41.6512 56.5753-41.5456C56.4763-41.1233 53.8681-38.5849 51.211-36.0756L50.6614-35.5575C48.1922-33.2345 45.8278-31.0649 45.5536-30.7801C43.3029-28.4425 40.7428-27.0121 44.692-24.4096C48.1093-22.1577 50.0982-20.7211 53.6187-18.4133C55.8685-16.9386 57.6324-15.1897 59.9552-15.4034C61.0241-15.5018 62.1282-16.5069 62.6889-19.5044C64.014-26.5884 66.6187-41.9374 67.2207-48.2623C67.2734-48.8165 67.2071-49.5257 67.1538-49.837C67.1005-50.1483 66.9892-50.5919 66.5845-50.9203C66.1053-51.3091 65.3654-51.3911 65.0345-51.3856Z"/>
  </g>
  <g id="Medium-S" transform="matrix(1 0 0 1 1698.53 696)">
   <path class="monochrome-0 multicolor-0:custom hierarchical-0:tertiary SFSymbolsPreview2AABEE" d="M48.18-75.1152C69.9952-75.1152 87.68-57.4304 87.68-35.6152C87.68-13.8 69.9952 3.8848 48.18 3.8848C26.3648 3.8848 8.68-13.8 8.68-35.6152C8.68-57.4304 26.3648-75.1152 48.18-75.1152Z"/>
   <path class="monochrome-1 multicolor-1:white hierarchical-1:primary SFSymbolsPreviewFFFFFF" d="M64.3301-51.3362C62.8444-51.3097 60.565-50.5172 49.5955-45.9545C45.7535-44.3565 38.075-41.0491 26.5599-36.0322C24.6901-35.2886 23.7106-34.5611 23.6214-33.8498C23.4502-32.4842 25.4162-32.0591 27.8899-31.255C29.9067-30.5994 32.6197-29.8325 34.03-29.802C35.3094-29.7743 36.7372-30.3018 38.3137-31.3843C41.7989-33.7369 44.738-35.7127 47.1308-37.3115L48.0392-37.9179C52.4421-40.8537 54.754-42.3466 54.975-42.3968C55.221-42.4526 55.5619-42.5228 55.7928-42.3175C56.0238-42.1122 56.0011-41.7235 55.9766-41.6192C55.781-40.7852 45.6743-31.5924 45.0926-30.9883C42.8701-28.6799 40.342-27.2674 44.2419-24.6974C47.6164-22.4736 49.5804-21.055 53.0569-18.7761C55.2786-17.3197 57.0205-15.5927 59.3143-15.8038C60.3698-15.9009 61.4601-16.8934 62.0138-19.8535C62.6013-22.9943 63.4435-27.7804 64.2471-32.6665L64.4651-34.0004L64.6798-35.3323C65.4951-40.4251 66.2099-45.3202 66.4889-48.252C66.541-48.7992 66.4755-49.4995 66.4229-49.807C66.3703-50.1144 66.2603-50.5524 65.8607-50.8767C65.3875-51.2607 64.6568-51.3417 64.3301-51.3362Z"/>
  </g>
  <g id="Regular-S" transform="matrix(1 0 0 1 1401.32 696)">
   <path class="monochrome-0 multicolor-0:custom hierarchical-0:tertiary SFSymbolsPreview2AABEE" d="M48.68-75C70.7714-75 88.68-57.0914 88.68-35C88.68-12.9086 70.7714 5 48.68 5C26.5886 5 8.68-12.9086 8.68-35C8.68-57.0914 26.5886-75 48.68-75Z"/>
   <path class="monochrome-1 multicolor-1:white hierarchical-1:primary SFSymbolsPreviewFFFFFF" d="M65.0345-50.92L64.9123-50.9161C63.4007-50.8477 60.9256-49.9674 50.1134-45.4702C46.2228-43.852 38.4471-40.5027 26.7863-35.4222C24.8927-34.6692 23.9008-33.9326 23.8105-33.2123C23.6372-31.8294 25.6281-31.3989 28.1331-30.5846C30.1754-29.9207 32.9227-29.1441 34.3509-29.1132C35.6464-29.0852 37.0924-29.6193 38.6888-30.7155C49.5838-38.07 55.2079-41.7873 55.561-41.8674C55.8101-41.924 56.1553-41.995 56.3892-41.7872C56.6231-41.5793 56.6001-41.1856 56.5753-41.08C56.4763-40.6577 53.8681-38.1193 51.211-35.61L50.6614-35.0919C48.1922-32.7689 45.8278-30.5993 45.5536-30.3145C43.3029-27.9769 40.7428-26.5465 44.692-23.944C48.1093-21.6921 50.0982-20.2555 53.6187-17.9477C55.8685-16.473 57.6324-14.7241 59.9552-14.9378C61.0241-15.0362 62.1282-16.0413 62.6889-19.0388C64.014-26.1228 66.6187-41.4718 67.2207-47.7967C67.2734-48.3509 67.2071-49.0601 67.1538-49.3714C67.1005-49.6827 66.9892-50.1263 66.5845-50.4547C66.1053-50.8435 65.3654-50.9255 65.0345-50.92Z"/>
  </g>
  <g id="Light-S" transform="matrix(1 0 0 1 1105.61 696)">
   <path class="monochrome-0 multicolor-0:custom hierarchical-0:tertiary SFSymbolsPreview2AABEE" d="M47.68-73.9316C69.2191-73.9316 86.68-56.4707 86.68-34.9316C86.68-13.3925 69.2191 4.0684 47.68 4.0684C26.1409 4.0684 8.68-13.3925 8.68-34.9316C8.68-56.4707 26.1409-73.9316 47.68-73.9316Z"/>
   <path class="monochrome-1 multicolor-1:white hierarchical-1:primary SFSymbolsPreviewFFFFFF" d="M63.6257-50.4536C62.1588-50.4275 59.9083-49.6449 49.0775-45.1401C45.2842-43.5623 37.7029-40.2967 26.3336-35.3433C24.4874-34.6091 23.5203-33.8909 23.4323-33.1886C23.2632-31.8403 25.2044-31.4205 27.6468-30.6266C29.638-29.9793 32.3166-29.2221 33.7091-29.192C34.9723-29.1647 36.3821-29.6854 37.9385-30.7542C48.5612-37.9248 54.0447-41.5492 54.389-41.6273C54.6318-41.6825 54.9684-41.7518 55.1964-41.5491C55.4245-41.3464 55.4021-40.9625 55.3779-40.8596C55.2847-40.4621 52.9108-38.1412 50.4155-35.7794L49.8797-35.2734C47.378-32.9155 44.909-30.6512 44.6317-30.3633C44.5142-30.2412 44.3957-30.1216 44.2775-30.0043L44.0414-29.7725L43.8077-29.5461L43.5779-29.3245C41.7989-27.6063 40.56-26.2816 43.7917-24.152C47.1235-21.9564 49.0627-20.5557 52.4952-18.3056C54.6888-16.8677 56.4086-15.1626 58.6734-15.371C59.7155-15.4669 60.792-16.4468 61.3387-19.3694C62.6307-26.2764 65.1703-41.2416 65.7572-47.4084C65.8086-47.9487 65.7439-48.6402 65.692-48.9437C65.64-49.2473 65.5315-49.6797 65.1369-49.9999C64.6696-50.3791 63.9483-50.459 63.6257-50.4536Z"/>
  </g>
  <g id="Thin-S" transform="matrix(1 0 0 1 809.897 696)">
   <path class="monochrome-0 multicolor-0:custom hierarchical-0:tertiary SFSymbolsPreview2AABEE" d="M46.68-73.1973C67.6668-73.1973 84.68-56.1841 84.68-35.1973C84.68-14.2105 67.6668 2.8027 46.68 2.8027C25.6932 2.8027 8.68-14.2105 8.68-35.1973C8.68-56.1841 25.6932-73.1973 46.68-73.1973Z"/>
   <path class="monochrome-1 multicolor-1:white hierarchical-1:primary SFSymbolsPreviewFFFFFF" d="M62.2168-50.3213C60.7875-50.2959 58.5947-49.5334 48.0417-45.144C44.3456-43.6067 36.9587-40.4248 25.881-35.5984C24.0821-34.8831 23.1398-34.1833 23.054-33.499C22.8893-32.1852 24.7807-31.7762 27.1604-31.0027C29.1006-30.372 31.7106-29.6341 33.0674-29.6048C34.2981-29.5782 35.6718-30.0856 37.1883-31.127C47.5386-38.1138 52.8815-41.6452 53.2169-41.7214C53.4536-41.7751 53.7815-41.8426 54.0037-41.6451C54.2259-41.4476 54.2041-41.0736 54.1805-40.9733C53.9923-40.171 44.2694-31.3273 43.7099-30.7461C41.5717-28.5253 39.1396-27.1665 42.8914-24.6941C46.1378-22.5548 48.0272-21.19 51.3717-18.9977C53.5091-17.5966 55.1848-15.9352 57.3915-16.1382C58.4069-16.2317 59.4558-17.1865 59.9884-20.0341C61.2473-26.764 63.7218-41.3455 64.2937-47.3542C64.3438-47.8806 64.2807-48.5544 64.2301-48.8501C64.1795-49.1459 64.0737-49.5673 63.6893-49.8792C63.234-50.2487 62.5311-50.3266 62.2168-50.3213Z"/>
  </g>
  <g id="Ultralight-S" transform="matrix(1 0 0 1 514.186 696)">
   <path class="monochrome-0 multicolor-0:custom hierarchical-0:tertiary SFSymbolsPreview2AABEE" d="M45.68-72C66.1145-72 82.68-55.4345 82.68-35C82.68-14.5655 66.1145 2 45.68 2C25.2455 2 8.68-14.5655 8.68-35C8.68-55.4345 25.2455-72 45.68-72Z"/>
   <path class="monochrome-1 multicolor-1:white hierarchical-1:primary SFSymbolsPreviewFFFFFF" d="M60.8079-49.726C60.7687-49.7253 60.7289-49.724 60.6884-49.7221L60.5643-49.7145C59.1499-49.6064 56.7023-48.718 47.0059-44.685C43.4071-43.1881 36.2146-40.09 25.4283-35.3906C23.6768-34.694 22.7593-34.0126 22.6757-33.3464C22.5154-32.0672 24.357-31.669 26.6741-30.9158C28.5633-30.3017 31.1045-29.5832 32.4256-29.5547C33.624-29.5288 34.9615-30.0229 36.4381-31.0368C46.516-37.8397 51.7183-41.2782 52.0449-41.3524C52.2753-41.4047 52.5946-41.4704 52.811-41.2781C53.0273-41.0858 53.0061-40.7217 52.9832-40.624C52.7999-39.8428 43.3329-31.2318 42.788-30.6659C40.7062-28.5036 38.338-27.1805 41.9911-24.7732C45.1521-22.6902 46.9918-21.3613 50.2483-19.2267C52.3294-17.8625 53.9609-16.2448 56.1096-16.4425C57.0983-16.5335 58.1196-17.4632 58.6382-20.2359C59.864-26.7886 62.2733-40.9864 62.8301-46.837C62.8789-47.3496 62.8176-48.0056 62.7683-48.2936C62.719-48.5815 62.616-48.9918 62.2417-49.2956C61.7984-49.6553 61.114-49.7311 60.8079-49.726Z"/>
  </g>
 </g>
</svg>
