<?xml version="1.0" encoding="UTF-8"?>
<!--Generator: Apple Native CoreSVG 175.5-->
<!DOCTYPE svg
PUBLIC "-//W3C//DTD SVG 1.1//EN"
       "http://www.w3.org/Graphics/SVG/1.1/DTD/svg11.dtd">
<svg version="1.1" xmlns="http://www.w3.org/2000/svg" xmlns:xlink="http://www.w3.org/1999/xlink" width="3300" height="2200">
 <!--glyph: "", point size: 100.0, font version: "18.0d12e2", template writer version: "101"-->
 <style>.monochrome-0 {fill:#000000}
.monochrome-1 {fill:#000000}

.multicolor-0:custom {fill:#38C7FE}
.multicolor-1:custom {fill:#38C7FE}

.hierarchical-0:secondary {fill:#4D4D4D}
.hierarchical-1:primary {fill:#212121}

.SFSymbolsPreview38C7FE {fill:#38C7FE;opacity:1.0}
</style>
 <g id="Notes">
  <rect height="2200" id="artboard" style="fill:white;opacity:1" width="3300" x="0" y="0"/>
  <line style="fill:none;stroke:black;opacity:1;stroke-width:0.5;" x1="263" x2="3036" y1="292" y2="292"/>
  <text style="stroke:none;fill:black;font-family:sans-serif;font-size:13;font-weight:bold;" transform="matrix(1 0 0 1 263 322)">Weight/Scale Variations</text>
  <text style="stroke:none;fill:black;font-family:sans-serif;font-size:13;text-anchor:middle;" transform="matrix(1 0 0 1 559.711 322)">Ultralight</text>
  <text style="stroke:none;fill:black;font-family:sans-serif;font-size:13;text-anchor:middle;" transform="matrix(1 0 0 1 856.422 322)">Thin</text>
  <text style="stroke:none;fill:black;font-family:sans-serif;font-size:13;text-anchor:middle;" transform="matrix(1 0 0 1 1153.13 322)">Light</text>
  <text style="stroke:none;fill:black;font-family:sans-serif;font-size:13;text-anchor:middle;" transform="matrix(1 0 0 1 1449.84 322)">Regular</text>
  <text style="stroke:none;fill:black;font-family:sans-serif;font-size:13;text-anchor:middle;" transform="matrix(1 0 0 1 1746.56 322)">Medium</text>
  <text style="stroke:none;fill:black;font-family:sans-serif;font-size:13;text-anchor:middle;" transform="matrix(1 0 0 1 2043.27 322)">Semibold</text>
  <text style="stroke:none;fill:black;font-family:sans-serif;font-size:13;text-anchor:middle;" transform="matrix(1 0 0 1 2339.98 322)">Bold</text>
  <text style="stroke:none;fill:black;font-family:sans-serif;font-size:13;text-anchor:middle;" transform="matrix(1 0 0 1 2636.69 322)">Heavy</text>
  <text style="stroke:none;fill:black;font-family:sans-serif;font-size:13;text-anchor:middle;" transform="matrix(1 0 0 1 2933.4 322)">Black</text>
  <line style="fill:none;stroke:black;opacity:1;stroke-width:0.5;" x1="263" x2="3036" y1="1903" y2="1903"/>
  <g transform="matrix(1 0 0 1 263 1933)">
   <path d="M9.24805 0.830078C13.5547 0.830078 17.1387-2.74414 17.1387-7.05078C17.1387-11.3574 13.5449-14.9316 9.23828-14.9316C4.94141-14.9316 1.36719-11.3574 1.36719-7.05078C1.36719-2.74414 4.95117 0.830078 9.24805 0.830078ZM9.24805-0.654297C5.70312-0.654297 2.87109-3.49609 2.87109-7.05078C2.87109-10.6055 5.69336-13.4473 9.23828-13.4473C12.793-13.4473 15.6445-10.6055 15.6445-7.05078C15.6445-3.49609 12.8027-0.654297 9.24805-0.654297ZM5.6543-7.05078C5.6543-6.62109 5.95703-6.32812 6.40625-6.32812L8.50586-6.32812L8.50586-4.20898C8.50586-3.76953 8.79883-3.4668 9.22852-3.4668C9.67773-3.4668 9.9707-3.76953 9.9707-4.20898L9.9707-6.32812L12.0898-6.32812C12.5293-6.32812 12.832-6.62109 12.832-7.05078C12.832-7.49023 12.5293-7.79297 12.0898-7.79297L9.9707-7.79297L9.9707-9.90234C9.9707-10.3516 9.67773-10.6543 9.22852-10.6543C8.79883-10.6543 8.50586-10.3516 8.50586-9.90234L8.50586-7.79297L6.40625-7.79297C5.95703-7.79297 5.6543-7.49023 5.6543-7.05078Z"/>
  </g>
  <g transform="matrix(1 0 0 1 281.867 1933)">
   <path d="M11.709 2.91016C17.1582 2.91016 21.6699-1.61133 21.6699-7.05078C21.6699-12.5 17.1484-17.0117 11.6992-17.0117C6.25977-17.0117 1.74805-12.5 1.74805-7.05078C1.74805-1.61133 6.26953 2.91016 11.709 2.91016ZM11.709 1.25C7.09961 1.25 3.41797-2.44141 3.41797-7.05078C3.41797-11.6602 7.08984-15.3516 11.6992-15.3516C16.3086-15.3516 20.0098-11.6602 20.0098-7.05078C20.0098-2.44141 16.3184 1.25 11.709 1.25ZM7.17773-7.05078C7.17773-6.57227 7.50977-6.25 8.00781-6.25L10.8789-6.25L10.8789-3.36914C10.8789-2.88086 11.2109-2.53906 11.6895-2.53906C12.1777-2.53906 12.5195-2.87109 12.5195-3.36914L12.5195-6.25L15.4004-6.25C15.8887-6.25 16.2305-6.57227 16.2305-7.05078C16.2305-7.53906 15.8887-7.88086 15.4004-7.88086L12.5195-7.88086L12.5195-10.752C12.5195-11.25 12.1777-11.5918 11.6895-11.5918C11.2109-11.5918 10.8789-11.25 10.8789-10.752L10.8789-7.88086L8.00781-7.88086C7.50977-7.88086 7.17773-7.53906 7.17773-7.05078Z"/>
  </g>
  <g transform="matrix(1 0 0 1 305.646 1933)">
   <path d="M14.9707 5.66406C21.9336 5.66406 27.6953-0.0976562 27.6953-7.05078C27.6953-14.0137 21.9238-19.7754 14.9609-19.7754C8.00781-19.7754 2.25586-14.0137 2.25586-7.05078C2.25586-0.0976562 8.01758 5.66406 14.9707 5.66406ZM14.9707 3.84766C8.93555 3.84766 4.08203-1.01562 4.08203-7.05078C4.08203-13.0957 8.92578-17.9492 14.9609-17.9492C21.0059-17.9492 25.8691-13.0957 25.8691-7.05078C25.8691-1.01562 21.0156 3.84766 14.9707 3.84766ZM9.19922-7.05078C9.19922-6.5332 9.57031-6.17188 10.1172-6.17188L14.0625-6.17188L14.0625-2.2168C14.0625-1.67969 14.4336-1.29883 14.9512-1.29883C15.4883-1.29883 15.8594-1.66992 15.8594-2.2168L15.8594-6.17188L19.8145-6.17188C20.3516-6.17188 20.7324-6.5332 20.7324-7.05078C20.7324-7.59766 20.3613-7.96875 19.8145-7.96875L15.8594-7.96875L15.8594-11.9141C15.8594-12.4609 15.4883-12.8418 14.9512-12.8418C14.4336-12.8418 14.0625-12.4609 14.0625-11.9141L14.0625-7.96875L10.1172-7.96875C9.57031-7.96875 9.19922-7.59766 9.19922-7.05078Z"/>
  </g>
  <text style="stroke:none;fill:black;font-family:sans-serif;font-size:13;font-weight:bold;" transform="matrix(1 0 0 1 263 1953)">Design Variations</text>
  <text style="stroke:none;fill:black;font-family:sans-serif;font-size:13;" transform="matrix(1 0 0 1 263 1971)">Symbols are supported in up to nine weights and three scales.</text>
  <text style="stroke:none;fill:black;font-family:sans-serif;font-size:13;" transform="matrix(1 0 0 1 263 1989)">For optimal layout with text and other symbols, vertically align</text>
  <text style="stroke:none;fill:black;font-family:sans-serif;font-size:13;" transform="matrix(1 0 0 1 263 2007)">symbols with the adjacent text.</text>
  <line style="fill:none;stroke:#00AEEF;stroke-width:0.5;opacity:1.0;" x1="776" x2="776" y1="1919" y2="1933"/>
  <g transform="matrix(1 0 0 1 776 1933)">
   <path d="M3.31055 0.15625C3.82812 0.15625 4.08203-0.0390625 4.26758-0.585938L5.52734-4.0332L11.2891-4.0332L12.5488-0.585938C12.7344-0.0390625 12.9883 0.15625 13.4961 0.15625C14.0137 0.15625 14.3457-0.15625 14.3457-0.644531C14.3457-0.810547 14.3164-0.966797 14.2383-1.17188L9.6582-13.3691C9.43359-13.9648 9.0332-14.2676 8.4082-14.2676C7.80273-14.2676 7.39258-13.9746 7.17773-13.3789L2.59766-1.16211C2.51953-0.957031 2.49023-0.800781 2.49023-0.634766C2.49023-0.146484 2.80273 0.15625 3.31055 0.15625ZM6.00586-5.51758L8.37891-12.0898L8.42773-12.0898L10.8008-5.51758Z"/>
  </g>
  <line style="fill:none;stroke:#00AEEF;stroke-width:0.5;opacity:1.0;" x1="793.197" x2="793.197" y1="1919" y2="1933"/>
  <text style="stroke:none;fill:black;font-family:sans-serif;font-size:13;font-weight:bold;" transform="matrix(1 0 0 1 776 1953)">Margins</text>
  <text style="stroke:none;fill:black;font-family:sans-serif;font-size:13;" transform="matrix(1 0 0 1 776 1971)">Leading and trailing margins on the left and right side of each symbol</text>
  <text style="stroke:none;fill:black;font-family:sans-serif;font-size:13;" transform="matrix(1 0 0 1 776 1989)">can be adjusted by modifying the x-location of the margin guidelines.</text>
  <text style="stroke:none;fill:black;font-family:sans-serif;font-size:13;" transform="matrix(1 0 0 1 776 2007)">Modifications are automatically applied proportionally to all</text>
  <text style="stroke:none;fill:black;font-family:sans-serif;font-size:13;" transform="matrix(1 0 0 1 776 2025)">scales and weights.</text>
  <g transform="matrix(1 0 0 1 1289 1933)">
   <path d="M2.8418 1.86523L4.54102 3.57422C5.40039 4.44336 6.38672 4.38477 7.31445 3.35938L18.0078-8.42773L17.041-9.4043L6.42578 2.27539C6.07422 2.67578 5.74219 2.77344 5.27344 2.30469L4.10156 1.14258C3.63281 0.683594 3.74023 0.341797 4.14062-0.0195312L15.6152-10.8203L14.6387-11.7871L3.04688-0.898438C2.06055 0.0195312 1.98242 0.996094 2.8418 1.86523ZM9.25781-16.3281C8.83789-15.918 8.80859-15.3418 9.04297-14.9512C9.27734-14.5898 9.73633-14.3555 10.3809-14.5215C11.8457-14.8633 13.3691-14.9219 14.7949-13.9844L14.209-12.5293C13.8672-11.6992 14.043-11.1133 14.5801-10.5664L16.875-8.25195C17.3633-7.76367 17.7734-7.74414 18.3398-7.8418L19.4043-8.03711L20.0684-7.36328L20.0293-6.80664C19.9902-6.30859 20.1172-5.92773 20.6055-5.44922L21.3672-4.70703C21.8457-4.22852 22.4609-4.19922 22.9297-4.66797L25.8398-7.58789C26.3086-8.05664 26.2891-8.65234 25.8105-9.13086L25.0391-9.89258C24.5605-10.3711 24.1895-10.5273 23.7109-10.4883L23.1348-10.4395L22.4902-11.0742L22.7344-12.1973C22.8613-12.7637 22.7051-13.2031 22.1191-13.7891L19.9219-15.9766C16.582-19.2969 12.1484-19.2188 9.25781-16.3281ZM10.752-15.957C13.1836-17.7344 16.4746-17.4316 18.7012-15.2051L21.1328-12.793C21.3672-12.5586 21.4062-12.373 21.3379-12.0312L21.0156-10.5469L22.5195-9.0625L23.5059-9.12109C23.7598-9.13086 23.8379-9.11133 24.0332-8.91602L24.6094-8.33984L22.168-5.89844L21.5918-6.47461C21.3965-6.66992 21.3672-6.74805 21.377-7.01172L21.4453-7.98828L19.9512-9.47266L18.4277-9.21875C18.1055-9.15039 17.959-9.17969 17.7148-9.41406L15.7129-11.416C15.459-11.6504 15.4297-11.8164 15.5859-12.1875L16.4648-14.2773C14.9023-15.7324 12.8711-16.3574 10.8398-15.7617C10.6836-15.7227 10.625-15.8496 10.752-15.957Z"/>
  </g>
  <text style="stroke:none;fill:black;font-family:sans-serif;font-size:13;font-weight:bold;" transform="matrix(1 0 0 1 1289 1953)">Exporting</text>
  <text style="stroke:none;fill:black;font-family:sans-serif;font-size:13;" transform="matrix(1 0 0 1 1289 1971)">Symbols should be outlined when exporting to ensure the</text>
  <text style="stroke:none;fill:black;font-family:sans-serif;font-size:13;" transform="matrix(1 0 0 1 1289 1989)">design is preserved when submitting to Xcode.</text>
  <text id="template-version" style="stroke:none;fill:black;font-family:sans-serif;font-size:13;text-anchor:end;" transform="matrix(1 0 0 1 3036 1933)">Template v.4.0</text>
  <text style="stroke:none;fill:black;font-family:sans-serif;font-size:13;text-anchor:end;" transform="matrix(1 0 0 1 3036 1951)">Requires Xcode 14 or greater</text>
  <text id="descriptive-name" style="stroke:none;fill:black;font-family:sans-serif;font-size:13;text-anchor:end;" transform="matrix(1 0 0 1 3036 1969)">Generated from matrix</text>
  <text style="stroke:none;fill:black;font-family:sans-serif;font-size:13;text-anchor:end;" transform="matrix(1 0 0 1 3036 1987)">Typeset at 100 points</text>
  <text style="stroke:none;fill:black;font-family:sans-serif;font-size:13;" transform="matrix(1 0 0 1 263 726)">Small</text>
  <text style="stroke:none;fill:black;font-family:sans-serif;font-size:13;" transform="matrix(1 0 0 1 263 1156)">Medium</text>
  <text style="stroke:none;fill:black;font-family:sans-serif;font-size:13;" transform="matrix(1 0 0 1 263 1586)">Large</text>
 </g>
 <g id="Guides">
  <g id="H-reference" style="fill:#27AAE1;stroke:none;" transform="matrix(1 0 0 1 339 696)">
   <path d="M0.993654 0L3.63775 0L29.3281-67.1323L30.0303-67.1323L30.0303-70.459L28.1226-70.459ZM11.6885-24.4799L46.9815-24.4799L46.2315-26.7285L12.4385-26.7285ZM55.1196 0L57.7637 0L30.6382-70.459L29.4326-70.459L29.4326-67.1323Z"/>
  </g>
  <line id="Baseline-S" style="fill:none;stroke:#27AAE1;opacity:1;stroke-width:0.5;" x1="263" x2="3036" y1="696" y2="696"/>
  <line id="Capline-S" style="fill:none;stroke:#27AAE1;opacity:1;stroke-width:0.5;" x1="263" x2="3036" y1="625.541" y2="625.541"/>
  <g id="H-reference" style="fill:#27AAE1;stroke:none;" transform="matrix(1 0 0 1 339 1126)">
   <path d="M0.993654 0L3.63775 0L29.3281-67.1323L30.0303-67.1323L30.0303-70.459L28.1226-70.459ZM11.6885-24.4799L46.9815-24.4799L46.2315-26.7285L12.4385-26.7285ZM55.1196 0L57.7637 0L30.6382-70.459L29.4326-70.459L29.4326-67.1323Z"/>
  </g>
  <line id="Baseline-M" style="fill:none;stroke:#27AAE1;opacity:1;stroke-width:0.5;" x1="263" x2="3036" y1="1126" y2="1126"/>
  <line id="Capline-M" style="fill:none;stroke:#27AAE1;opacity:1;stroke-width:0.5;" x1="263" x2="3036" y1="1055.54" y2="1055.54"/>
  <g id="H-reference" style="fill:#27AAE1;stroke:none;" transform="matrix(1 0 0 1 339 1556)">
   <path d="M0.993654 0L3.63775 0L29.3281-67.1323L30.0303-67.1323L30.0303-70.459L28.1226-70.459ZM11.6885-24.4799L46.9815-24.4799L46.2315-26.7285L12.4385-26.7285ZM55.1196 0L57.7637 0L30.6382-70.459L29.4326-70.459L29.4326-67.1323Z"/>
  </g>
  <line id="Baseline-L" style="fill:none;stroke:#27AAE1;opacity:1;stroke-width:0.5;" x1="263" x2="3036" y1="1556" y2="1556"/>
  <line id="Capline-L" style="fill:none;stroke:#27AAE1;opacity:1;stroke-width:0.5;" x1="263" x2="3036" y1="1485.54" y2="1485.54"/>
  <line id="left-margin-Regular-M" style="fill:none;stroke:#00AEEF;stroke-width:0.5;opacity:1.0;" x1="1392.45" x2="1392.45" y1="1030.79" y2="1150.12"/>
  <line id="right-margin-Regular-M" style="fill:none;stroke:#00AEEF;stroke-width:0.5;opacity:1.0;" x1="1507.24" x2="1507.24" y1="1030.79" y2="1150.12"/>
 </g>
 <g id="Symbols">
  <g id="Regular-M" transform="matrix(1 0 0 1 1392.45 1126)">
   <path class="monochrome-0 multicolor-0:custom hierarchical-0:secondary SFSymbolsPreview38C7FE" d="M14.9212-77.9404L14.9212 7.94038L21.1 7.94038L21.1 10L12.55 10L12.55-80L21.1-80L21.1-77.9404L14.9212-77.9404ZM100.179 7.94038L100.179-77.9404L94-77.9404L94-80L102.55-80L102.55 10L94 10L94 7.94038L100.179 7.94038Z"/>
   <path class="monochrome-1 multicolor-1:custom hierarchical-1:primary SFSymbolsPreview38C7FE" d="M41.3327-50.7154L41.3327-46.3712L41.4538-46.3712C42.6135-48.0327 44.0154-49.3135 45.6423-50.2135C47.2692-51.1308 49.1558-51.5808 51.2673-51.5808C53.2923-51.5808 55.1442-51.1827 56.8231-50.4038C58.5019-49.625 59.7654-48.2231 60.6481-46.25C61.6-47.6519 62.8981-48.8981 64.525-49.9712C66.1519-51.0442 68.0904-51.5808 70.3231-51.5808C72.0192-51.5808 73.5942-51.3731 75.0481-50.9577C76.5019-50.5423 77.7308-49.8846 78.7692-48.9673C79.8077-48.05 80.6038-46.8731 81.1923-45.4019C81.7635-43.9308 82.0577-42.1654 82.0577-40.0885L82.0577-18.6096L73.2481-18.6096L73.2481-36.8C73.2481-37.8731 73.2135-38.8942 73.1269-39.8462C73.0404-40.7981 72.8154-41.6288 72.4519-42.3212C72.0712-43.0308 71.5346-43.5846 70.8077-44C70.0808-44.4154 69.0942-44.6231 67.8654-44.6231C66.6192-44.6231 65.6154-44.3808 64.8538-43.9135C64.0923-43.4288 63.4865-42.8231 63.0538-42.0442C62.6212-41.2827 62.3269-40.4173 62.1885-39.4308C62.05-38.4615 61.9635-37.475 61.9635-36.4885L61.9635-18.6096L53.1538-18.6096L53.1538-36.6096C53.1538-37.5615 53.1365-38.4962 53.0846-39.4308C53.05-40.3654 52.8596-41.2135 52.5481-42.0096C52.2365-42.7885 51.7173-43.4288 50.9904-43.8962C50.2635-44.3635 49.2077-44.6058 47.7885-44.6058C47.3731-44.6058 46.8192-44.5192 46.1442-44.3288C45.4692-44.1385 44.7942-43.7923 44.1538-43.2731C43.5135-42.7538 42.9596-42.0096 42.5096-41.0404C42.0596-40.0712 41.8346-38.7904 41.8346-37.2154L41.8346-18.5923L33.025-18.5923L33.025-50.7154L41.3327-50.7154Z"/>
  </g>
  <g id="Black-S" transform="matrix(1 0 0 1 2883.51 696)">
   <path class="monochrome-0 multicolor-0:custom hierarchical-0:secondary SFSymbolsPreview38C7FE" d="M14.526-71.6235L14.526-0.0561462L19.675-0.0561462L19.675 1.6602L12.55 1.6602L12.55-73.3398L19.675-73.3398L19.675-71.6235L14.526-71.6235ZM85.574-0.0561462L85.574-71.6235L80.425-71.6235L80.425-73.3398L87.55-73.3398L87.55 1.6602L80.425 1.6602L80.425-0.0561462L85.574-0.0561462Z"/>
   <path class="monochrome-1 multicolor-1:custom hierarchical-1:primary SFSymbolsPreview38C7FE" d="M36.5356-48.936L36.5356-45.3158L36.6365-45.3158C37.6029-46.7004 38.7712-47.7677 40.1269-48.5177C41.4827-49.2821 43.0548-49.6571 44.8144-49.6571C46.5019-49.6571 48.0452-49.3254 49.4442-48.6763C50.8433-48.0273 51.8962-46.859 52.6317-45.2148C53.425-46.3831 54.5067-47.4215 55.8625-48.3158C57.2183-49.21 58.8337-49.6571 60.6942-49.6571C62.1077-49.6571 63.4202-49.484 64.6317-49.1379C65.8433-48.7917 66.8673-48.2436 67.7327-47.4792C68.5981-46.7148 69.2615-45.734 69.7519-44.5081C70.2279-43.2821 70.4731-41.811 70.4731-40.0802L70.4731-22.1811L63.1317-22.1811L63.1317-37.3398C63.1317-38.234 63.1029-39.085 63.0308-39.8783C62.9587-40.6715 62.7712-41.3638 62.4683-41.9408C62.151-42.5321 61.7038-42.9936 61.0981-43.3398C60.4923-43.686 59.6702-43.859 58.6462-43.859C57.6077-43.859 56.7712-43.6571 56.1365-43.2677C55.5019-42.8638 54.9971-42.359 54.6365-41.71C54.276-41.0754 54.0308-40.3542 53.9154-39.5321C53.8-38.7244 53.7279-37.9023 53.7279-37.0802L53.7279-22.1811L46.3865-22.1811L46.3865-37.1811C46.3865-37.9744 46.3721-38.7533 46.3288-39.5321C46.3-40.311 46.1413-41.0177 45.8817-41.6811C45.6221-42.3302 45.1894-42.8638 44.5837-43.2533C43.9779-43.6427 43.0981-43.8446 41.9154-43.8446C41.5692-43.8446 41.1077-43.7725 40.5452-43.6138C39.9827-43.4552 39.4202-43.1667 38.8865-42.734C38.3529-42.3013 37.8913-41.6811 37.5163-40.8735C37.1413-40.0658 36.9538-38.9985 36.9538-37.686L36.9538-22.1667L29.6125-22.1667L29.6125-48.936L36.5356-48.936Z"/>
  </g>
  <g id="Regular-S" transform="matrix(1 0 0 1 1401.95 696)">
   <path class="monochrome-0 multicolor-0:custom hierarchical-0:secondary SFSymbolsPreview38C7FE" d="M14.4206-69.176L14.4206-1.42561L19.295-1.42561L19.295 0.1992L12.55 0.1992L12.55-70.8008L19.295-70.8008L19.295-69.176L14.4206-69.176ZM81.6794-1.42561L81.6794-69.176L76.805-69.176L76.805-70.8008L83.55-70.8008L83.55 0.1992L76.805 0.1992L76.805-1.42561L81.6794-1.42561Z"/>
   <path class="monochrome-1 multicolor-1:custom hierarchical-1:primary SFSymbolsPreview38C7FE" d="M35.2563-47.6985L35.2563-44.2714L35.3519-44.2714C36.2667-45.5821 37.3727-46.5925 38.6562-47.3025C39.9396-48.0262 41.4279-48.3812 43.0937-48.3812C44.6912-48.3812 46.1521-48.0671 47.4765-47.4527C48.801-46.8383 49.7977-45.7323 50.494-44.1758C51.245-45.2818 52.269-46.2648 53.5525-47.1114C54.836-47.9579 56.3652-48.3812 58.1265-48.3812C59.4646-48.3812 60.7071-48.2173 61.854-47.8896C63.001-47.562 63.9704-47.0431 64.7896-46.3195C65.6088-45.5958 66.2369-44.6673 66.7012-43.5068C67.1517-42.3462 67.3838-40.9535 67.3838-39.315L67.3838-22.3706L60.434-22.3706L60.434-36.7208C60.434-37.5673 60.4067-38.3729 60.3385-39.1239C60.2702-39.8748 60.0927-40.5302 59.806-41.0764C59.5056-41.6362 59.0823-42.0731 58.5088-42.4008C57.9354-42.7285 57.1571-42.8923 56.1877-42.8923C55.2046-42.8923 54.4127-42.7012 53.8119-42.3325C53.2112-41.9502 52.7333-41.4723 52.3919-40.8579C52.0506-40.2571 51.8185-39.5745 51.7092-38.7962C51.6-38.0316 51.5317-37.2533 51.5317-36.475L51.5317-22.3706L44.5819-22.3706L44.5819-36.5706C44.5819-37.3216 44.5683-38.0589 44.5273-38.7962C44.5-39.5335 44.3498-40.2025 44.104-40.8306C43.8583-41.445 43.4487-41.9502 42.8752-42.3189C42.3017-42.6875 41.4688-42.8787 40.3492-42.8787C40.0215-42.8787 39.5846-42.8104 39.0521-42.6602C38.5196-42.51 37.9871-42.237 37.4819-41.8273C36.9767-41.4177 36.5398-40.8306 36.1848-40.066C35.8298-39.3014 35.6523-38.291 35.6523-37.0485L35.6523-22.357L28.7025-22.357L28.7025-47.6985L35.2563-47.6985Z"/>
  </g>
  <g id="Ultralight-S" transform="matrix(1 0 0 1 514.316 696)">
   <path class="monochrome-0 multicolor-0:custom hierarchical-0:secondary SFSymbolsPreview38C7FE" d="M14.2888-66.8294L14.2888-3.85018L18.82-3.85018L18.82-2.3398L12.55-2.3398L12.55-68.3398L18.82-68.3398L18.82-66.8294L14.2888-66.8294ZM76.8112-3.85018L76.8112-66.8294L72.28-66.8294L72.28-68.3398L78.55-68.3398L78.55-2.3398L72.28-2.3398L72.28-3.85018L76.8112-3.85018Z"/>
   <path class="monochrome-1 multicolor-1:custom hierarchical-1:primary SFSymbolsPreview38C7FE" d="M33.6573-46.8644L33.6573-43.6786L33.7462-43.6786C34.5965-44.8971 35.6246-45.8363 36.8177-46.4963C38.0108-47.169 39.3942-47.499 40.9427-47.499C42.4277-47.499 43.7858-47.2071 45.0169-46.636C46.2481-46.0648 47.1746-45.0367 47.8219-43.5898C48.52-44.6179 49.4719-45.5317 50.665-46.3186C51.8581-47.1056 53.2796-47.499 54.9169-47.499C56.1608-47.499 57.3158-47.3467 58.3819-47.0421C59.4481-46.7375 60.3492-46.2552 61.1108-45.5825C61.8723-44.9098 62.4562-44.0467 62.8877-42.9679C63.3065-41.889 63.5223-40.5944 63.5223-39.0713L63.5223-23.3202L57.0619-23.3202L57.0619-36.6598C57.0619-37.4467 57.0365-38.1956 56.9731-38.8936C56.9096-39.5917 56.7446-40.201 56.4781-40.7086C56.1988-41.229 55.8054-41.6352 55.2723-41.9398C54.7392-42.2444 54.0158-42.3967 53.1146-42.3967C52.2008-42.3967 51.4646-42.219 50.9062-41.8763C50.3477-41.521 49.9035-41.0767 49.5862-40.5056C49.2688-39.9471 49.0531-39.3125 48.9515-38.589C48.85-37.8783 48.7865-37.1548 48.7865-36.4313L48.7865-23.3202L42.3262-23.3202L42.3262-36.5202C42.3262-37.2183 42.3135-37.9036 42.2754-38.589C42.25-39.2744 42.1104-39.8963 41.8819-40.4802C41.6535-41.0513 41.2727-41.521 40.7396-41.8636C40.2065-42.2063 39.4323-42.384 38.3915-42.384C38.0869-42.384 37.6808-42.3206 37.1858-42.181C36.6908-42.0413 36.1958-41.7875 35.7262-41.4067C35.2565-41.026 34.8504-40.4802 34.5204-39.7694C34.1904-39.0586 34.0254-38.1194 34.0254-36.9644L34.0254-23.3075L27.565-23.3075L27.565-46.8644L33.6573-46.8644Z"/>
  </g>
 </g>
</svg>
