<?xml version="1.0" encoding="UTF-8"?>
<svg width="3300px" height="2200px" viewBox="0 0 3300 2200" version="1.1" xmlns="http://www.w3.org/2000/svg" xmlns:xlink="http://www.w3.org/1999/xlink">
    <title>mastodon.fill</title>
    <g id="mastodon.fill" stroke="none" fill="none" fill-rule="evenodd" stroke-width="1">
        <g id="Group">
            <g id="Notes">
                <rect id="artboard" fill="#FFFFFF" x="0" y="0" width="3300" height="2200"></rect>
                <line x1="263" y1="292" x2="3036" y2="292" id="Path" stroke="#000000" stroke-width="0.5"></line>
                <text id="Weight/Scale-Variations" fill="#000000" fill-rule="nonzero" font-family="Helvetica" font-size="13" font-weight="normal">
                    <tspan x="263" y="322">Weight/Scale Variations</tspan>
                </text>
                <text id="Ultralight" fill="#000000" fill-rule="nonzero" font-family="Helvetica" font-size="13" font-weight="normal">
                    <tspan x="533.711" y="322">Ultralight</tspan>
                </text>
                <text id="Thin" fill="#000000" fill-rule="nonzero" font-family="Helvetica" font-size="13" font-weight="normal">
                    <tspan x="843.422" y="322">Thin</tspan>
                </text>
                <text id="Light" fill="#000000" fill-rule="nonzero" font-family="Helvetica" font-size="13" font-weight="normal">
                    <tspan x="1138.63" y="322">Light</tspan>
                </text>
                <text id="Regular" fill="#000000" fill-rule="nonzero" font-family="Helvetica" font-size="13" font-weight="normal">
                    <tspan x="1426.84" y="322">Regular</tspan>
                </text>
                <text id="Medium" fill="#000000" fill-rule="nonzero" font-family="Helvetica" font-size="13" font-weight="normal">
                    <tspan x="1723.06" y="322">Medium</tspan>
                </text>
                <text id="Semibold" fill="#000000" fill-rule="nonzero" font-family="Helvetica" font-size="13" font-weight="normal">
                    <tspan x="2015.77" y="322">Semibold</tspan>
                </text>
                <text id="Bold" fill="#000000" fill-rule="nonzero" font-family="Helvetica" font-size="13" font-weight="normal">
                    <tspan x="2326.48" y="322">Bold</tspan>
                </text>
                <text id="Heavy" fill="#000000" fill-rule="nonzero" font-family="Helvetica" font-size="13" font-weight="normal">
                    <tspan x="2618.19" y="322">Heavy</tspan>
                </text>
                <text id="Black" fill="#000000" fill-rule="nonzero" font-family="Helvetica" font-size="13" font-weight="normal">
                    <tspan x="2917.4" y="322">Black</tspan>
                </text>
                <line x1="263" y1="1903" x2="3036" y2="1903" id="Path" stroke="#000000" stroke-width="0.5"></line>
                <g id="Group" transform="translate(263, 1933)" fill="#000000" fill-rule="nonzero">
                    <path d="M9.24805,0.830078 C13.5547,0.830078 17.1387,-2.74414 17.1387,-7.05078 C17.1387,-11.3574 13.5449,-14.9316 9.23828,-14.9316 C4.94141,-14.9316 1.36719,-11.3574 1.36719,-7.05078 C1.36719,-2.74414 4.95117,0.830078 9.24805,0.830078 Z M9.24805,-0.654297 C5.70312,-0.654297 2.87109,-3.49609 2.87109,-7.05078 C2.87109,-10.6055 5.69336,-13.4473 9.23828,-13.4473 C12.793,-13.4473 15.6445,-10.6055 15.6445,-7.05078 C15.6445,-3.49609 12.8027,-0.654297 9.24805,-0.654297 Z M5.6543,-7.05078 C5.6543,-6.62109 5.95703,-6.32812 6.40625,-6.32812 L8.50586,-6.32812 L8.50586,-4.20898 C8.50586,-3.76953 8.79883,-3.4668 9.22852,-3.4668 C9.67773,-3.4668 9.9707,-3.76953 9.9707,-4.20898 L9.9707,-6.32812 L12.0898,-6.32812 C12.5293,-6.32812 12.832,-6.62109 12.832,-7.05078 C12.832,-7.49023 12.5293,-7.79297 12.0898,-7.79297 L9.9707,-7.79297 L9.9707,-9.90234 C9.9707,-10.3516 9.67773,-10.6543 9.22852,-10.6543 C8.79883,-10.6543 8.50586,-10.3516 8.50586,-9.90234 L8.50586,-7.79297 L6.40625,-7.79297 C5.95703,-7.79297 5.6543,-7.49023 5.6543,-7.05078 Z" id="Shape"></path>
                </g>
                <g id="Group" transform="translate(281.867, 1933)" fill="#000000" fill-rule="nonzero">
                    <path d="M11.709,2.91016 C17.1582,2.91016 21.6699,-1.61133 21.6699,-7.05078 C21.6699,-12.5 17.1484,-17.0117 11.6992,-17.0117 C6.25977,-17.0117 1.74805,-12.5 1.74805,-7.05078 C1.74805,-1.61133 6.26953,2.91016 11.709,2.91016 Z M11.709,1.25 C7.09961,1.25 3.41797,-2.44141 3.41797,-7.05078 C3.41797,-11.6602 7.08984,-15.3516 11.6992,-15.3516 C16.3086,-15.3516 20.0098,-11.6602 20.0098,-7.05078 C20.0098,-2.44141 16.3184,1.25 11.709,1.25 Z M7.17773,-7.05078 C7.17773,-6.57227 7.50977,-6.25 8.00781,-6.25 L10.8789,-6.25 L10.8789,-3.36914 C10.8789,-2.88086 11.2109,-2.53906 11.6895,-2.53906 C12.1777,-2.53906 12.5195,-2.87109 12.5195,-3.36914 L12.5195,-6.25 L15.4004,-6.25 C15.8887,-6.25 16.2305,-6.57227 16.2305,-7.05078 C16.2305,-7.53906 15.8887,-7.88086 15.4004,-7.88086 L12.5195,-7.88086 L12.5195,-10.752 C12.5195,-11.25 12.1777,-11.5918 11.6895,-11.5918 C11.2109,-11.5918 10.8789,-11.25 10.8789,-10.752 L10.8789,-7.88086 L8.00781,-7.88086 C7.50977,-7.88086 7.17773,-7.53906 7.17773,-7.05078 Z" id="Shape"></path>
                </g>
                <g id="Group" transform="translate(305.646, 1933)" fill="#000000" fill-rule="nonzero">
                    <path d="M14.9707,5.66406 C21.9336,5.66406 27.6953,-0.0976562 27.6953,-7.05078 C27.6953,-14.0137 21.9238,-19.7754 14.9609,-19.7754 C8.00781,-19.7754 2.25586,-14.0137 2.25586,-7.05078 C2.25586,-0.0976562 8.01758,5.66406 14.9707,5.66406 Z M14.9707,3.84766 C8.93555,3.84766 4.08203,-1.01562 4.08203,-7.05078 C4.08203,-13.0957 8.92578,-17.9492 14.9609,-17.9492 C21.0059,-17.9492 25.8691,-13.0957 25.8691,-7.05078 C25.8691,-1.01562 21.0156,3.84766 14.9707,3.84766 Z M9.19922,-7.05078 C9.19922,-6.5332 9.57031,-6.17188 10.1172,-6.17188 L14.0625,-6.17188 L14.0625,-2.2168 C14.0625,-1.67969 14.4336,-1.29883 14.9512,-1.29883 C15.4883,-1.29883 15.8594,-1.66992 15.8594,-2.2168 L15.8594,-6.17188 L19.8145,-6.17188 C20.3516,-6.17188 20.7324,-6.5332 20.7324,-7.05078 C20.7324,-7.59766 20.3613,-7.96875 19.8145,-7.96875 L15.8594,-7.96875 L15.8594,-11.9141 C15.8594,-12.4609 15.4883,-12.8418 14.9512,-12.8418 C14.4336,-12.8418 14.0625,-12.4609 14.0625,-11.9141 L14.0625,-7.96875 L10.1172,-7.96875 C9.57031,-7.96875 9.19922,-7.59766 9.19922,-7.05078 Z" id="Shape"></path>
                </g>
                <text id="Design-Variations" fill="#000000" fill-rule="nonzero" font-family="Helvetica" font-size="13" font-weight="normal">
                    <tspan x="263" y="1953">Design Variations</tspan>
                </text>
                <text id="Symbols-are-supported-in-up-to-nine-weights-and-three-scales." fill="#000000" fill-rule="nonzero" font-family="Helvetica" font-size="13" font-weight="normal">
                    <tspan x="263" y="1971">Symbols are supported in up to nine weights and three scales.</tspan>
                </text>
                <text id="For-optimal-layout-with-text-and-other-symbols,-vertically-align" fill="#000000" fill-rule="nonzero" font-family="Helvetica" font-size="13" font-weight="normal">
                    <tspan x="263" y="1989">For optimal layout with text and other symbols, vertically align</tspan>
                </text>
                <text id="symbols-with-the-adjacent-text." fill="#000000" fill-rule="nonzero" font-family="Helvetica" font-size="13" font-weight="normal">
                    <tspan x="263" y="2007">symbols with the adjacent text.</tspan>
                </text>
                <line x1="776" y1="1919" x2="776" y2="1933" id="Path" stroke="#00AEEF" stroke-width="0.5"></line>
                <g id="Group" transform="translate(776, 1933)" fill="#000000" fill-rule="nonzero">
                    <path d="M3.31055,0.15625 C3.82812,0.15625 4.08203,-0.0390625 4.26758,-0.585938 L5.52734,-4.0332 L11.2891,-4.0332 L12.5488,-0.585938 C12.7344,-0.0390625 12.9883,0.15625 13.4961,0.15625 C14.0137,0.15625 14.3457,-0.15625 14.3457,-0.644531 C14.3457,-0.810547 14.3164,-0.966797 14.2383,-1.17188 L9.6582,-13.3691 C9.43359,-13.9648 9.0332,-14.2676 8.4082,-14.2676 C7.80273,-14.2676 7.39258,-13.9746 7.17773,-13.3789 L2.59766,-1.16211 C2.51953,-0.957031 2.49023,-0.800781 2.49023,-0.634766 C2.49023,-0.146484 2.80273,0.15625 3.31055,0.15625 Z M6.00586,-5.51758 L8.37891,-12.0898 L8.42773,-12.0898 L10.8008,-5.51758 L6.00586,-5.51758 Z" id="Shape"></path>
                </g>
                <line x1="793.197" y1="1919" x2="793.197" y2="1933" id="Path" stroke="#00AEEF" stroke-width="0.5"></line>
                <text id="Margins" fill="#000000" fill-rule="nonzero" font-family="Helvetica" font-size="13" font-weight="normal">
                    <tspan x="776" y="1953">Margins</tspan>
                </text>
                <text id="Leading-and-trailing-margins-on-the-left-and-right-side-of-each-symbol" fill="#000000" fill-rule="nonzero" font-family="Helvetica" font-size="13" font-weight="normal">
                    <tspan x="776" y="1971">Leading and trailing margins on the left and right side of each symbol</tspan>
                </text>
                <text id="can-be-adjusted-by-modifying-the-x-location-of-the-margin-guidelines." fill="#000000" fill-rule="nonzero" font-family="Helvetica" font-size="13" font-weight="normal">
                    <tspan x="776" y="1989">can be adjusted by modifying the x-location of the margin guidelines.</tspan>
                </text>
                <text id="Modifications-are-automatically-applied-proportionally-to-all" fill="#000000" fill-rule="nonzero" font-family="Helvetica" font-size="13" font-weight="normal">
                    <tspan x="776" y="2007">Modifications are automatically applied proportionally to all</tspan>
                </text>
                <text id="scales-and-weights." fill="#000000" fill-rule="nonzero" font-family="Helvetica" font-size="13" font-weight="normal">
                    <tspan x="776" y="2025">scales and weights.</tspan>
                </text>
                <g id="Group" transform="translate(1289, 1933)" fill="#000000" fill-rule="nonzero">
                    <path d="M2.8418,1.86523 L4.54102,3.57422 C5.40039,4.44336 6.38672,4.38477 7.31445,3.35938 L18.0078,-8.42773 L17.041,-9.4043 L6.42578,2.27539 C6.07422,2.67578 5.74219,2.77344 5.27344,2.30469 L4.10156,1.14258 C3.63281,0.683594 3.74023,0.341797 4.14062,-0.0195312 L15.6152,-10.8203 L14.6387,-11.7871 L3.04688,-0.898438 C2.06055,0.0195312 1.98242,0.996094 2.8418,1.86523 Z M9.25781,-16.3281 C8.83789,-15.918 8.80859,-15.3418 9.04297,-14.9512 C9.27734,-14.5898 9.73633,-14.3555 10.3809,-14.5215 C11.8457,-14.8633 13.3691,-14.9219 14.7949,-13.9844 L14.209,-12.5293 C13.8672,-11.6992 14.043,-11.1133 14.5801,-10.5664 L16.875,-8.25195 C17.3633,-7.76367 17.7734,-7.74414 18.3398,-7.8418 L19.4043,-8.03711 L20.0684,-7.36328 L20.0293,-6.80664 C19.9902,-6.30859 20.1172,-5.92773 20.6055,-5.44922 L21.3672,-4.70703 C21.8457,-4.22852 22.4609,-4.19922 22.9297,-4.66797 L25.8398,-7.58789 C26.3086,-8.05664 26.2891,-8.65234 25.8105,-9.13086 L25.0391,-9.89258 C24.5605,-10.3711 24.1895,-10.5273 23.7109,-10.4883 L23.1348,-10.4395 L22.4902,-11.0742 L22.7344,-12.1973 C22.8613,-12.7637 22.7051,-13.2031 22.1191,-13.7891 L19.9219,-15.9766 C16.582,-19.2969 12.1484,-19.2188 9.25781,-16.3281 Z M10.752,-15.957 C13.1836,-17.7344 16.4746,-17.4316 18.7012,-15.2051 L21.1328,-12.793 C21.3672,-12.5586 21.4062,-12.373 21.3379,-12.0312 L21.0156,-10.5469 L22.5195,-9.0625 L23.5059,-9.12109 C23.7598,-9.13086 23.8379,-9.11133 24.0332,-8.91602 L24.6094,-8.33984 L22.168,-5.89844 L21.5918,-6.47461 C21.3965,-6.66992 21.3672,-6.74805 21.377,-7.01172 L21.4453,-7.98828 L19.9512,-9.47266 L18.4277,-9.21875 C18.1055,-9.15039 17.959,-9.17969 17.7148,-9.41406 L15.7129,-11.416 C15.459,-11.6504 15.4297,-11.8164 15.5859,-12.1875 L16.4648,-14.2773 C14.9023,-15.7324 12.8711,-16.3574 10.8398,-15.7617 C10.6836,-15.7227 10.625,-15.8496 10.752,-15.957 Z" id="Shape"></path>
                </g>
                <text id="Exporting" fill="#000000" fill-rule="nonzero" font-family="Helvetica" font-size="13" font-weight="normal">
                    <tspan x="1289" y="1953">Exporting</tspan>
                </text>
                <text id="Symbols-should-be-outlined-when-exporting-to-ensure-the" fill="#000000" fill-rule="nonzero" font-family="Helvetica" font-size="13" font-weight="normal">
                    <tspan x="1289" y="1971">Symbols should be outlined when exporting to ensure the</tspan>
                </text>
                <text id="design-is-preserved-when-submitting-to-Xcode." fill="#000000" fill-rule="nonzero" font-family="Helvetica" font-size="13" font-weight="normal">
                    <tspan x="1289" y="1989">design is preserved when submitting to Xcode.</tspan>
                </text>
                <text id="template-version" fill="#000000" fill-rule="nonzero" font-family="Helvetica" font-size="13" font-weight="normal">
                    <tspan x="2952" y="1933">Template v.4.0</tspan>
                </text>
                <text id="Requires-Xcode-14-or-greater" fill="#000000" fill-rule="nonzero" font-family="Helvetica" font-size="13" font-weight="normal">
                    <tspan x="2865" y="1951">Requires Xcode 14 or greater</tspan>
                </text>
                <text id="descriptive-name" fill="#000000" fill-rule="nonzero" font-family="Helvetica" font-size="13" font-weight="normal">
                    <tspan x="2868" y="1969">Generated from mastodon.fill</tspan>
                </text>
                <text id="Typeset-at-100-points" fill="#000000" fill-rule="nonzero" font-family="Helvetica" font-size="13" font-weight="normal">
                    <tspan x="2912" y="1987">Typeset at 100 points</tspan>
                </text>
                <text id="Small" fill="#000000" fill-rule="nonzero" font-family="Helvetica" font-size="13" font-weight="normal">
                    <tspan x="263" y="726">Small</tspan>
                </text>
                <text id="Medium" fill="#000000" fill-rule="nonzero" font-family="Helvetica" font-size="13" font-weight="normal">
                    <tspan x="263" y="1156">Medium</tspan>
                </text>
                <text id="Large" fill="#000000" fill-rule="nonzero" font-family="Helvetica" font-size="13" font-weight="normal">
                    <tspan x="263" y="1586">Large</tspan>
                </text>
            </g>
            <g id="Guides">
                <g id="H-reference" transform="translate(339, 696)" fill="#27AAE1" fill-rule="nonzero">
                    <path d="M0.993654,0 L3.63775,0 L29.3281,-67.1323 L30.0303,-67.1323 L30.0303,-70.459 L28.1226,-70.459 L0.993654,0 Z M11.6885,-24.4799 L46.9815,-24.4799 L46.2315,-26.7285 L12.4385,-26.7285 L11.6885,-24.4799 Z M55.1196,0 L57.7637,0 L30.6382,-70.459 L29.4326,-70.459 L29.4326,-67.1323 L55.1196,0 Z" id="Shape"></path>
                </g>
                <line x1="263" y1="696" x2="3036" y2="696" id="Baseline-S" stroke="#27AAE1" stroke-width="0.5"></line>
                <line x1="263" y1="625.541" x2="3036" y2="625.541" id="Capline-S" stroke="#27AAE1" stroke-width="0.5"></line>
                <g id="H-reference" transform="translate(339, 1126)" fill="#27AAE1" fill-rule="nonzero">
                    <path d="M0.993654,0 L3.63775,0 L29.3281,-67.1323 L30.0303,-67.1323 L30.0303,-70.459 L28.1226,-70.459 L0.993654,0 Z M11.6885,-24.4799 L46.9815,-24.4799 L46.2315,-26.7285 L12.4385,-26.7285 L11.6885,-24.4799 Z M55.1196,0 L57.7637,0 L30.6382,-70.459 L29.4326,-70.459 L29.4326,-67.1323 L55.1196,0 Z" id="Shape"></path>
                </g>
                <line x1="263" y1="1126" x2="3036" y2="1126" id="Baseline-M" stroke="#27AAE1" stroke-width="0.5"></line>
                <line x1="263" y1="1055.54" x2="3036" y2="1055.54" id="Capline-M" stroke="#27AAE1" stroke-width="0.5"></line>
                <g id="H-reference" transform="translate(339, 1556)" fill="#27AAE1" fill-rule="nonzero">
                    <path d="M0.993654,0 L3.63775,0 L29.3281,-67.1323 L30.0303,-67.1323 L30.0303,-70.459 L28.1226,-70.459 L0.993654,0 Z M11.6885,-24.4799 L46.9815,-24.4799 L46.2315,-26.7285 L12.4385,-26.7285 L11.6885,-24.4799 Z M55.1196,0 L57.7637,0 L30.6382,-70.459 L29.4326,-70.459 L29.4326,-67.1323 L55.1196,0 Z" id="Shape"></path>
                </g>
                <line x1="263" y1="1556" x2="3036" y2="1556" id="Baseline-L" stroke="#27AAE1" stroke-width="0.5"></line>
                <line x1="263" y1="1485.54" x2="3036" y2="1485.54" id="Capline-L" stroke="#27AAE1" stroke-width="0.5"></line>
                <line x1="1392.45" y1="1030.79" x2="1392.45" y2="1150.12" id="left-margin-Regular-M" stroke="#00AEEF" stroke-width="0.5"></line>
                <line x1="1507.24" y1="1030.79" x2="1507.24" y2="1150.12" id="right-margin-Regular-M" stroke="#00AEEF" stroke-width="0.5"></line>
            </g>
            <g id="Symbols" fill="#563ACC">
                <g id="Black-L" transform="translate(2866, 1556)">
                    <path d="M67.7467,-86.9943 C82.8231,-86.872 97.3347,-85.2526 105.786,-81.4017 C105.786,-81.4017 122.546,-73.9622 122.546,-48.5813 L122.547,-48.5314 L122.547,-48.493 L122.548,-48.3844 C122.550009,-48.2764 122.550009,-48.1253 122.550009,-47.9341 L122.550009,-47.2433 C122.546,-44.3455 122.464,-37.1278 121.837,-29.4406 L121.765,-28.5848 C121.419,-24.5835 120.922,-20.4943 120.209,-16.854 C118.592,-8.60066 105.727,0.431784 90.9506,2.1823 C83.2456,3.09443 75.6594,3.93281 67.5701,3.56468 C54.3406,2.96332 43.9017,0.431784 43.9017,0.431784 C43.9017,1.70953 43.9811,2.92612 44.1399,4.06393 C45.6363,15.3333 54.3279,17.3856 63.5649,17.9671 L64.2027,18.0049 C64.7348,18.0347 65.2682,18.0602 65.8017,18.0829 L66.4417,18.1089 L67.0813,18.1327 C67.2944,18.1404 67.5073,18.1478 67.72,18.155 C78.4531,18.5194 88.0102,15.5296 88.0102,15.5296 L88.4511,25.1564 C88.4511,25.1564 88.4319,25.1667 88.3936,25.1863 L88.2219,25.272 C86.8705,25.933 79.5894,29.2306 67.5701,29.8917 C60.1955,30.2939 51.0387,29.7077 40.3735,26.907 C17.2427,20.8328 13.2647,-3.62963 12.656,-28.4507 C12.4705,-35.8203 12.5849,-42.7694 12.5849,-48.5813 C12.5849,-73.9622 29.3463,-81.4017 29.3463,-81.4017 C37.7978,-85.2526 52.2999,-86.872 67.3763,-86.9943 L67.7467,-86.9943 Z M84.7876,-67.1628 C78.5071,-67.1628 73.7515,-64.768 70.6077,-59.9779 L67.5504,-54.894 L64.4937,-59.9779 C61.3493,-64.768 56.5936,-67.1628 50.3137,-67.1628 C44.8859,-67.1628 40.5133,-65.2698 37.1745,-61.5771 C33.9367,-57.8845 32.3248,-52.8933 32.3248,-46.6123 L32.3248,-15.8803 L44.5968,-15.8803 L44.5968,-45.709 C44.5968,-51.9969 47.2634,-55.1884 52.5972,-55.1884 C58.4946,-55.1884 61.4509,-51.4025 61.4509,-43.9163 L61.4509,-27.5893 L73.6504,-27.5893 L73.6504,-43.9163 C73.6504,-51.4025 76.6061,-55.1884 82.5035,-55.1884 C87.8374,-55.1884 90.504,-51.9969 90.504,-45.709 L90.504,-15.8803 L102.776,-15.8803 L102.776,-46.6123 C102.776,-52.8933 101.164,-57.8845 97.9268,-61.5771 C94.5874,-65.2698 90.2149,-67.1628 84.7876,-67.1628 Z" id="Path-28"></path>
                </g>
                <g id="Heavy-L" transform="translate(2569.29, 1556)">
                    <path d="M67.7467,-86.9943 C82.8231,-86.872 97.3347,-85.2526 105.786,-81.4017 C105.786,-81.4017 122.546,-73.9622 122.546,-48.5813 L122.547,-48.5314 L122.547,-48.493 L122.548,-48.3844 C122.550009,-48.2764 122.550009,-48.1253 122.550009,-47.9341 L122.550009,-47.2433 C122.546,-44.3455 122.464,-37.1278 121.837,-29.4406 L121.765,-28.5848 C121.419,-24.5835 120.922,-20.4943 120.209,-16.854 C118.592,-8.60066 105.727,0.431784 90.9506,2.1823 C83.2456,3.09443 75.6594,3.93281 67.5701,3.56468 C54.3406,2.96332 43.9017,0.431784 43.9017,0.431784 C43.9017,1.70953 43.9811,2.92612 44.1399,4.06393 C45.6363,15.3333 54.3279,17.3856 63.5649,17.9671 L64.2027,18.0049 C64.7348,18.0347 65.2682,18.0602 65.8017,18.0829 L66.4417,18.1089 L67.0813,18.1327 C67.2944,18.1404 67.5073,18.1478 67.72,18.155 C78.4531,18.5194 88.0102,15.5296 88.0102,15.5296 L88.4511,25.1564 C88.4511,25.1564 88.4319,25.1667 88.3936,25.1863 L88.2219,25.272 C86.8705,25.933 79.5894,29.2306 67.5701,29.8917 C60.1955,30.2939 51.0387,29.7077 40.3735,26.907 C17.2427,20.8328 13.2647,-3.62963 12.656,-28.4507 C12.4705,-35.8203 12.5849,-42.7694 12.5849,-48.5813 C12.5849,-73.9622 29.3463,-81.4017 29.3463,-81.4017 C37.7978,-85.2526 52.2999,-86.872 67.3763,-86.9943 L67.7467,-86.9943 Z M84.7876,-67.1628 C78.5071,-67.1628 73.7515,-64.768 70.6077,-59.9779 L67.5504,-54.894 L64.4937,-59.9779 C61.3493,-64.768 56.5936,-67.1628 50.3137,-67.1628 C44.8859,-67.1628 40.5133,-65.2698 37.1745,-61.5771 C33.9367,-57.8845 32.3248,-52.8933 32.3248,-46.6123 L32.3248,-15.8803 L44.5968,-15.8803 L44.5968,-45.709 C44.5968,-51.9969 47.2634,-55.1884 52.5972,-55.1884 C58.4946,-55.1884 61.4509,-51.4025 61.4509,-43.9163 L61.4509,-27.5893 L73.6504,-27.5893 L73.6504,-43.9163 C73.6504,-51.4025 76.6061,-55.1884 82.5035,-55.1884 C87.8374,-55.1884 90.504,-51.9969 90.504,-45.709 L90.504,-15.8803 L102.776,-15.8803 L102.776,-46.6123 C102.776,-52.8933 101.164,-57.8845 97.9268,-61.5771 C94.5874,-65.2698 90.2149,-67.1628 84.7876,-67.1628 Z" id="Path-27"></path>
                </g>
                <g id="Bold-L" transform="translate(2272.58, 1556)">
                    <path d="M67.7467,-86.9943 C82.8231,-86.872 97.3347,-85.2526 105.786,-81.4017 C105.786,-81.4017 122.546,-73.9622 122.546,-48.5813 L122.547,-48.5314 L122.547,-48.493 L122.548,-48.3844 C122.550009,-48.2764 122.550009,-48.1253 122.550009,-47.9341 L122.550009,-47.2433 C122.546,-44.3455 122.464,-37.1278 121.837,-29.4406 L121.765,-28.5848 C121.419,-24.5835 120.922,-20.4943 120.209,-16.854 C118.592,-8.60066 105.727,0.431784 90.9506,2.1823 C83.2456,3.09443 75.6594,3.93281 67.5701,3.56468 C54.3406,2.96332 43.9017,0.431784 43.9017,0.431784 C43.9017,1.70953 43.9811,2.92612 44.1399,4.06393 C45.6363,15.3333 54.3279,17.3856 63.5649,17.9671 L64.2027,18.0049 C64.7348,18.0347 65.2682,18.0602 65.8017,18.0829 L66.4417,18.1089 L67.0813,18.1327 C67.2944,18.1404 67.5073,18.1478 67.72,18.155 C78.4531,18.5194 88.0102,15.5296 88.0102,15.5296 L88.4511,25.1564 C88.4511,25.1564 88.4319,25.1667 88.3936,25.1863 L88.2219,25.272 C86.8705,25.933 79.5894,29.2306 67.5701,29.8917 C60.1955,30.2939 51.0387,29.7077 40.3735,26.907 C17.2427,20.8328 13.2647,-3.62963 12.656,-28.4507 C12.4705,-35.8203 12.5849,-42.7694 12.5849,-48.5813 C12.5849,-73.9622 29.3463,-81.4017 29.3463,-81.4017 C37.7978,-85.2526 52.2999,-86.872 67.3763,-86.9943 L67.7467,-86.9943 Z M84.7876,-67.1628 C78.5071,-67.1628 73.7515,-64.768 70.6077,-59.9779 L67.5504,-54.894 L64.4937,-59.9779 C61.3493,-64.768 56.5936,-67.1628 50.3137,-67.1628 C44.8859,-67.1628 40.5133,-65.2698 37.1745,-61.5771 C33.9367,-57.8845 32.3248,-52.8933 32.3248,-46.6123 L32.3248,-15.8803 L44.5968,-15.8803 L44.5968,-45.709 C44.5968,-51.9969 47.2634,-55.1884 52.5972,-55.1884 C58.4946,-55.1884 61.4509,-51.4025 61.4509,-43.9163 L61.4509,-27.5893 L73.6504,-27.5893 L73.6504,-43.9163 C73.6504,-51.4025 76.6061,-55.1884 82.5035,-55.1884 C87.8374,-55.1884 90.504,-51.9969 90.504,-45.709 L90.504,-15.8803 L102.776,-15.8803 L102.776,-46.6123 C102.776,-52.8933 101.164,-57.8845 97.9268,-61.5771 C94.5874,-65.2698 90.2149,-67.1628 84.7876,-67.1628 Z" id="Path-26"></path>
                </g>
                <g id="Semibold-L" transform="translate(1975.87, 1556)">
                    <path d="M67.7467,-86.9943 C82.8231,-86.872 97.3347,-85.2526 105.786,-81.4017 C105.786,-81.4017 122.546,-73.9622 122.546,-48.5813 L122.547,-48.5314 L122.547,-48.493 L122.548,-48.3844 C122.550009,-48.2764 122.550009,-48.1253 122.550009,-47.9341 L122.550009,-47.2433 C122.546,-44.3455 122.464,-37.1278 121.837,-29.4406 L121.765,-28.5848 C121.419,-24.5835 120.922,-20.4943 120.209,-16.854 C118.592,-8.60066 105.727,0.431784 90.9506,2.1823 C83.2456,3.09443 75.6594,3.93281 67.5701,3.56468 C54.3406,2.96332 43.9017,0.431784 43.9017,0.431784 C43.9017,1.70953 43.9811,2.92612 44.1399,4.06393 C45.6363,15.3333 54.3279,17.3856 63.5649,17.9671 L64.2027,18.0049 C64.7348,18.0347 65.2682,18.0602 65.8017,18.0829 L66.4417,18.1089 L67.0813,18.1327 C67.2944,18.1404 67.5073,18.1478 67.72,18.155 C78.4531,18.5194 88.0102,15.5296 88.0102,15.5296 L88.4511,25.1564 C88.4511,25.1564 88.4319,25.1667 88.3936,25.1863 L88.2219,25.272 C86.8705,25.933 79.5894,29.2306 67.5701,29.8917 C60.1955,30.2939 51.0387,29.7077 40.3735,26.907 C17.2427,20.8328 13.2647,-3.62963 12.656,-28.4507 C12.4705,-35.8203 12.5849,-42.7694 12.5849,-48.5813 C12.5849,-73.9622 29.3463,-81.4017 29.3463,-81.4017 C37.7978,-85.2526 52.2999,-86.872 67.3763,-86.9943 L67.7467,-86.9943 Z M84.7876,-67.1628 C78.5071,-67.1628 73.7515,-64.768 70.6077,-59.9779 L67.5504,-54.894 L64.4937,-59.9779 C61.3493,-64.768 56.5936,-67.1628 50.3137,-67.1628 C44.8859,-67.1628 40.5133,-65.2698 37.1745,-61.5771 C33.9367,-57.8845 32.3248,-52.8933 32.3248,-46.6123 L32.3248,-15.8803 L44.5968,-15.8803 L44.5968,-45.709 C44.5968,-51.9969 47.2634,-55.1884 52.5972,-55.1884 C58.4946,-55.1884 61.4509,-51.4025 61.4509,-43.9163 L61.4509,-27.5893 L73.6504,-27.5893 L73.6504,-43.9163 C73.6504,-51.4025 76.6061,-55.1884 82.5035,-55.1884 C87.8374,-55.1884 90.504,-51.9969 90.504,-45.709 L90.504,-15.8803 L102.776,-15.8803 L102.776,-46.6123 C102.776,-52.8933 101.164,-57.8845 97.9268,-61.5771 C94.5874,-65.2698 90.2149,-67.1628 84.7876,-67.1628 Z" id="Path-25"></path>
                </g>
                <g id="Medium-L" transform="translate(1679.16, 1556)">
                    <path d="M67.7467,-86.9943 C82.8231,-86.872 97.3347,-85.2526 105.786,-81.4017 C105.786,-81.4017 122.546,-73.9622 122.546,-48.5813 L122.547,-48.5314 L122.547,-48.493 L122.548,-48.3844 C122.550009,-48.2764 122.550009,-48.1253 122.550009,-47.9341 L122.550009,-47.2433 C122.546,-44.3455 122.464,-37.1278 121.837,-29.4406 L121.765,-28.5848 C121.419,-24.5835 120.922,-20.4943 120.209,-16.854 C118.592,-8.60066 105.727,0.431784 90.9506,2.1823 C83.2456,3.09443 75.6594,3.93281 67.5701,3.56468 C54.3406,2.96332 43.9017,0.431784 43.9017,0.431784 C43.9017,1.70953 43.9811,2.92612 44.1399,4.06393 C45.6363,15.3333 54.3279,17.3856 63.5649,17.9671 L64.2027,18.0049 C64.7348,18.0347 65.2682,18.0602 65.8017,18.0829 L66.4417,18.1089 L67.0813,18.1327 C67.2944,18.1404 67.5073,18.1478 67.72,18.155 C78.4531,18.5194 88.0102,15.5296 88.0102,15.5296 L88.4511,25.1564 C88.4511,25.1564 88.4319,25.1667 88.3936,25.1863 L88.2219,25.272 C86.8705,25.933 79.5894,29.2306 67.5701,29.8917 C60.1955,30.2939 51.0387,29.7077 40.3735,26.907 C17.2427,20.8328 13.2647,-3.62963 12.656,-28.4507 C12.4705,-35.8203 12.5849,-42.7694 12.5849,-48.5813 C12.5849,-73.9622 29.3463,-81.4017 29.3463,-81.4017 C37.7978,-85.2526 52.2999,-86.872 67.3763,-86.9943 L67.7467,-86.9943 Z M84.7876,-67.1628 C78.5071,-67.1628 73.7515,-64.768 70.6077,-59.9779 L67.5504,-54.894 L64.4937,-59.9779 C61.3493,-64.768 56.5936,-67.1628 50.3137,-67.1628 C44.8859,-67.1628 40.5133,-65.2698 37.1745,-61.5771 C33.9367,-57.8845 32.3248,-52.8933 32.3248,-46.6123 L32.3248,-15.8803 L44.5968,-15.8803 L44.5968,-45.709 C44.5968,-51.9969 47.2634,-55.1884 52.5972,-55.1884 C58.4946,-55.1884 61.4509,-51.4025 61.4509,-43.9163 L61.4509,-27.5893 L73.6504,-27.5893 L73.6504,-43.9163 C73.6504,-51.4025 76.6061,-55.1884 82.5035,-55.1884 C87.8374,-55.1884 90.504,-51.9969 90.504,-45.709 L90.504,-15.8803 L102.776,-15.8803 L102.776,-46.6123 C102.776,-52.8933 101.164,-57.8845 97.9268,-61.5771 C94.5874,-65.2698 90.2149,-67.1628 84.7876,-67.1628 Z" id="Path-24"></path>
                </g>
                <g id="Regular-L" transform="translate(1382.45, 1556)">
                    <path d="M67.7467,-86.9943 C82.8231,-86.872 97.3347,-85.2526 105.786,-81.4017 C105.786,-81.4017 122.546,-73.9622 122.546,-48.5813 L122.547,-48.5314 L122.547,-48.493 L122.548,-48.3844 C122.550009,-48.2764 122.550009,-48.1253 122.550009,-47.9341 L122.550009,-47.2433 C122.546,-44.3455 122.464,-37.1278 121.837,-29.4406 L121.765,-28.5848 C121.419,-24.5835 120.922,-20.4943 120.209,-16.854 C118.592,-8.60066 105.727,0.431784 90.9506,2.1823 C83.2456,3.09443 75.6594,3.93281 67.5701,3.56468 C54.3406,2.96332 43.9017,0.431784 43.9017,0.431784 C43.9017,1.70953 43.9811,2.92612 44.1399,4.06393 C45.6363,15.3333 54.3279,17.3856 63.5649,17.9671 L64.2027,18.0049 C64.7348,18.0347 65.2682,18.0602 65.8017,18.0829 L66.4417,18.1089 L67.0813,18.1327 C67.2944,18.1404 67.5073,18.1478 67.72,18.155 C78.4531,18.5194 88.0102,15.5296 88.0102,15.5296 L88.4511,25.1564 C88.4511,25.1564 88.4319,25.1667 88.3936,25.1863 L88.2219,25.272 C86.8705,25.933 79.5894,29.2306 67.5701,29.8917 C60.1955,30.2939 51.0387,29.7077 40.3735,26.907 C17.2427,20.8328 13.2647,-3.62963 12.656,-28.4507 C12.4705,-35.8203 12.5849,-42.7694 12.5849,-48.5813 C12.5849,-73.9622 29.3463,-81.4017 29.3463,-81.4017 C37.7978,-85.2526 52.2999,-86.872 67.3763,-86.9943 L67.7467,-86.9943 Z M84.7876,-67.1628 C78.5071,-67.1628 73.7515,-64.768 70.6077,-59.9779 L67.5504,-54.894 L64.4937,-59.9779 C61.3493,-64.768 56.5936,-67.1628 50.3137,-67.1628 C44.8859,-67.1628 40.5133,-65.2698 37.1745,-61.5771 C33.9367,-57.8845 32.3248,-52.8933 32.3248,-46.6123 L32.3248,-15.8803 L44.5968,-15.8803 L44.5968,-45.709 C44.5968,-51.9969 47.2634,-55.1884 52.5972,-55.1884 C58.4946,-55.1884 61.4509,-51.4025 61.4509,-43.9163 L61.4509,-27.5893 L73.6504,-27.5893 L73.6504,-43.9163 C73.6504,-51.4025 76.6061,-55.1884 82.5035,-55.1884 C87.8374,-55.1884 90.504,-51.9969 90.504,-45.709 L90.504,-15.8803 L102.776,-15.8803 L102.776,-46.6123 C102.776,-52.8933 101.164,-57.8845 97.9268,-61.5771 C94.5874,-65.2698 90.2149,-67.1628 84.7876,-67.1628 Z" id="Path-23"></path>
                </g>
                <g id="Light-L" transform="translate(1085.74, 1556)">
                    <path d="M67.7467,-86.9943 C82.8231,-86.872 97.3347,-85.2526 105.786,-81.4017 C105.786,-81.4017 122.546,-73.9622 122.546,-48.5813 L122.547,-48.5314 L122.547,-48.493 L122.548,-48.3844 C122.550009,-48.2764 122.550009,-48.1253 122.550009,-47.9341 L122.550009,-47.2433 C122.546,-44.3455 122.464,-37.1278 121.837,-29.4406 L121.765,-28.5848 C121.419,-24.5835 120.922,-20.4943 120.209,-16.854 C118.592,-8.60066 105.727,0.431784 90.9506,2.1823 C83.2456,3.09443 75.6594,3.93281 67.5701,3.56468 C54.3406,2.96332 43.9017,0.431784 43.9017,0.431784 C43.9017,1.70953 43.9811,2.92612 44.1399,4.06393 C45.6363,15.3333 54.3279,17.3856 63.5649,17.9671 L64.2027,18.0049 C64.7348,18.0347 65.2682,18.0602 65.8017,18.0829 L66.4417,18.1089 L67.0813,18.1327 C67.2944,18.1404 67.5073,18.1478 67.72,18.155 C78.4531,18.5194 88.0102,15.5296 88.0102,15.5296 L88.4511,25.1564 C88.4511,25.1564 88.4319,25.1667 88.3936,25.1863 L88.2219,25.272 C86.8705,25.933 79.5894,29.2306 67.5701,29.8917 C60.1955,30.2939 51.0387,29.7077 40.3735,26.907 C17.2427,20.8328 13.2647,-3.62963 12.656,-28.4507 C12.4705,-35.8203 12.5849,-42.7694 12.5849,-48.5813 C12.5849,-73.9622 29.3463,-81.4017 29.3463,-81.4017 C37.7978,-85.2526 52.2999,-86.872 67.3763,-86.9943 L67.7467,-86.9943 Z M84.7876,-67.1628 C78.5071,-67.1628 73.7515,-64.768 70.6077,-59.9779 L67.5504,-54.894 L64.4937,-59.9779 C61.3493,-64.768 56.5936,-67.1628 50.3137,-67.1628 C44.8859,-67.1628 40.5133,-65.2698 37.1745,-61.5771 C33.9367,-57.8845 32.3248,-52.8933 32.3248,-46.6123 L32.3248,-15.8803 L44.5968,-15.8803 L44.5968,-45.709 C44.5968,-51.9969 47.2634,-55.1884 52.5972,-55.1884 C58.4946,-55.1884 61.4509,-51.4025 61.4509,-43.9163 L61.4509,-27.5893 L73.6504,-27.5893 L73.6504,-43.9163 C73.6504,-51.4025 76.6061,-55.1884 82.5035,-55.1884 C87.8374,-55.1884 90.504,-51.9969 90.504,-45.709 L90.504,-15.8803 L102.776,-15.8803 L102.776,-46.6123 C102.776,-52.8933 101.164,-57.8845 97.9268,-61.5771 C94.5874,-65.2698 90.2149,-67.1628 84.7876,-67.1628 Z" id="Path-22"></path>
                </g>
                <g id="Thin-L" transform="translate(789.027, 1556)">
                    <path d="M67.7467,-86.9943 C82.8231,-86.872 97.3347,-85.2526 105.786,-81.4017 C105.786,-81.4017 122.546,-73.9622 122.546,-48.5813 L122.547,-48.5314 L122.547,-48.493 L122.548,-48.3844 C122.550009,-48.2764 122.550009,-48.1253 122.550009,-47.9341 L122.550009,-47.2433 C122.546,-44.3455 122.464,-37.1278 121.837,-29.4406 L121.765,-28.5848 C121.419,-24.5835 120.922,-20.4943 120.209,-16.854 C118.592,-8.60066 105.727,0.431784 90.9506,2.1823 C83.2456,3.09443 75.6594,3.93281 67.5701,3.56468 C54.3406,2.96332 43.9017,0.431784 43.9017,0.431784 C43.9017,1.70953 43.9811,2.92612 44.1399,4.06393 C45.6363,15.3333 54.3279,17.3856 63.5649,17.9671 L64.2027,18.0049 C64.7348,18.0347 65.2682,18.0602 65.8017,18.0829 L66.4417,18.1089 L67.0813,18.1327 C67.2944,18.1404 67.5073,18.1478 67.72,18.155 C78.4531,18.5194 88.0102,15.5296 88.0102,15.5296 L88.4511,25.1564 C88.4511,25.1564 88.4319,25.1667 88.3936,25.1863 L88.2219,25.272 C86.8705,25.933 79.5894,29.2306 67.5701,29.8917 C60.1955,30.2939 51.0387,29.7077 40.3735,26.907 C17.2427,20.8328 13.2647,-3.62963 12.656,-28.4507 C12.4705,-35.8203 12.5849,-42.7694 12.5849,-48.5813 C12.5849,-73.9622 29.3463,-81.4017 29.3463,-81.4017 C37.7978,-85.2526 52.2999,-86.872 67.3763,-86.9943 L67.7467,-86.9943 Z M84.7876,-67.1628 C78.5071,-67.1628 73.7515,-64.768 70.6077,-59.9779 L67.5504,-54.894 L64.4937,-59.9779 C61.3493,-64.768 56.5936,-67.1628 50.3137,-67.1628 C44.8859,-67.1628 40.5133,-65.2698 37.1745,-61.5771 C33.9367,-57.8845 32.3248,-52.8933 32.3248,-46.6123 L32.3248,-15.8803 L44.5968,-15.8803 L44.5968,-45.709 C44.5968,-51.9969 47.2634,-55.1884 52.5972,-55.1884 C58.4946,-55.1884 61.4509,-51.4025 61.4509,-43.9163 L61.4509,-27.5893 L73.6504,-27.5893 L73.6504,-43.9163 C73.6504,-51.4025 76.6061,-55.1884 82.5035,-55.1884 C87.8374,-55.1884 90.504,-51.9969 90.504,-45.709 L90.504,-15.8803 L102.776,-15.8803 L102.776,-46.6123 C102.776,-52.8933 101.164,-57.8845 97.9268,-61.5771 C94.5874,-65.2698 90.2149,-67.1628 84.7876,-67.1628 Z" id="Path-21"></path>
                </g>
                <g id="Ultralight-L" transform="translate(492.316, 1556)">
                    <path d="M67.7467,-86.9943 C82.8231,-86.872 97.3347,-85.2526 105.786,-81.4017 C105.786,-81.4017 122.546,-73.9622 122.546,-48.5813 L122.547,-48.5314 L122.547,-48.493 L122.548,-48.3844 C122.550009,-48.2764 122.550009,-48.1253 122.550009,-47.9341 L122.550009,-47.2433 C122.546,-44.3455 122.464,-37.1278 121.837,-29.4406 L121.765,-28.5848 C121.419,-24.5835 120.922,-20.4943 120.209,-16.854 C118.592,-8.60066 105.727,0.431784 90.9506,2.1823 C83.2456,3.09443 75.6594,3.93281 67.5701,3.56468 C54.3406,2.96332 43.9017,0.431784 43.9017,0.431784 C43.9017,1.70953 43.9811,2.92612 44.1399,4.06393 C45.6363,15.3333 54.3279,17.3856 63.5649,17.9671 L64.2027,18.0049 C64.7348,18.0347 65.2682,18.0602 65.8017,18.0829 L66.4417,18.1089 L67.0813,18.1327 C67.2944,18.1404 67.5073,18.1478 67.72,18.155 C78.4531,18.5194 88.0102,15.5296 88.0102,15.5296 L88.4511,25.1564 C88.4511,25.1564 88.4319,25.1667 88.3936,25.1863 L88.2219,25.272 C86.8705,25.933 79.5894,29.2306 67.5701,29.8917 C60.1955,30.2939 51.0387,29.7077 40.3735,26.907 C17.2427,20.8328 13.2647,-3.62963 12.656,-28.4507 C12.4705,-35.8203 12.5849,-42.7694 12.5849,-48.5813 C12.5849,-73.9622 29.3463,-81.4017 29.3463,-81.4017 C37.7978,-85.2526 52.2999,-86.872 67.3763,-86.9943 L67.7467,-86.9943 Z M84.7876,-67.1628 C78.5071,-67.1628 73.7515,-64.768 70.6077,-59.9779 L67.5504,-54.894 L64.4937,-59.9779 C61.3493,-64.768 56.5936,-67.1628 50.3137,-67.1628 C44.8859,-67.1628 40.5133,-65.2698 37.1745,-61.5771 C33.9367,-57.8845 32.3248,-52.8933 32.3248,-46.6123 L32.3248,-15.8803 L44.5968,-15.8803 L44.5968,-45.709 C44.5968,-51.9969 47.2634,-55.1884 52.5972,-55.1884 C58.4946,-55.1884 61.4509,-51.4025 61.4509,-43.9163 L61.4509,-27.5893 L73.6504,-27.5893 L73.6504,-43.9163 C73.6504,-51.4025 76.6061,-55.1884 82.5035,-55.1884 C87.8374,-55.1884 90.504,-51.9969 90.504,-45.709 L90.504,-15.8803 L102.776,-15.8803 L102.776,-46.6123 C102.776,-52.8933 101.164,-57.8845 97.9268,-61.5771 C94.5874,-65.2698 90.2149,-67.1628 84.7876,-67.1628 Z" id="Path-20"></path>
                </g>
                <g id="Black-M" transform="translate(2876.01, 1126)">
                    <path d="M57.7107,-79.7658 C70.0459,-79.6655 81.9189,-78.3367 88.8333,-75.177 L88.8495,-75.1696 C89.3763,-74.927 102.547,-68.6563 102.547,-48.2475 L102.547,-48.2259 L102.547,-48.1992 L102.548,-48.1145 L102.548,-48.057 L102.549,-47.9121 L102.549,-47.8251 L102.549,-46.9588 C102.538,-43.0452 102.356,-31.0272 100.634,-22.2148 C99.3111,-15.4428 88.7849,-8.03158 76.6956,-6.59526 C70.3916,-5.84684 64.1847,-5.15894 57.5662,-5.461 C46.7421,-5.95442 38.2012,-8.03158 38.2012,-8.03158 C38.2012,-6.98317 38.2662,-5.98494 38.3962,-5.05136 C39.7401,5.09931 48.1785,6.13627 56.5136,6.4676 L57.3954,6.50042 C57.4933,6.50385 57.5911,6.50723 57.6889,6.51057 C63.7684,6.71754 69.3868,5.60544 72.2687,4.90148 L72.6365,4.81018 C73.6902,4.54447 74.2898,4.35635 74.2898,4.35635 L74.6506,12.2553 L74.6342,12.2639 C74.2796,12.4489 68.1816,15.5551 57.5662,16.1407 C51.5324,16.4707 44.0406,15.9897 35.3146,13.6916 C16.3894,8.70772 13.1348,-11.364 12.6367,-31.7301 C12.485,-37.7769 12.5785,-43.4787 12.5785,-48.2475 C12.5785,-67.615 24.4396,-74.2503 26.1001,-75.0843 L26.1929,-75.1302 C26.232,-75.1491 26.26,-75.1622 26.2761,-75.1696 L26.2923,-75.177 C33.2072,-78.3367 45.0724,-79.6655 57.4076,-79.7658 L57.7107,-79.7658 Z M71.6532,-63.4938 C66.5146,-63.4938 62.6237,-61.5288 60.0515,-57.5985 L57.5501,-53.4271 L55.0491,-57.5985 C52.4765,-61.5288 48.5855,-63.4938 43.4474,-63.4938 C39.0065,-63.4938 35.429,-61.9406 32.6972,-58.9107 C30.0481,-55.8808 28.7293,-51.7855 28.7293,-46.6319 L28.7293,-21.4159 L38.7699,-21.4159 L38.7699,-45.8907 C38.7699,-51.05 40.9517,-53.6687 45.3157,-53.6687 C50.1408,-53.6687 52.5596,-50.5622 52.5596,-44.4197 L52.5596,-31.0232 L62.541,-31.0232 L62.541,-44.4197 C62.541,-50.5622 64.9593,-53.6687 69.7844,-53.6687 C74.1484,-53.6687 76.3302,-51.05 76.3302,-45.8907 L76.3302,-21.4159 L86.3708,-21.4159 L86.3708,-46.6319 C86.3708,-51.7855 85.052,-55.8808 82.4034,-58.9107 C79.6712,-61.9406 76.0937,-63.4938 71.6532,-63.4938 Z" id="Path-19"></path>
                </g>
                <g id="Heavy-M" transform="translate(2579.29, 1126)">
                    <path d="M57.7107,-79.7658 C70.0459,-79.6655 81.9189,-78.3367 88.8333,-75.177 L88.8495,-75.1696 C89.3763,-74.927 102.547,-68.6563 102.547,-48.2475 L102.547,-48.2259 L102.547,-48.1992 L102.548,-48.1145 L102.548,-48.057 L102.549,-47.9121 L102.549,-47.8251 L102.549,-46.9588 C102.538,-43.0452 102.356,-31.0272 100.634,-22.2148 C99.3111,-15.4428 88.7849,-8.03158 76.6956,-6.59526 C70.3916,-5.84684 64.1847,-5.15894 57.5662,-5.461 C46.7421,-5.95442 38.2012,-8.03158 38.2012,-8.03158 C38.2012,-6.98317 38.2662,-5.98494 38.3962,-5.05136 C39.7401,5.09931 48.1785,6.13627 56.5136,6.4676 L57.3954,6.50042 C57.4933,6.50385 57.5911,6.50723 57.6889,6.51057 C63.7684,6.71754 69.3868,5.60544 72.2687,4.90148 L72.6365,4.81018 C73.6902,4.54447 74.2898,4.35635 74.2898,4.35635 L74.6506,12.2553 L74.6342,12.2639 C74.2796,12.4489 68.1816,15.5551 57.5662,16.1407 C51.5324,16.4707 44.0406,15.9897 35.3146,13.6916 C16.3894,8.70772 13.1348,-11.364 12.6367,-31.7301 C12.485,-37.7769 12.5785,-43.4787 12.5785,-48.2475 C12.5785,-67.615 24.4396,-74.2503 26.1001,-75.0843 L26.1929,-75.1302 C26.232,-75.1491 26.26,-75.1622 26.2761,-75.1696 L26.2923,-75.177 C33.2072,-78.3367 45.0724,-79.6655 57.4076,-79.7658 L57.7107,-79.7658 Z M71.6532,-63.4938 C66.5146,-63.4938 62.6237,-61.5288 60.0515,-57.5985 L57.5501,-53.4271 L55.0491,-57.5985 C52.4765,-61.5288 48.5855,-63.4938 43.4474,-63.4938 C39.0065,-63.4938 35.429,-61.9406 32.6972,-58.9107 C30.0481,-55.8808 28.7293,-51.7855 28.7293,-46.6319 L28.7293,-21.4159 L38.7699,-21.4159 L38.7699,-45.8907 C38.7699,-51.05 40.9517,-53.6687 45.3157,-53.6687 C50.1408,-53.6687 52.5596,-50.5622 52.5596,-44.4197 L52.5596,-31.0232 L62.541,-31.0232 L62.541,-44.4197 C62.541,-50.5622 64.9593,-53.6687 69.7844,-53.6687 C74.1484,-53.6687 76.3302,-51.05 76.3302,-45.8907 L76.3302,-21.4159 L86.3708,-21.4159 L86.3708,-46.6319 C86.3708,-51.7855 85.052,-55.8808 82.4034,-58.9107 C79.6712,-61.9406 76.0937,-63.4938 71.6532,-63.4938 Z" id="Path-18"></path>
                </g>
                <g id="Bold-M" transform="translate(2282.58, 1126)">
                    <path d="M57.7107,-79.7658 C70.0459,-79.6655 81.9189,-78.3367 88.8333,-75.177 L88.8495,-75.1696 C89.3763,-74.927 102.547,-68.6563 102.547,-48.2475 L102.547,-48.2259 L102.547,-48.1992 L102.548,-48.1145 L102.548,-48.057 L102.549,-47.9121 L102.549,-47.8251 L102.549,-46.9588 C102.538,-43.0452 102.356,-31.0272 100.634,-22.2148 C99.3111,-15.4428 88.7849,-8.03158 76.6956,-6.59526 C70.3916,-5.84684 64.1847,-5.15894 57.5662,-5.461 C46.7421,-5.95442 38.2012,-8.03158 38.2012,-8.03158 C38.2012,-6.98317 38.2662,-5.98494 38.3962,-5.05136 C39.7401,5.09931 48.1785,6.13627 56.5136,6.4676 L57.3954,6.50042 C57.4933,6.50385 57.5911,6.50723 57.6889,6.51057 C63.7684,6.71754 69.3868,5.60544 72.2687,4.90148 L72.6365,4.81018 C73.6902,4.54447 74.2898,4.35635 74.2898,4.35635 L74.6506,12.2553 L74.6342,12.2639 C74.2796,12.4489 68.1816,15.5551 57.5662,16.1407 C51.5324,16.4707 44.0406,15.9897 35.3146,13.6916 C16.3894,8.70772 13.1348,-11.364 12.6367,-31.7301 C12.485,-37.7769 12.5785,-43.4787 12.5785,-48.2475 C12.5785,-67.615 24.4396,-74.2503 26.1001,-75.0843 L26.1929,-75.1302 C26.232,-75.1491 26.26,-75.1622 26.2761,-75.1696 L26.2923,-75.177 C33.2072,-78.3367 45.0724,-79.6655 57.4076,-79.7658 L57.7107,-79.7658 Z M71.6532,-63.4938 C66.5146,-63.4938 62.6237,-61.5288 60.0515,-57.5985 L57.5501,-53.4271 L55.0491,-57.5985 C52.4765,-61.5288 48.5855,-63.4938 43.4474,-63.4938 C39.0065,-63.4938 35.429,-61.9406 32.6972,-58.9107 C30.0481,-55.8808 28.7293,-51.7855 28.7293,-46.6319 L28.7293,-21.4159 L38.7699,-21.4159 L38.7699,-45.8907 C38.7699,-51.05 40.9517,-53.6687 45.3157,-53.6687 C50.1408,-53.6687 52.5596,-50.5622 52.5596,-44.4197 L52.5596,-31.0232 L62.541,-31.0232 L62.541,-44.4197 C62.541,-50.5622 64.9593,-53.6687 69.7844,-53.6687 C74.1484,-53.6687 76.3302,-51.05 76.3302,-45.8907 L76.3302,-21.4159 L86.3708,-21.4159 L86.3708,-46.6319 C86.3708,-51.7855 85.052,-55.8808 82.4034,-58.9107 C79.6712,-61.9406 76.0937,-63.4938 71.6532,-63.4938 Z" id="Path-17"></path>
                </g>
                <g id="Semibold-M" transform="translate(1985.87, 1126)">
                    <path d="M57.7107,-79.7658 C70.0459,-79.6655 81.9189,-78.3367 88.8333,-75.177 L88.8495,-75.1696 C89.3763,-74.927 102.547,-68.6563 102.547,-48.2475 L102.547,-48.2259 L102.547,-48.1992 L102.548,-48.1145 L102.548,-48.057 L102.549,-47.9121 L102.549,-47.8251 L102.549,-46.9588 C102.538,-43.0452 102.356,-31.0272 100.634,-22.2148 C99.3111,-15.4428 88.7849,-8.03158 76.6956,-6.59526 C70.3916,-5.84684 64.1847,-5.15894 57.5662,-5.461 C46.7421,-5.95442 38.2012,-8.03158 38.2012,-8.03158 C38.2012,-6.98317 38.2662,-5.98494 38.3962,-5.05136 C39.7401,5.09931 48.1785,6.13627 56.5136,6.4676 L57.3954,6.50042 C57.4933,6.50385 57.5911,6.50723 57.6889,6.51057 C63.7684,6.71754 69.3868,5.60544 72.2687,4.90148 L72.6365,4.81018 C73.6902,4.54447 74.2898,4.35635 74.2898,4.35635 L74.6506,12.2553 L74.6342,12.2639 C74.2796,12.4489 68.1816,15.5551 57.5662,16.1407 C51.5324,16.4707 44.0406,15.9897 35.3146,13.6916 C16.3894,8.70772 13.1348,-11.364 12.6367,-31.7301 C12.485,-37.7769 12.5785,-43.4787 12.5785,-48.2475 C12.5785,-67.615 24.4396,-74.2503 26.1001,-75.0843 L26.1929,-75.1302 C26.232,-75.1491 26.26,-75.1622 26.2761,-75.1696 L26.2923,-75.177 C33.2072,-78.3367 45.0724,-79.6655 57.4076,-79.7658 L57.7107,-79.7658 Z M71.6532,-63.4938 C66.5146,-63.4938 62.6237,-61.5288 60.0515,-57.5985 L57.5501,-53.4271 L55.0491,-57.5985 C52.4765,-61.5288 48.5855,-63.4938 43.4474,-63.4938 C39.0065,-63.4938 35.429,-61.9406 32.6972,-58.9107 C30.0481,-55.8808 28.7293,-51.7855 28.7293,-46.6319 L28.7293,-21.4159 L38.7699,-21.4159 L38.7699,-45.8907 C38.7699,-51.05 40.9517,-53.6687 45.3157,-53.6687 C50.1408,-53.6687 52.5596,-50.5622 52.5596,-44.4197 L52.5596,-31.0232 L62.541,-31.0232 L62.541,-44.4197 C62.541,-50.5622 64.9593,-53.6687 69.7844,-53.6687 C74.1484,-53.6687 76.3302,-51.05 76.3302,-45.8907 L76.3302,-21.4159 L86.3708,-21.4159 L86.3708,-46.6319 C86.3708,-51.7855 85.052,-55.8808 82.4034,-58.9107 C79.6712,-61.9406 76.0937,-63.4938 71.6532,-63.4938 Z" id="Path-16"></path>
                </g>
                <g id="Medium-M" transform="translate(1689.16, 1126)">
                    <path d="M57.7107,-79.7658 C70.0459,-79.6655 81.9189,-78.3367 88.8333,-75.177 L88.8495,-75.1696 C89.3763,-74.927 102.547,-68.6563 102.547,-48.2475 L102.547,-48.2259 L102.547,-48.1992 L102.548,-48.1145 L102.548,-48.057 L102.549,-47.9121 L102.549,-47.8251 L102.549,-46.9588 C102.538,-43.0452 102.356,-31.0272 100.634,-22.2148 C99.3111,-15.4428 88.7849,-8.03158 76.6956,-6.59526 C70.3916,-5.84684 64.1847,-5.15894 57.5662,-5.461 C46.7421,-5.95442 38.2012,-8.03158 38.2012,-8.03158 C38.2012,-6.98317 38.2662,-5.98494 38.3962,-5.05136 C39.7401,5.09931 48.1785,6.13627 56.5136,6.4676 L57.3954,6.50042 C57.4933,6.50385 57.5911,6.50723 57.6889,6.51057 C63.7684,6.71754 69.3868,5.60544 72.2687,4.90148 L72.6365,4.81018 C73.6902,4.54447 74.2898,4.35635 74.2898,4.35635 L74.6506,12.2553 L74.6342,12.2639 C74.2796,12.4489 68.1816,15.5551 57.5662,16.1407 C51.5324,16.4707 44.0406,15.9897 35.3146,13.6916 C16.3894,8.70772 13.1348,-11.364 12.6367,-31.7301 C12.485,-37.7769 12.5785,-43.4787 12.5785,-48.2475 C12.5785,-67.615 24.4396,-74.2503 26.1001,-75.0843 L26.1929,-75.1302 C26.232,-75.1491 26.26,-75.1622 26.2761,-75.1696 L26.2923,-75.177 C33.2072,-78.3367 45.0724,-79.6655 57.4076,-79.7658 L57.7107,-79.7658 Z M71.6532,-63.4938 C66.5146,-63.4938 62.6237,-61.5288 60.0515,-57.5985 L57.5501,-53.4271 L55.0491,-57.5985 C52.4765,-61.5288 48.5855,-63.4938 43.4474,-63.4938 C39.0065,-63.4938 35.429,-61.9406 32.6972,-58.9107 C30.0481,-55.8808 28.7293,-51.7855 28.7293,-46.6319 L28.7293,-21.4159 L38.7699,-21.4159 L38.7699,-45.8907 C38.7699,-51.05 40.9517,-53.6687 45.3157,-53.6687 C50.1408,-53.6687 52.5596,-50.5622 52.5596,-44.4197 L52.5596,-31.0232 L62.541,-31.0232 L62.541,-44.4197 C62.541,-50.5622 64.9593,-53.6687 69.7844,-53.6687 C74.1484,-53.6687 76.3302,-51.05 76.3302,-45.8907 L76.3302,-21.4159 L86.3708,-21.4159 L86.3708,-46.6319 C86.3708,-51.7855 85.052,-55.8808 82.4034,-58.9107 C79.6712,-61.9406 76.0937,-63.4938 71.6532,-63.4938 Z" id="Path-15"></path>
                </g>
                <g id="Regular-M" transform="translate(1392.45, 1126)">
                    <path d="M57.7107,-80 C70.0459,-79.8997 81.9189,-78.5709 88.8333,-75.4112 L88.8495,-75.4038 C89.3763,-75.1612 102.547,-68.8905 102.547,-48.4817 L102.547,-48.4601 L102.547,-48.4334 L102.548,-48.3487 L102.548,-48.2912 L102.549,-48.1463 L102.549,-48.0593 L102.549,-47.193 C102.538,-43.2794 102.356,-31.2614 100.634,-22.449 C99.3111,-15.677 88.7849,-8.26578 76.6956,-6.82946 C70.3916,-6.08104 64.1847,-5.39314 57.5662,-5.6952 C46.7421,-6.18862 38.2012,-8.26578 38.2012,-8.26578 C38.2012,-7.21737 38.2662,-6.21914 38.3962,-5.28556 C39.7401,4.86511 48.1785,5.90207 56.5136,6.2334 L57.3954,6.26622 C57.4933,6.26965 57.5911,6.27303 57.6889,6.27637 C63.7684,6.48334 69.3868,5.37124 72.2687,4.66728 L72.6365,4.57598 C73.6902,4.31027 74.2898,4.12215 74.2898,4.12215 L74.6506,12.0211 L74.6342,12.0297 C74.2796,12.2147 68.1816,15.3209 57.5662,15.9065 C51.5324,16.2365 44.0406,15.7555 35.3146,13.4574 C16.3894,8.47352 13.1348,-11.5982 12.6367,-31.9643 C12.485,-38.0111 12.5785,-43.7129 12.5785,-48.4817 C12.5785,-67.8492 24.4396,-74.4845 26.1001,-75.3185 L26.1929,-75.3644 C26.232,-75.3833 26.26,-75.3964 26.2761,-75.4038 L26.2923,-75.4112 C33.2072,-78.5709 45.0724,-79.8997 57.4076,-80 L57.7107,-80 Z M71.6532,-63.728 C66.5146,-63.728 62.6237,-61.763 60.0515,-57.8327 L57.5501,-53.6613 L55.0491,-57.8327 C52.4765,-61.763 48.5855,-63.728 43.4474,-63.728 C39.0065,-63.728 35.429,-62.1748 32.6972,-59.1449 C30.0481,-56.115 28.7293,-52.0197 28.7293,-46.8661 L28.7293,-21.6501 L38.7699,-21.6501 L38.7699,-46.1249 C38.7699,-51.2842 40.9517,-53.9029 45.3157,-53.9029 C50.1408,-53.9029 52.5596,-50.7964 52.5596,-44.6539 L52.5596,-31.2574 L62.541,-31.2574 L62.541,-44.6539 C62.541,-50.7964 64.9593,-53.9029 69.7844,-53.9029 C74.1484,-53.9029 76.3302,-51.2842 76.3302,-46.1249 L76.3302,-21.6501 L86.3708,-21.6501 L86.3708,-46.8661 C86.3708,-52.0197 85.052,-56.115 82.4034,-59.1449 C79.6712,-62.1748 76.0937,-63.728 71.6532,-63.728 Z" id="Path-14"></path>
                </g>
                <g id="Light-M" transform="translate(1095.74, 1126)">
                    <path d="M57.7107,-80 C70.0459,-79.8997 81.9189,-78.5709 88.8333,-75.4112 L88.8495,-75.4038 C89.3763,-75.1612 102.547,-68.8905 102.547,-48.4817 L102.547,-48.4601 L102.547,-48.4334 L102.548,-48.3487 L102.548,-48.2912 L102.549,-48.1463 L102.549,-48.0593 L102.549,-47.193 C102.538,-43.2794 102.356,-31.2614 100.634,-22.449 C99.3111,-15.677 88.7849,-8.26578 76.6956,-6.82946 C70.3916,-6.08104 64.1847,-5.39314 57.5662,-5.6952 C46.7421,-6.18862 38.2012,-8.26578 38.2012,-8.26578 C38.2012,-7.21737 38.2662,-6.21914 38.3962,-5.28556 C39.7401,4.86511 48.1785,5.90207 56.5136,6.2334 L57.3954,6.26622 C57.4933,6.26965 57.5911,6.27303 57.6889,6.27637 C63.7684,6.48334 69.3868,5.37124 72.2687,4.66728 L72.6365,4.57598 C73.6902,4.31027 74.2898,4.12215 74.2898,4.12215 L74.6506,12.0211 L74.6342,12.0297 C74.2796,12.2147 68.1816,15.3209 57.5662,15.9065 C51.5324,16.2365 44.0406,15.7555 35.3146,13.4574 C16.3894,8.47352 13.1348,-11.5982 12.6367,-31.9643 C12.485,-38.0111 12.5785,-43.7129 12.5785,-48.4817 C12.5785,-67.8492 24.4396,-74.4845 26.1001,-75.3185 L26.1929,-75.3644 C26.232,-75.3833 26.26,-75.3964 26.2761,-75.4038 L26.2923,-75.4112 C33.2072,-78.5709 45.0724,-79.8997 57.4076,-80 L57.7107,-80 Z M71.6532,-63.728 C66.5146,-63.728 62.6237,-61.763 60.0515,-57.8327 L57.5501,-53.6613 L55.0491,-57.8327 C52.4765,-61.763 48.5855,-63.728 43.4474,-63.728 C39.0065,-63.728 35.429,-62.1748 32.6972,-59.1449 C30.0481,-56.115 28.7293,-52.0197 28.7293,-46.8661 L28.7293,-21.6501 L38.7699,-21.6501 L38.7699,-46.1249 C38.7699,-51.2842 40.9517,-53.9029 45.3157,-53.9029 C50.1408,-53.9029 52.5596,-50.7964 52.5596,-44.6539 L52.5596,-31.2574 L62.541,-31.2574 L62.541,-44.6539 C62.541,-50.7964 64.9593,-53.9029 69.7844,-53.9029 C74.1484,-53.9029 76.3302,-51.2842 76.3302,-46.1249 L76.3302,-21.6501 L86.3708,-21.6501 L86.3708,-46.8661 C86.3708,-52.0197 85.052,-56.115 82.4034,-59.1449 C79.6712,-62.1748 76.0937,-63.728 71.6532,-63.728 Z" id="Path-13"></path>
                </g>
                <g id="Thin-M" transform="translate(799.027, 1126)">
                    <path d="M57.7107,-80 C70.0459,-79.8997 81.9189,-78.5709 88.8333,-75.4112 L88.8495,-75.4038 C89.3763,-75.1612 102.547,-68.8905 102.547,-48.4817 L102.547,-48.4601 L102.547,-48.4334 L102.548,-48.3487 L102.548,-48.2912 L102.549,-48.1463 L102.549,-48.0593 L102.549,-47.193 C102.538,-43.2794 102.356,-31.2614 100.634,-22.449 C99.3111,-15.677 88.7849,-8.26578 76.6956,-6.82946 C70.3916,-6.08104 64.1847,-5.39314 57.5662,-5.6952 C46.7421,-6.18862 38.2012,-8.26578 38.2012,-8.26578 C38.2012,-7.21737 38.2662,-6.21914 38.3962,-5.28556 C39.7401,4.86511 48.1785,5.90207 56.5136,6.2334 L57.3954,6.26622 C57.4933,6.26965 57.5911,6.27303 57.6889,6.27637 C63.7684,6.48334 69.3868,5.37124 72.2687,4.66728 L72.6365,4.57598 C73.6902,4.31027 74.2898,4.12215 74.2898,4.12215 L74.6506,12.0211 L74.6342,12.0297 C74.2796,12.2147 68.1816,15.3209 57.5662,15.9065 C51.5324,16.2365 44.0406,15.7555 35.3146,13.4574 C16.3894,8.47352 13.1348,-11.5982 12.6367,-31.9643 C12.485,-38.0111 12.5785,-43.7129 12.5785,-48.4817 C12.5785,-67.8492 24.4396,-74.4845 26.1001,-75.3185 L26.1929,-75.3644 C26.232,-75.3833 26.26,-75.3964 26.2761,-75.4038 L26.2923,-75.4112 C33.2072,-78.5709 45.0724,-79.8997 57.4076,-80 L57.7107,-80 Z M71.6532,-63.728 C66.5146,-63.728 62.6237,-61.763 60.0515,-57.8327 L57.5501,-53.6613 L55.0491,-57.8327 C52.4765,-61.763 48.5855,-63.728 43.4474,-63.728 C39.0065,-63.728 35.429,-62.1748 32.6972,-59.1449 C30.0481,-56.115 28.7293,-52.0197 28.7293,-46.8661 L28.7293,-21.6501 L38.7699,-21.6501 L38.7699,-46.1249 C38.7699,-51.2842 40.9517,-53.9029 45.3157,-53.9029 C50.1408,-53.9029 52.5596,-50.7964 52.5596,-44.6539 L52.5596,-31.2574 L62.541,-31.2574 L62.541,-44.6539 C62.541,-50.7964 64.9593,-53.9029 69.7844,-53.9029 C74.1484,-53.9029 76.3302,-51.2842 76.3302,-46.1249 L76.3302,-21.6501 L86.3708,-21.6501 L86.3708,-46.8661 C86.3708,-52.0197 85.052,-56.115 82.4034,-59.1449 C79.6712,-62.1748 76.0937,-63.728 71.6532,-63.728 Z" id="Path-12"></path>
                </g>
                <g id="Ultralight-M" transform="translate(502.316, 1126)">
                    <path d="M57.7107,-80 C70.0459,-79.8997 81.9189,-78.5709 88.8333,-75.4112 L88.8495,-75.4038 C89.3763,-75.1612 102.547,-68.8905 102.547,-48.4817 L102.547,-48.4601 L102.547,-48.4334 L102.548,-48.3487 L102.548,-48.2912 L102.549,-48.1463 L102.549,-48.0593 L102.549,-47.193 C102.538,-43.2794 102.356,-31.2614 100.634,-22.449 C99.3111,-15.677 88.7849,-8.26578 76.6956,-6.82946 C70.3916,-6.08104 64.1847,-5.39314 57.5662,-5.6952 C46.7421,-6.18862 38.2012,-8.26578 38.2012,-8.26578 C38.2012,-7.21737 38.2662,-6.21914 38.3962,-5.28556 C39.7401,4.86511 48.1785,5.90207 56.5136,6.2334 L57.3954,6.26622 C57.4933,6.26965 57.5911,6.27303 57.6889,6.27637 C63.7684,6.48334 69.3868,5.37124 72.2687,4.66728 L72.6365,4.57598 C73.6902,4.31027 74.2898,4.12215 74.2898,4.12215 L74.6506,12.0211 L74.6342,12.0297 C74.2796,12.2147 68.1816,15.3209 57.5662,15.9065 C51.5324,16.2365 44.0406,15.7555 35.3146,13.4574 C16.3894,8.47352 13.1348,-11.5982 12.6367,-31.9643 C12.485,-38.0111 12.5785,-43.7129 12.5785,-48.4817 C12.5785,-67.8492 24.4396,-74.4845 26.1001,-75.3185 L26.1929,-75.3644 C26.232,-75.3833 26.26,-75.3964 26.2761,-75.4038 L26.2923,-75.4112 C33.2072,-78.5709 45.0724,-79.8997 57.4076,-80 L57.7107,-80 Z M71.6532,-63.728 C66.5146,-63.728 62.6237,-61.763 60.0515,-57.8327 L57.5501,-53.6613 L55.0491,-57.8327 C52.4765,-61.763 48.5855,-63.728 43.4474,-63.728 C39.0065,-63.728 35.429,-62.1748 32.6972,-59.1449 C30.0481,-56.115 28.7293,-52.0197 28.7293,-46.8661 L28.7293,-21.6501 L38.7699,-21.6501 L38.7699,-46.1249 C38.7699,-51.2842 40.9517,-53.9029 45.3157,-53.9029 C50.1408,-53.9029 52.5596,-50.7964 52.5596,-44.6539 L52.5596,-31.2574 L62.541,-31.2574 L62.541,-44.6539 C62.541,-50.7964 64.9593,-53.9029 69.7844,-53.9029 C74.1484,-53.9029 76.3302,-51.2842 76.3302,-46.1249 L76.3302,-21.6501 L86.3708,-21.6501 L86.3708,-46.8661 C86.3708,-52.0197 85.052,-56.115 82.4034,-59.1449 C79.6712,-62.1748 76.0937,-63.728 71.6532,-63.728 Z" id="Path-11"></path>
                </g>
                <g id="Black-S" transform="translate(2887.5, 696)">
                    <path d="M46.1697,-71 C55.3526,-70.9258 64.1915,-69.9431 69.3388,-67.6062 C69.3388,-67.6062 69.3665,-67.594 69.419,-67.5686 L69.5397,-67.5085 C70.9694,-66.7782 79.5476,-61.8081 79.5476,-47.6896 L79.5479,-47.6643 C79.548,-47.6559 79.5481,-47.6455 79.5482,-47.633 L79.5489,-47.5344 L79.5492,-47.4675 L79.5502,-47.2997 L79.5502,-47.1992 L79.5502,-46.9663 L79.5502,-46.8343 L79.549,-46.5404 C79.535,-43.4587 79.3781,-34.8128 78.1239,-28.4362 C77.139,-23.4278 69.3029,-17.9466 60.303,-16.8843 C55.61,-16.3308 50.9893,-15.822 46.0622,-16.0454 C38.0042,-16.4103 31.646,-17.9466 31.646,-17.9466 C31.646,-17.1712 31.6944,-16.4329 31.7911,-15.7424 C32.8387,-7.8819 39.6764,-7.41101 46.1535,-7.19144 C50.7063,-7.03745 54.9118,-7.87068 57.0455,-8.39076 L57.3572,-8.46813 C58.0944,-8.65449 58.512,-8.78466 58.512,-8.78466 L58.7806,-2.94271 C58.7806,-2.94271 54.2079,-0.515574 46.0622,-0.0691648 C41.5704,0.174887 35.9931,-0.180863 29.497,-1.88043 C15.4083,-5.56646 12.9853,-20.4112 12.6146,-35.4736 C12.5016,-39.9457 12.5712,-44.1627 12.5712,-47.6896 C12.5712,-61.8081 21.1498,-66.7782 22.5796,-67.5085 L22.6658,-67.5518 C22.7405,-67.5886 22.7804,-67.6062 22.7804,-67.6062 C27.9282,-69.9431 36.7612,-70.9258 45.9441,-71 L46.1697,-71 Z M56.5492,-58.9655 C52.7238,-58.9655 49.8272,-57.5123 47.9124,-54.6054 L46.0502,-51.5203 L44.1883,-54.6054 C42.2731,-57.5123 39.3765,-58.9655 35.5515,-58.9655 C32.2454,-58.9655 29.5822,-57.8167 27.5485,-55.5759 C25.5764,-53.3351 24.5946,-50.3062 24.5946,-46.4947 L24.5946,-27.8454 L32.0694,-27.8454 L32.0694,-45.9465 C32.0694,-49.7623 33.6936,-51.699 36.9423,-51.699 C40.5344,-51.699 42.335,-49.4015 42.335,-44.8586 L42.335,-34.9508 L49.7656,-34.9508 L49.7656,-44.8586 C49.7656,-49.4015 51.5659,-51.699 55.158,-51.699 C58.4068,-51.699 60.031,-49.7623 60.031,-45.9465 L60.031,-27.8454 L67.5057,-27.8454 L67.5057,-46.4947 C67.5057,-50.3062 66.5239,-53.3351 64.5522,-55.5759 C62.5181,-57.8167 59.8549,-58.9655 56.5492,-58.9655 Z" id="Path-10"></path>
                </g>
                <g id="Heavy-S" transform="translate(2590.79, 696)">
                    <path d="M46.1697,-71 C55.3526,-70.9258 64.1915,-69.9431 69.3388,-67.6062 C69.3388,-67.6062 69.3665,-67.594 69.419,-67.5686 L69.5397,-67.5085 C70.9694,-66.7782 79.5476,-61.8081 79.5476,-47.6896 L79.5479,-47.6643 C79.548,-47.6559 79.5481,-47.6455 79.5482,-47.633 L79.5489,-47.5344 L79.5492,-47.4675 L79.5502,-47.2997 L79.5502,-47.1992 L79.5502,-46.9663 L79.5502,-46.8343 L79.549,-46.5404 C79.535,-43.4587 79.3781,-34.8128 78.1239,-28.4362 C77.139,-23.4278 69.3029,-17.9466 60.303,-16.8843 C55.61,-16.3308 50.9893,-15.822 46.0622,-16.0454 C38.0042,-16.4103 31.646,-17.9466 31.646,-17.9466 C31.646,-17.1712 31.6944,-16.4329 31.7911,-15.7424 C32.8387,-7.8819 39.6764,-7.41101 46.1535,-7.19144 C50.7063,-7.03745 54.9118,-7.87068 57.0455,-8.39076 L57.3572,-8.46813 C58.0944,-8.65449 58.512,-8.78466 58.512,-8.78466 L58.7806,-2.94271 C58.7806,-2.94271 54.2079,-0.515574 46.0622,-0.0691648 C41.5704,0.174887 35.9931,-0.180863 29.497,-1.88043 C15.4083,-5.56646 12.9853,-20.4112 12.6146,-35.4736 C12.5016,-39.9457 12.5712,-44.1627 12.5712,-47.6896 C12.5712,-61.8081 21.1498,-66.7782 22.5796,-67.5085 L22.6658,-67.5518 C22.7405,-67.5886 22.7804,-67.6062 22.7804,-67.6062 C27.9282,-69.9431 36.7612,-70.9258 45.9441,-71 L46.1697,-71 Z M56.5492,-58.9655 C52.7238,-58.9655 49.8272,-57.5123 47.9124,-54.6054 L46.0502,-51.5203 L44.1883,-54.6054 C42.2731,-57.5123 39.3765,-58.9655 35.5515,-58.9655 C32.2454,-58.9655 29.5822,-57.8167 27.5485,-55.5759 C25.5764,-53.3351 24.5946,-50.3062 24.5946,-46.4947 L24.5946,-27.8454 L32.0694,-27.8454 L32.0694,-45.9465 C32.0694,-49.7623 33.6936,-51.699 36.9423,-51.699 C40.5344,-51.699 42.335,-49.4015 42.335,-44.8586 L42.335,-34.9508 L49.7656,-34.9508 L49.7656,-44.8586 C49.7656,-49.4015 51.5659,-51.699 55.158,-51.699 C58.4068,-51.699 60.031,-49.7623 60.031,-45.9465 L60.031,-27.8454 L67.5057,-27.8454 L67.5057,-46.4947 C67.5057,-50.3062 66.5239,-53.3351 64.5522,-55.5759 C62.5181,-57.8167 59.8549,-58.9655 56.5492,-58.9655 Z" id="Path-9"></path>
                </g>
                <g id="Bold-S" transform="translate(2294.08, 696)">
                    <path d="M46.1697,-71 C55.3526,-70.9258 64.1915,-69.9431 69.3388,-67.6062 C69.3388,-67.6062 69.3665,-67.594 69.419,-67.5686 L69.5397,-67.5085 C70.9694,-66.7782 79.5476,-61.8081 79.5476,-47.6896 L79.5479,-47.6643 C79.548,-47.6559 79.5481,-47.6455 79.5482,-47.633 L79.5489,-47.5344 L79.5492,-47.4675 L79.5502,-47.2997 L79.5502,-47.1992 L79.5502,-46.9663 L79.5502,-46.8343 L79.549,-46.5404 C79.535,-43.4587 79.3781,-34.8128 78.1239,-28.4362 C77.139,-23.4278 69.3029,-17.9466 60.303,-16.8843 C55.61,-16.3308 50.9893,-15.822 46.0622,-16.0454 C38.0042,-16.4103 31.646,-17.9466 31.646,-17.9466 C31.646,-17.1712 31.6944,-16.4329 31.7911,-15.7424 C32.8387,-7.8819 39.6764,-7.41101 46.1535,-7.19144 C50.7063,-7.03745 54.9118,-7.87068 57.0455,-8.39076 L57.3572,-8.46813 C58.0944,-8.65449 58.512,-8.78466 58.512,-8.78466 L58.7806,-2.94271 C58.7806,-2.94271 54.2079,-0.515574 46.0622,-0.0691648 C41.5704,0.174887 35.9931,-0.180863 29.497,-1.88043 C15.4083,-5.56646 12.9853,-20.4112 12.6146,-35.4736 C12.5016,-39.9457 12.5712,-44.1627 12.5712,-47.6896 C12.5712,-61.8081 21.1498,-66.7782 22.5796,-67.5085 L22.6658,-67.5518 C22.7405,-67.5886 22.7804,-67.6062 22.7804,-67.6062 C27.9282,-69.9431 36.7612,-70.9258 45.9441,-71 L46.1697,-71 Z M56.5492,-58.9655 C52.7238,-58.9655 49.8272,-57.5123 47.9124,-54.6054 L46.0502,-51.5203 L44.1883,-54.6054 C42.2731,-57.5123 39.3765,-58.9655 35.5515,-58.9655 C32.2454,-58.9655 29.5822,-57.8167 27.5485,-55.5759 C25.5764,-53.3351 24.5946,-50.3062 24.5946,-46.4947 L24.5946,-27.8454 L32.0694,-27.8454 L32.0694,-45.9465 C32.0694,-49.7623 33.6936,-51.699 36.9423,-51.699 C40.5344,-51.699 42.335,-49.4015 42.335,-44.8586 L42.335,-34.9508 L49.7656,-34.9508 L49.7656,-44.8586 C49.7656,-49.4015 51.5659,-51.699 55.158,-51.699 C58.4068,-51.699 60.031,-49.7623 60.031,-45.9465 L60.031,-27.8454 L67.5057,-27.8454 L67.5057,-46.4947 C67.5057,-50.3062 66.5239,-53.3351 64.5522,-55.5759 C62.5181,-57.8167 59.8549,-58.9655 56.5492,-58.9655 Z" id="Path-8"></path>
                </g>
                <g id="Semibold-S" transform="translate(1997.37, 696)">
                    <path d="M46.1697,-71 C55.3526,-70.9258 64.1915,-69.9431 69.3388,-67.6062 C69.3388,-67.6062 69.3665,-67.594 69.419,-67.5686 L69.5397,-67.5085 C70.9694,-66.7782 79.5476,-61.8081 79.5476,-47.6896 L79.5479,-47.6643 C79.548,-47.6559 79.5481,-47.6455 79.5482,-47.633 L79.5489,-47.5344 L79.5492,-47.4675 L79.5502,-47.2997 L79.5502,-47.1992 L79.5502,-46.9663 L79.5502,-46.8343 L79.549,-46.5404 C79.535,-43.4587 79.3781,-34.8128 78.1239,-28.4362 C77.139,-23.4278 69.3029,-17.9466 60.303,-16.8843 C55.61,-16.3308 50.9893,-15.822 46.0622,-16.0454 C38.0042,-16.4103 31.646,-17.9466 31.646,-17.9466 C31.646,-17.1712 31.6944,-16.4329 31.7911,-15.7424 C32.8387,-7.8819 39.6764,-7.41101 46.1535,-7.19144 C50.7063,-7.03745 54.9118,-7.87068 57.0455,-8.39076 L57.3572,-8.46813 C58.0944,-8.65449 58.512,-8.78466 58.512,-8.78466 L58.7806,-2.94271 C58.7806,-2.94271 54.2079,-0.515574 46.0622,-0.0691648 C41.5704,0.174887 35.9931,-0.180863 29.497,-1.88043 C15.4083,-5.56646 12.9853,-20.4112 12.6146,-35.4736 C12.5016,-39.9457 12.5712,-44.1627 12.5712,-47.6896 C12.5712,-61.8081 21.1498,-66.7782 22.5796,-67.5085 L22.6658,-67.5518 C22.7405,-67.5886 22.7804,-67.6062 22.7804,-67.6062 C27.9282,-69.9431 36.7612,-70.9258 45.9441,-71 L46.1697,-71 Z M56.5492,-58.9655 C52.7238,-58.9655 49.8272,-57.5123 47.9124,-54.6054 L46.0502,-51.5203 L44.1883,-54.6054 C42.2731,-57.5123 39.3765,-58.9655 35.5515,-58.9655 C32.2454,-58.9655 29.5822,-57.8167 27.5485,-55.5759 C25.5764,-53.3351 24.5946,-50.3062 24.5946,-46.4947 L24.5946,-27.8454 L32.0694,-27.8454 L32.0694,-45.9465 C32.0694,-49.7623 33.6936,-51.699 36.9423,-51.699 C40.5344,-51.699 42.335,-49.4015 42.335,-44.8586 L42.335,-34.9508 L49.7656,-34.9508 L49.7656,-44.8586 C49.7656,-49.4015 51.5659,-51.699 55.158,-51.699 C58.4068,-51.699 60.031,-49.7623 60.031,-45.9465 L60.031,-27.8454 L67.5057,-27.8454 L67.5057,-46.4947 C67.5057,-50.3062 66.5239,-53.3351 64.5522,-55.5759 C62.5181,-57.8167 59.8549,-58.9655 56.5492,-58.9655 Z" id="Path-7"></path>
                </g>
                <g id="Medium-S" transform="translate(1700.66, 696)">
                    <path d="M46.1697,-70.7573 C55.3526,-70.6831 64.1915,-69.7004 69.3388,-67.3635 C69.3388,-67.3635 69.3665,-67.3513 69.419,-67.3259 L69.5397,-67.2658 C70.9694,-66.5355 79.5476,-61.5654 79.5476,-47.4469 L79.5479,-47.4216 C79.548,-47.4132 79.5481,-47.4028 79.5482,-47.3903 L79.5489,-47.2917 L79.5492,-47.2248 L79.5502,-47.057 L79.5502,-46.9565 L79.5502,-46.7236 L79.5502,-46.5916 L79.549,-46.2977 C79.535,-43.216 79.3781,-34.5701 78.1239,-28.1935 C77.139,-23.1851 69.3029,-17.7039 60.303,-16.6416 C55.61,-16.0881 50.9893,-15.5793 46.0622,-15.8027 C38.0042,-16.1676 31.646,-17.7039 31.646,-17.7039 C31.646,-16.9285 31.6944,-16.1902 31.7911,-15.4997 C32.8387,-7.6392 39.6764,-7.16831 46.1535,-6.94874 C50.7063,-6.79475 54.9118,-7.62798 57.0455,-8.14806 L57.3572,-8.22543 C58.0944,-8.41179 58.512,-8.54196 58.512,-8.54196 L58.7806,-2.70001 C58.7806,-2.70001 54.2079,-0.272874 46.0622,0.173535 C41.5704,0.417587 35.9931,0.0618373 29.497,-1.63773 C15.4083,-5.32376 12.9853,-20.1685 12.6146,-35.2309 C12.5016,-39.703 12.5712,-43.92 12.5712,-47.4469 C12.5712,-61.5654 21.1498,-66.5355 22.5796,-67.2658 L22.6658,-67.3091 C22.7405,-67.3459 22.7804,-67.3635 22.7804,-67.3635 C27.9282,-69.7004 36.7612,-70.6831 45.9441,-70.7573 L46.1697,-70.7573 Z M56.5492,-58.7228 C52.7238,-58.7228 49.8272,-57.2696 47.9124,-54.3627 L46.0502,-51.2776 L44.1883,-54.3627 C42.2731,-57.2696 39.3765,-58.7228 35.5515,-58.7228 C32.2454,-58.7228 29.5822,-57.574 27.5485,-55.3332 C25.5764,-53.0924 24.5946,-50.0635 24.5946,-46.252 L24.5946,-27.6027 L32.0694,-27.6027 L32.0694,-45.7038 C32.0694,-49.5196 33.6936,-51.4563 36.9423,-51.4563 C40.5344,-51.4563 42.335,-49.1588 42.335,-44.6159 L42.335,-34.7081 L49.7656,-34.7081 L49.7656,-44.6159 C49.7656,-49.1588 51.5659,-51.4563 55.158,-51.4563 C58.4068,-51.4563 60.031,-49.5196 60.031,-45.7038 L60.031,-27.6027 L67.5057,-27.6027 L67.5057,-46.252 C67.5057,-50.0635 66.5239,-53.0924 64.5522,-55.3332 C62.5181,-57.574 59.8549,-58.7228 56.5492,-58.7228 Z" id="Path-6"></path>
                </g>
                <g id="Regular-S" transform="translate(1403.95, 696)">
                    <path d="M46.1697,-70.7573 C55.3526,-70.6831 64.1915,-69.7004 69.3388,-67.3635 C69.3388,-67.3635 69.3665,-67.3513 69.419,-67.3259 L69.5397,-67.2658 C70.9694,-66.5355 79.5476,-61.5654 79.5476,-47.4469 L79.5479,-47.4216 C79.548,-47.4132 79.5481,-47.4028 79.5482,-47.3903 L79.5489,-47.2917 L79.5492,-47.2248 L79.5502,-47.057 L79.5502,-46.9565 L79.5502,-46.7236 L79.5502,-46.5916 L79.549,-46.2977 C79.535,-43.216 79.3781,-34.5701 78.1239,-28.1935 C77.139,-23.1851 69.3029,-17.7039 60.303,-16.6416 C55.61,-16.0881 50.9893,-15.5793 46.0622,-15.8027 C38.0042,-16.1676 31.646,-17.7039 31.646,-17.7039 C31.646,-16.9285 31.6944,-16.1902 31.7911,-15.4997 C32.8387,-7.6392 39.6764,-7.16831 46.1535,-6.94874 C50.7063,-6.79475 54.9118,-7.62798 57.0455,-8.14806 L57.3572,-8.22543 C58.0944,-8.41179 58.512,-8.54196 58.512,-8.54196 L58.7806,-2.70001 C58.7806,-2.70001 54.2079,-0.272874 46.0622,0.173535 C41.5704,0.417587 35.9931,0.0618373 29.497,-1.63773 C15.4083,-5.32376 12.9853,-20.1685 12.6146,-35.2309 C12.5016,-39.703 12.5712,-43.92 12.5712,-47.4469 C12.5712,-61.5654 21.1498,-66.5355 22.5796,-67.2658 L22.6658,-67.3091 C22.7405,-67.3459 22.7804,-67.3635 22.7804,-67.3635 C27.9282,-69.7004 36.7612,-70.6831 45.9441,-70.7573 L46.1697,-70.7573 Z M56.5492,-58.7228 C52.7238,-58.7228 49.8272,-57.2696 47.9124,-54.3627 L46.0502,-51.2776 L44.1883,-54.3627 C42.2731,-57.2696 39.3765,-58.7228 35.5515,-58.7228 C32.2454,-58.7228 29.5822,-57.574 27.5485,-55.3332 C25.5764,-53.0924 24.5946,-50.0635 24.5946,-46.252 L24.5946,-27.6027 L32.0694,-27.6027 L32.0694,-45.7038 C32.0694,-49.5196 33.6936,-51.4563 36.9423,-51.4563 C40.5344,-51.4563 42.335,-49.1588 42.335,-44.6159 L42.335,-34.7081 L49.7656,-34.7081 L49.7656,-44.6159 C49.7656,-49.1588 51.5659,-51.4563 55.158,-51.4563 C58.4068,-51.4563 60.031,-49.5196 60.031,-45.7038 L60.031,-27.6027 L67.5057,-27.6027 L67.5057,-46.252 C67.5057,-50.0635 66.5239,-53.0924 64.5522,-55.3332 C62.5181,-57.574 59.8549,-58.7228 56.5492,-58.7228 Z" id="Path-5"></path>
                </g>
                <g id="Light-S" transform="translate(1107.24, 696)">
                    <path d="M46.1697,-70.7573 C55.3526,-70.6831 64.1915,-69.7004 69.3388,-67.3635 C69.3388,-67.3635 69.3665,-67.3513 69.419,-67.3259 L69.5397,-67.2658 C70.9694,-66.5355 79.5476,-61.5654 79.5476,-47.4469 L79.5479,-47.4216 C79.548,-47.4132 79.5481,-47.4028 79.5482,-47.3903 L79.5489,-47.2917 L79.5492,-47.2248 L79.5502,-47.057 L79.5502,-46.9565 L79.5502,-46.7236 L79.5502,-46.5916 L79.549,-46.2977 C79.535,-43.216 79.3781,-34.5701 78.1239,-28.1935 C77.139,-23.1851 69.3029,-17.7039 60.303,-16.6416 C55.61,-16.0881 50.9893,-15.5793 46.0622,-15.8027 C38.0042,-16.1676 31.646,-17.7039 31.646,-17.7039 C31.646,-16.9285 31.6944,-16.1902 31.7911,-15.4997 C32.8387,-7.6392 39.6764,-7.16831 46.1535,-6.94874 C50.7063,-6.79475 54.9118,-7.62798 57.0455,-8.14806 L57.3572,-8.22543 C58.0944,-8.41179 58.512,-8.54196 58.512,-8.54196 L58.7806,-2.70001 C58.7806,-2.70001 54.2079,-0.272874 46.0622,0.173535 C41.5704,0.417587 35.9931,0.0618373 29.497,-1.63773 C15.4083,-5.32376 12.9853,-20.1685 12.6146,-35.2309 C12.5016,-39.703 12.5712,-43.92 12.5712,-47.4469 C12.5712,-61.5654 21.1498,-66.5355 22.5796,-67.2658 L22.6658,-67.3091 C22.7405,-67.3459 22.7804,-67.3635 22.7804,-67.3635 C27.9282,-69.7004 36.7612,-70.6831 45.9441,-70.7573 L46.1697,-70.7573 Z M56.5492,-58.7228 C52.7238,-58.7228 49.8272,-57.2696 47.9124,-54.3627 L46.0502,-51.2776 L44.1883,-54.3627 C42.2731,-57.2696 39.3765,-58.7228 35.5515,-58.7228 C32.2454,-58.7228 29.5822,-57.574 27.5485,-55.3332 C25.5764,-53.0924 24.5946,-50.0635 24.5946,-46.252 L24.5946,-27.6027 L32.0694,-27.6027 L32.0694,-45.7038 C32.0694,-49.5196 33.6936,-51.4563 36.9423,-51.4563 C40.5344,-51.4563 42.335,-49.1588 42.335,-44.6159 L42.335,-34.7081 L49.7656,-34.7081 L49.7656,-44.6159 C49.7656,-49.1588 51.5659,-51.4563 55.158,-51.4563 C58.4068,-51.4563 60.031,-49.5196 60.031,-45.7038 L60.031,-27.6027 L67.5057,-27.6027 L67.5057,-46.252 C67.5057,-50.0635 66.5239,-53.0924 64.5522,-55.3332 C62.5181,-57.574 59.8549,-58.7228 56.5492,-58.7228 Z" id="Path-4"></path>
                </g>
                <g id="Thin-S" transform="translate(810.527, 696)">
                    <path d="M46.1697,-70.7573 C55.3526,-70.6831 64.1915,-69.7004 69.3388,-67.3635 C69.3388,-67.3635 69.3665,-67.3513 69.419,-67.3259 L69.5397,-67.2658 C70.9694,-66.5355 79.5476,-61.5654 79.5476,-47.4469 L79.5479,-47.4216 C79.548,-47.4132 79.5481,-47.4028 79.5482,-47.3903 L79.5489,-47.2917 L79.5492,-47.2248 L79.5502,-47.057 L79.5502,-46.9565 L79.5502,-46.7236 L79.5502,-46.5916 L79.549,-46.2977 C79.535,-43.216 79.3781,-34.5701 78.1239,-28.1935 C77.139,-23.1851 69.3029,-17.7039 60.303,-16.6416 C55.61,-16.0881 50.9893,-15.5793 46.0622,-15.8027 C38.0042,-16.1676 31.646,-17.7039 31.646,-17.7039 C31.646,-16.9285 31.6944,-16.1902 31.7911,-15.4997 C32.8387,-7.6392 39.6764,-7.16831 46.1535,-6.94874 C50.7063,-6.79475 54.9118,-7.62798 57.0455,-8.14806 L57.3572,-8.22543 C58.0944,-8.41179 58.512,-8.54196 58.512,-8.54196 L58.7806,-2.70001 C58.7806,-2.70001 54.2079,-0.272874 46.0622,0.173535 C41.5704,0.417587 35.9931,0.0618373 29.497,-1.63773 C15.4083,-5.32376 12.9853,-20.1685 12.6146,-35.2309 C12.5016,-39.703 12.5712,-43.92 12.5712,-47.4469 C12.5712,-61.5654 21.1498,-66.5355 22.5796,-67.2658 L22.6658,-67.3091 C22.7405,-67.3459 22.7804,-67.3635 22.7804,-67.3635 C27.9282,-69.7004 36.7612,-70.6831 45.9441,-70.7573 L46.1697,-70.7573 Z M56.5492,-58.7228 C52.7238,-58.7228 49.8272,-57.2696 47.9124,-54.3627 L46.0502,-51.2776 L44.1883,-54.3627 C42.2731,-57.2696 39.3765,-58.7228 35.5515,-58.7228 C32.2454,-58.7228 29.5822,-57.574 27.5485,-55.3332 C25.5764,-53.0924 24.5946,-50.0635 24.5946,-46.252 L24.5946,-27.6027 L32.0694,-27.6027 L32.0694,-45.7038 C32.0694,-49.5196 33.6936,-51.4563 36.9423,-51.4563 C40.5344,-51.4563 42.335,-49.1588 42.335,-44.6159 L42.335,-34.7081 L49.7656,-34.7081 L49.7656,-44.6159 C49.7656,-49.1588 51.5659,-51.4563 55.158,-51.4563 C58.4068,-51.4563 60.031,-49.5196 60.031,-45.7038 L60.031,-27.6027 L67.5057,-27.6027 L67.5057,-46.252 C67.5057,-50.0635 66.5239,-53.0924 64.5522,-55.3332 C62.5181,-57.574 59.8549,-58.7228 56.5492,-58.7228 Z" id="Path-3"></path>
                </g>
                <g id="Ultralight-S" transform="translate(513.816, 696)">
                    <path d="M46.1697,-70.7573 C55.3526,-70.6831 64.1915,-69.7004 69.3388,-67.3635 C69.3388,-67.3635 69.3665,-67.3513 69.419,-67.3259 L69.5397,-67.2658 C70.9694,-66.5355 79.5476,-61.5654 79.5476,-47.4469 L79.5479,-47.4216 C79.548,-47.4132 79.5481,-47.4028 79.5482,-47.3903 L79.5489,-47.2917 L79.5492,-47.2248 L79.5502,-47.057 L79.5502,-46.9565 L79.5502,-46.7236 L79.5502,-46.5916 L79.549,-46.2977 C79.535,-43.216 79.3781,-34.5701 78.1239,-28.1935 C77.139,-23.1851 69.3029,-17.7039 60.303,-16.6416 C55.61,-16.0881 50.9893,-15.5793 46.0622,-15.8027 C38.0042,-16.1676 31.646,-17.7039 31.646,-17.7039 C31.646,-16.9285 31.6944,-16.1902 31.7911,-15.4997 C32.8387,-7.6392 39.6764,-7.16831 46.1535,-6.94874 C50.7063,-6.79475 54.9118,-7.62798 57.0455,-8.14806 L57.3572,-8.22543 C58.0944,-8.41179 58.512,-8.54196 58.512,-8.54196 L58.7806,-2.70001 C58.7806,-2.70001 54.2079,-0.272874 46.0622,0.173535 C41.5704,0.417587 35.9931,0.0618373 29.497,-1.63773 C15.4083,-5.32376 12.9853,-20.1685 12.6146,-35.2309 C12.5016,-39.703 12.5712,-43.92 12.5712,-47.4469 C12.5712,-61.5654 21.1498,-66.5355 22.5796,-67.2658 L22.6658,-67.3091 C22.7405,-67.3459 22.7804,-67.3635 22.7804,-67.3635 C27.9282,-69.7004 36.7612,-70.6831 45.9441,-70.7573 L46.1697,-70.7573 Z M56.5492,-58.7228 C52.7238,-58.7228 49.8272,-57.2696 47.9124,-54.3627 L46.0502,-51.2776 L44.1883,-54.3627 C42.2731,-57.2696 39.3765,-58.7228 35.5515,-58.7228 C32.2454,-58.7228 29.5822,-57.574 27.5485,-55.3332 C25.5764,-53.0924 24.5946,-50.0635 24.5946,-46.252 L24.5946,-27.6027 L32.0694,-27.6027 L32.0694,-45.7038 C32.0694,-49.5196 33.6936,-51.4563 36.9423,-51.4563 C40.5344,-51.4563 42.335,-49.1588 42.335,-44.6159 L42.335,-34.7081 L49.7656,-34.7081 L49.7656,-44.6159 C49.7656,-49.1588 51.5659,-51.4563 55.158,-51.4563 C58.4068,-51.4563 60.031,-49.5196 60.031,-45.7038 L60.031,-27.6027 L67.5057,-27.6027 L67.5057,-46.252 C67.5057,-50.0635 66.5239,-53.0924 64.5522,-55.3332 C62.5181,-57.574 59.8549,-58.7228 56.5492,-58.7228 Z" id="Path-2"></path>
                </g>
            </g>
        </g>
    </g>
</svg>