<?xml version="1.0" encoding="UTF-8"?>
<!--Generator: Apple Native CoreSVG 175.5-->
<!DOCTYPE svg
PUBLIC "-//W3C//DTD SVG 1.1//EN"
       "http://www.w3.org/Graphics/SVG/1.1/DTD/svg11.dtd">
<svg version="1.1" xmlns="http://www.w3.org/2000/svg" xmlns:xlink="http://www.w3.org/1999/xlink" width="3300" height="2200">
 <!--glyph: "", point size: 100.0, font version: "18.0d12e2", template writer version: "101"-->
 <style>.monochrome-0 {fill:#000000}
.monochrome-1 {fill:#FFFFFF;opacity:0.0;-sfsymbols-clear-behind:true}
.monochrome-2 {fill:#000000}

.multicolor-0:custom {fill:#9146FF}
.multicolor-1:white {fill:#FFFFFF}
.multicolor-2:custom {fill:#9146FF}

.hierarchical-0:secondary {fill:#4D4D4D}
.hierarchical-1:tertiary {fill:#8E8E8E}
.hierarchical-2:primary {fill:#212121}

.SFSymbolsPreview9146FF {fill:#9146FF;opacity:1.0}
.SFSymbolsPreviewFFFFFF {fill:#FFFFFF;opacity:1.0}
</style>
 <g id="Notes">
  <rect height="2200" id="artboard" style="fill:white;opacity:1" width="3300" x="0" y="0"/>
  <line style="fill:none;stroke:black;opacity:1;stroke-width:0.5;" x1="263" x2="3036" y1="292" y2="292"/>
  <text style="stroke:none;fill:black;font-family:sans-serif;font-size:13;font-weight:bold;" transform="matrix(1 0 0 1 263 322)">Weight/Scale Variations</text>
  <text style="stroke:none;fill:black;font-family:sans-serif;font-size:13;text-anchor:middle;" transform="matrix(1 0 0 1 559.711 322)">Ultralight</text>
  <text style="stroke:none;fill:black;font-family:sans-serif;font-size:13;text-anchor:middle;" transform="matrix(1 0 0 1 856.422 322)">Thin</text>
  <text style="stroke:none;fill:black;font-family:sans-serif;font-size:13;text-anchor:middle;" transform="matrix(1 0 0 1 1153.13 322)">Light</text>
  <text style="stroke:none;fill:black;font-family:sans-serif;font-size:13;text-anchor:middle;" transform="matrix(1 0 0 1 1449.84 322)">Regular</text>
  <text style="stroke:none;fill:black;font-family:sans-serif;font-size:13;text-anchor:middle;" transform="matrix(1 0 0 1 1746.56 322)">Medium</text>
  <text style="stroke:none;fill:black;font-family:sans-serif;font-size:13;text-anchor:middle;" transform="matrix(1 0 0 1 2043.27 322)">Semibold</text>
  <text style="stroke:none;fill:black;font-family:sans-serif;font-size:13;text-anchor:middle;" transform="matrix(1 0 0 1 2339.98 322)">Bold</text>
  <text style="stroke:none;fill:black;font-family:sans-serif;font-size:13;text-anchor:middle;" transform="matrix(1 0 0 1 2636.69 322)">Heavy</text>
  <text style="stroke:none;fill:black;font-family:sans-serif;font-size:13;text-anchor:middle;" transform="matrix(1 0 0 1 2933.4 322)">Black</text>
  <line style="fill:none;stroke:black;opacity:1;stroke-width:0.5;" x1="263" x2="3036" y1="1903" y2="1903"/>
  <g transform="matrix(1 0 0 1 263 1933)">
   <path d="M9.24805 0.830078C13.5547 0.830078 17.1387-2.74414 17.1387-7.05078C17.1387-11.3574 13.5449-14.9316 9.23828-14.9316C4.94141-14.9316 1.36719-11.3574 1.36719-7.05078C1.36719-2.74414 4.95117 0.830078 9.24805 0.830078ZM9.24805-0.654297C5.70312-0.654297 2.87109-3.49609 2.87109-7.05078C2.87109-10.6055 5.69336-13.4473 9.23828-13.4473C12.793-13.4473 15.6445-10.6055 15.6445-7.05078C15.6445-3.49609 12.8027-0.654297 9.24805-0.654297ZM5.6543-7.05078C5.6543-6.62109 5.95703-6.32812 6.40625-6.32812L8.50586-6.32812L8.50586-4.20898C8.50586-3.76953 8.79883-3.4668 9.22852-3.4668C9.67773-3.4668 9.9707-3.76953 9.9707-4.20898L9.9707-6.32812L12.0898-6.32812C12.5293-6.32812 12.832-6.62109 12.832-7.05078C12.832-7.49023 12.5293-7.79297 12.0898-7.79297L9.9707-7.79297L9.9707-9.90234C9.9707-10.3516 9.67773-10.6543 9.22852-10.6543C8.79883-10.6543 8.50586-10.3516 8.50586-9.90234L8.50586-7.79297L6.40625-7.79297C5.95703-7.79297 5.6543-7.49023 5.6543-7.05078Z"/>
  </g>
  <g transform="matrix(1 0 0 1 281.867 1933)">
   <path d="M11.709 2.91016C17.1582 2.91016 21.6699-1.61133 21.6699-7.05078C21.6699-12.5 17.1484-17.0117 11.6992-17.0117C6.25977-17.0117 1.74805-12.5 1.74805-7.05078C1.74805-1.61133 6.26953 2.91016 11.709 2.91016ZM11.709 1.25C7.09961 1.25 3.41797-2.44141 3.41797-7.05078C3.41797-11.6602 7.08984-15.3516 11.6992-15.3516C16.3086-15.3516 20.0098-11.6602 20.0098-7.05078C20.0098-2.44141 16.3184 1.25 11.709 1.25ZM7.17773-7.05078C7.17773-6.57227 7.50977-6.25 8.00781-6.25L10.8789-6.25L10.8789-3.36914C10.8789-2.88086 11.2109-2.53906 11.6895-2.53906C12.1777-2.53906 12.5195-2.87109 12.5195-3.36914L12.5195-6.25L15.4004-6.25C15.8887-6.25 16.2305-6.57227 16.2305-7.05078C16.2305-7.53906 15.8887-7.88086 15.4004-7.88086L12.5195-7.88086L12.5195-10.752C12.5195-11.25 12.1777-11.5918 11.6895-11.5918C11.2109-11.5918 10.8789-11.25 10.8789-10.752L10.8789-7.88086L8.00781-7.88086C7.50977-7.88086 7.17773-7.53906 7.17773-7.05078Z"/>
  </g>
  <g transform="matrix(1 0 0 1 305.646 1933)">
   <path d="M14.9707 5.66406C21.9336 5.66406 27.6953-0.0976562 27.6953-7.05078C27.6953-14.0137 21.9238-19.7754 14.9609-19.7754C8.00781-19.7754 2.25586-14.0137 2.25586-7.05078C2.25586-0.0976562 8.01758 5.66406 14.9707 5.66406ZM14.9707 3.84766C8.93555 3.84766 4.08203-1.01562 4.08203-7.05078C4.08203-13.0957 8.92578-17.9492 14.9609-17.9492C21.0059-17.9492 25.8691-13.0957 25.8691-7.05078C25.8691-1.01562 21.0156 3.84766 14.9707 3.84766ZM9.19922-7.05078C9.19922-6.5332 9.57031-6.17188 10.1172-6.17188L14.0625-6.17188L14.0625-2.2168C14.0625-1.67969 14.4336-1.29883 14.9512-1.29883C15.4883-1.29883 15.8594-1.66992 15.8594-2.2168L15.8594-6.17188L19.8145-6.17188C20.3516-6.17188 20.7324-6.5332 20.7324-7.05078C20.7324-7.59766 20.3613-7.96875 19.8145-7.96875L15.8594-7.96875L15.8594-11.9141C15.8594-12.4609 15.4883-12.8418 14.9512-12.8418C14.4336-12.8418 14.0625-12.4609 14.0625-11.9141L14.0625-7.96875L10.1172-7.96875C9.57031-7.96875 9.19922-7.59766 9.19922-7.05078Z"/>
  </g>
  <text style="stroke:none;fill:black;font-family:sans-serif;font-size:13;font-weight:bold;" transform="matrix(1 0 0 1 263 1953)">Design Variations</text>
  <text style="stroke:none;fill:black;font-family:sans-serif;font-size:13;" transform="matrix(1 0 0 1 263 1971)">Symbols are supported in up to nine weights and three scales.</text>
  <text style="stroke:none;fill:black;font-family:sans-serif;font-size:13;" transform="matrix(1 0 0 1 263 1989)">For optimal layout with text and other symbols, vertically align</text>
  <text style="stroke:none;fill:black;font-family:sans-serif;font-size:13;" transform="matrix(1 0 0 1 263 2007)">symbols with the adjacent text.</text>
  <line style="fill:none;stroke:#00AEEF;stroke-width:0.5;opacity:1.0;" x1="776" x2="776" y1="1919" y2="1933"/>
  <g transform="matrix(1 0 0 1 776 1933)">
   <path d="M3.31055 0.15625C3.82812 0.15625 4.08203-0.0390625 4.26758-0.585938L5.52734-4.0332L11.2891-4.0332L12.5488-0.585938C12.7344-0.0390625 12.9883 0.15625 13.4961 0.15625C14.0137 0.15625 14.3457-0.15625 14.3457-0.644531C14.3457-0.810547 14.3164-0.966797 14.2383-1.17188L9.6582-13.3691C9.43359-13.9648 9.0332-14.2676 8.4082-14.2676C7.80273-14.2676 7.39258-13.9746 7.17773-13.3789L2.59766-1.16211C2.51953-0.957031 2.49023-0.800781 2.49023-0.634766C2.49023-0.146484 2.80273 0.15625 3.31055 0.15625ZM6.00586-5.51758L8.37891-12.0898L8.42773-12.0898L10.8008-5.51758Z"/>
  </g>
  <line style="fill:none;stroke:#00AEEF;stroke-width:0.5;opacity:1.0;" x1="793.197" x2="793.197" y1="1919" y2="1933"/>
  <text style="stroke:none;fill:black;font-family:sans-serif;font-size:13;font-weight:bold;" transform="matrix(1 0 0 1 776 1953)">Margins</text>
  <text style="stroke:none;fill:black;font-family:sans-serif;font-size:13;" transform="matrix(1 0 0 1 776 1971)">Leading and trailing margins on the left and right side of each symbol</text>
  <text style="stroke:none;fill:black;font-family:sans-serif;font-size:13;" transform="matrix(1 0 0 1 776 1989)">can be adjusted by modifying the x-location of the margin guidelines.</text>
  <text style="stroke:none;fill:black;font-family:sans-serif;font-size:13;" transform="matrix(1 0 0 1 776 2007)">Modifications are automatically applied proportionally to all</text>
  <text style="stroke:none;fill:black;font-family:sans-serif;font-size:13;" transform="matrix(1 0 0 1 776 2025)">scales and weights.</text>
  <g transform="matrix(1 0 0 1 1289 1933)">
   <path d="M2.8418 1.86523L4.54102 3.57422C5.40039 4.44336 6.38672 4.38477 7.31445 3.35938L18.0078-8.42773L17.041-9.4043L6.42578 2.27539C6.07422 2.67578 5.74219 2.77344 5.27344 2.30469L4.10156 1.14258C3.63281 0.683594 3.74023 0.341797 4.14062-0.0195312L15.6152-10.8203L14.6387-11.7871L3.04688-0.898438C2.06055 0.0195312 1.98242 0.996094 2.8418 1.86523ZM9.25781-16.3281C8.83789-15.918 8.80859-15.3418 9.04297-14.9512C9.27734-14.5898 9.73633-14.3555 10.3809-14.5215C11.8457-14.8633 13.3691-14.9219 14.7949-13.9844L14.209-12.5293C13.8672-11.6992 14.043-11.1133 14.5801-10.5664L16.875-8.25195C17.3633-7.76367 17.7734-7.74414 18.3398-7.8418L19.4043-8.03711L20.0684-7.36328L20.0293-6.80664C19.9902-6.30859 20.1172-5.92773 20.6055-5.44922L21.3672-4.70703C21.8457-4.22852 22.4609-4.19922 22.9297-4.66797L25.8398-7.58789C26.3086-8.05664 26.2891-8.65234 25.8105-9.13086L25.0391-9.89258C24.5605-10.3711 24.1895-10.5273 23.7109-10.4883L23.1348-10.4395L22.4902-11.0742L22.7344-12.1973C22.8613-12.7637 22.7051-13.2031 22.1191-13.7891L19.9219-15.9766C16.582-19.2969 12.1484-19.2188 9.25781-16.3281ZM10.752-15.957C13.1836-17.7344 16.4746-17.4316 18.7012-15.2051L21.1328-12.793C21.3672-12.5586 21.4062-12.373 21.3379-12.0312L21.0156-10.5469L22.5195-9.0625L23.5059-9.12109C23.7598-9.13086 23.8379-9.11133 24.0332-8.91602L24.6094-8.33984L22.168-5.89844L21.5918-6.47461C21.3965-6.66992 21.3672-6.74805 21.377-7.01172L21.4453-7.98828L19.9512-9.47266L18.4277-9.21875C18.1055-9.15039 17.959-9.17969 17.7148-9.41406L15.7129-11.416C15.459-11.6504 15.4297-11.8164 15.5859-12.1875L16.4648-14.2773C14.9023-15.7324 12.8711-16.3574 10.8398-15.7617C10.6836-15.7227 10.625-15.8496 10.752-15.957Z"/>
  </g>
  <text style="stroke:none;fill:black;font-family:sans-serif;font-size:13;font-weight:bold;" transform="matrix(1 0 0 1 1289 1953)">Exporting</text>
  <text style="stroke:none;fill:black;font-family:sans-serif;font-size:13;" transform="matrix(1 0 0 1 1289 1971)">Symbols should be outlined when exporting to ensure the</text>
  <text style="stroke:none;fill:black;font-family:sans-serif;font-size:13;" transform="matrix(1 0 0 1 1289 1989)">design is preserved when submitting to Xcode.</text>
  <text id="template-version" style="stroke:none;fill:black;font-family:sans-serif;font-size:13;text-anchor:end;" transform="matrix(1 0 0 1 3036 1933)">Template v.4.0</text>
  <text style="stroke:none;fill:black;font-family:sans-serif;font-size:13;text-anchor:end;" transform="matrix(1 0 0 1 3036 1951)">Requires Xcode 14 or greater</text>
  <text id="descriptive-name" style="stroke:none;fill:black;font-family:sans-serif;font-size:13;text-anchor:end;" transform="matrix(1 0 0 1 3036 1969)">Generated from twitch</text>
  <text style="stroke:none;fill:black;font-family:sans-serif;font-size:13;text-anchor:end;" transform="matrix(1 0 0 1 3036 1987)">Typeset at 100 points</text>
  <text style="stroke:none;fill:black;font-family:sans-serif;font-size:13;" transform="matrix(1 0 0 1 263 726)">Small</text>
  <text style="stroke:none;fill:black;font-family:sans-serif;font-size:13;" transform="matrix(1 0 0 1 263 1156)">Medium</text>
  <text style="stroke:none;fill:black;font-family:sans-serif;font-size:13;" transform="matrix(1 0 0 1 263 1586)">Large</text>
 </g>
 <g id="Guides">
  <g id="H-reference" style="fill:#27AAE1;stroke:none;" transform="matrix(1 0 0 1 339 696)">
   <path d="M0.993654 0L3.63775 0L29.3281-67.1323L30.0303-67.1323L30.0303-70.459L28.1226-70.459ZM11.6885-24.4799L46.9815-24.4799L46.2315-26.7285L12.4385-26.7285ZM55.1196 0L57.7637 0L30.6382-70.459L29.4326-70.459L29.4326-67.1323Z"/>
  </g>
  <line id="Baseline-S" style="fill:none;stroke:#27AAE1;opacity:1;stroke-width:0.5;" x1="263" x2="3036" y1="696" y2="696"/>
  <line id="Capline-S" style="fill:none;stroke:#27AAE1;opacity:1;stroke-width:0.5;" x1="263" x2="3036" y1="625.541" y2="625.541"/>
  <g id="H-reference" style="fill:#27AAE1;stroke:none;" transform="matrix(1 0 0 1 339 1126)">
   <path d="M0.993654 0L3.63775 0L29.3281-67.1323L30.0303-67.1323L30.0303-70.459L28.1226-70.459ZM11.6885-24.4799L46.9815-24.4799L46.2315-26.7285L12.4385-26.7285ZM55.1196 0L57.7637 0L30.6382-70.459L29.4326-70.459L29.4326-67.1323Z"/>
  </g>
  <line id="Baseline-M" style="fill:none;stroke:#27AAE1;opacity:1;stroke-width:0.5;" x1="263" x2="3036" y1="1126" y2="1126"/>
  <line id="Capline-M" style="fill:none;stroke:#27AAE1;opacity:1;stroke-width:0.5;" x1="263" x2="3036" y1="1055.54" y2="1055.54"/>
  <g id="H-reference" style="fill:#27AAE1;stroke:none;" transform="matrix(1 0 0 1 339 1556)">
   <path d="M0.993654 0L3.63775 0L29.3281-67.1323L30.0303-67.1323L30.0303-70.459L28.1226-70.459ZM11.6885-24.4799L46.9815-24.4799L46.2315-26.7285L12.4385-26.7285ZM55.1196 0L57.7637 0L30.6382-70.459L29.4326-70.459L29.4326-67.1323Z"/>
  </g>
  <line id="Baseline-L" style="fill:none;stroke:#27AAE1;opacity:1;stroke-width:0.5;" x1="263" x2="3036" y1="1556" y2="1556"/>
  <line id="Capline-L" style="fill:none;stroke:#27AAE1;opacity:1;stroke-width:0.5;" x1="263" x2="3036" y1="1485.54" y2="1485.54"/>
  <line id="left-margin-Regular-M" style="fill:none;stroke:#00AEEF;stroke-width:0.5;opacity:1.0;" x1="1392.45" x2="1392.45" y1="1030.79" y2="1150.12"/>
  <line id="right-margin-Regular-M" style="fill:none;stroke:#00AEEF;stroke-width:0.5;opacity:1.0;" x1="1507.24" x2="1507.24" y1="1030.79" y2="1150.12"/>
 </g>
 <g id="Symbols">
  <g id="Black-L" transform="matrix(1 0 0 1 2859.51 1556)">
   <path class="monochrome-0 multicolor-0:custom hierarchical-0:secondary SFSymbolsPreview9146FF" d="M54.2506 26.2013L67.3944 13.6477L88.4148 13.6477L130.461-26.5095L130.461-96.7987L22.716-96.7987L17.4609-76.7163L17.4609 13.6477L41.1149 13.6477L41.1149 26.2013L54.2506 26.2013Z"/>
   <path class="monochrome-0 monochrome-1 multicolor-0:custom multicolor-1:white hierarchical-0:secondary hierarchical-1:tertiary SFSymbolsPreviewFFFFFF" d="M57.8777 1.24478L57.8777-13.7273L34.133-13.7273L34.133-86.103L121.199-86.103L121.199-31.2004L102.726-13.7273L73.7079-13.7273L57.8777 1.24478Z"/>
   <path class="monochrome-2 multicolor-2:custom hierarchical-2:primary SFSymbolsPreview9146FF" d="M73.0347-36.19L73.0347-66.4944L61.9199-66.4944L61.9199-36.19L73.0347-36.19ZM102.674-36.19L102.674-66.4944L91.5593-66.4944L91.5593-36.19L102.674-36.19Z"/>
  </g>
  <g id="Heavy-L" transform="matrix(1 0 0 1 2563.79 1556)">
   <path class="monochrome-0 multicolor-0:custom hierarchical-0:secondary SFSymbolsPreview9146FF" d="M53.5994 25.1168L66.5106 12.7673L87.1589 12.7673L128.461-26.7369L128.461-95.8832L22.623-95.8832L17.4609-76.1273L17.4609 12.7673L40.6962 12.7673L40.6962 25.1168L53.5994 25.1168Z"/>
   <path class="monochrome-0 monochrome-1 multicolor-0:custom multicolor-1:white hierarchical-0:secondary hierarchical-1:tertiary SFSymbolsPreviewFFFFFF" d="M57.1624 0.566075L57.1624-14.1625L33.8379-14.1625L33.8379-85.3615L119.363-85.3615L119.363-31.3516L101.217-14.1625L72.7124-14.1625L57.1624 0.566075Z"/>
   <path class="monochrome-2 multicolor-2:custom hierarchical-2:primary SFSymbolsPreview9146FF" d="M72.0511-36.26L72.0511-66.0716L61.133-66.0716L61.133-36.26L72.0511-36.26ZM101.166-36.26L101.166-66.0716L90.2478-66.0716L90.2478-36.26L101.166-36.26Z"/>
  </g>
  <g id="Bold-L" transform="matrix(1 0 0 1 2268.08 1556)">
   <path class="monochrome-0 multicolor-0:custom hierarchical-0:secondary SFSymbolsPreview9146FF" d="M52.9483 24.2614L65.6268 12.116L85.9031 12.116L126.461-26.7352L126.461-94.7386L22.53-94.7386L17.4609-75.3092L17.4609 12.116L40.2776 12.116L40.2776 24.2614L52.9483 24.2614Z"/>
   <path class="monochrome-0 monochrome-1 multicolor-0:custom multicolor-1:white hierarchical-0:secondary hierarchical-1:tertiary SFSymbolsPreviewFFFFFF" d="M56.447 0.116472L56.447-14.3687L33.5429-14.3687L33.5429-84.3908L117.526-84.3908L117.526-31.2736L99.7075-14.3687L71.7169-14.3687L56.447 0.116472Z"/>
   <path class="monochrome-2 multicolor-2:custom hierarchical-2:primary SFSymbolsPreview9146FF" d="M71.0675-36.1009L71.0675-65.4198L60.3461-65.4198L60.3461-36.1009L71.0675-36.1009ZM99.6576-36.1009L99.6576-65.4198L88.9363-65.4198L88.9363-36.1009L99.6576-36.1009Z"/>
  </g>
  <g id="Semibold-L" transform="matrix(1 0 0 1 1971.87 1556)">
   <path class="monochrome-0 multicolor-0:custom hierarchical-0:secondary SFSymbolsPreview9146FF" d="M52.6227 24.0504L65.1849 12.0071L85.2752 12.0071L125.461-26.5177L125.461-93.9496L22.4835-93.9496L17.4609-74.6835L17.4609 12.0071L40.0682 12.0071L40.0682 24.0504L52.6227 24.0504Z"/>
   <path class="monochrome-0 monochrome-1 multicolor-0:custom multicolor-1:white hierarchical-0:secondary hierarchical-1:tertiary SFSymbolsPreviewFFFFFF" d="M56.0893 0.108371L56.0893-14.2551L33.3953-14.2551L33.3953-83.6887L116.608-83.6887L116.608-31.0179L98.9529-14.2551L71.2191-14.2551L56.0893 0.108371Z"/>
   <path class="monochrome-2 multicolor-2:custom hierarchical-2:primary SFSymbolsPreview9146FF" d="M70.5757-35.8047L70.5757-64.8771L59.9527-64.8771L59.9527-35.8047L70.5757-35.8047ZM98.9035-35.8047L98.9035-64.8771L88.2806-64.8771L88.2806-35.8047L98.9035-35.8047Z"/>
  </g>
  <g id="Medium-L" transform="matrix(1 0 0 1 1676.16 1556)">
   <path class="monochrome-0 multicolor-0:custom hierarchical-0:secondary SFSymbolsPreview9146FF" d="M51.9716 22.6487L64.3012 10.8095L84.0194 10.8095L123.461-27.0623L123.461-93.3513L22.3905-93.3513L17.4609-74.4118L17.4609 10.8095L39.6496 10.8095L39.6496 22.6487L51.9716 22.6487Z"/>
   <path class="monochrome-0 monochrome-1 multicolor-0:custom multicolor-1:white hierarchical-0:secondary hierarchical-1:tertiary SFSymbolsPreviewFFFFFF" d="M55.374-0.887532L55.374-15.0075L33.1002-15.0075L33.1002-83.2643L114.772-83.2643L114.772-31.4863L97.4438-15.0075L70.2236-15.0075L55.374-0.887532Z"/>
   <path class="monochrome-2 multicolor-2:custom hierarchical-2:primary SFSymbolsPreview9146FF" d="M69.592-36.1919L69.592-64.7716L59.1658-64.7716L59.1658-36.1919L69.592-36.1919ZM97.3953-36.1919L97.3953-64.7716L86.9691-64.7716L86.9691-36.1919L97.3953-36.1919Z"/>
  </g>
  <g id="Regular-L" transform="matrix(1 0 0 1 1379.95 1556)">
   <path class="monochrome-0 multicolor-0:custom hierarchical-0:secondary SFSymbolsPreview9146FF" d="M51.646 22.4291L63.8593 10.692L83.3915 10.692L122.461-26.8533L122.461-92.5709L22.344-92.5709L17.4609-73.7946L17.4609 10.692L39.4403 10.692L39.4403 22.4291L51.646 22.4291Z"/>
   <path class="monochrome-0 monochrome-1 multicolor-0:custom multicolor-1:white hierarchical-0:secondary hierarchical-1:tertiary SFSymbolsPreviewFFFFFF" d="M55.0163-0.904233L55.0163-14.9025L32.9527-14.9025L32.9527-82.5709L113.854-82.5709L113.854-31.2392L96.6893-14.9025L69.7258-14.9025L55.0163-0.904233Z"/>
   <path class="monochrome-2 multicolor-2:custom hierarchical-2:primary SFSymbolsPreview9146FF" d="M69.1002-35.9042L69.1002-64.2376L58.7724-64.2376L58.7724-35.9042L69.1002-35.9042ZM96.6412-35.9042L96.6412-64.2376L86.3134-64.2376L86.3134-35.9042L96.6412-35.9042Z"/>
  </g>
  <g id="Light-L" transform="matrix(1 0 0 1 1084.24 1556)">
   <path class="monochrome-0 multicolor-0:custom hierarchical-0:secondary SFSymbolsPreview9146FF" d="M50.9949 21.288L62.9755 9.755L82.1357 9.755L120.461-27.1374L120.461-91.712L22.2509-91.712L17.4609-73.2623L17.4609 9.755L39.0216 9.755L39.0216 21.288L50.9949 21.288Z"/>
   <path class="monochrome-0 monochrome-1 multicolor-0:custom multicolor-1:white hierarchical-0:secondary hierarchical-1:tertiary SFSymbolsPreviewFFFFFF" d="M54.301-1.63954L54.301-15.3943L32.6576-15.3943L32.6576-81.8859L112.018-81.8859L112.018-31.4469L95.1802-15.3943L68.7303-15.3943L54.301-1.63954Z"/>
   <path class="monochrome-2 multicolor-2:custom hierarchical-2:primary SFSymbolsPreview9146FF" d="M68.1166-36.0308L68.1166-63.8714L57.9855-63.8714L57.9855-36.0308L68.1166-36.0308ZM95.133-36.0308L95.133-63.8714L85.0019-63.8714L85.0019-36.0308L95.133-36.0308Z"/>
  </g>
  <g id="Thin-L" transform="matrix(1 0 0 1 788.527 1556)">
   <path class="monochrome-0 multicolor-0:custom hierarchical-0:secondary SFSymbolsPreview9146FF" d="M50.3437 20.4239L62.0917 9.09502L80.8798 9.09502L118.461-27.1444L118.461-90.5761L22.1579-90.5761L17.4609-72.4529L17.4609 9.09502L38.603 9.09502L38.603 20.4239L50.3437 20.4239Z"/>
   <path class="monochrome-0 monochrome-1 multicolor-0:custom multicolor-1:white hierarchical-0:secondary hierarchical-1:tertiary SFSymbolsPreviewFFFFFF" d="M53.5856-2.09784L53.5856-15.6092L32.3625-15.6092L32.3625-80.9239L110.182-80.9239L110.182-31.3777L93.6711-15.6092L67.7348-15.6092L53.5856-2.09784Z"/>
   <path class="monochrome-2 multicolor-2:custom hierarchical-2:primary SFSymbolsPreview9146FF" d="M67.133-35.8804L67.133-63.2283L57.1986-63.2283L57.1986-35.8804L67.133-35.8804ZM93.6248-35.8804L93.6248-63.2283L83.6904-63.2283L83.6904-35.8804L93.6248-35.8804Z"/>
  </g>
  <g id="Ultralight-L" transform="matrix(1 0 0 1 492.816 1556)">
   <path class="monochrome-0 multicolor-0:custom hierarchical-0:secondary SFSymbolsPreview9146FF" d="M49.6926 19.0057L61.2079 7.88095L79.624 7.88095L116.461-27.7055L116.461-89.9943L22.0649-89.9943L17.4609-72.1977L17.4609 7.88095L38.1843 7.88095L38.1843 19.0057L49.6926 19.0057Z"/>
   <path class="monochrome-0 monochrome-1 multicolor-0:custom multicolor-1:white hierarchical-0:secondary hierarchical-1:tertiary SFSymbolsPreviewFFFFFF" d="M52.8703-3.11024L52.8703-16.3782L32.0675-16.3782L32.0675-80.516L108.346-80.516L108.346-31.8625L92.1619-16.3782L66.7393-16.3782L52.8703-3.11024Z"/>
   <path class="monochrome-2 multicolor-2:custom hierarchical-2:primary SFSymbolsPreview9146FF" d="M66.1494-36.2842L66.1494-63.1392L56.4117-63.1392L56.4117-36.2842L66.1494-36.2842ZM92.1166-36.2842L92.1166-63.1392L82.3789-63.1392L82.3789-36.2842L92.1166-36.2842Z"/>
  </g>
  <g id="Black-M" transform="matrix(1 0 0 1 2872.51 1126)">
   <path class="monochrome-0 multicolor-0:custom hierarchical-0:secondary SFSymbolsPreview9146FF" d="M45.7857 13.3998L55.9053 3.60185L72.0891 3.60185L104.461-27.7403L104.461-82.6002L21.5069-82.6002L17.4609-66.9261L17.4609 3.60185L35.6724 3.60185L35.6724 13.3998L45.7857 13.3998Z"/>
   <path class="monochrome-0 monochrome-1 multicolor-0:custom multicolor-1:white hierarchical-0:secondary hierarchical-1:tertiary SFSymbolsPreviewFFFFFF" d="M48.5783-6.07846L48.5783-17.764L30.297-17.764L30.297-74.2524L97.3298-74.2524L97.3298-31.4015L83.1073-17.764L60.7661-17.764L48.5783-6.07846Z"/>
   <path class="monochrome-2 multicolor-2:custom hierarchical-2:primary SFSymbolsPreview9146FF" d="M60.2478-35.2959L60.2478-58.948L51.6904-58.948L51.6904-35.2959L60.2478-35.2959ZM83.0675-35.2959L83.0675-58.948L74.5101-58.948L74.5101-35.2959L83.0675-35.2959Z"/>
  </g>
  <g id="Heavy-M" transform="matrix(1 0 0 1 2576.29 1126)">
   <path class="monochrome-0 multicolor-0:custom hierarchical-0:secondary SFSymbolsPreview9146FF" d="M45.4601 12.2155L55.4634 2.51961L71.4612 2.51961L103.461-28.4961L103.461-82.7845L21.4604-82.7845L17.4609-67.2737L17.4609 2.51961L35.463 2.51961L35.463 12.2155L45.4601 12.2155Z"/>
   <path class="monochrome-0 monochrome-1 multicolor-0:custom multicolor-1:white hierarchical-0:secondary hierarchical-1:tertiary SFSymbolsPreviewFFFFFF" d="M48.2206-7.05986L48.2206-18.6236L30.1494-18.6236L30.1494-74.5236L96.4117-74.5236L96.4117-32.1192L82.3527-18.6236L60.2684-18.6236L48.2206-7.05986Z"/>
   <path class="monochrome-2 multicolor-2:custom hierarchical-2:primary SFSymbolsPreview9146FF" d="M59.756-35.9729L59.756-59.3787L51.297-59.3787L51.297-35.9729L59.756-35.9729ZM82.3134-35.9729L82.3134-59.3787L73.8543-59.3787L73.8543-35.9729L82.3134-35.9729Z"/>
  </g>
  <g id="Bold-M" transform="matrix(1 0 0 1 2280.58 1126)">
   <path class="monochrome-0 multicolor-0:custom hierarchical-0:secondary SFSymbolsPreview9146FF" d="M44.809 11.1281L54.5796 1.63634L70.2054 1.63634L101.461-28.7264L101.461-81.8719L21.3673-81.8719L17.4609-66.6876L17.4609 1.63634L35.0444 1.63634L35.0444 11.1281L44.809 11.1281Z"/>
   <path class="monochrome-0 monochrome-1 multicolor-0:custom multicolor-1:white hierarchical-0:secondary hierarchical-1:tertiary SFSymbolsPreviewFFFFFF" d="M47.5052-7.74147L47.5052-19.0618L29.8543-19.0618L29.8543-73.7849L94.5757-73.7849L94.5757-32.2732L80.8436-19.0618L59.2728-19.0618L47.5052-7.74147Z"/>
   <path class="monochrome-2 multicolor-2:custom hierarchical-2:primary SFSymbolsPreview9146FF" d="M58.7724-36.0458L58.7724-58.9589L50.5101-58.9589L50.5101-36.0458L58.7724-36.0458ZM80.8052-36.0458L80.8052-58.9589L72.5429-58.9589L72.5429-36.0458L80.8052-36.0458Z"/>
  </g>
  <g id="Semibold-M" transform="matrix(1 0 0 1 1984.37 1126)">
   <path class="monochrome-0 multicolor-0:custom hierarchical-0:secondary SFSymbolsPreview9146FF" d="M44.4834 10.7572L54.1377 1.3675L69.5775 1.3675L100.461-28.6688L100.461-81.2428L21.3208-81.2428L17.4609-66.2218L17.4609 1.3675L34.8351 1.3675L34.8351 10.7572L44.4834 10.7572Z"/>
   <path class="monochrome-0 monochrome-1 multicolor-0:custom multicolor-1:white hierarchical-0:secondary hierarchical-1:tertiary SFSymbolsPreviewFFFFFF" d="M47.1476-7.90947L47.1476-19.1081L29.7068-19.1081L29.7068-73.2428L93.6576-73.2428L93.6576-32.1774L80.089-19.1081L58.7751-19.1081L47.1476-7.90947Z"/>
   <path class="monochrome-2 multicolor-2:custom hierarchical-2:primary SFSymbolsPreview9146FF" d="M58.2806-35.9095L58.2806-58.5761L50.1166-58.5761L50.1166-35.9095L58.2806-35.9095ZM80.0511-35.9095L80.0511-58.5761L71.8871-58.5761L71.8871-35.9095L80.0511-35.9095Z"/>
  </g>
  <g id="Medium-M" transform="matrix(1 0 0 1 1688.16 1126)">
   <path class="monochrome-0 multicolor-0:custom hierarchical-0:secondary SFSymbolsPreview9146FF" d="M44.1578 10.2342L53.6958 0.946561L68.9495 0.946561L99.4609-28.7632L99.4609-80.7658L21.2743-80.7658L17.4609-65.9081L17.4609 0.946561L34.6257 0.946561L34.6257 10.2342L44.1578 10.2342Z"/>
   <path class="monochrome-0 monochrome-1 multicolor-0:custom multicolor-1:white hierarchical-0:secondary hierarchical-1:tertiary SFSymbolsPreviewFFFFFF" d="M46.7899-8.22957L46.7899-19.3064L29.5593-19.3064L29.5593-72.8528L92.7396-72.8528L92.7396-32.2337L79.3345-19.3064L58.2773-19.3064L46.7899-8.22957Z"/>
   <path class="monochrome-2 multicolor-2:custom hierarchical-2:primary SFSymbolsPreview9146FF" d="M57.7888-35.9252L57.7888-58.3455L49.7232-58.3455L49.7232-35.9252L57.7888-35.9252ZM79.297-35.9252L79.297-58.3455L71.2314-58.3455L71.2314-35.9252L79.297-35.9252Z"/>
  </g>
  <g id="Regular-M" transform="matrix(1 0 0 1 1392.45 1126)">
   <path class="monochrome-0 multicolor-0:custom hierarchical-0:secondary SFSymbolsPreview9146FF" d="M43.5067 8.8563L52.812-0.227215L67.6937-0.227215L97.4609-29.284L97.4609-80.1437L21.1813-80.1437L17.4609-65.6125L17.4609-0.227215L34.2071-0.227215L34.2071 8.8563L43.5067 8.8563Z"/>
   <path class="monochrome-0 monochrome-1 multicolor-0:custom multicolor-1:white hierarchical-0:secondary hierarchical-1:tertiary SFSymbolsPreviewFFFFFF" d="M46.0746-9.20167L46.0746-20.0351L29.2642-20.0351L29.2642-72.4046L90.9035-72.4046L90.9035-32.6783L77.8254-20.0351L57.2818-20.0351L46.0746-9.20167Z"/>
   <path class="monochrome-2 multicolor-2:custom hierarchical-2:primary SFSymbolsPreview9146FF" d="M56.8052-36.2886L56.8052-58.2162L48.9363-58.2162L48.9363-36.2886L56.8052-36.2886ZM77.7888-36.2886L77.7888-58.2162L69.9199-58.2162L69.9199-36.2886L77.7888-36.2886Z"/>
  </g>
  <g id="Light-M" transform="matrix(1 0 0 1 1096.24 1126)">
   <path class="monochrome-0 multicolor-0:custom hierarchical-0:secondary SFSymbolsPreview9146FF" d="M43.1811 8.6263L52.3702-0.355153L67.0658-0.355153L96.4609-29.0855L96.4609-79.3737L21.1348-79.3737L17.4609-65.0058L17.4609-0.355153L33.9978-0.355153L33.9978 8.6263L43.1811 8.6263Z"/>
   <path class="monochrome-0 monochrome-1 multicolor-0:custom multicolor-1:white hierarchical-0:secondary hierarchical-1:tertiary SFSymbolsPreviewFFFFFF" d="M45.7169-9.22877L45.7169-19.9405L29.1166-19.9405L29.1166-71.7215L89.9855-71.7215L89.9855-32.4416L77.0708-19.9405L56.784-19.9405L45.7169-9.22877Z"/>
   <path class="monochrome-2 multicolor-2:custom hierarchical-2:primary SFSymbolsPreview9146FF" d="M56.3134-36.0114L56.3134-57.6925L48.5429-57.6925L48.5429-36.0114L56.3134-36.0114ZM77.0347-36.0114L77.0347-57.6925L69.2642-57.6925L69.2642-36.0114L77.0347-36.0114Z"/>
  </g>
  <g id="Thin-M" transform="matrix(1 0 0 1 800.527 1126)">
   <path class="monochrome-0 multicolor-0:custom hierarchical-0:secondary SFSymbolsPreview9146FF" d="M42.53 7.6447L51.4864-1.13263L65.81-1.13263L94.4609-29.21L94.4609-78.3553L21.0418-78.3553L17.4609-64.3139L17.4609-1.13263L33.5791-1.13263L33.5791 7.6447L42.53 7.6447Z"/>
   <path class="monochrome-0 monochrome-1 multicolor-0:custom multicolor-1:white hierarchical-0:secondary hierarchical-1:tertiary SFSymbolsPreviewFFFFFF" d="M45.0015-9.80458L45.0015-20.2728L28.8216-20.2728L28.8216-70.877L88.1494-70.877L88.1494-32.4898L75.5617-20.2728L55.7885-20.2728L45.0015-9.80458Z"/>
   <path class="monochrome-2 multicolor-2:custom hierarchical-2:primary SFSymbolsPreview9146FF" d="M55.3298-35.9785L55.3298-57.1669L47.756-57.1669L47.756-35.9785L55.3298-35.9785ZM75.5265-35.9785L75.5265-57.1669L67.9527-57.1669L67.9527-35.9785L75.5265-35.9785Z"/>
  </g>
  <g id="Ultralight-M" transform="matrix(1 0 0 1 504.316 1126)">
   <path class="monochrome-0 multicolor-0:custom hierarchical-0:secondary SFSymbolsPreview9146FF" d="M42.2044 7.1663L51.0445-1.50897L65.1821-1.50897L93.4609-29.2599L93.4609-77.8337L20.9953-77.8337L17.4609-63.9556L17.4609-1.50897L33.3698-1.50897L33.3698 7.1663L42.2044 7.1663Z"/>
   <path class="monochrome-0 monochrome-1 multicolor-0:custom multicolor-1:white hierarchical-0:secondary hierarchical-1:tertiary SFSymbolsPreviewFFFFFF" d="M44.6439-10.0801L44.6439-20.4266L28.674-20.4266L28.674-70.4424L87.2314-70.4424L87.2314-32.5016L74.8072-20.4266L55.2908-20.4266L44.6439-10.0801Z"/>
   <path class="monochrome-2 multicolor-2:custom hierarchical-2:primary SFSymbolsPreview9146FF" d="M54.8379-35.9496L54.8379-56.8917L47.3625-56.8917L47.3625-35.9496L54.8379-35.9496ZM74.7724-35.9496L74.7724-56.8917L67.297-56.8917L67.297-35.9496L74.7724-35.9496Z"/>
  </g>
  <g id="Black-S" transform="matrix(1 0 0 1 2882.01 696)">
   <path class="monochrome-0 multicolor-0:custom hierarchical-0:secondary SFSymbolsPreview9146FF" d="M39.5998 2.6602L47.5094-5.09651L60.1588-5.09651L85.4609-29.9091L85.4609-73.3398L20.6233-73.3398L17.4609-60.9311L17.4609-5.09651L31.6952-5.09651L31.6952 2.6602L39.5998 2.6602Z"/>
   <path class="monochrome-0 monochrome-1 multicolor-0:custom multicolor-1:white hierarchical-0:secondary hierarchical-1:tertiary SFSymbolsPreviewFFFFFF" d="M41.7825-12.7601L41.7825-22.0111L27.4937-22.0111L27.4937-66.7311L79.8871-66.7311L79.8871-32.8075L68.7707-22.0111L51.3087-22.0111L41.7825-12.7601Z"/>
   <path class="monochrome-2 multicolor-2:custom hierarchical-2:primary SFSymbolsPreview9146FF" d="M50.9035-35.8905L50.9035-54.6152L44.215-54.6152L44.215-35.8905L50.9035-35.8905ZM68.7396-35.8905L68.7396-54.6152L62.0511-54.6152L62.0511-35.8905L68.7396-35.8905Z"/>
  </g>
  <g id="Heavy-S" transform="matrix(1 0 0 1 2586.29 696)">
   <path class="monochrome-0 multicolor-0:custom hierarchical-0:secondary SFSymbolsPreview9146FF" d="M38.9487 2.2594L46.6256-5.29319L58.903-5.29319L83.4609-29.4528L83.4609-71.7406L20.5302-71.7406L17.4609-59.6585L17.4609-5.29319L31.2765-5.29319L31.2765 2.2594L38.9487 2.2594Z"/>
   <path class="monochrome-0 monochrome-1 multicolor-0:custom multicolor-1:white hierarchical-0:secondary hierarchical-1:tertiary SFSymbolsPreviewFFFFFF" d="M41.0672-12.7551L41.0672-21.7627L27.1986-21.7627L27.1986-65.3058L78.0511-65.3058L78.0511-32.275L67.2616-21.7627L50.3131-21.7627L41.0672-12.7551Z"/>
   <path class="monochrome-2 multicolor-2:custom hierarchical-2:primary SFSymbolsPreview9146FF" d="M49.9199-35.2768L49.9199-53.5087L43.4281-53.5087L43.4281-35.2768L49.9199-35.2768ZM67.2314-35.2768L67.2314-53.5087L60.7396-53.5087L60.7396-35.2768L67.2314-35.2768Z"/>
  </g>
  <g id="Bold-S" transform="matrix(1 0 0 1 2289.58 696)">
   <path class="monochrome-0 multicolor-0:custom hierarchical-0:secondary SFSymbolsPreview9146FF" d="M38.9487 1.9297L46.6256-5.62289L58.903-5.62289L83.4609-29.7825L83.4609-72.0703L20.5302-72.0703L17.4609-59.9882L17.4609-5.62289L31.2765-5.62289L31.2765 1.9297L38.9487 1.9297Z"/>
   <path class="monochrome-0 monochrome-1 multicolor-0:custom multicolor-1:white hierarchical-0:secondary hierarchical-1:tertiary SFSymbolsPreviewFFFFFF" d="M41.0672-13.0848L41.0672-22.0924L27.1986-22.0924L27.1986-65.6355L78.0511-65.6355L78.0511-32.6047L67.2616-22.0924L50.3131-22.0924L41.0672-13.0848Z"/>
   <path class="monochrome-2 multicolor-2:custom hierarchical-2:primary SFSymbolsPreview9146FF" d="M49.9199-35.6065L49.9199-53.8384L43.4281-53.8384L43.4281-35.6065L49.9199-35.6065ZM67.2314-35.6065L67.2314-53.8384L60.7396-53.8384L60.7396-35.6065L67.2314-35.6065Z"/>
  </g>
  <g id="Semibold-S" transform="matrix(1 0 0 1 1993.87 696)">
   <path class="monochrome-0 multicolor-0:custom hierarchical-0:secondary SFSymbolsPreview9146FF" d="M38.2975 1.3918L45.7418-5.95666L57.6472-5.95666L81.4609-29.4633L81.4609-70.6082L20.4372-70.6082L17.4609-58.8526L17.4609-5.95666L30.8578-5.95666L30.8578 1.3918L38.2975 1.3918Z"/>
   <path class="monochrome-0 monochrome-1 multicolor-0:custom multicolor-1:white hierarchical-0:secondary hierarchical-1:tertiary SFSymbolsPreviewFFFFFF" d="M40.3518-13.2169L40.3518-21.981L26.9035-21.981L26.9035-64.3473L76.215-64.3473L76.215-32.2092L65.7525-21.981L49.3176-21.981L40.3518-13.2169Z"/>
   <path class="monochrome-2 multicolor-2:custom hierarchical-2:primary SFSymbolsPreview9146FF" d="M48.9363-35.1299L48.9363-52.8691L42.6412-52.8691L42.6412-35.1299L48.9363-35.1299ZM65.7232-35.1299L65.7232-52.8691L59.4281-52.8691L59.4281-35.1299L65.7232-35.1299Z"/>
  </g>
  <g id="Medium-S" transform="matrix(1 0 0 1 1697.16 696)">
   <path class="monochrome-0 multicolor-0:custom hierarchical-0:secondary SFSymbolsPreview9146FF" d="M38.2975 0.7422L45.7418-6.60626L57.6472-6.60626L81.4609-30.1129L81.4609-71.2578L20.4372-71.2578L17.4609-59.5022L17.4609-6.60626L30.8578-6.60626L30.8578 0.7422L38.2975 0.7422Z"/>
   <path class="monochrome-0 monochrome-1 multicolor-0:custom multicolor-1:white hierarchical-0:secondary hierarchical-1:tertiary SFSymbolsPreviewFFFFFF" d="M40.3518-13.8665L40.3518-22.6306L26.9035-22.6306L26.9035-64.9969L76.215-64.9969L76.215-32.8588L65.7525-22.6306L49.3176-22.6306L40.3518-13.8665Z"/>
   <path class="monochrome-2 multicolor-2:custom hierarchical-2:primary SFSymbolsPreview9146FF" d="M48.9363-35.7795L48.9363-53.5187L42.6412-53.5187L42.6412-35.7795L48.9363-35.7795ZM65.7232-35.7795L65.7232-53.5187L59.4281-53.5187L59.4281-35.7795L65.7232-35.7795Z"/>
  </g>
  <g id="Regular-S" transform="matrix(1 0 0 1 1400.95 696)">
   <path class="monochrome-0 multicolor-0:custom hierarchical-0:secondary SFSymbolsPreview9146FF" d="M37.972 0.1992L45.2999-7.0472L57.0192-7.0472L80.4609-30.2274L80.4609-70.8008L20.3907-70.8008L17.4609-59.2085L17.4609-7.0472L30.6485-7.0472L30.6485 0.1992L37.972 0.1992Z"/>
   <path class="monochrome-0 monochrome-1 multicolor-0:custom multicolor-1:white hierarchical-0:secondary hierarchical-1:tertiary SFSymbolsPreviewFFFFFF" d="M39.9942-14.2066L39.9942-22.849L26.756-22.849L26.756-64.6269L75.297-64.6269L75.297-32.9351L64.9979-22.849L48.8199-22.849L39.9942-14.2066Z"/>
   <path class="monochrome-2 multicolor-2:custom hierarchical-2:primary SFSymbolsPreview9146FF" d="M48.4445-35.8153L48.4445-53.308L42.2478-53.308L42.2478-35.8153L48.4445-35.8153ZM64.9691-35.8153L64.9691-53.308L58.7724-53.308L58.7724-35.8153L64.9691-35.8153Z"/>
  </g>
  <g id="Light-S" transform="matrix(1 0 0 1 1104.74 696)">
   <path class="monochrome-0 multicolor-0:custom hierarchical-0:secondary SFSymbolsPreview9146FF" d="M37.6464-0.1196L44.858-7.26394L56.3913-7.26394L79.4609-30.1176L79.4609-70.1196L20.3442-70.1196L17.4609-58.6906L17.4609-7.26394L30.4392-7.26394L30.4392-0.1196L37.6464-0.1196Z"/>
   <path class="monochrome-0 monochrome-1 multicolor-0:custom multicolor-1:white hierarchical-0:secondary hierarchical-1:tertiary SFSymbolsPreviewFFFFFF" d="M39.6365-14.3225L39.6365-22.8432L26.6084-22.8432L26.6084-64.0326L74.3789-64.0326L74.3789-32.7872L64.2434-22.8432L48.3221-22.8432L39.6365-14.3225Z"/>
   <path class="monochrome-2 multicolor-2:custom hierarchical-2:primary SFSymbolsPreview9146FF" d="M47.9527-35.6268L47.9527-52.8732L41.8543-52.8732L41.8543-35.6268L47.9527-35.6268ZM64.215-35.6268L64.215-52.8732L58.1166-52.8732L58.1166-35.6268L64.215-35.6268Z"/>
  </g>
  <g id="Thin-S" transform="matrix(1 0 0 1 809.027 696)">
   <path class="monochrome-0 multicolor-0:custom hierarchical-0:secondary SFSymbolsPreview9146FF" d="M36.9953-1.2188L43.9743-8.15901L55.1355-8.15901L77.4609-30.3597L77.4609-69.2188L20.2512-69.2188L17.4609-58.1163L17.4609-8.15901L30.0205-8.15901L30.0205-1.2188L36.9953-1.2188Z"/>
   <path class="monochrome-0 monochrome-1 multicolor-0:custom multicolor-1:white hierarchical-0:secondary hierarchical-1:tertiary SFSymbolsPreviewFFFFFF" d="M38.3929-15.0978L38.3929-23.4231L25.8347-23.4231L25.8347-63.6679L71.8824-63.6679L71.8824-33.1391L62.1124-23.4231L46.7653-23.4231L38.3929-15.0978Z"/>
   <path class="monochrome-2 multicolor-2:custom hierarchical-2:primary SFSymbolsPreview9146FF" d="M46.7646-36.0197L46.7646-52.6752L41.1832-52.6752L41.1832-36.0197L46.7646-36.0197ZM62.1124-36.0197L62.1124-52.6752L56.531-52.6752L56.531-36.0197L62.1124-36.0197Z"/>
  </g>
  <g id="Ultralight-S" transform="matrix(1 0 0 1 512.816 696)">
   <path class="monochrome-0 multicolor-0:custom hierarchical-0:secondary SFSymbolsPreview9146FF" d="M36.6697-1.7573L43.5324-8.59545L54.5076-8.59545L76.4609-30.4697L76.4609-68.7573L20.2047-68.7573L17.4609-57.8181L17.4609-8.59545L29.8112-8.59545L29.8112-1.7573L36.6697-1.7573Z"/>
   <path class="monochrome-0 monochrome-1 multicolor-0:custom multicolor-1:white hierarchical-0:secondary hierarchical-1:tertiary SFSymbolsPreviewFFFFFF" d="M38.044-15.4322L38.044-23.635L25.6951-23.635L25.6951-63.288L70.9754-63.288L70.9754-33.2082L61.3682-23.635L46.2769-23.635L38.044-15.4322Z"/>
   <path class="monochrome-2 multicolor-2:custom hierarchical-2:primary SFSymbolsPreview9146FF" d="M46.2762-36.0464L46.2762-52.457L40.7879-52.457L40.7879-36.0464L46.2762-36.0464ZM61.3682-36.0464L61.3682-52.457L55.8799-52.457L55.8799-36.0464L61.3682-36.0464Z"/>
  </g>
 </g>
</svg>
