<?xml version="1.0" encoding="UTF-8"?>
<!--Generator: Apple Native CoreSVG 341-->
<!DOCTYPE svg
PUBLIC "-//W3C//DTD SVG 1.1//EN"
       "http://www.w3.org/Graphics/SVG/1.1/DTD/svg11.dtd">
<svg version="1.1" xmlns="http://www.w3.org/2000/svg" xmlns:xlink="http://www.w3.org/1999/xlink" viewBox="0 0 3300 2200">
 <!--glyph: "", point size: 100.0, font version: "21.1d1e1", template writer version: "138.0.0"-->
 <style>.defaults {-sfsymbols-variable-value-mode:color;-sfsymbols-draw-reverses-motion-groups:false}

.monochrome-0 {-sfsymbols-motion-group:1;-sfsymbols-layer-tags:484d2e4999c05f94}
.monochrome-1 {-sfsymbols-clear-behind:true;-sfsymbols-motion-group:0;-sfsymbols-layer-tags:484d2e4999c05f94}

.multicolor-0:black {-sfsymbols-motion-group:1;-sfsymbols-layer-tags:484d2e4999c05f94}
.multicolor-1:custom {fill:#FEFC00;-sfsymbols-clear-behind:true;-sfsymbols-motion-group:0;-sfsymbols-layer-tags:484d2e4999c05f94}

.hierarchical-0:primary {-sfsymbols-motion-group:1;-sfsymbols-layer-tags:484d2e4999c05f94}
.hierarchical-1:secondary {-sfsymbols-clear-behind:true;-sfsymbols-motion-group:0;-sfsymbols-layer-tags:484d2e4999c05f94}

.SFSymbolsPreviewWireframe {fill:none;opacity:1.0;stroke:black;stroke-width:0.5}
</style>
 <g id="Notes">
  <rect height="2200" id="artboard" style="fill:white;opacity:1" width="3300" x="0" y="0"/>
  <line style="fill:none;stroke:black;opacity:1;stroke-width:0.5;" x1="263" x2="3036" y1="292" y2="292"/>
  <text style="stroke:none;fill:black;font-family:sans-serif;font-size:13;font-weight:bold;" transform="matrix(1 0 0 1 263 322)">Weight/Scale Variations</text>
  <text style="stroke:none;fill:black;font-family:sans-serif;font-size:13;text-anchor:middle;" transform="matrix(1 0 0 1 559.711 322)">Ultralight</text>
  <text style="stroke:none;fill:black;font-family:sans-serif;font-size:13;text-anchor:middle;" transform="matrix(1 0 0 1 856.422 322)">Thin</text>
  <text style="stroke:none;fill:black;font-family:sans-serif;font-size:13;text-anchor:middle;" transform="matrix(1 0 0 1 1153.13 322)">Light</text>
  <text style="stroke:none;fill:black;font-family:sans-serif;font-size:13;text-anchor:middle;" transform="matrix(1 0 0 1 1449.84 322)">Regular</text>
  <text style="stroke:none;fill:black;font-family:sans-serif;font-size:13;text-anchor:middle;" transform="matrix(1 0 0 1 1746.56 322)">Medium</text>
  <text style="stroke:none;fill:black;font-family:sans-serif;font-size:13;text-anchor:middle;" transform="matrix(1 0 0 1 2043.27 322)">Semibold</text>
  <text style="stroke:none;fill:black;font-family:sans-serif;font-size:13;text-anchor:middle;" transform="matrix(1 0 0 1 2339.98 322)">Bold</text>
  <text style="stroke:none;fill:black;font-family:sans-serif;font-size:13;text-anchor:middle;" transform="matrix(1 0 0 1 2636.69 322)">Heavy</text>
  <text style="stroke:none;fill:black;font-family:sans-serif;font-size:13;text-anchor:middle;" transform="matrix(1 0 0 1 2933.4 322)">Black</text>
  <line style="fill:none;stroke:black;opacity:1;stroke-width:0.5;" x1="263" x2="3036" y1="1903" y2="1903"/>
  <g transform="matrix(0.2 0 0 0.2 263 1933)">
   <path d="m46.2402 4.15039c21.7773 0 39.4531-17.627 39.4531-39.4043s-17.6758-39.4043-39.4531-39.4043c-21.7285 0-39.4043 17.627-39.4043 39.4043s17.6758 39.4043 39.4043 39.4043Zm0-7.42188c-17.6758 0-31.9336-14.3066-31.9336-31.9824s14.2578-31.9824 31.9336-31.9824 31.9824 14.3066 31.9824 31.9824-14.3066 31.9824-31.9824 31.9824Zm3.61328-17.7734v-28.4668c0-2.24609-1.46484-3.75977-3.71094-3.75977-2.14844 0-3.61328 1.51367-3.61328 3.75977v28.4668c0 2.19727 1.46484 3.71094 3.61328 3.71094 2.24609 0 3.71094-1.51367 3.71094-3.71094Zm-17.8223-10.5957h28.418c2.19727 0 3.71094-1.46484 3.71094-3.61328 0-2.19727-1.51367-3.71094-3.71094-3.71094h-28.418c-2.24609 0-3.75977 1.51367-3.75977 3.71094 0 2.14844 1.51367 3.61328 3.75977 3.61328Z"/>
  </g>
  <g transform="matrix(0.2 0 0 0.2 281.506 1933)">
   <path d="m58.5449 14.5508c27.4902 0 49.8047-22.3145 49.8047-49.8047s-22.3145-49.8047-49.8047-49.8047-49.8047 22.3145-49.8047 49.8047 22.3145 49.8047 49.8047 49.8047Zm0-8.30078c-22.9492 0-41.5039-18.5547-41.5039-41.5039s18.5547-41.5039 41.5039-41.5039 41.5039 18.5547 41.5039 41.5039-18.5547 41.5039-41.5039 41.5039Zm4.05273-23.0957v-36.9141c0-2.49023-1.70898-4.19922-4.15039-4.19922-2.39258 0-4.05273 1.70898-4.05273 4.19922v36.9141c0 2.44141 1.66016 4.15039 4.05273 4.15039 2.44141 0 4.15039-1.66016 4.15039-4.15039Zm-22.5586-14.4043h36.9629c2.44141 0 4.15039-1.61133 4.15039-4.00391 0-2.44141-1.70898-4.15039-4.15039-4.15039h-36.9629c-2.49023 0-4.15039 1.70898-4.15039 4.15039 0 2.39258 1.66016 4.00391 4.15039 4.00391Z"/>
  </g>
  <g transform="matrix(0.2 0 0 0.2 304.924 1933)">
   <path d="m74.8535 28.3203c35.1074 0 63.623-28.4668 63.623-63.5742s-28.5156-63.623-63.623-63.623-63.5742 28.5156-63.5742 63.623 28.4668 63.5742 63.5742 63.5742Zm0-9.08203c-30.127 0-54.4922-24.3652-54.4922-54.4922s24.3652-54.4922 54.4922-54.4922 54.4922 24.3652 54.4922 54.4922-24.3652 54.4922-54.4922 54.4922Zm4.44336-30.3223v-48.4863c0-2.73438-1.85547-4.63867-4.54102-4.63867-2.58789 0-4.44336 1.9043-4.44336 4.63867v48.4863c0 2.68555 1.85547 4.58984 4.44336 4.58984 2.68555 0 4.54102-1.85547 4.54102-4.58984Zm-28.7109-19.7754h48.4863c2.68555 0 4.58984-1.80664 4.58984-4.39453 0-2.73438-1.85547-4.58984-4.58984-4.58984h-48.4863c-2.73438 0-4.58984 1.85547-4.58984 4.58984 0 2.58789 1.85547 4.39453 4.58984 4.39453Z"/>
  </g>
  <text style="stroke:none;fill:black;font-family:sans-serif;font-size:13;font-weight:bold;" transform="matrix(1 0 0 1 263 1953)">Design Variations</text>
  <text style="stroke:none;fill:black;font-family:sans-serif;font-size:13;" transform="matrix(1 0 0 1 263 1971)">Symbols are supported in up to nine weights and three scales.</text>
  <text style="stroke:none;fill:black;font-family:sans-serif;font-size:13;" transform="matrix(1 0 0 1 263 1989)">For optimal layout with text and other symbols, vertically align</text>
  <text style="stroke:none;fill:black;font-family:sans-serif;font-size:13;" transform="matrix(1 0 0 1 263 2007)">symbols with the adjacent text.</text>
  <line style="fill:none;stroke:#00AEEF;stroke-width:0.5;opacity:1.0;" x1="776" x2="776" y1="1919" y2="1933"/>
  <g transform="matrix(0.2 0 0 0.2 776 1933)">
   <path d="m16.5527 0.78125c2.58789 0 3.85742-0.976562 4.78516-3.71094l20.5566-57.5195h0.244141l20.6055 57.5195c0.927734 2.73438 2.19727 3.71094 4.73633 3.71094 2.58789 0 4.24805-1.5625 4.24805-4.00391 0-0.830078-0.146484-1.61133-0.537109-2.63672l-22.9004-60.9863c-1.12305-2.97852-3.125-4.49219-6.25-4.49219-3.02734 0-5.07812 1.46484-6.15234 4.44336l-22.9004 61.084c-0.390625 1.02539-0.537109 1.80664-0.537109 2.63672 0 2.44141 1.5625 3.95508 4.10156 3.95508Zm10.2051-20.9473h30.6641c2.00195 0 3.66211-1.66016 3.66211-3.66211 0-2.05078-1.66016-3.66211-3.66211-3.66211h-30.6641c-2.00195 0-3.66211 1.61133-3.66211 3.66211 0 2.00195 1.66016 3.66211 3.66211 3.66211Z"/>
  </g>
  <line style="fill:none;stroke:#00AEEF;stroke-width:0.5;opacity:1.0;" x1="792.836" x2="792.836" y1="1919" y2="1933"/>
  <text style="stroke:none;fill:black;font-family:sans-serif;font-size:13;font-weight:bold;" transform="matrix(1 0 0 1 776 1953)">Margins</text>
  <text style="stroke:none;fill:black;font-family:sans-serif;font-size:13;" transform="matrix(1 0 0 1 776 1971)">Leading and trailing margins on the left and right side of each symbol</text>
  <text style="stroke:none;fill:black;font-family:sans-serif;font-size:13;" transform="matrix(1 0 0 1 776 1989)">can be adjusted by modifying the x-location of the margin guidelines.</text>
  <text style="stroke:none;fill:black;font-family:sans-serif;font-size:13;" transform="matrix(1 0 0 1 776 2007)">Modifications are automatically applied proportionally to all</text>
  <text style="stroke:none;fill:black;font-family:sans-serif;font-size:13;" transform="matrix(1 0 0 1 776 2025)">scales and weights.</text>
  <g transform="matrix(0.2 0 0 0.2 1289 1933)">
   <path d="m14.209 13.1348 7.86133 7.86133c4.29688 4.39453 9.32617 4.10156 13.8672-1.02539l60.6934-68.2129-4.88281-4.88281-60.2539 67.6758c-1.80664 1.95312-3.4668 2.44141-5.81055 0.0976562l-5.17578-5.12695c-2.29492-2.29492-1.80664-3.95508 0.195312-5.81055l67.4805-62.1582-4.88281-4.83398-68.0664 62.5977c-4.98047 4.58984-5.32227 9.47266-1.02539 13.8184Zm44.873-97.4609c-2.05078 2.00195-2.24609 4.88281-1.07422 6.78711 1.12305 1.80664 3.4668 3.02734 6.5918 2.24609 5.85938-1.66016 12.5977-2.39258 18.8965 0.927734l-2.68555 7.12891c-1.61133 4.00391-0.732422 6.88477 1.70898 9.42383l10.2539 10.3027c2.34375 2.39258 4.54102 2.44141 7.08008 1.95312l4.44336-0.732422 2.58789 2.53906-0.195312 2.24609c-0.0976562 2.29492 0.537109 4.29688 2.7832 6.49414l3.36914 3.32031c2.29492 2.29492 5.51758 2.49023 7.8125 0.195312l12.9883-13.0371c2.29492-2.34375 2.14844-5.37109-0.195312-7.66602l-3.41797-3.41797c-2.19727-2.19727-4.05273-3.02734-6.34766-2.88086l-2.34375 0.244141-2.44141-2.44141 1.02539-4.6875c0.634766-2.73438-0.244141-4.98047-2.88086-7.61719l-11.2793-11.1816c-12.9395-12.8418-35.5957-11.0352-46.6797-0.146484Zm7.08008 2.05078c8.78906-6.39648 25.9766-5.66406 33.6914 1.95312l12.3047 12.207c1.02539 1.02539 1.2207 1.80664 0.927734 3.32031l-1.46484 6.64062 6.73828 6.68945 4.39453-0.244141c1.12305-0.0488281 1.51367 0.0488281 2.34375 0.878906l2.53906 2.49023-10.8398 10.8398-2.49023-2.49023c-0.830078-0.878906-0.976562-1.2207-0.927734-2.39258l0.292969-4.3457-6.68945-6.73828-6.83594 1.17188c-1.41602 0.292969-2.05078 0.195312-3.17383-0.878906l-8.93555-8.88672c-1.07422-1.02539-1.17188-1.70898-0.488281-3.36914l4.58984-11.4746c-6.10352-6.34766-17.041-7.51953-25.5859-4.58984-0.683594 0.244141-0.927734-0.390625-0.390625-0.78125Z"/>
  </g>
  <text style="stroke:none;fill:black;font-family:sans-serif;font-size:13;font-weight:bold;" transform="matrix(1 0 0 1 1289 1953)">Exporting</text>
  <text style="stroke:none;fill:black;font-family:sans-serif;font-size:13;" transform="matrix(1 0 0 1 1289 1971)">Symbols should be outlined when exporting to ensure the</text>
  <text style="stroke:none;fill:black;font-family:sans-serif;font-size:13;" transform="matrix(1 0 0 1 1289 1989)">design is preserved when submitting to Xcode.</text>
  <text id="template-version" style="stroke:none;fill:black;font-family:sans-serif;font-size:13;text-anchor:end;" transform="matrix(1 0 0 1 3036 1933)">Template v.7.0</text>
  <text style="stroke:none;fill:black;font-family:sans-serif;font-size:13;text-anchor:end;" transform="matrix(1 0 0 1 3036 1951)">Requires Xcode 26 or greater</text>
  <text id="descriptive-name" style="stroke:none;fill:black;font-family:sans-serif;font-size:13;text-anchor:end;" transform="matrix(1 0 0 1 3036 1969)">Generated from snapchat.fill</text>
  <text style="stroke:none;fill:black;font-family:sans-serif;font-size:13;text-anchor:end;" transform="matrix(1 0 0 1 3036 1987)">Typeset at 100.0 points</text>
  <text style="stroke:none;fill:black;font-family:sans-serif;font-size:13;" transform="matrix(1 0 0 1 263 726)">Small</text>
  <text style="stroke:none;fill:black;font-family:sans-serif;font-size:13;" transform="matrix(1 0 0 1 263 1156)">Medium</text>
  <text style="stroke:none;fill:black;font-family:sans-serif;font-size:13;" transform="matrix(1 0 0 1 263 1586)">Large</text>
 </g>
 <g id="Guides">
  <g id="H-reference" style="fill:#27AAE1;stroke:none;" transform="matrix(1 0 0 1 339 696)">
   <path d="M0.993654 0L3.63775 0L29.3281-67.1323L30.0303-67.1323L30.0303-70.459L28.1226-70.459ZM11.6885-24.4799L46.9815-24.4799L46.2315-26.7285L12.4385-26.7285ZM55.1196 0L57.7637 0L30.6382-70.459L29.4326-70.459L29.4326-67.1323Z"/>
  </g>
  <line id="Baseline-S" style="fill:none;stroke:#27AAE1;opacity:1;stroke-width:0.5;" x1="263" x2="3036" y1="696" y2="696"/>
  <line id="Capline-S" style="fill:none;stroke:#27AAE1;opacity:1;stroke-width:0.5;" x1="263" x2="3036" y1="625.541" y2="625.541"/>
  <g id="H-reference" style="fill:#27AAE1;stroke:none;" transform="matrix(1 0 0 1 339 1126)">
   <path d="M0.993654 0L3.63775 0L29.3281-67.1323L30.0303-67.1323L30.0303-70.459L28.1226-70.459ZM11.6885-24.4799L46.9815-24.4799L46.2315-26.7285L12.4385-26.7285ZM55.1196 0L57.7637 0L30.6382-70.459L29.4326-70.459L29.4326-67.1323Z"/>
  </g>
  <line id="Baseline-M" style="fill:none;stroke:#27AAE1;opacity:1;stroke-width:0.5;" x1="263" x2="3036" y1="1126" y2="1126"/>
  <line id="Capline-M" style="fill:none;stroke:#27AAE1;opacity:1;stroke-width:0.5;" x1="263" x2="3036" y1="1055.54" y2="1055.54"/>
  <g id="H-reference" style="fill:#27AAE1;stroke:none;" transform="matrix(1 0 0 1 339 1556)">
   <path d="M0.993654 0L3.63775 0L29.3281-67.1323L30.0303-67.1323L30.0303-70.459L28.1226-70.459ZM11.6885-24.4799L46.9815-24.4799L46.2315-26.7285L12.4385-26.7285ZM55.1196 0L57.7637 0L30.6382-70.459L29.4326-70.459L29.4326-67.1323Z"/>
  </g>
  <line id="Baseline-L" style="fill:none;stroke:#27AAE1;opacity:1;stroke-width:0.5;" x1="263" x2="3036" y1="1556" y2="1556"/>
  <line id="Capline-L" style="fill:none;stroke:#27AAE1;opacity:1;stroke-width:0.5;" x1="263" x2="3036" y1="1485.54" y2="1485.54"/>
  <line id="right-margin-Regular-M" style="fill:none;stroke:#00AEEF;stroke-width:0.5;opacity:1.0;" x1="1507.24" x2="1507.24" y1="1030.79" y2="1150.12"/>
  <line id="left-margin-Regular-M" style="fill:none;stroke:#00AEEF;stroke-width:0.5;opacity:1.0;" x1="1392.45" x2="1392.45" y1="1030.79" y2="1150.12"/>
  <line id="right-margin-Black-S" style="fill:none;stroke:#00AEEF;stroke-width:0.5;opacity:1.0;" x1="2981.88" x2="2981.88" y1="600.785" y2="720.121"/>
  <line id="left-margin-Black-S" style="fill:none;stroke:#00AEEF;stroke-width:0.5;opacity:1.0;" x1="2884.92" x2="2884.92" y1="600.785" y2="720.121"/>
  <line id="right-margin-Regular-S" style="fill:none;stroke:#00AEEF;stroke-width:0.5;opacity:1.0;" x1="1495.28" x2="1495.28" y1="600.785" y2="720.121"/>
  <line id="left-margin-Regular-S" style="fill:none;stroke:#00AEEF;stroke-width:0.5;opacity:1.0;" x1="1404.4" x2="1404.4" y1="600.785" y2="720.121"/>
  <line id="right-margin-Ultralight-S" style="fill:none;stroke:#00AEEF;stroke-width:0.5;opacity:1.0;" x1="605.15" x2="605.15" y1="600.785" y2="720.121"/>
  <line id="left-margin-Ultralight-S" style="fill:none;stroke:#00AEEF;stroke-width:0.5;opacity:1.0;" x1="514.273" x2="514.273" y1="600.785" y2="720.121"/>
 </g>
 <g id="Symbols">
  <g id="Regular-M" transform="matrix(1 0 0 1 1392.45 1126)">
   <path class="SFSymbolsPreviewWireframe" d="M105.21-12.24C104.54-14.06 103.27-15.03 101.82-15.84C101.59-15.98 101.34-16.11 101.09-16.22L99.77-16.89C95.26-19.28 91.74-22.3 89.3-25.87C88.6-26.88 88-27.95 87.5-29.06C87.29-29.66 87.3-30 87.45-30.3C87.59-30.54 87.79-30.75 88.03-30.9C88.8-31.42 89.6-31.94 90.14-32.29C91.11-32.91 91.88-33.41 92.37-33.76C94.22-35.05 95.52-36.43 96.33-37.97C96.89-39.03 97.22-40.2 97.29-41.4C97.36-42.61 97.18-43.81 96.74-44.93C95.51-48.16 92.46-50.16 88.77-50.16C87.78-50.17 86.8-50.03 85.85-49.77C85.88-51.98 85.83-54.31 85.64-56.61C84.94-64.67 82.11-68.89 79.17-72.27C77.29-74.38 75.07-76.16 72.6-77.55C68.13-80.1 63.07-81.4 57.55-81.4C52.02-81.4 46.99-80.1 42.52-77.55C40.04-76.16 37.82-74.37 35.93-72.25C32.99-68.88 30.17-64.65 29.47-56.59C29.27-54.3 29.23-51.96 29.26-49.77C28.3-50.03 27.32-50.16 26.33-50.16C22.64-50.16 19.59-48.15 18.37-44.92C17.93-43.8 17.74-42.59 17.81-41.39C17.88-40.19 18.2-39.02 18.77-37.95C19.58-36.42 20.88-35.04 22.73-33.75C23.22-33.4 23.99-32.91 24.95-32.27L26.99-30.94C27.25-30.77 27.47-30.54 27.64-30.28C27.8-29.97 27.8-29.62 27.57-28.98C27.07-27.89 26.48-26.85 25.8-25.86C23.41-22.36 19.99-19.4 15.62-17.03C13.31-15.81 10.91-14.99 9.89-12.23C9.13-10.14 9.63-7.77 11.57-5.78C12.29-5.02 13.11-4.4 14.03-3.92C15.92-2.88 17.94-2.07 20.03-1.52C20.46-1.41 20.87-1.22 21.24-0.98C21.95-0.36 21.85 0.58 22.79 1.95C23.27 2.66 23.87 3.26 24.57 3.75C26.55 5.12 28.78 5.21 31.14 5.3C33.27 5.38 35.69 5.48 38.44 6.38C39.58 6.76 40.78 7.49 42.15 8.34C45.45 10.37 49.98 13.16 57.55 13.16C65.12 13.16 69.66 10.36 73 8.32C74.36 7.48 75.54 6.76 76.65 6.39C79.41 5.48 81.83 5.39 83.96 5.31C86.32 5.22 88.55 5.13 90.53 3.76C91.36 3.18 92.05 2.43 92.55 1.55C93.23 0.4 93.21-0.41 93.85-0.97C94.2-1.21 94.58-1.38 94.99-1.49C97.11-2.05 99.15-2.86 101.07-3.91C102.03-4.44 102.91-5.11 103.65-5.93L103.67-5.96C105.5-7.91 105.95-10.21 105.21-12.24Z"/>
   <path class="monochrome-0 multicolor-0:black hierarchical-0:primary SFSymbolsPreviewWireframe" d="M101.82-15.84C103.27-15.03 104.54-14.06 105.21-12.24C105.95-10.21 105.5-7.91 103.67-5.96L103.65-5.93C102.91-5.11 102.03-4.44 101.07-3.91C99.15-2.86 97.11-2.05 94.99-1.49C94.58-1.38 94.2-1.21 93.85-0.97C93.21-0.41 93.23 0.4 92.55 1.55C92.05 2.43 91.36 3.18 90.53 3.76C88.55 5.13 86.32 5.22 83.96 5.31C81.83 5.39 79.41 5.48 76.65 6.39C75.54 6.76 74.36 7.48 73 8.32L72.97 8.34C69.64 10.38 65.09 13.16 57.55 13.16C49.98 13.16 45.45 10.37 42.15 8.34L42.15 8.34C40.78 7.49 39.58 6.76 38.44 6.38C35.69 5.48 33.27 5.38 31.14 5.3L31.14 5.3C28.77 5.21 26.55 5.12 24.57 3.75C23.87 3.26 23.27 2.66 22.79 1.95C21.85 0.58 21.95-0.36 21.24-0.98C20.87-1.22 20.46-1.41 20.03-1.52C17.94-2.07 15.92-2.88 14.03-3.92C13.11-4.4 12.29-5.02 11.57-5.78C9.63-7.77 9.13-10.14 9.89-12.23C10.91-14.99 13.31-15.81 15.62-17.03C19.99-19.4 23.41-22.36 25.8-25.86C26.48-26.85 27.07-27.89 27.57-28.98C27.8-29.62 27.8-29.97 27.64-30.28C27.47-30.54 27.25-30.77 26.99-30.94L24.95-32.27C23.99-32.91 23.22-33.4 22.73-33.75C20.88-35.04 19.58-36.42 18.77-37.95C18.2-39.02 17.88-40.19 17.81-41.39C17.74-42.59 17.93-43.8 18.37-44.92C19.59-48.15 22.64-50.16 26.33-50.16C27.32-50.16 28.3-50.03 29.26-49.77C29.23-51.96 29.27-54.3 29.47-56.59C30.17-64.65 32.99-68.88 35.93-72.25C37.82-74.37 40.04-76.16 42.52-77.55C46.99-80.1 52.02-81.4 57.55-81.4C63.07-81.4 68.13-80.1 72.6-77.55C75.07-76.16 77.29-74.38 79.17-72.27C82.11-68.89 84.94-64.67 85.64-56.61C85.83-54.31 85.88-51.98 85.85-49.77C86.8-50.03 87.78-50.17 88.77-50.16C92.46-50.16 95.51-48.16 96.74-44.93C97.18-43.81 97.36-42.61 97.29-41.4C97.22-40.2 96.89-39.03 96.33-37.97C95.52-36.43 94.22-35.05 92.37-33.76C91.88-33.41 91.11-32.91 90.14-32.29C89.6-31.94 88.8-31.42 88.03-30.9C87.79-30.75 87.59-30.54 87.45-30.3C87.3-30 87.29-29.66 87.5-29.06C88-27.95 88.6-26.88 89.3-25.87C91.74-22.3 95.26-19.28 99.77-16.89L101.09-16.22C101.34-16.11 101.59-15.98 101.82-15.84Z"/>
   <path class="monochrome-1 multicolor-1:custom hierarchical-1:secondary SFSymbolsPreviewWireframe" d="M98.48-8.63C94.38-6.36 91.65-6.61 89.52-5.24C87.72-4.08 88.79-1.58 87.48-0.68C85.87 0.44 81.12-0.75 74.97 1.28C69.9 2.95 66.67 7.77 57.56 7.77C48.44 7.77 45.29 2.96 40.13 1.26C34-0.76 29.24 0.42 27.63-0.69C26.32-1.59 27.38-4.09 25.58-5.25C23.46-6.62 20.73-6.37 16.63-8.63C14.02-10.07 15.5-10.97 16.37-11.39C31.24-18.58 33.61-29.69 33.71-30.52C33.84-31.51 33.98-32.3 32.88-33.31C31.82-34.3 27.11-37.21 25.8-38.13C23.64-39.64 22.68-41.14 23.39-43C23.88-44.28 25.07-44.77 26.33-44.77C26.72-44.76 27.12-44.72 27.51-44.64C29.89-44.12 32.19-42.93 33.52-42.61C33.68-42.57 33.85-42.55 34.01-42.54C34.72-42.54 34.97-42.9 34.93-43.71C34.77-46.31 34.4-51.37 34.81-56.11C35.38-62.61 37.48-65.84 39.97-68.69C41.17-70.06 46.79-76.01 57.55-76.01C68.3-76.01 73.94-70.09 75.13-68.72C77.63-65.87 79.73-62.64 80.28-56.13C80.69-51.4 80.34-46.34 80.17-43.74C80.11-42.89 80.37-42.57 81.08-42.57C81.25-42.57 81.41-42.59 81.57-42.63C82.91-42.96 85.22-44.15 87.59-44.66C87.98-44.74 88.37-44.79 88.77-44.8C90.03-44.8 91.22-44.31 91.71-43.03C92.41-41.17 91.47-39.67 89.3-38.16C87.99-37.24 83.28-34.33 82.22-33.34C81.12-32.33 81.26-31.54 81.39-30.55C81.5-29.71 83.87-18.6 98.73-11.41C99.61-10.98 101.09-10.08 98.48-8.63Z"/>
  </g>
  <g id="Black-S" transform="matrix(1 0 0 1 2884.92 696)">
   <path class="SFSymbolsPreviewWireframe" d="M87.4472-16.683C86.9072-18.163 85.8672-18.955 84.6972-19.61C84.4972-19.728 84.2972-19.832 84.0872-19.922L83.0172-20.465C79.3472-22.414 76.4772-24.872 74.4872-27.784C73.9272-28.603 73.4372-29.472 73.0272-30.379C72.8572-30.867 72.8672-31.141 72.9872-31.39C73.1072-31.588 73.2672-31.755 73.4572-31.879C74.0872-32.299 74.7372-32.724 75.1772-33.007C75.9672-33.515 76.5872-33.921 76.9872-34.204C78.4972-35.26 79.5572-36.384 80.2172-37.634C80.6772-38.5 80.9472-39.454 80.9972-40.432C81.0572-41.41 80.9072-42.389 80.5572-43.302C79.5572-45.931 77.0672-47.563 74.0572-47.563C73.2572-47.566 72.4572-47.46 71.6772-47.245C71.7072-49.043 71.6672-50.944 71.5072-52.811C70.9472-59.378 68.6372-62.817 66.2472-65.563C64.7172-67.282 62.9072-68.736 60.8972-69.868C57.2572-71.945 53.1372-73 48.6372-73C44.1372-73 40.0372-71.945 36.3972-69.868C34.3772-68.734 32.5772-67.278 31.0372-65.554C28.6372-62.808 26.3472-59.363 25.7672-52.801C25.6072-50.934 25.5772-49.029 25.5972-47.24C24.8172-47.455 24.0172-47.561 23.2172-47.558C20.2072-47.558 17.7272-45.921 16.7272-43.293C16.3672-42.379 16.2172-41.399 16.2772-40.421C16.3272-39.442 16.5972-38.487 17.0572-37.62C17.7172-36.369 18.7772-35.245 20.2772-34.195C20.6772-33.911 21.3072-33.511 22.0872-32.993L23.7472-31.913C23.9572-31.77 24.1372-31.587 24.2772-31.375C24.4072-31.116 24.4172-30.838 24.2272-30.315C23.8172-29.427 23.3372-28.577 22.7772-27.774C20.8372-24.926 18.0472-22.512 14.4972-20.582C12.6172-19.585 10.6572-18.921 9.82717-16.673C9.20717-14.973 9.61717-13.043 11.1972-11.421C11.7872-10.805 12.4472-10.3 13.1972-9.906C14.7372-9.057 16.3772-8.4 18.0772-7.951C18.4272-7.858 18.7672-7.71 19.0672-7.512C19.6472-7.003 19.5672-6.241 20.3372-5.127C20.7272-4.547 21.2072-4.059 21.7772-3.661C23.3872-2.542 25.2072-2.474 27.1272-2.401C28.8672-2.332 30.8372-2.254 33.0772-1.521C34.0072-1.209 34.9772-0.612 36.0972 0.081C38.7872 1.733 42.4672 4 48.6372 4C54.7972 4 58.5072 1.723 61.2172 0.062C62.3272-0.622 63.2872-1.209 64.1972-1.507C66.4472-2.249 68.4072-2.327 70.1472-2.391C72.0672-2.464 73.8772-2.538 75.4972-3.652C76.1672-4.123 76.7272-4.737 77.1372-5.45C77.6972-6.388 77.6772-7.047 78.1972-7.502C78.4772-7.697 78.7972-7.841 79.1272-7.927C80.8572-8.381 82.5172-9.044 84.0772-9.901C84.8672-10.326 85.5772-10.878 86.1772-11.543L86.1972-11.567C87.6872-13.155 88.0572-15.031 87.4472-16.683Z"/>
   <path class="monochrome-0 multicolor-0:black hierarchical-0:primary SFSymbolsPreviewWireframe" d="M84.6972-19.61C85.8672-18.955 86.9072-18.163 87.4472-16.683C88.0572-15.031 87.6872-13.155 86.1972-11.567L86.1772-11.543C85.5772-10.878 84.8672-10.326 84.0772-9.901C82.5172-9.044 80.8572-8.381 79.1272-7.927C78.7972-7.841 78.4772-7.697 78.1972-7.502C77.6772-7.047 77.6972-6.388 77.1372-5.45C76.7272-4.737 76.1672-4.123 75.4972-3.652C73.8772-2.538 72.0672-2.464 70.1472-2.391C68.4072-2.327 66.4472-2.249 64.1972-1.507C63.2872-1.209 62.3272-0.622 61.2172 0.062L61.1972 0.078C58.4772 1.738 54.7772 4 48.6372 4C42.4672 4 38.7872 1.733 36.0972 0.081L36.0972 0.081C34.9772-0.612 34.0072-1.209 33.0772-1.521C30.8372-2.254 28.8672-2.332 27.1272-2.401L27.1272-2.401C25.2072-2.474 23.3872-2.543 21.7772-3.661C21.2072-4.059 20.7272-4.547 20.3372-5.127C19.5672-6.241 19.6472-7.003 19.0672-7.512C18.7672-7.71 18.4272-7.858 18.0772-7.951C16.3772-8.4 14.7372-9.057 13.1972-9.906C12.4472-10.3 11.7872-10.805 11.1972-11.421C9.61717-13.043 9.20717-14.973 9.82717-16.673C10.6572-18.921 12.6172-19.585 14.4972-20.582C18.0472-22.512 20.8372-24.926 22.7772-27.774C23.3372-28.577 23.8172-29.427 24.2272-30.315C24.4172-30.838 24.4072-31.116 24.2772-31.375C24.1372-31.587 23.9572-31.77 23.7472-31.913L22.0872-32.993C21.3072-33.511 20.6772-33.911 20.2772-34.195C18.7772-35.245 17.7172-36.369 17.0572-37.62C16.5972-38.487 16.3272-39.442 16.2772-40.421C16.2172-41.399 16.3672-42.379 16.7272-43.293C17.7272-45.921 20.2072-47.558 23.2172-47.558C24.0172-47.561 24.8172-47.455 25.5972-47.24C25.5772-49.029 25.6072-50.934 25.7672-52.801C26.3472-59.363 28.6372-62.808 31.0372-65.554C32.5772-67.278 34.3772-68.734 36.3972-69.868C40.0372-71.945 44.1372-73 48.6372-73C53.1372-73 57.2572-71.945 60.8972-69.868C62.9072-68.736 64.7172-67.282 66.2472-65.563C68.6372-62.817 70.9472-59.378 71.5072-52.811C71.6672-50.944 71.7072-49.043 71.6772-47.245C72.4572-47.46 73.2572-47.566 74.0572-47.563C77.0672-47.563 79.5572-45.931 80.5572-43.302C80.9072-42.389 81.0572-41.41 80.9972-40.432C80.9472-39.454 80.6772-38.5 80.2172-37.634C79.5572-36.384 78.4972-35.26 76.9872-34.204C76.5872-33.921 75.9672-33.515 75.1772-33.007C74.7372-32.724 74.0872-32.299 73.4572-31.879C73.2672-31.755 73.1072-31.588 72.9872-31.39C72.8672-31.141 72.8572-30.867 73.0272-30.379C73.4372-29.472 73.9272-28.603 74.4872-27.784C76.4772-24.872 79.3472-22.414 83.0172-20.465L84.0872-19.922C84.2972-19.832 84.4972-19.728 84.6972-19.61Z"/>
   <path class="monochrome-1 multicolor-1:custom hierarchical-1:secondary SFSymbolsPreviewWireframe" d="M81.9672-13.741C78.6272-11.894 76.4072-12.095 74.6772-10.981C73.2072-10.038 74.0772-8 73.0172-7.267C71.6972-6.359 67.8272-7.326 62.8272-5.674C58.6972-4.311 56.0672-0.388 48.6472-0.388C41.2172-0.388 38.6472-4.301 34.4572-5.684C29.4572-7.336 25.5772-6.368 24.2672-7.272C23.2072-8.005 24.0672-10.048 22.6072-10.991C20.8772-12.105 18.6472-11.904 15.3172-13.741C13.1872-14.914 14.3872-15.647 15.0972-15.989C27.2072-21.847 29.1372-30.892 29.2172-31.566C29.3272-32.377 29.4372-33.017 28.5472-33.843C27.6772-34.644 23.8472-37.019 22.7772-37.761C21.0172-38.993 20.2372-40.219 20.8172-41.729C21.2172-42.775 22.1872-43.17 23.2072-43.17C23.5372-43.167 23.8572-43.131 24.1772-43.063C26.1072-42.643 27.9872-41.67 29.0672-41.411C29.1972-41.379 29.3372-41.361 29.4672-41.358C30.0472-41.358 30.2472-41.651 30.2172-42.31C30.0872-44.426 29.7872-48.55 30.1172-52.405C30.5772-57.702 32.2872-60.33 34.3172-62.651C35.2972-63.77 39.8772-68.612 48.6372-68.612C57.3872-68.612 61.9772-63.79 62.9572-62.676C64.9872-60.355 66.6972-57.726 67.1472-52.425C67.4872-48.574 67.1972-44.451 67.0572-42.335C67.0072-41.641 67.2272-41.382 67.7972-41.382C67.9372-41.384 68.0672-41.401 68.1972-41.431C69.2872-41.695 71.1672-42.667 73.0972-43.082C73.4172-43.152 73.7372-43.189 74.0572-43.195C75.0872-43.195 76.0572-42.794 76.4572-41.753C77.0272-40.244 76.2572-39.017 74.4972-37.786C73.4272-37.043 69.5972-34.669 68.7272-33.867C67.8272-33.041 67.9472-32.401 68.0472-31.59C68.1372-30.906 70.0672-21.862 82.1672-16.009C82.8872-15.652 84.0972-14.924 81.9672-13.741Z"/>
  </g>
  <g id="Regular-S" transform="matrix(1 0 0 1 1404.4 696)">
   <path class="SFSymbolsPreviewWireframe" d="M81.3841-19.071C80.8841-20.436 79.9241-21.166 78.8441-21.77C78.6641-21.879 78.4741-21.975 78.2841-22.058L77.3041-22.558C73.9141-24.356 71.2641-26.622 69.4341-29.307C68.9141-30.063 68.4641-30.863 68.0841-31.7C67.9241-32.15 67.9341-32.403 68.0441-32.632C68.1541-32.815 68.3041-32.969 68.4841-33.083C69.0641-33.47 69.6641-33.862 70.0641-34.124C70.7941-34.592 71.3741-34.966 71.7441-35.227C73.1341-36.201 74.1041-37.237 74.7141-38.39C75.1341-39.188 75.3841-40.068 75.4341-40.97C75.4941-41.871 75.3541-42.774 75.0241-43.616C74.1041-46.04 71.8141-47.545 69.0341-47.545C68.2941-47.548 67.5541-47.45 66.8441-47.252C66.8741-48.91 66.8341-50.663 66.6841-52.384C66.1641-58.439 64.0441-61.611 61.8341-64.143C60.4141-65.728 58.7541-67.068 56.8941-68.112C53.5441-70.027 49.7441-71 45.5941-71C41.4441-71 37.6641-70.027 34.3041-68.112C32.4441-67.067 30.7841-65.724 29.3641-64.134C27.1541-61.602 25.0341-58.426 24.5141-52.375C24.3641-50.654 24.3341-48.897 24.3441-47.248C23.6341-47.445 22.8941-47.544 22.1541-47.541C19.3841-47.541 17.0941-46.031 16.1741-43.607C15.8441-42.765 15.7041-41.862 15.7541-40.959C15.8041-40.057 16.0541-39.176 16.4741-38.377C17.0841-37.223 18.0541-36.187 19.4441-35.218C19.8141-34.957 20.3941-34.588 21.1141-34.11L22.6441-33.114C22.8341-32.983 23.0041-32.814 23.1341-32.619C23.2541-32.38 23.2541-32.123 23.0841-31.641C22.7041-30.823 22.2641-30.039 21.7541-29.298C19.9641-26.672 17.3941-24.446 14.1141-22.666C12.3741-21.747 10.5741-21.135 9.80407-19.062C9.23407-17.494 9.61407-15.715 11.0741-14.219C11.6141-13.651 12.2241-13.186 12.9141-12.822C14.3341-12.039 15.8441-11.434 17.4141-11.02C17.7441-10.934 18.0441-10.797 18.3241-10.615C18.8641-10.146 18.7841-9.443 19.4941-8.416C19.8541-7.881 20.3041-7.431 20.8241-7.064C22.3141-6.033 23.9841-5.97 25.7641-5.902C27.3641-5.839 29.1741-5.767 31.2441-5.091C32.1041-4.803 32.9941-4.253 34.0341-3.613C36.5041-2.09 39.9141 0 45.5941 0C51.2741 0 54.6941-2.099 57.1941-3.631C58.2141-4.262 59.1041-4.803 59.9441-5.078C62.0141-5.762 63.8241-5.834 65.4241-5.893C67.1941-5.961 68.8741-6.028 70.3641-7.055C70.9841-7.49 71.4941-8.056 71.8741-8.713C72.3841-9.578 72.3741-10.187 72.8541-10.606C73.1141-10.785 73.4041-10.918 73.7041-10.998C75.3041-11.417 76.8341-12.028 78.2741-12.818C78.9941-13.21 79.6541-13.719 80.2141-14.332L80.2241-14.354C81.5941-15.818 81.9441-17.548 81.3841-19.071Z"/>
   <path class="monochrome-0 multicolor-0:black hierarchical-0:primary SFSymbolsPreviewWireframe" d="M78.8441-21.77C79.9241-21.166 80.8841-20.436 81.3841-19.071C81.9441-17.548 81.5941-15.818 80.2241-14.354L80.2141-14.332C79.6541-13.719 78.9941-13.21 78.2741-12.818C76.8341-12.028 75.3041-11.417 73.7041-10.998C73.4041-10.918 73.1141-10.785 72.8541-10.606C72.3741-10.187 72.3841-9.578 71.8741-8.713C71.4941-8.056 70.9841-7.49 70.3641-7.055C68.8741-6.028 67.1941-5.961 65.4241-5.893C63.8241-5.834 62.0141-5.762 59.9441-5.078C59.1041-4.803 58.2141-4.262 57.1941-3.631L57.1741-3.617C54.6741-2.086 51.2541 0 45.5941 0C39.9141 0 36.5041-2.09 34.0341-3.613L34.0341-3.613C32.9941-4.253 32.1041-4.803 31.2441-5.091C29.1741-5.767 27.3641-5.839 25.7641-5.902L25.7641-5.902C23.9841-5.97 22.3141-6.033 20.8241-7.064C20.3041-7.431 19.8541-7.881 19.4941-8.416C18.7841-9.443 18.8641-10.146 18.3241-10.615C18.0441-10.797 17.7441-10.934 17.4141-11.02C15.8441-11.434 14.3341-12.039 12.9141-12.822C12.2241-13.186 11.6141-13.651 11.0741-14.219C9.61407-15.715 9.23407-17.494 9.80407-19.062C10.5741-21.135 12.3741-21.747 14.1141-22.666C17.3941-24.446 19.9641-26.672 21.7541-29.298C22.2641-30.039 22.7041-30.823 23.0841-31.641C23.2541-32.123 23.2541-32.38 23.1341-32.619C23.0041-32.814 22.8341-32.983 22.6441-33.114L21.1141-34.11C20.3941-34.588 19.8141-34.957 19.4441-35.218C18.0541-36.187 17.0841-37.223 16.4741-38.377C16.0541-39.176 15.8041-40.057 15.7541-40.959C15.7041-41.862 15.8441-42.765 16.1741-43.607C17.0941-46.031 19.3841-47.541 22.1541-47.541C22.8941-47.544 23.6341-47.445 24.3441-47.248C24.3341-48.897 24.3641-50.654 24.5141-52.375C25.0341-58.426 27.1541-61.602 29.3641-64.134C30.7841-65.724 32.4441-67.067 34.3041-68.112C37.6641-70.027 41.4441-71 45.5941-71C49.7441-71 53.5441-70.027 56.8941-68.112C58.7541-67.068 60.4141-65.728 61.8341-64.143C64.0441-61.611 66.1641-58.439 66.6841-52.384C66.8341-50.663 66.8741-48.91 66.8441-47.252C67.5541-47.45 68.2941-47.548 69.0341-47.545C71.8141-47.545 74.1041-46.04 75.0241-43.616C75.3541-42.774 75.4941-41.871 75.4341-40.97C75.3841-40.068 75.1341-39.188 74.7141-38.39C74.1041-37.237 73.1341-36.201 71.7441-35.227C71.3741-34.966 70.7941-34.592 70.0641-34.124C69.6641-33.862 69.0641-33.47 68.4841-33.083C68.3041-32.969 68.1541-32.815 68.0441-32.632C67.9341-32.403 67.9241-32.15 68.0841-31.7C68.4641-30.863 68.9141-30.063 69.4341-29.307C71.2641-26.622 73.9141-24.356 77.3041-22.558L78.2841-22.058C78.4741-21.975 78.6641-21.879 78.8441-21.77Z"/>
   <path class="monochrome-1 multicolor-1:custom hierarchical-1:secondary SFSymbolsPreviewWireframe" d="M76.3341-16.359C73.2441-14.656 71.1941-14.841 69.6041-13.813C68.2541-12.944 69.0541-11.065 68.0741-10.389C66.8641-9.551 63.2941-10.443 58.6741-8.921C54.8741-7.664 52.4441-4.046 45.6041-4.046C38.7541-4.046 36.3841-7.655 32.5141-8.93C27.9141-10.452 24.3341-9.56 23.1241-10.394C22.1441-11.07 22.9441-12.953 21.5941-13.822C19.9941-14.85 17.9441-14.665 14.8641-16.359C12.9041-17.44 14.0141-18.116 14.6741-18.431C25.8341-23.833 27.6141-32.173 27.6941-32.795C27.7941-33.542 27.8941-34.133 27.0641-34.894C26.2741-35.633 22.7341-37.823 21.7541-38.507C20.1341-39.643 19.4141-40.774 19.9441-42.166C20.3141-43.13 21.2041-43.495 22.1441-43.495C22.4441-43.491 22.7441-43.458 23.0341-43.396C24.8241-43.008 26.5541-42.112 27.5541-41.873C27.6741-41.843 27.7941-41.826 27.9241-41.823C28.4541-41.823 28.6441-42.094 28.6041-42.702C28.4841-44.653 28.2141-48.455 28.5241-52.01C28.9441-56.894 30.5241-59.318 32.3941-61.458C33.2941-62.489 37.5141-66.954 45.5941-66.954C53.6641-66.954 57.9041-62.507 58.7941-61.48C60.6741-59.34 62.2441-56.916 62.6641-52.028C62.9741-48.478 62.7041-44.675 62.5841-42.724C62.5341-42.085 62.7341-41.846 63.2641-41.846C63.3941-41.848 63.5141-41.863 63.6341-41.891C64.6341-42.134 66.3741-43.031 68.1441-43.414C68.4441-43.478 68.7341-43.512 69.0341-43.517C69.9841-43.517 70.8741-43.148 71.2441-42.188C71.7741-40.796 71.0641-39.665 69.4341-38.53C68.4541-37.845 64.9141-35.655 64.1241-34.917C63.2941-34.155 63.4041-33.565 63.4941-32.817C63.5741-32.186 65.3541-23.847 76.5141-18.449C77.1741-18.121 78.2941-17.449 76.3341-16.359Z"/>
  </g>
  <g id="Ultralight-S" transform="matrix(1 0 0 1 514.273 696)">
   <path class="SFSymbolsPreviewWireframe" d="M81.381-18.071C80.881-19.436 79.926-20.166 78.84-20.77C78.662-20.879 78.477-20.975 78.286-21.058L77.299-21.558C73.911-23.356 71.266-25.622 69.433-28.307C68.911-29.063 68.459-29.863 68.081-30.7C67.928-31.15 67.937-31.403 68.045-31.632C68.153-31.815 68.303-31.969 68.482-32.083C69.063-32.47 69.662-32.862 70.068-33.124C70.798-33.592 71.37-33.966 71.739-34.227C73.131-35.201 74.105-36.237 74.713-37.39C75.136-38.188 75.382-39.068 75.436-39.97C75.49-40.871 75.349-41.774 75.024-42.616C74.1-45.04 71.811-46.545 69.036-46.545C68.295-46.548 67.556-46.45 66.842-46.252C66.869-47.91 66.833-49.663 66.684-51.384C66.162-57.439 64.04-60.611 61.832-63.143C60.416-64.728 58.75-66.068 56.899-67.112C53.542-69.027 49.74-70 45.59-70C41.441-70 37.661-69.027 34.304-67.112C32.448-66.067 30.781-64.724 29.362-63.134C27.154-60.602 25.037-57.426 24.51-51.375C24.361-49.654 24.329-47.897 24.347-46.248C23.633-46.445 22.895-46.544 22.153-46.541C19.382-46.541 17.089-45.031 16.17-42.607C15.843-41.765 15.7-40.862 15.752-39.959C15.804-39.057 16.05-38.176 16.472-37.377C17.085-36.223 18.058-35.187 19.446-34.218C19.815-33.957 20.392-33.588 21.117-33.11L22.644-32.114C22.839-31.983 23.006-31.814 23.135-31.619C23.253-31.38 23.257-31.123 23.081-30.641C22.708-29.823 22.263-29.039 21.752-28.298C19.959-25.672 17.391-23.446 14.111-21.666C12.377-20.747 10.57-20.135 9.80904-18.062C9.23204-16.494 9.61004-14.715 11.07-13.219C11.611-12.651 12.225-12.186 12.913-11.822C14.335-11.039 15.848-10.434 17.418-10.02C17.741-9.934 18.048-9.797 18.328-9.615C18.86-9.146 18.788-8.443 19.495-7.416C19.856-6.881 20.3-6.431 20.829-6.064C22.315-5.033 23.987-4.97 25.762-4.902C27.361-4.839 29.177-4.767 31.245-4.091C32.101-3.803 32.998-3.253 34.029-2.613C36.507-1.09 39.909 1 45.59 1C51.276 1 54.691-1.099 57.196-2.631C58.219-3.262 59.106-3.803 59.94-4.078C62.012-4.762 63.828-4.834 65.427-4.893C67.198-4.961 68.869-5.028 70.361-6.055C70.981-6.49 71.498-7.056 71.874-7.713C72.388-8.578 72.37-9.187 72.852-9.606C73.112-9.785 73.402-9.918 73.708-9.998C75.299-10.417 76.833-11.028 78.277-11.818C78.997-12.21 79.655-12.719 80.209-13.332L80.227-13.354C81.597-14.818 81.939-16.548 81.381-18.071Z"/>
   <path class="monochrome-0 multicolor-0:black hierarchical-0:primary SFSymbolsPreviewWireframe" d="M78.84-20.77C79.926-20.166 80.881-19.436 81.381-18.071C81.939-16.548 81.597-14.818 80.227-13.354L80.209-13.332C79.655-12.719 78.997-12.21 78.277-11.818C76.833-11.028 75.299-10.417 73.708-9.998C73.402-9.918 73.112-9.785 72.852-9.606C72.37-9.187 72.388-8.578 71.874-7.713C71.498-7.056 70.981-6.49 70.361-6.055C68.869-5.028 67.198-4.961 65.427-4.893C63.828-4.834 62.012-4.762 59.94-4.078C59.106-3.803 58.219-3.262 57.196-2.631L57.172-2.617C54.669-1.086 51.258 1 45.59 1C39.909 1 36.508-1.09 34.03-2.613L34.029-2.613C32.998-3.253 32.101-3.803 31.245-4.091C29.177-4.767 27.361-4.839 25.762-4.902L25.759-4.902C23.985-4.97 22.315-5.033 20.829-6.064C20.3-6.431 19.856-6.881 19.495-7.416C18.788-8.443 18.86-9.146 18.328-9.615C18.048-9.797 17.741-9.934 17.418-10.02C15.848-10.434 14.335-11.039 12.913-11.822C12.225-12.186 11.611-12.651 11.07-13.219C9.61004-14.715 9.23204-16.494 9.80904-18.062C10.57-20.135 12.377-20.747 14.111-21.666C17.391-23.446 19.959-25.672 21.752-28.298C22.263-29.039 22.708-29.823 23.081-30.641C23.257-31.123 23.253-31.38 23.135-31.619C23.006-31.814 22.839-31.983 22.644-32.114L21.117-33.11C20.392-33.588 19.815-33.957 19.446-34.218C18.058-35.187 17.085-36.223 16.472-37.377C16.05-38.176 15.804-39.057 15.752-39.959C15.7-40.862 15.843-41.765 16.17-42.607C17.089-45.031 19.382-46.541 22.153-46.541C22.895-46.544 23.633-46.445 24.347-46.248C24.329-47.897 24.361-49.654 24.51-51.375C25.037-57.426 27.154-60.602 29.362-63.134C30.781-64.724 32.448-66.067 34.304-67.112C37.661-69.027 41.441-70 45.59-70C49.74-70 53.542-69.027 56.899-67.112C58.75-66.068 60.416-64.728 61.832-63.143C64.04-60.611 66.162-57.439 66.684-51.384C66.833-49.663 66.869-47.91 66.842-46.252C67.556-46.45 68.295-46.548 69.036-46.545C71.811-46.545 74.1-45.04 75.024-42.616C75.349-41.774 75.49-40.871 75.436-39.97C75.382-39.068 75.136-38.188 74.713-37.39C74.105-36.237 73.131-35.201 71.739-34.227C71.37-33.966 70.798-33.592 70.068-33.124C69.662-32.862 69.063-32.47 68.482-32.083C68.303-31.969 68.153-31.815 68.045-31.632C67.937-31.403 67.928-31.15 68.081-30.7C68.459-29.863 68.911-29.063 69.433-28.307C71.266-25.622 73.911-23.356 77.299-21.558L78.286-21.058C78.477-20.975 78.662-20.879 78.84-20.77Z"/>
   <path class="monochrome-1 multicolor-1:custom hierarchical-1:secondary SFSymbolsPreviewWireframe" d="M76.33-15.359C73.249-13.656 71.199-13.841 69.604-12.813C68.252-11.944 69.054-10.065 68.072-9.389C66.86-8.551 63.292-9.443 58.678-7.921C54.871-6.664 52.443-3.046 45.599-3.046C38.756-3.046 36.386-6.655 32.516-7.93C27.911-9.452 24.334-8.56 23.126-9.394C22.144-10.07 22.942-11.953 21.59-12.822C19.995-13.85 17.945-13.665 14.868-15.359C12.904-16.44 14.017-17.116 14.67-17.431C25.834-22.833 27.614-31.173 27.69-31.795C27.789-32.542 27.893-33.133 27.069-33.894C26.271-34.633 22.734-36.823 21.752-37.507C20.13-38.643 19.409-39.774 19.941-41.166C20.311-42.13 21.207-42.495 22.149-42.495C22.447-42.491 22.744-42.458 23.036-42.396C24.82-42.008 26.55-41.112 27.551-40.873C27.671-40.843 27.794-40.826 27.92-40.823C28.452-40.823 28.641-41.094 28.605-41.702C28.488-43.653 28.213-47.455 28.519-51.01C28.943-55.894 30.52-58.318 32.389-60.458C33.291-61.489 37.512-65.954 45.59-65.954C53.664-65.954 57.899-61.507 58.795-60.48C60.67-58.34 62.246-55.916 62.665-51.028C62.972-47.478 62.706-43.675 62.58-41.724C62.535-41.085 62.733-40.846 63.265-40.846C63.389-40.848 63.513-40.863 63.634-40.891C64.634-41.134 66.369-42.031 68.148-42.414C68.44-42.478 68.737-42.512 69.036-42.517C69.982-42.517 70.879-42.148 71.244-41.188C71.771-39.796 71.063-38.665 69.437-37.53C68.455-36.845 64.918-34.655 64.121-33.917C63.292-33.155 63.4-32.565 63.494-31.817C63.576-31.186 65.355-22.847 76.515-17.449C77.177-17.121 78.29-16.449 76.33-15.359Z"/>
  </g>
 </g>
</svg>
