<?xml version="1.0" encoding="UTF-8"?>
<!--Generator: Apple Native CoreSVG 341-->
<!DOCTYPE svg
PUBLIC "-//W3C//DTD SVG 1.1//EN"
       "http://www.w3.org/Graphics/SVG/1.1/DTD/svg11.dtd">
<svg version="1.1" xmlns="http://www.w3.org/2000/svg" xmlns:xlink="http://www.w3.org/1999/xlink" viewBox="0 0 3300 2200">
 <!--glyph: "", point size: 100.0, font version: "21.1d1e1", template writer version: "138.0.0"-->
 <style>.defaults {-sfsymbols-variable-value-mode:color;-sfsymbols-draw-reverses-motion-groups:true}

.monochrome-0 {-sfsymbols-motion-group:0;-sfsymbols-layer-tags:564789760d3a318d}

.multicolor-0:tintColor {-sfsymbols-motion-group:0;-sfsymbols-layer-tags:564789760d3a318d}

.hierarchical-0:primary {-sfsymbols-motion-group:0;-sfsymbols-layer-tags:564789760d3a318d}

.SFSymbolsPreviewWireframe {fill:none;opacity:1.0;stroke:black;stroke-width:0.5}
</style>
 <g id="Notes">
  <rect height="2200" id="artboard" style="fill:white;opacity:1" width="3300" x="0" y="0"/>
  <line style="fill:none;stroke:black;opacity:1;stroke-width:0.5;" x1="263" x2="3036" y1="292" y2="292"/>
  <text style="stroke:none;fill:black;font-family:sans-serif;font-size:13;font-weight:bold;" transform="matrix(1 0 0 1 263 322)">Weight/Scale Variations</text>
  <text style="stroke:none;fill:black;font-family:sans-serif;font-size:13;text-anchor:middle;" transform="matrix(1 0 0 1 559.711 322)">Ultralight</text>
  <text style="stroke:none;fill:black;font-family:sans-serif;font-size:13;text-anchor:middle;" transform="matrix(1 0 0 1 856.422 322)">Thin</text>
  <text style="stroke:none;fill:black;font-family:sans-serif;font-size:13;text-anchor:middle;" transform="matrix(1 0 0 1 1153.13 322)">Light</text>
  <text style="stroke:none;fill:black;font-family:sans-serif;font-size:13;text-anchor:middle;" transform="matrix(1 0 0 1 1449.84 322)">Regular</text>
  <text style="stroke:none;fill:black;font-family:sans-serif;font-size:13;text-anchor:middle;" transform="matrix(1 0 0 1 1746.56 322)">Medium</text>
  <text style="stroke:none;fill:black;font-family:sans-serif;font-size:13;text-anchor:middle;" transform="matrix(1 0 0 1 2043.27 322)">Semibold</text>
  <text style="stroke:none;fill:black;font-family:sans-serif;font-size:13;text-anchor:middle;" transform="matrix(1 0 0 1 2339.98 322)">Bold</text>
  <text style="stroke:none;fill:black;font-family:sans-serif;font-size:13;text-anchor:middle;" transform="matrix(1 0 0 1 2636.69 322)">Heavy</text>
  <text style="stroke:none;fill:black;font-family:sans-serif;font-size:13;text-anchor:middle;" transform="matrix(1 0 0 1 2933.4 322)">Black</text>
  <line style="fill:none;stroke:black;opacity:1;stroke-width:0.5;" x1="263" x2="3036" y1="1903" y2="1903"/>
  <g transform="matrix(0.2 0 0 0.2 263 1933)">
   <path d="m46.2402 4.15039c21.7773 0 39.4531-17.627 39.4531-39.4043s-17.6758-39.4043-39.4531-39.4043c-21.7285 0-39.4043 17.627-39.4043 39.4043s17.6758 39.4043 39.4043 39.4043Zm0-7.42188c-17.6758 0-31.9336-14.3066-31.9336-31.9824s14.2578-31.9824 31.9336-31.9824 31.9824 14.3066 31.9824 31.9824-14.3066 31.9824-31.9824 31.9824Zm3.61328-17.7734v-28.4668c0-2.24609-1.46484-3.75977-3.71094-3.75977-2.14844 0-3.61328 1.51367-3.61328 3.75977v28.4668c0 2.19727 1.46484 3.71094 3.61328 3.71094 2.24609 0 3.71094-1.51367 3.71094-3.71094Zm-17.8223-10.5957h28.418c2.19727 0 3.71094-1.46484 3.71094-3.61328 0-2.19727-1.51367-3.71094-3.71094-3.71094h-28.418c-2.24609 0-3.75977 1.51367-3.75977 3.71094 0 2.14844 1.51367 3.61328 3.75977 3.61328Z"/>
  </g>
  <g transform="matrix(0.2 0 0 0.2 281.506 1933)">
   <path d="m58.5449 14.5508c27.4902 0 49.8047-22.3145 49.8047-49.8047s-22.3145-49.8047-49.8047-49.8047-49.8047 22.3145-49.8047 49.8047 22.3145 49.8047 49.8047 49.8047Zm0-8.30078c-22.9492 0-41.5039-18.5547-41.5039-41.5039s18.5547-41.5039 41.5039-41.5039 41.5039 18.5547 41.5039 41.5039-18.5547 41.5039-41.5039 41.5039Zm4.05273-23.0957v-36.9141c0-2.49023-1.70898-4.19922-4.15039-4.19922-2.39258 0-4.05273 1.70898-4.05273 4.19922v36.9141c0 2.44141 1.66016 4.15039 4.05273 4.15039 2.44141 0 4.15039-1.66016 4.15039-4.15039Zm-22.5586-14.4043h36.9629c2.44141 0 4.15039-1.61133 4.15039-4.00391 0-2.44141-1.70898-4.15039-4.15039-4.15039h-36.9629c-2.49023 0-4.15039 1.70898-4.15039 4.15039 0 2.39258 1.66016 4.00391 4.15039 4.00391Z"/>
  </g>
  <g transform="matrix(0.2 0 0 0.2 304.924 1933)">
   <path d="m74.8535 28.3203c35.1074 0 63.623-28.4668 63.623-63.5742s-28.5156-63.623-63.623-63.623-63.5742 28.5156-63.5742 63.623 28.4668 63.5742 63.5742 63.5742Zm0-9.08203c-30.127 0-54.4922-24.3652-54.4922-54.4922s24.3652-54.4922 54.4922-54.4922 54.4922 24.3652 54.4922 54.4922-24.3652 54.4922-54.4922 54.4922Zm4.44336-30.3223v-48.4863c0-2.73438-1.85547-4.63867-4.54102-4.63867-2.58789 0-4.44336 1.9043-4.44336 4.63867v48.4863c0 2.68555 1.85547 4.58984 4.44336 4.58984 2.68555 0 4.54102-1.85547 4.54102-4.58984Zm-28.7109-19.7754h48.4863c2.68555 0 4.58984-1.80664 4.58984-4.39453 0-2.73438-1.85547-4.58984-4.58984-4.58984h-48.4863c-2.73438 0-4.58984 1.85547-4.58984 4.58984 0 2.58789 1.85547 4.39453 4.58984 4.39453Z"/>
  </g>
  <text style="stroke:none;fill:black;font-family:sans-serif;font-size:13;font-weight:bold;" transform="matrix(1 0 0 1 263 1953)">Design Variations</text>
  <text style="stroke:none;fill:black;font-family:sans-serif;font-size:13;" transform="matrix(1 0 0 1 263 1971)">Symbols are supported in up to nine weights and three scales.</text>
  <text style="stroke:none;fill:black;font-family:sans-serif;font-size:13;" transform="matrix(1 0 0 1 263 1989)">For optimal layout with text and other symbols, vertically align</text>
  <text style="stroke:none;fill:black;font-family:sans-serif;font-size:13;" transform="matrix(1 0 0 1 263 2007)">symbols with the adjacent text.</text>
  <line style="fill:none;stroke:#00AEEF;stroke-width:0.5;opacity:1.0;" x1="776" x2="776" y1="1919" y2="1933"/>
  <g transform="matrix(0.2 0 0 0.2 776 1933)">
   <path d="m16.5527 0.78125c2.58789 0 3.85742-0.976562 4.78516-3.71094l20.5566-57.5195h0.244141l20.6055 57.5195c0.927734 2.73438 2.19727 3.71094 4.73633 3.71094 2.58789 0 4.24805-1.5625 4.24805-4.00391 0-0.830078-0.146484-1.61133-0.537109-2.63672l-22.9004-60.9863c-1.12305-2.97852-3.125-4.49219-6.25-4.49219-3.02734 0-5.07812 1.46484-6.15234 4.44336l-22.9004 61.084c-0.390625 1.02539-0.537109 1.80664-0.537109 2.63672 0 2.44141 1.5625 3.95508 4.10156 3.95508Zm10.2051-20.9473h30.6641c2.00195 0 3.66211-1.66016 3.66211-3.66211 0-2.05078-1.66016-3.66211-3.66211-3.66211h-30.6641c-2.00195 0-3.66211 1.61133-3.66211 3.66211 0 2.00195 1.66016 3.66211 3.66211 3.66211Z"/>
  </g>
  <line style="fill:none;stroke:#00AEEF;stroke-width:0.5;opacity:1.0;" x1="792.836" x2="792.836" y1="1919" y2="1933"/>
  <text style="stroke:none;fill:black;font-family:sans-serif;font-size:13;font-weight:bold;" transform="matrix(1 0 0 1 776 1953)">Margins</text>
  <text style="stroke:none;fill:black;font-family:sans-serif;font-size:13;" transform="matrix(1 0 0 1 776 1971)">Leading and trailing margins on the left and right side of each symbol</text>
  <text style="stroke:none;fill:black;font-family:sans-serif;font-size:13;" transform="matrix(1 0 0 1 776 1989)">can be adjusted by modifying the x-location of the margin guidelines.</text>
  <text style="stroke:none;fill:black;font-family:sans-serif;font-size:13;" transform="matrix(1 0 0 1 776 2007)">Modifications are automatically applied proportionally to all</text>
  <text style="stroke:none;fill:black;font-family:sans-serif;font-size:13;" transform="matrix(1 0 0 1 776 2025)">scales and weights.</text>
  <g transform="matrix(0.2 0 0 0.2 1289 1933)">
   <path d="m14.209 13.1348 7.86133 7.86133c4.29688 4.39453 9.32617 4.10156 13.8672-1.02539l60.6934-68.2129-4.88281-4.88281-60.2539 67.6758c-1.80664 1.95312-3.4668 2.44141-5.81055 0.0976562l-5.17578-5.12695c-2.29492-2.29492-1.80664-3.95508 0.195312-5.81055l67.4805-62.1582-4.88281-4.83398-68.0664 62.5977c-4.98047 4.58984-5.32227 9.47266-1.02539 13.8184Zm44.873-97.4609c-2.05078 2.00195-2.24609 4.88281-1.07422 6.78711 1.12305 1.80664 3.4668 3.02734 6.5918 2.24609 5.85938-1.66016 12.5977-2.39258 18.8965 0.927734l-2.68555 7.12891c-1.61133 4.00391-0.732422 6.88477 1.70898 9.42383l10.2539 10.3027c2.34375 2.39258 4.54102 2.44141 7.08008 1.95312l4.44336-0.732422 2.58789 2.53906-0.195312 2.24609c-0.0976562 2.29492 0.537109 4.29688 2.7832 6.49414l3.36914 3.32031c2.29492 2.29492 5.51758 2.49023 7.8125 0.195312l12.9883-13.0371c2.29492-2.34375 2.14844-5.37109-0.195312-7.66602l-3.41797-3.41797c-2.19727-2.19727-4.05273-3.02734-6.34766-2.88086l-2.34375 0.244141-2.44141-2.44141 1.02539-4.6875c0.634766-2.73438-0.244141-4.98047-2.88086-7.61719l-11.2793-11.1816c-12.9395-12.8418-35.5957-11.0352-46.6797-0.146484Zm7.08008 2.05078c8.78906-6.39648 25.9766-5.66406 33.6914 1.95312l12.3047 12.207c1.02539 1.02539 1.2207 1.80664 0.927734 3.32031l-1.46484 6.64062 6.73828 6.68945 4.39453-0.244141c1.12305-0.0488281 1.51367 0.0488281 2.34375 0.878906l2.53906 2.49023-10.8398 10.8398-2.49023-2.49023c-0.830078-0.878906-0.976562-1.2207-0.927734-2.39258l0.292969-4.3457-6.68945-6.73828-6.83594 1.17188c-1.41602 0.292969-2.05078 0.195312-3.17383-0.878906l-8.93555-8.88672c-1.07422-1.02539-1.17188-1.70898-0.488281-3.36914l4.58984-11.4746c-6.10352-6.34766-17.041-7.51953-25.5859-4.58984-0.683594 0.244141-0.927734-0.390625-0.390625-0.78125Z"/>
  </g>
  <text style="stroke:none;fill:black;font-family:sans-serif;font-size:13;font-weight:bold;" transform="matrix(1 0 0 1 1289 1953)">Exporting</text>
  <text style="stroke:none;fill:black;font-family:sans-serif;font-size:13;" transform="matrix(1 0 0 1 1289 1971)">Symbols should be outlined when exporting to ensure the</text>
  <text style="stroke:none;fill:black;font-family:sans-serif;font-size:13;" transform="matrix(1 0 0 1 1289 1989)">design is preserved when submitting to Xcode.</text>
  <text id="template-version" style="stroke:none;fill:black;font-family:sans-serif;font-size:13;text-anchor:end;" transform="matrix(1 0 0 1 3036 1933)">Template v.7.0</text>
  <text style="stroke:none;fill:black;font-family:sans-serif;font-size:13;text-anchor:end;" transform="matrix(1 0 0 1 3036 1951)">Requires Xcode 26 or greater</text>
  <text id="descriptive-name" style="stroke:none;fill:black;font-family:sans-serif;font-size:13;text-anchor:end;" transform="matrix(1 0 0 1 3036 1969)">Generated from snapchat</text>
  <text style="stroke:none;fill:black;font-family:sans-serif;font-size:13;text-anchor:end;" transform="matrix(1 0 0 1 3036 1987)">Typeset at 100.0 points</text>
  <text style="stroke:none;fill:black;font-family:sans-serif;font-size:13;" transform="matrix(1 0 0 1 263 726)">Small</text>
  <text style="stroke:none;fill:black;font-family:sans-serif;font-size:13;" transform="matrix(1 0 0 1 263 1156)">Medium</text>
  <text style="stroke:none;fill:black;font-family:sans-serif;font-size:13;" transform="matrix(1 0 0 1 263 1586)">Large</text>
 </g>
 <g id="Guides">
  <g id="H-reference" style="fill:#27AAE1;stroke:none;" transform="matrix(1 0 0 1 339 696)">
   <path d="M0.993654 0L3.63775 0L29.3281-67.1323L30.0303-67.1323L30.0303-70.459L28.1226-70.459ZM11.6885-24.4799L46.9815-24.4799L46.2315-26.7285L12.4385-26.7285ZM55.1196 0L57.7637 0L30.6382-70.459L29.4326-70.459L29.4326-67.1323Z"/>
  </g>
  <line id="Baseline-S" style="fill:none;stroke:#27AAE1;opacity:1;stroke-width:0.5;" x1="263" x2="3036" y1="696" y2="696"/>
  <line id="Capline-S" style="fill:none;stroke:#27AAE1;opacity:1;stroke-width:0.5;" x1="263" x2="3036" y1="625.541" y2="625.541"/>
  <g id="H-reference" style="fill:#27AAE1;stroke:none;" transform="matrix(1 0 0 1 339 1126)">
   <path d="M0.993654 0L3.63775 0L29.3281-67.1323L30.0303-67.1323L30.0303-70.459L28.1226-70.459ZM11.6885-24.4799L46.9815-24.4799L46.2315-26.7285L12.4385-26.7285ZM55.1196 0L57.7637 0L30.6382-70.459L29.4326-70.459L29.4326-67.1323Z"/>
  </g>
  <line id="Baseline-M" style="fill:none;stroke:#27AAE1;opacity:1;stroke-width:0.5;" x1="263" x2="3036" y1="1126" y2="1126"/>
  <line id="Capline-M" style="fill:none;stroke:#27AAE1;opacity:1;stroke-width:0.5;" x1="263" x2="3036" y1="1055.54" y2="1055.54"/>
  <g id="H-reference" style="fill:#27AAE1;stroke:none;" transform="matrix(1 0 0 1 339 1556)">
   <path d="M0.993654 0L3.63775 0L29.3281-67.1323L30.0303-67.1323L30.0303-70.459L28.1226-70.459ZM11.6885-24.4799L46.9815-24.4799L46.2315-26.7285L12.4385-26.7285ZM55.1196 0L57.7637 0L30.6382-70.459L29.4326-70.459L29.4326-67.1323Z"/>
  </g>
  <line id="Baseline-L" style="fill:none;stroke:#27AAE1;opacity:1;stroke-width:0.5;" x1="263" x2="3036" y1="1556" y2="1556"/>
  <line id="Capline-L" style="fill:none;stroke:#27AAE1;opacity:1;stroke-width:0.5;" x1="263" x2="3036" y1="1485.54" y2="1485.54"/>
  <line id="right-margin-Regular-M" style="fill:none;stroke:#00AEEF;stroke-width:0.5;opacity:1.0;" x1="1507.24" x2="1507.24" y1="1030.79" y2="1150.12"/>
  <line id="left-margin-Regular-M" style="fill:none;stroke:#00AEEF;stroke-width:0.5;opacity:1.0;" x1="1392.45" x2="1392.45" y1="1030.79" y2="1150.12"/>
  <line id="right-margin-Black-S" style="fill:none;stroke:#00AEEF;stroke-width:0.5;opacity:1.0;" x1="2982.3" x2="2982.3" y1="600.785" y2="720.121"/>
  <line id="left-margin-Black-S" style="fill:none;stroke:#00AEEF;stroke-width:0.5;opacity:1.0;" x1="2884.5" x2="2884.5" y1="600.785" y2="720.121"/>
  <line id="right-margin-Regular-S" style="fill:none;stroke:#00AEEF;stroke-width:0.5;opacity:1.0;" x1="1495.74" x2="1495.74" y1="600.785" y2="720.121"/>
  <line id="left-margin-Regular-S" style="fill:none;stroke:#00AEEF;stroke-width:0.5;opacity:1.0;" x1="1403.95" x2="1403.95" y1="600.785" y2="720.121"/>
  <line id="right-margin-Ultralight-S" style="fill:none;stroke:#00AEEF;stroke-width:0.5;opacity:1.0;" x1="605.606" x2="605.606" y1="600.785" y2="720.121"/>
  <line id="left-margin-Ultralight-S" style="fill:none;stroke:#00AEEF;stroke-width:0.5;opacity:1.0;" x1="513.816" x2="513.816" y1="600.785" y2="720.121"/>
 </g>
 <g id="Symbols">
  <g id="Regular-M" transform="matrix(1 0 0 1 1392.45 1126)">
   <path class="monochrome-0 multicolor-0:tintColor hierarchical-0:primary SFSymbolsPreviewWireframe" d="M105.21-12.48C104.55-14.28 103.29-15.25 101.86-16.04C101.63-16.19 101.39-16.31 101.13-16.42L99.83-17.08C95.37-19.46 91.88-22.45 89.47-25.99C88.78-26.99 88.18-28.04 87.69-29.15C87.48-29.74 87.5-30.07 87.64-30.38C87.78-30.62 87.98-30.82 88.21-30.97C88.98-31.48 89.77-32 90.3-32.34C91.27-32.96 92.02-33.46 92.51-33.8C94.34-35.08 95.62-36.45 96.42-37.97C96.98-39.03 97.31-40.19 97.38-41.38C97.45-42.57 97.26-43.76 96.83-44.87C95.62-48.07 92.6-50.05 88.94-50.05C87.97-50.06 86.99-49.93 86.05-49.67C86.09-51.85 86.04-54.17 85.84-56.44C85.16-64.43 82.36-68.61 79.45-71.95C77.58-74.04 75.39-75.81 72.95-77.19C68.52-79.72 63.51-81 58.05-81C52.58-81 47.6-79.72 43.17-77.19C40.73-75.81 38.53-74.04 36.66-71.94C33.75-68.6 30.96-64.41 30.26-56.43C30.07-54.15 30.03-51.84 30.05-49.66C29.11-49.92 28.14-50.05 27.16-50.05C23.51-50.05 20.48-48.06 19.27-44.86C18.84-43.75 18.65-42.55 18.72-41.36C18.79-40.17 19.11-39.01 19.67-37.96C20.48-36.43 21.76-35.07 23.59-33.79C24.08-33.44 24.84-32.96 25.79-32.33L27.81-31.01C28.06-30.84 28.28-30.62 28.45-30.36C28.61-30.04 28.61-29.7 28.38-29.07C27.89-27.99 27.3-26.95 26.63-25.98C24.27-22.51 20.88-19.57 16.56-17.23C14.27-16.01 11.89-15.21 10.89-12.47C10.13-10.4 10.63-8.05 12.55-6.08C13.26-5.33 14.07-4.72 14.98-4.24C16.86-3.2 18.85-2.41 20.92-1.86C21.34-1.75 21.75-1.57 22.12-1.32C22.82-0.71 22.72 0.22 23.66 1.58C24.13 2.28 24.72 2.88 25.41 3.36C27.37 4.72 29.57 4.8 31.91 4.89C34.02 4.98 36.41 5.07 39.14 5.96C40.27 6.34 41.45 7.07 42.81 7.91C46.08 9.92 50.56 12.68 58.05 12.68C65.54 12.68 70.04 9.91 73.34 7.89C74.69 7.06 75.86 6.34 76.96 5.98C79.69 5.08 82.08 4.98 84.19 4.91C86.52 4.82 88.72 4.73 90.69 3.37C91.51 2.8 92.19 2.05 92.68 1.18C93.36 0.04 93.34-0.76 93.97-1.31C94.32-1.55 94.7-1.73 95.1-1.83C97.2-2.38 99.22-3.19 101.12-4.23C102.07-4.75 102.94-5.42 103.67-6.23L103.69-6.26C105.5-8.19 105.95-10.47 105.21-12.48ZM98.56-8.9C94.5-6.66 91.79-6.9 89.69-5.55C87.91-4.4 88.97-1.92 87.67-1.03C86.08 0.08 81.37-1.1 75.29 0.91C70.28 2.57 67.08 7.34 58.06 7.34C49.04 7.34 45.91 2.58 40.81 0.9C34.75-1.11 30.03 0.07 28.44-1.03C27.15-1.93 28.2-4.41 26.42-5.56C24.31-6.91 21.61-6.67 17.56-8.9C14.97-10.33 16.44-11.22 17.3-11.64C32.01-18.77 34.35-29.77 34.46-30.59C34.59-31.58 34.72-32.36 33.64-33.36C32.59-34.34 27.92-37.22 26.63-38.13C24.49-39.63 23.54-41.12 24.24-42.95C24.73-44.23 25.91-44.71 27.15-44.71C27.55-44.7 27.94-44.66 28.32-44.58C30.67-44.07 32.95-42.88 34.27-42.57C34.43-42.53 34.59-42.51 34.76-42.5C35.46-42.5 35.71-42.86 35.66-43.66C35.51-46.24 35.14-51.25 35.55-55.94C36.11-62.39 38.18-65.59 40.65-68.41C41.84-69.77 47.4-75.66 58.05-75.66C68.69-75.66 74.27-69.79 75.45-68.44C77.92-65.62 80-62.42 80.55-55.97C80.95-51.28 80.6-46.27 80.44-43.69C80.38-42.85 80.64-42.53 81.34-42.53C81.5-42.54 81.66-42.56 81.82-42.59C83.14-42.91 85.43-44.1 87.77-44.6C88.16-44.69 88.55-44.73 88.94-44.74C90.19-44.74 91.37-44.25 91.85-42.98C92.55-41.15 91.62-39.66 89.47-38.16C88.18-37.25 83.52-34.36 82.47-33.39C81.37-32.39 81.52-31.61 81.64-30.62C81.75-29.79 84.09-18.78 98.8-11.66C99.67-11.23 101.14-10.34 98.56-8.9Z"/>
  </g>
  <g id="Black-S" transform="matrix(1 0 0 1 2884.5 696)">
   <path class="monochrome-0 multicolor-0:tintColor hierarchical-0:primary SFSymbolsPreviewWireframe" d="M88.2732-16.744C87.7332-18.223 86.7032-19.013 85.5232-19.667C85.3332-19.785 85.1332-19.89 84.9232-19.98L83.8632-20.522C80.1932-22.469 77.3332-24.924 75.3432-27.833C74.7832-28.651 74.2932-29.519 73.8832-30.425C73.7232-30.913 73.7332-31.186 73.8432-31.435C73.9632-31.633 74.1232-31.8 74.3232-31.923C74.9432-32.343 75.5932-32.767 76.0332-33.051C76.8232-33.558 77.4432-33.963 77.8432-34.246C79.3532-35.301 80.4032-36.423 81.0632-37.673C81.5232-38.537 81.7832-39.49 81.8432-40.467C81.9032-41.444 81.7532-42.422 81.3932-43.334C80.3932-45.96 77.9232-47.591 74.9232-47.591C74.1132-47.594 73.3132-47.487 72.5432-47.273C72.5732-49.069 72.5332-50.968 72.3732-52.832C71.8132-59.392 69.5132-62.828 67.1232-65.571C65.5932-67.288 63.7932-68.741 61.7832-69.871C58.1532-71.946 54.0432-73 49.5532-73C45.0632-73 40.9732-71.946 37.3332-69.871C35.3332-68.739 33.5232-67.285 31.9932-65.562C29.6032-62.819 27.3132-59.378 26.7432-52.823C26.5832-50.958 26.5432-49.055 26.5632-47.268C25.7932-47.482 24.9932-47.589 24.1932-47.586C21.1932-47.586 18.7132-45.951 17.7132-43.325C17.3632-42.412 17.2032-41.433 17.2632-40.456C17.3232-39.478 17.5832-38.524 18.0432-37.658C18.7032-36.409 19.7632-35.286 21.2632-34.237C21.6632-33.954 22.2832-33.553 23.0732-33.036L24.7232-31.957C24.9332-31.815 25.1132-31.632 25.2532-31.42C25.3832-31.162 25.3832-30.883 25.1932-30.361C24.7932-29.475 24.3132-28.625 23.7532-27.823C21.8132-24.978 19.0332-22.567 15.4832-20.639C13.6132-19.643 11.6532-18.979 10.8332-16.734C10.2032-15.036 10.6132-13.108 12.1932-11.487C12.7832-10.872 13.4432-10.368 14.1932-9.974C15.7332-9.126 17.3632-8.47 19.0632-8.022C19.4132-7.929 19.7432-7.78 20.0532-7.583C20.6232-7.075 20.5432-6.314 21.3132-5.201C21.7032-4.621 22.1832-4.133 22.7532-3.736C24.3632-2.619 26.1732-2.55 28.0932-2.477C29.8232-2.409 31.7932-2.331 34.0232-1.599C34.9532-1.286 35.9232-0.691 37.0432 0.002C39.7232 1.652 43.4032 3.917 49.5532 3.917C55.7032 3.917 59.3932 1.642 62.1032-0.017C63.2132-0.701 64.1732-1.286 65.0732-1.584C67.3232-2.326 69.2832-2.404 71.0132-2.467C72.9332-2.541 74.7432-2.614 76.3532-3.727C77.0232-4.197 77.5832-4.81 77.9932-5.523C78.5432-6.46 78.5232-7.119 79.0432-7.573C79.3332-7.767 79.6432-7.911 79.9732-7.997C81.6932-8.451 83.3532-9.114 84.9132-9.969C85.6932-10.394 86.4132-10.945 87.0132-11.609L87.0232-11.634C88.5132-13.22 88.8832-15.094 88.2732-16.744ZM82.8132-13.806C79.4732-11.961 77.2632-12.161 75.5332-11.048C74.0732-10.106 74.9332-8.071 73.8732-7.338C72.5632-6.431 68.7032-7.397 63.7132-5.747C59.5932-4.386 56.9632-0.466 49.5632-0.466C42.1532-0.466 39.5932-4.376 35.4032-5.757C30.4232-7.407 26.5532-6.44 25.2432-7.343C24.1832-8.075 25.0432-10.116 23.5832-11.058C21.8532-12.17 19.6332-11.97 16.3032-13.806C14.1832-14.977 15.3832-15.709 16.0932-16.051C28.1732-21.903 30.0932-30.937 30.1832-31.611C30.2832-32.421 30.4032-33.06 29.5032-33.885C28.6432-34.686 24.8232-37.058 23.7532-37.8C22.0032-39.03 21.2232-40.255 21.7932-41.763C22.1932-42.807 23.1632-43.203 24.1832-43.203C24.5032-43.199 24.8332-43.163 25.1432-43.095C27.0732-42.676 28.9432-41.704 30.0332-41.446C30.1632-41.413 30.2932-41.395 30.4332-41.392C31.0032-41.392 31.2132-41.685 31.1732-42.344C31.0432-44.457 30.7432-48.576 31.0732-52.427C31.5332-57.718 33.2432-60.344 35.2632-62.662C36.2432-63.78 40.8132-68.617 49.5532-68.617C58.2832-68.617 62.8632-63.8 63.8332-62.687C65.8632-60.368 67.5732-57.743 68.0232-52.447C68.3532-48.601 68.0732-44.481 67.9332-42.368C67.8832-41.675 68.1032-41.416 68.6732-41.416C68.8132-41.419 68.9432-41.435 69.0732-41.465C70.1532-41.729 72.0332-42.7 73.9632-43.115C74.2732-43.184 74.5932-43.222 74.9232-43.227C75.9432-43.227 76.9132-42.827 77.3032-41.787C77.8732-40.279 77.1132-39.054 75.3532-37.824C74.2932-37.082 70.4632-34.71 69.6032-33.91C68.7032-33.085 68.8232-32.445 68.9232-31.635C69.0132-30.952 70.9332-21.917 83.0132-16.07C83.7232-15.714 84.9332-14.987 82.8132-13.806Z"/>
  </g>
  <g id="Regular-S" transform="matrix(1 0 0 1 1403.95 696)">
   <path class="monochrome-0 multicolor-0:tintColor hierarchical-0:primary SFSymbolsPreviewWireframe" d="M82.2901-19.071C81.7901-20.436 80.8401-21.166 79.7601-21.77C79.5801-21.879 79.3901-21.975 79.2001-22.058L78.2201-22.558C74.8301-24.356 72.1901-26.622 70.3601-29.307C69.8401-30.063 69.3901-30.863 69.0101-31.7C68.8601-32.15 68.8701-32.403 68.9701-32.632C69.0801-32.815 69.2301-32.969 69.4101-33.083C69.9901-33.47 70.5901-33.862 70.9901-34.124C71.7201-34.592 72.3001-34.966 72.6601-35.227C74.0501-36.201 75.0301-37.237 75.6301-38.39C76.0601-39.188 76.3001-40.068 76.3601-40.97C76.4101-41.871 76.2701-42.774 75.9401-43.616C75.0201-46.04 72.7401-47.545 69.9601-47.545C69.2201-47.548 68.4901-47.45 67.7701-47.252C67.8001-48.91 67.7601-50.663 67.6201-52.384C67.0901-58.439 64.9701-61.611 62.7701-64.143C61.3501-65.728 59.6901-67.068 57.8401-68.112C54.4901-70.027 50.6901-71 46.5501-71C42.4001-71 38.6301-70.027 35.2701-68.112C33.4201-67.067 31.7501-65.724 30.3401-64.134C28.1301-61.602 26.0201-58.426 25.4901-52.375C25.3401-50.654 25.3101-48.897 25.3301-47.248C24.6201-47.445 23.8801-47.544 23.1401-47.541C20.3701-47.541 18.0801-46.031 17.1601-43.607C16.8301-42.765 16.6901-41.862 16.7401-40.959C16.8001-40.057 17.0401-39.176 17.4601-38.377C18.0701-37.223 19.0501-36.187 20.4301-35.218C20.8001-34.957 21.3801-34.588 22.1001-34.11L23.6301-33.114C23.8201-32.983 23.9901-32.814 24.1201-32.619C24.2401-32.38 24.2401-32.123 24.0601-31.641C23.6901-30.823 23.2501-30.039 22.7401-29.298C20.9501-26.672 18.3801-24.446 15.1001-22.666C13.3701-21.747 11.5701-21.135 10.8101-19.062C10.2301-17.494 10.6101-15.715 12.0701-14.219C12.6101-13.651 13.2201-13.186 13.9101-12.822C15.3301-12.039 16.8401-11.434 18.4101-11.02C18.7301-10.934 19.0401-10.797 19.3201-10.615C19.8501-10.146 19.7801-9.443 20.4801-8.416C20.8401-7.881 21.2901-7.431 21.8101-7.064C23.3001-6.033 24.9701-5.97 26.7401-5.902C28.3401-5.839 30.1501-5.767 32.2201-5.091C33.0701-4.803 33.9701-4.253 35.0001-3.613C37.4701-2.09 40.8701 0 46.5501 0C52.2301 0 55.6401-2.099 58.1401-3.631C59.1601-4.262 60.0501-4.803 60.8801-5.078C62.9501-5.762 64.7601-5.834 66.3601-5.893C68.1301-5.961 69.8001-6.028 71.2901-7.055C71.9101-7.49 72.4201-8.056 72.8001-8.713C73.3101-9.578 73.2901-10.187 73.7801-10.606C74.0401-10.785 74.3201-10.918 74.6301-10.998C76.2201-11.417 77.7501-12.028 79.1901-12.818C79.9101-13.21 80.5701-13.719 81.1201-14.332L81.1401-14.354C82.5101-15.818 82.8501-17.548 82.2901-19.071ZM77.2501-16.359C74.1701-14.656 72.1201-14.841 70.5301-13.813C69.1801-12.944 69.9801-11.065 69.0001-10.389C67.7901-9.551 64.2301-10.443 59.6201-8.921C55.8201-7.664 53.3901-4.046 46.5601-4.046C39.7201-4.046 37.3501-7.655 33.4901-8.93C28.8901-10.452 25.3201-9.56 24.1101-10.394C23.1301-11.07 23.9201-12.953 22.5701-13.822C20.9801-14.85 18.9301-14.665 15.8601-16.359C13.9001-17.44 15.0101-18.116 15.6601-18.431C26.8101-23.833 28.5901-32.173 28.6701-32.795C28.7701-33.542 28.8701-34.133 28.0501-34.894C27.2501-35.633 23.7201-37.823 22.7401-38.507C21.1201-39.643 20.4001-40.774 20.9301-42.166C21.3001-43.13 22.1901-43.495 23.1301-43.495C23.4301-43.491 23.7301-43.458 24.0201-43.396C25.8001-43.008 27.5301-42.112 28.5301-41.873C28.6501-41.843 28.7701-41.826 28.9001-41.823C29.4301-41.823 29.6201-42.094 29.5801-42.702C29.4601-44.653 29.1901-48.455 29.5001-52.01C29.9201-56.894 31.4901-59.318 33.3601-61.458C34.2601-62.489 38.4801-66.954 46.5501-66.954C54.6101-66.954 58.8401-62.507 59.7401-61.48C61.6101-59.34 63.1801-56.916 63.6001-52.028C63.9101-48.478 63.6401-44.675 63.5201-42.724C63.4701-42.085 63.6701-41.846 64.2001-41.846C64.3201-41.848 64.4501-41.863 64.5701-41.891C65.5701-42.134 67.3001-43.031 69.0801-43.414C69.3701-43.478 69.6701-43.512 69.9601-43.517C70.9101-43.517 71.8001-43.148 72.1701-42.188C72.7001-40.796 71.9901-39.665 70.3601-38.53C69.3801-37.845 65.8501-35.655 65.0501-34.917C64.2301-34.155 64.3301-33.565 64.4301-32.817C64.5101-32.186 66.2901-23.847 77.4301-18.449C78.1001-18.121 79.2101-17.449 77.2501-16.359Z"/>
  </g>
  <g id="Ultralight-S" transform="matrix(1 0 0 1 513.816 696)">
   <path class="monochrome-0 multicolor-0:tintColor hierarchical-0:primary SFSymbolsPreviewWireframe" d="M82.2949-18.071C81.7959-19.436 80.8419-20.166 79.7569-20.77C79.5799-20.879 79.3949-20.975 79.2039-21.058L78.2179-21.558C74.8339-23.356 72.1929-25.622 70.3609-28.307C69.8409-29.063 69.3889-29.863 69.0109-30.7C68.8579-31.15 68.8669-31.403 68.9749-31.632C69.0829-31.815 69.2329-31.969 69.4119-32.083C69.9919-32.47 70.5909-32.862 70.9959-33.124C71.7249-33.592 72.2959-33.966 72.6649-34.227C74.0559-35.201 75.0279-36.237 75.6349-37.39C76.0579-38.188 76.3039-39.068 76.3579-39.97C76.4109-40.871 76.2709-41.774 75.9459-42.616C75.0229-45.04 72.7369-46.545 69.9649-46.545C69.2249-46.548 68.4869-46.45 67.7739-46.252C67.8009-47.91 67.7649-49.663 67.6159-51.384C67.0939-57.439 64.9749-60.611 62.7699-63.143C61.3559-64.728 59.6909-66.068 57.8419-67.112C54.4899-69.027 50.6919-70 46.5469-70C42.4029-70 38.6269-69.027 35.2749-67.112C33.4209-66.067 31.7559-64.724 30.3379-63.134C28.1329-60.602 26.0179-57.426 25.4919-51.375C25.3429-49.654 25.3119-47.897 25.3299-46.248C24.6159-46.445 23.8789-46.544 23.1379-46.541C20.3709-46.541 18.0799-45.031 17.1619-42.607C16.8349-41.765 16.6929-40.862 16.7449-39.959C16.7969-39.057 17.0419-38.176 17.4639-37.377C18.0759-36.223 19.0479-35.187 20.4339-34.218C20.8029-33.957 21.3789-33.588 22.1029-33.11L23.6289-32.114C23.8229-31.983 23.9899-31.814 24.1189-31.619C24.2359-31.38 24.2409-31.123 24.0649-30.641C23.6919-29.823 23.2479-29.039 22.7379-28.298C20.9469-25.672 18.3819-23.446 15.1059-21.666C13.3729-20.747 11.5689-20.135 10.8079-18.062C10.2319-16.494 10.6099-14.715 12.0679-13.219C12.6079-12.651 13.2219-12.186 13.9089-11.822C15.3299-11.039 16.8409-10.434 18.4089-10.02C18.7309-9.934 19.0379-9.797 19.3179-9.615C19.8489-9.146 19.7769-8.443 20.4829-7.416C20.8429-6.881 21.2869-6.431 21.8149-6.064C23.2999-5.033 24.9699-4.97 26.7429-4.902C28.3399-4.839 30.1539-4.767 32.2189-4.091C33.0739-3.803 33.9699-3.253 34.9999-2.613C37.4749-1.09 40.8729 1 46.5469 1C52.2259 1 55.6369-1.099 58.1389-2.631C59.1609-3.262 60.0469-3.803 60.8799-4.078C62.9499-4.762 64.7629-4.834 66.3609-4.893C68.1289-4.961 69.7989-5.028 71.2879-6.055C71.9079-6.49 72.4239-7.056 72.7999-7.713C73.3129-8.578 73.2949-9.187 73.7769-9.606C74.0369-9.785 74.3259-9.918 74.6319-9.998C76.2209-10.417 77.7529-11.028 79.1949-11.818C79.9149-12.21 80.5719-12.719 81.1249-13.332L81.1429-13.354C82.5109-14.818 82.8529-16.548 82.2949-18.071ZM77.2509-15.359C74.1729-13.656 72.1249-13.841 70.5319-12.813C69.1819-11.944 69.9829-10.065 69.0019-9.389C67.7919-8.551 64.2279-9.443 59.6199-7.921C55.8169-6.664 53.3919-3.046 46.5559-3.046C39.7209-3.046 37.3539-6.655 33.4879-7.93C28.8889-9.452 25.3159-8.56 24.1099-9.394C23.1289-10.07 23.9259-11.953 22.5759-12.822C20.9829-13.85 18.9349-13.665 15.8619-15.359C13.8999-16.44 15.0109-17.116 15.6639-17.431C26.8149-22.833 28.5919-31.173 28.6689-31.795C28.7679-32.542 28.8709-33.133 28.0479-33.894C27.2509-34.633 23.7189-36.823 22.7379-37.507C21.1179-38.643 20.3979-39.774 20.9289-41.166C21.2979-42.13 22.1929-42.495 23.1339-42.495C23.4319-42.491 23.7289-42.458 24.0199-42.396C25.8019-42.008 27.5299-41.112 28.5289-40.873C28.6489-40.843 28.7719-40.826 28.8979-40.823C29.4289-40.823 29.6179-41.094 29.5819-41.702C29.4649-43.653 29.1909-47.455 29.4969-51.01C29.9199-55.894 31.4949-58.318 33.3619-60.458C34.2619-61.489 38.4789-65.954 46.5469-65.954C54.6109-65.954 58.8409-61.507 59.7369-60.48C61.6089-58.34 63.1839-55.916 63.6019-51.028C63.9079-47.478 63.6429-43.675 63.5169-41.724C63.4719-41.085 63.6699-40.846 64.2009-40.846C64.3249-40.848 64.4489-40.863 64.5699-40.891C65.5689-41.134 67.3009-42.031 69.0789-42.414C69.3699-42.478 69.6669-42.512 69.9649-42.517C70.9099-42.517 71.8059-42.148 72.1699-41.188C72.6969-39.796 71.9899-38.665 70.3659-37.53C69.3849-36.845 65.8519-34.655 65.0559-33.917C64.2279-33.155 64.3359-32.565 64.4299-31.817C64.5109-31.186 66.2889-22.847 77.4349-17.449C78.0969-17.121 79.2079-16.449 77.2509-15.359Z"/>
  </g>
 </g>
</svg>
