<?xml version="1.0" encoding="UTF-8"?>
<!--Generator: Apple Native CoreSVG 175.5-->
<!DOCTYPE svg
PUBLIC "-//W3C//DTD SVG 1.1//EN"
       "http://www.w3.org/Graphics/SVG/1.1/DTD/svg11.dtd">
<svg version="1.1" xmlns="http://www.w3.org/2000/svg" xmlns:xlink="http://www.w3.org/1999/xlink" width="3300" height="2200">
 <!--glyph: "", point size: 100.0, font version: "18.0d12e2", template writer version: "101"-->
 <style>.monochrome-0 {fill:#000000}
.monochrome-1 {fill:#FFFFFF;opacity:0.0;-sfsymbols-clear-behind:true}

.multicolor-0:custom {fill:#FF4500}
.multicolor-1:white {fill:#FFFFFF}

.hierarchical-0:secondary {fill:#4D4D4D}
.hierarchical-1:primary {fill:#212121}

.SFSymbolsPreviewFF4500 {fill:#FF4500;opacity:1.0}
.SFSymbolsPreviewFFFFFF {fill:#FFFFFF;opacity:1.0}
</style>
 <g id="Notes">
  <rect height="2200" id="artboard" style="fill:white;opacity:1" width="3300" x="0" y="0"/>
  <line style="fill:none;stroke:black;opacity:1;stroke-width:0.5;" x1="263" x2="3036" y1="292" y2="292"/>
  <text style="stroke:none;fill:black;font-family:sans-serif;font-size:13;font-weight:bold;" transform="matrix(1 0 0 1 263 322)">Weight/Scale Variations</text>
  <text style="stroke:none;fill:black;font-family:sans-serif;font-size:13;text-anchor:middle;" transform="matrix(1 0 0 1 559.711 322)">Ultralight</text>
  <text style="stroke:none;fill:black;font-family:sans-serif;font-size:13;text-anchor:middle;" transform="matrix(1 0 0 1 856.422 322)">Thin</text>
  <text style="stroke:none;fill:black;font-family:sans-serif;font-size:13;text-anchor:middle;" transform="matrix(1 0 0 1 1153.13 322)">Light</text>
  <text style="stroke:none;fill:black;font-family:sans-serif;font-size:13;text-anchor:middle;" transform="matrix(1 0 0 1 1449.84 322)">Regular</text>
  <text style="stroke:none;fill:black;font-family:sans-serif;font-size:13;text-anchor:middle;" transform="matrix(1 0 0 1 1746.56 322)">Medium</text>
  <text style="stroke:none;fill:black;font-family:sans-serif;font-size:13;text-anchor:middle;" transform="matrix(1 0 0 1 2043.27 322)">Semibold</text>
  <text style="stroke:none;fill:black;font-family:sans-serif;font-size:13;text-anchor:middle;" transform="matrix(1 0 0 1 2339.98 322)">Bold</text>
  <text style="stroke:none;fill:black;font-family:sans-serif;font-size:13;text-anchor:middle;" transform="matrix(1 0 0 1 2636.69 322)">Heavy</text>
  <text style="stroke:none;fill:black;font-family:sans-serif;font-size:13;text-anchor:middle;" transform="matrix(1 0 0 1 2933.4 322)">Black</text>
  <line style="fill:none;stroke:black;opacity:1;stroke-width:0.5;" x1="263" x2="3036" y1="1903" y2="1903"/>
  <g transform="matrix(1 0 0 1 263 1933)">
   <path d="M9.24805 0.830078C13.5547 0.830078 17.1387-2.74414 17.1387-7.05078C17.1387-11.3574 13.5449-14.9316 9.23828-14.9316C4.94141-14.9316 1.36719-11.3574 1.36719-7.05078C1.36719-2.74414 4.95117 0.830078 9.24805 0.830078ZM9.24805-0.654297C5.70312-0.654297 2.87109-3.49609 2.87109-7.05078C2.87109-10.6055 5.69336-13.4473 9.23828-13.4473C12.793-13.4473 15.6445-10.6055 15.6445-7.05078C15.6445-3.49609 12.8027-0.654297 9.24805-0.654297ZM5.6543-7.05078C5.6543-6.62109 5.95703-6.32812 6.40625-6.32812L8.50586-6.32812L8.50586-4.20898C8.50586-3.76953 8.79883-3.4668 9.22852-3.4668C9.67773-3.4668 9.9707-3.76953 9.9707-4.20898L9.9707-6.32812L12.0898-6.32812C12.5293-6.32812 12.832-6.62109 12.832-7.05078C12.832-7.49023 12.5293-7.79297 12.0898-7.79297L9.9707-7.79297L9.9707-9.90234C9.9707-10.3516 9.67773-10.6543 9.22852-10.6543C8.79883-10.6543 8.50586-10.3516 8.50586-9.90234L8.50586-7.79297L6.40625-7.79297C5.95703-7.79297 5.6543-7.49023 5.6543-7.05078Z"/>
  </g>
  <g transform="matrix(1 0 0 1 281.867 1933)">
   <path d="M11.709 2.91016C17.1582 2.91016 21.6699-1.61133 21.6699-7.05078C21.6699-12.5 17.1484-17.0117 11.6992-17.0117C6.25977-17.0117 1.74805-12.5 1.74805-7.05078C1.74805-1.61133 6.26953 2.91016 11.709 2.91016ZM11.709 1.25C7.09961 1.25 3.41797-2.44141 3.41797-7.05078C3.41797-11.6602 7.08984-15.3516 11.6992-15.3516C16.3086-15.3516 20.0098-11.6602 20.0098-7.05078C20.0098-2.44141 16.3184 1.25 11.709 1.25ZM7.17773-7.05078C7.17773-6.57227 7.50977-6.25 8.00781-6.25L10.8789-6.25L10.8789-3.36914C10.8789-2.88086 11.2109-2.53906 11.6895-2.53906C12.1777-2.53906 12.5195-2.87109 12.5195-3.36914L12.5195-6.25L15.4004-6.25C15.8887-6.25 16.2305-6.57227 16.2305-7.05078C16.2305-7.53906 15.8887-7.88086 15.4004-7.88086L12.5195-7.88086L12.5195-10.752C12.5195-11.25 12.1777-11.5918 11.6895-11.5918C11.2109-11.5918 10.8789-11.25 10.8789-10.752L10.8789-7.88086L8.00781-7.88086C7.50977-7.88086 7.17773-7.53906 7.17773-7.05078Z"/>
  </g>
  <g transform="matrix(1 0 0 1 305.646 1933)">
   <path d="M14.9707 5.66406C21.9336 5.66406 27.6953-0.0976562 27.6953-7.05078C27.6953-14.0137 21.9238-19.7754 14.9609-19.7754C8.00781-19.7754 2.25586-14.0137 2.25586-7.05078C2.25586-0.0976562 8.01758 5.66406 14.9707 5.66406ZM14.9707 3.84766C8.93555 3.84766 4.08203-1.01562 4.08203-7.05078C4.08203-13.0957 8.92578-17.9492 14.9609-17.9492C21.0059-17.9492 25.8691-13.0957 25.8691-7.05078C25.8691-1.01562 21.0156 3.84766 14.9707 3.84766ZM9.19922-7.05078C9.19922-6.5332 9.57031-6.17188 10.1172-6.17188L14.0625-6.17188L14.0625-2.2168C14.0625-1.67969 14.4336-1.29883 14.9512-1.29883C15.4883-1.29883 15.8594-1.66992 15.8594-2.2168L15.8594-6.17188L19.8145-6.17188C20.3516-6.17188 20.7324-6.5332 20.7324-7.05078C20.7324-7.59766 20.3613-7.96875 19.8145-7.96875L15.8594-7.96875L15.8594-11.9141C15.8594-12.4609 15.4883-12.8418 14.9512-12.8418C14.4336-12.8418 14.0625-12.4609 14.0625-11.9141L14.0625-7.96875L10.1172-7.96875C9.57031-7.96875 9.19922-7.59766 9.19922-7.05078Z"/>
  </g>
  <text style="stroke:none;fill:black;font-family:sans-serif;font-size:13;font-weight:bold;" transform="matrix(1 0 0 1 263 1953)">Design Variations</text>
  <text style="stroke:none;fill:black;font-family:sans-serif;font-size:13;" transform="matrix(1 0 0 1 263 1971)">Symbols are supported in up to nine weights and three scales.</text>
  <text style="stroke:none;fill:black;font-family:sans-serif;font-size:13;" transform="matrix(1 0 0 1 263 1989)">For optimal layout with text and other symbols, vertically align</text>
  <text style="stroke:none;fill:black;font-family:sans-serif;font-size:13;" transform="matrix(1 0 0 1 263 2007)">symbols with the adjacent text.</text>
  <line style="fill:none;stroke:#00AEEF;stroke-width:0.5;opacity:1.0;" x1="776" x2="776" y1="1919" y2="1933"/>
  <g transform="matrix(1 0 0 1 776 1933)">
   <path d="M3.31055 0.15625C3.82812 0.15625 4.08203-0.0390625 4.26758-0.585938L5.52734-4.0332L11.2891-4.0332L12.5488-0.585938C12.7344-0.0390625 12.9883 0.15625 13.4961 0.15625C14.0137 0.15625 14.3457-0.15625 14.3457-0.644531C14.3457-0.810547 14.3164-0.966797 14.2383-1.17188L9.6582-13.3691C9.43359-13.9648 9.0332-14.2676 8.4082-14.2676C7.80273-14.2676 7.39258-13.9746 7.17773-13.3789L2.59766-1.16211C2.51953-0.957031 2.49023-0.800781 2.49023-0.634766C2.49023-0.146484 2.80273 0.15625 3.31055 0.15625ZM6.00586-5.51758L8.37891-12.0898L8.42773-12.0898L10.8008-5.51758Z"/>
  </g>
  <line style="fill:none;stroke:#00AEEF;stroke-width:0.5;opacity:1.0;" x1="793.197" x2="793.197" y1="1919" y2="1933"/>
  <text style="stroke:none;fill:black;font-family:sans-serif;font-size:13;font-weight:bold;" transform="matrix(1 0 0 1 776 1953)">Margins</text>
  <text style="stroke:none;fill:black;font-family:sans-serif;font-size:13;" transform="matrix(1 0 0 1 776 1971)">Leading and trailing margins on the left and right side of each symbol</text>
  <text style="stroke:none;fill:black;font-family:sans-serif;font-size:13;" transform="matrix(1 0 0 1 776 1989)">can be adjusted by modifying the x-location of the margin guidelines.</text>
  <text style="stroke:none;fill:black;font-family:sans-serif;font-size:13;" transform="matrix(1 0 0 1 776 2007)">Modifications are automatically applied proportionally to all</text>
  <text style="stroke:none;fill:black;font-family:sans-serif;font-size:13;" transform="matrix(1 0 0 1 776 2025)">scales and weights.</text>
  <g transform="matrix(1 0 0 1 1289 1933)">
   <path d="M2.8418 1.86523L4.54102 3.57422C5.40039 4.44336 6.38672 4.38477 7.31445 3.35938L18.0078-8.42773L17.041-9.4043L6.42578 2.27539C6.07422 2.67578 5.74219 2.77344 5.27344 2.30469L4.10156 1.14258C3.63281 0.683594 3.74023 0.341797 4.14062-0.0195312L15.6152-10.8203L14.6387-11.7871L3.04688-0.898438C2.06055 0.0195312 1.98242 0.996094 2.8418 1.86523ZM9.25781-16.3281C8.83789-15.918 8.80859-15.3418 9.04297-14.9512C9.27734-14.5898 9.73633-14.3555 10.3809-14.5215C11.8457-14.8633 13.3691-14.9219 14.7949-13.9844L14.209-12.5293C13.8672-11.6992 14.043-11.1133 14.5801-10.5664L16.875-8.25195C17.3633-7.76367 17.7734-7.74414 18.3398-7.8418L19.4043-8.03711L20.0684-7.36328L20.0293-6.80664C19.9902-6.30859 20.1172-5.92773 20.6055-5.44922L21.3672-4.70703C21.8457-4.22852 22.4609-4.19922 22.9297-4.66797L25.8398-7.58789C26.3086-8.05664 26.2891-8.65234 25.8105-9.13086L25.0391-9.89258C24.5605-10.3711 24.1895-10.5273 23.7109-10.4883L23.1348-10.4395L22.4902-11.0742L22.7344-12.1973C22.8613-12.7637 22.7051-13.2031 22.1191-13.7891L19.9219-15.9766C16.582-19.2969 12.1484-19.2188 9.25781-16.3281ZM10.752-15.957C13.1836-17.7344 16.4746-17.4316 18.7012-15.2051L21.1328-12.793C21.3672-12.5586 21.4062-12.373 21.3379-12.0312L21.0156-10.5469L22.5195-9.0625L23.5059-9.12109C23.7598-9.13086 23.8379-9.11133 24.0332-8.91602L24.6094-8.33984L22.168-5.89844L21.5918-6.47461C21.3965-6.66992 21.3672-6.74805 21.377-7.01172L21.4453-7.98828L19.9512-9.47266L18.4277-9.21875C18.1055-9.15039 17.959-9.17969 17.7148-9.41406L15.7129-11.416C15.459-11.6504 15.4297-11.8164 15.5859-12.1875L16.4648-14.2773C14.9023-15.7324 12.8711-16.3574 10.8398-15.7617C10.6836-15.7227 10.625-15.8496 10.752-15.957Z"/>
  </g>
  <text style="stroke:none;fill:black;font-family:sans-serif;font-size:13;font-weight:bold;" transform="matrix(1 0 0 1 1289 1953)">Exporting</text>
  <text style="stroke:none;fill:black;font-family:sans-serif;font-size:13;" transform="matrix(1 0 0 1 1289 1971)">Symbols should be outlined when exporting to ensure the</text>
  <text style="stroke:none;fill:black;font-family:sans-serif;font-size:13;" transform="matrix(1 0 0 1 1289 1989)">design is preserved when submitting to Xcode.</text>
  <text id="template-version" style="stroke:none;fill:black;font-family:sans-serif;font-size:13;text-anchor:end;" transform="matrix(1 0 0 1 3036 1933)">Template v.4.0</text>
  <text style="stroke:none;fill:black;font-family:sans-serif;font-size:13;text-anchor:end;" transform="matrix(1 0 0 1 3036 1951)">Requires Xcode 14 or greater</text>
  <text id="descriptive-name" style="stroke:none;fill:black;font-family:sans-serif;font-size:13;text-anchor:end;" transform="matrix(1 0 0 1 3036 1969)">Generated from reddit.fill</text>
  <text style="stroke:none;fill:black;font-family:sans-serif;font-size:13;text-anchor:end;" transform="matrix(1 0 0 1 3036 1987)">Typeset at 100 points</text>
  <text style="stroke:none;fill:black;font-family:sans-serif;font-size:13;" transform="matrix(1 0 0 1 263 726)">Small</text>
  <text style="stroke:none;fill:black;font-family:sans-serif;font-size:13;" transform="matrix(1 0 0 1 263 1156)">Medium</text>
  <text style="stroke:none;fill:black;font-family:sans-serif;font-size:13;" transform="matrix(1 0 0 1 263 1586)">Large</text>
 </g>
 <g id="Guides">
  <g id="H-reference" style="fill:#27AAE1;stroke:none;" transform="matrix(1 0 0 1 339 696)">
   <path d="M0.993654 0L3.63775 0L29.3281-67.1323L30.0303-67.1323L30.0303-70.459L28.1226-70.459ZM11.6885-24.4799L46.9815-24.4799L46.2315-26.7285L12.4385-26.7285ZM55.1196 0L57.7637 0L30.6382-70.459L29.4326-70.459L29.4326-67.1323Z"/>
  </g>
  <line id="Baseline-S" style="fill:none;stroke:#27AAE1;opacity:1;stroke-width:0.5;" x1="263" x2="3036" y1="696" y2="696"/>
  <line id="Capline-S" style="fill:none;stroke:#27AAE1;opacity:1;stroke-width:0.5;" x1="263" x2="3036" y1="625.541" y2="625.541"/>
  <g id="H-reference" style="fill:#27AAE1;stroke:none;" transform="matrix(1 0 0 1 339 1126)">
   <path d="M0.993654 0L3.63775 0L29.3281-67.1323L30.0303-67.1323L30.0303-70.459L28.1226-70.459ZM11.6885-24.4799L46.9815-24.4799L46.2315-26.7285L12.4385-26.7285ZM55.1196 0L57.7637 0L30.6382-70.459L29.4326-70.459L29.4326-67.1323Z"/>
  </g>
  <line id="Baseline-M" style="fill:none;stroke:#27AAE1;opacity:1;stroke-width:0.5;" x1="263" x2="3036" y1="1126" y2="1126"/>
  <line id="Capline-M" style="fill:none;stroke:#27AAE1;opacity:1;stroke-width:0.5;" x1="263" x2="3036" y1="1055.54" y2="1055.54"/>
  <g id="H-reference" style="fill:#27AAE1;stroke:none;" transform="matrix(1 0 0 1 339 1556)">
   <path d="M0.993654 0L3.63775 0L29.3281-67.1323L30.0303-67.1323L30.0303-70.459L28.1226-70.459ZM11.6885-24.4799L46.9815-24.4799L46.2315-26.7285L12.4385-26.7285ZM55.1196 0L57.7637 0L30.6382-70.459L29.4326-70.459L29.4326-67.1323Z"/>
  </g>
  <line id="Baseline-L" style="fill:none;stroke:#27AAE1;opacity:1;stroke-width:0.5;" x1="263" x2="3036" y1="1556" y2="1556"/>
  <line id="Capline-L" style="fill:none;stroke:#27AAE1;opacity:1;stroke-width:0.5;" x1="263" x2="3036" y1="1485.54" y2="1485.54"/>
  <line id="left-margin-Regular-M" style="fill:none;stroke:#00AEEF;stroke-width:0.5;opacity:1.0;" x1="1391.32" x2="1391.32" y1="1030.79" y2="1150.12"/>
  <line id="right-margin-Regular-M" style="fill:none;stroke:#00AEEF;stroke-width:0.5;opacity:1.0;" x1="1508.37" x2="1508.37" y1="1030.79" y2="1150.12"/>
 </g>
 <g id="Symbols">
  <g id="Black-L" transform="matrix(1 0 0 1 2856.38 1556)">
   <path class="monochrome-0 multicolor-0:custom hierarchical-0:secondary SFSymbolsPreviewFF4500" d="M76.7227-103.148C114.278-103.148 144.723-72.7034 144.723-35.148C144.723 2.40736 114.278 32.852 76.7227 32.852C39.1673 32.852 8.72266 2.40736 8.72266-35.148C8.72266-72.7034 39.1673-103.148 76.7227-103.148Z"/>
   <path class="monochrome-1 multicolor-1:white hierarchical-1:primary SFSymbolsPreviewFFFFFF" d="M105.124-76.2077C102.365-76.2077 99.9303-74.5848 98.7943-72.2315L82.3217-75.7208C81.8348-75.8019 81.348-75.7208 81.0234-75.4774C80.6176-75.2339 80.3742-74.8282 80.2931-74.3413L75.262-50.6468C64.7131-50.3222 55.2191-47.1575 48.3217-42.2077C46.5365-43.9117 44.1021-44.9666 41.4243-44.9666C35.9064-44.9666 31.5246-40.5036 31.5246-35.0669C31.5246-31.0096 33.9589-27.6015 37.3671-26.0597C37.2048-25.0859 37.1236-24.1122 37.1236-23.0573C37.1236-7.80194 54.8945 4.61333 76.8038 4.61333C98.7131 4.61333 116.484-7.72079 116.484-23.0573C116.484-24.0311 116.403-25.0859 116.241-26.0597C119.649-27.6015 122.083-31.0907 122.083-35.148C122.083-40.6659 117.62-45.0478 112.183-45.0478C109.505-45.0478 107.071-43.9929 105.286-42.2888C98.4697-47.1575 89.1379-50.3222 78.7513-50.728L83.2955-71.9881L98.0639-68.8234C98.2262-65.0907 101.31-62.0883 105.124-62.0883C109.019-62.0883 112.183-65.253 112.183-69.148C112.183-73.043 109.019-76.2077 105.124-76.2077ZM61.1427-35.148C65.0377-35.148 68.2024-31.9833 68.2024-28.0883C68.2024-24.1933 65.0377-21.0287 61.1427-21.0287C57.2477-20.9475 54.083-24.1933 54.083-28.0883C54.083-31.9833 57.2477-35.148 61.1427-35.148ZM92.3026-35.0669C96.1976-35.0669 99.3623-31.9022 99.3623-28.0072C99.3623-24.1933 96.1976-20.9475 92.3026-20.9475C88.4076-20.9475 85.2429-24.1122 85.2429-28.0072C85.2429-31.9022 88.4076-35.0669 92.3026-35.0669ZM93.6009-11.9404C94.2501-11.2101 94.2501-10.074 93.6009-9.34371C88.8176-4.56039 79.8048-4.16318 76.9508-4.15071L76.8038-4.15039C74.0449-4.15039 64.7943-4.55612 60.0067-9.34371C59.2764-10.074 59.2764-11.2101 60.0067-11.9404C60.737-12.6707 61.873-12.6707 62.6033-11.9404C65.6869-8.85683 72.1785-7.80194 76.8038-7.80194C81.4291-7.80194 88.0019-8.85683 91.0043-11.9404C91.7346-12.6707 92.8706-12.6707 93.6009-11.9404Z"/>
  </g>
  <g id="Heavy-L" transform="matrix(1 0 0 1 2560.66 1556)">
   <path class="monochrome-0 multicolor-0:custom hierarchical-0:secondary SFSymbolsPreviewFF4500" d="M75.7227-102.22C112.726-102.22 142.723-72.2231 142.723-35.22C142.723 1.78308 112.726 31.78 75.7227 31.78C38.7196 31.78 8.72266 1.78308 8.72266-35.22C8.72266-72.2231 38.7196-102.22 75.7227-102.22Z"/>
   <path class="monochrome-1 multicolor-1:white hierarchical-1:primary SFSymbolsPreviewFFFFFF" d="M103.706-75.6758C100.988-75.6758 98.589-74.0768 97.4697-71.7582L81.2394-75.1961C80.7597-75.2761 80.2799-75.1961 79.9601-74.9563C79.5604-74.7164 79.3205-74.3167 79.2406-73.8369L74.2835-50.4909C63.8897-50.1711 54.5353-47.0529 47.7394-42.1758C45.9804-43.8548 43.5818-44.8942 40.9434-44.8942C35.5067-44.8942 31.1892-40.4968 31.1892-35.14C31.1892-31.1424 33.5878-27.7844 36.9458-26.2653C36.7859-25.3059 36.706-24.3465 36.706-23.3071C36.706-8.27609 54.2155 3.95661 75.8026 3.95661C97.3897 3.95661 114.899-8.19613 114.899-23.3071C114.899-24.2665 114.819-25.3059 114.659-26.2653C118.017-27.7844 120.416-31.2224 120.416-35.22C120.416-40.6568 116.019-44.9742 110.662-44.9742C108.023-44.9742 105.625-43.9348 103.866-42.2558C97.1499-47.0529 87.9554-50.1711 77.7215-50.5708L82.1988-71.5183L96.7501-68.4002C96.91-64.7224 99.9482-61.7642 103.706-61.7642C107.544-61.7642 110.662-64.8823 110.662-68.72C110.662-72.5577 107.544-75.6758 103.706-75.6758ZM60.3718-35.22C64.2095-35.22 67.3277-32.1019 67.3277-28.2642C67.3277-24.4264 64.2095-21.3083 60.3718-21.3083C56.5341-21.2284 53.416-24.4264 53.416-28.2642C53.416-32.1019 56.5341-35.22 60.3718-35.22ZM91.0735-35.14C94.9112-35.14 98.0293-32.0219 98.0293-28.1842C98.0293-24.4264 94.9112-21.2284 91.0735-21.2284C87.2358-21.2284 84.1176-24.3465 84.1176-28.1842C84.1176-32.0219 87.2358-35.14 91.0735-35.14ZM92.3527-12.3537C92.9923-11.6341 92.9923-10.5148 92.3527-9.79518C87.6413-5.08371 78.7652-4.69108 75.9501-4.67856L75.8026-4.67824C73.0842-4.67824 63.9697-5.078 59.2525-9.79518C58.5329-10.5148 58.5329-11.6341 59.2525-12.3537C59.9721-13.0732 61.0914-13.0732 61.811-12.3537C64.8492-9.31547 71.2453-8.27609 75.8026-8.27609C80.3599-8.27609 86.836-9.31547 89.7943-12.3537C90.5138-13.0732 91.6332-13.0732 92.3527-12.3537Z"/>
  </g>
  <g id="Bold-L" transform="matrix(1 0 0 1 2265.45 1556)">
   <path class="monochrome-0 multicolor-0:custom hierarchical-0:secondary SFSymbolsPreviewFF4500" d="M74.2227-101.052C110.397-101.052 139.723-71.7267 139.723-35.552C139.723 0.622651 110.397 29.948 74.2227 29.948C38.048 29.948 8.72266 0.622651 8.72266-35.552C8.72266-71.7267 38.048-101.052 74.2227-101.052Z"/>
   <path class="monochrome-1 multicolor-1:white hierarchical-1:primary SFSymbolsPreviewFFFFFF" d="M101.579-75.1021C98.9219-75.1021 96.5771-73.5389 95.4828-71.2722L79.6159-74.6331C79.1469-74.7113 78.6779-74.6331 78.3653-74.3987C77.9744-74.1642 77.74-73.7734 77.6618-73.3044L72.8157-50.481C62.6546-50.1683 53.5097-47.12 46.8659-42.3521C45.1463-43.9935 42.8014-45.0096 40.2221-45.0096C34.907-45.0096 30.6863-40.7107 30.6863-35.4738C30.6863-31.5657 33.0311-28.2829 36.314-26.7978C36.1576-25.8599 36.0795-24.9219 36.0795-23.9058C36.0795-9.21131 53.197 2.74752 74.3008 2.74752C95.4046 2.74752 112.522-9.13315 112.522-23.9058C112.522-24.8438 112.444-25.8599 112.288-26.7978C115.571-28.2829 117.915-31.6439 117.915-35.552C117.915-40.867 113.616-45.0878 108.38-45.0878C105.8-45.0878 103.455-44.0717 101.736-42.4303C95.1702-47.12 86.1815-50.1683 76.1767-50.5592L80.5538-71.0377L94.7793-67.9893C94.9357-64.3939 97.9058-61.5019 101.579-61.5019C105.331-61.5019 108.38-64.5502 108.38-68.302C108.38-72.0538 105.331-75.1021 101.579-75.1021ZM59.2155-35.552C62.9673-35.552 66.0156-32.5037 66.0156-28.7519C66.0156-25.0001 62.9673-21.9518 59.2155-21.9518C55.4637-21.8736 52.4154-25.0001 52.4154-28.7519C52.4154-32.5037 55.4637-35.552 59.2155-35.552ZM89.2298-35.4738C92.9816-35.4738 96.0299-32.4255 96.0299-28.6737C96.0299-25.0001 92.9816-21.8736 89.2298-21.8736C85.478-21.8736 82.4297-24.9219 82.4297-28.6737C82.4297-32.4255 85.478-35.4738 89.2298-35.4738ZM90.4804-13.1976C91.1057-12.4941 91.1057-11.3999 90.4804-10.6964C85.8744-6.0904 77.1971-5.70657 74.445-5.69433L74.3008-5.69401C71.6433-5.69401 62.7328-6.08482 58.1212-10.6964C57.4178-11.3999 57.4178-12.4941 58.1212-13.1976C58.8247-13.901 59.919-13.901 60.6224-13.1976C63.5926-10.2274 69.8456-9.21131 74.3008-9.21131C78.7561-9.21131 85.0872-10.2274 87.9792-13.1976C88.6827-13.901 89.777-13.901 90.4804-13.1976Z"/>
  </g>
  <g id="Semibold-L" transform="matrix(1 0 0 1 1969.24 1556)">
   <path class="monochrome-0 multicolor-0:custom hierarchical-0:secondary SFSymbolsPreviewFF4500" d="M73.7227-100.247C109.621-100.247 138.723-71.1455 138.723-35.247C138.723 0.651509 109.621 29.753 73.7227 29.753C37.8242 29.753 8.72266 0.651509 8.72266-35.247C8.72266-71.1455 37.8242-100.247 73.7227-100.247Z"/>
   <path class="monochrome-1 multicolor-1:white hierarchical-1:primary SFSymbolsPreviewFFFFFF" d="M100.871-74.4952C98.2334-74.4952 95.9064-72.9439 94.8205-70.6945L79.0747-74.0298C78.6093-74.1074 78.1439-74.0298 77.8336-73.7971C77.4458-73.5644 77.2131-73.1766 77.1355-72.7112L72.3265-50.062C62.2429-49.7518 53.1678-46.7267 46.5747-41.9952C44.8682-43.6241 42.5413-44.6324 39.9816-44.6324C34.7071-44.6324 30.5186-40.3663 30.5186-35.1694C30.5186-31.2912 32.8456-28.0334 36.1033-26.5596C35.9482-25.6289 35.8706-24.6981 35.8706-23.6897C35.8706-9.10738 52.8575 2.76016 73.8002 2.76016C94.7429 2.76016 111.73-9.02982 111.73-23.6897C111.73-24.6205 111.652-25.6289 111.497-26.5596C114.755-28.0334 117.082-31.3687 117.082-35.247C117.082-40.5215 112.816-44.71 107.619-44.71C105.059-44.71 102.732-43.7017 101.026-42.0728C94.5102-46.7267 85.5902-49.7518 75.6618-50.1396L80.0055-70.4618L94.1224-67.4367C94.2776-63.8687 97.225-60.9988 100.871-60.9988C104.594-60.9988 107.619-64.0238 107.619-67.747C107.619-71.4701 104.594-74.4952 100.871-74.4952ZM58.8301-35.247C62.5532-35.247 65.5783-32.2219 65.5783-28.4988C65.5783-24.7756 62.5532-21.7506 58.8301-21.7506C55.1069-21.673 52.0818-24.7756 52.0818-28.4988C52.0818-32.2219 55.1069-35.247 58.8301-35.247ZM88.6153-35.1694C92.3384-35.1694 95.3635-32.1444 95.3635-28.4212C95.3635-24.7756 92.3384-21.673 88.6153-21.673C84.8921-21.673 81.8671-24.6981 81.8671-28.4212C81.8671-32.1444 84.8921-35.1694 88.6153-35.1694ZM89.8563-13.0632C90.4768-12.3651 90.4768-11.2792 89.8563-10.5811C85.2024-5.92719 76.3599-5.61693 73.8002-5.61693C71.163-5.61693 62.3205-6.00476 57.7441-10.5811C57.046-11.2792 57.046-12.3651 57.7441-13.0632C58.4422-13.7613 59.5281-13.7613 60.2262-13.0632C63.1737-10.1157 69.379-9.10738 73.8002-9.10738C78.2215-9.10738 84.5043-10.1157 87.3742-13.0632C88.0723-13.7613 89.1582-13.7613 89.8563-13.0632Z"/>
  </g>
  <g id="Medium-L" transform="matrix(1 0 0 1 1673.03 1556)">
   <path class="monochrome-0 multicolor-0:custom hierarchical-0:secondary SFSymbolsPreviewFF4500" d="M73.2227-99.637C108.845-99.637 137.723-70.7594 137.723-35.137C137.723 0.485366 108.845 29.363 73.2227 29.363C37.6003 29.363 8.72266 0.485366 8.72266-35.137C8.72266-70.7594 37.6003-99.637 73.2227-99.637Z"/>
   <path class="monochrome-1 multicolor-1:white hierarchical-1:primary SFSymbolsPreviewFFFFFF" d="M100.162-74.0833C97.5449-74.0833 95.2358-72.5439 94.1582-70.3118L78.5335-73.6215C78.0717-73.6985 77.6099-73.6215 77.302-73.3906C76.9172-73.1597 76.6863-72.7748 76.6093-72.313L71.8372-49.8381C61.8313-49.5302 52.8259-46.5284 46.2835-41.8333C44.5902-43.4496 42.2811-44.4502 39.7412-44.4502C34.5073-44.4502 30.3509-40.217 30.3509-35.06C30.3509-31.2116 32.66-27.9789 35.8927-26.5165C35.7388-25.5928 35.6618-24.6692 35.6618-23.6686C35.6618-9.19846 52.518 2.5778 73.2996 2.5778C94.0813 2.5778 110.937-9.12149 110.937-23.6686C110.937-24.5923 110.86-25.5928 110.707-26.5165C113.939-27.9789 116.248-31.2886 116.248-35.137C116.248-40.3709 112.015-44.5272 106.858-44.5272C104.318-44.5272 102.009-43.5266 100.316-41.9103C93.8503-46.5284 84.9989-49.5302 75.1469-49.915L79.4571-70.0809L93.4655-67.0791C93.6194-63.5386 96.5443-60.6907 100.162-60.6907C103.856-60.6907 106.858-63.6925 106.858-67.387C106.858-71.0815 103.856-74.0833 100.162-74.0833ZM58.4446-35.137C62.1391-35.137 65.1409-32.1352 65.1409-28.4407C65.1409-24.7462 62.1391-21.7444 58.4446-21.7444C54.7501-21.6674 51.7483-24.7462 51.7483-28.4407C51.7483-32.1352 54.7501-35.137 58.4446-35.137ZM88.0007-35.06C91.6952-35.06 94.697-32.0582 94.697-28.3637C94.697-24.7462 91.6952-21.6674 88.0007-21.6674C84.3062-21.6674 81.3044-24.6692 81.3044-28.3637C81.3044-32.0582 84.3062-35.06 88.0007-35.06ZM59.8301-13.1239C62.7549-10.1991 68.9124-9.19846 73.2996-9.19846C77.6869-9.19846 83.9213-10.1991 86.7692-13.1239C87.4619-13.8166 88.5395-13.8166 89.2322-13.1239C89.848-12.4312 89.848-11.3536 89.2322-10.6609C84.6141-6.04273 75.8396-5.73485 73.2996-5.73485C70.6827-5.73485 61.9082-6.1197 57.3671-10.6609C56.6743-11.3536 56.6743-12.4312 57.3671-13.1239C58.0598-13.8166 59.1373-13.8166 59.8301-13.1239Z"/>
  </g>
  <g id="Regular-L" transform="matrix(1 0 0 1 1377.32 1556)">
   <path class="monochrome-0 multicolor-0:custom hierarchical-0:secondary SFSymbolsPreviewFF4500" d="M72.2227-98.8411C107.293-98.8411 135.723-70.4112 135.723-35.3411C135.723-0.271018 107.293 28.1589 72.2227 28.1589C37.1526 28.1589 8.72266-0.271018 8.72266-35.3411C8.72266-70.4112 37.1526-98.8411 72.2227-98.8411Z"/>
   <path class="monochrome-1 multicolor-1:white hierarchical-1:primary SFSymbolsPreviewFFFFFF" d="M98.7441-73.6836C96.1678-73.6836 93.8945-72.1681 92.8336-69.9706L77.4512-73.2289C76.9965-73.3047 76.5419-73.2289 76.2388-73.0016C75.8599-72.7743 75.6326-72.3954 75.5568-71.9407L70.8587-49.8142C61.0079-49.5111 52.1421-46.5559 45.7012-41.9336C44.0341-43.5249 41.7608-44.51 39.2603-44.51C34.1075-44.51 30.0156-40.3423 30.0156-35.2653C30.0156-31.4765 32.2889-28.294 35.4715-26.8542C35.3199-25.9449 35.2441-25.0356 35.2441-24.0505C35.2441-9.8047 51.839 1.78897 72.2984 1.78897C92.7579 1.78897 109.353-9.72893 109.353-24.0505C109.353-24.9598 109.277-25.9449 109.125-26.8542C112.308-28.294 114.581-31.5523 114.581-35.3411C114.581-40.4938 110.414-44.5857 105.337-44.5857C102.836-44.5857 100.563-43.6006 98.8957-42.0094C92.5305-46.5559 83.8163-49.5111 74.1171-49.89L78.3605-69.7432L92.1517-66.788C92.3032-63.3023 95.1827-60.4986 98.7441-60.4986C102.381-60.4986 105.337-63.4539 105.337-67.0911C105.337-70.7283 102.381-73.6836 98.7441-73.6836ZM57.6737-35.3411C61.311-35.3411 64.2662-32.3858 64.2662-28.7486C64.2662-25.1114 61.311-22.1561 57.6737-22.1561C54.0365-22.0804 51.0813-25.1114 51.0813-28.7486C51.0813-32.3858 54.0365-35.3411 57.6737-35.3411ZM86.7716-35.2653C90.4088-35.2653 93.3641-32.3101 93.3641-28.6728C93.3641-25.1114 90.4088-22.0804 86.7716-22.0804C83.1344-22.0804 80.1791-25.0356 80.1791-28.6728C80.1791-32.3101 83.1344-35.2653 86.7716-35.2653ZM59.0377-13.6693C61.9172-10.7898 67.9792-9.8047 72.2984-9.8047C76.6176-9.8047 82.7555-10.7898 85.5592-13.6693C86.2412-14.3512 87.302-14.3512 87.984-13.6693C88.5902-12.9873 88.5902-11.9264 87.984-11.2444C83.4375-6.6979 74.799-6.3948 72.2984-6.3948C69.7221-6.3948 61.0836-6.77368 56.6129-11.2444C55.9309-11.9264 55.9309-12.9873 56.6129-13.6693C57.2949-14.3512 58.3557-14.3512 59.0377-13.6693Z"/>
  </g>
  <g id="Light-L" transform="matrix(1 0 0 1 1081.61 1556)">
   <path class="monochrome-0 multicolor-0:custom hierarchical-0:secondary SFSymbolsPreviewFF4500" d="M71.2227-97.925C105.74-97.925 133.723-69.9428 133.723-35.425C133.723-0.907203 105.74 27.075 71.2227 27.075C36.7049 27.075 8.72266-0.907203 8.72266-35.425C8.72266-69.9428 36.7049-97.925 71.2227-97.925Z"/>
   <path class="monochrome-1 multicolor-1:white hierarchical-1:primary SFSymbolsPreviewFFFFFF" d="M97.3265-73.1637C94.7907-73.1637 92.5532-71.672 91.5091-69.5091L76.3688-72.7162C75.9213-72.7908 75.4739-72.7162 75.1755-72.4924C74.8026-72.2687 74.5789-71.8958 74.5043-71.4483L69.8802-49.6702C60.1845-49.3719 51.4583-46.4632 45.1188-41.9137C43.478-43.4799 41.2406-44.4495 38.7793-44.4495C33.7077-44.4495 29.6803-40.3474 29.6803-35.3504C29.6803-31.6213 31.9178-28.4888 35.0502-27.0718C34.9011-26.1768 34.8265-25.2818 34.8265-24.3122C34.8265-10.2908 51.16 1.12034 71.2972 1.12034C91.4345 1.12034 107.768-10.2162 107.768-24.3122C107.768-25.2072 107.693-26.1768 107.544-27.0718C110.677-28.4888 112.914-31.6959 112.914-35.425C112.914-40.4966 108.812-44.524 103.815-44.524C101.354-44.524 99.1165-43.5545 97.4756-41.9882C91.2107-46.4632 82.6338-49.3719 73.0872-49.7448L77.2638-69.2854L90.8378-66.3767C90.987-62.9459 93.8211-60.1863 97.3265-60.1863C100.906-60.1863 103.815-63.095 103.815-66.675C103.815-70.255 100.906-73.1637 97.3265-73.1637ZM56.9029-35.425C60.4828-35.425 63.3915-32.5163 63.3915-28.9363C63.3915-25.3564 60.4828-22.4477 56.9029-22.4477C53.3229-22.3731 50.4142-25.3564 50.4142-28.9363C50.4142-32.5163 53.3229-35.425 56.9029-35.425ZM85.5425-35.3504C89.1224-35.3504 92.0311-32.4417 92.0311-28.8618C92.0311-25.3564 89.1224-22.3731 85.5425-22.3731C81.9625-22.3731 79.0538-25.2818 79.0538-28.8618C79.0538-32.4417 81.9625-35.3504 85.5425-35.3504ZM58.2453-14.0945C61.0795-11.2603 67.046-10.2908 71.2972-10.2908C75.5484-10.2908 81.5896-11.2603 84.3492-14.0945C85.0204-14.7657 86.0645-14.7657 86.7358-14.0945C87.3324-13.4232 87.3324-12.3791 86.7358-11.7078C82.3437-7.31575 74.072-6.94703 71.4401-6.93488L71.2972-6.93455C68.7614-6.93455 60.2591-7.30746 55.8587-11.7078C55.1875-12.3791 55.1875-13.4232 55.8587-14.0945C56.5299-14.7657 57.5741-14.7657 58.2453-14.0945Z"/>
  </g>
  <g id="Thin-L" transform="matrix(1 0 0 1 785.897 1556)">
   <path class="monochrome-0 multicolor-0:custom hierarchical-0:secondary SFSymbolsPreviewFF4500" d="M70.2227-96.7134C104.188-96.7134 131.723-69.1789 131.723-35.2134C131.723-1.24789 104.188 26.2866 70.2227 26.2866C36.2571 26.2866 8.72266-1.24789 8.72266-35.2134C8.72266-69.1789 36.2571-96.7134 70.2227-96.7134Z"/>
   <path class="monochrome-1 multicolor-1:white hierarchical-1:primary SFSymbolsPreviewFFFFFF" d="M95.9088-72.3482C93.4136-72.3482 91.2119-70.8805 90.1845-68.7522L75.2865-71.9079C74.8462-71.9813 74.4058-71.9079 74.1123-71.6877C73.7453-71.4676 73.5252-71.1006 73.4518-70.6603L68.9017-49.2307C59.3611-48.9371 50.7746-46.075 44.5365-41.5982C42.9219-43.1394 40.7203-44.0935 38.2984-44.0935C33.308-44.0935 29.345-40.0571 29.345-35.14C29.345-31.4706 31.5466-28.3882 34.629-26.9938C34.4822-26.1132 34.4088-25.2325 34.4088-24.2784C34.4088-10.4813 50.481 0.747219 70.296 0.747219C90.1111 0.747219 106.183-10.4079 106.183-24.2784C106.183-25.1591 106.11-26.1132 105.963-26.9938C109.045-28.3882 111.247-31.5439 111.247-35.2134C111.247-40.2039 107.211-44.1669 102.294-44.1669C99.8718-44.1669 97.6702-43.2128 96.0556-41.6716C89.8909-46.075 81.4512-48.9371 72.0574-49.3041L76.1672-68.532L89.524-65.6698C89.6708-62.2939 92.4595-59.5786 95.9088-59.5786C99.4315-59.5786 102.294-62.4407 102.294-65.9634C102.294-69.4861 99.4315-72.3482 95.9088-72.3482ZM56.132-35.2134C59.6546-35.2134 62.5168-32.3512 62.5168-28.8286C62.5168-25.3059 59.6546-22.4437 56.132-22.4437C52.6093-22.3703 49.7471-25.3059 49.7471-28.8286C49.7471-32.3512 52.6093-35.2134 56.132-35.2134ZM84.3134-35.14C87.836-35.14 90.6982-32.2778 90.6982-28.7552C90.6982-25.3059 87.836-22.3703 84.3134-22.3703C80.7907-22.3703 77.9285-25.2325 77.9285-28.7552C77.9285-32.2778 80.7907-35.14 84.3134-35.14ZM57.453-14.2241C60.2418-11.4354 66.1129-10.4813 70.296-10.4813C74.4792-10.4813 80.4237-11.4354 83.1391-14.2241C83.7996-14.8846 84.8271-14.8846 85.4876-14.2241C86.0747-13.5636 86.0747-12.5362 85.4876-11.8757C81.1658-7.55389 73.0264-7.19108 70.4366-7.17912L70.296-7.17879C67.8008-7.17879 59.4345-7.54574 55.1045-11.8757C54.444-12.5362 54.444-13.5636 55.1045-14.2241C55.765-14.8846 56.7925-14.8846 57.453-14.2241Z"/>
  </g>
  <g id="Ultralight-L" transform="matrix(1 0 0 1 489.686 1556)">
   <path class="monochrome-0 multicolor-0:custom hierarchical-0:secondary SFSymbolsPreviewFF4500" d="M69.7227-96.0928C103.412-96.0928 130.723-68.7822 130.723-35.0928C130.723-1.40343 103.412 25.9072 69.7227 25.9072C36.0333 25.9072 8.72266-1.40343 8.72266-35.0928C8.72266-68.7822 36.0333-96.0928 69.7227-96.0928Z"/>
   <path class="monochrome-1 multicolor-1:white hierarchical-1:primary SFSymbolsPreviewFFFFFF" d="M95.2-71.9257C92.725-71.9257 90.5413-70.4699 89.5222-68.3589L74.7453-71.489C74.3086-71.5618 73.8718-71.489 73.5807-71.2706C73.2167-71.0522 72.9983-70.6883 72.9255-70.2515L68.4124-48.9961C58.9494-48.705 50.4327-45.8661 44.2453-41.4257C42.6439-42.9544 40.4601-43.9007 38.058-43.9007C33.1081-43.9007 29.1773-39.8971 29.1773-35.02C29.1773-31.3804 31.3611-28.3231 34.4184-26.9401C34.2728-26.0665 34.2-25.193 34.2-24.2467C34.2-10.5618 50.1415 0.575457 69.7955 0.575457C89.4494 0.575457 105.391-10.489 105.391-24.2467C105.391-25.1202 105.318-26.0665 105.173-26.9401C108.23-28.3231 110.414-31.4532 110.414-35.0928C110.414-40.0427 106.41-43.9735 101.533-43.9735C99.1308-43.9735 96.947-43.0272 95.3456-41.4985C89.231-45.8661 80.8599-48.705 71.5425-49.0689L75.6188-68.1405L88.8671-65.3016C89.0126-61.9532 91.7787-59.2599 95.2-59.2599C98.694-59.2599 101.533-62.0988 101.533-65.5928C101.533-69.0868 98.694-71.9257 95.2-71.9257ZM55.7465-35.0928C59.2406-35.0928 62.0795-32.2539 62.0795-28.7599C62.0795-25.2658 59.2406-22.4269 55.7465-22.4269C52.2525-22.3541 49.4136-25.2658 49.4136-28.7599C49.4136-32.2539 52.2525-35.0928 55.7465-35.0928ZM83.6988-35.02C87.1928-35.02 90.0317-32.1811 90.0317-28.6871C90.0317-25.2658 87.1928-22.3541 83.6988-22.3541C80.2048-22.3541 77.3659-25.193 77.3659-28.6871C77.3659-32.1811 80.2048-35.02 83.6988-35.02ZM57.0568-14.2742C59.8229-11.5081 65.6463-10.5618 69.7955-10.5618C73.9446-10.5618 79.8408-11.5081 82.5341-14.2742C83.1892-14.9293 84.2083-14.9293 84.8635-14.2742C85.4458-13.6191 85.4458-12.6 84.8635-11.9448C80.5768-7.65817 72.5036-7.2983 69.9349-7.28644L69.7955-7.28612C67.3205-7.28612 59.0222-7.65008 54.7274-11.9448C54.0723-12.6 54.0723-13.6191 54.7274-14.2742C55.3826-14.9293 56.4017-14.9293 57.0568-14.2742Z"/>
  </g>
  <g id="Black-M" transform="matrix(1 0 0 1 2871.38 1126)">
   <path class="monochrome-0 multicolor-0:custom hierarchical-0:secondary SFSymbolsPreviewFF4500" d="M61.7227-88.5231C90.9938-88.5231 114.723-64.7942 114.723-35.5231C114.723-6.25201 90.9938 17.4769 61.7227 17.4769C32.4516 17.4769 8.72266-6.25201 8.72266-35.5231C8.72266-64.7942 32.4516-88.5231 61.7227-88.5231Z"/>
   <path class="monochrome-1 multicolor-1:white hierarchical-1:primary SFSymbolsPreviewFFFFFF" d="M83.8587-67.5255C81.7083-67.5255 79.811-66.2606 78.9255-64.4264L66.0866-67.146C65.7071-67.2093 65.3277-67.146 65.0747-66.9563C64.7585-66.7665 64.5687-66.4503 64.5055-66.0708L60.5842-47.6031C52.3623-47.3501 44.9625-44.8835 39.5866-41.0255C38.1952-42.3536 36.2978-43.1758 34.2107-43.1758C29.91-43.1758 26.4947-39.6973 26.4947-35.4599C26.4947-32.2976 28.3921-29.6412 31.0484-28.4396C30.9219-27.6806 30.8587-26.9217 30.8587-26.0995C30.8587-14.2093 44.7095-4.53265 61.7859-4.53265C78.8623-4.53265 92.7131-14.146 92.7131-26.0995C92.7131-26.8584 92.6499-27.6806 92.5234-28.4396C95.1797-29.6412 97.0771-32.3608 97.0771-35.5231C97.0771-39.8238 93.5986-43.2391 89.3611-43.2391C87.274-43.2391 85.3766-42.4169 83.9852-41.0887C78.6725-44.8835 71.3993-47.3501 63.3038-47.6663L66.8456-64.2367L78.3563-61.7701C78.4828-58.8608 80.8861-56.5207 83.8587-56.5207C86.8945-56.5207 89.3611-58.9873 89.3611-62.0231C89.3611-65.0589 86.8945-67.5255 83.8587-67.5255ZM49.5795-35.5231C52.6153-35.5231 55.0818-33.0565 55.0818-30.0207C55.0818-26.9849 52.6153-24.5183 49.5795-24.5183C46.5437-24.4551 44.0771-26.9849 44.0771-30.0207C44.0771-33.0565 46.5437-35.5231 49.5795-35.5231ZM73.8659-35.4599C76.9017-35.4599 79.3682-32.9933 79.3682-29.9575C79.3682-26.9849 76.9017-24.4551 73.8659-24.4551C70.8301-24.4551 68.3635-26.9217 68.3635-29.9575C68.3635-32.9933 70.8301-35.4599 73.8659-35.4599ZM74.8778-17.4348C75.3838-16.8656 75.3838-15.9801 74.8778-15.4109C71.1605-11.6936 64.1659-11.375 61.92-11.3635L61.7859-11.3632C59.6355-11.3632 52.4255-11.6794 48.694-15.4109C48.1248-15.9801 48.1248-16.8656 48.694-17.4348C49.2632-18.004 50.1487-18.004 50.7179-17.4348C53.1212-15.0315 58.1809-14.2093 61.7859-14.2093C65.3909-14.2093 70.5138-15.0315 72.8539-17.4348C73.4231-18.004 74.3086-18.004 74.8778-17.4348Z"/>
  </g>
  <g id="Heavy-M" transform="matrix(1 0 0 1 2575.16 1126)">
   <path class="monochrome-0 multicolor-0:custom hierarchical-0:secondary SFSymbolsPreviewFF4500" d="M61.2227-87.6997C90.2176-87.6997 113.723-64.1946 113.723-35.1997C113.723-6.20475 90.2176 17.3003 61.2227 17.3003C32.2277 17.3003 8.72266-6.20475 8.72266-35.1997C8.72266-64.1946 32.2277-87.6997 61.2227-87.6997Z"/>
   <path class="monochrome-1 multicolor-1:white hierarchical-1:primary SFSymbolsPreviewFFFFFF" d="M83.1499-66.9002C81.0198-66.9002 79.1403-65.6472 78.2632-63.8304L65.5455-66.5243C65.1696-66.5869 64.7937-66.5243 64.5431-66.3363C64.2298-66.1484 64.0419-65.8351 63.9792-65.4592L60.095-47.1657C51.9506-46.9151 44.6206-44.4718 39.2955-40.6502C37.9172-41.9658 36.0377-42.7802 33.9703-42.7802C29.7101-42.7802 26.3271-39.3345 26.3271-35.1371C26.3271-32.0046 28.2066-29.3733 30.8378-28.183C30.7125-27.4312 30.6499-26.6794 30.6499-25.865C30.6499-14.0869 44.37-4.50161 61.2853-4.50161C78.2006-4.50161 91.9207-14.0243 91.9207-25.865C91.9207-26.6168 91.8581-27.4312 91.7328-28.183C94.3641-29.3733 96.2435-32.0672 96.2435-35.1997C96.2435-39.4598 92.7978-42.8429 88.6003-42.8429C86.5329-42.8429 84.6534-42.0285 83.2752-40.7128C78.0126-44.4718 70.808-46.9151 62.7889-47.2283L66.2972-63.6424L77.6994-61.1991C77.8247-58.3172 80.2054-55.9992 83.1499-55.9992C86.157-55.9992 88.6003-58.4425 88.6003-61.4497C88.6003-64.4569 86.157-66.9002 83.1499-66.9002ZM49.194-35.1997C52.2012-35.1997 54.6445-32.7564 54.6445-29.7492C54.6445-26.7421 52.2012-24.2987 49.194-24.2987C46.1869-24.2361 43.7435-26.7421 43.7435-29.7492C43.7435-32.7564 46.1869-35.1997 49.194-35.1997ZM73.2513-35.1371C76.2585-35.1371 78.7018-32.6937 78.7018-29.6866C78.7018-26.7421 76.2585-24.2361 73.2513-24.2361C70.2441-24.2361 67.8008-26.6794 67.8008-29.6866C67.8008-32.6937 70.2441-35.1371 73.2513-35.1371ZM74.2537-17.282C74.7549-16.7182 74.7549-15.8411 74.2537-15.2773C70.573-11.5966 63.6488-11.2797 61.4211-11.2681L61.2853-11.2677C59.1552-11.2677 52.0132-11.581 48.3169-15.2773C47.7531-15.8411 47.7531-16.7182 48.3169-17.282C48.8808-17.8459 49.7579-17.8459 50.3217-17.282C52.7024-14.9014 57.7143-14.0869 61.2853-14.0869C64.8563-14.0869 69.9309-14.9014 72.2489-17.282C72.8128-17.8459 73.6898-17.8459 74.2537-17.282Z"/>
  </g>
  <g id="Bold-M" transform="matrix(1 0 0 1 2279.45 1126)">
   <path class="monochrome-0 multicolor-0:custom hierarchical-0:secondary SFSymbolsPreviewFF4500" d="M60.2227-86.7786C88.6653-86.7786 111.723-63.7213 111.723-35.2786C111.723-6.83594 88.6653 16.2214 60.2227 16.2214C31.78 16.2214 8.72266-6.83594 8.72266-35.2786C8.72266-63.7213 31.78-86.7786 60.2227-86.7786Z"/>
   <path class="monochrome-1 multicolor-1:white hierarchical-1:primary SFSymbolsPreviewFFFFFF" d="M81.7322-66.3753C79.6427-66.3753 77.799-65.1461 76.9386-63.3639L64.4631-66.0065C64.0944-66.068 63.7256-66.0065 63.4798-65.8222C63.1725-65.6378 62.9882-65.3305 62.9267-64.9618L59.1165-47.0167C51.1272-46.7708 43.9369-44.3741 38.7131-40.6253C37.3611-41.9158 35.5174-42.7148 33.4894-42.7148C29.3104-42.7148 25.9918-39.3347 25.9918-35.2171C25.9918-32.1444 27.8354-29.5632 30.4166-28.3955C30.2937-27.6581 30.2322-26.9206 30.2322-26.1217C30.2322-14.568 43.691-5.16524 60.2841-5.16524C76.8772-5.16524 90.336-14.5065 90.336-26.1217C90.336-26.8591 90.2746-27.6581 90.1517-28.3955C92.7328-29.5632 94.5765-32.2058 94.5765-35.2786C94.5765-39.4576 91.1964-42.7762 87.0789-42.7762C85.0508-42.7762 83.2071-41.9773 81.8551-40.6867C76.6928-44.3741 69.6254-46.7708 61.7591-47.0781L65.2006-63.1796L76.3855-60.7828C76.5085-57.9558 78.8438-55.6819 81.7322-55.6819C84.6821-55.6819 87.0789-58.0787 87.0789-61.0286C87.0789-63.9785 84.6821-66.3753 81.7322-66.3753ZM48.4231-35.2786C51.373-35.2786 53.7698-32.8818 53.7698-29.9319C53.7698-26.9821 51.373-24.5853 48.4231-24.5853C45.4733-24.5238 43.0765-26.9821 43.0765-29.9319C43.0765-32.8818 45.4733-35.2786 48.4231-35.2786ZM72.0222-35.2171C74.9721-35.2171 77.3688-32.8204 77.3688-29.8705C77.3688-26.9821 74.9721-24.5238 72.0222-24.5238C69.0723-24.5238 66.6755-26.9206 66.6755-29.8705C66.6755-32.8204 69.0723-35.2171 72.0222-35.2171ZM73.0055-17.7022C73.4971-17.1491 73.4971-16.2887 73.0055-15.7356C69.3181-12.0483 62.3122-11.8025 60.2841-11.8025C58.1946-11.8025 51.1887-12.1097 47.5628-15.7356C47.0097-16.2887 47.0097-17.1491 47.5628-17.7022C48.1159-18.2553 48.9762-18.2553 49.5293-17.7022C51.8647-15.3669 56.7811-14.568 60.2841-14.568C63.7871-14.568 68.765-15.3669 71.0389-17.7022C71.592-18.2553 72.4524-18.2553 73.0055-17.7022Z"/>
  </g>
  <g id="Semibold-M" transform="matrix(1 0 0 1 1983.24 1126)">
   <path class="monochrome-0 multicolor-0:custom hierarchical-0:secondary SFSymbolsPreviewFF4500" d="M59.7227-86.1436C87.8892-86.1436 110.723-63.3101 110.723-35.1436C110.723-6.97708 87.8892 15.8564 59.7227 15.8564C31.5561 15.8564 8.72266-6.97708 8.72266-35.1436C8.72266-63.3101 31.5561-86.1436 59.7227-86.1436Z"/>
   <path class="monochrome-1 multicolor-1:white hierarchical-1:primary SFSymbolsPreviewFFFFFF" d="M81.0234-65.9383C78.9542-65.9383 77.1284-64.7212 76.2764-62.9562L63.9219-65.5732C63.5568-65.6341 63.1916-65.5732 62.9482-65.3906C62.6439-65.208 62.4613-64.9037 62.4005-64.5386L58.6272-46.7677C50.7155-46.5243 43.595-44.1508 38.4219-40.4383C37.083-41.7164 35.2573-42.5076 33.2489-42.5076C29.1105-42.5076 25.8241-39.1603 25.8241-35.0827C25.8241-32.0398 27.6499-29.4837 30.206-28.3274C30.0842-27.5971 30.0234-26.8668 30.0234-26.0756C30.0234-14.6341 43.3515-5.3226 59.7835-5.3226C76.2155-5.3226 89.5437-14.5732 89.5437-26.0756C89.5437-26.8059 89.4828-27.5971 89.3611-28.3274C91.9172-29.4837 93.7429-32.1006 93.7429-35.1436C93.7429-39.282 90.3957-42.5684 86.3181-42.5684C84.3098-42.5684 82.484-41.7773 81.1451-40.4992C76.0329-44.1508 69.0341-46.5243 61.2441-46.8286L64.6523-62.7737L75.7286-60.4002C75.8503-57.6006 78.163-55.3488 81.0234-55.3488C83.9446-55.3488 86.3181-57.7224 86.3181-60.6436C86.3181-63.5648 83.9446-65.9383 81.0234-65.9383ZM48.0377-35.1436C50.9589-35.1436 53.3324-32.7701 53.3324-29.8489C53.3324-26.9276 50.9589-24.5541 48.0377-24.5541C45.1165-24.4932 42.7429-26.9276 42.7429-29.8489C42.7429-32.7701 45.1165-35.1436 48.0377-35.1436ZM71.4076-35.0827C74.3289-35.0827 76.7024-32.7092 76.7024-29.788C76.7024-26.9276 74.3289-24.4932 71.4076-24.4932C68.4864-24.4932 66.1129-26.8668 66.1129-29.788C66.1129-32.7092 68.4864-35.0827 71.4076-35.0827ZM72.3814-17.7379C72.8682-17.1901 72.8682-16.3381 72.3814-15.7904C68.7298-12.1388 61.7919-11.8954 59.7835-11.8954C57.7143-11.8954 50.7764-12.1997 47.1857-15.7904C46.6379-16.3381 46.6379-17.1901 47.1857-17.7379C47.7334-18.2856 48.5854-18.2856 49.1332-17.7379C51.4458-15.4252 56.3145-14.6341 59.7835-14.6341C63.2525-14.6341 68.1821-15.4252 70.4339-17.7379C70.9816-18.2856 71.8336-18.2856 72.3814-17.7379Z"/>
  </g>
  <g id="Medium-M" transform="matrix(1 0 0 1 1687.03 1126)">
   <path class="monochrome-0 multicolor-0:custom hierarchical-0:secondary SFSymbolsPreviewFF4500" d="M59.2227-85.6621C87.113-85.6621 109.723-63.0525 109.723-35.1621C109.723-7.27172 87.113 15.3379 59.2227 15.3379C31.3323 15.3379 8.72266-7.27172 8.72266-35.1621C8.72266-63.0525 31.3323-85.6621 59.2227-85.6621Z"/>
   <path class="monochrome-1 multicolor-1:white hierarchical-1:primary SFSymbolsPreviewFFFFFF" d="M80.3145-65.6549C78.2656-65.6549 76.4577-64.4497 75.6141-62.7021L63.3808-65.2934C63.0192-65.3536 62.6576-65.2934 62.4166-65.1126C62.1153-64.9318 61.9345-64.6305 61.8742-64.2689L58.1379-46.6722C50.3038-46.4312 43.2531-44.081 38.1308-40.4049C36.805-41.6705 34.9971-42.4539 33.0085-42.4539C28.9106-42.4539 25.6564-39.1394 25.6564-35.1018C25.6564-32.0887 27.4643-29.5577 29.9953-28.4127C29.8748-27.6895 29.8145-26.9664 29.8145-26.183C29.8145-14.8536 43.012-5.63346 59.2829-5.63346C75.5538-5.63346 88.7513-14.7934 88.7513-26.183C88.7513-26.9061 88.691-27.6895 88.5705-28.4127C91.1015-29.5577 92.9094-32.149 92.9094-35.1621C92.9094-39.26 89.595-42.5141 85.5574-42.5141C83.5687-42.5141 81.7608-41.7307 80.4351-40.4652C75.373-44.081 68.4428-46.4312 60.7292-46.7325L64.1039-62.5213L75.0717-60.171C75.1922-57.399 77.4822-55.1693 80.3145-55.1693C83.2071-55.1693 85.5574-57.5195 85.5574-60.4121C85.5574-63.3047 83.2071-65.6549 80.3145-65.6549ZM47.6523-35.1621C50.5449-35.1621 52.8951-32.8119 52.8951-29.9193C52.8951-27.0267 50.5449-24.6764 47.6523-24.6764C44.7597-24.6162 42.4094-27.0267 42.4094-29.9193C42.4094-32.8119 44.7597-35.1621 47.6523-35.1621ZM70.7931-35.1018C73.6857-35.1018 76.0359-32.7516 76.0359-29.859C76.0359-27.0267 73.6857-24.6162 70.7931-24.6162C67.9005-24.6162 65.5502-26.9664 65.5502-29.859C65.5502-32.7516 67.9005-35.1018 70.7931-35.1018ZM48.737-17.927C51.027-15.637 55.848-14.8536 59.2829-14.8536C62.7179-14.8536 67.5992-15.637 69.8289-17.927C70.3712-18.4694 71.2149-18.4694 71.7573-17.927C72.2394-17.3847 72.2394-16.541 71.7573-15.9986C68.1415-12.3829 61.2716-12.1418 59.2829-12.1418C57.234-12.1418 50.3641-12.4431 46.8086-15.9986C46.2662-16.541 46.2662-17.3847 46.8086-17.927C47.3509-18.4694 48.1946-18.4694 48.737-17.927Z"/>
  </g>
  <g id="Regular-M" transform="matrix(1 0 0 1 1391.32 1126)">
   <path class="monochrome-0 multicolor-0:custom hierarchical-0:secondary SFSymbolsPreviewFF4500" d="M58.2227-85.0341C85.5608-85.0341 107.723-62.8722 107.723-35.5341C107.723-8.196 85.5608 13.9659 58.2227 13.9659C30.8846 13.9659 8.72266-8.196 8.72266-35.5341C8.72266-62.8722 30.8846-85.0341 58.2227-85.0341Z"/>
   <path class="monochrome-1 multicolor-1:white hierarchical-1:primary SFSymbolsPreviewFFFFFF" d="M78.8969-65.4231C76.8885-65.4231 75.1165-64.2417 74.2895-62.5287L62.2984-65.0687C61.944-65.1278 61.5896-65.0687 61.3533-64.8915C61.058-64.7143 60.8808-64.4189 60.8217-64.0645L57.1594-46.8163C49.4804-46.58 42.5693-44.2763 37.5484-40.6731C36.2489-41.9136 34.4768-42.6815 32.5276-42.6815C28.5108-42.6815 25.3211-39.4327 25.3211-35.475C25.3211-32.5216 27.0932-30.0407 29.5741-28.9183C29.456-28.2095 29.3969-27.5007 29.3969-26.7328C29.3969-15.6278 42.333-6.59019 58.2817-6.59019C74.2304-6.59019 87.1666-15.5687 87.1666-26.7328C87.1666-27.4416 87.1075-28.2095 86.9894-28.9183C89.4703-30.0407 91.2423-32.5806 91.2423-35.5341C91.2423-39.5508 87.9935-42.7405 84.0359-42.7405C82.0866-42.7405 80.3145-41.9726 79.015-40.7322C74.0532-44.2763 67.2602-46.58 59.6994-46.8754L63.0073-62.3515L73.7579-60.0478C73.876-57.3306 76.1206-55.1451 78.8969-55.1451C81.7322-55.1451 84.0359-57.4488 84.0359-60.2841C84.0359-63.1194 81.7322-65.4231 78.8969-65.4231ZM46.8814-35.5341C49.7167-35.5341 52.0204-33.2304 52.0204-30.3951C52.0204-27.5598 49.7167-25.2561 46.8814-25.2561C44.046-25.197 41.7424-27.5598 41.7424-30.3951C41.7424-33.2304 44.046-35.5341 46.8814-35.5341ZM69.5639-35.475C72.3993-35.475 74.703-33.1713 74.703-30.336C74.703-27.5598 72.3993-25.197 69.5639-25.197C66.7286-25.197 64.4249-27.5007 64.4249-30.336C64.4249-33.1713 66.7286-35.475 69.5639-35.475ZM47.9446-18.6403C50.1892-16.3957 54.9148-15.6278 58.2817-15.6278C61.6487-15.6278 66.4333-16.3957 68.6188-18.6403C69.1505-19.1719 69.9774-19.1719 70.5091-18.6403C70.9816-18.1087 70.9816-17.2817 70.5091-16.7501C66.9649-13.2059 60.231-12.9697 58.2817-12.9697C56.2734-12.9697 49.5395-13.265 46.0544-16.7501C45.5228-17.2817 45.5228-18.1087 46.0544-18.6403C46.586-19.1719 47.413-19.1719 47.9446-18.6403Z"/>
  </g>
  <g id="Light-M" transform="matrix(1 0 0 1 1095.11 1126)">
   <path class="monochrome-0 multicolor-0:custom hierarchical-0:secondary SFSymbolsPreviewFF4500" d="M57.7227-84.2128C84.7846-84.2128 106.723-62.2748 106.723-35.2128C106.723-8.15085 84.7846 13.7872 57.7227 13.7872C30.6607 13.7872 8.72266-8.15085 8.72266-35.2128C8.72266-62.2748 30.6607-84.2128 57.7227-84.2128Z"/>
   <path class="monochrome-1 multicolor-1:white hierarchical-1:primary SFSymbolsPreviewFFFFFF" d="M78.1881-64.7999C76.2-64.7999 74.4458-63.6305 73.6272-61.9348L61.7573-64.4491C61.4064-64.5075 61.0556-64.4491 60.8217-64.2737C60.5293-64.0982 60.3539-63.8059 60.2955-63.455L56.6702-46.3811C49.0687-46.1472 42.2274-43.8667 37.2573-40.2999C35.9709-41.5278 34.2167-42.288 32.2871-42.288C28.311-42.288 25.1534-39.072 25.1534-35.1543C25.1534-32.2307 26.9076-29.7749 29.3635-28.6639C29.2465-27.9622 29.1881-27.2605 29.1881-26.5004C29.1881-15.5076 41.9935-6.56125 57.7811-6.56125C73.5687-6.56125 86.3742-15.4491 86.3742-26.5004C86.3742-27.2021 86.3157-27.9622 86.1988-28.6639C88.6546-29.7749 90.4088-32.2892 90.4088-35.2128C90.4088-39.1889 87.1928-42.3465 83.2752-42.3465C81.3456-42.3465 79.5914-41.5863 78.305-40.3584C73.3933-43.8667 66.669-46.1472 59.1845-46.4395L62.4589-61.7593L73.1009-59.4789C73.2179-56.7892 75.4398-54.6257 78.1881-54.6257C80.9947-54.6257 83.2752-56.9061 83.2752-59.7128C83.2752-62.5195 80.9947-64.7999 78.1881-64.7999ZM46.4959-35.2128C49.3026-35.2128 51.583-32.9324 51.583-30.1257C51.583-27.319 49.3026-25.0386 46.4959-25.0386C43.6892-24.9801 41.4088-27.319 41.4088-30.1257C41.4088-32.9324 43.6892-35.2128 46.4959-35.2128ZM68.9494-35.1543C71.7561-35.1543 74.0365-32.8739 74.0365-30.0672C74.0365-27.319 71.7561-24.9801 68.9494-24.9801C66.1427-24.9801 63.8623-27.2605 63.8623-30.0672C63.8623-32.8739 66.1427-35.1543 68.9494-35.1543ZM47.5484-18.4897C49.7704-16.2677 54.4482-15.5076 57.7811-15.5076C61.1141-15.5076 65.8503-16.2677 68.0138-18.4897C68.5401-19.0159 69.3587-19.0159 69.885-18.4897C70.3527-17.9634 70.3527-17.1448 69.885-16.6185C66.4529-13.1864 59.9991-12.888 57.9136-12.8766L57.7811-12.8763C55.7931-12.8763 49.1272-13.1686 45.6773-16.6185C45.1511-17.1448 45.1511-17.9634 45.6773-18.4897C46.2036-19.0159 47.0222-19.0159 47.5484-18.4897Z"/>
  </g>
  <g id="Thin-M" transform="matrix(1 0 0 1 799.397 1126)">
   <path class="monochrome-0 multicolor-0:custom hierarchical-0:secondary SFSymbolsPreviewFF4500" d="M56.7227-83.1265C83.2323-83.1265 104.723-61.6362 104.723-35.1265C104.723-8.61683 83.2323 12.8735 56.7227 12.8735C30.213 12.8735 8.72266-8.61683 8.72266-35.1265C8.72266-61.6362 30.213-83.1265 56.7227-83.1265Z"/>
   <path class="monochrome-1 multicolor-1:white hierarchical-1:primary SFSymbolsPreviewFFFFFF" d="M76.7704-64.1098C74.8229-64.1098 73.1045-62.9642 72.3026-61.3031L60.6749-63.7661C60.3313-63.8234 59.9876-63.7661 59.7585-63.5943C59.4721-63.4224 59.3002-63.136 59.2429-62.7924L55.6916-46.0668C48.2453-45.8377 41.5437-43.6038 36.6749-40.1098C35.4148-41.3127 33.6964-42.0573 31.8062-42.0573C27.9112-42.0573 24.8181-38.9069 24.8181-35.0692C24.8181-32.2053 26.5365-29.7995 28.9422-28.7112C28.8277-28.0239 28.7704-27.3365 28.7704-26.5919C28.7704-15.8234 41.3145-7.05968 56.7799-7.05968C72.2453-7.05968 84.7895-15.7661 84.7895-26.5919C84.7895-27.2792 84.7322-28.0239 84.6176-28.7112C87.0234-29.7995 88.7418-32.2625 88.7418-35.1265C88.7418-39.0215 85.5914-42.1146 81.7537-42.1146C79.8635-42.1146 78.1451-41.3699 76.885-40.1671C72.0735-43.6038 65.4864-45.8377 58.1546-46.1241L61.3623-61.1313L71.7871-58.8974C71.9017-56.2625 74.0783-54.1432 76.7704-54.1432C79.5198-54.1432 81.7537-56.3771 81.7537-59.1265C81.7537-61.8759 79.5198-64.1098 76.7704-64.1098ZM45.725-35.1265C48.4745-35.1265 50.7083-32.8926 50.7083-30.1432C50.7083-27.3938 48.4745-25.1599 45.725-25.1599C42.9756-25.1026 40.7418-27.3938 40.7418-30.1432C40.7418-32.8926 42.9756-35.1265 45.725-35.1265ZM67.7203-35.0692C70.4697-35.0692 72.7036-32.8353 72.7036-30.0859C72.7036-27.3938 70.4697-25.1026 67.7203-25.1026C64.9709-25.1026 62.737-27.3365 62.737-30.0859C62.737-32.8353 64.9709-35.0692 67.7203-35.0692ZM46.7561-18.7446C48.9327-16.568 53.515-15.8234 56.7799-15.8234C60.0449-15.8234 64.6845-16.568 66.8038-18.7446C67.3193-19.2602 68.1212-19.2602 68.6367-18.7446C69.095-18.2291 69.095-17.4272 68.6367-16.9117C65.2747-13.5497 58.9526-13.2573 56.9097-13.2462L56.7799-13.2458C54.8324-13.2458 48.3026-13.5322 44.9231-16.9117C44.4076-17.4272 44.4076-18.2291 44.9231-18.7446C45.4387-19.2602 46.2406-19.2602 46.7561-18.7446Z"/>
  </g>
  <g id="Ultralight-M" transform="matrix(1 0 0 1 503.686 1126)">
   <path class="monochrome-0 multicolor-0:custom hierarchical-0:secondary SFSymbolsPreviewFF4500" d="M55.7227-82C81.68-82 102.723-60.9574 102.723-35C102.723-9.04262 81.68 12 55.7227 12C29.7653 12 8.72266-9.04262 8.72266-35C8.72266-60.9574 29.7653-82 55.7227-82Z"/>
   <path class="monochrome-1 multicolor-1:white hierarchical-1:primary SFSymbolsPreviewFFFFFF" d="M75.3527-63.3795C73.4458-63.3795 71.7632-62.2578 70.978-60.6313L59.5926-63.043C59.2561-63.099 58.9196-63.043 58.6952-62.8747C58.4148-62.7064 58.2465-62.426 58.1904-62.0895L54.7131-45.7124C47.4219-45.4881 40.8599-43.3007 36.0926-39.8795C34.8587-41.0573 33.1761-41.7864 31.3253-41.7864C27.5114-41.7864 24.4828-38.7017 24.4828-34.9439C24.4828-32.1396 26.1654-29.784 28.521-28.7184C28.4088-28.0453 28.3527-27.3723 28.3527-26.6432C28.3527-16.099 40.6355-7.5179 55.7787-7.5179C70.9219-7.5179 83.2048-16.043 83.2048-26.6432C83.2048-27.3162 83.1487-28.0453 83.0365-28.7184C85.3921-29.784 87.0747-32.1957 87.0747-35C87.0747-38.8138 83.99-41.8425 80.2322-41.8425C78.3814-41.8425 76.6988-41.1134 75.4649-39.9356C70.7537-43.3007 64.3038-45.4881 57.1248-45.7685L60.2656-60.463L70.4733-58.2757C70.5854-55.6957 72.7167-53.6205 75.3527-53.6205C78.0449-53.6205 80.2322-55.8079 80.2322-58.5C80.2322-61.1921 78.0449-63.3795 75.3527-63.3795ZM44.9542-35C47.6463-35 49.8336-32.8126 49.8336-30.1205C49.8336-27.4284 47.6463-25.2411 44.9542-25.2411C42.262-25.185 40.0747-27.4284 40.0747-30.1205C40.0747-32.8126 42.262-35 44.9542-35ZM66.4912-34.9439C69.1833-34.9439 71.3706-32.7566 71.3706-30.0644C71.3706-27.4284 69.1833-25.185 66.4912-25.185C63.799-25.185 61.6117-27.3723 61.6117-30.0644C61.6117-32.7566 63.799-34.9439 66.4912-34.9439ZM45.9637-18.9594C48.095-16.8282 52.5818-16.099 55.7787-16.099C58.9756-16.099 63.5186-16.8282 65.5938-18.9594C66.0986-19.4642 66.8838-19.4642 67.3885-18.9594C67.8372-18.4547 67.8372-17.6695 67.3885-17.1647C64.0982-13.8743 57.9123-13.5867 55.9088-13.5755L55.7787-13.5752C53.8718-13.5752 47.478-13.8556 44.169-17.1647C43.6642-17.6695 43.6642-18.4547 44.169-18.9594C44.6737-19.4642 45.4589-19.4642 45.9637-18.9594Z"/>
  </g>
  <g id="Black-S" transform="matrix(1 0 0 1 2882.38 696)">
   <path class="monochrome-0 multicolor-0:custom hierarchical-0:secondary SFSymbolsPreviewFF4500" d="M50.7227-77C73.9186-77 92.7227-58.196 92.7227-35C92.7227-11.804 73.9186 7 50.7227 7C27.5267 7 8.72266-11.804 8.72266-35C8.72266-58.196 27.5267-77 50.7227-77Z"/>
   <path class="monochrome-1 multicolor-1:white hierarchical-1:primary SFSymbolsPreviewFFFFFF" d="M68.2352-61C66.5291-61 65.0237-59.996 64.3212-58.5402L54.1348-60.6988C53.8338-60.749 53.5327-60.6988 53.332-60.5482C53.0811-60.3976 52.9305-60.1466 52.8804-59.8454L49.7693-45.1867C43.246-44.9859 37.375-43.0281 33.1098-39.9659C32.0058-41.0201 30.5004-41.6727 28.8445-41.6727C25.4323-41.6727 22.7227-38.9116 22.7227-35.5482C22.7227-33.0382 24.228-30.9297 26.3356-29.9759C26.2352-29.3735 26.185-28.7711 26.185-28.1185C26.185-18.6807 37.1743-11 50.7227-11C64.271-11 75.2603-18.6305 75.2603-28.1185C75.2603-28.7209 75.2101-29.3735 75.1098-29.9759C77.2173-30.9297 78.7227-33.0884 78.7227-35.5984C78.7227-39.012 75.9628-41.7229 72.6008-41.7229C70.9449-41.7229 69.4395-41.0703 68.3356-40.0161C64.1205-43.0281 58.3499-44.9859 51.927-45.2369L54.737-58.3896L63.8696-56.4317C63.97-54.1225 65.8768-52.2651 68.2352-52.2651C70.6438-52.2651 72.6008-54.2229 72.6008-56.6325C72.6008-59.0422 70.6438-61 68.2352-61ZM41.0381-35.5984C43.4467-35.5984 45.4037-33.6406 45.4037-31.2309C45.4037-28.8213 43.4467-26.8635 41.0381-26.8635C38.6295-26.8133 36.6725-28.8213 36.6725-31.2309C36.6725-33.6406 38.6295-35.5984 41.0381-35.5984ZM60.3069-35.5482C62.7155-35.5482 64.6725-33.5904 64.6725-31.1807C64.6725-28.8213 62.7155-26.8133 60.3069-26.8133C57.8983-26.8133 55.9413-28.7711 55.9413-31.1807C55.9413-33.5904 57.8983-35.5482 60.3069-35.5482ZM61.1098-21.241C61.5112-20.7892 61.5112-20.0863 61.1098-19.6345C58.099-16.6225 52.3786-16.4217 50.7227-16.4217C49.0166-16.4217 43.2961-16.6727 40.3356-19.6345C39.884-20.0863 39.884-20.7892 40.3356-21.241C40.7872-21.6928 41.4897-21.6928 41.9413-21.241C43.8481-19.3333 47.8624-18.6807 50.7227-18.6807C53.5829-18.6807 57.6474-19.3333 59.504-21.241C59.9556-21.6928 60.6581-21.6928 61.1098-21.241Z"/>
  </g>
  <g id="Heavy-S" transform="matrix(1 0 0 1 2586.16 696)">
   <path class="monochrome-0 multicolor-0:custom hierarchical-0:secondary SFSymbolsPreviewFF4500" d="M50.2227-76.598C73.1425-76.598 91.7227-58.0178 91.7227-35.098C91.7227-12.1782 73.1425 6.402 50.2227 6.402C27.3028 6.402 8.72266-12.1782 8.72266-35.098C8.72266-58.0178 27.3028-76.598 50.2227-76.598Z"/>
   <path class="monochrome-1 multicolor-1:white hierarchical-1:primary SFSymbolsPreviewFFFFFF" d="M67.5556-60.1565C65.8718-60.1565 64.3861-59.166 63.6928-57.7299L53.6397-59.8593C53.3426-59.9089 53.0455-59.8593 52.8474-59.7108C52.5997-59.5622 52.4512-59.3146 52.4017-59.0175L49.3313-44.5568C42.8933-44.3587 37.0992-42.4274 32.8897-39.4065C31.8002-40.4464 30.3145-41.0902 28.6803-41.0902C25.3128-41.0902 22.6385-38.3665 22.6385-35.0485C22.6385-32.5723 24.1242-30.4924 26.2042-29.5515C26.1051-28.9572 26.0556-28.3629 26.0556-27.7191C26.0556-18.4089 36.9011-10.8319 50.2722-10.8319C63.6433-10.8319 74.4888-18.3593 74.4888-27.7191C74.4888-28.3134 74.4392-28.9572 74.3402-29.5515C76.4202-30.4924 77.9058-32.6219 77.9058-35.098C77.9058-38.4655 75.1821-41.1398 71.8641-41.1398C70.2298-41.1398 68.7441-40.496 67.6546-39.456C63.4947-42.4274 57.7996-44.3587 51.4607-44.6064L54.234-57.5813L63.2471-55.6499C63.3462-53.3719 65.228-51.5395 67.5556-51.5395C69.9327-51.5395 71.8641-53.4709 71.8641-55.848C71.8641-58.2251 69.9327-60.1565 67.5556-60.1565ZM40.7143-35.098C43.0914-35.098 45.0228-33.1666 45.0228-30.7895C45.0228-28.4124 43.0914-26.4811 40.7143-26.4811C38.3372-26.4315 36.4058-28.4124 36.4058-30.7895C36.4058-33.1666 38.3372-35.098 40.7143-35.098ZM59.731-35.0485C62.1081-35.0485 64.0395-33.1171 64.0395-30.74C64.0395-28.4124 62.1081-26.4315 59.731-26.4315C57.3539-26.4315 55.4225-28.3629 55.4225-30.74C55.4225-33.1171 57.3539-35.0485 59.731-35.0485ZM60.5234-20.9345C60.9196-20.4888 60.9196-19.7955 60.5234-19.3498C57.6228-16.4492 52.1738-16.1913 50.3956-16.1807L50.2722-16.1803C48.5884-16.1803 42.9428-16.428 40.021-19.3498C39.5753-19.7955 39.5753-20.4888 40.021-20.9345C40.4667-21.3802 41.16-21.3802 41.6057-20.9345C43.4876-19.0527 47.4494-18.4089 50.2722-18.4089C53.095-18.4089 57.1063-19.0527 58.9387-20.9345C59.3844-21.3802 60.0777-21.3802 60.5234-20.9345Z"/>
  </g>
  <g id="Bold-S" transform="matrix(1 0 0 1 2289.95 696)">
   <path class="monochrome-0 multicolor-0:custom hierarchical-0:secondary SFSymbolsPreviewFF4500" d="M49.7227-75.9277C72.3663-75.9277 90.7227-57.5714 90.7227-34.9277C90.7227-12.284 72.3663 6.0723 49.7227 6.0723C27.079 6.0723 8.72266-12.284 8.72266-34.9277C8.72266-57.5714 27.079-75.9277 49.7227-75.9277Z"/>
   <path class="monochrome-1 multicolor-1:white hierarchical-1:primary SFSymbolsPreviewFFFFFF" d="M66.8468-59.6843C65.1833-59.6843 63.7155-58.7057 63.0305-57.2869L53.0986-59.3907C52.805-59.4396 52.5114-59.3907 52.3157-59.2439C52.0711-59.0972 51.9243-58.8525 51.8754-58.559L48.842-44.2726C42.4816-44.0769 36.7573-42.1687 32.5986-39.1843C31.5222-40.2117 30.0544-40.8477 28.4398-40.8477C25.1129-40.8477 22.4709-38.1568 22.4709-34.8788C22.4709-32.4325 23.9387-30.3776 25.9935-29.448C25.8957-28.8609 25.8468-28.2738 25.8468-27.6377C25.8468-18.4396 36.5616-10.954 49.7716-10.954C62.9816-10.954 73.6964-18.3907 73.6964-27.6377C73.6964-28.2248 73.6475-28.8609 73.5496-29.448C75.6045-30.3776 77.0723-32.4814 77.0723-34.9277C77.0723-38.2547 74.3814-40.8967 71.1033-40.8967C69.4888-40.8967 68.021-40.2606 66.9446-39.2332C62.8348-42.1687 57.2083-44.0769 50.9458-44.3215L53.6857-57.1401L62.5902-55.232C62.6881-52.9814 64.5472-51.1711 66.8468-51.1711C69.1952-51.1711 71.1033-53.0793 71.1033-55.4277C71.1033-57.7761 69.1952-59.6843 66.8468-59.6843ZM40.3289-34.9277C42.6773-34.9277 44.5854-33.0196 44.5854-30.6711C44.5854-28.3227 42.6773-26.4146 40.3289-26.4146C37.9804-26.3656 36.0723-28.3227 36.0723-30.6711C36.0723-33.0196 37.9804-34.9277 40.3289-34.9277ZM59.1165-34.8788C61.4649-34.8788 63.373-32.9707 63.373-30.6222C63.373-28.3227 61.4649-26.3656 59.1165-26.3656C56.768-26.3656 54.8599-28.2738 54.8599-30.6222C54.8599-32.9707 56.768-34.8788 59.1165-34.8788ZM59.8993-20.9349C60.2907-20.4945 60.2907-19.8096 59.8993-19.3692C57.0353-16.5053 51.6566-16.2491 49.8967-16.2383L49.7716-16.238C48.1081-16.238 42.5305-16.4826 39.6439-19.3692C39.2036-19.8096 39.2036-20.4945 39.6439-20.9349C40.0842-21.3752 40.7692-21.3752 41.2095-20.9349C43.0687-19.0757 46.9828-18.4396 49.7716-18.4396C52.5604-18.4396 56.5234-19.0757 58.3336-20.9349C58.774-21.3752 59.4589-21.3752 59.8993-20.9349Z"/>
  </g>
  <g id="Semibold-S" transform="matrix(1 0 0 1 1994.24 696)">
   <path class="monochrome-0 multicolor-0:custom hierarchical-0:secondary SFSymbolsPreviewFF4500" d="M48.7227-75.4656C70.8141-75.4656 88.7227-57.557 88.7227-35.4656C88.7227-13.3742 70.8141 4.5344 48.7227 4.5344C26.6313 4.5344 8.72266-13.3742 8.72266-35.4656C8.72266-57.557 26.6313-75.4656 48.7227-75.4656Z"/>
   <path class="monochrome-1 multicolor-1:white hierarchical-1:primary SFSymbolsPreviewFFFFFF" d="M65.4291-59.6183C63.8062-59.6183 62.3742-58.6637 61.706-57.2794L52.0162-59.3319C51.7298-59.3797 51.4434-59.3319 51.2525-59.1887C51.0138-59.0456 50.8706-58.8069 50.8229-58.5205L47.8635-44.5825C41.6582-44.3916 36.0735-42.53 32.0162-39.6183C30.9661-40.6207 29.5341-41.2413 27.9589-41.2413C24.7131-41.2413 22.1355-38.616 22.1355-35.4179C22.1355-33.0312 23.5675-31.0265 25.5723-30.1195C25.4768-29.5467 25.4291-28.974 25.4291-28.3534C25.4291-19.3797 35.8826-12.0766 48.7704-12.0766C61.6582-12.0766 72.1117-19.3319 72.1117-28.3534C72.1117-28.9262 72.0639-29.5467 71.9685-30.1195C73.9733-31.0265 75.4052-33.079 75.4052-35.4656C75.4052-38.7114 72.7799-41.289 69.5818-41.289C68.0067-41.289 66.5747-40.6685 65.5246-39.6661C61.515-42.53 56.0258-44.3916 49.916-44.6303L52.589-57.1362L61.2764-55.2747C61.3718-53.079 63.1857-51.3129 65.4291-51.3129C67.7203-51.3129 69.5818-53.1744 69.5818-55.4656C69.5818-57.7568 67.7203-59.6183 65.4291-59.6183ZM39.558-35.4656C41.8492-35.4656 43.7107-33.604 43.7107-31.3129C43.7107-29.0217 41.8492-27.1601 39.558-27.1601C37.2668-27.1124 35.4052-29.0217 35.4052-31.3129C35.4052-33.604 37.2668-35.4656 39.558-35.4656ZM57.8873-35.4179C60.1785-35.4179 62.0401-33.5563 62.0401-31.2651C62.0401-29.0217 60.1785-27.1124 57.8873-27.1124C55.5962-27.1124 53.7346-28.974 53.7346-31.2651C53.7346-33.5563 55.5962-35.4179 57.8873-35.4179ZM58.6511-21.814C59.0329-21.3845 59.0329-20.7162 58.6511-20.2866C55.8587-17.4942 50.616-17.2429 48.8957-17.2321L48.7704-17.2317C47.1475-17.2317 41.706-17.4704 38.8897-20.2866C38.4601-20.7162 38.4601-21.3845 38.8897-21.814C39.3193-22.2436 39.9876-22.2436 40.4172-21.814C42.231-20.0002 46.0496-19.3797 48.7704-19.3797C51.4912-19.3797 55.3575-20.0002 57.1236-21.814C57.5532-22.2436 58.2215-22.2436 58.6511-21.814Z"/>
  </g>
  <g id="Medium-S" transform="matrix(1 0 0 1 1697.53 696)">
   <path class="monochrome-0 multicolor-0:custom hierarchical-0:secondary SFSymbolsPreviewFF4500" d="M48.7227-75.1152C70.8141-75.1152 88.7227-57.2066 88.7227-35.1152C88.7227-13.0238 70.8141 4.8848 48.7227 4.8848C26.6313 4.8848 8.72266-13.0238 8.72266-35.1152C8.72266-57.2066 26.6313-75.1152 48.7227-75.1152Z"/>
   <path class="monochrome-1 multicolor-1:white hierarchical-1:primary SFSymbolsPreviewFFFFFF" d="M65.4291-59.2679C63.8062-59.2679 62.3742-58.3133 61.706-56.929L52.0162-58.9815C51.7298-59.0293 51.4434-58.9815 51.2525-58.8383C51.0138-58.6952 50.8706-58.4565 50.8229-58.1701L47.8635-44.2321C41.6582-44.0412 36.0735-42.1796 32.0162-39.2679C30.9661-40.2703 29.5341-40.8909 27.9589-40.8909C24.7131-40.8909 22.1355-38.2656 22.1355-35.0675C22.1355-32.6808 23.5675-30.6761 25.5723-29.7691C25.4768-29.1963 25.4291-28.6236 25.4291-28.003C25.4291-19.0293 35.8826-11.7262 48.7704-11.7262C61.6582-11.7262 72.1117-18.9815 72.1117-28.003C72.1117-28.5758 72.0639-29.1963 71.9685-29.7691C73.9733-30.6761 75.4052-32.7286 75.4052-35.1152C75.4052-38.361 72.7799-40.9386 69.5818-40.9386C68.0067-40.9386 66.5747-40.3181 65.5246-39.3157C61.515-42.1796 56.0258-44.0412 49.916-44.2799L52.589-56.7858L61.2764-54.9243C61.3718-52.7286 63.1857-50.9625 65.4291-50.9625C67.7203-50.9625 69.5818-52.824 69.5818-55.1152C69.5818-57.4064 67.7203-59.2679 65.4291-59.2679ZM39.558-35.1152C41.8492-35.1152 43.7107-33.2536 43.7107-30.9625C43.7107-28.6713 41.8492-26.8097 39.558-26.8097C37.2668-26.762 35.4052-28.6713 35.4052-30.9625C35.4052-33.2536 37.2668-35.1152 39.558-35.1152ZM57.8873-35.0675C60.1785-35.0675 62.0401-33.2059 62.0401-30.9147C62.0401-28.6713 60.1785-26.762 57.8873-26.762C55.5962-26.762 53.7346-28.6236 53.7346-30.9147C53.7346-33.2059 55.5962-35.0675 57.8873-35.0675ZM58.6511-21.4636C59.0329-21.0341 59.0329-20.3658 58.6511-19.9362C55.8587-17.1438 50.616-16.8925 48.8957-16.8817L48.7704-16.8813C47.1475-16.8813 41.706-17.12 38.8897-19.9362C38.4601-20.3658 38.4601-21.0341 38.8897-21.4636C39.3193-21.8932 39.9876-21.8932 40.4172-21.4636C42.231-19.6498 46.0496-19.0293 48.7704-19.0293C51.4912-19.0293 55.3575-19.6498 57.1236-21.4636C57.5532-21.8932 58.2215-21.8932 58.6511-21.4636Z"/>
  </g>
  <g id="Regular-S" transform="matrix(1 0 0 1 1400.82 696)">
   <path class="monochrome-0 multicolor-0:custom hierarchical-0:secondary SFSymbolsPreviewFF4500" d="M48.7227-74.6582C70.8141-74.6582 88.7227-56.7496 88.7227-34.6582C88.7227-12.5668 70.8141 5.3418 48.7227 5.3418C26.6313 5.3418 8.72266-12.5668 8.72266-34.6582C8.72266-56.7496 26.6313-74.6582 48.7227-74.6582Z"/>
   <path class="monochrome-1 multicolor-1:white hierarchical-1:primary SFSymbolsPreviewFFFFFF" d="M65.4291-58.8109C63.8062-58.8109 62.3742-57.8563 61.706-56.472L52.0162-58.5245C51.7298-58.5723 51.4434-58.5245 51.2525-58.3813C51.0138-58.2382 50.8706-57.9995 50.8229-57.7131L47.8635-43.7751C41.6582-43.5842 36.0735-41.7226 32.0162-38.8109C30.9661-39.8133 29.5341-40.4339 27.9589-40.4339C24.7131-40.4339 22.1355-37.8086 22.1355-34.6105C22.1355-32.2238 23.5675-30.2191 25.5723-29.3121C25.4768-28.7393 25.4291-28.1666 25.4291-27.546C25.4291-18.5723 35.8826-11.2692 48.7704-11.2692C61.6582-11.2692 72.1117-18.5245 72.1117-27.546C72.1117-28.1188 72.0639-28.7393 71.9685-29.3121C73.9733-30.2191 75.4052-32.2716 75.4052-34.6582C75.4052-37.904 72.7799-40.4816 69.5818-40.4816C68.0067-40.4816 66.5747-39.8611 65.5246-38.8587C61.515-41.7226 56.0258-43.5842 49.916-43.8229L52.589-56.3288L61.2764-54.4673C61.3718-52.2716 63.1857-50.5055 65.4291-50.5055C67.7203-50.5055 69.5818-52.367 69.5818-54.6582C69.5818-56.9494 67.7203-58.8109 65.4291-58.8109ZM39.558-34.6582C41.8492-34.6582 43.7107-32.7966 43.7107-30.5055C43.7107-28.2143 41.8492-26.3527 39.558-26.3527C37.2668-26.305 35.4052-28.2143 35.4052-30.5055C35.4052-32.7966 37.2668-34.6582 39.558-34.6582ZM57.8873-34.6105C60.1785-34.6105 62.0401-32.7489 62.0401-30.4577C62.0401-28.2143 60.1785-26.305 57.8873-26.305C55.5962-26.305 53.7346-28.1666 53.7346-30.4577C53.7346-32.7489 55.5962-34.6105 57.8873-34.6105ZM58.6511-21.0066C59.0329-20.5771 59.0329-19.9088 58.6511-19.4792C55.8587-16.6868 50.616-16.4355 48.8957-16.4247L48.7704-16.4243C47.1475-16.4243 41.706-16.663 38.8897-19.4792C38.4601-19.9088 38.4601-20.5771 38.8897-21.0066C39.3193-21.4362 39.9876-21.4362 40.4172-21.0066C42.231-19.1928 46.0496-18.5723 48.7704-18.5723C51.4912-18.5723 55.3575-19.1928 57.1236-21.0066C57.5532-21.4362 58.2215-21.4362 58.6511-21.0066Z"/>
  </g>
  <g id="Light-S" transform="matrix(1 0 0 1 1105.11 696)">
   <path class="monochrome-0 multicolor-0:custom hierarchical-0:secondary SFSymbolsPreviewFF4500" d="M47.7227-73.9316C69.2618-73.9316 86.7227-56.4707 86.7227-34.9316C86.7227-13.3925 69.2618 4.0684 47.7227 4.0684C26.1836 4.0684 8.72266-13.3925 8.72266-34.9316C8.72266-56.4707 26.1836-73.9316 47.7227-73.9316Z"/>
   <path class="monochrome-1 multicolor-1:white hierarchical-1:primary SFSymbolsPreviewFFFFFF" d="M64.0114-58.4805C62.4291-58.4805 61.0329-57.5497 60.3814-56.2001L50.9339-58.2013C50.6546-58.2478 50.3754-58.2013 50.1892-58.0617C49.9566-57.9221 49.8169-57.6894 49.7704-57.4101L46.885-43.8206C40.8348-43.6345 35.3897-41.8194 31.4339-38.9805C30.41-39.9579 29.0138-40.5629 27.478-40.5629C24.3134-40.5629 21.8002-38.0032 21.8002-34.8851C21.8002-32.5581 23.1964-30.6034 25.1511-29.7192C25.058-29.1607 25.0114-28.6022 25.0114-27.9972C25.0114-19.2478 35.2036-12.1273 47.7692-12.1273C60.3348-12.1273 70.527-19.2013 70.527-27.9972C70.527-28.5557 70.4804-29.1607 70.3873-29.7192C72.342-30.6034 73.7382-32.6046 73.7382-34.9316C73.7382-38.0963 71.1785-40.6094 68.0604-40.6094C66.5246-40.6094 65.1284-40.0044 64.1045-39.0271C60.1952-41.8194 54.8432-43.6345 48.8861-43.8672L51.4923-56.0605L59.9625-54.2454C60.0556-52.1046 61.8241-50.3827 64.0114-50.3827C66.2453-50.3827 68.0604-52.1977 68.0604-54.4316C68.0604-56.6655 66.2453-58.4805 64.0114-58.4805ZM38.7871-34.9316C41.021-34.9316 42.836-33.1166 42.836-30.8827C42.836-28.6488 41.021-26.8337 38.7871-26.8337C36.5532-26.7872 34.7382-28.6488 34.7382-30.8827C34.7382-33.1166 36.5532-34.9316 38.7871-34.9316ZM56.6582-34.8851C58.8921-34.8851 60.7071-33.07 60.7071-30.8361C60.7071-28.6488 58.8921-26.7872 56.6582-26.7872C54.4243-26.7872 52.6093-28.6022 52.6093-30.8361C52.6093-33.07 54.4243-34.8851 56.6582-34.8851ZM39.6248-21.6213C41.3933-19.8528 45.1165-19.2478 47.7692-19.2478C50.4219-19.2478 54.1916-19.8528 55.9136-21.6213C56.3324-22.0402 56.984-22.0402 57.4029-21.6213C57.7752-21.2025 57.7752-20.5509 57.4029-20.1321C54.6105-17.3397 49.305-17.1536 47.7692-17.1536C46.1869-17.1536 40.8814-17.3863 38.1355-20.1321C37.7167-20.5509 37.7167-21.2025 38.1355-21.6213C38.5544-22.0402 39.206-22.0402 39.6248-21.6213Z"/>
  </g>
  <g id="Thin-S" transform="matrix(1 0 0 1 809.397 696)">
   <path class="monochrome-0 multicolor-0:custom hierarchical-0:secondary SFSymbolsPreviewFF4500" d="M46.7227-72.9707C67.7095-72.9707 84.7227-55.9575 84.7227-34.9707C84.7227-13.9839 67.7095 3.0293 46.7227 3.0293C25.7358 3.0293 8.72266-13.9839 8.72266-34.9707C8.72266-55.9575 25.7358-72.9707 46.7227-72.9707Z"/>
   <path class="monochrome-1 multicolor-1:white hierarchical-1:primary SFSymbolsPreviewFFFFFF" d="M62.5938-57.9158C61.052-57.9158 59.6916-57.0089 59.0568-55.6938L49.8515-57.6437C49.5795-57.6891 49.3074-57.6437 49.126-57.5077C48.8993-57.3717 48.7632-57.1449 48.7179-56.8728L45.9064-43.6318C40.0114-43.4504 34.706-41.6819 30.8515-38.9158C29.8539-39.8681 28.4935-40.4576 26.9971-40.4576C23.9136-40.4576 21.4649-37.9635 21.4649-34.9254C21.4649-32.6581 22.8253-30.7535 24.7298-29.8919C24.6391-29.3478 24.5938-28.8036 24.5938-28.2141C24.5938-19.6891 34.5246-12.7511 46.768-12.7511C59.0114-12.7511 68.9422-19.6437 68.9422-28.2141C68.9422-28.7583 68.8969-29.3478 68.8062-29.8919C70.7107-30.7535 72.0711-32.7034 72.0711-34.9707C72.0711-38.0542 69.5771-40.5029 66.5389-40.5029C65.0425-40.5029 63.6821-39.9134 62.6845-38.9612C58.8754-41.6819 53.6606-43.4504 47.8563-43.6771L50.3957-55.5578L58.6487-53.7893C58.7394-51.7034 60.4625-50.0256 62.5938-50.0256C64.7704-50.0256 66.5389-51.7941 66.5389-53.9707C66.5389-56.1473 64.7704-57.9158 62.5938-57.9158ZM38.0162-34.9707C40.1928-34.9707 41.9613-33.2022 41.9613-31.0256C41.9613-28.849 40.1928-27.0805 38.0162-27.0805C35.8396-27.0351 34.0711-28.849 34.0711-31.0256C34.0711-33.2022 35.8396-34.9707 38.0162-34.9707ZM55.4291-34.9254C57.6057-34.9254 59.3742-33.1569 59.3742-30.9802C59.3742-28.849 57.6057-27.0351 55.4291-27.0351C53.2525-27.0351 51.484-28.8036 51.484-30.9802C51.484-33.1569 53.2525-34.9254 55.4291-34.9254ZM38.8324-22.0017C40.5556-20.2786 44.1833-19.6891 46.768-19.6891C49.3527-19.6891 53.0258-20.2786 54.7036-22.0017C55.1117-22.4098 55.7465-22.4098 56.1546-22.0017C56.5174-21.5936 56.5174-20.9588 56.1546-20.5507C53.4339-17.8299 48.2644-17.6485 46.768-17.6485C45.2262-17.6485 40.0568-17.8752 37.3814-20.5507C36.9733-20.9588 36.9733-21.5936 37.3814-22.0017C37.7895-22.4098 38.4243-22.4098 38.8324-22.0017Z"/>
  </g>
  <g id="Ultralight-S" transform="matrix(1 0 0 1 513.686 696)">
   <path class="monochrome-0 multicolor-0:custom hierarchical-0:secondary SFSymbolsPreviewFF4500" d="M45.7227-72C66.1572-72 82.7227-55.4345 82.7227-35C82.7227-14.5655 66.1572 2 45.7227 2C25.2881 2 8.72266-14.5655 8.72266-35C8.72266-55.4345 25.2881-72 45.7227-72Z"/>
   <path class="monochrome-1 multicolor-1:white hierarchical-1:primary SFSymbolsPreviewFFFFFF" d="M61.1761-57.3413C59.6749-57.3413 58.3503-56.4582 57.7322-55.1778L48.7692-57.0764C48.5043-57.1205 48.2394-57.0764 48.0628-56.9439C47.842-56.8115 47.7095-56.5907 47.6654-56.3258L44.9279-43.4332C39.1881-43.2566 34.0222-41.5346 30.2692-38.8413C29.2978-39.7685 27.9733-40.3425 26.5162-40.3425C23.5138-40.3425 21.1296-37.9141 21.1296-34.9558C21.1296-32.7482 22.4542-30.8938 24.3086-30.0549C24.2203-29.5251 24.1761-28.9952 24.1761-28.4212C24.1761-20.1205 33.8456-13.3652 45.7668-13.3652C57.6881-13.3652 67.3575-20.0764 67.3575-28.4212C67.3575-28.9511 67.3134-29.5251 67.225-30.0549C69.0795-30.8938 70.404-32.7924 70.404-35C70.404-38.0024 67.9756-40.3866 65.0174-40.3866C63.5604-40.3866 62.2358-39.8126 61.2644-38.8854C57.5556-41.5346 52.478-43.2566 46.8265-43.4773L49.299-55.0453L57.3348-53.3234C57.4231-51.2924 59.1009-49.6587 61.1761-49.6587C63.2955-49.6587 65.0174-51.3807 65.0174-53.5C65.0174-55.6193 63.2955-57.3413 61.1761-57.3413ZM37.2453-35C39.3647-35 41.0866-33.278 41.0866-31.1587C41.0866-29.0394 39.3647-27.3174 37.2453-27.3174C35.126-27.2733 33.404-29.0394 33.404-31.1587C33.404-33.278 35.126-35 37.2453-35ZM54.2-34.9558C56.3193-34.9558 58.0413-33.2339 58.0413-31.1146C58.0413-29.0394 56.3193-27.2733 54.2-27.2733C52.0807-27.2733 50.3587-28.9952 50.3587-31.1146C50.3587-33.2339 52.0807-34.9558 54.2-34.9558ZM38.0401-22.3723C39.7179-20.6945 43.2501-20.1205 45.7668-20.1205C48.2835-20.1205 51.8599-20.6945 53.4935-22.3723C53.8909-22.7697 54.5091-22.7697 54.9064-22.3723C55.2597-21.9749 55.2597-21.3568 54.9064-20.9594C52.2573-18.3103 47.2239-18.1337 45.7668-18.1337C44.2656-18.1337 39.2322-18.3544 36.6272-20.9594C36.2298-21.3568 36.2298-21.9749 36.6272-22.3723C37.0246-22.7697 37.6427-22.7697 38.0401-22.3723Z"/>
  </g>
 </g>
</svg>
