<?xml version="1.0" encoding="UTF-8"?>
<!-- Generated by Pixelmator Pro 3.6.9 -->
<svg width="3300" height="2200" viewBox="0 0 3300 2200" xmlns="http://www.w3.org/2000/svg">
    <g id="Notes">
        <path id="artboard" fill="#ffffff" stroke="none" d="M 0 0 L 3300 0 L 3300 2200 L 0 2200 Z"/>
        <path id="Pfad" fill="none" stroke="#000000" stroke-width="0.5" d="M 263 292 L 3036 292"/>
        <text id="WeightScale-Variations" xml:space="preserve" x="262" y="324" font-family="Helvetica" font-size="13" font-weight="700" fill="#000000">Weight/Scale Variations</text>
        <text id="Ultralight" xml:space="preserve" x="532.352295" y="324" font-family="Helvetica" font-size="13" fill="#000000">Ultralight</text>
        <text id="Thin" xml:space="preserve" x="841.355469" y="324" font-family="Helvetica" font-size="13" fill="#000000">Thin</text>
        <text id="Light" xml:space="preserve" x="1137.405029" y="324" font-family="Helvetica" font-size="13" fill="#000000">Light</text>
        <text id="Regular" xml:space="preserve" x="1425.237305" y="324" font-family="Helvetica" font-size="13" fill="#000000">Regular</text>
        <text id="Medium" xml:space="preserve" x="1721.381836" y="324" font-family="Helvetica" font-size="13" fill="#000000">Medium</text>
        <text id="Semibold" xml:space="preserve" x="2014.401855" y="324" font-family="Helvetica" font-size="13" fill="#000000">Semibold</text>
        <text id="Bold" xml:space="preserve" x="2324.490479" y="324" font-family="Helvetica" font-size="13" fill="#000000">Bold</text>
        <text id="Heavy" xml:space="preserve" x="2616.075928" y="324" font-family="Helvetica" font-size="13" fill="#000000">Heavy</text>
        <text id="Black" xml:space="preserve" x="2915.105469" y="324" font-family="Helvetica" font-size="13" fill="#000000">Black</text>
        <path id="path1" fill="none" stroke="#000000" stroke-width="0.5" d="M 263 1903 L 3036 1903"/>
        <g id="Gruppe">
            <path id="path2" fill="#000000" stroke="none" d="M 272.248047 1933.830078 C 276.554688 1933.830078 280.138702 1930.255859 280.138702 1925.949219 C 280.138702 1921.642578 276.544891 1918.068359 272.238281 1918.068359 C 267.941406 1918.068359 264.367188 1921.642578 264.367188 1925.949219 C 264.367188 1930.255859 267.951172 1933.830078 272.248047 1933.830078 Z M 272.248047 1932.345703 C 268.703125 1932.345703 265.871094 1929.503906 265.871094 1925.949219 C 265.871094 1922.394531 268.693359 1919.552734 272.238281 1919.552734 C 275.792999 1919.552734 278.644501 1922.394531 278.644501 1925.949219 C 278.644501 1929.503906 275.802704 1932.345703 272.248047 1932.345703 Z M 268.654297 1925.949219 C 268.654297 1926.378906 268.957031 1926.671875 269.40625 1926.671875 L 271.505859 1926.671875 L 271.505859 1928.791016 C 271.505859 1929.230469 271.798828 1929.533203 272.228516 1929.533203 C 272.677734 1929.533203 272.970703 1929.230469 272.970703 1928.791016 L 272.970703 1926.671875 L 275.089813 1926.671875 C 275.529297 1926.671875 275.832001 1926.378906 275.832001 1925.949219 C 275.832001 1925.509766 275.529297 1925.207031 275.089813 1925.207031 L 272.970703 1925.207031 L 272.970703 1923.097656 C 272.970703 1922.648438 272.677734 1922.345703 272.228516 1922.345703 C 271.798828 1922.345703 271.505859 1922.648438 271.505859 1923.097656 L 271.505859 1925.207031 L 269.40625 1925.207031 C 268.957031 1925.207031 268.654297 1925.509766 268.654297 1925.949219 Z"/>
        </g>
        <g id="g1">
            <path id="path3" fill="#000000" stroke="none" d="M 293.575989 1935.910156 C 299.025208 1935.910156 303.536896 1931.388672 303.536896 1925.949219 C 303.536896 1920.5 299.015411 1915.988281 293.566193 1915.988281 C 288.12677 1915.988281 283.615051 1920.5 283.615051 1925.949219 C 283.615051 1931.388672 288.136536 1935.910156 293.575989 1935.910156 Z M 293.575989 1934.25 C 288.966614 1934.25 285.284973 1930.558594 285.284973 1925.949219 C 285.284973 1921.339844 288.956848 1917.648438 293.566193 1917.648438 C 298.175598 1917.648438 301.876801 1921.339844 301.876801 1925.949219 C 301.876801 1930.558594 298.185394 1934.25 293.575989 1934.25 Z M 289.044739 1925.949219 C 289.044739 1926.427734 289.37677 1926.75 289.874817 1926.75 L 292.745911 1926.75 L 292.745911 1929.630859 C 292.745911 1930.119141 293.077911 1930.460938 293.556488 1930.460938 C 294.044708 1930.460938 294.386505 1930.128906 294.386505 1929.630859 L 294.386505 1926.75 L 297.267395 1926.75 C 297.755707 1926.75 298.097504 1926.427734 298.097504 1925.949219 C 298.097504 1925.460938 297.755707 1925.119141 297.267395 1925.119141 L 294.386505 1925.119141 L 294.386505 1922.248047 C 294.386505 1921.75 294.044708 1921.408203 293.556488 1921.408203 C 293.077911 1921.408203 292.745911 1921.75 292.745911 1922.248047 L 292.745911 1925.119141 L 289.874817 1925.119141 C 289.37677 1925.119141 289.044739 1925.460938 289.044739 1925.949219 Z"/>
        </g>
        <g id="g2">
            <path id="path4" fill="#000000" stroke="none" d="M 320.616699 1938.664063 C 327.57959 1938.664063 333.341309 1932.902344 333.341309 1925.949219 C 333.341309 1918.986328 327.569794 1913.224609 320.606903 1913.224609 C 313.653809 1913.224609 307.901855 1918.986328 307.901855 1925.949219 C 307.901855 1932.902344 313.663574 1938.664063 320.616699 1938.664063 Z M 320.616699 1936.847656 C 314.581543 1936.847656 309.728027 1931.984375 309.728027 1925.949219 C 309.728027 1919.904297 314.571777 1915.050781 320.606903 1915.050781 C 326.651886 1915.050781 331.515106 1919.904297 331.515106 1925.949219 C 331.515106 1931.984375 326.661591 1936.847656 320.616699 1936.847656 Z M 314.845215 1925.949219 C 314.845215 1926.466797 315.216309 1926.828125 315.763214 1926.828125 L 319.708496 1926.828125 L 319.708496 1930.783203 C 319.708496 1931.320313 320.07959 1931.701172 320.597198 1931.701172 C 321.134308 1931.701172 321.505402 1931.330078 321.505402 1930.783203 L 321.505402 1926.828125 L 325.46051 1926.828125 C 325.997589 1926.828125 326.378387 1926.466797 326.378387 1925.949219 C 326.378387 1925.402344 326.007294 1925.03125 325.46051 1925.03125 L 321.505402 1925.03125 L 321.505402 1921.085938 C 321.505402 1920.539063 321.134308 1920.158203 320.597198 1920.158203 C 320.07959 1920.158203 319.708496 1920.539063 319.708496 1921.085938 L 319.708496 1925.03125 L 315.763214 1925.03125 C 315.216309 1925.03125 314.845215 1925.402344 314.845215 1925.949219 Z"/>
        </g>
        <text id="Design-Variations" xml:space="preserve" x="262" y="1955" font-family="Helvetica" font-size="13" font-weight="700" fill="#000000">Design Variations</text>
        <text id="Symbols-are-supported-in" xml:space="preserve" x="262" y="1973" font-family="Helvetica" font-size="13" fill="#000000">Symbols are supported in up to nine weights and three scales.</text>
        <text id="For-optimal-layout-with" xml:space="preserve" x="262" y="1991" font-family="Helvetica" font-size="13" fill="#000000">For optimal layout with text and other symbols, vertically align</text>
        <text id="symbols-with-the-adjacent" xml:space="preserve" x="262" y="2009" font-family="Helvetica" font-size="13" fill="#000000">symbols with the adjacent text.</text>
        <path id="path5" fill="none" stroke="#00aeef" stroke-width="0.5" d="M 776 1919 L 776 1933"/>
        <g id="g3">
            <path id="path6" fill="#000000" stroke="none" d="M 779.310547 1933.15625 C 779.828125 1933.15625 780.082031 1932.960938 780.267578 1932.414063 L 781.527344 1928.966797 L 787.289124 1928.966797 L 788.548828 1932.414063 C 788.734375 1932.960938 788.988281 1933.15625 789.496094 1933.15625 C 790.013672 1933.15625 790.345703 1932.84375 790.345703 1932.355469 C 790.345703 1932.189453 790.316406 1932.033203 790.238281 1931.828125 L 785.658203 1919.630859 C 785.433594 1919.035156 785.033203 1918.732422 784.408203 1918.732422 C 783.802734 1918.732422 783.392578 1919.025391 783.177734 1919.621094 L 778.597656 1931.837891 C 778.519531 1932.042969 778.490234 1932.199219 778.490234 1932.365234 C 778.490234 1932.853516 778.802734 1933.15625 779.310547 1933.15625 Z M 782.005859 1927.482422 L 784.378906 1920.910156 L 784.427734 1920.910156 L 786.800781 1927.482422 Z"/>
        </g>
        <path id="path7" fill="none" stroke="#00aeef" stroke-width="0.5" d="M 793.197021 1919 L 793.197021 1933"/>
        <text id="Margins" xml:space="preserve" x="775" y="1955" font-family="Helvetica" font-size="13" font-weight="700" fill="#000000">Margins</text>
        <text id="Leading-and-trailing-margins" xml:space="preserve" x="775" y="1973" font-family="Helvetica" font-size="13" fill="#000000">Leading and trailing margins on the left and right side of each symbol</text>
        <text id="can-be-adjusted-by" xml:space="preserve" x="775" y="1991" font-family="Helvetica" font-size="13" fill="#000000">can be adjusted by modifying the x-location of the margin guidelines.</text>
        <text id="Modifications-are-automatically-applied" xml:space="preserve" x="775" y="2009" font-family="Helvetica" font-size="13" fill="#000000">Modifications are automatically applied proportionally to all</text>
        <text id="scales-and-weights" xml:space="preserve" x="775" y="2027" font-family="Helvetica" font-size="13" fill="#000000">scales and weights.</text>
        <g id="g4">
            <path id="path8" fill="#000000" stroke="none" d="M 1291.841797 1934.865234 L 1293.541016 1936.574219 C 1294.400391 1937.443359 1295.386719 1937.384766 1296.314453 1936.359375 L 1307.007813 1924.572266 L 1306.041016 1923.595703 L 1295.425781 1935.275391 C 1295.074219 1935.675781 1294.742188 1935.773438 1294.273438 1935.304688 L 1293.101563 1934.142578 C 1292.632813 1933.683594 1292.740234 1933.341797 1293.140625 1932.980469 L 1304.615234 1922.179688 L 1303.638672 1921.212891 L 1292.046875 1932.101563 C 1291.060547 1933.019531 1290.982422 1933.996094 1291.841797 1934.865234 Z M 1298.257813 1916.671875 C 1297.837891 1917.082031 1297.808594 1917.658203 1298.042969 1918.048828 C 1298.277344 1918.410156 1298.736328 1918.644531 1299.380859 1918.478516 C 1300.845703 1918.136719 1302.369141 1918.078125 1303.794922 1919.015625 L 1303.208984 1920.470703 C 1302.867188 1921.300781 1303.042969 1921.886719 1303.580078 1922.433594 L 1305.875 1924.748047 C 1306.363281 1925.236328 1306.773438 1925.255859 1307.339844 1925.158203 L 1308.404297 1924.962891 L 1309.068359 1925.636719 L 1309.029297 1926.193359 C 1308.990234 1926.691406 1309.117188 1927.072266 1309.605469 1927.550781 L 1310.367188 1928.292969 C 1310.845703 1928.771484 1311.460938 1928.800781 1311.929688 1928.332031 L 1314.839844 1925.412109 C 1315.308594 1924.943359 1315.289063 1924.347656 1314.810547 1923.869141 L 1314.039063 1923.107422 C 1313.560547 1922.628906 1313.189453 1922.472656 1312.710938 1922.511719 L 1312.134766 1922.560547 L 1311.490234 1921.925781 L 1311.734375 1920.802734 C 1311.861328 1920.236328 1311.705078 1919.796875 1311.119141 1919.210938 L 1308.921875 1917.023438 C 1305.582031 1913.703125 1301.148438 1913.78125 1298.257813 1916.671875 Z M 1299.751953 1917.042969 C 1302.183594 1915.265625 1305.474609 1915.568359 1307.701172 1917.794922 L 1310.132813 1920.207031 C 1310.367188 1920.441406 1310.40625 1920.626953 1310.337891 1920.96875 L 1310.015625 1922.453125 L 1311.519531 1923.9375 L 1312.505859 1923.878906 C 1312.759766 1923.869141 1312.837891 1923.888672 1313.033203 1924.083984 L 1313.609375 1924.660156 L 1311.167969 1927.101563 L 1310.591797 1926.525391 C 1310.396484 1926.330078 1310.367188 1926.251953 1310.376953 1925.988281 L 1310.445313 1925.011719 L 1308.951172 1923.527344 L 1307.427734 1923.78125 C 1307.105469 1923.849609 1306.958984 1923.820313 1306.714844 1923.585938 L 1304.712891 1921.583984 C 1304.458984 1921.349609 1304.429688 1921.183594 1304.585938 1920.8125 L 1305.464844 1918.722656 C 1303.902344 1917.267578 1301.871094 1916.642578 1299.839844 1917.238281 C 1299.683594 1917.277344 1299.625 1917.150391 1299.751953 1917.042969 Z"/>
        </g>
        <text id="Exporting" xml:space="preserve" x="1288" y="1955" font-family="Helvetica" font-size="13" font-weight="700" fill="#000000">Exporting</text>
        <text id="Symbols-should-be-outlined" xml:space="preserve" x="1288" y="1973" font-family="Helvetica" font-size="13" fill="#000000">Symbols should be outlined when exporting to ensure the</text>
        <text id="design-is-preserved-when" xml:space="preserve" x="1288" y="1991" font-family="Helvetica" font-size="13" fill="#000000">design is preserved when submitting to Xcode.</text>
        <text id="template-version" xml:space="preserve" x="2949.414063" y="1935" font-family="Helvetica" font-size="13" fill="#000000">Template v.4.0</text>
        <text id="Requires-Xcode-14-or" xml:space="preserve" x="2862.45752" y="1953" font-family="Helvetica" font-size="13" fill="#000000">Requires Xcode 14 or greater</text>
        <text id="Generated-from-Patreon" xml:space="preserve" x="2892.812012" y="1971" font-family="Helvetica" font-size="13" fill="#000000">Generated from Patreon</text>
        <text id="Typeset-at-100-points" xml:space="preserve" x="2909.411133" y="1989" font-family="Helvetica" font-size="13" fill="#000000">Typeset at 100 points</text>
        <text id="Small" xml:space="preserve" x="262" y="728" font-family="Helvetica" font-size="13" fill="#000000">Small</text>
        <text id="text1" xml:space="preserve" x="262" y="1158" font-family="Helvetica" font-size="13" fill="#000000">Medium</text>
        <text id="Large" xml:space="preserve" x="262" y="1588" font-family="Helvetica" font-size="13" fill="#000000">Large</text>
    </g>
    <g id="Guides">
        <g id="H-reference">
            <path id="path9" fill="#27aae1" stroke="none" d="M 339.993652 696 L 342.637756 696 L 368.328094 628.867676 L 369.030304 628.867676 L 369.030304 625.541016 L 367.122589 625.541016 Z M 350.688507 671.520142 L 385.981506 671.520142 L 385.231506 669.271484 L 351.438507 669.271484 Z M 394.119598 696 L 396.763702 696 L 369.638214 625.541016 L 368.432587 625.541016 L 368.432587 628.867676 Z"/>
        </g>
        <path id="Baseline-S" fill="none" stroke="#27aae1" stroke-width="0.5" d="M 263 696 L 3036 696"/>
        <path id="Capline-S" fill="none" stroke="#27aae1" stroke-width="0.5" d="M 263 625.541016 L 3036 625.541016"/>
        <g id="g5">
            <path id="path10" fill="#27aae1" stroke="none" d="M 339.993652 1126 L 342.637756 1126 L 368.328094 1058.867676 L 369.030304 1058.867676 L 369.030304 1055.541016 L 367.122589 1055.541016 Z M 350.688507 1101.520142 L 385.981506 1101.520142 L 385.231506 1099.271484 L 351.438507 1099.271484 Z M 394.119598 1126 L 396.763702 1126 L 369.638214 1055.541016 L 368.432587 1055.541016 L 368.432587 1058.867676 Z"/>
        </g>
        <path id="Baseline-M" fill="none" stroke="#27aae1" stroke-width="0.5" d="M 263 1126 L 3036 1126"/>
        <path id="Capline-M" fill="none" stroke="#27aae1" stroke-width="0.5" d="M 263 1055.540039 L 3036 1055.540039"/>
        <g id="g6">
            <path id="path11" fill="#27aae1" stroke="none" d="M 339.993652 1556 L 342.637756 1556 L 368.328094 1488.867676 L 369.030304 1488.867676 L 369.030304 1485.541016 L 367.122589 1485.541016 Z M 350.688507 1531.52002 L 385.981506 1531.52002 L 385.231506 1529.271484 L 351.438507 1529.271484 Z M 394.119598 1556 L 396.763702 1556 L 369.638214 1485.541016 L 368.432587 1485.541016 L 368.432587 1488.867676 Z"/>
        </g>
        <path id="Baseline-L" fill="none" stroke="#27aae1" stroke-width="0.5" d="M 263 1556 L 3036 1556"/>
        <path id="Capline-L" fill="none" stroke="#27aae1" stroke-width="0.5" d="M 263 1485.540039 L 3036 1485.540039"/>
        <path id="left-margin-Regular-M" fill="none" stroke="#00aeef" stroke-width="0.5" d="M 1391.319946 1030.790039 L 1391.319946 1150.119995"/>
        <path id="right-margin-Regular-M" fill="none" stroke="#00aeef" stroke-width="0.5" d="M 1508.369995 1030.790039 L 1508.369995 1150.119995"/>
    </g>
    <g id="Symbols">
        <g id="Black-L">
            <path id="PATREONSYMBOL1BLACKRGB-Kopie-26" fill="#000000" stroke="none" d="M 2993.382568 1492.953125 C 2993.359131 1475.970947 2980.133057 1462.052734 2964.615234 1457.030762 C 2945.344971 1450.794556 2919.929443 1451.698486 2901.528809 1460.380371 C 2879.226563 1470.904663 2872.220703 1493.958008 2871.959717 1516.949829 C 2871.745361 1535.853027 2873.631836 1585.640747 2901.7146 1585.995361 C 2922.581055 1586.260132 2925.687988 1559.373169 2935.342773 1546.424072 C 2942.211914 1537.211426 2951.056641 1534.609375 2961.944092 1531.914795 C 2980.656494 1527.283203 2993.409668 1512.515259 2993.382568 1492.953125 Z"/>
        </g>
        <g id="Heavy-L">
            <path id="PATREONSYMBOL1BLACKRGB-Kopie-25" fill="#000000" stroke="none" d="M 2695.556396 1493.352295 C 2695.533447 1476.625488 2682.506104 1462.916504 2667.22168 1457.970093 C 2648.241211 1451.827637 2623.208008 1452.718018 2605.083984 1461.269409 C 2583.117188 1471.635376 2576.216553 1494.342041 2575.959473 1516.988037 C 2575.748291 1535.607178 2577.606689 1584.645996 2605.26709 1584.995361 C 2625.81958 1585.256226 2628.879883 1558.77356 2638.389404 1546.019287 C 2645.155273 1536.945068 2653.866943 1534.38208 2664.59082 1531.728027 C 2683.021729 1527.166138 2695.583252 1512.620239 2695.556396 1493.352295 Z"/>
        </g>
        <g id="Bold-L">
            <path id="PATREONSYMBOL1BLACKRGB-Kopie-24" fill="#000000" stroke="none" d="M 2398.730469 1493.751465 C 2398.707764 1477.280029 2385.879395 1463.780396 2370.828125 1458.909424 C 2352.137451 1452.86084 2327.486328 1453.737549 2309.638916 1462.158447 C 2288.007568 1472.366089 2281.212402 1494.726074 2280.959229 1517.026367 C 2280.751221 1535.361206 2282.581299 1583.651367 2309.819336 1583.995361 C 2330.058105 1584.252197 2333.071777 1558.173828 2342.436035 1545.614258 C 2349.098633 1536.678711 2357.677246 1534.154785 2368.237305 1531.54126 C 2386.386963 1527.049072 2398.756592 1512.72522 2398.730469 1493.751465 Z"/>
        </g>
        <g id="Semibold-L">
            <path id="PATREONSYMBOL1BLACKRGB-Kopie-23" fill="#000000" stroke="none" d="M 2100.904297 1494.150635 C 2100.881836 1477.93457 2088.252441 1464.644287 2073.43457 1459.848877 C 2055.033691 1453.893921 2030.764893 1454.75708 2013.194214 1463.047363 C 1991.898071 1473.096802 1985.208252 1495.110107 1984.958984 1517.064697 C 1984.754395 1535.115234 1986.555908 1582.656738 2013.371704 1582.995483 C 2033.296631 1583.248291 2036.26355 1557.574219 2045.482788 1545.209473 C 2052.041992 1536.412354 2060.487549 1533.92749 2070.884033 1531.354614 C 2088.752197 1526.931885 2100.930176 1512.8302 2100.904297 1494.150635 Z"/>
        </g>
        <g id="Medium-L">
            <path id="PATREONSYMBOL1BLACKRGB-Kopie-22" fill="#000000" stroke="none" d="M 1803.991211 1493.85022 C 1803.968994 1477.761841 1791.438965 1464.576172 1776.737793 1459.818481 C 1758.481812 1453.9104 1734.404053 1454.766846 1716.97168 1462.991821 C 1695.843384 1472.962158 1689.206177 1494.802246 1688.958862 1516.583984 C 1688.755859 1534.492188 1690.543213 1581.659424 1717.147949 1581.995483 C 1736.915894 1582.246338 1739.859375 1556.774414 1749.006104 1544.506958 C 1755.513794 1535.779053 1763.892822 1533.313965 1774.207275 1530.76123 C 1791.934814 1526.373413 1804.016846 1512.382813 1803.991211 1493.85022 Z"/>
        </g>
        <g id="Regular-L">
            <path id="PATREONSYMBOL1BLACKRGB-Kopie-21" fill="#000000" stroke="none" d="M 1506.165039 1494.24939 C 1506.143311 1478.416382 1493.812134 1465.439941 1479.344238 1460.757813 C 1461.378052 1454.943604 1437.682495 1455.786377 1420.526855 1463.880859 C 1399.733887 1473.692871 1393.202026 1495.186279 1392.958618 1516.622192 C 1392.758911 1534.246338 1394.517822 1580.664795 1420.700195 1580.995605 C 1440.154541 1581.242432 1443.05127 1556.174805 1452.052734 1544.102051 C 1458.457153 1535.512695 1466.703125 1533.08667 1476.854004 1530.574463 C 1494.300049 1526.256348 1506.190308 1512.487793 1506.165039 1494.24939 Z"/>
        </g>
        <g id="Light-L">
            <path id="PATREONSYMBOL1BLACKRGB-Kopie-20" fill="#000000" stroke="none" d="M 1208.338989 1494.648438 C 1208.317505 1479.070923 1196.185303 1466.303833 1181.950806 1461.697266 C 1164.274292 1455.976807 1140.960938 1456.805908 1124.082031 1464.769775 C 1103.62439 1474.423584 1097.197876 1495.570313 1096.958374 1516.660522 C 1096.761841 1534.000366 1098.492432 1579.670166 1124.252563 1579.995605 C 1143.393066 1580.238403 1146.243164 1555.575195 1155.099365 1543.697021 C 1161.400513 1535.246338 1169.51355 1532.859375 1179.50061 1530.387817 C 1196.665283 1526.13916 1208.36377 1512.592773 1208.338989 1494.648438 Z"/>
        </g>
        <g id="Thin-L">
            <path id="PATREONSYMBOL1BLACKRGB-Kopie-19" fill="#000000" stroke="none" d="M 911.512817 1495.047607 C 911.491699 1479.725464 899.55835 1467.167725 885.557251 1462.636475 C 868.170532 1457.009766 845.23938 1457.825439 828.637146 1465.658691 C 808.514893 1475.154297 802.193787 1495.954346 801.958191 1516.698853 C 801.764893 1533.754395 803.467102 1578.675537 828.804932 1578.995605 C 847.631592 1579.234497 850.434937 1554.975586 859.146057 1543.292236 C 865.343872 1534.97998 873.323853 1532.632202 883.147217 1530.20105 C 900.030579 1526.022217 911.537292 1512.697754 911.512817 1495.047607 Z"/>
        </g>
        <g id="Ultralight-L">
            <path id="PATREONSYMBOL1BLACKRGB-Kopie-18" fill="#000000" stroke="none" d="M 612.599792 1495.747314 C 612.578796 1480.552734 600.744934 1468.099609 586.860474 1463.606201 C 569.618652 1458.026367 546.878601 1458.835205 530.414734 1466.603271 C 510.460144 1476.019653 504.191711 1496.646362 503.958099 1517.218018 C 503.766388 1534.131348 505.454437 1578.678223 530.581116 1578.995605 C 549.250916 1579.232422 552.030884 1555.175781 560.669434 1543.589722 C 566.815552 1535.346802 574.729065 1533.018555 584.47052 1530.607666 C 601.213196 1526.463623 612.624023 1513.250244 612.599792 1495.747314 Z"/>
        </g>
        <g id="Black-M">
            <path id="PATREONSYMBOL1BLACKRGB-Kopie-17" fill="#000000" stroke="none" d="M 2979.903809 1067.240967 C 2979.885498 1053.96167 2969.543213 1043.078247 2957.408936 1039.151245 C 2942.340576 1034.274902 2922.466797 1034.981689 2908.078369 1041.770508 C 2890.638916 1050 2885.160645 1068.026733 2884.956543 1086.005249 C 2884.789063 1100.786743 2886.26416 1139.718506 2908.223633 1139.99585 C 2924.540039 1140.202881 2926.969727 1119.178467 2934.519287 1109.052856 C 2939.890869 1101.848999 2946.806641 1099.814209 2955.320313 1097.707275 C 2969.952637 1094.085571 2979.925049 1082.537598 2979.903809 1067.240967 Z"/>
        </g>
        <g id="Heavy-M">
            <path id="PATREONSYMBOL1BLACKRGB-Kopie-16" fill="#000000" stroke="none" d="M 2683.990723 1068.940552 C 2683.972656 1055.78894 2673.72998 1045.010132 2661.712158 1041.120972 C 2646.788574 1036.291382 2627.106201 1036.991455 2612.855713 1043.715088 C 2595.584229 1051.865356 2590.158691 1069.71875 2589.956299 1087.524414 C 2589.790527 1102.163818 2591.251465 1140.721191 2612.999756 1140.99585 C 2629.159424 1141.200928 2631.565674 1120.378662 2639.042725 1110.350464 C 2644.362549 1103.215698 2651.211914 1101.200562 2659.643555 1099.113892 C 2674.135254 1095.526978 2684.011719 1084.09021 2683.990723 1068.940552 Z"/>
        </g>
        <g id="Bold-M">
            <path id="PATREONSYMBOL1BLACKRGB-Kopie-15" fill="#000000" stroke="none" d="M 2386.164551 1070.339722 C 2386.146973 1057.443481 2376.103027 1046.874023 2364.318604 1043.060303 C 2349.684814 1038.324585 2330.384521 1039.010986 2316.410889 1045.604004 C 2299.474854 1053.596191 2294.154541 1071.102783 2293.956299 1088.562744 C 2293.793457 1102.917847 2295.226074 1140.726563 2316.552246 1140.99585 C 2332.397949 1141.196899 2334.757568 1120.779053 2342.089355 1110.945557 C 2347.305908 1103.949341 2354.022217 1101.973389 2362.290283 1099.927124 C 2376.500488 1096.409912 2386.185303 1085.19519 2386.164551 1070.339722 Z"/>
        </g>
        <g id="Semibold-M">
            <path id="PATREONSYMBOL1BLACKRGB-Kopie-14" fill="#000000" stroke="none" d="M 2088.251709 1070.039307 C 2088.233887 1057.270752 2078.289551 1046.805908 2066.621826 1043.030029 C 2052.133057 1038.341064 2033.023804 1039.020752 2019.188599 1045.548462 C 2002.420044 1053.461548 1997.152344 1070.7948 1996.956055 1088.081909 C 1996.795044 1102.294922 1998.213501 1139.729248 2019.328369 1139.99585 C 2035.017212 1140.194946 2037.353394 1119.979126 2044.612671 1110.243042 C 2049.777588 1103.316162 2056.42749 1101.359741 2064.613525 1099.33374 C 2078.683105 1095.851318 2088.271973 1084.747681 2088.251709 1070.039307 Z"/>
        </g>
        <g id="Medium-M">
            <path id="PATREONSYMBOL1BLACKRGB-Kopie-13" fill="#000000" stroke="none" d="M 1792.338501 1069.738892 C 1792.321167 1057.098022 1782.476074 1046.737793 1770.925171 1042.999634 C 1756.581177 1038.357666 1737.662964 1039.030518 1723.966064 1045.493042 C 1707.365234 1053.326904 1702.150269 1070.486816 1701.955933 1087.601074 C 1701.796509 1101.671875 1703.200806 1138.731934 1724.104492 1138.99585 C 1739.636597 1139.192993 1741.949341 1119.179321 1749.135986 1109.540649 C 1754.249146 1102.682983 1760.832642 1100.746094 1768.93689 1098.740356 C 1782.865723 1095.292847 1792.358765 1084.300171 1792.338501 1069.738892 Z"/>
        </g>
        <g id="Regular-M">
            <path id="PATREONSYMBOL1BLACKRGB-Kopie-12" fill="#000000" stroke="none" d="M 1493.512451 1071.138062 C 1493.495361 1058.752563 1483.849243 1048.601685 1472.531616 1044.938965 C 1458.477417 1040.390747 1439.941406 1041.050049 1426.52124 1047.381958 C 1410.255737 1055.057617 1405.14624 1071.870972 1404.955811 1088.639404 C 1404.799561 1102.426025 1406.175415 1138.737305 1426.65686 1138.995972 C 1441.875122 1139.188965 1444.141113 1119.579712 1451.182617 1110.135742 C 1456.192505 1103.416626 1462.643066 1101.518799 1470.583618 1099.553711 C 1484.230957 1096.175781 1493.532227 1085.405151 1493.512451 1071.138062 Z"/>
        </g>
        <g id="Light-M">
            <path id="PATREONSYMBOL1BLACKRGB-Kopie-11" fill="#000000" stroke="none" d="M 1196.599365 1070.837646 C 1196.58252 1058.579834 1187.035767 1048.533569 1175.834839 1044.908691 C 1161.925537 1040.407349 1143.580566 1041.059814 1130.298828 1047.326416 C 1114.20105 1054.922974 1109.144165 1071.562988 1108.955688 1088.158569 C 1108.801025 1101.802979 1110.162842 1137.739868 1130.432983 1137.995972 C 1145.494385 1138.187012 1147.737061 1118.779907 1154.705933 1109.433228 C 1159.664185 1102.783447 1166.048218 1100.905151 1173.90686 1098.960327 C 1187.413574 1095.617188 1196.618896 1084.957642 1196.599365 1070.837646 Z"/>
        </g>
        <g id="Thin-M">
            <path id="PATREONSYMBOL1BLACKRGB-Kopie-10" fill="#000000" stroke="none" d="M 898.773254 1071.236816 C 898.756714 1059.234375 889.408936 1049.397461 878.441345 1045.848022 C 864.821777 1041.44043 846.85907 1042.079346 833.853943 1048.215454 C 818.091553 1055.653687 813.139954 1071.947021 812.955444 1088.196777 C 812.804016 1101.557007 814.137451 1136.745239 833.985352 1136.995972 C 848.732971 1137.183105 850.928894 1118.180298 857.752625 1109.02832 C 862.607544 1102.51709 868.858582 1100.677979 876.553528 1098.77356 C 889.778809 1095.500122 898.792358 1085.062622 898.773254 1071.236816 Z"/>
        </g>
        <g id="Ultralight-M">
            <path id="PATREONSYMBOL1BLACKRGB-Kopie-9" fill="#000000" stroke="none" d="M 601.860168 1070.936401 C 601.843811 1059.061646 592.595459 1049.329346 581.744568 1045.817749 C 568.269897 1041.457031 550.498291 1042.089111 537.631531 1048.159912 C 522.036804 1055.519043 517.137939 1071.639038 516.955383 1087.715942 C 516.805542 1100.934082 518.124756 1135.747925 537.761536 1135.995972 C 552.352234 1136.181152 554.524841 1117.380493 561.27594 1108.325806 C 566.079224 1101.883911 572.263733 1100.064331 579.876831 1098.180176 C 592.961426 1094.941528 601.87915 1084.615112 601.860168 1070.936401 Z"/>
        </g>
        <g id="Black-S">
            <path id="PATREONSYMBOL1BLACKRGB-Kopie-8" fill="#000000" stroke="none" d="M 2970.729492 643.932129 C 2970.714844 633.334229 2962.461182 624.648438 2952.776855 621.514404 C 2940.751221 617.622681 2924.890381 618.186768 2913.407227 623.604858 C 2899.489258 630.172607 2895.117188 644.559326 2894.954346 658.907471 C 2894.820557 670.704346 2895.998047 701.77478 2913.523193 701.996094 C 2926.545166 702.161377 2928.484131 685.382202 2934.509277 677.30127 C 2938.796143 671.552002 2944.31543 669.928101 2951.110107 668.246582 C 2962.787598 665.356201 2970.746582 656.140137 2970.729492 643.932129 Z"/>
        </g>
        <g id="Heavy-S">
            <path id="PATREONSYMBOL1BLACKRGB-Kopie-7" fill="#000000" stroke="none" d="M 2673.816406 643.631714 C 2673.802002 633.161499 2665.647705 624.580322 2656.080078 621.484131 C 2644.199219 617.63916 2628.529541 618.196533 2617.184814 623.549316 C 2603.43457 630.037964 2599.115234 644.251343 2598.954102 658.426636 C 2598.822021 670.081299 2599.985352 700.777466 2617.299316 700.996094 C 2630.164307 701.159424 2632.080078 684.582397 2638.032471 676.598877 C 2642.267822 670.918823 2647.720703 669.314453 2654.43335 667.653198 C 2665.970215 664.797607 2673.833252 655.692627 2673.816406 643.631714 Z"/>
        </g>
        <g id="Bold-S">
            <path id="PATREONSYMBOL1BLACKRGB-Kopie-6" fill="#000000" stroke="none" d="M 2375.990479 644.030884 C 2375.976318 633.81604 2368.020752 625.444214 2358.686768 622.423462 C 2347.095459 618.672363 2331.808105 619.216064 2320.73999 624.438232 C 2307.325195 630.768677 2303.111084 644.635376 2302.953857 658.464966 C 2302.825195 669.835327 2303.959961 699.782837 2320.851807 699.996216 C 2333.402832 700.155396 2335.271729 683.982788 2341.079102 676.19397 C 2345.211182 670.652466 2350.531006 669.08728 2357.080078 667.466431 C 2368.335449 664.680542 2376.006592 655.797607 2375.990479 644.030884 Z"/>
        </g>
        <g id="Semibold-S">
            <path id="PATREONSYMBOL1BLACKRGB-Kopie-5" fill="#000000" stroke="none" d="M 2079.077393 644.730469 C 2079.063477 634.643311 2071.207275 626.376099 2061.98999 623.393188 C 2050.543701 619.688843 2035.447266 620.22583 2024.517456 625.382813 C 2011.270386 631.634033 2007.108887 645.327393 2006.953857 658.984131 C 2006.826538 670.212402 2007.947266 699.785522 2024.62793 699.996216 C 2037.022217 700.153442 2038.867676 684.182983 2044.602539 676.491455 C 2048.682861 671.019287 2053.936279 669.473633 2060.40332 667.873169 C 2071.518066 665.12207 2079.093506 656.350098 2079.077393 644.730469 Z"/>
        </g>
        <g id="Medium-S">
            <path id="PATREONSYMBOL1BLACKRGB-Kopie-4" fill="#000000" stroke="none" d="M 1782.077271 644.730469 C 1782.063477 634.643311 1774.207275 626.376099 1764.989868 623.393188 C 1753.543701 619.688843 1738.447266 620.22583 1727.517456 625.382813 C 1714.270386 631.634033 1710.108887 645.327393 1709.953857 658.984131 C 1709.826538 670.212402 1710.947266 699.785522 1727.62793 699.996216 C 1740.022217 700.153442 1741.867676 684.182983 1747.602539 676.491455 C 1751.682739 671.019287 1756.936279 669.473633 1763.40332 667.873169 C 1774.518188 665.12207 1782.093384 656.350098 1782.077271 644.730469 Z"/>
        </g>
        <g id="Regular-S">
            <path id="PATREONSYMBOL1BLACKRGB-Kopie-3" fill="#000000" stroke="none" d="M 1485.164307 644.430054 C 1485.150513 634.470581 1477.393921 626.307983 1468.293091 623.362793 C 1456.991821 619.705444 1442.086548 620.235596 1431.295044 625.327271 C 1418.215576 631.49939 1414.106934 645.019409 1413.953735 658.503296 C 1413.828125 669.589478 1414.93457 698.788208 1431.404175 698.996216 C 1443.641479 699.151489 1445.463623 683.383179 1451.125854 675.78894 C 1455.154419 670.385986 1460.341431 668.859985 1466.726563 667.279785 C 1477.700806 664.563477 1485.180176 655.902588 1485.164307 644.430054 Z"/>
        </g>
        <g id="Light-S">
            <path id="PATREONSYMBOL1BLACKRGB-Kopie-2" fill="#000000" stroke="none" d="M 1187.338135 644.829224 C 1187.324707 635.125122 1179.766968 627.171875 1170.899536 624.302124 C 1159.888062 620.738647 1145.36499 621.255127 1134.85022 626.216187 C 1122.106079 632.230103 1118.102783 645.403442 1117.953613 658.541626 C 1117.831055 669.343506 1118.90918 697.793579 1134.956421 697.996216 C 1146.880005 698.147461 1148.655518 682.783569 1154.172485 675.384033 C 1158.097778 670.119629 1163.151855 668.63269 1169.373291 667.093018 C 1180.06604 664.446411 1187.353638 656.007568 1187.338135 644.829224 Z"/>
        </g>
        <g id="Thin-S">
            <path id="PATREONSYMBOL1BLACKRGB-Kopie" fill="#000000" stroke="none" d="M 890.512024 645.228394 C 890.499023 635.779663 883.140076 628.035645 874.506042 625.241455 C 863.784241 621.771729 849.643372 622.274658 839.405334 627.105225 C 826.996643 632.960815 823.098572 645.787476 822.953369 658.579956 C 822.834106 669.097534 823.88385 696.79895 839.508789 696.996216 C 851.118591 697.143555 852.847351 682.183838 858.219177 674.979126 C 862.041138 669.853271 866.962158 668.405518 873.019897 666.90625 C 883.431274 664.329346 890.5271 656.112549 890.512024 645.228394 Z"/>
        </g>
        <g id="Ultralight-S">
            <path id="PATREONSYMBOL1BLACKRGB" fill="#000000" stroke="none" d="M 591.598938 645.927979 C 591.586121 636.606934 584.32666 628.967651 575.809326 626.211182 C 565.232422 622.78833 551.282593 623.284424 541.182922 628.049683 C 528.941895 633.826172 525.096558 646.479492 524.953247 659.099121 C 524.835632 669.474609 525.871155 696.801636 541.284973 696.996216 C 552.737915 697.141602 554.443237 682.384033 559.742493 675.276733 C 563.512817 670.220093 568.367371 668.79187 574.343201 667.312988 C 584.613953 664.770752 591.613831 656.665039 591.598938 645.927979 Z"/>
        </g>
    </g>
</svg>
