<?xml version="1.0" encoding="UTF-8"?>
<!--Generator: Apple Native CoreSVG 232.5-->
<!DOCTYPE svg
PUBLIC "-//W3C//DTD SVG 1.1//EN"
       "http://www.w3.org/Graphics/SVG/1.1/DTD/svg11.dtd">
<svg version="1.1" xmlns="http://www.w3.org/2000/svg" xmlns:xlink="http://www.w3.org/1999/xlink" width="3300" height="2200">
 <!--glyph: "", point size: 100.0, font version: "19.2d2e1", template writer version: "128"-->
 <style>.monochrome-0 {-sfsymbols-motion-group:0}

.multicolor-0:tintColor {-sfsymbols-motion-group:0}

.hierarchical-0:primary {-sfsymbols-motion-group:0}

.SFSymbolsPreviewWireframe {fill:none;opacity:1.0;stroke:black;stroke-width:0.5}
</style>
 <g id="Notes">
  <rect height="2200" id="artboard" style="fill:white;opacity:1" width="3300" x="0" y="0"/>
  <line style="fill:none;stroke:black;opacity:1;stroke-width:0.5;" x1="263" x2="3036" y1="292" y2="292"/>
  <text style="stroke:none;fill:black;font-family:sans-serif;font-size:13;font-weight:bold;" transform="matrix(1 0 0 1 263 322)">Weight/Scale Variations</text>
  <text style="stroke:none;fill:black;font-family:sans-serif;font-size:13;text-anchor:middle;" transform="matrix(1 0 0 1 559.711 322)">Ultralight</text>
  <text style="stroke:none;fill:black;font-family:sans-serif;font-size:13;text-anchor:middle;" transform="matrix(1 0 0 1 856.422 322)">Thin</text>
  <text style="stroke:none;fill:black;font-family:sans-serif;font-size:13;text-anchor:middle;" transform="matrix(1 0 0 1 1153.13 322)">Light</text>
  <text style="stroke:none;fill:black;font-family:sans-serif;font-size:13;text-anchor:middle;" transform="matrix(1 0 0 1 1449.84 322)">Regular</text>
  <text style="stroke:none;fill:black;font-family:sans-serif;font-size:13;text-anchor:middle;" transform="matrix(1 0 0 1 1746.56 322)">Medium</text>
  <text style="stroke:none;fill:black;font-family:sans-serif;font-size:13;text-anchor:middle;" transform="matrix(1 0 0 1 2043.27 322)">Semibold</text>
  <text style="stroke:none;fill:black;font-family:sans-serif;font-size:13;text-anchor:middle;" transform="matrix(1 0 0 1 2339.98 322)">Bold</text>
  <text style="stroke:none;fill:black;font-family:sans-serif;font-size:13;text-anchor:middle;" transform="matrix(1 0 0 1 2636.69 322)">Heavy</text>
  <text style="stroke:none;fill:black;font-family:sans-serif;font-size:13;text-anchor:middle;" transform="matrix(1 0 0 1 2933.4 322)">Black</text>
  <line style="fill:none;stroke:black;opacity:1;stroke-width:0.5;" x1="263" x2="3036" y1="1903" y2="1903"/>
  <g transform="matrix(0.2 0 0 0.2 263 1933)">
   <path d="m46.2402 4.15039c21.5332 0 39.4531-17.8711 39.4531-39.4043s-17.9688-39.4043-39.502-39.4043c-21.4844 0-39.3555 17.8711-39.3555 39.4043s17.9199 39.4043 39.4043 39.4043Zm0-7.42188c-17.7246 0-31.8848-14.209-31.8848-31.9824s14.1113-31.9824 31.8359-31.9824c17.7734 0 32.0312 14.209 32.0312 31.9824s-14.209 31.9824-31.9824 31.9824Zm-17.9688-31.9824c0 2.14844 1.51367 3.61328 3.75977 3.61328h10.498v10.5957c0 2.19727 1.46484 3.71094 3.61328 3.71094 2.24609 0 3.71094-1.51367 3.71094-3.71094v-10.5957h10.5957c2.19727 0 3.71094-1.46484 3.71094-3.61328 0-2.19727-1.51367-3.71094-3.71094-3.71094h-10.5957v-10.5469c0-2.24609-1.46484-3.75977-3.71094-3.75977-2.14844 0-3.61328 1.51367-3.61328 3.75977v10.5469h-10.498c-2.24609 0-3.75977 1.51367-3.75977 3.71094Z"/>
  </g>
  <g transform="matrix(0.2 0 0 0.2 281.506 1933)">
   <path d="m58.5449 14.5508c27.2461 0 49.8047-22.6074 49.8047-49.8047 0-27.2461-22.6074-49.8047-49.8535-49.8047-27.1973 0-49.7559 22.5586-49.7559 49.8047 0 27.1973 22.6074 49.8047 49.8047 49.8047Zm0-8.30078c-23.0469 0-41.4551-18.457-41.4551-41.5039s18.3594-41.5039 41.4062-41.5039 41.5527 18.457 41.5527 41.5039-18.457 41.5039-41.5039 41.5039Zm-22.6562-41.5039c0 2.39258 1.66016 4.00391 4.15039 4.00391h14.3555v14.4043c0 2.44141 1.66016 4.15039 4.05273 4.15039 2.44141 0 4.15039-1.66016 4.15039-4.15039v-14.4043h14.4043c2.44141 0 4.15039-1.61133 4.15039-4.00391 0-2.44141-1.70898-4.15039-4.15039-4.15039h-14.4043v-14.3555c0-2.49023-1.70898-4.19922-4.15039-4.19922-2.39258 0-4.05273 1.70898-4.05273 4.19922v14.3555h-14.3555c-2.49023 0-4.15039 1.70898-4.15039 4.15039Z"/>
  </g>
  <g transform="matrix(0.2 0 0 0.2 304.924 1933)">
   <path d="m74.8535 28.3203c34.8145 0 63.623-28.8086 63.623-63.5742 0-34.8145-28.8574-63.623-63.6719-63.623-34.7656 0-63.5254 28.8086-63.5254 63.623 0 34.7656 28.8086 63.5742 63.5742 63.5742Zm0-9.08203c-30.1758 0-54.4434-24.3164-54.4434-54.4922 0-30.2246 24.2188-54.4922 54.3945-54.4922 30.2246 0 54.541 24.2676 54.541 54.4922 0 30.1758-24.2676 54.4922-54.4922 54.4922Zm-28.8574-54.4922c0 2.58789 1.85547 4.39453 4.58984 4.39453h19.7266v19.7754c0 2.68555 1.85547 4.58984 4.44336 4.58984 2.68555 0 4.54102-1.85547 4.54102-4.58984v-19.7754h19.7754c2.68555 0 4.58984-1.80664 4.58984-4.39453 0-2.73438-1.85547-4.58984-4.58984-4.58984h-19.7754v-19.7266c0-2.73438-1.85547-4.63867-4.54102-4.63867-2.58789 0-4.44336 1.9043-4.44336 4.63867v19.7266h-19.7266c-2.73438 0-4.58984 1.85547-4.58984 4.58984Z"/>
  </g>
  <text style="stroke:none;fill:black;font-family:sans-serif;font-size:13;font-weight:bold;" transform="matrix(1 0 0 1 263 1953)">Design Variations</text>
  <text style="stroke:none;fill:black;font-family:sans-serif;font-size:13;" transform="matrix(1 0 0 1 263 1971)">Symbols are supported in up to nine weights and three scales.</text>
  <text style="stroke:none;fill:black;font-family:sans-serif;font-size:13;" transform="matrix(1 0 0 1 263 1989)">For optimal layout with text and other symbols, vertically align</text>
  <text style="stroke:none;fill:black;font-family:sans-serif;font-size:13;" transform="matrix(1 0 0 1 263 2007)">symbols with the adjacent text.</text>
  <line style="fill:none;stroke:#00AEEF;stroke-width:0.5;opacity:1.0;" x1="776" x2="776" y1="1919" y2="1933"/>
  <g transform="matrix(0.2 0 0 0.2 776 1933)">
   <path d="m16.5527 0.78125c2.58789 0 3.85742-0.976562 4.78516-3.71094l6.29883-17.2363h28.8086l6.29883 17.2363c0.927734 2.73438 2.19727 3.71094 4.73633 3.71094 2.58789 0 4.24805-1.5625 4.24805-4.00391 0-0.830078-0.146484-1.61133-0.537109-2.63672l-22.9004-60.9863c-1.12305-2.97852-3.125-4.49219-6.25-4.49219-3.02734 0-5.07812 1.46484-6.15234 4.44336l-22.9004 61.084c-0.390625 1.02539-0.537109 1.80664-0.537109 2.63672 0 2.44141 1.5625 3.95508 4.10156 3.95508Zm13.4766-28.3691 11.8652-32.8613h0.244141l11.8652 32.8613Z"/>
  </g>
  <line style="fill:none;stroke:#00AEEF;stroke-width:0.5;opacity:1.0;" x1="792.836" x2="792.836" y1="1919" y2="1933"/>
  <text style="stroke:none;fill:black;font-family:sans-serif;font-size:13;font-weight:bold;" transform="matrix(1 0 0 1 776 1953)">Margins</text>
  <text style="stroke:none;fill:black;font-family:sans-serif;font-size:13;" transform="matrix(1 0 0 1 776 1971)">Leading and trailing margins on the left and right side of each symbol</text>
  <text style="stroke:none;fill:black;font-family:sans-serif;font-size:13;" transform="matrix(1 0 0 1 776 1989)">can be adjusted by modifying the x-location of the margin guidelines.</text>
  <text style="stroke:none;fill:black;font-family:sans-serif;font-size:13;" transform="matrix(1 0 0 1 776 2007)">Modifications are automatically applied proportionally to all</text>
  <text style="stroke:none;fill:black;font-family:sans-serif;font-size:13;" transform="matrix(1 0 0 1 776 2025)">scales and weights.</text>
  <g transform="matrix(0.2 0 0 0.2 1289 1933)">
   <path d="m14.209 9.32617 8.49609 8.54492c4.29688 4.3457 9.22852 4.05273 13.8672-1.07422l53.4668-58.9355-4.83398-4.88281-53.0762 58.3984c-1.75781 2.00195-3.41797 2.49023-5.76172 0.146484l-5.85938-5.81055c-2.34375-2.29492-1.80664-4.00391 0.195312-5.81055l57.373-54.0039-4.88281-4.83398-57.959 54.4434c-4.93164 4.58984-5.32227 9.47266-1.02539 13.8184Zm32.0801-90.9668c-2.09961 2.05078-2.24609 4.93164-1.07422 6.88477 1.17188 1.80664 3.4668 2.97852 6.68945 2.14844 7.32422-1.70898 14.9414-2.00195 22.0703 2.68555l-2.92969 7.27539c-1.70898 4.15039-0.830078 7.08008 1.85547 9.81445l11.4746 11.5723c2.44141 2.44141 4.49219 2.53906 7.32422 2.05078l5.32227-0.976562 3.32031 3.36914-0.195312 2.7832c-0.195312 2.49023 0.439453 4.39453 2.88086 6.78711l3.80859 3.71094c2.39258 2.39258 5.46875 2.53906 7.8125 0.195312l14.5508-14.5996c2.34375-2.34375 2.24609-5.32227-0.146484-7.71484l-3.85742-3.80859c-2.39258-2.39258-4.24805-3.17383-6.64062-2.97852l-2.88086 0.244141-3.22266-3.17383 1.2207-5.61523c0.634766-2.83203-0.146484-5.0293-3.07617-7.95898l-10.9863-10.9375c-16.6992-16.6016-38.8672-16.2109-53.3203-1.75781Zm7.4707 1.85547c12.1582-8.88672 28.6133-7.37305 39.7461 3.75977l12.1582 12.0605c1.17188 1.17188 1.36719 2.09961 1.02539 3.80859l-1.61133 7.42188 7.51953 7.42188 4.93164-0.292969c1.26953-0.0488281 1.66016 0.0488281 2.63672 1.02539l2.88086 2.88086-12.207 12.207-2.88086-2.88086c-0.976562-0.976562-1.12305-1.36719-1.07422-2.68555l0.341797-4.88281-7.4707-7.42188-7.61719 1.26953c-1.61133 0.341797-2.34375 0.195312-3.56445-0.976562l-10.0098-10.0098c-1.26953-1.17188-1.41602-2.00195-0.634766-3.85742l4.39453-10.4492c-7.8125-7.27539-17.9688-10.4004-28.125-7.42188-0.78125 0.195312-1.07422-0.439453-0.439453-0.976562Z"/>
  </g>
  <text style="stroke:none;fill:black;font-family:sans-serif;font-size:13;font-weight:bold;" transform="matrix(1 0 0 1 1289 1953)">Exporting</text>
  <text style="stroke:none;fill:black;font-family:sans-serif;font-size:13;" transform="matrix(1 0 0 1 1289 1971)">Symbols should be outlined when exporting to ensure the</text>
  <text style="stroke:none;fill:black;font-family:sans-serif;font-size:13;" transform="matrix(1 0 0 1 1289 1989)">design is preserved when submitting to Xcode.</text>
  <text id="template-version" style="stroke:none;fill:black;font-family:sans-serif;font-size:13;text-anchor:end;" transform="matrix(1 0 0 1 3036 1933)">Template v.5.0</text>
  <text style="stroke:none;fill:black;font-family:sans-serif;font-size:13;text-anchor:end;" transform="matrix(1 0 0 1 3036 1951)">Requires Xcode 15 or greater</text>
  <text id="descriptive-name" style="stroke:none;fill:black;font-family:sans-serif;font-size:13;text-anchor:end;" transform="matrix(1 0 0 1 3036 1969)">Generated from tiktok</text>
  <text style="stroke:none;fill:black;font-family:sans-serif;font-size:13;text-anchor:end;" transform="matrix(1 0 0 1 3036 1987)">Typeset at 100.0 points</text>
  <text style="stroke:none;fill:black;font-family:sans-serif;font-size:13;" transform="matrix(1 0 0 1 263 726)">Small</text>
  <text style="stroke:none;fill:black;font-family:sans-serif;font-size:13;" transform="matrix(1 0 0 1 263 1156)">Medium</text>
  <text style="stroke:none;fill:black;font-family:sans-serif;font-size:13;" transform="matrix(1 0 0 1 263 1586)">Large</text>
 </g>
 <g id="Guides">
  <g id="H-reference" style="fill:#27AAE1;stroke:none;" transform="matrix(1 0 0 1 339 696)">
   <path d="M0.993654 0L3.63775 0L29.3281-67.1323L30.0303-67.1323L30.0303-70.459L28.1226-70.459ZM11.6885-24.4799L46.9815-24.4799L46.2315-26.7285L12.4385-26.7285ZM55.1196 0L57.7637 0L30.6382-70.459L29.4326-70.459L29.4326-67.1323Z"/>
  </g>
  <line id="Baseline-S" style="fill:none;stroke:#27AAE1;opacity:1;stroke-width:0.5;" x1="263" x2="3036" y1="696" y2="696"/>
  <line id="Capline-S" style="fill:none;stroke:#27AAE1;opacity:1;stroke-width:0.5;" x1="263" x2="3036" y1="625.541" y2="625.541"/>
  <g id="H-reference" style="fill:#27AAE1;stroke:none;" transform="matrix(1 0 0 1 339 1126)">
   <path d="M0.993654 0L3.63775 0L29.3281-67.1323L30.0303-67.1323L30.0303-70.459L28.1226-70.459ZM11.6885-24.4799L46.9815-24.4799L46.2315-26.7285L12.4385-26.7285ZM55.1196 0L57.7637 0L30.6382-70.459L29.4326-70.459L29.4326-67.1323Z"/>
  </g>
  <line id="Baseline-M" style="fill:none;stroke:#27AAE1;opacity:1;stroke-width:0.5;" x1="263" x2="3036" y1="1126" y2="1126"/>
  <line id="Capline-M" style="fill:none;stroke:#27AAE1;opacity:1;stroke-width:0.5;" x1="263" x2="3036" y1="1055.54" y2="1055.54"/>
  <g id="H-reference" style="fill:#27AAE1;stroke:none;" transform="matrix(1 0 0 1 339 1556)">
   <path d="M0.993654 0L3.63775 0L29.3281-67.1323L30.0303-67.1323L30.0303-70.459L28.1226-70.459ZM11.6885-24.4799L46.9815-24.4799L46.2315-26.7285L12.4385-26.7285ZM55.1196 0L57.7637 0L30.6382-70.459L29.4326-70.459L29.4326-67.1323Z"/>
  </g>
  <line id="Baseline-L" style="fill:none;stroke:#27AAE1;opacity:1;stroke-width:0.5;" x1="263" x2="3036" y1="1556" y2="1556"/>
  <line id="Capline-L" style="fill:none;stroke:#27AAE1;opacity:1;stroke-width:0.5;" x1="263" x2="3036" y1="1485.54" y2="1485.54"/>
  <line id="left-margin-Regular-M" style="fill:none;stroke:#00AEEF;stroke-width:0.5;opacity:1.0;" x1="1392.45" x2="1392.45" y1="1030.79" y2="1150.12"/>
  <line id="right-margin-Regular-M" style="fill:none;stroke:#00AEEF;stroke-width:0.5;opacity:1.0;" x1="1507.24" x2="1507.24" y1="1030.79" y2="1150.12"/>
 </g>
 <g id="Symbols">
  <g id="Regular-M" transform="matrix(1 0 0 1 1392.45 1126)">
   <path class="monochrome-0 multicolor-0:tintColor hierarchical-0:primary SFSymbolsPreviewWireframe" d="M86.7724-60.7522C86.165-61.0662 85.5737-61.4103 85.0007-61.7834C83.3345-62.885 81.8068-64.183 80.4505-65.6495C77.0571-69.5324 75.7897-73.4716 75.3229-76.2296L75.3416-76.2296C74.9517-78.5188 75.1129-80 75.1373-80L59.6813-80L59.6813-20.2317C59.6813-19.4293 59.6813-18.6362 59.6476-17.8525C59.6476-17.755 59.6382-17.665 59.6326-17.56C59.6326-17.5169 59.6326-17.4719 59.6232-17.4269C59.6232-17.4156 59.6232-17.4044 59.6232-17.3931C59.2924-13.0384 56.8171-9.13351 53.0201-6.97615C51.0713-5.86741 48.8672-5.28582 46.6251-5.28873C39.4239-5.28873 33.5876-11.1609 33.5876-18.4131C33.5876-25.6652 39.4239-31.5374 46.6251-31.5374C47.9882-31.5387 49.343-31.3242 50.6391-30.9018L50.6578-46.6398C42.7033-47.6673 34.6816-45.3205 28.535-40.1676C25.871-37.8529 23.6314-35.0909 21.9169-32.0061C21.2645-30.8812 18.8029-26.3608 18.5048-19.0243C18.3173-14.8601 19.5678-10.546 20.164-8.76293L20.164-8.72543C20.5389-7.67549 21.9919-4.09254 24.3598-1.07207C26.2692 1.35081 28.5251 3.47918 31.0548 5.24449L31.0548 5.207L31.0923 5.24449C38.5746 10.3292 46.8707 9.99551 46.8707 9.99551C48.3068 9.93738 53.1176 9.99551 58.5808 7.40626C64.6402 4.53578 68.0899 0.259118 68.0899 0.259118C70.2937-2.29623 72.0461-5.20837 73.2718-8.35233C74.6705-12.029 75.1373-16.4388 75.1373-18.2012L75.1373-49.9096C75.3248-49.7971 77.822-48.1453 77.822-48.1453C77.822-48.1453 81.4198-45.8392 87.033-44.3374C91.0601-43.2687 96.4858-43.0437 96.4858-43.0437L96.4858-58.388C94.5847-58.1817 90.7245-58.7817 86.7724-60.7522Z"/>
  </g>
  <g id="Black-S" transform="matrix(1 0 0 1 2882.01 696)">
   <path class="monochrome-0 multicolor-0:tintColor hierarchical-0:primary SFSymbolsPreviewWireframe" d="M76.2668-57.0861C75.7528-57.3512 75.2525-57.6419 74.7676-57.9569C73.3577-58.8871 72.0651-59.9832 70.9175-61.2216C68.0461-64.5005 66.9737-67.8269 66.5787-70.1559L66.5946-70.1559C66.2646-72.089 66.401-73.3398 66.4217-73.3398L53.3435-73.3398L53.3435-22.8688C53.3435-22.1912 53.3435-21.5215 53.315-20.8597C53.315-20.7773 53.3071-20.7013 53.3023-20.6127C53.3023-20.5763 53.3023-20.5383 53.2944-20.5003C53.2944-20.4908 53.2944-20.4813 53.2944-20.4718C53.0144-16.7944 50.92-13.497 47.7071-11.6752C46.0582-10.7389 44.1931-10.2478 42.296-10.2503C36.2027-10.2503 31.2643-15.209 31.2643-21.3331C31.2643-27.4571 36.2027-32.4158 42.296-32.4158C43.4494-32.4169 44.5957-32.2358 45.6924-31.8791L45.7083-45.169C38.9775-46.0367 32.1899-44.0549 26.989-39.7036C24.7348-37.7489 22.8398-35.4166 21.3891-32.8117C20.837-31.8617 18.7541-28.0445 18.5018-21.8492C18.3432-18.3328 19.4013-14.6897 19.9058-13.1841L19.9058-13.1524C20.2231-12.2658 21.4525-9.24017 23.4561-6.68954C25.0717-4.64356 26.9806-2.84627 29.1211-1.35556L29.1211-1.38723L29.1528-1.35556C35.4841 2.93822 42.5038 2.65641 42.5038 2.65641C43.719 2.60732 47.7896 2.65641 52.4123 0.469931C57.5395-1.95403 60.4585-5.56543 60.4585-5.56543C62.3232-7.72328 63.806-10.1824 64.8432-12.8373C66.0267-15.9421 66.4217-19.6659 66.4217-21.1542L66.4217-47.9302C66.5803-47.8352 68.6934-46.4403 68.6934-46.4403C68.6934-46.4403 71.7376-44.4929 76.4873-43.2247C79.8948-42.3223 84.4858-42.1323 84.4858-42.1323L84.4858-55.0896C82.8772-54.9155 79.6108-55.4221 76.2668-57.0861Z"/>
  </g>
  <g id="Regular-S" transform="matrix(1 0 0 1 1400.45 696)">
   <path class="monochrome-0 multicolor-0:tintColor hierarchical-0:primary SFSymbolsPreviewWireframe" d="M72.7649-55.8156C72.2821-56.0633 71.8121-56.3348 71.3566-56.6291C70.0322-57.4982 68.8178-58.5222 67.7398-59.679C65.0425-62.7422 64.0351-65.8498 63.664-68.0255L63.6789-68.0255C63.3689-69.8315 63.4971-71 63.5165-71L51.231-71L51.231-23.8495C51.231-23.2164 51.231-22.5908 51.2041-21.9725C51.2041-21.8956 51.1967-21.8246 51.1922-21.7418C51.1922-21.7078 51.1922-21.6723 51.1848-21.6368C51.1848-21.6279 51.1848-21.619 51.1848-21.6101C50.9218-18.1747 48.9543-15.0942 45.9361-13.3923C44.3871-12.5176 42.6351-12.0588 40.8529-12.0611C35.1289-12.0611 30.4898-16.6936 30.4898-22.4148C30.4898-28.1359 35.1289-32.7684 40.8529-32.7684C41.9365-32.7694 43.0133-32.6002 44.0435-32.267L44.0584-44.6825C37.7356-45.4931 31.3594-43.6418 26.4736-39.5767C24.3561-37.7506 22.5759-35.5717 21.2131-33.1382C20.6945-32.2507 18.7378-28.6846 18.5009-22.8969C18.3518-19.6119 19.3458-16.2085 19.8197-14.8019L19.8197-14.7723C20.1178-13.944 21.2727-11.1174 23.1549-8.73463C24.6726-6.82325 26.4657-5.14421 28.4765-3.75157L28.4765-3.78115L28.5063-3.75157C34.4539 0.259734 41.0482-0.0035449 41.0482-0.0035449C42.1897-0.0493968 46.0136-0.0035449 50.3562-2.04617C55.1726-4.31066 57.9147-7.68447 57.9147-7.68447C59.6664-9.70036 61.0594-11.9977 62.0337-14.4779C63.1454-17.3784 63.5165-20.8573 63.5165-22.2476L63.5165-47.262C63.6655-47.1733 65.6505-45.8702 65.6505-45.8702C65.6505-45.8702 68.5103-44.0509 72.972-42.8662C76.1731-42.0231 80.4858-41.8456 80.4858-41.8456L80.4858-53.9505C78.9747-53.7878 75.9063-54.2611 72.7649-55.8156Z"/>
  </g>
  <g id="Ultralight-S" transform="matrix(1 0 0 1 512.063 696)">
   <path class="monochrome-0 multicolor-0:tintColor hierarchical-0:primary SFSymbolsPreviewWireframe" d="M69.7069-54.1711C69.2513-54.4048 68.8078-54.661 68.378-54.9388C67.1281-55.7588 65.9822-56.7251 64.9649-57.8168C62.4196-60.7075 61.4689-63.64 61.1188-65.6931L61.1328-65.6931C60.8403-67.3973 60.9612-68.5 60.9795-68.5L49.3862-68.5L49.3862-24.0058C49.3862-23.4085 49.3862-22.8181 49.3608-22.2346C49.3608-22.162 49.3538-22.095 49.3496-22.0169C49.3496-21.9848 49.3496-21.9513 49.3426-21.9178C49.3426-21.9094 49.3426-21.901 49.3426-21.8927C49.0944-18.6508 47.2378-15.7438 44.3896-14.1378C42.9279-13.3124 41.2746-12.8794 39.5928-12.8816C34.1913-12.8816 29.8135-17.2531 29.8135-22.652C29.8135-28.0508 34.1913-32.4223 39.5928-32.4223C40.6153-32.4232 41.6315-32.2635 42.6037-31.9491L42.6177-43.6652C36.6511-44.4301 30.6341-42.6831 26.0236-38.847C24.0254-37.1238 22.3455-35.0677 21.0595-32.7712C20.5701-31.9338 18.7236-28.5686 18.5-23.107C18.3594-20.007 19.2974-16.7953 19.7446-15.468L19.7446-15.44C20.0258-14.6584 21.1157-11.9911 22.8918-9.74254C24.324-7.93884 26.0161-6.35439 27.9137-5.04021L27.9137-5.06813L27.9418-5.04021C33.5543-1.2549 39.777-1.50335 39.777-1.50335C40.8543-1.54661 44.4628-1.50335 48.5607-3.43089C53.1058-5.56781 55.6933-8.75155 55.6933-8.75155C57.3464-10.6539 58.6608-12.8218 59.5803-15.1623C60.6294-17.8994 60.9795-21.1822 60.9795-22.4942L60.9795-46.0994C61.1202-46.0156 62.9933-44.786 62.9933-44.786C62.9933-44.786 65.692-43.0692 69.9024-41.9512C72.9231-41.1556 76.9928-40.9881 76.9928-40.9881L76.9928-52.411C75.5669-52.2575 72.6713-52.7041 69.7069-54.1711Z"/>
  </g>
 </g>
</svg>
