<?xml version="1.0" encoding="UTF-8"?>
<svg width="3300px" height="2200px" viewBox="0 0 3300 2200" version="1.1" xmlns="http://www.w3.org/2000/svg" xmlns:xlink="http://www.w3.org/1999/xlink">
    <title>discord.fill</title>
    <g id="discord.fill" stroke="none" fill="none" fill-rule="evenodd" stroke-width="1">
        <g id="Group">
            <g id="Notes">
                <rect id="artboard" fill="#FFFFFF" x="0" y="0" width="3300" height="2200"></rect>
                <line x1="263" y1="292" x2="3036" y2="292" id="Path" stroke="#000000" stroke-width="0.5"></line>
                <text id="Weight/Scale-Variations" fill="#000000" fill-rule="nonzero" font-family="Helvetica" font-size="13" font-weight="normal">
                    <tspan x="263" y="322">Weight/Scale Variations</tspan>
                </text>
                <text id="Ultralight" fill="#000000" fill-rule="nonzero" font-family="Helvetica" font-size="13" font-weight="normal">
                    <tspan x="533.711" y="322">Ultralight</tspan>
                </text>
                <text id="Thin" fill="#000000" fill-rule="nonzero" font-family="Helvetica" font-size="13" font-weight="normal">
                    <tspan x="843.422" y="322">Thin</tspan>
                </text>
                <text id="Light" fill="#000000" fill-rule="nonzero" font-family="Helvetica" font-size="13" font-weight="normal">
                    <tspan x="1138.63" y="322">Light</tspan>
                </text>
                <text id="Regular" fill="#000000" fill-rule="nonzero" font-family="Helvetica" font-size="13" font-weight="normal">
                    <tspan x="1426.84" y="322">Regular</tspan>
                </text>
                <text id="Medium" fill="#000000" fill-rule="nonzero" font-family="Helvetica" font-size="13" font-weight="normal">
                    <tspan x="1723.06" y="322">Medium</tspan>
                </text>
                <text id="Semibold" fill="#000000" fill-rule="nonzero" font-family="Helvetica" font-size="13" font-weight="normal">
                    <tspan x="2015.77" y="322">Semibold</tspan>
                </text>
                <text id="Bold" fill="#000000" fill-rule="nonzero" font-family="Helvetica" font-size="13" font-weight="normal">
                    <tspan x="2326.48" y="322">Bold</tspan>
                </text>
                <text id="Heavy" fill="#000000" fill-rule="nonzero" font-family="Helvetica" font-size="13" font-weight="normal">
                    <tspan x="2618.19" y="322">Heavy</tspan>
                </text>
                <text id="Black" fill="#000000" fill-rule="nonzero" font-family="Helvetica" font-size="13" font-weight="normal">
                    <tspan x="2917.4" y="322">Black</tspan>
                </text>
                <line x1="263" y1="1903" x2="3036" y2="1903" id="Path" stroke="#000000" stroke-width="0.5"></line>
                <g id="Group" transform="translate(263, 1933)" fill="#000000" fill-rule="nonzero">
                    <path d="M9.24805,0.830078 C13.5547,0.830078 17.1387,-2.74414 17.1387,-7.05078 C17.1387,-11.3574 13.5449,-14.9316 9.23828,-14.9316 C4.94141,-14.9316 1.36719,-11.3574 1.36719,-7.05078 C1.36719,-2.74414 4.95117,0.830078 9.24805,0.830078 Z M9.24805,-0.654297 C5.70312,-0.654297 2.87109,-3.49609 2.87109,-7.05078 C2.87109,-10.6055 5.69336,-13.4473 9.23828,-13.4473 C12.793,-13.4473 15.6445,-10.6055 15.6445,-7.05078 C15.6445,-3.49609 12.8027,-0.654297 9.24805,-0.654297 Z M5.6543,-7.05078 C5.6543,-6.62109 5.95703,-6.32812 6.40625,-6.32812 L8.50586,-6.32812 L8.50586,-4.20898 C8.50586,-3.76953 8.79883,-3.4668 9.22852,-3.4668 C9.67773,-3.4668 9.9707,-3.76953 9.9707,-4.20898 L9.9707,-6.32812 L12.0898,-6.32812 C12.5293,-6.32812 12.832,-6.62109 12.832,-7.05078 C12.832,-7.49023 12.5293,-7.79297 12.0898,-7.79297 L9.9707,-7.79297 L9.9707,-9.90234 C9.9707,-10.3516 9.67773,-10.6543 9.22852,-10.6543 C8.79883,-10.6543 8.50586,-10.3516 8.50586,-9.90234 L8.50586,-7.79297 L6.40625,-7.79297 C5.95703,-7.79297 5.6543,-7.49023 5.6543,-7.05078 Z" id="Shape"></path>
                </g>
                <g id="Group" transform="translate(281.867, 1933)" fill="#000000" fill-rule="nonzero">
                    <path d="M11.709,2.91016 C17.1582,2.91016 21.6699,-1.61133 21.6699,-7.05078 C21.6699,-12.5 17.1484,-17.0117 11.6992,-17.0117 C6.25977,-17.0117 1.74805,-12.5 1.74805,-7.05078 C1.74805,-1.61133 6.26953,2.91016 11.709,2.91016 Z M11.709,1.25 C7.09961,1.25 3.41797,-2.44141 3.41797,-7.05078 C3.41797,-11.6602 7.08984,-15.3516 11.6992,-15.3516 C16.3086,-15.3516 20.0098,-11.6602 20.0098,-7.05078 C20.0098,-2.44141 16.3184,1.25 11.709,1.25 Z M7.17773,-7.05078 C7.17773,-6.57227 7.50977,-6.25 8.00781,-6.25 L10.8789,-6.25 L10.8789,-3.36914 C10.8789,-2.88086 11.2109,-2.53906 11.6895,-2.53906 C12.1777,-2.53906 12.5195,-2.87109 12.5195,-3.36914 L12.5195,-6.25 L15.4004,-6.25 C15.8887,-6.25 16.2305,-6.57227 16.2305,-7.05078 C16.2305,-7.53906 15.8887,-7.88086 15.4004,-7.88086 L12.5195,-7.88086 L12.5195,-10.752 C12.5195,-11.25 12.1777,-11.5918 11.6895,-11.5918 C11.2109,-11.5918 10.8789,-11.25 10.8789,-10.752 L10.8789,-7.88086 L8.00781,-7.88086 C7.50977,-7.88086 7.17773,-7.53906 7.17773,-7.05078 Z" id="Shape"></path>
                </g>
                <g id="Group" transform="translate(305.646, 1933)" fill="#000000" fill-rule="nonzero">
                    <path d="M14.9707,5.66406 C21.9336,5.66406 27.6953,-0.0976562 27.6953,-7.05078 C27.6953,-14.0137 21.9238,-19.7754 14.9609,-19.7754 C8.00781,-19.7754 2.25586,-14.0137 2.25586,-7.05078 C2.25586,-0.0976562 8.01758,5.66406 14.9707,5.66406 Z M14.9707,3.84766 C8.93555,3.84766 4.08203,-1.01562 4.08203,-7.05078 C4.08203,-13.0957 8.92578,-17.9492 14.9609,-17.9492 C21.0059,-17.9492 25.8691,-13.0957 25.8691,-7.05078 C25.8691,-1.01562 21.0156,3.84766 14.9707,3.84766 Z M9.19922,-7.05078 C9.19922,-6.5332 9.57031,-6.17188 10.1172,-6.17188 L14.0625,-6.17188 L14.0625,-2.2168 C14.0625,-1.67969 14.4336,-1.29883 14.9512,-1.29883 C15.4883,-1.29883 15.8594,-1.66992 15.8594,-2.2168 L15.8594,-6.17188 L19.8145,-6.17188 C20.3516,-6.17188 20.7324,-6.5332 20.7324,-7.05078 C20.7324,-7.59766 20.3613,-7.96875 19.8145,-7.96875 L15.8594,-7.96875 L15.8594,-11.9141 C15.8594,-12.4609 15.4883,-12.8418 14.9512,-12.8418 C14.4336,-12.8418 14.0625,-12.4609 14.0625,-11.9141 L14.0625,-7.96875 L10.1172,-7.96875 C9.57031,-7.96875 9.19922,-7.59766 9.19922,-7.05078 Z" id="Shape"></path>
                </g>
                <text id="Design-Variations" fill="#000000" fill-rule="nonzero" font-family="Helvetica" font-size="13" font-weight="normal">
                    <tspan x="263" y="1953">Design Variations</tspan>
                </text>
                <text id="Symbols-are-supported-in-up-to-nine-weights-and-three-scales." fill="#000000" fill-rule="nonzero" font-family="Helvetica" font-size="13" font-weight="normal">
                    <tspan x="263" y="1971">Symbols are supported in up to nine weights and three scales.</tspan>
                </text>
                <text id="For-optimal-layout-with-text-and-other-symbols,-vertically-align" fill="#000000" fill-rule="nonzero" font-family="Helvetica" font-size="13" font-weight="normal">
                    <tspan x="263" y="1989">For optimal layout with text and other symbols, vertically align</tspan>
                </text>
                <text id="symbols-with-the-adjacent-text." fill="#000000" fill-rule="nonzero" font-family="Helvetica" font-size="13" font-weight="normal">
                    <tspan x="263" y="2007">symbols with the adjacent text.</tspan>
                </text>
                <line x1="776" y1="1919" x2="776" y2="1933" id="Path" stroke="#00AEEF" stroke-width="0.5"></line>
                <g id="Group" transform="translate(776, 1933)" fill="#000000" fill-rule="nonzero">
                    <path d="M3.31055,0.15625 C3.82812,0.15625 4.08203,-0.0390625 4.26758,-0.585938 L5.52734,-4.0332 L11.2891,-4.0332 L12.5488,-0.585938 C12.7344,-0.0390625 12.9883,0.15625 13.4961,0.15625 C14.0137,0.15625 14.3457,-0.15625 14.3457,-0.644531 C14.3457,-0.810547 14.3164,-0.966797 14.2383,-1.17188 L9.6582,-13.3691 C9.43359,-13.9648 9.0332,-14.2676 8.4082,-14.2676 C7.80273,-14.2676 7.39258,-13.9746 7.17773,-13.3789 L2.59766,-1.16211 C2.51953,-0.957031 2.49023,-0.800781 2.49023,-0.634766 C2.49023,-0.146484 2.80273,0.15625 3.31055,0.15625 Z M6.00586,-5.51758 L8.37891,-12.0898 L8.42773,-12.0898 L10.8008,-5.51758 L6.00586,-5.51758 Z" id="Shape"></path>
                </g>
                <line x1="793.197" y1="1919" x2="793.197" y2="1933" id="Path" stroke="#00AEEF" stroke-width="0.5"></line>
                <text id="Margins" fill="#000000" fill-rule="nonzero" font-family="Helvetica" font-size="13" font-weight="normal">
                    <tspan x="776" y="1953">Margins</tspan>
                </text>
                <text id="Leading-and-trailing-margins-on-the-left-and-right-side-of-each-symbol" fill="#000000" fill-rule="nonzero" font-family="Helvetica" font-size="13" font-weight="normal">
                    <tspan x="776" y="1971">Leading and trailing margins on the left and right side of each symbol</tspan>
                </text>
                <text id="can-be-adjusted-by-modifying-the-x-location-of-the-margin-guidelines." fill="#000000" fill-rule="nonzero" font-family="Helvetica" font-size="13" font-weight="normal">
                    <tspan x="776" y="1989">can be adjusted by modifying the x-location of the margin guidelines.</tspan>
                </text>
                <text id="Modifications-are-automatically-applied-proportionally-to-all" fill="#000000" fill-rule="nonzero" font-family="Helvetica" font-size="13" font-weight="normal">
                    <tspan x="776" y="2007">Modifications are automatically applied proportionally to all</tspan>
                </text>
                <text id="scales-and-weights." fill="#000000" fill-rule="nonzero" font-family="Helvetica" font-size="13" font-weight="normal">
                    <tspan x="776" y="2025">scales and weights.</tspan>
                </text>
                <g id="Group" transform="translate(1289, 1933)" fill="#000000" fill-rule="nonzero">
                    <path d="M2.8418,1.86523 L4.54102,3.57422 C5.40039,4.44336 6.38672,4.38477 7.31445,3.35938 L18.0078,-8.42773 L17.041,-9.4043 L6.42578,2.27539 C6.07422,2.67578 5.74219,2.77344 5.27344,2.30469 L4.10156,1.14258 C3.63281,0.683594 3.74023,0.341797 4.14062,-0.0195312 L15.6152,-10.8203 L14.6387,-11.7871 L3.04688,-0.898438 C2.06055,0.0195312 1.98242,0.996094 2.8418,1.86523 Z M9.25781,-16.3281 C8.83789,-15.918 8.80859,-15.3418 9.04297,-14.9512 C9.27734,-14.5898 9.73633,-14.3555 10.3809,-14.5215 C11.8457,-14.8633 13.3691,-14.9219 14.7949,-13.9844 L14.209,-12.5293 C13.8672,-11.6992 14.043,-11.1133 14.5801,-10.5664 L16.875,-8.25195 C17.3633,-7.76367 17.7734,-7.74414 18.3398,-7.8418 L19.4043,-8.03711 L20.0684,-7.36328 L20.0293,-6.80664 C19.9902,-6.30859 20.1172,-5.92773 20.6055,-5.44922 L21.3672,-4.70703 C21.8457,-4.22852 22.4609,-4.19922 22.9297,-4.66797 L25.8398,-7.58789 C26.3086,-8.05664 26.2891,-8.65234 25.8105,-9.13086 L25.0391,-9.89258 C24.5605,-10.3711 24.1895,-10.5273 23.7109,-10.4883 L23.1348,-10.4395 L22.4902,-11.0742 L22.7344,-12.1973 C22.8613,-12.7637 22.7051,-13.2031 22.1191,-13.7891 L19.9219,-15.9766 C16.582,-19.2969 12.1484,-19.2188 9.25781,-16.3281 Z M10.752,-15.957 C13.1836,-17.7344 16.4746,-17.4316 18.7012,-15.2051 L21.1328,-12.793 C21.3672,-12.5586 21.4062,-12.373 21.3379,-12.0312 L21.0156,-10.5469 L22.5195,-9.0625 L23.5059,-9.12109 C23.7598,-9.13086 23.8379,-9.11133 24.0332,-8.91602 L24.6094,-8.33984 L22.168,-5.89844 L21.5918,-6.47461 C21.3965,-6.66992 21.3672,-6.74805 21.377,-7.01172 L21.4453,-7.98828 L19.9512,-9.47266 L18.4277,-9.21875 C18.1055,-9.15039 17.959,-9.17969 17.7148,-9.41406 L15.7129,-11.416 C15.459,-11.6504 15.4297,-11.8164 15.5859,-12.1875 L16.4648,-14.2773 C14.9023,-15.7324 12.8711,-16.3574 10.8398,-15.7617 C10.6836,-15.7227 10.625,-15.8496 10.752,-15.957 Z" id="Shape"></path>
                </g>
                <text id="Exporting" fill="#000000" fill-rule="nonzero" font-family="Helvetica" font-size="13" font-weight="normal">
                    <tspan x="1289" y="1953">Exporting</tspan>
                </text>
                <text id="Symbols-should-be-outlined-when-exporting-to-ensure-the" fill="#000000" fill-rule="nonzero" font-family="Helvetica" font-size="13" font-weight="normal">
                    <tspan x="1289" y="1971">Symbols should be outlined when exporting to ensure the</tspan>
                </text>
                <text id="design-is-preserved-when-submitting-to-Xcode." fill="#000000" fill-rule="nonzero" font-family="Helvetica" font-size="13" font-weight="normal">
                    <tspan x="1289" y="1989">design is preserved when submitting to Xcode.</tspan>
                </text>
                <text id="template-version" fill="#000000" fill-rule="nonzero" font-family="Helvetica" font-size="13" font-weight="normal">
                    <tspan x="2952" y="1933">Template v.4.0</tspan>
                </text>
                <text id="Requires-Xcode-14-or-greater" fill="#000000" fill-rule="nonzero" font-family="Helvetica" font-size="13" font-weight="normal">
                    <tspan x="2865" y="1951">Requires Xcode 14 or greater</tspan>
                </text>
                <text id="descriptive-name" fill="#000000" fill-rule="nonzero" font-family="Helvetica" font-size="13" font-weight="normal">
                    <tspan x="2883" y="1969">Generated from discord.fill</tspan>
                </text>
                <text id="Typeset-at-100-points" fill="#000000" fill-rule="nonzero" font-family="Helvetica" font-size="13" font-weight="normal">
                    <tspan x="2912" y="1987">Typeset at 100 points</tspan>
                </text>
                <text id="Small" fill="#000000" fill-rule="nonzero" font-family="Helvetica" font-size="13" font-weight="normal">
                    <tspan x="263" y="726">Small</tspan>
                </text>
                <text id="Medium" fill="#000000" fill-rule="nonzero" font-family="Helvetica" font-size="13" font-weight="normal">
                    <tspan x="263" y="1156">Medium</tspan>
                </text>
                <text id="Large" fill="#000000" fill-rule="nonzero" font-family="Helvetica" font-size="13" font-weight="normal">
                    <tspan x="263" y="1586">Large</tspan>
                </text>
            </g>
            <g id="Guides">
                <g id="H-reference" transform="translate(339, 696)" fill="#27AAE1" fill-rule="nonzero">
                    <path d="M0.993654,0 L3.63775,0 L29.3281,-67.1323 L30.0303,-67.1323 L30.0303,-70.459 L28.1226,-70.459 L0.993654,0 Z M11.6885,-24.4799 L46.9815,-24.4799 L46.2315,-26.7285 L12.4385,-26.7285 L11.6885,-24.4799 Z M55.1196,0 L57.7637,0 L30.6382,-70.459 L29.4326,-70.459 L29.4326,-67.1323 L55.1196,0 Z" id="Shape"></path>
                </g>
                <line x1="263" y1="696" x2="3036" y2="696" id="Baseline-S" stroke="#27AAE1" stroke-width="0.5"></line>
                <line x1="263" y1="625.541" x2="3036" y2="625.541" id="Capline-S" stroke="#27AAE1" stroke-width="0.5"></line>
                <g id="H-reference" transform="translate(339, 1126)" fill="#27AAE1" fill-rule="nonzero">
                    <path d="M0.993654,0 L3.63775,0 L29.3281,-67.1323 L30.0303,-67.1323 L30.0303,-70.459 L28.1226,-70.459 L0.993654,0 Z M11.6885,-24.4799 L46.9815,-24.4799 L46.2315,-26.7285 L12.4385,-26.7285 L11.6885,-24.4799 Z M55.1196,0 L57.7637,0 L30.6382,-70.459 L29.4326,-70.459 L29.4326,-67.1323 L55.1196,0 Z" id="Shape"></path>
                </g>
                <line x1="263" y1="1126" x2="3036" y2="1126" id="Baseline-M" stroke="#27AAE1" stroke-width="0.5"></line>
                <line x1="263" y1="1055.54" x2="3036" y2="1055.54" id="Capline-M" stroke="#27AAE1" stroke-width="0.5"></line>
                <g id="H-reference" transform="translate(339, 1556)" fill="#27AAE1" fill-rule="nonzero">
                    <path d="M0.993654,0 L3.63775,0 L29.3281,-67.1323 L30.0303,-67.1323 L30.0303,-70.459 L28.1226,-70.459 L0.993654,0 Z M11.6885,-24.4799 L46.9815,-24.4799 L46.2315,-26.7285 L12.4385,-26.7285 L11.6885,-24.4799 Z M55.1196,0 L57.7637,0 L30.6382,-70.459 L29.4326,-70.459 L29.4326,-67.1323 L55.1196,0 Z" id="Shape"></path>
                </g>
                <line x1="263" y1="1556" x2="3036" y2="1556" id="Baseline-L" stroke="#27AAE1" stroke-width="0.5"></line>
                <line x1="263" y1="1485.54" x2="3036" y2="1485.54" id="Capline-L" stroke="#27AAE1" stroke-width="0.5"></line>
                <line x1="1379.84" y1="1030.79" x2="1379.84" y2="1150.12" id="left-margin-Regular-M" stroke="#00AEEF" stroke-width="0.5"></line>
                <line x1="1519.85" y1="1030.79" x2="1519.85" y2="1150.12" id="right-margin-Regular-M" stroke="#00AEEF" stroke-width="0.5"></line>
            </g>
            <g id="Symbols" fill="#5865F2">
                <g id="Black-L" transform="translate(2845.39, 1556)">
                    <path d="M108.919,-90.8011 C119.677,-88.9721 130.151,-85.7341 140.071,-81.17 C157.162,-56.06 165.654,-27.7397 162.518,4.93676 C150.97,13.5167 138.038,20.0327 124.287,24.1989 C121.191,20.0241 118.454,15.5924 116.104,10.9517 C120.58,9.27097 124.9,7.19835 129.014,4.75774 C127.945,4.02974 126.888,3.2182 125.855,2.37086 C101.662,13.8034 73.6571,13.8034 49.4644,2.37086 C48.443,3.15853 47.386,3.97007 46.3052,4.75774 C50.4118,7.1944 54.7238,9.26306 59.1914,10.9398 C56.8392,15.5826 54.1019,20.018 51.0084,24.1989 C37.2699,20.016 24.347,13.4968 12.8012,4.92482 C10.129,-23.2523 15.4735,-51.8352 35.1887,-81.1462 C45.1195,-85.711 55.5998,-88.9566 66.3649,-90.8011 C67.8365,-88.1563 69.1685,-85.4354 70.3555,-82.6499 C81.8151,-84.3851 93.4688,-84.3851 104.928,-82.6499 C106.115,-85.4357 107.447,-88.1566 108.919,-90.8011 Z M62.5525,-42.7532 C54.9158,-42.7532 48.9775,-35.9028 48.9775,-27.5487 C48.9775,-19.1946 55.1296,-12.4039 62.5763,-12.4039 C70.1654,-12.4039 76.0325,-19.1946 76.1631,-27.5487 C76.2938,-35.9028 70.1892,-42.7532 62.5525,-42.7532 Z M112.743,-42.7532 C105.095,-42.7532 99.1563,-35.9028 99.1563,-27.5487 C99.1563,-19.1946 105.285,-12.4039 112.743,-12.4039 C120.332,-12.4039 126.188,-19.1946 126.318,-27.5487 C126.449,-35.9028 120.392,-42.7532 112.743,-42.7532 Z" id="Path-28"></path>
                </g>
                <g id="Heavy-L" transform="translate(2549.18, 1556)">
                    <path d="M108.278,-90.8944 C118.965,-89.0813 129.369,-85.8715 139.224,-81.3471 C156.202,-56.4554 164.637,-28.3813 161.522,4.01095 C150.051,12.5163 137.204,18.9757 123.545,23.1056 C120.469,18.9671 117.75,14.5739 115.416,9.97359 C119.862,8.30748 124.153,6.25288 128.24,3.8335 C127.179,3.11183 126.129,2.30734 125.102,1.46737 C101.07,12.8005 73.2498,12.8005 49.2174,1.46737 C48.2028,2.24819 47.1527,3.05267 46.0791,3.8335 C50.1585,6.24896 54.4419,8.29963 58.8799,9.96176 C56.5434,14.5642 53.8241,18.9611 50.7511,23.1056 C37.1036,18.959 24.2663,12.4966 12.797,3.99912 C10.1424,-23.933 15.4515,-52.2674 35.0362,-81.3234 C44.9013,-85.8486 55.3121,-89.066 66.0059,-90.8944 C67.4677,-88.2726 68.7909,-85.5754 69.9701,-82.8141 C81.3538,-84.5342 92.9303,-84.5342 104.314,-82.8141 C105.493,-85.5757 106.816,-88.2729 108.278,-90.8944 Z M62.2188,-43.2643 C54.6327,-43.2643 48.7337,-36.4735 48.7337,-28.192 C48.7337,-19.9106 54.845,-13.179 62.2424,-13.179 C69.7813,-13.179 75.6095,-19.9106 75.7393,-28.192 C75.8691,-36.4735 69.8049,-43.2643 62.2188,-43.2643 Z M112.077,-43.2643 C104.479,-43.2643 98.5802,-36.4735 98.5802,-28.192 C98.5802,-19.9106 104.668,-13.179 112.077,-13.179 C119.616,-13.179 125.432,-19.9106 125.562,-28.192 C125.692,-36.4735 119.675,-43.2643 112.077,-43.2643 Z" id="Path-27"></path>
                </g>
                <g id="Bold-L" transform="translate(2252.97, 1556)">
                    <path d="M107.637,-90.9865 C118.253,-89.1893 128.588,-86.0077 138.377,-81.5229 C155.241,-56.8496 163.621,-29.0218 160.527,3.08635 C149.132,11.5171 136.37,17.9198 122.802,22.0135 C119.747,17.9113 117.046,13.5567 114.728,8.99669 C119.144,7.34518 123.407,5.30861 127.466,2.91045 C126.412,2.19511 125.369,1.39768 124.349,0.565077 C100.477,11.7988 72.8426,11.7988 48.9703,0.565077 C47.9625,1.33905 46.9195,2.13648 45.853,2.91045 C49.9051,5.30473 54.1601,7.33741 58.5685,8.98496 C56.2475,13.5471 53.5464,17.9053 50.4939,22.0135 C36.9374,17.9033 24.1855,11.4975 12.7927,3.07462 C10.1559,-24.6125 15.4296,-52.6983 34.8837,-81.4995 C44.683,-85.9849 55.0244,-89.1741 65.647,-90.9865 C67.099,-88.3877 68.4134,-85.7141 69.5847,-82.9771 C80.8925,-84.6821 92.3918,-84.6821 103.7,-82.9771 C104.87,-85.7144 106.185,-88.388 107.637,-90.9865 Z M61.8851,-43.7742 C54.3495,-43.7742 48.4898,-37.043 48.4898,-28.8342 C48.4898,-20.6254 54.5605,-13.9528 61.9085,-13.9528 C69.3971,-13.9528 75.1865,-20.6254 75.3154,-28.8342 C75.4443,-37.043 69.4206,-43.7742 61.8851,-43.7742 Z M111.411,-43.7742 C103.864,-43.7742 98.0041,-37.043 98.0041,-28.8342 C98.0041,-20.6254 104.051,-13.9528 111.411,-13.9528 C118.9,-13.9528 124.677,-20.6254 124.806,-28.8342 C124.935,-37.043 118.958,-43.7742 111.411,-43.7742 Z" id="Path-26"></path>
                </g>
                <g id="Semibold-L" transform="translate(1956.26, 1556)">
                    <path d="M107.637,-90.9865 C118.253,-89.1893 128.588,-86.0077 138.377,-81.5229 C155.241,-56.8496 163.621,-29.0218 160.527,3.08635 C149.132,11.5171 136.37,17.9198 122.802,22.0135 C119.747,17.9113 117.046,13.5567 114.728,8.99669 C119.144,7.34519 123.407,5.30861 127.466,2.91045 C126.412,2.19511 125.369,1.39768 124.349,0.565077 C100.477,11.7988 72.8426,11.7988 48.9703,0.565077 C47.9625,1.33905 46.9195,2.13648 45.853,2.91045 C49.9051,5.30473 54.1601,7.33741 58.5685,8.98496 C56.2475,13.5471 53.5464,17.9053 50.4939,22.0135 C36.9374,17.9033 24.1855,11.4975 12.7927,3.07462 C10.1559,-24.6125 15.4296,-52.6983 34.8837,-81.4995 C44.683,-85.9849 55.0244,-89.1741 65.647,-90.9865 C67.099,-88.3877 68.4134,-85.7141 69.5847,-82.9771 C80.8925,-84.6821 92.3918,-84.6821 103.7,-82.9771 C104.87,-85.7144 106.185,-88.388 107.637,-90.9865 Z M61.8851,-43.7742 C54.3495,-43.7742 48.4898,-37.043 48.4898,-28.8342 C48.4898,-20.6254 54.5605,-13.9528 61.9085,-13.9528 C69.3971,-13.9528 75.1865,-20.6254 75.3154,-28.8342 C75.4443,-37.043 69.4206,-43.7742 61.8851,-43.7742 Z M111.411,-43.7742 C103.864,-43.7742 98.0041,-37.043 98.0041,-28.8342 C98.0041,-20.6254 104.051,-13.9528 111.411,-13.9528 C118.9,-13.9528 124.677,-20.6254 124.806,-28.8342 C124.935,-37.043 118.958,-43.7742 111.411,-43.7742 Z" id="Path-25"></path>
                </g>
                <g id="Medium-L" transform="translate(1660.05, 1556)">
                    <path d="M106.997,-90.6262 C117.541,-88.8449 127.806,-85.6914 137.53,-81.2464 C154.281,-56.7914 162.604,-29.2098 159.531,2.61415 C148.213,10.9703 135.537,17.3163 122.06,21.3738 C119.025,17.3079 116.342,12.9918 114.039,8.47218 C118.426,6.83529 122.659996,4.81674 126.693,2.4398 C125.645,1.73079 124.609,0.940425 123.596,0.115186 C99.8842,11.2495 72.4353,11.2495 48.7233,0.115186 C47.7222,0.88231 46.6862,1.67268 45.6269,2.4398 C49.6518,4.81289 53.8782,6.82759 58.257,8.46056 C55.9516,12.9823 53.2686,17.302 50.2366,21.3738 C36.7711,17.3 24.1048,10.9509 12.7885,2.60253 C10.1693,-24.8396 15.4076,-52.6768 34.7312,-81.2231 C44.4647,-85.6689 54.7367,-88.8298 65.288,-90.6262 C66.7303,-88.0504 68.0359,-85.4005 69.1993,-82.6876 C80.4312,-84.3776 91.8534,-84.3776 103.085,-82.6876 C104.248,-85.4008 105.554,-88.0507 106.997,-90.6262 Z M61.5513,-43.8317 C54.0664,-43.8317 48.246,-37.16 48.246,-29.0239 C48.246,-20.8877 54.2759,-14.2742 61.5746,-14.2742 C69.013,-14.2742 74.7635,-20.8877 74.8916,-29.0239 C75.0196,-37.16 69.0363,-43.8317 61.5513,-43.8317 Z M110.745,-43.8317 C103.248,-43.8317 97.4279,-37.16 97.4279,-29.0239 C97.4279,-20.8877 103.435,-14.2742 110.745,-14.2742 C118.183,-14.2742 123.922,-20.8877 124.05,-29.0239 C124.178,-37.16 118.241,-43.8317 110.745,-43.8317 Z" id="Path-24"></path>
                </g>
                <g id="Regular-L" transform="translate(1363.34, 1556)">
                    <path d="M106.997,-90.6262 C117.541,-88.8449 127.806,-85.6914 137.53,-81.2464 C154.281,-56.7914 162.604,-29.2098 159.531,2.61415 C148.213,10.9703 135.537,17.3163 122.06,21.3738 C119.025,17.3079 116.342,12.9918 114.039,8.47218 C118.426,6.83529 122.659996,4.81674 126.693,2.4398 C125.645,1.73079 124.609,0.940425 123.596,0.115187 C99.8842,11.2495 72.4353,11.2495 48.7233,0.115187 C47.7222,0.88231 46.6862,1.67268 45.6269,2.4398 C49.6518,4.81289 53.8782,6.82759 58.257,8.46056 C55.9516,12.9823 53.2686,17.302 50.2366,21.3738 C36.7711,17.3 24.1048,10.9509 12.7885,2.60253 C10.1693,-24.8396 15.4076,-52.6768 34.7312,-81.2231 C44.4647,-85.6689 54.7367,-88.8298 65.288,-90.6262 C66.7303,-88.0504 68.0359,-85.4005 69.1993,-82.6876 C80.4312,-84.3776 91.8534,-84.3776 103.085,-82.6876 C104.248,-85.4008 105.554,-88.0507 106.997,-90.6262 Z M61.5513,-43.8317 C54.0664,-43.8317 48.246,-37.16 48.246,-29.0239 C48.246,-20.8877 54.2759,-14.2742 61.5746,-14.2742 C69.013,-14.2742 74.7635,-20.8877 74.8916,-29.0239 C75.0196,-37.16 69.0363,-43.8317 61.5513,-43.8317 Z M110.745,-43.8317 C103.248,-43.8317 97.4279,-37.16 97.4279,-29.0239 C97.4279,-20.8877 103.435,-14.2742 110.745,-14.2742 C118.183,-14.2742 123.922,-20.8877 124.05,-29.0239 C124.178,-37.16 118.241,-43.8317 110.745,-43.8317 Z" id="Path-23"></path>
                </g>
                <g id="Light-L" transform="translate(1067.13, 1556)">
                    <path d="M106.356,-89.8055 C116.829,-88.0401 127.025,-84.9148 136.683,-80.5094 C153.321,-56.2728 161.588,-28.9375 158.535,2.60235 C147.293,10.8838 134.703,17.1733 121.317,21.1945 C118.303,17.1649 115.638,12.8874 113.351,8.40807 C117.708,6.7858 121.913,4.78527 125.919,2.42956 C124.878,1.72688 123.849,0.943566 122.843,0.125696 C99.2914,11.1606 72.0281,11.1606 48.4762,0.125696 C47.4819,0.88597 46.4529,1.66928 45.4007,2.42956 C49.3985,4.78146 53.5963,6.77817 57.9455,8.39656 C55.6557,12.8779 52.9908,17.159 49.9793,21.1945 C36.6048,17.1571 24.0241,10.8647 12.7842,2.59083 C10.1828,-24.6062 15.3857,-52.195 34.5787,-80.4864 C44.2464,-84.8924 54.449,-88.0252 64.929,-89.8055 C66.3616,-87.2526 67.6583,-84.6265 68.8139,-81.9378 C79.9699,-83.6127 91.3149,-83.6127 102.471,-81.9378 C103.626,-84.6267 104.923,-87.253 106.356,-89.8055 Z M61.2176,-43.4288 C53.7832,-43.4288 48.0022,-36.8167 48.0022,-28.7532 C48.0022,-20.6897 53.9913,-14.1352 61.2407,-14.1352 C68.6289,-14.1352 74.3405,-20.6897 74.4677,-28.7532 C74.5949,-36.8167 68.652,-43.4288 61.2176,-43.4288 Z M110.079,-43.4288 C102.633,-43.4288 96.8518,-36.8167 96.8518,-28.7532 C96.8518,-20.6897 102.818,-14.1352 110.079,-14.1352 C117.467,-14.1352 123.167,-20.6897 123.294,-28.7532 C123.421,-36.8167 117.525,-43.4288 110.079,-43.4288 Z" id="Path-22"></path>
                </g>
                <g id="Thin-L" transform="translate(771.417, 1556)">
                    <path d="M105.074,-89.1642 C115.405,-87.4306 125.462,-84.3616 134.989,-80.0356 C151.4,-56.2357 159.555,-29.3929 156.544,1.57864 C145.455,9.71092 133.036,15.887 119.832,19.8358 C116.859,15.8788 114.23,11.6783 111.974,7.27976 C116.272,5.68672 120.42,3.72223 124.371,1.40896 C123.345,0.718946 122.33,-0.0502523 121.337,-0.853386 C98.106,9.9827 71.2135,9.9827 47.9821,-0.853386 C47.0013,-0.106811 45.9863,0.662388 44.9485,1.40896 C48.8918,3.71849 53.0325,5.67922 57.3226,7.26845 C55.0639,11.6691 52.4353,15.8731 49.4648,19.8358 C36.2722,15.8711 23.8627,9.69208 12.7757,1.56733 C10.2097,-25.1397 15.3418,-52.2313 34.2737,-80.013 C43.8099,-84.3397 53.8737,-87.4159 64.2111,-89.1642 C65.6242,-86.6573 66.9033,-84.0785 68.0431,-81.4383 C79.0473,-83.083 90.2379,-83.083 101.242,-81.4383 C102.381,-84.0787 103.661,-86.6576 105.074,-89.1642 Z M60.5501,-43.6231 C53.2169,-43.6231 47.5145,-37.1302 47.5145,-29.2119 C47.5145,-21.2937 53.4222,-14.8573 60.573,-14.8573 C67.8606,-14.8573 73.4945,-21.2937 73.62,-29.2119 C73.7454,-37.1302 67.8834,-43.6231 60.5501,-43.6231 Z M108.747,-43.6231 C101.402,-43.6231 95.6995,-37.1302 95.6995,-29.2119 C95.6995,-21.2937 101.584,-14.8573 108.747,-14.8573 C116.034,-14.8573 121.657,-21.2937 121.782,-29.2119 C121.908,-37.1302 116.091,-43.6231 108.747,-43.6231 Z" id="Path-21"></path>
                </g>
                <g id="Ultralight-L" transform="translate(474.706, 1556)">
                    <path d="M105.074,-89.1642 C115.405,-87.4306 125.462,-84.3616 134.989,-80.0356 C151.4,-56.2357 159.555,-29.3929 156.544,1.57864 C145.455,9.71092 133.036,15.887 119.832,19.8358 C116.859,15.8788 114.23,11.6783 111.974,7.27976 C116.272,5.68672 120.42,3.72223 124.371,1.40896 C123.345,0.718947 122.33,-0.0502523 121.337,-0.853386 C98.106,9.98271 71.2135,9.98271 47.9821,-0.853386 C47.0013,-0.106811 45.9863,0.662388 44.9485,1.40896 C48.8918,3.71849 53.0325,5.67922 57.3226,7.26845 C55.0639,11.6691 52.4353,15.8731 49.4648,19.8358 C36.2722,15.8711 23.8627,9.69208 12.7757,1.56733 C10.2097,-25.1397 15.3418,-52.2313 34.2737,-80.013 C43.8099,-84.3397 53.8737,-87.4159 64.2111,-89.1642 C65.6242,-86.6573 66.9033,-84.0785 68.0431,-81.4383 C79.0473,-83.083 90.2379,-83.083 101.242,-81.4383 C102.381,-84.0787 103.661,-86.6576 105.074,-89.1642 Z M60.5501,-43.6231 C53.2169,-43.6231 47.5145,-37.1302 47.5145,-29.2119 C47.5145,-21.2937 53.4222,-14.8573 60.573,-14.8573 C67.8606,-14.8573 73.4945,-21.2937 73.62,-29.2119 C73.7454,-37.1302 67.8834,-43.6231 60.5501,-43.6231 Z M108.747,-43.6231 C101.402,-43.6231 95.6995,-37.1302 95.6995,-29.2119 C95.6995,-21.2937 101.584,-14.8573 108.747,-14.8573 C116.034,-14.8573 121.657,-21.2937 121.782,-29.2119 C121.908,-37.1302 116.091,-43.6231 108.747,-43.6231 Z" id="Path-20"></path>
                </g>
                <g id="Black-M" transform="translate(2861.89, 1126)">
                    <path d="M87.7729,-79.5996 C96.1801,-78.1682 104.365,-75.6341 112.117,-72.0622 C125.473,-52.4109 132.109,-30.2472 129.658,-4.67432 C120.634,2.04041 110.528,7.13993 99.7827,10.4004 C97.3631,7.13316 95.2239,3.66488 93.388,0.0330276 C96.8854,-1.28233 100.261,-2.90438 103.477,-4.81442 C102.641,-5.38416 101.815,-6.01928 101.008,-6.68241 C82.1022,2.26482 60.2173,2.26482 41.3118,-6.68241 C40.5136,-6.06598 39.6876,-5.43086 38.843,-4.81442 C42.0521,-2.90747 45.4218,-1.28852 48.913,0.0236877 C47.0749,3.65723 44.9358,7.12841 42.5184,10.4004 C31.7823,7.1268 21.6836,2.02485 12.6611,-4.68366 C10.5728,-26.7353 14.7493,-49.1046 30.1559,-72.0436 C37.9165,-75.616 46.1063,-78.1561 54.5188,-79.5996 C55.6688,-77.5297 56.7097,-75.4004 57.6372,-73.2204 C66.5924,-74.5784 75.6993,-74.5784 84.6545,-73.2204 C85.5816,-75.4006 86.6225,-77.53 87.7729,-79.5996 Z M51.5396,-41.9969 C45.5718,-41.9969 40.9313,-36.6357 40.9313,-30.0977 C40.9313,-23.5597 45.7389,-18.2453 51.5581,-18.2453 C57.4887,-18.2453 62.0736,-23.5597 62.1757,-30.0977 C62.2778,-36.6357 57.5073,-41.9969 51.5396,-41.9969 Z M90.7615,-41.9969 C84.7844,-41.9969 80.1439,-36.6357 80.1439,-30.0977 C80.1439,-23.5597 84.9329,-18.2453 90.7615,-18.2453 C96.6921,-18.2453 101.268,-23.5597 101.37,-30.0977 C101.472,-36.6357 96.7385,-41.9969 90.7615,-41.9969 Z" id="Path-19"></path>
                </g>
                <g id="Heavy-M" transform="translate(2565.68, 1126)">
                    <path d="M87.1322,-78.789 C95.468,-77.3735 103.583,-74.8676 111.27,-71.3354 C124.512,-51.9024 131.092,-29.9849 128.663,-4.69622 C119.715,1.9439 109.694,6.98676 99.0401,10.211 C96.6411,6.98006 94.5199,3.55032 92.6996,-0.0411793 C96.1674,-1.34192 99.5146,-2.94595 102.703,-4.83477 C101.874,-5.39817 101.055,-6.02624 100.255,-6.68201 C81.5095,2.16581 59.8101,2.16581 41.0648,-6.68201 C40.2734,-6.07242 39.4543,-5.44435 38.6169,-4.83477 C41.7988,-2.94901 45.1399,-1.34804 48.6016,-0.0504155 C46.779,3.54275 44.658,6.97537 42.2611,10.211 C31.616,6.97377 21.6029,1.92852 12.6568,-4.70546 C10.5863,-26.5121 14.7274,-48.6328 30.0034,-71.3169 C37.6982,-74.8497 45.8186,-77.3615 54.1598,-78.789 C55.3,-76.7421 56.3321,-74.6364 57.2518,-72.4807 C66.1312,-73.8236 75.1608,-73.8236 84.0401,-72.4807 C84.9594,-74.6367 85.9915,-76.7424 87.1322,-78.789 Z M51.2058,-41.6041 C45.2887,-41.6041 40.6875,-36.3025 40.6875,-29.8372 C40.6875,-23.3718 45.4543,-18.1164 51.2242,-18.1164 C57.1046,-18.1164 61.6506,-23.3718 61.7518,-29.8372 C61.8531,-36.3025 57.123,-41.6041 51.2058,-41.6041 Z M90.0953,-41.6041 C84.169,-41.6041 79.5678,-36.3025 79.5678,-29.8372 C79.5678,-23.3718 84.3162,-18.1164 90.0953,-18.1164 C95.9757,-18.1164 100.512,-23.3718 100.614,-29.8372 C100.715,-36.3025 96.0217,-41.6041 90.0953,-41.6041 Z" id="Path-18"></path>
                </g>
                <g id="Bold-M" transform="translate(2269.47, 1126)">
                    <path d="M86.4914,-78.2571 C94.756,-76.8575 102.802,-74.3798 110.423,-70.8872 C123.552,-51.6726 130.076,-30.0014 127.667,-4.99683 C118.796,1.56868 108.861,6.55489 98.2975,9.7429 C95.919,6.54826 93.816,3.15706 92.0113,-0.394086 C95.4494,-1.68021 98.768,-3.26622 101.929,-5.13381 C101.108,-5.69089 100.296,-6.31189 99.5019,-6.9603 C80.9168,1.78811 59.4028,1.78811 40.8177,-6.9603 C40.0331,-6.35756 39.221,-5.73655 38.3908,-5.13381 C41.5455,-3.26924 44.858,-1.68627 48.2901,-0.403219 C46.4831,3.14957 44.3803,6.54362 42.0038,9.7429 C31.4497,6.54205 21.5222,1.55348 12.6526,-5.00596 C10.5997,-26.5676 14.7054,-48.4397 29.8509,-70.869 C37.4799,-74.3621 45.5309,-76.8457 53.8009,-78.2571 C54.9313,-76.2332 55.9546,-74.1512 56.8664,-72.0197 C65.6699,-73.3475 74.6224,-73.3475 83.4258,-72.0197 C84.3371,-74.1514 85.3604,-76.2335 86.4914,-78.2571 Z M50.8721,-41.49 C45.0055,-41.49 40.4436,-36.248 40.4436,-29.8553 C40.4436,-23.4626 45.1698,-18.2662 50.8904,-18.2662 C56.7205,-18.2662 61.2276,-23.4626 61.328,-29.8553 C61.4283,-36.248 56.7387,-41.49 50.8721,-41.49 Z M89.4292,-41.49 C83.5535,-41.49 78.9916,-36.248 78.9916,-29.8553 C78.9916,-23.4626 83.6995,-18.2662 89.4292,-18.2662 C95.2593,-18.2662 99.7573,-23.4626 99.8577,-29.8553 C99.9581,-36.248 95.3049,-41.49 89.4292,-41.49 Z" id="Path-17"></path>
                </g>
                <g id="Semibold-M" transform="translate(1972.76, 1126)">
                    <path d="M86.4914,-78.2571 C94.756,-76.8575 102.802,-74.3798 110.423,-70.8872 C123.552,-51.6726 130.076,-30.0014 127.667,-4.99683 C118.796,1.56868 108.861,6.55489 98.2975,9.7429 C95.919,6.54826 93.816,3.15706 92.0113,-0.394086 C95.4494,-1.68021 98.768,-3.26622 101.929,-5.13381 C101.108,-5.69089 100.296,-6.31189 99.5019,-6.9603 C80.9168,1.78811 59.4028,1.78811 40.8177,-6.9603 C40.0331,-6.35756 39.221,-5.73655 38.3908,-5.13381 C41.5455,-3.26924 44.858,-1.68627 48.2901,-0.403219 C46.4831,3.14957 44.3803,6.54362 42.0038,9.7429 C31.4497,6.54205 21.5222,1.55348 12.6526,-5.00596 C10.5997,-26.5676 14.7054,-48.4397 29.8509,-70.869 C37.4799,-74.3621 45.5309,-76.8457 53.8009,-78.2571 C54.9313,-76.2332 55.9546,-74.1512 56.8664,-72.0197 C65.6699,-73.3475 74.6224,-73.3475 83.4258,-72.0197 C84.3371,-74.1514 85.3604,-76.2335 86.4914,-78.2571 Z M50.8721,-41.49 C45.0055,-41.49 40.4436,-36.248 40.4436,-29.8553 C40.4436,-23.4626 45.1698,-18.2662 50.8904,-18.2662 C56.7205,-18.2662 61.2276,-23.4626 61.328,-29.8553 C61.4283,-36.248 56.7387,-41.49 50.8721,-41.49 Z M89.4292,-41.49 C83.5535,-41.49 78.9916,-36.248 78.9916,-29.8553 C78.9916,-23.4626 83.6995,-18.2662 89.4292,-18.2662 C95.2593,-18.2662 99.7573,-23.4626 99.8577,-29.8553 C99.9581,-36.248 95.3049,-41.49 89.4292,-41.49 Z" id="Path-16"></path>
                </g>
                <g id="Medium-M" transform="translate(1676.55, 1126)">
                    <path d="M85.8506,-78 C94.044,-76.6163 102.02,-74.1667 109.576,-70.7139 C122.592,-51.7176 129.059,-30.2927 126.671,-5.57223 C117.877,0.918673 108.027,5.84822 97.555,9 C95.1969,5.84166 93.1121,2.489 91.3229,-1.02179 C94.7314,-2.2933 98.0214,-3.86129 101.155,-5.70766 C100.341,-6.25841 99.5359,-6.87235 98.7489,-7.51339 C80.324,1.1356 58.9956,1.1356 40.5707,-7.51339 C39.7928,-6.9175 38.9878,-6.30355 38.1647,-5.70766 C41.2922,-3.86428 44.5762,-2.29929 47.9786,-1.03082 C46.1872,2.4816 44.1025,5.83708 41.7465,9 C31.2835,5.83552 21.4415,0.903639 12.6484,-5.58126 C10.6132,-26.8979 14.6835,-48.5215 29.6984,-70.6958 C37.2616,-74.1492 45.2433,-76.6046 53.4419,-78 C54.5626,-75.9991 55.5771,-73.9408 56.481,-71.8334 C65.2086,-73.1462 74.0839,-73.1462 82.8114,-71.8334 C83.7149,-73.941 84.7294,-75.9994 85.8506,-78 Z M50.5384,-41.6507 C44.7224,-41.6507 40.1998,-36.4682 40.1998,-30.1482 C40.1998,-23.8281 44.8852,-18.6908 50.5565,-18.6908 C56.3363,-18.6908 60.8046,-23.8281 60.9041,-30.1482 C61.0036,-36.4682 56.3544,-41.6507 50.5384,-41.6507 Z M88.7631,-41.6507 C82.938,-41.6507 78.4155,-36.4682 78.4155,-30.1482 C78.4155,-23.8281 83.0828,-18.6908 88.7631,-18.6908 C94.5429,-18.6908 99.0022,-23.8281 99.1017,-30.1482 C99.2012,-36.4682 94.5882,-41.6507 88.7631,-41.6507 Z" id="Path-15"></path>
                </g>
                <g id="Regular-M" transform="translate(1379.84, 1126)">
                    <path d="M85.8506,-78 C94.044,-76.6163 102.02,-74.1667 109.576,-70.7139 C122.592,-51.7176 129.059,-30.2927 126.671,-5.57223 C117.877,0.918673 108.027,5.84822 97.555,9 C95.1969,5.84166 93.1121,2.489 91.3229,-1.02179 C94.7314,-2.2933 98.0214,-3.86129 101.155,-5.70766 C100.341,-6.25841 99.5359,-6.87235 98.7489,-7.51339 C80.324,1.1356 58.9956,1.1356 40.5707,-7.51339 C39.7928,-6.9175 38.9878,-6.30355 38.1647,-5.70766 C41.2922,-3.86428 44.5762,-2.29929 47.9786,-1.03082 C46.1872,2.4816 44.1025,5.83708 41.7465,9 C31.2835,5.83552 21.4415,0.903639 12.6484,-5.58126 C10.6132,-26.8979 14.6835,-48.5215 29.6984,-70.6958 C37.2616,-74.1492 45.2433,-76.6046 53.4419,-78 C54.5626,-75.9991 55.5771,-73.9408 56.481,-71.8334 C65.2086,-73.1462 74.0839,-73.1462 82.8114,-71.8334 C83.7149,-73.941 84.7294,-75.9994 85.8506,-78 Z M50.5384,-41.6507 C44.7224,-41.6507 40.1998,-36.4682 40.1998,-30.1482 C40.1998,-23.8281 44.8852,-18.6908 50.5565,-18.6908 C56.3363,-18.6908 60.8046,-23.8281 60.9041,-30.1482 C61.0036,-36.4682 56.3544,-41.6507 50.5384,-41.6507 Z M88.7631,-41.6507 C82.938,-41.6507 78.4155,-36.4682 78.4155,-30.1482 C78.4155,-23.8281 83.0828,-18.6908 88.7631,-18.6908 C94.5429,-18.6908 99.0022,-23.8281 99.1017,-30.1482 C99.2012,-36.4682 94.5882,-41.6507 88.7631,-41.6507 Z" id="Path-14"></path>
                </g>
                <g id="Light-M" transform="translate(1083.63, 1126)">
                    <path d="M85.2098,-77.429 C93.3319,-76.0612 101.239,-73.6398 108.729,-70.2266 C121.632,-51.4487 128.043,-30.27 125.675,-5.83373 C116.957,0.582562 107.193,5.45544 96.8124,8.571 C94.4749,5.44897 92.4081,2.13484 90.6345,-1.3356 C94.0134,-2.5925 97.2748,-4.14246 100.381,-5.96761 C99.5741,-6.51202 98.7761,-7.11891 97.996,-7.75258 C79.7313,0.796998 58.5883,0.796998 40.3236,-7.75258 C39.5525,-7.16354 38.7545,-6.55665 37.9385,-5.96761 C41.0388,-4.14541 44.2943,-2.59841 47.6672,-1.34453 C45.8914,2.12752 43.8247,5.44443 41.4893,8.571 C31.1172,5.44289 21.3608,0.567701 12.6441,-5.84266 C10.6266,-26.9143 14.6616,-48.2893 29.5459,-70.2088 C37.0434,-73.6225 44.9556,-76.0496 53.0829,-77.429 C54.1939,-75.4511 55.1995,-73.4164 56.0956,-71.3333 C64.7473,-72.631 73.5454,-72.631 82.1971,-71.3333 C83.0927,-73.4166 84.0984,-75.4514 85.2098,-77.429 Z M50.2047,-41.4975 C44.4392,-41.4975 39.956,-36.3746 39.956,-30.1272 C39.956,-23.8798 44.6006,-18.8016 50.2226,-18.8016 C55.9522,-18.8016 60.3816,-23.8798 60.4803,-30.1272 C60.5789,-36.3746 55.9701,-41.4975 50.2047,-41.4975 Z M88.097,-41.4975 C82.3226,-41.4975 77.8393,-36.3746 77.8393,-30.1272 C77.8393,-23.8798 82.466,-18.8016 88.097,-18.8016 C93.8266,-18.8016 98.247,-23.8798 98.3457,-30.1272 C98.4443,-36.3746 93.8714,-41.4975 88.097,-41.4975 Z" id="Path-13"></path>
                </g>
                <g id="Thin-M" transform="translate(787.417, 1126)">
                    <path d="M84.569,-77.4559 C92.6199,-76.104 100.458,-73.7107 107.882,-70.3373 C120.671,-51.7777 127.026,-30.8453 124.68,-6.69314 C116.038,-0.351449 106.36,4.46477 96.0698,7.5441 C93.7528,4.45837 91.7042,1.18278 89.9461,-2.24731 C93.2954,-3.48959 96.5282,-5.02153 99.6072,-6.82545 C98.8073,-7.36354 98.0163,-7.96337 97.243,-8.58967 C79.1386,-0.139506 58.181,-0.139506 40.0766,-8.58967 C39.3122,-8.00748 38.5212,-7.40764 37.7124,-6.82545 C40.7855,-5.02444 44.0124,-3.49544 47.3557,-2.25613 C45.5955,1.17555 43.547,4.45389 41.232,7.5441 C30.9509,4.45237 21.28,-0.366138 12.6399,-6.70196 C10.6401,-27.5285 14.6396,-48.655 29.3934,-70.3196 C36.8251,-73.6937 44.6679,-76.0926 52.7239,-77.4559 C53.8252,-75.501 54.822,-73.49 55.7102,-71.4311 C64.286,-72.7137 73.007,-72.7137 81.5827,-71.4311 C82.4705,-73.4902 83.4673,-75.5013 84.569,-77.4559 Z M49.8709,-41.9422 C44.1561,-41.9422 39.7122,-36.8789 39.7122,-30.7041 C39.7122,-24.5294 44.3161,-19.5102 49.8887,-19.5102 C55.568,-19.5102 59.9586,-24.5294 60.0564,-30.7041 C60.1542,-36.8789 55.5858,-41.9422 49.8709,-41.9422 Z M87.4309,-41.9422 C81.7071,-41.9422 77.2632,-36.8789 77.2632,-30.7041 C77.2632,-24.5294 81.8493,-19.5102 87.4309,-19.5102 C93.1102,-19.5102 97.4919,-24.5294 97.5897,-30.7041 C97.6874,-36.8789 93.1546,-41.9422 87.4309,-41.9422 Z" id="Path-12"></path>
                </g>
                <g id="Ultralight-M" transform="translate(491.206, 1126)">
                    <path d="M83.9282,-76.9575 C91.9079,-75.6215 99.6761,-73.2564 107.035,-69.9226 C119.711,-51.5814 126.01,-30.8952 123.684,-7.02724 C115.119,-0.76016 105.526,3.9994 95.3273,7.0425 C93.0308,3.99307 91.0003,0.756018 89.2578,-2.63371 C92.5774,-3.86138 95.7815,-5.3753 98.8333,-7.158 C98.0405,-7.68975 97.2565,-8.28253 96.4901,-8.90146 C78.5458,-0.550711 57.7738,-0.550711 39.8295,-8.90146 C39.0719,-8.32612 38.2879,-7.73334 37.4863,-7.158 C40.5322,-5.37818 43.7305,-3.86716 47.0442,-2.64243 C45.2996,0.748871 43.2692,3.98865 40.9747,7.0425 C30.7846,3.98714 21.1993,-0.774676 12.6356,-7.03596 C10.6535,-27.6175 14.6177,-48.4955 29.2409,-69.9052 C36.6068,-73.2395 44.3802,-75.6102 52.365,-76.9575 C53.4564,-75.0256 54.4444,-73.0382 55.3248,-71.0036 C63.8247,-72.2711 72.4685,-72.2711 80.9683,-71.0036 C81.8483,-73.0384 82.8363,-75.0258 83.9282,-76.9575 Z M49.5372,-41.8616 C43.8729,-41.8616 39.4683,-36.8579 39.4683,-30.7558 C39.4683,-24.6536 44.0315,-19.6935 49.5548,-19.6935 C55.1839,-19.6935 59.5356,-24.6536 59.6325,-30.7558 C59.7294,-36.8579 55.2015,-41.8616 49.5372,-41.8616 Z M86.7648,-41.8616 C81.0917,-41.8616 76.6871,-36.8579 76.6871,-30.7558 C76.6871,-24.6536 81.2326,-19.6935 86.7648,-19.6935 C92.3938,-19.6935 96.7367,-24.6536 96.8336,-30.7558 C96.9305,-36.8579 92.4379,-41.8616 86.7648,-41.8616 Z" id="Path-11"></path>
                </g>
                <g id="Black-S" transform="translate(2874.89, 696)">
                    <path d="M71.1125,-70.7406 C77.6672,-69.6273 84.0483,-67.6564 90.0928,-64.8782 C100.506,-49.5939 105.679,-32.3554 103.769,-12.4654 C96.7332,-7.24282 88.8536,-3.27652 80.476,-0.7406 C78.5895,-3.28179 76.9217,-5.97933 75.4903,-8.80411 C78.2171,-9.82717 80.8491,-11.0888 83.3559,-12.5743 C82.7047,-13.0175 82.0607,-13.5115 81.4311,-14.0272 C66.6912,-7.06828 49.6284,-7.06828 34.8885,-14.0272 C34.2662,-13.5478 33.6222,-13.0538 32.9637,-12.5743 C35.4657,-11.0912 38.0929,-9.83198 40.8149,-8.81138 C39.3818,-5.98529 37.714,-3.28548 35.8292,-0.7406 C27.4588,-3.28673 19.5852,-7.25491 12.5507,-12.4726 C10.9226,-29.624 14.1788,-47.0223 26.1907,-64.8637 C32.2413,-67.6423 38.6266,-69.6179 45.1855,-70.7406 C46.0821,-69.1307 46.8936,-67.4745 47.6168,-65.779 C54.5989,-66.8352 61.6991,-66.8352 68.6811,-65.779 C69.4039,-67.4747 70.2155,-69.1309 71.1125,-70.7406 Z M42.8627,-41.494 C38.2099,-41.494 34.5918,-37.3242 34.5918,-32.2391 C34.5918,-27.154 38.3402,-23.0206 42.8772,-23.0206 C47.5011,-23.0206 51.0757,-27.154 51.1553,-32.2391 C51.2349,-37.3242 47.5155,-41.494 42.8627,-41.494 Z M73.4425,-41.494 C68.7824,-41.494 65.1644,-37.3242 65.1644,-32.2391 C65.1644,-27.154 68.8982,-23.0206 73.4425,-23.0206 C78.0664,-23.0206 81.6338,-27.154 81.7134,-32.2391 C81.7929,-37.3242 78.1025,-41.494 73.4425,-41.494 Z" id="Path-10"></path>
                </g>
                <g id="Heavy-S" transform="translate(2578.18, 696)">
                    <path d="M71.1125,-70.7406 C77.6672,-69.6273 84.0483,-67.6564 90.0928,-64.8782 C100.506,-49.5939 105.679,-32.3554 103.769,-12.4654 C96.7332,-7.24282 88.8536,-3.27652 80.476,-0.7406 C78.5895,-3.28179 76.9217,-5.97933 75.4903,-8.80411 C78.2171,-9.82717 80.8491,-11.0888 83.3559,-12.5743 C82.7047,-13.0175 82.0607,-13.5115 81.4311,-14.0272 C66.6912,-7.06828 49.6284,-7.06828 34.8885,-14.0272 C34.2662,-13.5478 33.6222,-13.0538 32.9637,-12.5743 C35.4657,-11.0912 38.0929,-9.83198 40.8149,-8.81138 C39.3818,-5.98529 37.714,-3.28548 35.8292,-0.7406 C27.4588,-3.28673 19.5852,-7.25491 12.5507,-12.4726 C10.9226,-29.624 14.1788,-47.0223 26.1907,-64.8637 C32.2413,-67.6423 38.6266,-69.6179 45.1855,-70.7406 C46.0821,-69.1307 46.8936,-67.4745 47.6168,-65.779 C54.5989,-66.8352 61.6991,-66.8352 68.6811,-65.779 C69.4039,-67.4747 70.2155,-69.1309 71.1125,-70.7406 Z M42.8627,-41.494 C38.2099,-41.494 34.5918,-37.3242 34.5918,-32.2391 C34.5918,-27.154 38.3402,-23.0206 42.8772,-23.0206 C47.5011,-23.0206 51.0757,-27.154 51.1553,-32.2391 C51.2349,-37.3242 47.5155,-41.494 42.8627,-41.494 Z M73.4425,-41.494 C68.7824,-41.494 65.1644,-37.3242 65.1644,-32.2391 C65.1644,-27.154 68.8982,-23.0206 73.4425,-23.0206 C78.0664,-23.0206 81.6338,-27.154 81.7134,-32.2391 C81.7929,-37.3242 78.1025,-41.494 73.4425,-41.494 Z" id="Path-9"></path>
                </g>
                <g id="Bold-S" transform="translate(2281.97, 696)">
                    <path d="M70.4717,-70.6082 C76.9551,-69.5108 83.2669,-67.568 89.2457,-64.8296 C99.5452,-49.7636 104.663,-32.7713 102.773,-13.1655 C95.8139,-8.01753 88.02,-4.10789 79.7334,-1.6082 C77.8675,-4.11309 76.2177,-6.7721 74.8019,-9.55652 C77.4991,-10.565 80.1025,-11.8085 82.5821,-13.2729 C81.9379,-13.7097 81.3009,-14.1966 80.6782,-14.705 C66.0985,-7.84548 49.2212,-7.84548 34.6415,-14.705 C34.0259,-14.2324 33.3889,-13.7455 32.7376,-13.2729 C35.2124,-11.8109 37.811,-10.5697 40.5034,-9.56368 C39.0859,-6.77797 37.4362,-4.11672 35.5719,-1.6082 C27.2925,-4.11796 19.5045,-8.02945 12.5464,-13.1726 C10.936,-30.0789 14.1569,-47.2287 26.0382,-64.8152 C32.023,-67.5541 38.3389,-69.5015 44.8265,-70.6082 C45.7134,-69.0213 46.5161,-67.3888 47.2314,-65.7175 C54.1376,-66.7586 61.1606,-66.7586 68.0668,-65.7175 C68.7817,-67.389 69.5845,-69.0215 70.4717,-70.6082 Z M42.529,-41.7794 C37.9268,-41.7794 34.348,-37.6692 34.348,-32.6568 C34.348,-27.6443 38.0556,-23.5699 42.5433,-23.5699 C47.1169,-23.5699 50.6527,-27.6443 50.7314,-32.6568 C50.8102,-37.6692 47.1312,-41.7794 42.529,-41.7794 Z M72.7764,-41.7794 C68.167,-41.7794 64.5883,-37.6692 64.5883,-32.6568 C64.5883,-27.6443 68.2815,-23.5699 72.7764,-23.5699 C77.35,-23.5699 80.8786,-27.6443 80.9573,-32.6568 C81.0361,-37.6692 77.3858,-41.7794 72.7764,-41.7794 Z" id="Path-8"></path>
                </g>
                <g id="Semibold-S" transform="translate(1985.26, 696)">
                    <path d="M70.4717,-70.6082 C76.9551,-69.5108 83.2669,-67.568 89.2457,-64.8296 C99.5452,-49.7636 104.663,-32.7713 102.773,-13.1655 C95.8139,-8.01753 88.02,-4.10789 79.7334,-1.6082 C77.8675,-4.11309 76.2177,-6.7721 74.8019,-9.55652 C77.4991,-10.565 80.1025,-11.8085 82.5821,-13.2729 C81.9379,-13.7097 81.3009,-14.1966 80.6782,-14.705 C66.0985,-7.84548 49.2212,-7.84548 34.6415,-14.705 C34.0259,-14.2324 33.3889,-13.7455 32.7376,-13.2729 C35.2124,-11.8109 37.811,-10.5697 40.5034,-9.56368 C39.0859,-6.77797 37.4362,-4.11672 35.5719,-1.6082 C27.2925,-4.11796 19.5045,-8.02945 12.5464,-13.1726 C10.936,-30.0789 14.1569,-47.2287 26.0382,-64.8152 C32.023,-67.5541 38.3389,-69.5015 44.8265,-70.6082 C45.7134,-69.0213 46.5161,-67.3888 47.2314,-65.7175 C54.1376,-66.7586 61.1606,-66.7586 68.0668,-65.7175 C68.7817,-67.389 69.5845,-69.0215 70.4717,-70.6082 Z M42.529,-41.7794 C37.9268,-41.7794 34.348,-37.6692 34.348,-32.6568 C34.348,-27.6443 38.0556,-23.5699 42.5433,-23.5699 C47.1169,-23.5699 50.6527,-27.6443 50.7314,-32.6568 C50.8102,-37.6692 47.1312,-41.7794 42.529,-41.7794 Z M72.7764,-41.7794 C68.167,-41.7794 64.5883,-37.6692 64.5883,-32.6568 C64.5883,-27.6443 68.2815,-23.5699 72.7764,-23.5699 C77.35,-23.5699 80.8786,-27.6443 80.9573,-32.6568 C81.0361,-37.6692 77.3858,-41.7794 72.7764,-41.7794 Z" id="Path-7"></path>
                </g>
                <g id="Medium-S" transform="translate(1689.05, 696)">
                    <path d="M69.8309,-70 C76.2431,-68.9185 82.4855,-67.0039 88.3986,-64.3051 C98.585,-49.4575 103.646,-32.7115 101.777,-13.3898 C94.8947,-8.31644 87.1863,-4.46346 78.9908,-2 C77.1454,-4.46858 75.5138,-7.08906 74.1136,-9.83313 C76.7811,-10.827 79.3559,-12.0525 81.8082,-13.4956 C81.1711,-13.9261 80.5411,-14.406 79.9253,-14.907 C65.5058,-8.14689 48.8139,-8.14689 34.3944,-14.907 C33.7857,-14.4413 33.1556,-13.9614 32.5115,-13.4956 C34.9591,-12.0548 37.5292,-10.8316 40.192,-9.84018 C38.79,-7.09484 37.1585,-4.47217 35.3147,-2 C27.1262,-4.47339 19.4238,-8.32819 12.5422,-13.3968 C10.9495,-30.0581 14.1349,-46.9593 25.8857,-64.291 C31.8048,-66.9902 38.0512,-68.9093 44.4676,-70 C45.3446,-68.4361 46.1386,-66.8273 46.846,-65.1802 C53.6763,-66.2062 60.6222,-66.2062 67.4524,-65.1802 C68.1595,-66.8274 68.9534,-68.4363 69.8309,-70 Z M42.1953,-41.589 C37.6436,-41.589 34.1042,-37.5384 34.1042,-32.5986 C34.1042,-27.6588 37.771,-23.6434 42.2094,-23.6434 C46.7328,-23.6434 50.2297,-27.6588 50.3076,-32.5986 C50.3854,-37.5384 46.7469,-41.589 42.1953,-41.589 Z M72.1103,-41.589 C67.5515,-41.589 64.0121,-37.5384 64.0121,-32.5986 C64.0121,-27.6588 67.6648,-23.6434 72.1103,-23.6434 C76.6336,-23.6434 80.1235,-27.6588 80.2013,-32.5986 C80.2792,-37.5384 76.669,-41.589 72.1103,-41.589 Z" id="Path-6"></path>
                </g>
                <g id="Regular-S" transform="translate(1392.34, 696)">
                    <path d="M69.8309,-70 C76.2431,-68.9185 82.4855,-67.0039 88.3986,-64.3051 C98.585,-49.4575 103.646,-32.7115 101.777,-13.3898 C94.8947,-8.31644 87.1863,-4.46346 78.9908,-2 C77.1454,-4.46858 75.5138,-7.08906 74.1136,-9.83313 C76.7811,-10.827 79.3559,-12.0525 81.8082,-13.4956 C81.1711,-13.9261 80.5411,-14.406 79.9253,-14.907 C65.5058,-8.14689 48.8139,-8.14689 34.3944,-14.907 C33.7857,-14.4413 33.1556,-13.9614 32.5115,-13.4956 C34.9591,-12.0548 37.5292,-10.8316 40.192,-9.84018 C38.79,-7.09484 37.1585,-4.47217 35.3147,-2 C27.1262,-4.47339 19.4238,-8.32819 12.5422,-13.3968 C10.9495,-30.0581 14.1349,-46.9593 25.8857,-64.291 C31.8048,-66.9902 38.0512,-68.9093 44.4676,-70 C45.3446,-68.4361 46.1386,-66.8273 46.846,-65.1802 C53.6763,-66.2062 60.6222,-66.2062 67.4524,-65.1802 C68.1595,-66.8274 68.9534,-68.4363 69.8309,-70 Z M42.1953,-41.589 C37.6436,-41.589 34.1042,-37.5384 34.1042,-32.5986 C34.1042,-27.6588 37.771,-23.6434 42.2094,-23.6434 C46.7328,-23.6434 50.2297,-27.6588 50.3076,-32.5986 C50.3854,-37.5384 46.7469,-41.589 42.1953,-41.589 Z M72.1103,-41.589 C67.5515,-41.589 64.0121,-37.5384 64.0121,-32.5986 C64.0121,-27.6588 67.6648,-23.6434 72.1103,-23.6434 C76.6336,-23.6434 80.1235,-27.6588 80.2013,-32.5986 C80.2792,-37.5384 76.669,-41.589 72.1103,-41.589 Z" id="Path-5"></path>
                </g>
                <g id="Light-S" transform="translate(1096.13, 696)">
                    <path d="M69.1901,-69.1499 C75.5311,-68.0843 81.7041,-66.1978 87.5515,-63.5388 C97.6247,-48.9094 102.63,-32.4098 100.782,-13.3722 C93.9754,-8.37345 86.3527,-4.57714 78.2483,-2.1499 C76.4234,-4.58218 74.8099,-7.16412 73.4252,-9.86783 C76.0631,-10.847 78.6093,-12.0546 81.0343,-13.4765 C80.4043,-13.9006 79.7813,-14.3734 79.1723,-14.8671 C64.913,-8.20639 48.4066,-8.20639 34.1474,-14.8671 C33.5454,-14.4082 32.9224,-13.9354 32.2853,-13.4765 C34.7058,-12.0569 37.2473,-10.8517 39.8805,-9.87479 C38.4941,-7.16982 36.8807,-4.58571 35.0574,-2.1499 C26.9599,-4.58691 19.343,-8.38503 12.5379,-13.3791 C10.9629,-29.7954 14.113,-46.4481 25.7332,-63.5248 C31.5865,-66.1844 37.7636,-68.0753 44.1086,-69.1499 C44.9759,-67.609 45.761,-66.0238 46.4606,-64.4009 C53.215,-65.4119 60.0837,-65.4119 66.8381,-64.4009 C67.5373,-66.024 68.3224,-67.6092 69.1901,-69.1499 Z M41.8615,-41.1567 C37.3604,-41.1567 33.8604,-37.1657 33.8604,-32.2985 C33.8604,-27.4313 37.4865,-23.475 41.8755,-23.475 C46.3486,-23.475 49.8067,-27.4313 49.8837,-32.2985 C49.9607,-37.1657 46.3626,-41.1567 41.8615,-41.1567 Z M71.4441,-41.1567 C66.9361,-41.1567 63.436,-37.1657 63.436,-32.2985 C63.436,-27.4313 67.0481,-23.475 71.4441,-23.475 C75.9172,-23.475 79.3683,-27.4313 79.4453,-32.2985 C79.5223,-37.1657 75.9522,-41.1567 71.4441,-41.1567 Z" id="Path-4"></path>
                </g>
                <g id="Thin-S" transform="translate(799.417, 696)">
                    <path d="M69.1901,-69.1499 C75.5311,-68.0843 81.7041,-66.1978 87.5515,-63.5388 C97.6247,-48.9094 102.63,-32.4098 100.782,-13.3722 C93.9754,-8.37345 86.3527,-4.57714 78.2483,-2.1499 C76.4234,-4.58218 74.8099,-7.16412 73.4252,-9.86783 C76.0631,-10.847 78.6093,-12.0546 81.0343,-13.4765 C80.4043,-13.9006 79.7813,-14.3734 79.1723,-14.8671 C64.913,-8.20639 48.4066,-8.20639 34.1474,-14.8671 C33.5454,-14.4082 32.9224,-13.9354 32.2853,-13.4765 C34.7058,-12.0569 37.2473,-10.8517 39.8805,-9.87479 C38.4941,-7.16982 36.8807,-4.58571 35.0574,-2.1499 C26.9599,-4.58691 19.343,-8.38503 12.5379,-13.3791 C10.9629,-29.7954 14.113,-46.4481 25.7332,-63.5248 C31.5865,-66.1844 37.7636,-68.0753 44.1086,-69.1499 C44.9759,-67.609 45.761,-66.0238 46.4606,-64.4009 C53.215,-65.4119 60.0837,-65.4119 66.8381,-64.4009 C67.5373,-66.024 68.3224,-67.6092 69.1901,-69.1499 Z M41.8615,-41.1567 C37.3604,-41.1567 33.8604,-37.1657 33.8604,-32.2985 C33.8604,-27.4313 37.4865,-23.475 41.8755,-23.475 C46.3486,-23.475 49.8067,-27.4313 49.8837,-32.2985 C49.9607,-37.1657 46.3626,-41.1567 41.8615,-41.1567 Z M71.4441,-41.1567 C66.9361,-41.1567 63.436,-37.1657 63.436,-32.2985 C63.436,-27.4313 67.0481,-23.475 71.4441,-23.475 C75.9172,-23.475 79.3683,-27.4313 79.4453,-32.2985 C79.5223,-37.1657 75.9522,-41.1567 71.4441,-41.1567 Z" id="Path-3"></path>
                </g>
                <g id="Ultralight-S" transform="translate(503.206, 696)">
                    <path d="M68.5493,-69.1499 C74.819,-68.1002 80.9227,-66.2419 86.7044,-63.6225 C96.6644,-49.2115 101.613,-32.9581 99.786,-14.2047 C93.0561,-9.28056 85.5191,-5.54091 77.5057,-3.1499 C75.7013,-5.54588 74.1059,-8.08928 72.7368,-10.7526 C75.3451,-11.7172 77.8626,-12.9067 80.2605,-14.3074 C79.6375,-14.7252 79.0215,-15.191 78.4194,-15.6773 C64.3203,-9.11599 47.9994,-9.11599 33.9003,-15.6773 C33.3051,-15.2252 32.6891,-14.7595 32.0592,-14.3074 C34.4524,-12.909 36.9654,-11.7218 39.569,-10.7595 C38.1982,-8.09489 36.603,-5.54936 34.8001,-3.1499 C26.7936,-5.55054 19.2623,-9.29197 12.5337,-14.2115 C10.9764,-30.3828 14.091,-46.7869 25.5807,-63.6088 C31.3682,-66.2286 37.4759,-68.0913 43.7496,-69.1499 C44.6072,-67.632 45.3835,-66.0705 46.0752,-64.4718 C52.7537,-65.4677 59.5452,-65.4677 66.2237,-64.4718 C66.9151,-66.0706 67.6914,-67.6322 68.5493,-69.1499 Z M41.5278,-41.5746 C37.0773,-41.5746 33.6166,-37.6431 33.6166,-32.8485 C33.6166,-28.054 37.2019,-24.1567 41.5417,-24.1567 C45.9645,-24.1567 49.3837,-28.054 49.4598,-32.8485 C49.536,-37.6431 45.9783,-41.5746 41.5278,-41.5746 Z M70.778,-41.5746 C66.3206,-41.5746 62.8598,-37.6431 62.8598,-32.8485 C62.8598,-28.054 66.4313,-24.1567 70.778,-24.1567 C75.2009,-24.1567 78.6132,-28.054 78.6893,-32.8485 C78.7654,-37.6431 75.2355,-41.5746 70.778,-41.5746 Z" id="Path-2"></path>
                </g>
            </g>
        </g>
    </g>
</svg>