<?xml version="1.0" encoding="UTF-8"?>
<!--Generator: Apple Native CoreSVG 232.5-->
<!DOCTYPE svg
PUBLIC "-//W3C//DTD SVG 1.1//EN"
       "http://www.w3.org/Graphics/SVG/1.1/DTD/svg11.dtd">
<svg version="1.1" xmlns="http://www.w3.org/2000/svg" xmlns:xlink="http://www.w3.org/1999/xlink" width="3300" height="2200">
 <!--glyph: "", point size: 100.0, font version: "19.2d2e1", template writer version: "128"-->
 <style>.monochrome-0 {-sfsymbols-motion-group:1}
.monochrome-1 {opacity:0.0;-sfsymbols-clear-behind:true;-sfsymbols-motion-group:0}

.multicolor-0:custom {fill:#F3AC3C;-sfsymbols-motion-group:1}
.multicolor-1:custom {fill:#FFFE95;-sfsymbols-motion-group:0}

.hierarchical-0:primary {-sfsymbols-motion-group:1}
.hierarchical-1:tertiary {-sfsymbols-motion-group:0}

.SFSymbolsPreviewWireframe {fill:none;opacity:1.0;stroke:black;stroke-width:0.5}
</style>
 <g id="Notes">
  <rect height="2200" id="artboard" style="fill:white;opacity:1" width="3300" x="0" y="0"/>
  <line style="fill:none;stroke:black;opacity:1;stroke-width:0.5;" x1="263" x2="3036" y1="292" y2="292"/>
  <text style="stroke:none;fill:black;font-family:sans-serif;font-size:13;font-weight:bold;" transform="matrix(1 0 0 1 263 322)">Weight/Scale Variations</text>
  <text style="stroke:none;fill:black;font-family:sans-serif;font-size:13;text-anchor:middle;" transform="matrix(1 0 0 1 559.711 322)">Ultralight</text>
  <text style="stroke:none;fill:black;font-family:sans-serif;font-size:13;text-anchor:middle;" transform="matrix(1 0 0 1 856.422 322)">Thin</text>
  <text style="stroke:none;fill:black;font-family:sans-serif;font-size:13;text-anchor:middle;" transform="matrix(1 0 0 1 1153.13 322)">Light</text>
  <text style="stroke:none;fill:black;font-family:sans-serif;font-size:13;text-anchor:middle;" transform="matrix(1 0 0 1 1449.84 322)">Regular</text>
  <text style="stroke:none;fill:black;font-family:sans-serif;font-size:13;text-anchor:middle;" transform="matrix(1 0 0 1 1746.56 322)">Medium</text>
  <text style="stroke:none;fill:black;font-family:sans-serif;font-size:13;text-anchor:middle;" transform="matrix(1 0 0 1 2043.27 322)">Semibold</text>
  <text style="stroke:none;fill:black;font-family:sans-serif;font-size:13;text-anchor:middle;" transform="matrix(1 0 0 1 2339.98 322)">Bold</text>
  <text style="stroke:none;fill:black;font-family:sans-serif;font-size:13;text-anchor:middle;" transform="matrix(1 0 0 1 2636.69 322)">Heavy</text>
  <text style="stroke:none;fill:black;font-family:sans-serif;font-size:13;text-anchor:middle;" transform="matrix(1 0 0 1 2933.4 322)">Black</text>
  <line style="fill:none;stroke:black;opacity:1;stroke-width:0.5;" x1="263" x2="3036" y1="1903" y2="1903"/>
  <g transform="matrix(0.2 0 0 0.2 263 1933)">
   <path d="m46.2402 4.15039c21.5332 0 39.4531-17.8711 39.4531-39.4043s-17.9688-39.4043-39.502-39.4043c-21.4844 0-39.3555 17.8711-39.3555 39.4043s17.9199 39.4043 39.4043 39.4043Zm0-7.42188c-17.7246 0-31.8848-14.209-31.8848-31.9824s14.1113-31.9824 31.8359-31.9824c17.7734 0 32.0312 14.209 32.0312 31.9824s-14.209 31.9824-31.9824 31.9824Zm-17.9688-31.9824c0 2.14844 1.51367 3.61328 3.75977 3.61328h10.498v10.5957c0 2.19727 1.46484 3.71094 3.61328 3.71094 2.24609 0 3.71094-1.51367 3.71094-3.71094v-10.5957h10.5957c2.19727 0 3.71094-1.46484 3.71094-3.61328 0-2.19727-1.51367-3.71094-3.71094-3.71094h-10.5957v-10.5469c0-2.24609-1.46484-3.75977-3.71094-3.75977-2.14844 0-3.61328 1.51367-3.61328 3.75977v10.5469h-10.498c-2.24609 0-3.75977 1.51367-3.75977 3.71094Z"/>
  </g>
  <g transform="matrix(0.2 0 0 0.2 281.506 1933)">
   <path d="m58.5449 14.5508c27.2461 0 49.8047-22.6074 49.8047-49.8047 0-27.2461-22.6074-49.8047-49.8535-49.8047-27.1973 0-49.7559 22.5586-49.7559 49.8047 0 27.1973 22.6074 49.8047 49.8047 49.8047Zm0-8.30078c-23.0469 0-41.4551-18.457-41.4551-41.5039s18.3594-41.5039 41.4062-41.5039 41.5527 18.457 41.5527 41.5039-18.457 41.5039-41.5039 41.5039Zm-22.6562-41.5039c0 2.39258 1.66016 4.00391 4.15039 4.00391h14.3555v14.4043c0 2.44141 1.66016 4.15039 4.05273 4.15039 2.44141 0 4.15039-1.66016 4.15039-4.15039v-14.4043h14.4043c2.44141 0 4.15039-1.61133 4.15039-4.00391 0-2.44141-1.70898-4.15039-4.15039-4.15039h-14.4043v-14.3555c0-2.49023-1.70898-4.19922-4.15039-4.19922-2.39258 0-4.05273 1.70898-4.05273 4.19922v14.3555h-14.3555c-2.49023 0-4.15039 1.70898-4.15039 4.15039Z"/>
  </g>
  <g transform="matrix(0.2 0 0 0.2 304.924 1933)">
   <path d="m74.8535 28.3203c34.8145 0 63.623-28.8086 63.623-63.5742 0-34.8145-28.8574-63.623-63.6719-63.623-34.7656 0-63.5254 28.8086-63.5254 63.623 0 34.7656 28.8086 63.5742 63.5742 63.5742Zm0-9.08203c-30.1758 0-54.4434-24.3164-54.4434-54.4922 0-30.2246 24.2188-54.4922 54.3945-54.4922 30.2246 0 54.541 24.2676 54.541 54.4922 0 30.1758-24.2676 54.4922-54.4922 54.4922Zm-28.8574-54.4922c0 2.58789 1.85547 4.39453 4.58984 4.39453h19.7266v19.7754c0 2.68555 1.85547 4.58984 4.44336 4.58984 2.68555 0 4.54102-1.85547 4.54102-4.58984v-19.7754h19.7754c2.68555 0 4.58984-1.80664 4.58984-4.39453 0-2.73438-1.85547-4.58984-4.58984-4.58984h-19.7754v-19.7266c0-2.73438-1.85547-4.63867-4.54102-4.63867-2.58789 0-4.44336 1.9043-4.44336 4.63867v19.7266h-19.7266c-2.73438 0-4.58984 1.85547-4.58984 4.58984Z"/>
  </g>
  <text style="stroke:none;fill:black;font-family:sans-serif;font-size:13;font-weight:bold;" transform="matrix(1 0 0 1 263 1953)">Design Variations</text>
  <text style="stroke:none;fill:black;font-family:sans-serif;font-size:13;" transform="matrix(1 0 0 1 263 1971)">Symbols are supported in up to nine weights and three scales.</text>
  <text style="stroke:none;fill:black;font-family:sans-serif;font-size:13;" transform="matrix(1 0 0 1 263 1989)">For optimal layout with text and other symbols, vertically align</text>
  <text style="stroke:none;fill:black;font-family:sans-serif;font-size:13;" transform="matrix(1 0 0 1 263 2007)">symbols with the adjacent text.</text>
  <line style="fill:none;stroke:#00AEEF;stroke-width:0.5;opacity:1.0;" x1="776" x2="776" y1="1919" y2="1933"/>
  <g transform="matrix(0.2 0 0 0.2 776 1933)">
   <path d="m16.5527 0.78125c2.58789 0 3.85742-0.976562 4.78516-3.71094l6.29883-17.2363h28.8086l6.29883 17.2363c0.927734 2.73438 2.19727 3.71094 4.73633 3.71094 2.58789 0 4.24805-1.5625 4.24805-4.00391 0-0.830078-0.146484-1.61133-0.537109-2.63672l-22.9004-60.9863c-1.12305-2.97852-3.125-4.49219-6.25-4.49219-3.02734 0-5.07812 1.46484-6.15234 4.44336l-22.9004 61.084c-0.390625 1.02539-0.537109 1.80664-0.537109 2.63672 0 2.44141 1.5625 3.95508 4.10156 3.95508Zm13.4766-28.3691 11.8652-32.8613h0.244141l11.8652 32.8613Z"/>
  </g>
  <line style="fill:none;stroke:#00AEEF;stroke-width:0.5;opacity:1.0;" x1="792.836" x2="792.836" y1="1919" y2="1933"/>
  <text style="stroke:none;fill:black;font-family:sans-serif;font-size:13;font-weight:bold;" transform="matrix(1 0 0 1 776 1953)">Margins</text>
  <text style="stroke:none;fill:black;font-family:sans-serif;font-size:13;" transform="matrix(1 0 0 1 776 1971)">Leading and trailing margins on the left and right side of each symbol</text>
  <text style="stroke:none;fill:black;font-family:sans-serif;font-size:13;" transform="matrix(1 0 0 1 776 1989)">can be adjusted by modifying the x-location of the margin guidelines.</text>
  <text style="stroke:none;fill:black;font-family:sans-serif;font-size:13;" transform="matrix(1 0 0 1 776 2007)">Modifications are automatically applied proportionally to all</text>
  <text style="stroke:none;fill:black;font-family:sans-serif;font-size:13;" transform="matrix(1 0 0 1 776 2025)">scales and weights.</text>
  <g transform="matrix(0.2 0 0 0.2 1289 1933)">
   <path d="m14.209 9.32617 8.49609 8.54492c4.29688 4.3457 9.22852 4.05273 13.8672-1.07422l53.4668-58.9355-4.83398-4.88281-53.0762 58.3984c-1.75781 2.00195-3.41797 2.49023-5.76172 0.146484l-5.85938-5.81055c-2.34375-2.29492-1.80664-4.00391 0.195312-5.81055l57.373-54.0039-4.88281-4.83398-57.959 54.4434c-4.93164 4.58984-5.32227 9.47266-1.02539 13.8184Zm32.0801-90.9668c-2.09961 2.05078-2.24609 4.93164-1.07422 6.88477 1.17188 1.80664 3.4668 2.97852 6.68945 2.14844 7.32422-1.70898 14.9414-2.00195 22.0703 2.68555l-2.92969 7.27539c-1.70898 4.15039-0.830078 7.08008 1.85547 9.81445l11.4746 11.5723c2.44141 2.44141 4.49219 2.53906 7.32422 2.05078l5.32227-0.976562 3.32031 3.36914-0.195312 2.7832c-0.195312 2.49023 0.439453 4.39453 2.88086 6.78711l3.80859 3.71094c2.39258 2.39258 5.46875 2.53906 7.8125 0.195312l14.5508-14.5996c2.34375-2.34375 2.24609-5.32227-0.146484-7.71484l-3.85742-3.80859c-2.39258-2.39258-4.24805-3.17383-6.64062-2.97852l-2.88086 0.244141-3.22266-3.17383 1.2207-5.61523c0.634766-2.83203-0.146484-5.0293-3.07617-7.95898l-10.9863-10.9375c-16.6992-16.6016-38.8672-16.2109-53.3203-1.75781Zm7.4707 1.85547c12.1582-8.88672 28.6133-7.37305 39.7461 3.75977l12.1582 12.0605c1.17188 1.17188 1.36719 2.09961 1.02539 3.80859l-1.61133 7.42188 7.51953 7.42188 4.93164-0.292969c1.26953-0.0488281 1.66016 0.0488281 2.63672 1.02539l2.88086 2.88086-12.207 12.207-2.88086-2.88086c-0.976562-0.976562-1.12305-1.36719-1.07422-2.68555l0.341797-4.88281-7.4707-7.42188-7.61719 1.26953c-1.61133 0.341797-2.34375 0.195312-3.56445-0.976562l-10.0098-10.0098c-1.26953-1.17188-1.41602-2.00195-0.634766-3.85742l4.39453-10.4492c-7.8125-7.27539-17.9688-10.4004-28.125-7.42188-0.78125 0.195312-1.07422-0.439453-0.439453-0.976562Z"/>
  </g>
  <text style="stroke:none;fill:black;font-family:sans-serif;font-size:13;font-weight:bold;" transform="matrix(1 0 0 1 1289 1953)">Exporting</text>
  <text style="stroke:none;fill:black;font-family:sans-serif;font-size:13;" transform="matrix(1 0 0 1 1289 1971)">Symbols should be outlined when exporting to ensure the</text>
  <text style="stroke:none;fill:black;font-family:sans-serif;font-size:13;" transform="matrix(1 0 0 1 1289 1989)">design is preserved when submitting to Xcode.</text>
  <text id="template-version" style="stroke:none;fill:black;font-family:sans-serif;font-size:13;text-anchor:end;" transform="matrix(1 0 0 1 3036 1933)">Template v.5.0</text>
  <text style="stroke:none;fill:black;font-family:sans-serif;font-size:13;text-anchor:end;" transform="matrix(1 0 0 1 3036 1951)">Requires Xcode 15 or greater</text>
  <text id="descriptive-name" style="stroke:none;fill:black;font-family:sans-serif;font-size:13;text-anchor:end;" transform="matrix(1 0 0 1 3036 1969)">Generated from microblog</text>
  <text style="stroke:none;fill:black;font-family:sans-serif;font-size:13;text-anchor:end;" transform="matrix(1 0 0 1 3036 1987)">Typeset at 100.0 points</text>
  <text style="stroke:none;fill:black;font-family:sans-serif;font-size:13;" transform="matrix(1 0 0 1 263 726)">Small</text>
  <text style="stroke:none;fill:black;font-family:sans-serif;font-size:13;" transform="matrix(1 0 0 1 263 1156)">Medium</text>
  <text style="stroke:none;fill:black;font-family:sans-serif;font-size:13;" transform="matrix(1 0 0 1 263 1586)">Large</text>
 </g>
 <g id="Guides">
  <g id="H-reference" style="fill:#27AAE1;stroke:none;" transform="matrix(1 0 0 1 339 696)">
   <path d="M0.993654 0L3.63775 0L29.3281-67.1323L30.0303-67.1323L30.0303-70.459L28.1226-70.459ZM11.6885-24.4799L46.9815-24.4799L46.2315-26.7285L12.4385-26.7285ZM55.1196 0L57.7637 0L30.6382-70.459L29.4326-70.459L29.4326-67.1323Z"/>
  </g>
  <line id="Baseline-S" style="fill:none;stroke:#27AAE1;opacity:1;stroke-width:0.5;" x1="263" x2="3036" y1="696" y2="696"/>
  <line id="Capline-S" style="fill:none;stroke:#27AAE1;opacity:1;stroke-width:0.5;" x1="263" x2="3036" y1="625.541" y2="625.541"/>
  <g id="H-reference" style="fill:#27AAE1;stroke:none;" transform="matrix(1 0 0 1 339 1126)">
   <path d="M0.993654 0L3.63775 0L29.3281-67.1323L30.0303-67.1323L30.0303-70.459L28.1226-70.459ZM11.6885-24.4799L46.9815-24.4799L46.2315-26.7285L12.4385-26.7285ZM55.1196 0L57.7637 0L30.6382-70.459L29.4326-70.459L29.4326-67.1323Z"/>
  </g>
  <line id="Baseline-M" style="fill:none;stroke:#27AAE1;opacity:1;stroke-width:0.5;" x1="263" x2="3036" y1="1126" y2="1126"/>
  <line id="Capline-M" style="fill:none;stroke:#27AAE1;opacity:1;stroke-width:0.5;" x1="263" x2="3036" y1="1055.54" y2="1055.54"/>
  <g id="H-reference" style="fill:#27AAE1;stroke:none;" transform="matrix(1 0 0 1 339 1556)">
   <path d="M0.993654 0L3.63775 0L29.3281-67.1323L30.0303-67.1323L30.0303-70.459L28.1226-70.459ZM11.6885-24.4799L46.9815-24.4799L46.2315-26.7285L12.4385-26.7285ZM55.1196 0L57.7637 0L30.6382-70.459L29.4326-70.459L29.4326-67.1323Z"/>
  </g>
  <line id="Baseline-L" style="fill:none;stroke:#27AAE1;opacity:1;stroke-width:0.5;" x1="263" x2="3036" y1="1556" y2="1556"/>
  <line id="Capline-L" style="fill:none;stroke:#27AAE1;opacity:1;stroke-width:0.5;" x1="263" x2="3036" y1="1485.54" y2="1485.54"/>
  <line id="left-margin-Regular-M" style="fill:none;stroke:#00AEEF;stroke-width:0.5;opacity:1.0;" x1="1392.45" x2="1392.45" y1="1030.79" y2="1150.12"/>
  <line id="right-margin-Regular-M" style="fill:none;stroke:#00AEEF;stroke-width:0.5;opacity:1.0;" x1="1507.24" x2="1507.24" y1="1030.79" y2="1150.12"/>
 </g>
 <g id="Symbols">
  <g id="Regular-M" transform="matrix(1 0 0 1 1392.45 1126)">
   <path class="monochrome-0 multicolor-0:custom hierarchical-0:primary SFSymbolsPreviewWireframe" d="M93.0225-12.9228C98.9877-19.9686 102.55-28.8338 102.55-38.4741C102.55-61.4159 82.4025-80 57.55-80C32.6975-80 12.55-61.4159 12.55-38.4741C12.55-15.5322 32.6975 3.0519 57.55 3.0519C63.0214 3.06069 68.4546 2.13788 73.6188 0.322687C74.2202 0.115284 74.886 0.325504 75.2611 0.8412C79.021 5.93835 84.893 9.52301 91.423 10.9812C91.7903 11.0578 92.1661 10.8958 92.3636 10.5756C92.5612 10.2554 92.5384 9.84535 92.3066 9.54922C87.1567 2.84401 87.4695-6.58772 93.0523-12.934L93.0225-12.9228Z"/>
   <path class="monochrome-0 monochrome-1 multicolor-0:custom multicolor-1:custom hierarchical-0:primary hierarchical-1:tertiary SFSymbolsPreviewWireframe" d="M79.0271-43.5909L67.3658-34.7336L71.5974-20.709C71.7607-20.169 71.5644-19.5847 71.1083-19.2531C70.6522-18.9215 70.0363-18.9152 69.5735-19.2375L57.5502-27.5993L45.5287-19.2375C45.0659-18.9152 44.45-18.9215 43.9939-19.2531C43.5378-19.5847 43.3415-20.169 43.5048-20.709L47.7364-34.7336L36.0732-43.5909C35.6247-43.9319 35.4408-44.5195 35.6149-45.0556C35.789-45.5917 36.2829-45.9589 36.846-45.9709L51.4766-46.2769L56.2916-60.1119C56.4772-60.6438 56.9787-61 57.5417-61C58.1047-61 58.6062-60.6438 58.7919-60.1119L63.6068-46.2769L78.2374-45.9709C78.8037-45.9659 79.304-45.6012 79.4825-45.0634C79.6609-44.5256 79.4779-43.9339 79.0271-43.5909Z"/>
  </g>
  <g id="Black-S" transform="matrix(1 0 0 1 2883.01 696)">
   <path class="monochrome-0 multicolor-0:custom hierarchical-0:primary SFSymbolsPreviewWireframe" d="M80.5045-16.5822C85.5418-22.544 88.55-30.0453 88.55-38.2025C88.55-57.6148 71.5366-73.3398 50.55-73.3398C29.5634-73.3398 12.55-57.6148 12.55-38.2025C12.55-18.7901 29.5634-3.06512 50.55-3.06512C55.1703-3.05768 59.7584-3.83852 64.1192-5.37445C64.6271-5.54994 65.1893-5.37207 65.506-4.93571C68.6811-0.622735 73.6396 2.41044 79.1539 3.6443C79.464 3.70912 79.7814 3.57199 79.9482 3.30107C80.115 3.03015 80.0958 2.68319 79.9 2.43262C75.5512-3.24103 75.8154-11.2217 80.5297-16.5917L80.5045-16.5822Z"/>
   <path class="monochrome-0 monochrome-1 multicolor-0:custom multicolor-1:custom hierarchical-0:primary hierarchical-1:tertiary SFSymbolsPreviewWireframe" d="M69.3385-42.5858L59.3917-35.0606L63.0012-23.1454C63.1405-22.6866 62.9731-22.1902 62.584-21.9085C62.195-21.6267 61.6696-21.6214 61.2749-21.8952L51.0193-28.9994L40.7653-21.8952C40.3705-21.6214 39.8452-21.6267 39.4561-21.9085C39.0671-22.1902 38.8996-22.6866 39.039-23.1454L42.6484-35.0606L32.7-42.5858C32.3174-42.8755 32.1606-43.3747 32.3091-43.8301C32.4575-44.2856 32.8788-44.5975 33.3592-44.6078L45.8387-44.8677L49.9457-56.6219C50.1041-57.0737 50.5318-57.3764 51.0121-57.3764C51.4923-57.3764 51.9201-57.0737 52.0784-56.6219L56.1855-44.8677L68.665-44.6078C69.148-44.6035 69.5748-44.2936 69.727-43.8368C69.8791-43.3799 69.723-42.8771 69.3385-42.5858Z"/>
  </g>
  <g id="Regular-S" transform="matrix(1 0 0 1 1401.95 696)">
   <path class="monochrome-0 multicolor-0:custom hierarchical-0:primary SFSymbolsPreviewWireframe" d="M76.0338-17.9279C80.7397-23.5026 83.55-30.5169 83.55-38.1443C83.55-56.2961 67.6559-71 48.05-71C28.4441-71 12.55-56.2961 12.55-38.1443C12.55-19.9925 28.4441-5.28861 48.05-5.28861C52.3663-5.28165 56.6525-6.01179 60.7265-7.44798C61.2009-7.61208 61.7262-7.44575 62.0221-7.03773C64.9882-3.00482 69.6206-0.168605 74.7721 0.985136C75.0618 1.04574 75.3582 0.917521 75.5141 0.664189C75.67 0.410858 75.652 0.0864321 75.4691-0.14787C71.4064-5.45309 71.6532-12.9156 76.0574-17.9368L76.0338-17.9279Z"/>
   <path class="monochrome-0 monochrome-1 multicolor-0:custom multicolor-1:custom hierarchical-0:primary hierarchical-1:tertiary SFSymbolsPreviewWireframe" d="M65.6025-42.243L56.3101-35.2065L59.682-24.065C59.8122-23.636 59.6558-23.1718 59.2923-22.9084C58.9289-22.6449 58.4381-22.6399 58.0693-22.896L48.4884-29.5388L38.909-22.896C38.5402-22.6399 38.0494-22.6449 37.686-22.9084C37.3225-23.1718 37.1661-23.636 37.2963-24.065L40.6682-35.2065L31.3743-42.243C31.0169-42.5139 30.8704-42.9807 31.0091-43.4065C31.1478-43.8324 31.5414-44.1241 31.9902-44.1337L43.6486-44.3767L47.4855-55.3676C47.6334-55.7902 48.033-56.0732 48.4817-56.0732C48.9303-56.0732 49.3299-55.7902 49.4779-55.3676L53.3147-44.3767L64.9732-44.1337C65.4244-44.1297 65.8231-43.8399 65.9653-43.4127C66.1075-42.9855 65.9617-42.5154 65.6025-42.243Z"/>
  </g>
  <g id="Ultralight-S" transform="matrix(1 0 0 1 513.816 696)">
   <path class="monochrome-0 multicolor-0:custom hierarchical-0:primary SFSymbolsPreviewWireframe" d="M72.4573-18.8764C76.898-24.1414 79.55-30.7659 79.55-37.9696C79.55-55.113 64.5513-69 46.05-69C27.5487-69 12.55-55.113 12.55-37.9696C12.55-20.8263 27.5487-6.93924 46.05-6.93924C50.1231-6.93267 54.1679-7.62225 58.0123-8.97865C58.46-9.13363 58.9557-8.97655 59.2349-8.59119C62.034-4.78233 66.4053-2.10368 71.2666-1.01404C71.54-0.956799 71.8197-1.0779 71.9668-1.31715C72.1139-1.55641 72.0969-1.86281 71.9244-2.0841C68.0905-7.09459 68.3234-14.1425 72.4795-18.8848L72.4573-18.8764Z"/>
   <path class="monochrome-0 monochrome-1 multicolor-0:custom multicolor-1:custom hierarchical-0:primary hierarchical-1:tertiary SFSymbolsPreviewWireframe" d="M62.6136-41.8406L53.8447-35.195L57.0267-24.6725C57.1495-24.2673 57.0019-23.829 56.659-23.5801C56.316-23.3313 55.8528-23.3266 55.5048-23.5684L46.4637-29.8422L37.424-23.5684C37.076-23.3266 36.6128-23.3313 36.2699-23.5801C35.9269-23.829 35.7793-24.2673 35.9021-24.6725L39.0841-35.195L30.3138-41.8406C29.9765-42.0964 29.8383-42.5373 29.9692-42.9395C30.1001-43.3417 30.4715-43.6172 30.8949-43.6263L41.8966-43.8558L45.5173-54.2361C45.6569-54.6352 46.034-54.9024 46.4574-54.9024C46.8807-54.9024 47.2578-54.6352 47.3974-54.2361L51.0181-43.8558L62.0198-43.6263C62.4456-43.6225 62.8218-43.3488 62.956-42.9454C63.0902-42.5419 62.9526-42.0979 62.6136-41.8406Z"/>
  </g>
 </g>
</svg>
